<?xml version="1.0" encoding="utf-8"?>
<!-- Generator: Adobe Illustrator 24.1.2, SVG Export Plug-In . SVG Version: 6.00 Build 0)  -->
<svg version="1.1" id="Слой_1" xmlns="http://www.w3.org/2000/svg" xmlns:xlink="http://www.w3.org/1999/xlink" x="0px" y="0px"
	 viewBox="0 0 601.5 452.7" style="enable-background:new 0 0 601.5 452.7;" xml:space="preserve">
<style type="text/css">
	.st0{fill:#302C4E;}
	.st1{fill:#FFFFFF;}
	.st2{fill:#E7145A;}
</style>
<g>
	<path class="st0" d="M126.8,286.2c0.1-0.7,0.1-1.5,0.1-2.3c0-9.1-5.6-16.9-13.5-20.1c1.4-1.7,2.3-3.9,2.3-6.3
		c0-5.5-4.4-9.9-9.9-9.9v0c0-18.4-15-33.4-33.4-33.4c-18.4,0-33.3,14.8-33.4,33.2c0,0,0,0,0,0c-16.1,0-29.2,13.1-29.2,29.2
		c0,3.4,0.6,6.7,1.7,9.7c-0.6-0.1-1.1-0.2-1.7-0.2c-5.5,0-9.9,4.4-9.9,9.9c0,5.5,4.4,9.9,9.9,9.9c0.6,0,1.1-0.1,1.7-0.2h27.5h66.8
		H124c0.5,0.1,1.1,0.2,1.7,0.2c5.5,0,9.9-4.4,9.9-9.9C135.6,290.9,131.7,286.8,126.8,286.2"/>
</g>
<g>
	<path class="st1" d="M518.3,446.2c-2.1,0-3.6-0.6-4.7-1.8c-1.1-1.2-1.6-2.9-1.6-5.2c0-2.3,0.6-4,1.7-5.3c1.1-1.2,2.7-1.8,4.9-1.8
		c1.4,0,2.7,0.3,3.9,0.8l-0.9,2.3c-1.2-0.5-2.2-0.7-3-0.7c-2.4,0-3.5,1.6-3.5,4.7c0,1.5,0.3,2.7,0.9,3.4c0.6,0.8,1.4,1.2,2.6,1.2
		c1.3,0,2.5-0.3,3.7-1v2.5c-0.5,0.3-1.1,0.5-1.7,0.7C519.8,446.2,519.1,446.2,518.3,446.2"/>
	<path class="st0" d="M600.3,297.5l-92.7-110.1h48.9c1.8,0,3.5-0.8,4.4-2.3c1.2-1.9,1.1-4.2-0.2-6L501.8,103h21.3
		c1.8,0,3.6-0.7,4.7-2.2c1.8-2.2,1.6-5.3-0.1-7.3l-64.6-75.8c-0.2-0.3-0.6-0.3-0.9-0.1l-37.1,27.5l4.8,6.7l31.3-22.7
		c0,0,0.1,0,0.1,0l55.4,65.1H484l65.2,84.5h-60.4l99.8,118.5l-131.3-0.1l0,4.7V103.5L420,49.9c-0.2-0.3-0.6-0.4-0.9-0.2L392,69.3v0
		L331.2,0.2c-0.3-0.4-0.7-0.1-0.7,0l-63.3,72.7v27.2l-14-9.9c-0.2-0.1-0.3-0.2-0.4-0.1l-6.8-5.8C231.7,72.4,213.7,66,195.2,66
		c-42.6,0-77.4,33-79.9,75.3c-11.7,1.4-22.4,6.8-30.4,15.5c-8.3,9.1-12.9,20.8-12.9,33.2c0,4.4,0.6,8.7,1.8,13
		c-15,11-23.9,28.6-23.9,47.2c0,32.3,26.3,53.1,58.5,53.1c6.1,0,17.9,2.7,17.9,2.7l19.4,0.1l9,0v-0.1l27.7,0.1v-0.1l69.8,0.1h0.1
		h0.5v0l14.5-0.1v0.1h63.7l61.1-0.1l27.7,0.1l37.6-0.1v0l139.2,0.1c2,0,3.8-1.2,4.6-2.9C601.9,301.2,601.6,299,600.3,297.5
		 M145.7,297.1l-8.8,0v0l-10.1,0v-34.6l18.9-19.4V297.1z M182.3,297.1l-8.8,0v0l-10.1,0v-79.6l2.8-2.8l16.1-16.7V297.1z
		 M182.3,185.6l-27.7,28.3v20.3l-8.6-3.4c-0.4-0.2-0.6,0.1-0.6,0.1l0,0l-27.4,28v39.7c-3.2,0.6-6.4-4.5-9.7-4.5
		c-27.3,0-49.5-16.7-49.5-44c0-15.7,7.2-30.1,19.7-39.5l4.4-3l0.8-0.5l0.1-0.7l0.1,0.1l-1.3-4.8c-0.2-0.7-0.3-1.1-0.4-1.5l-0.1-0.4
		c-0.8-3.2-1.2-6.5-1.2-9.8c0-20.4,15.2-37.4,35.5-39.7l7.7-0.1l0-5l0.1-2.7c1.9-37.8,33-67.5,70.9-67.5c16.5,0,32.6,5.8,45.2,16.3
		l6.2,5.4l-64.3,72.9V185.6z M252.5,183.1l-0.3,114.1h-28l0,0l-33.1,0V173l52.9-60v0.1l8.7-9.9L252.5,183.1z M322.1,297.1
		L322.1,297.1l-46.1,0v-221l46.1-53v0l4.4-5v278.9h4.3L322.1,297.1z M339.6,297.1L339.6,297.1l-4.4,0v-279l4.4,5V23l43.6,49.6
		l4.4,4.8v219.6l-16.1,0L339.6,297.1z M448.5,297.1l-20.1,0v0l-4.4,0V71.2l4.4,6.3v-0.2l20.1,28.9V297.1z"/>
	<polygon class="st0" points="50.2,344.2 50.2,372.5 31.3,372.5 31.3,424.3 522,424.3 522,407.6 553.2,407.6 553.2,452.7 0.1,452.7 
		0.1,344.2 	"/>
	<polygon class="st1" points="319,439 319,432.4 321.7,432.4 321.7,439 326.9,432.4 330,432.4 324.6,439 330.5,446 327.3,446 
		321.7,439.1 321.7,446 319,446 319,439.1 313.4,446 310.2,446 316.1,439 310.7,432.4 313.8,432.4 	"/>
	<path class="st1" d="M335.3,432.4v7c0,0.8-0.1,2-0.2,3.6l6.8-10.6h3.5V446h-2.8v-6.9c0-0.4,0-1,0.1-1.8c0-0.8,0.1-1.5,0.1-1.8
		l-6.8,10.5h-3.5v-13.6H335.3z"/>
	<path class="st1" d="M360.8,446h-2.9v-11.3h-3.8c-0.2,2.9-0.5,5.2-0.9,6.8c-0.4,1.6-0.9,2.8-1.5,3.6c-0.6,0.8-1.4,1.1-2.4,1.1
		c-0.6,0-1.2-0.1-1.6-0.3v-2.3c0.3,0.1,0.6,0.2,0.9,0.2c0.8,0,1.5-0.9,2-2.8c0.5-1.9,0.9-4.8,1.1-8.6h9.1V446z"/>
	<path class="st1" d="M377,439.2c0,2.2-0.6,4-1.7,5.2c-1.1,1.2-2.7,1.9-4.8,1.9c-1.3,0-2.4-0.3-3.4-0.9c-1-0.6-1.7-1.4-2.3-2.5
		c-0.5-1.1-0.8-2.3-0.8-3.7c0-2.2,0.6-3.9,1.7-5.2c1.1-1.2,2.7-1.9,4.8-1.9c2,0,3.5,0.6,4.7,1.9C376.4,435.3,377,437,377,439.2
		 M367.1,439.2c0,3.1,1.2,4.7,3.5,4.7c2.3,0,3.4-1.6,3.4-4.7c0-3.1-1.2-4.7-3.5-4.7c-1.2,0-2.1,0.4-2.6,1.2
		C367.4,436.5,367.1,437.7,367.1,439.2"/>
	<path class="st1" d="M383.1,432.4v7c0,0.8-0.1,2-0.2,3.6l6.8-10.6h3.5V446h-2.8v-6.9c0-0.4,0-1,0.1-1.8c0-0.8,0.1-1.5,0.1-1.8
		l-6.8,10.5h-3.5v-13.6H383.1z M386.7,430.7c-1.7,0-3-0.3-3.8-0.9c-0.8-0.6-1.3-1.7-1.3-3.1h2.6c0,0.6,0.2,1,0.3,1.4
		c0.2,0.3,0.4,0.6,0.8,0.7c0.3,0.1,0.8,0.2,1.5,0.2c0.8,0,1.4-0.2,1.8-0.5c0.4-0.4,0.7-0.9,0.8-1.8h2.7c-0.1,1.4-0.6,2.4-1.5,3.1
		C389.7,430.4,388.4,430.7,386.7,430.7"/>
	<polygon class="st1" points="412.4,432.4 415.6,432.4 409.9,438.9 416,446 412.7,446 406.8,439.1 406.8,446 403.9,446 403.9,432.4 
		406.8,432.4 406.8,439 	"/>
	<path class="st1" d="M429.8,439.2c0,2.2-0.6,4-1.7,5.2c-1.1,1.2-2.7,1.9-4.8,1.9c-1.3,0-2.4-0.3-3.4-0.9c-1-0.6-1.7-1.4-2.3-2.5
		c-0.5-1.1-0.8-2.3-0.8-3.7c0-2.2,0.6-3.9,1.7-5.2c1.1-1.2,2.7-1.9,4.8-1.9c2,0,3.5,0.6,4.7,1.9C429.3,435.3,429.8,437,429.8,439.2
		 M419.9,439.2c0,3.1,1.2,4.7,3.5,4.7c2.3,0,3.4-1.6,3.4-4.7c0-3.1-1.2-4.7-3.5-4.7c-1.2,0-2.1,0.4-2.6,1.2
		C420.2,436.5,419.9,437.7,419.9,439.2"/>
	<path class="st1" d="M441,443.2l0.2-0.6c0.3-1.2,0.6-2.2,0.9-2.8l3.1-7.4h3.8V446h-2.7v-11l-0.2,0.7c-0.4,1.3-0.7,2.3-0.9,2.9
		l-3,7.3h-2.2l-3-7.4c-0.4-1.1-0.8-2.3-1.1-3.6v11h-2.6v-13.6h3.8l3,7.2C440.2,440.3,440.6,441.5,441,443.2"/>
	<polygon class="st1" points="465,432.4 465,446 462.1,446 462.1,434.7 455.9,434.7 455.9,446 453.1,446 453.1,432.4 	"/>
	<path class="st1" d="M480.3,446h-2.9v-11.3h-3.8c-0.2,2.9-0.5,5.2-0.9,6.8c-0.4,1.6-0.9,2.8-1.5,3.6c-0.6,0.8-1.4,1.1-2.4,1.1
		c-0.6,0-1.2-0.1-1.6-0.3v-2.3c0.3,0.1,0.6,0.2,0.9,0.2c0.8,0,1.5-0.9,2-2.8c0.5-1.9,0.9-4.8,1.1-8.6h9.1V446z"/>
	<path class="st1" d="M490.4,446.2c-2.1,0-3.8-0.6-5-1.9c-1.2-1.2-1.8-2.9-1.8-5.1c0-2.2,0.6-4,1.7-5.2c1.1-1.3,2.6-1.9,4.6-1.9
		c1.8,0,3.2,0.5,4.3,1.6c1,1.1,1.6,2.6,1.6,4.5v1.6h-9.1c0,1.3,0.4,2.3,1.1,3c0.7,0.7,1.6,1.1,2.8,1.1c0.8,0,1.6-0.1,2.2-0.2
		c0.7-0.2,1.4-0.4,2.2-0.8v2.4c-0.7,0.3-1.4,0.6-2.1,0.7C492.1,446.2,491.3,446.2,490.4,446.2 M489.8,434.3c-0.9,0-1.7,0.3-2.2,0.9
		c-0.6,0.6-0.9,1.4-1,2.5h6.2c0-1.1-0.3-2-0.8-2.6C491.5,434.6,490.8,434.3,489.8,434.3"/>
	<polygon class="st1" points="507.4,432.4 510.6,432.4 504.9,438.9 511,446 507.7,446 501.8,439.1 501.8,446 498.9,446 498.9,432.4 
		501.8,432.4 501.8,439 	"/>
	<path class="st1" d="M518.8,446.2c-2.1,0-3.6-0.6-4.7-1.8c-1.1-1.2-1.6-2.9-1.6-5.2c0-2.3,0.6-4,1.7-5.3c1.1-1.2,2.7-1.8,4.9-1.8
		c1.4,0,2.7,0.3,3.9,0.8l-0.9,2.3c-1.2-0.5-2.2-0.7-3-0.7c-2.4,0-3.5,1.6-3.5,4.7c0,1.5,0.3,2.7,0.9,3.4c0.6,0.8,1.4,1.2,2.6,1.2
		c1.3,0,2.5-0.3,3.7-1v2.5c-0.5,0.3-1.1,0.5-1.7,0.7C520.3,446.2,519.6,446.2,518.8,446.2"/>
	<rect x="50.2" y="315" class="st2" width="551.3" height="92"/>
	<path class="st1" d="M89.9,368.2c0,3.7-1.3,6.5-3.8,8.4c-2.5,2-6.1,2.9-10.9,2.9H64.1v-34.9h23v7.6H73.6v5.3h1.4
		c4.9,0,8.6,0.9,11.2,2.7C88.6,362,89.9,364.7,89.9,368.2 M73.6,372.3h1.3c2,0,3.4-0.3,4.3-1c0.9-0.7,1.3-1.6,1.3-2.9
		c0-1.3-0.5-2.2-1.4-2.8c-0.9-0.6-2.3-0.9-4.2-0.9h-1.2V372.3z"/>
	<path class="st1" d="M128.4,362.1c0,5.9-1.4,10.4-4.3,13.4c-2.9,3.1-7.1,4.6-12.7,4.6c-5.5,0-9.7-1.5-12.6-4.6
		c-2.9-3.1-4.4-7.6-4.4-13.4c0-5.8,1.5-10.3,4.4-13.3c2.9-3.1,7.1-4.6,12.7-4.6c5.6,0,9.8,1.5,12.6,4.6
		C127,351.7,128.4,356.2,128.4,362.1 M104.4,362.1c0,6.8,2.3,10.1,7.1,10.1c2.4,0,4.2-0.8,5.3-2.5c1.2-1.6,1.7-4.2,1.7-7.7
		c0-3.5-0.6-6.1-1.8-7.7c-1.2-1.7-2.9-2.5-5.2-2.5C106.8,351.8,104.4,355.2,104.4,362.1"/>
	<path class="st1" d="M164.5,379.6H155v-27.2h-6.7c-0.4,4-0.9,8-1.5,12.1c-0.6,4.1-1.2,7-1.8,8.7c-0.6,1.7-1.3,3-2.1,4
		c-0.9,1-1.9,1.7-3.2,2.2c-1.3,0.5-2.8,0.8-4.6,0.8c-1.4,0-2.6-0.2-3.7-0.5v-7.3c1,0.3,1.7,0.5,2.3,0.5c0.8,0,1.5-0.3,1.9-1
		c0.4-0.7,0.8-1.9,1.2-3.5c0.4-1.7,0.9-4.8,1.5-9.3c0.7-4.5,1.3-9.3,1.8-14.2h24.1V379.6z"/>
	<path class="st1" d="M197,368c0,3.7-1.3,6.6-3.8,8.6c-2.5,2-6.1,3-10.8,3h-10.3v-34.9h9.5v12.4h0.5c4.9,0,8.6,0.9,11.1,2.8
		C195.7,361.7,197,364.4,197,368 M181.6,372.3h0.4c3.7,0,5.5-1.4,5.5-4.1c0-2.6-1.9-3.9-5.6-3.9h-0.4V372.3z"/>
	<polygon class="st1" points="248.3,379.6 202.6,379.6 202.6,344.6 212.1,344.6 212.1,371.8 220.8,371.8 220.8,344.6 230.1,344.6 
		230.1,371.8 238.8,371.8 238.8,344.6 248.3,344.6 	"/>
	<path class="st1" d="M255.8,344.6h8.4v15c0,1.6-0.1,4.8-0.4,9.6h0.2l13.9-24.6h11.7v34.9h-8.4V365c0-2.2,0.1-5.5,0.4-9.9h-0.2
		l-14.1,24.6h-11.6V344.6z"/>
	<polygon class="st1" points="318,379.6 297.2,379.6 297.2,344.6 318,344.6 318,352.2 306.7,352.2 306.7,357.7 317.1,357.7 
		317.1,365.3 306.7,365.3 306.7,371.9 318,371.9 	"/>
	<path class="st1" d="M352,379.6l-7.1-25.2h-0.2c0.3,4.3,0.5,7.6,0.5,10v15.2h-8.4v-34.9h12.6l7.3,24.8h0.2l7.1-24.8h12.6v34.9h-8.7
		v-15.3c0-0.8,0-1.7,0-2.7s0.1-3.4,0.3-7.1h-0.2l-7.1,25.1H352z"/>
	<path class="st1" d="M409.1,368c0,3.7-1.3,6.6-3.8,8.6c-2.5,2-6.1,3-10.8,3h-10.3v-35h9.5v12.4h0.5c4.9,0,8.6,0.9,11.2,2.8
		C407.8,361.7,409.1,364.4,409.1,368 M393.6,372.3h0.4c3.7,0,5.5-1.4,5.5-4.1c0-2.6-1.9-4-5.6-4h-0.3V372.3z M421.8,379.6h-9.5
		v-34.9h9.5V379.6z"/>
	<polygon class="st1" points="444.7,379.6 435.3,379.6 435.3,352.4 426.8,352.4 426.8,344.6 453.2,344.6 453.2,352.4 444.7,352.4 	
		"/>
	<path class="st1" d="M458.2,344.6h8.4v15c0,1.6-0.1,4.8-0.4,9.6h0.2l13.9-24.6h11.7v34.9h-8.4V365c0-2.2,0.1-5.5,0.4-9.9h-0.2
		l-14.1,24.6h-11.6V344.6z"/>
	<polygon class="st1" points="499.6,379.6 499.6,344.6 509.1,344.6 509.1,371.8 517.8,371.8 517.8,344.6 527.1,344.6 527.1,371.8 
		535.8,371.8 535.8,344.6 545.3,344.6 545.3,371.8 552.7,371.8 552.7,390.5 543.5,390.5 543.5,379.6 	"/>
	<path class="st1" d="M557.3,344.6h8.4v15c0,1.6-0.1,4.8-0.4,9.6h0.2l13.9-24.6h11.7v34.9h-8.4V365c0-2.2,0.1-5.5,0.4-9.9H583
		L569,379.6h-11.6V344.6z"/>
	<polygon class="st0" points="462.1,22 457.1,21.5 417.7,50.7 431,73 453.3,105.4 453.3,301.7 594.7,301.7 594.7,297.1 499.7,184.2 
		555,181.5 546.4,167.3 492.4,98.1 523.4,97.2 518.2,88.5 	"/>
	<path class="st2" d="M571.3,46.4c-0.1,0.1-12.4,5.3-21,15.6c-3.6-2-12.9-6.8-15-5.6l-1.3,0.7l1.4,0.6c0.1,0,8.2,3.3,15.7,12.8
		l0.8,1.1l0.4-1.3c0-0.1,4.5-13.7,19.6-22.6L571.3,46.4z"/>
	<path class="st2" d="M57.7,179.9c-0.1,0.1-12.4,5.3-21,15.6c-3.6-2-12.9-6.8-15-5.6l-1.3,0.7l1.4,0.6c0.1,0,8.2,3.3,15.7,12.8
		l0.8,1.1l0.4-1.3c0-0.1,4.5-13.7,19.6-22.6L57.7,179.9z"/>
	<path class="st2" d="M491.5,58.3c-7.7-4.2-28.5-15.1-33.1-12.5l-2.5,1.4l2.7,1.1c0.2,0.1,18.3,7.3,34.9,28.4l1.6,2l0.8-2.4
		c0.1-0.3,10.1-30.5,43.3-50l-1.2-2.4C537.6,23.9,510.5,35.5,491.5,58.3"/>
</g>
</svg>
