<?xml version="1.0" encoding="utf-8"?>
<!-- Generator: Adobe Illustrator 16.0.0, SVG Export Plug-In . SVG Version: 6.00 Build 0)  -->
<!DOCTYPE svg PUBLIC "-//W3C//DTD SVG 1.1//EN" "http://www.w3.org/Graphics/SVG/1.1/DTD/svg11.dtd">
<svg version="1.1" id="Слой_1" xmlns="http://www.w3.org/2000/svg" xmlns:xlink="http://www.w3.org/1999/xlink" x="0px" y="0px"
	 width="549.298px" height="528.533px" viewBox="0 0 549.298 528.533" enable-background="new 0 0 549.298 528.533"
	 xml:space="preserve">
<polygon fill="#312C4E" points="89.556,376.313 120.874,376.313 120.874,314.672 89.556,335.551 "/>
<polygon fill="#312C4E" points="163.709,241.1 132.391,261.978 132.391,376.313 163.709,376.313 163.709,272.007 163.709,256.063 
	"/>
<polygon fill="#312C4E" points="433.35,314.672 433.35,376.313 464.668,376.313 464.668,335.551 "/>
<polygon fill="#312C4E" points="389.73,376.313 421.047,376.313 421.047,261.979 389.73,241.1 "/>
<polygon fill="#312C4E" points="272.742,14.244 176.302,76.556 176.302,201.183 272.742,141.874 "/>
<polygon fill="#312C4E" points="176.302,250.866 272.742,191.558 272.742,156.159 176.302,217.014 "/>
<polygon fill="#312C4E" points="176.302,376.313 272.742,376.313 272.742,205.818 176.302,266.673 "/>
<polygon fill="#312C4E" points="377.301,59.653 284.838,0 284.838,36.924 377.301,93.786 "/>
<polygon fill="#312C4E" points="284.838,51.17 284.838,376.314 377.301,376.314 377.301,109.515 "/>
<polygon fill="#312C4E" points="62.49,404.216 62.49,436.704 40.888,436.704 40.888,496.047 455.737,496.047 455.737,476.941 
	491.464,476.941 491.464,528.533 0,528.533 0,404.216 "/>
<g>
	<path fill="#FFFFFF" d="M223.095,512.874v-7.571h3.088v7.571l6.006-7.571h3.497l-6.134,7.544l6.684,8.051h-3.652l-6.401-7.91v7.91
		h-3.088v-7.91l-6.388,7.91h-3.638l6.669-8.051l-6.12-7.544h3.497L223.095,512.874z"/>
	<path fill="#FFFFFF" d="M241.806,505.303v7.995c0,0.931-0.076,2.298-0.226,4.103l7.826-12.098h4.046v15.595h-3.187v-7.854
		c0-0.433,0.026-1.133,0.078-2.102c0.052-0.968,0.096-1.673,0.134-2.114l-7.797,12.069h-4.047v-15.595H241.806z"/>
	<path fill="#FFFFFF" d="M270.993,520.897h-3.342v-13h-4.301c-0.263,3.346-0.618,5.959-1.064,7.839
		c-0.446,1.881-1.029,3.253-1.749,4.118c-0.719,0.864-1.652,1.297-2.799,1.297c-0.724,0-1.33-0.104-1.819-0.311v-2.594
		c0.348,0.131,0.695,0.197,1.043,0.197c0.959,0,1.713-1.079,2.263-3.236s0.98-5.459,1.29-9.905h10.477V520.897z"/>
	<path fill="#FFFFFF" d="M289.563,513.072c0,2.547-0.653,4.535-1.96,5.964s-3.125,2.144-5.457,2.144
		c-1.458,0-2.745-0.329-3.864-0.987s-1.979-1.603-2.58-2.834c-0.602-1.231-0.903-2.66-0.903-4.286c0-2.529,0.649-4.503,1.946-5.923
		c1.297-1.419,3.125-2.129,5.485-2.129c2.256,0,4.042,0.727,5.358,2.179S289.563,510.609,289.563,513.072z M278.212,513.072
		c0,3.6,1.33,5.4,3.99,5.4c2.632,0,3.948-1.801,3.948-5.4c0-3.563-1.326-5.345-3.977-5.345c-1.391,0-2.399,0.461-3.024,1.382
		C278.525,510.031,278.212,511.352,278.212,513.072z"/>
	<path fill="#FFFFFF" d="M296.543,505.303v7.995c0,0.931-0.076,2.298-0.226,4.103l7.826-12.098h4.046v15.595h-3.187v-7.854
		c0-0.433,0.026-1.133,0.078-2.102c0.052-0.968,0.096-1.673,0.134-2.114l-7.797,12.069h-4.047v-15.595H296.543z M300.674,503.399
		c-1.993,0-3.453-0.36-4.378-1.079s-1.44-1.92-1.544-3.603h3.003c0.057,0.677,0.186,1.203,0.388,1.579s0.494,0.646,0.875,0.811
		c0.38,0.165,0.961,0.247,1.741,0.247c0.921,0,1.622-0.204,2.101-0.613s0.771-1.083,0.874-2.023h3.06
		c-0.141,1.617-0.71,2.802-1.707,3.554C304.091,503.023,302.62,503.399,300.674,503.399z"/>
	<path fill="#FFFFFF" d="M330.087,505.303h3.638l-6.444,7.516l6.994,8.079h-3.807l-6.74-7.91v7.91h-3.314v-15.595h3.314v7.571
		L330.087,505.303z"/>
</g>
<g>
	<path fill="#FFFFFF" d="M350.094,513.072c0,2.547-0.653,4.535-1.96,5.964s-3.125,2.144-5.457,2.144
		c-1.458,0-2.745-0.329-3.864-0.987s-1.979-1.603-2.58-2.834c-0.602-1.231-0.903-2.66-0.903-4.286c0-2.529,0.649-4.503,1.946-5.923
		c1.297-1.419,3.125-2.129,5.485-2.129c2.256,0,4.042,0.727,5.358,2.179S350.094,510.609,350.094,513.072z M338.743,513.072
		c0,3.6,1.33,5.4,3.99,5.4c2.632,0,3.948-1.801,3.948-5.4c0-3.563-1.326-5.345-3.977-5.345c-1.391,0-2.399,0.461-3.024,1.382
		C339.056,510.031,338.743,511.352,338.743,513.072z"/>
	<path fill="#FFFFFF" d="M362.854,517.725l0.184-0.677c0.386-1.4,0.719-2.477,1.001-3.229l3.497-8.517h4.413v15.595h-3.06v-12.592
		l-0.254,0.847c-0.423,1.514-0.78,2.627-1.071,3.342l-3.412,8.403h-2.51l-3.413-8.46c-0.47-1.222-0.902-2.6-1.297-4.132v12.592
		H353.9v-15.595h4.385l3.384,8.263C361.97,514.327,362.366,515.714,362.854,517.725z"/>
	<path fill="#FFFFFF" d="M390.322,505.303v15.595h-3.328v-12.973H380v12.973h-3.313v-15.595H390.322z"/>
	<path fill="#FFFFFF" d="M407.876,520.897h-3.342v-13h-4.3c-0.264,3.346-0.618,5.959-1.064,7.839
		c-0.447,1.881-1.029,3.253-1.749,4.118c-0.719,0.864-1.652,1.297-2.799,1.297c-0.724,0-1.33-0.104-1.818-0.311v-2.594
		c0.348,0.131,0.695,0.197,1.043,0.197c0.959,0,1.713-1.079,2.263-3.236s0.98-5.459,1.291-9.905h10.476V520.897z"/>
	<path fill="#FFFFFF" d="M419.425,521.18c-2.426,0-4.322-0.707-5.689-2.122c-1.368-1.415-2.052-3.363-2.052-5.845
		c0-2.547,0.634-4.55,1.903-6.007c1.269-1.457,3.013-2.186,5.231-2.186c2.059,0,3.685,0.625,4.878,1.875
		c1.194,1.251,1.791,2.971,1.791,5.161v1.791h-10.392c0.047,1.514,0.456,2.677,1.227,3.489c0.771,0.813,1.856,1.22,3.257,1.22
		c0.922,0,1.779-0.087,2.573-0.261c0.795-0.174,1.647-0.463,2.56-0.867v2.693c-0.809,0.386-1.626,0.658-2.453,0.817
		C421.432,521.1,420.487,521.18,419.425,521.18z M418.819,507.53c-1.053,0-1.896,0.334-2.531,1.001
		c-0.635,0.668-1.013,1.641-1.135,2.919h7.078c-0.02-1.288-0.329-2.263-0.931-2.926S419.872,507.53,418.819,507.53z"/>
	<path fill="#FFFFFF" d="M438.925,505.303h3.638l-6.444,7.516l6.994,8.079h-3.808l-6.739-7.91v7.91h-3.313v-15.595h3.313v7.571
		L438.925,505.303z"/>
</g>
<g>
	<path fill="#FFFFFF" d="M451.388,521.18c-2.359,0-4.152-0.688-5.379-2.065c-1.227-1.378-1.84-3.354-1.84-5.93
		c0-2.623,0.642-4.639,1.925-6.049s3.137-2.115,5.563-2.115c1.645,0,3.125,0.306,4.441,0.917l-1.001,2.664
		c-1.401-0.545-2.558-0.817-3.469-0.817c-2.698,0-4.047,1.791-4.047,5.372c0,1.749,0.336,3.063,1.008,3.941s1.657,1.318,2.954,1.318
		c1.476,0,2.872-0.367,4.188-1.1v2.891c-0.592,0.348-1.224,0.597-1.896,0.747C453.163,521.104,452.347,521.18,451.388,521.18z"/>
</g>
<path fill="#302C4E" d="M359.101,356.693c0.987-0.264,1.896-0.563,2.741-0.91C360.992,356.12,360.088,356.43,359.101,356.693"/>
<rect x="62.574" y="370.852" fill="#CC1F3A" width="486.611" height="105.397"/>
<g>
	<path fill="#FFFFFF" d="M134.66,446.767h-12.763V410.15h-8.969c-0.493,5.336-1.152,10.77-1.977,16.299
		c-0.825,5.529-1.613,9.408-2.363,11.638c-0.75,2.229-1.699,4.002-2.845,5.32c-1.147,1.318-2.567,2.314-4.26,2.989
		c-1.693,0.676-3.74,1.013-6.14,1.013c-1.822,0-3.483-0.235-4.983-0.707v-9.805c1.286,0.429,2.336,0.643,3.15,0.643
		c1.114,0,1.966-0.466,2.556-1.398s1.13-2.518,1.624-4.758c0.493-2.239,1.179-6.397,2.058-12.474
		c0.878-6.076,1.693-12.457,2.443-19.144h32.469V446.767z"/>
	<path fill="#FFFFFF" d="M144.819,399.767h11.316v20.188c0,2.144-0.172,6.43-0.515,12.859h0.257l18.742-33.048h15.688v47h-11.252
		v-19.675c0-2.979,0.193-7.437,0.579-13.373h-0.257l-18.903,33.048h-15.656V399.767z"/>
	<path fill="#FFFFFF" d="M247.789,461.394h-12.377v-14.627h-27.39v14.627h-12.377v-25.043h3.89
		c2.808-4.758,5.122-10.26,6.944-16.508c1.822-6.247,3-12.939,3.537-20.076h31.344v36.584h6.43V461.394z M228.564,436.351v-26.2
		h-8.358c-0.879,9.173-3.291,17.906-7.233,26.2H228.564z"/>
	<path fill="#FFFFFF" d="M281.962,446.767h-27.904v-47h27.904v10.19h-15.206v7.395h14.081v10.19h-14.081v8.873h15.206V446.767z"/>
	<path fill="#FFFFFF" d="M324.301,414.715c0,5.251-1.549,9.307-4.646,12.168c-3.097,2.861-7.496,4.292-13.197,4.292h-3.568v15.592
		h-12.698v-47h16.267c5.937,0,10.395,1.297,13.374,3.89C322.811,406.25,324.301,409.937,324.301,414.715z M302.89,420.823h2.314
		c1.907,0,3.424-0.535,4.549-1.607c1.125-1.071,1.688-2.55,1.688-4.437c0-3.172-1.757-4.758-5.272-4.758h-3.279V420.823z"/>
	<path fill="#FFFFFF" d="M387.408,446.767h-12.795V410.15h-12.957v36.616h-12.762v-47h38.514V446.767z"/>
	<path fill="#FFFFFF" d="M426.371,446.767l-2.314-8.809h-15.271l-2.379,8.809h-13.952l15.335-47.193h16.941l15.527,47.193H426.371z
		 M421.419,427.542l-2.024-7.716c-0.472-1.714-1.045-3.933-1.721-6.654c-0.675-2.722-1.12-4.672-1.334-5.851
		c-0.192,1.093-0.573,2.894-1.141,5.4c-0.568,2.508-1.828,7.448-3.777,14.82H421.419z"/>
	<path fill="#FFFFFF" d="M479.447,414.715c0,5.251-1.549,9.307-4.646,12.168c-3.098,2.861-7.496,4.292-13.196,4.292h-3.569v15.592
		h-12.698v-47h16.268c5.936,0,10.394,1.297,13.373,3.89C477.957,406.25,479.447,409.937,479.447,414.715z M458.036,420.823h2.315
		c1.907,0,3.424-0.535,4.549-1.607c1.125-1.071,1.688-2.55,1.688-4.437c0-3.172-1.758-4.758-5.272-4.758h-3.279V420.823z"/>
	<path fill="#FFFFFF" d="M528.022,446.767h-14.37L499.7,422.945v23.821h-12.763v-47H499.7v22.761l13.438-22.761h13.952
		l-14.499,22.439L528.022,446.767z"/>
</g>
<path fill="#312C4E" d="M78.28,354.396c0.219-0.437,0.363-0.848,0.11-1.438c-0.242-0.563-0.741-0.731-1.229-0.796
	c0.029-0.154,0.049-0.292,0.051-0.463c0.003-0.326-0.145-0.631-0.311-0.873c-0.206-0.303-0.439-0.4-0.685-0.451
	c0.027-0.211-0.018-0.441-0.17-0.681c-0.098-0.153-0.219-0.265-0.351-0.357c-0.038-0.025-0.081-0.043-0.121-0.064
	c-0.101-0.057-0.204-0.109-0.314-0.146c-0.015-0.003-0.027-0.014-0.042-0.018c0,0-0.003,0.004-0.003,0.007
	c-0.112-0.035-0.221-0.067-0.333-0.089v-0.001c-0.114-0.022-0.226-0.037-0.334-0.056c-0.261-0.036-0.477-0.023-0.674-0.216
	c-0.203-0.198-0.481-0.313-0.741-0.243c-0.452,0.115-0.62,0.59-0.642,1.076c-0.159-0.021-0.3,0.021-0.428,0.094
	c-0.058-0.161-0.156-0.33-0.284-0.507c-0.025-0.03-0.045-0.06-0.072-0.092c0.032,0.038,0.054,0.058,0.072,0.068
	c0.009-0.162,0.027-0.281,0.076-0.457c0.117-0.417,0.063-0.742-0.13-1.119c-0.076-0.149-0.192-0.283-0.327-0.407
	c0.838,0.021,1.366-0.663,1.276-1.644c0.003-0.001,0.005-0.001,0.005-0.001c-0.007-0.111-0.025-0.228-0.052-0.343
	c0.538-0.451,0.724-1.238,0.33-1.911c-0.05-0.103-0.11-0.206-0.187-0.304c-0.284-0.365-0.906-0.605-1.305-0.424
	c-0.288,0.134-0.215,0.118-0.447-0.041c-0.009-0.121-0.034-0.231-0.072-0.331c-0.011-0.027-0.022-0.052-0.036-0.077
	c-0.031-0.065-0.069-0.126-0.112-0.181c-0.049-0.08-0.093-0.163-0.161-0.228c-0.011,0.017-0.029,0.024-0.049,0.028
	c-0.036-0.026-0.072-0.055-0.112-0.077c-0.007-0.011-0.011-0.018-0.018-0.026c0.282-0.096,0.497-0.319,0.62-0.628
	c0.616-0.256,1.449-0.799,1.337-1.628c-0.081-0.564-0.338-0.875-0.674-1.042c0.367-0.536,0.633-1.165,0.354-1.779
	c-0.088-0.189-0.184-0.329-0.289-0.441c0.002,0.002,0.004,0.003,0.004,0.003s-0.013-0.015-0.02-0.024
	c-0.092-0.093-0.19-0.161-0.291-0.212c-0.018-0.01-0.036-0.018-0.054-0.025c-0.188-0.082-0.391-0.107-0.604-0.112
	c-0.018,0-0.036-0.002-0.056-0.002c-0.103-0.001-0.206-0.001-0.313,0c-0.162-0.512-0.619-0.707-1.118-0.746
	c0-0.623-0.107-1.227-0.676-1.509c-0.508-0.254-1.043-0.152-1.469,0.21c-0.098-0.043-0.185-0.032-0.277-0.037
	c0.483-0.767-0.334-1.888-0.808-2.727c0.246-0.009,0.479-0.034,0.745-0.178c0.237-0.125,0.144-0.568,0.043-0.757
	c-0.025-0.051-0.052-0.098-0.079-0.146c0.699-0.344,0.591-1.375,0.007-2.041c0.027-0.146,0.023-0.284,0.007-0.416
	c-0.002-0.013,0.002-0.025,0-0.038c-0.002,0.002-0.005,0.003-0.005,0.004c-0.004-0.019-0.004-0.036-0.009-0.053
	c-0.002-0.011,0-0.021-0.002-0.031c-0.036-0.151-0.101-0.29-0.184-0.414c-0.006-0.013-0.013-0.024-0.02-0.036
	c-0.087-0.122-0.194-0.228-0.315-0.314c-0.009-0.009-0.018-0.015-0.029-0.023c-0.126-0.085-0.263-0.149-0.41-0.192
	c-0.004-0.001-0.009-0.005-0.016-0.007v0.003c-0.036-0.01-0.071-0.024-0.107-0.03c-0.052-0.372-0.195-0.713-0.5-0.94
	c-0.203-0.151-0.416-0.223-0.635-0.261c0.004-0.002,0.011,0,0.018-0.003c-0.016-0.003-0.034-0.003-0.05-0.004
	c-0.094-0.015-0.19-0.023-0.286-0.027c-0.036-0.003-0.072-0.006-0.108-0.008c-0.132-0.003-0.264-0.001-0.396-0.001h-0.21
	c0.159-0.105,0.306-0.214,0.387-0.375c0.168-0.32,0.28-0.613,0.161-0.996c-0.015-0.047-0.027-0.089-0.036-0.124
	c0.032-0.046,0.059-0.093,0.074-0.153c0.235-0.997-0.342-1.655-0.673-2.477c-0.225-0.56-0.24-1.256-0.833-1.479
	c-0.578-0.218-1.151-0.156-1.691,0.075c-0.197-0.298-0.452-0.535-0.734-0.716c0.237-0.416,0.439-0.828,0.369-1.427
	c-0.089-0.74-0.429-1.382-0.931-1.826c-0.486-0.421-1.153-0.814-1.773-0.705c-0.428,0.078-0.683,0.467-1.122,0.527
	c-0.051,0.007-0.096,0.032-0.145,0.045c0.002-0.005,0-0.011,0.002-0.015c-0.07,0.02-0.134,0.05-0.202,0.076
	c-0.167,0.067-0.333,0.145-0.503,0.215c-0.296,0.117-0.235,0.385-0.499,0.251c-0.16-0.08-0.314-0.123-0.471-0.155
	c-0.013-0.003-0.027-0.011-0.042-0.014c0,0.003,0.002,0.005,0.002,0.007c-0.063-0.012-0.121-0.026-0.186-0.034
	c0.04-0.093,0.081-0.18,0.112-0.271c0.287-1.056-0.295-2.025-1.083-2.432c-0.11-0.876-0.421-1.721-1.286-1.848
	c-0.75-0.108-1.307,0.36-1.461,1.1c-0.276-0.052-0.495-0.014-0.71,0.171c0.002-0.008,0.009-0.015,0.011-0.022
	c-0.015,0.015-0.036,0.029-0.053,0.047c-0.05-0.198-0.148-0.387-0.251-0.523c-0.038-0.053-0.083-0.099-0.126-0.146
	c-0.002,0-0.004-0.004-0.006-0.007c0.009-0.006,0.02-0.015,0.031-0.025c0.007-0.006,0.009-0.014,0.016-0.019
	c0.008-0.011,0.017-0.014,0.026-0.027c0.097-0.08,0.213-0.186,0.31-0.306c0.015-0.018,0.024-0.036,0.038-0.055
	c0.067-0.093,0.123-0.193,0.143-0.303c0.125-0.678-0.036-1.298-0.43-1.816c-0.448-0.594-1.191-1.06-1.898-1.089
	c-0.086-0.234-0.202-0.442-0.374-0.609c-0.245-0.23-0.504-0.303-0.809-0.214c-0.147,0.042-0.257,0.216-0.374,0.29
	c-0.25-0.235-0.465-0.387-0.875-0.395c-0.416-0.005-0.815,0.286-0.989,0.738c-0.211,0.536-0.211,1.185-0.034,1.73
	c0.083,0.261,0.249,0.466,0.387,0.678c0.081,0.07,0.103,0.122,0.085,0.16c-0.049-0.007-0.096-0.005-0.145-0.027
	c-0.047-0.021-0.094-0.036-0.143-0.072c-0.088-0.064-0.184-0.112-0.278-0.164c0.002-0.007,0-0.013,0-0.02
	c-0.045-0.026-0.092-0.049-0.141-0.065c-0.101-0.037-0.195-0.07-0.286-0.084c0.004-0.027,0.001-0.057,0.006-0.083
	c0.002-0.004,0.007-0.008,0.009-0.012c0.018-0.104,0.025-0.205,0.023-0.336c-0.016-0.534-0.475-0.964-0.907-0.749
	c-0.088,0.041-0.179,0.08-0.28,0.109c0.526-1.782,0.188-4.441-1.146-5.18c-0.287-0.157-0.562-0.187-0.804,0.083
	c-0.237,0.258-0.455,0.512-0.661,0.778c-0.367-0.517-1.01-0.633-1.565-0.423c-0.195-0.14-0.371-0.282-0.356-0.466
	c0.034-0.388,0.119-0.772,0.113-1.167c-0.007-0.359-0.263-0.697-0.569-0.709c-0.372-0.015-0.757,0.03-1.064,0.312
	c-0.284,0.258-0.725,0.979-1.126,0.627c-0.275-0.239-0.548-0.343-0.886-0.304c-0.04,0.004-0.081,0.039-0.123,0.087
	c-0.027,0.032-0.05,0.068-0.077,0.107c-0.085,0.131-0.161,0.275-0.194,0.255c-0.085-0.052-0.175-0.117-0.269-0.187
	c-0.418-0.313-0.902-0.733-1.377-0.783v-0.002c-0.002,0-0.007,0.001-0.011,0.001c-0.092-0.009-0.184-0.007-0.276,0.018
	c-0.709,0.184-0.763,1.189-0.563,1.842c0.123,0.397,0.053,0.539-0.188,0.561v-0.002c-0.083,0.009-0.182,0.002-0.301-0.015
	c-0.201-0.025-0.394-0.051-0.595-0.025c-0.423,0.05-0.71,0.25-0.974,0.649c-0.522,0.777-0.049,1.93,0.349,2.669
	c-0.085,0.085-0.161,0.19-0.221,0.325c-0.065,0.145-0.079,0.318-0.052,0.5c-0.17,0.238-0.313,0.491-0.398,0.795
	c-0.386,0.256-0.699,0.61-0.907,1.028c-0.134,0.046-0.276,0.133-0.417,0.27c-0.459,0.439-0.772,0.569-1.374,0.485
	c-0.211-0.028-0.537-0.63-0.839-0.753c-0.164-0.064-0.346-0.118-0.524-0.067c-0.108,0.021-0.211,0.059-0.314,0.108
	c-0.052,0.015-0.087,0.033-0.119,0.05c-0.19-0.213-0.445-0.317-0.73-0.301c-0.552,0.03-1.067,0.225-1.535,0.534v-0.002
	c-0.003,0.002-0.007,0.007-0.011,0.009c-0.166,0.111-0.328,0.235-0.482,0.376c-0.676,0.104-1.569,0.621-1.614,1.54
	c-0.013,0.28,0.016,0.519,0.087,0.787c0.005,0.027,0.007,0.049,0.012,0.071c-0.041,0.071-0.085,0.139-0.124,0.214
	c-0.174,0.322-0.252,0.612-0.255,0.948c-0.351,0.256-0.752,0.658-0.871,1.093c-0.071,0.26-0.016,0.47,0.103,0.637
	c-0.186,0.672-0.029,1.302,0.56,1.777c0.345,0.282,0.846,0.263,1.318,0.197c0.032,0.095,0.075,0.192,0.135,0.289
	c0.033,0.052,0.058,0.081,0.072,0.102c-0.085,0.051-0.175,0.089-0.265,0.121c-0.208,0.083-0.441,0.162-0.635,0.288
	c-0.397,0.253-0.477,0.649-0.363,0.998c-0.094,0.096-0.173,0.201-0.244,0.312c-0.486-0.327-1.088-0.513-1.641-0.431
	c-0.112-0.22-0.258-0.405-0.45-0.539c-0.267-0.185-0.538-0.205-0.824-0.063c-0.139,0.068-0.226,0.26-0.334,0.354
	c-0.277-0.187-0.508-0.295-0.913-0.229c-0.416,0.071-0.77,0.431-0.884,0.911c-0.137,0.568-0.056,1.206,0.19,1.717
	c0.114,0.238,0.304,0.41,0.468,0.597c0.166,0.101,0.154,0.184-0.034,0.237c-0.076,0.142-0.168,0.258-0.275,0.363
	c-0.119-0.226-0.314-0.452-0.495-0.591c-0.347-0.264-0.707-0.469-1.128-0.362c-0.715,0.175-0.959,1.12-1.032,1.934
	c-0.316,0.062-0.569,0.199-0.764,0.392c-0.016,0.017-0.033,0.028-0.047,0.045c-0.112,0.121-0.195,0.265-0.253,0.427
	c-0.009,0.026-0.017,0.053-0.027,0.08c-0.049,0.167-0.076,0.352-0.069,0.554c0.002,0.028,0.007,0.059,0.009,0.087
	c0.015,0.217,0.056,0.445,0.141,0.694c0.286,0.825,0.802,1.597,1.412,2.177c-0.154,0.293-0.243,0.606-0.259,0.962
	c-0.372-0.115-0.73-0.3-1.025,0.243c-0.262,0.486-0.227,1.077-0.473,1.568c-0.353,0.711-0.215,1.509,0.132,2.186
	c-0.338,0.043-0.633,0.243-0.826,0.801c-0.105,0.296-0.141,0.657-0.134,1.034c-0.065,0.069-0.121,0.149-0.157,0.243
	c-0.036,0.104-0.053,0.205-0.056,0.3c-0.083,0.012-0.165,0.026-0.253,0.056c-0.275,0.096-0.432,0.259-0.618,0.507
	c-0.016,0.025-0.031,0.052-0.044,0.078c-0.26-0.18-0.558-0.234-0.873-0.071c-0.462-0.345-1.026-0.414-1.541-0.112
	c-0.573,0.336-0.656,0.969-0.624,1.619c-0.518,0.077-0.979,0.313-1.122,0.858c-0.114,0.007-0.226,0.014-0.336,0.021
	c-0.013,0.003-0.029,0.004-0.045,0.005c-0.224,0.021-0.436,0.063-0.629,0.162c-0.015,0.01-0.034,0.018-0.049,0.026
	c-0.099,0.058-0.193,0.127-0.278,0.225c-0.02,0.027-0.036,0.046-0.036,0.046l0.003-0.001c-0.101,0.123-0.195,0.275-0.276,0.477
	c-0.257,0.658,0.05,1.294,0.459,1.821c-0.342,0.2-0.593,0.54-0.645,1.136c-0.08,0.869,0.815,1.372,1.467,1.589
	c0.145,0.318,0.381,0.532,0.683,0.605c-0.007,0.01-0.014,0.019-0.02,0.028c-0.03,0.02-0.056,0.045-0.086,0.068
	c-0.028,0.008-0.06,0.025-0.08,0c-0.065,0.069-0.108,0.157-0.152,0.243c-0.045,0.062-0.081,0.128-0.112,0.199
	c-0.012,0.028-0.023,0.057-0.032,0.086c-0.035,0.105-0.056,0.222-0.058,0.348c-0.233,0.184-0.156,0.193-0.463,0.076
	c-0.423-0.163-1.059,0.138-1.335,0.531c-0.073,0.106-0.129,0.216-0.176,0.326c-0.376,0.73-0.144,1.539,0.436,1.968
	c-0.02,0.123-0.031,0.243-0.038,0.359c0.003,0,0.004,0.001,0.007,0.001c-0.038,1.01,0.528,1.678,1.377,1.619
	c-0.092,0.06-0.184,0.124-0.256,0.212c-0.176,0.221-0.391,0.234-0.645,0.313c-0.105,0.029-0.219,0.065-0.331,0.103
	c0.003,0,0.003,0.001,0.003,0.001c-0.108,0.038-0.213,0.085-0.32,0.134c0,0-0.003-0.004-0.003-0.005
	c-0.013,0.007-0.024,0.016-0.038,0.022c-0.107,0.054-0.208,0.12-0.304,0.194c-0.036,0.026-0.074,0.048-0.108,0.077
	c-0.123,0.11-0.233,0.241-0.316,0.405c-0.127,0.259-0.147,0.491-0.1,0.698c-0.237,0.089-0.462,0.218-0.634,0.548
	c-0.141,0.265-0.255,0.587-0.222,0.91c0.018,0.17,0.052,0.305,0.099,0.455c-0.477,0.132-0.96,0.369-1.144,0.967
	c-0.19,0.616-0.009,1.009,0.253,1.411c-0.34,0.177-0.663,0.372-0.887,0.814c-0.414,0.829,0.199,1.726,0.793,2.092
	c0.707,0.438,1.603,0.039,2.23-0.391c0.361-0.248,0.624-0.634,0.954-0.931c0.15-0.131,0.503,0.16,0.615,0.249
	c0.168,0.136,0.128,0.51,0.139,0.718c0.016,0.293,0.314,0.485,0.535,0.414c0.714-0.234,1.39-0.465,1.802-1.243
	c0.025-0.036,0.045-0.083,0.065-0.123c0.249,0.324-0.324,0.806-0.488,1.106c-0.165,0.305-0.123,0.688,0.143,0.868
	c0.211,0.142,0.394,0.179,0.634,0.179c0.425-0.001,0.338,0.055,0.206,0.487c-0.186,0.609-0.052,1.195,0.356,1.614
	c0.609,0.627,1.556,0.264,2.163-0.317c0.651,0.271,1.231-0.404,1.63-1.113c0.1-0.18,0.196-0.361,0.299-0.538
	c0.007-0.013,0.012-0.019,0.018-0.028c0.231,0.221-0.089,0.648-0.015,0.955c0.002,0.007,0.004,0.012,0.007,0.018
	c-0.003,0-0.003,0.001-0.003,0.001c0.016,0.064,0.036,0.119,0.056,0.176c0.007,0.022,0.014,0.049,0.022,0.07
	c0.012,0.031,0.03,0.055,0.043,0.084c0.022,0.043,0.04,0.09,0.067,0.129c0.005,0.007,0.011,0.01,0.018,0.018
	c0.038,0.055,0.081,0.104,0.132,0.148c0.058,0.048,0.126,0.089,0.204,0.125c0.228,0.106,0.486-0.004,0.694-0.105
	c0.043-0.02,0.081-0.054,0.121-0.083c0.065,1.021,0.64,2.068,1.46,2.313c0.98,0.296,2.283-0.252,2.905-1.261
	c0.157,0.076,0.316,0.137,0.473,0.177c0.007,0.001,0.013,0.007,0.02,0.008c0,0-0.002-0.004-0.002-0.007
	c0.447,0.111,0.859,0.041,1.023-0.409c0.468,0.043,0.956,0.098,1.325-0.282c0.575-0.583,0.278-1.455-0.12-2.036
	c0.105,0.157,0.526-0.154,0.637-0.179c0.058-0.015,0.101-0.025,0.137-0.035c0.018,0.01,0.034,0.021,0.049,0.031
	c0.267,0.215,0.52,0.474,0.808,0.613c0.533,0.266,0.936,0.257,1.27-0.069c0.394,0.358,0.824,0.622,1.272,0.563
	c0.165,0.002,0.331,0.002,0.503,0.043c0.35,0.231,0.699,0.349,1.057,0.237c0.208,0.302,0.465,0.505,0.754,0.615
	c0.11,0.07,0.229,0.126,0.352,0.164c0.081,0.023,0.166,0.034,0.249,0.048c0.109,0.347,0.23,0.684,0.476,0.934
	c0.312,0.312,0.609,0.374,0.862,0.254c0.526,0.604,1.265,0.971,1.74,0.381c0.53,0.256,1.09,0.422,1.587-0.009
	c0.363-0.313,0.327-0.789,0.202-1.253c0.17,0.01,0.342,0.009,0.519-0.027c0.56,0.35,1.397,0.701,1.939,0.575
	c0.371,1.839,0.569,3.727,0.678,5.62c0.206,3.564-0.463,6.987-0.716,10.521c-0.224,3.138,0.233,6.117,0.546,9.217
	c0.322,3.145,0.687,6.461-0.461,9.455c-0.932,2.429-2.577,4.539-4.399,6.184c-0.11-0.314-0.291-0.599-0.603-0.824
	c-0.134-0.1-0.262-0.021-0.333,0.11c-0.186-0.15-0.466-0.093-0.513,0.216c-0.02,0.139-0.027,0.279-0.043,0.42
	c-0.08-0.351-0.212-0.688-0.456-0.912c-0.269-0.253-0.764-0.312-0.916,0.133c-0.029,0.085-0.022,0.182,0.007,0.268
	c-0.061,0.084-0.101,0.192-0.103,0.33c-0.002,0.054-0.002,0.105-0.005,0.156c-0.154-0.181-0.331-0.33-0.564-0.391
	c-0.029-0.04-0.071-0.062-0.103-0.099c-0.047-0.094-0.114-0.157-0.193-0.185c-0.073-0.068-0.131-0.156-0.219-0.21
	c-0.255-0.159-0.468,0.215-0.311,0.461c-0.015,0.035-0.031,0.071-0.04,0.112c-0.246-0.375-0.537-0.865-0.958-0.855
	c-0.2,0.009-0.403,0.246-0.37,0.492c0.029,0.219,0.11,0.37,0.22,0.506C25.212,405,25.21,405,25.206,405.001
	c-0.27-0.372-0.576-0.681-0.954-0.873c-0.255-0.128-0.441,0.22-0.269,0.462c0.546,0.746,1.077,1.348,1.437,2.22
	c-0.114,0.007-0.208,0.076-0.271,0.187c-0.286-0.995-0.73-1.833-1.533-1.844c-0.253-0.004-0.403,0.443-0.19,0.632
	c0.302,0.268,0.637,0.382,0.868,0.778c0.211,0.354,0.379,0.737,0.508,1.143c0.041,0.123,0.079,0.248,0.117,0.374
	c-0.058-0.022-0.126-0.021-0.186-0.039c-0.121-0.216-0.246-0.431-0.376-0.637c-0.372-0.595-0.837-1.503-1.482-1.64
	c-0.141-0.029-0.249,0.079-0.271,0.227c-0.126,0.002-0.217,0.108-0.253,0.232c-0.119-0.04-0.247-0.059-0.378-0.028
	c-0.132,0.028-0.15,0.252-0.065,0.346c0.23,0.257,0.542,0.352,0.757,0.635c0.129,0.169,0.241,0.356,0.342,0.552
	c0.004,0.171,0.007,0.342,0.025,0.519c-0.253-0.519-0.592-0.943-1.039-1.17c-0.372-0.463-0.807-0.955-1.279-1.062
	c-0.17-0.038-0.313,0.05-0.391,0.193c-0.034,0.009-0.065,0.005-0.101,0.013c-0.121,0.038-0.135,0.264-0.022,0.324
	c0.024,0.015,0.047,0.024,0.071,0.032c0.011,0.052,0.009,0.104,0.034,0.152c0.06,0.137,0.15,0.249,0.244,0.361
	c-0.188-0.143-0.404-0.185-0.636,0.005c-0.143,0.112-0.137,0.38-0.02,0.499c-0.119-0.073-0.242-0.127-0.37-0.144
	c-0.226-0.034-0.463,0.258-0.299,0.518c0.002,0.009,0.008,0.014,0.01,0.023c-0.08-0.006-0.163,0.007-0.255,0.05
	c-0.132,0.063-0.149,0.267-0.026,0.35c0.261,0.173,0.442,0.332,0.602,0.556c-0.038,0.047-0.054,0.13-0.009,0.186
	c0.109,0.137,0.219,0.279,0.327,0.423c0.006,0.02,0.015,0.041,0.024,0.063c-0.237-0.179-0.434-0.326-0.533-0.409
	c-0.004-0.004-0.011-0.003-0.015-0.004c-0.061-0.138-0.137-0.269-0.24-0.381c-0.324-0.356-0.898-0.771-1.325-0.437
	c-0.152,0.122-0.15,0.352-0.036,0.507c0.007,0.01,0.018,0.014,0.024,0.022c-0.006,0-0.015-0.002-0.024-0.002
	c-0.081,0.005-0.103,0.105-0.069,0.179c-0.012,0.006-0.027,0-0.038,0.006c-0.02-0.013-0.038-0.027-0.057-0.038
	c-0.109-0.074-0.206,0.106-0.12,0.204c0.015,0.019,0.029,0.037,0.044,0.056c-0.004,0.051-0.013,0.104,0.01,0.155
	c-0.061,0.082-0.081,0.21-0.003,0.299c0.15,0.164,0.3,0.214,0.473,0.2c0.033,0.055,0.073,0.103,0.103,0.162
	c0.078,0.154,0.123,0.313,0.167,0.478c-0.261-0.401-0.654-0.691-0.971-1.022c-0.119-0.116-0.26,0.078-0.159,0.206
	c0.092,0.118,0.181,0.242,0.268,0.362c-0.06-0.023-0.118-0.049-0.168-0.066c-0.118-0.05-0.188,0.186-0.073,0.242
	c0.241,0.119,0.369,0.312,0.429,0.604c0.032,0.151,0.22,0.198,0.298,0.079c0.034-0.046,0.05-0.087,0.068-0.132
	c0.038,0.053,0.075,0.103,0.113,0.153c0.113,0.133,0.265,0.034,0.303-0.108c0.013,0.037,0.02,0.08,0.04,0.113
	c0.094,0.195,0.387,0.2,0.464-0.026c0.049-0.147,0.045-0.291,0.026-0.431c0.068,0.21,0.07,0.41-0.04,0.577
	c-0.139,0.217-0.045,0.619,0.226,0.578c0.336-0.055,0.509-0.258,0.569-0.514c0.04,0.048,0.067,0.108,0.107,0.152
	c0.083,0.088,0.191,0.084,0.287,0.042c0.047,0.083,0.058,0.109,0.049,0.085c0.047,0.151,0.177,0.278,0.307,0.252
	c0.394-0.072,0.403-0.393,0.289-0.721c0.031,0.042,0.069,0.084,0.098,0.128c0.056,0.127,0.124,0.242,0.197,0.349
	c0.076,0.168,0.135,0.343,0.161,0.553c0.02,0.178,0.202,0.35,0.348,0.214c0.165-0.156,0.226-0.331,0.223-0.518
	c0.15,0.058,0.307,0.089,0.462,0.119c0.087,0.091,0.196,0.131,0.306,0.059c0.056,0.007,0.115-0.001,0.17,0.003
	c0.184,0.011,0.365,0.017,0.549,0.006c0.022-0.003,0.047,0.001,0.069,0c0.045-0.003,0.085-0.015,0.13-0.02
	c0.201-0.019,0.403-0.042,0.602-0.076c0.229,0.281,0.625,0.197,0.742-0.113c0.123-0.021,0.244-0.031,0.367-0.05
	c0.004,0.004,0.009,0.011,0.013,0.014c0.145,0.152,0.374,0.116,0.477-0.079c0.154-0.019,0.311-0.048,0.466-0.063
	c0.004,0.007,0.009,0.012,0.013,0.017c-0.024,0.046-0.036,0.092-0.067,0.135c-0.083,0.109,0.056,0.265,0.141,0.156
	c0.029-0.038,0.047-0.076,0.071-0.112c0.023,0.023,0.041,0.055,0.063,0.076c0.24,0.266,0.569,0.019,0.578-0.328v-0.004
	c0.096-0.006,0.192-0.013,0.291-0.016c0.128,0.149,0.324,0.228,0.407,0.083c0.003,0.004,0.005,0.008,0.005,0.01
	c0.02-0.033,0.009-0.078,0.02-0.116c0.19-0.001,0.378-0.017,0.569-0.02c0.026,0.016,0.046,0.044,0.073,0.058
	c0.059,0.029,0.106-0.004,0.13-0.065c0.199-0.004,0.397-0.015,0.593-0.022c0.003,0.002,0.003,0.003,0.003,0.005
	c0.094,0.178,0.28,0.146,0.367,0.008c0.369,0.33,0.987,0.411,1.377,0.397c0.083-0.004,0.139-0.063,0.177-0.131
	c0.058,0.009,0.11,0.025,0.157,0.052c0.168,0.097,0.293-0.073,0.273-0.255c0.02-0.003,0.038-0.013,0.058-0.017
	c0.253,0.195,0.591,0.249,0.884,0.152c0.092,0.018,0.186,0.036,0.28,0.046c0.132,0.015,0.197-0.178,0.078-0.271
	c-0.042-0.03-0.091-0.059-0.138-0.091c-0.016-0.043-0.048-0.075-0.088-0.091c0.068-0.006,0.135-0.015,0.202-0.021
	c0.06,0.083,0.132,0.147,0.224,0.167c0.094,0.195,0.196,0.392,0.32,0.576c0.179,0.278,0.524,0.021,0.385-0.295
	c-0.074-0.169-0.15-0.329-0.224-0.491h0.007c0.19,0.234,0.389,0.438,0.631,0.622c0.103,0.073,0.217-0.119,0.123-0.207
	c-0.087-0.08-0.168-0.169-0.251-0.253c0.076,0.034,0.153,0.068,0.226,0.104c0.034,0.015,0.065,0.015,0.099,0.009
	c0.06,0.185,0.206,0.322,0.398,0.233c0.048-0.021,0.083-0.063,0.128-0.094c0.114,0.135,0.226,0.273,0.325,0.428
	c0.091,0.145,0.284,0,0.197-0.148c-0.092-0.156-0.202-0.299-0.309-0.434c0.134-0.132,0.262-0.274,0.381-0.427
	c0,0.014-0.007,0.027-0.007,0.038c0.004,0.19,0.158,0.318,0.309,0.299c0.246,0.26,0.514,0.487,0.805,0.688
	c0.083,0.058,0.157-0.081,0.097-0.16c-0.029-0.029-0.052-0.066-0.077-0.097c0.017,0.009,0.025,0.025,0.039,0.034
	c0.018,0.025,0.04,0.047,0.063,0.059v0.001c0.147,0.093,0.319-0.001,0.391-0.172c0.088-0.119,0.11-0.307,0-0.427
	c-0.058-0.064-0.118-0.121-0.179-0.18c0.061,0,0.121,0.006,0.184-0.005c0.018,0.18,0.121,0.33,0.291,0.4
	c0.204,0.083,0.488,0.103,0.801,0.066c0.03,0.124,0.097,0.229,0.226,0.244c0.482,0.063,0.918-0.109,1.368-0.301
	c0.148-0.065,0.3-0.139,0.453-0.204c-0.007,0.023-0.023,0.041-0.025,0.069c-0.02,0.125,0.031,0.251,0.121,0.316
	c-0.018,0.023-0.041,0.041-0.061,0.063c-0.123,0.179-0.06,0.445,0.132,0.497c0.379,0.107,0.746-0.106,1.091-0.291
	c0.324-0.172,0.647-0.335,0.958-0.535c0.089-0.057,0.112-0.167,0.103-0.274c0.069-0.043,0.114-0.111,0.119-0.206
	c0.329,0.133,0.667,0.158,0.926-0.136c0.002,0,0.002-0.003,0.005-0.005c0.076,0.089,0.175,0.153,0.298,0.11
	c0.235-0.078,0.344-0.063,0.524-0.3c0.044-0.058,0.076-0.14,0.093-0.228c0.007,0.017,0.012,0.035,0.021,0.051
	c0.168,0.336,0.528,0.263,0.698,0.018c0.029,0.302,0.294,0.594,0.56,0.457c0.056-0.028,0.108-0.07,0.163-0.104
	c0.101,0.019,0.204-0.01,0.28-0.117c0-0.004,0.005-0.005,0.005-0.007c0.049-0.005,0.098-0.022,0.141-0.072
	c0.053-0.063,0.107-0.134,0.156-0.214c0.036-0.029,0.068-0.065,0.101-0.095c0.045-0.018,0.087-0.033,0.13-0.056
	c0,0.022,0,0.045,0.005,0.065c0.028,0.414,0.51,0.465,0.61,0.08l0.021-0.007c0.044,0.068,0.127,0.104,0.204,0.058
	c0.053-0.035,0.111-0.071,0.165-0.104c-0.08,0.173-0.034,0.397,0.096,0.528c-0.277,0.044-0.552,0.102-0.819,0.196
	c-0.143,0.05-0.103,0.316,0.042,0.297c1.382-0.188,2.794-0.149,4.165-0.426c0.118-0.025,0.114-0.248-0.009-0.23
	c-0.258,0.032-0.517,0.05-0.775,0.059c0.318-0.049,0.636-0.092,0.95-0.166c-0.016,0.082-0.014,0.161,0.008,0.241
	c-0.116,0.084-0.235,0.17-0.344,0.271c-0.105,0.093-0.007,0.282,0.109,0.206c0.128-0.083,0.258-0.153,0.39-0.226
	c0.063,0.05,0.136,0.086,0.237,0.086c0.652-0.009,1.346-0.044,1.988-0.224c0.414-0.068,0.829-0.15,1.24-0.227
	c1.019,0.139,2.02,0.239,3.03-0.035c0.414-0.112,0.389-0.842,0.031-1.01c0.042-0.141-0.016-0.329-0.155-0.369
	c-0.465-0.134-1.032,0.011-1.533,0.092c0.007-0.004,0.011-0.004,0.016-0.012c0.194-0.184,0.123-0.565-0.15-0.558
	c-0.188,0.004-0.392,0.054-0.596,0.126c-0.004-0.013-0.004-0.027-0.011-0.038c0.058-0.135,0.069-0.295-0.049-0.401
	c-0.032-0.033-0.067-0.047-0.099-0.068c-0.033-0.116-0.128-0.215-0.246-0.159c-0.025,0.017-0.047,0.037-0.072,0.053
	c-0.105-0.007-0.212,0.004-0.318,0.035c0.054-0.147-0.006-0.342-0.159-0.39c-0.024-0.008-0.051-0.007-0.076-0.011
	c-0.011-0.012-0.022-0.022-0.031-0.036c-0.059-0.061-0.137-0.084-0.215-0.087c-0.112-0.152-0.286-0.224-0.468-0.137
	c0.083-0.157,0.027-0.393-0.152-0.445c-0.303-0.091-0.587-0.033-0.847,0.115c-0.026-0.004-0.048-0.022-0.078-0.021
	c-0.053,0.005-0.107,0.018-0.163,0.023c0.103-0.134,0.193-0.273,0.253-0.424c0.139-0.35-0.123-0.672-0.423-0.595
	c-0.168,0.046-0.325,0.173-0.477,0.324c-0.052-0.017-0.103-0.025-0.164,0c-0.004,0.004-0.004,0.004-0.009,0.01
	c-0.047-0.137-0.15-0.241-0.279-0.215c-0.33,0.071-0.596,0.318-0.822,0.613c-0.136,0.087-0.269,0.188-0.403,0.287
	c0.318-0.555,0.692-1.068,0.996-1.632c0.137-0.254-0.197-0.519-0.356-0.298c-0.246,0.334-0.465,0.703-0.663,1.089
	c0.009-0.089,0.009-0.176,0.007-0.261c0.159-0.369,0.338-0.766,0.305-1.109c-0.021-0.211-0.195-0.389-0.381-0.311
	c-0.161,0.07-0.273,0.225-0.367,0.403c-0.054-0.049-0.107-0.098-0.175-0.138c-0.011-0.006-0.02-0.007-0.029-0.013
	c-0.087-0.427-0.354-1.029-0.68-1.021c-0.099-0.224-0.233-0.402-0.426-0.474c-0.118-0.042-0.279,0.05-0.327,0.184
	c-0.183,0.513,0.126,1.291,0.249,1.9c-0.04,0.068-0.078,0.138-0.114,0.209c-0.012,0-0.016,0.004-0.022,0.01
	c0.028-0.591-0.099-1.16-0.484-1.641c-0.092-0.11-0.197-0.13-0.298-0.116c-0.007,0-0.016-0.003-0.022-0.003
	c-0.086-0.179-0.186-0.346-0.296-0.486c-0.096-0.115-0.282-0.166-0.407-0.107c-0.62,0.303,0.015,1.16,0.181,1.671
	c-0.025,0.112-0.051,0.221-0.074,0.336c-0.143-0.387-0.318-0.747-0.546-1.037c-0.101-0.138-0.24-0.087-0.329,0.02
	c-0.173-0.217-0.372-0.35-0.602-0.307c-0.021-0.029-0.036-0.069-0.061-0.095c-0.145-0.19-0.392,0.073-0.282,0.279
	c0.17,0.314,0.327,0.655,0.47,1.006c-0.19,0.115-0.327,0.325-0.418,0.605c-0.222-0.195-0.433-0.406-0.625-0.633
	c-0.04-0.06-0.079-0.128-0.128-0.181c-0.007-0.01-0.018-0.006-0.024-0.013c-0.636-0.802-1.111-1.755-1.48-2.804
	c-1.041-2.964-1.133-6.285-1.511-9.433c-0.855-7.213-0.659-14.318-0.085-21.541c0.172-2.18,0.418-4.984,1.593-6.82
	c0.054-0.013,0.092-0.062,0.097-0.149c0.302-0.435,0.683-0.781,1.108-1.072c0.313,0.053,0.624,0.017,0.915-0.233
	c0.115-0.099,0.18-0.218,0.225-0.344c0.018-0.005,0.033-0.015,0.051-0.02c0.074-0.025,0.15-0.043,0.226-0.064
	c0.175-0.051,0.351-0.099,0.531-0.134c0.083-0.018,0.168-0.032,0.251-0.047c0.178-0.03,0.358-0.058,0.539-0.077
	c0.072-0.009,0.143-0.017,0.217-0.023c0.022-0.001,0.045-0.002,0.067-0.004c0.24,0.043,0.459,0.038,0.64-0.028
	c0.448-0.017,0.898-0.03,1.349-0.027c0.277,0.003,0.552,0.003,0.828,0.001c0.163,0.083,0.322,0.147,0.463,0.18
	c0.291,0.061,0.645,0.015,0.855-0.225c0.016-0.002,0.029-0.007,0.047-0.007c0.054,0.083,0.092,0.179,0.164,0.25
	c0.309,0.315,0.609,0.378,0.862,0.257c0.524,0.603,1.265,0.966,1.739,0.381c0.528,0.253,1.086,0.423,1.588-0.008
	c0.362-0.312,0.327-0.792,0.201-1.256c0.168,0.011,0.341,0.008,0.519-0.024c0.864,0.539,2.405,1.1,2.468-0.142
	c0.022-0.445-0.195-0.453,0.013-0.879c0.074-0.149,0.242-0.163,0.423-0.138c0.021,0.054,0.038,0.108,0.067,0.16
	c0.162,0.295,0.374,0.499,0.629,0.672c0.209,0.142,0.493,0.151,0.71,0.035c0.32-0.173,0.287,0.149,0.441,0.501
	c0.264,0.597,0.786,0.958,1.346,0.958c0.604-0.001,1.218-0.059,1.484-0.803c0.096-0.272-0.005-0.608-0.078-0.866
	c-0.058-0.212-0.112-0.467-0.077-0.688c0.019-0.132,0.144-0.588,0.211-0.223c0.123,0.681,0.822,1.296,1.413,1.097
	c0.215-0.073,0.508-0.259,0.734-0.225c0.161,0.022,0.307,0.17,0.466,0.22c0.219,0.073,0.486,0.145,0.698,0.008
	c0.076-0.047,0.139-0.099,0.193-0.156c0.031-0.033,0.051-0.072,0.078-0.108c0.016-0.026,0.038-0.05,0.054-0.078
	c0.031-0.06,0.056-0.127,0.076-0.197c0.004-0.008,0.007-0.015,0.009-0.023c0.025-0.087,0.045-0.179,0.058-0.28
	c0.04-0.314-0.318-0.695-0.11-0.946c0.007,0.01,0.009,0.017,0.02,0.027c0.119,0.16,0.233,0.327,0.35,0.49
	c0.468,0.649,1.112,1.235,1.73,0.871c0.661,0.488,1.639,0.716,2.179,0.007c0.362-0.476,0.439-1.075,0.192-1.656
	c-0.172-0.409-0.266-0.453,0.152-0.512c0.242-0.032,0.421-0.097,0.616-0.269c0.244-0.215,0.246-0.604,0.054-0.879
	c-0.193-0.274-0.811-0.673-0.596-1.031c0.025,0.037,0.052,0.079,0.074,0.114c0.491,0.712,1.184,0.845,1.919,0.975
	c0.226,0.04,0.504-0.197,0.488-0.487c-0.011-0.207-0.087-0.572,0.067-0.732c0.101-0.104,0.423-0.446,0.582-0.334
	c0.358,0.244,0.663,0.592,1.044,0.785c0.665,0.338,1.596,0.603,2.251,0.068c0.554-0.45,1.073-1.427,0.576-2.188
	C78.977,354.671,78.641,354.524,78.28,354.396 M6.561,351.622c-0.034,0.056-0.065,0.116-0.094,0.176
	c-0.014,0.025-0.03,0.051-0.043,0.076c-0.045,0.002-0.087,0.001-0.134,0.014c-0.027-0.184-0.083-0.354-0.157-0.507
	c0.155-0.032,0.309-0.141,0.444-0.238c0.008,0.039,0.026,0.107,0.038,0.23C6.628,351.463,6.599,351.542,6.561,351.622
	 M20.182,409.332c-0.057-0.184-0.119-0.367-0.191-0.538c0.036,0.034,0.068,0.073,0.103,0.108c0.117,0.143,0.222,0.303,0.316,0.473
	C20.334,409.355,20.258,409.345,20.182,409.332 M21.231,407.734c-0.06,0.007-0.12,0.033-0.17,0.074
	c-0.083-0.169-0.176-0.341-0.291-0.489c0.146,0.135,0.307,0.259,0.464,0.38C21.234,407.711,21.231,407.724,21.231,407.734
	 M22.83,409.28c-0.034-0.072-0.074-0.142-0.114-0.211c0.06,0.062,0.123,0.119,0.186,0.178
	C22.879,409.259,22.854,409.269,22.83,409.28 M25.447,408.331c-0.033-0.183-0.067-0.364-0.107-0.55
	c0.098,0.163,0.192,0.33,0.298,0.488C25.573,408.289,25.51,408.312,25.447,408.331 M27.74,406.078
	c-0.034-0.134-0.063-0.27-0.106-0.396c0.048,0.067,0.068,0.163,0.108,0.239C27.742,405.974,27.74,406.026,27.74,406.078
	 M38.473,330.133c-0.03,0.028-0.068,0.05-0.101,0.073c-0.007-0.009-0.009-0.021-0.014-0.03
	C38.396,330.161,38.435,330.146,38.473,330.133 M38.481,333.55c-0.049-0.049-0.085-0.109-0.138-0.15
	c0.011-0.031,0.009-0.061,0.017-0.091c0.059,0.057,0.117,0.114,0.18,0.168C38.522,333.501,38.499,333.524,38.481,333.55
	 M54.027,408.716c0.007-0.004,0.012-0.008,0.018-0.011c-0.013,0.011-0.026,0.022-0.042,0.035
	C54.012,408.731,54.019,408.724,54.027,408.716 M53.862,408.887c-0.038,0.054-0.072,0.11-0.076,0.179
	c-0.047,0.018-0.097,0.033-0.143,0.052C53.726,409.051,53.788,408.961,53.862,408.887 M54.832,335.973
	c-0.005-0.018-0.01-0.033-0.012-0.051c0.009,0,0.02,0.005,0.029,0.005C54.843,335.941,54.838,335.958,54.832,335.973
	 M60.285,329.373c0.101-0.015,0.197-0.019,0.26-0.007c-0.021-0.116-0.005-0.087,0.04,0.092c0.002,0.013,0.004,0.024,0.007,0.037
	C60.493,329.442,60.39,329.402,60.285,329.373 M62.228,334.563c0,0.055,0.011,0.104,0.018,0.157
	C62.181,334.646,62.181,334.598,62.228,334.563"/>
<path fill="#CC1F3A" d="M544.364,316.988c0.241-0.48,0.399-0.936,0.12-1.585c-0.267-0.623-0.817-0.809-1.355-0.879
	c0.032-0.17,0.054-0.322,0.057-0.511c0.002-0.36-0.161-0.697-0.344-0.964c-0.227-0.334-0.484-0.441-0.755-0.496
	c0.029-0.234-0.021-0.488-0.188-0.752c-0.108-0.169-0.242-0.293-0.388-0.395c-0.042-0.028-0.089-0.047-0.133-0.071
	c-0.112-0.063-0.226-0.12-0.347-0.16c-0.018-0.005-0.029-0.017-0.047-0.021c0,0-0.003,0.004-0.003,0.007
	c-0.123-0.038-0.245-0.073-0.367-0.098v-0.001c-0.126-0.025-0.25-0.041-0.368-0.062c-0.289-0.04-0.526-0.025-0.743-0.238
	c-0.226-0.219-0.532-0.345-0.818-0.269c-0.499,0.129-0.684,0.651-0.709,1.188c-0.176-0.024-0.331,0.021-0.472,0.103
	c-0.064-0.179-0.173-0.364-0.313-0.559c-0.027-0.034-0.05-0.066-0.08-0.102c0.035,0.043,0.061,0.063,0.08,0.074
	c0.01-0.178,0.029-0.31,0.084-0.503c0.128-0.46,0.069-0.819-0.144-1.235c-0.083-0.165-0.212-0.313-0.36-0.448
	c0.925,0.022,1.507-0.732,1.407-1.813c0.003-0.002,0.005-0.002,0.005-0.002c-0.007-0.122-0.026-0.251-0.056-0.378
	c0.592-0.498,0.797-1.366,0.363-2.108c-0.056-0.113-0.121-0.228-0.205-0.334c-0.314-0.404-1.001-0.67-1.44-0.469
	c-0.319,0.147-0.237,0.13-0.494-0.045c-0.01-0.134-0.037-0.256-0.079-0.365c-0.013-0.031-0.024-0.058-0.04-0.086
	c-0.034-0.072-0.077-0.139-0.123-0.199c-0.055-0.088-0.104-0.18-0.178-0.251c-0.012,0.018-0.032,0.026-0.054,0.031
	c-0.04-0.029-0.079-0.061-0.124-0.086c-0.007-0.01-0.013-0.019-0.021-0.028c0.313-0.105,0.549-0.353,0.685-0.693
	c0.68-0.281,1.599-0.881,1.475-1.796c-0.089-0.623-0.373-0.965-0.743-1.149c0.405-0.592,0.699-1.285,0.391-1.963
	c-0.097-0.21-0.203-0.363-0.319-0.486c0.003,0.002,0.005,0.002,0.005,0.002s-0.015-0.016-0.021-0.026
	c-0.102-0.104-0.21-0.179-0.321-0.234c-0.021-0.011-0.04-0.02-0.06-0.028c-0.207-0.088-0.433-0.118-0.668-0.124
	c-0.019,0-0.038-0.001-0.061-0.001c-0.114-0.002-0.228-0.002-0.346,0c-0.178-0.565-0.683-0.781-1.233-0.823
	c0-0.688-0.118-1.354-0.746-1.665c-0.56-0.279-1.15-0.168-1.62,0.231c-0.108-0.047-0.205-0.035-0.307-0.041
	c0.534-0.846-0.367-2.081-0.891-3.008c0.271-0.01,0.528-0.037,0.822-0.196c0.262-0.139,0.158-0.626,0.047-0.834
	c-0.027-0.058-0.057-0.107-0.087-0.162c0.771-0.379,0.652-1.517,0.008-2.252c0.029-0.161,0.024-0.313,0.008-0.459
	c-0.003-0.014,0.002-0.027,0-0.041c-0.003,0.002-0.005,0.002-0.005,0.004c-0.005-0.021-0.005-0.039-0.011-0.059
	c-0.002-0.012,0-0.023-0.002-0.033c-0.04-0.168-0.111-0.321-0.202-0.459c-0.008-0.013-0.016-0.025-0.022-0.039
	c-0.097-0.135-0.215-0.25-0.349-0.348c-0.01-0.008-0.02-0.016-0.032-0.025c-0.138-0.094-0.288-0.164-0.452-0.211
	c-0.004-0.002-0.01-0.006-0.017-0.008v0.004c-0.04-0.012-0.079-0.027-0.119-0.035c-0.057-0.41-0.215-0.787-0.552-1.037
	c-0.224-0.168-0.459-0.245-0.7-0.288c0.005-0.001,0.013,0,0.02-0.003c-0.017-0.004-0.037-0.004-0.054-0.004
	c-0.104-0.017-0.21-0.025-0.317-0.029c-0.039-0.003-0.079-0.008-0.118-0.01c-0.146-0.004-0.291-0.002-0.437-0.002h-0.232
	c0.176-0.115,0.338-0.235,0.428-0.412c0.185-0.354,0.308-0.678,0.178-1.1c-0.019-0.052-0.03-0.098-0.04-0.138
	c0.035-0.05,0.063-0.103,0.082-0.168c0.259-1.101-0.378-1.827-0.744-2.733c-0.247-0.617-0.264-1.386-0.919-1.632
	c-0.637-0.241-1.271-0.173-1.865,0.082c-0.217-0.327-0.499-0.59-0.81-0.788c0.262-0.459,0.483-0.914,0.407-1.576
	c-0.099-0.815-0.475-1.523-1.027-2.014c-0.536-0.465-1.272-0.898-1.956-0.777c-0.472,0.086-0.754,0.515-1.238,0.582
	c-0.056,0.006-0.105,0.035-0.16,0.049c0.002-0.006,0-0.012,0.002-0.017c-0.076,0.021-0.147,0.056-0.222,0.084
	c-0.186,0.074-0.368,0.16-0.556,0.237c-0.326,0.129-0.26,0.424-0.551,0.277c-0.176-0.088-0.347-0.137-0.52-0.172
	c-0.014-0.002-0.029-0.012-0.047-0.015c0,0.003,0.003,0.005,0.003,0.009c-0.069-0.015-0.133-0.031-0.205-0.039
	c0.044-0.102,0.089-0.199,0.123-0.3c0.317-1.165-0.326-2.235-1.195-2.683c-0.12-0.967-0.465-1.898-1.418-2.038
	c-0.827-0.12-1.442,0.397-1.612,1.213c-0.305-0.058-0.546-0.015-0.783,0.188c0.003-0.008,0.01-0.017,0.012-0.024
	c-0.017,0.017-0.039,0.032-0.059,0.051c-0.055-0.218-0.163-0.426-0.277-0.577c-0.042-0.059-0.091-0.109-0.138-0.162
	c-0.002,0-0.005-0.004-0.007-0.008c0.01-0.006,0.021-0.016,0.033-0.027c0.009-0.006,0.011-0.015,0.019-0.021
	c0.009-0.012,0.019-0.015,0.029-0.03c0.105-0.088,0.234-0.205,0.341-0.338c0.017-0.019,0.026-0.039,0.042-0.06
	c0.073-0.103,0.136-0.214,0.157-0.334c0.14-0.748-0.039-1.431-0.474-2.005c-0.494-0.654-1.313-1.168-2.095-1.2
	c-0.094-0.259-0.222-0.489-0.412-0.673c-0.27-0.254-0.556-0.334-0.892-0.236c-0.163,0.047-0.284,0.239-0.413,0.32
	c-0.276-0.26-0.514-0.426-0.967-0.436c-0.457-0.005-0.897,0.316-1.091,0.814c-0.231,0.592-0.231,1.308-0.037,1.91
	c0.092,0.287,0.274,0.514,0.428,0.748c0.089,0.076,0.113,0.135,0.094,0.177c-0.054-0.009-0.106-0.006-0.161-0.031
	c-0.051-0.022-0.103-0.04-0.158-0.079c-0.096-0.07-0.202-0.123-0.306-0.182c0.003-0.008,0-0.014,0-0.02
	c-0.049-0.031-0.101-0.056-0.156-0.074c-0.11-0.041-0.215-0.077-0.315-0.092c0.005-0.029,0.003-0.063,0.008-0.092
	c0.002-0.005,0.007-0.009,0.009-0.013c0.02-0.116,0.028-0.226,0.025-0.371c-0.018-0.589-0.524-1.063-1-0.826
	c-0.097,0.046-0.198,0.089-0.31,0.12c0.58-1.967,0.208-4.9-1.265-5.715c-0.316-0.173-0.619-0.205-0.888,0.091
	c-0.261,0.286-0.5,0.565-0.728,0.858c-0.405-0.568-1.114-0.696-1.727-0.465c-0.215-0.153-0.41-0.313-0.393-0.515
	c0.036-0.427,0.131-0.852,0.123-1.288c-0.007-0.395-0.289-0.769-0.627-0.781c-0.41-0.017-0.835,0.033-1.173,0.344
	c-0.314,0.283-0.801,1.08-1.243,0.691c-0.304-0.264-0.604-0.377-0.978-0.334c-0.045,0.004-0.09,0.043-0.137,0.096
	c-0.029,0.035-0.055,0.074-0.084,0.117c-0.094,0.146-0.178,0.305-0.215,0.282c-0.094-0.058-0.192-0.13-0.297-0.206
	c-0.462-0.346-0.995-0.809-1.519-0.863v-0.004c-0.002,0-0.008,0.002-0.013,0.002c-0.101-0.01-0.201-0.008-0.304,0.02
	c-0.783,0.202-0.842,1.313-0.622,2.032c0.136,0.438,0.059,0.595-0.208,0.618v-0.002c-0.091,0.009-0.2,0.002-0.331-0.017
	c-0.222-0.026-0.434-0.056-0.657-0.026c-0.467,0.054-0.782,0.274-1.073,0.715c-0.576,0.859-0.056,2.13,0.385,2.945
	c-0.094,0.092-0.178,0.209-0.245,0.359c-0.071,0.159-0.086,0.352-0.056,0.551c-0.188,0.264-0.347,0.543-0.44,0.877
	c-0.425,0.282-0.771,0.674-1.001,1.135c-0.148,0.051-0.303,0.146-0.459,0.297c-0.506,0.486-0.852,0.629-1.517,0.535
	c-0.232-0.031-0.593-0.694-0.927-0.83c-0.18-0.071-0.38-0.131-0.577-0.074c-0.118,0.023-0.232,0.064-0.347,0.119
	c-0.056,0.017-0.096,0.037-0.131,0.056c-0.21-0.235-0.491-0.351-0.805-0.332c-0.61,0.033-1.178,0.248-1.694,0.59v-0.003
	c-0.003,0.003-0.007,0.007-0.013,0.01c-0.183,0.123-0.36,0.26-0.531,0.416c-0.746,0.114-1.732,0.684-1.781,1.698
	c-0.014,0.31,0.019,0.572,0.098,0.869c0.005,0.028,0.007,0.054,0.012,0.078c-0.044,0.077-0.094,0.153-0.136,0.235
	c-0.193,0.356-0.279,0.676-0.281,1.047c-0.388,0.281-0.831,0.726-0.961,1.205c-0.079,0.287-0.018,0.519,0.113,0.703
	c-0.205,0.74-0.032,1.436,0.617,1.961c0.38,0.312,0.935,0.289,1.455,0.217c0.034,0.104,0.081,0.213,0.148,0.318
	c0.037,0.059,0.063,0.092,0.079,0.113c-0.094,0.057-0.193,0.098-0.291,0.134c-0.23,0.091-0.487,0.179-0.702,0.317
	c-0.438,0.279-0.526,0.718-0.4,1.101c-0.104,0.106-0.189,0.224-0.269,0.345c-0.537-0.36-1.201-0.565-1.812-0.477
	c-0.123-0.24-0.283-0.445-0.497-0.594c-0.293-0.204-0.592-0.227-0.908-0.07c-0.153,0.076-0.249,0.287-0.367,0.393
	c-0.307-0.207-0.562-0.326-1.008-0.252c-0.46,0.078-0.851,0.475-0.977,1.004c-0.15,0.627-0.062,1.332,0.21,1.895
	c0.126,0.264,0.336,0.452,0.517,0.658c0.183,0.111,0.171,0.203-0.037,0.261c-0.084,0.157-0.186,0.286-0.305,0.402
	c-0.131-0.249-0.346-0.499-0.545-0.653c-0.383-0.29-0.78-0.516-1.246-0.398c-0.787,0.192-1.057,1.235-1.138,2.134
	c-0.349,0.067-0.628,0.22-0.843,0.432c-0.017,0.019-0.037,0.031-0.051,0.05c-0.124,0.133-0.216,0.291-0.28,0.469
	c-0.009,0.031-0.02,0.061-0.029,0.09c-0.055,0.184-0.084,0.388-0.077,0.611c0.004,0.03,0.009,0.064,0.011,0.096
	c0.017,0.238,0.062,0.492,0.155,0.766c0.316,0.91,0.885,1.762,1.559,2.402c-0.17,0.323-0.27,0.669-0.286,1.062
	c-0.41-0.127-0.806-0.331-1.131,0.269c-0.289,0.538-0.25,1.188-0.522,1.729c-0.39,0.785-0.236,1.664,0.146,2.411
	c-0.373,0.047-0.699,0.269-0.911,0.884c-0.117,0.326-0.156,0.725-0.149,1.141c-0.07,0.077-0.133,0.165-0.173,0.269
	c-0.039,0.115-0.059,0.227-0.061,0.331c-0.092,0.013-0.184,0.029-0.28,0.062c-0.303,0.105-0.476,0.285-0.681,0.56
	c-0.019,0.028-0.035,0.056-0.05,0.086c-0.286-0.198-0.615-0.259-0.964-0.078c-0.509-0.381-1.131-0.458-1.699-0.124
	c-0.633,0.37-0.724,1.068-0.689,1.785c-0.57,0.086-1.079,0.346-1.237,0.947c-0.126,0.008-0.249,0.015-0.369,0.024
	c-0.017,0.003-0.033,0.004-0.051,0.006c-0.247,0.021-0.481,0.069-0.693,0.178c-0.018,0.011-0.037,0.02-0.055,0.03
	c-0.108,0.063-0.213,0.14-0.307,0.247c-0.022,0.03-0.039,0.052-0.039,0.052l0.002-0.002c-0.111,0.135-0.215,0.304-0.304,0.526
	c-0.284,0.726,0.055,1.427,0.507,2.009c-0.378,0.221-0.655,0.596-0.712,1.253c-0.089,0.959,0.899,1.514,1.618,1.753
	c0.161,0.352,0.42,0.587,0.754,0.669c-0.008,0.01-0.016,0.021-0.023,0.03c-0.032,0.022-0.061,0.051-0.094,0.075
	c-0.032,0.009-0.066,0.028-0.088,0c-0.072,0.077-0.119,0.175-0.168,0.27c-0.05,0.067-0.089,0.141-0.124,0.219
	c-0.012,0.031-0.024,0.063-0.035,0.095c-0.039,0.116-0.061,0.245-0.063,0.386c-0.257,0.2-0.173,0.212-0.512,0.082
	c-0.467-0.18-1.168,0.152-1.472,0.586c-0.081,0.118-0.144,0.239-0.195,0.36c-0.415,0.806-0.158,1.698,0.481,2.171
	c-0.022,0.136-0.034,0.269-0.042,0.396c0.003,0,0.005,0.002,0.008,0.002c-0.042,1.114,0.583,1.851,1.519,1.786
	c-0.101,0.065-0.203,0.137-0.281,0.234c-0.195,0.243-0.433,0.258-0.711,0.344c-0.116,0.032-0.242,0.072-0.366,0.113
	c0.003,0,0.003,0.001,0.003,0.001c-0.119,0.042-0.235,0.094-0.354,0.148c0,0-0.003-0.005-0.003-0.006
	c-0.014,0.007-0.026,0.018-0.042,0.024c-0.118,0.06-0.229,0.133-0.336,0.214c-0.039,0.03-0.081,0.054-0.118,0.086
	c-0.136,0.122-0.257,0.266-0.349,0.447c-0.141,0.285-0.163,0.541-0.111,0.771c-0.262,0.098-0.509,0.24-0.698,0.604
	c-0.155,0.291-0.281,0.646-0.244,1.004c0.019,0.188,0.056,0.336,0.107,0.502c-0.525,0.146-1.059,0.407-1.262,1.066
	c-0.21,0.681-0.01,1.113,0.279,1.558c-0.375,0.194-0.731,0.41-0.979,0.898c-0.457,0.915,0.221,1.903,0.874,2.308
	c0.781,0.482,1.77,0.043,2.461-0.431c0.397-0.274,0.689-0.699,1.053-1.027c0.164-0.145,0.556,0.178,0.679,0.274
	c0.186,0.151,0.141,0.563,0.153,0.793c0.018,0.323,0.346,0.535,0.591,0.456c0.788-0.258,1.532-0.512,1.987-1.371
	c0.027-0.04,0.05-0.092,0.072-0.136c0.274,0.358-0.357,0.889-0.539,1.221c-0.182,0.336-0.135,0.759,0.158,0.957
	c0.232,0.157,0.435,0.198,0.699,0.198c0.47-0.002,0.373,0.061,0.228,0.537c-0.205,0.673-0.057,1.319,0.393,1.781
	c0.672,0.692,1.717,0.291,2.387-0.35c0.718,0.3,1.358-0.445,1.798-1.228c0.111-0.2,0.217-0.4,0.331-0.595
	c0.007-0.014,0.012-0.021,0.019-0.031c0.256,0.243-0.098,0.717-0.017,1.054c0.003,0.007,0.005,0.013,0.008,0.019
	c-0.003,0-0.003,0.002-0.003,0.002c0.018,0.07,0.04,0.131,0.063,0.193c0.008,0.025,0.015,0.055,0.024,0.078
	c0.013,0.035,0.032,0.061,0.047,0.093c0.024,0.048,0.044,0.099,0.074,0.142c0.005,0.008,0.013,0.012,0.02,0.02
	c0.042,0.061,0.089,0.116,0.146,0.164c0.064,0.053,0.138,0.099,0.226,0.139c0.252,0.116,0.535-0.005,0.766-0.117
	c0.047-0.021,0.089-0.059,0.133-0.091c0.072,1.126,0.706,2.281,1.611,2.551c1.082,0.326,2.519-0.278,3.206-1.392
	c0.173,0.085,0.348,0.151,0.521,0.196c0.008,0,0.016,0.006,0.022,0.008c0,0-0.002-0.005-0.002-0.008
	c0.494,0.124,0.947,0.046,1.129-0.451c0.516,0.047,1.054,0.107,1.462-0.312c0.635-0.644,0.306-1.605-0.133-2.246
	c0.116,0.174,0.58-0.171,0.703-0.197c0.064-0.017,0.111-0.028,0.15-0.039c0.021,0.011,0.037,0.022,0.056,0.035
	c0.293,0.236,0.572,0.521,0.892,0.677c0.587,0.294,1.032,0.283,1.4-0.077c0.435,0.396,0.908,0.687,1.402,0.621
	c0.184,0.003,0.365,0.003,0.557,0.048c0.385,0.255,0.77,0.385,1.165,0.263c0.229,0.332,0.515,0.556,0.832,0.679
	c0.121,0.076,0.253,0.139,0.389,0.18c0.089,0.026,0.183,0.038,0.273,0.054c0.121,0.382,0.254,0.754,0.526,1.029
	c0.344,0.344,0.672,0.413,0.951,0.28c0.581,0.668,1.396,1.072,1.92,0.421c0.585,0.282,1.202,0.465,1.751-0.01
	c0.4-0.346,0.36-0.87,0.222-1.383c0.188,0.013,0.378,0.01,0.573-0.029c0.618,0.385,1.541,0.772,2.139,0.634
	c0.41,2.029,0.628,4.111,0.749,6.201c0.228,3.933-0.512,7.71-0.791,11.607c-0.246,3.462,0.257,6.75,0.604,10.169
	c0.355,3.471,0.758,7.129-0.509,10.432c-1.027,2.681-2.844,5.009-4.854,6.823c-0.121-0.348-0.321-0.659-0.664-0.908
	c-0.147-0.11-0.289-0.023-0.368,0.121c-0.205-0.167-0.514-0.104-0.565,0.237c-0.022,0.154-0.03,0.309-0.047,0.464
	c-0.089-0.387-0.235-0.759-0.504-1.007c-0.297-0.278-0.843-0.344-1.011,0.146c-0.031,0.095-0.024,0.2,0.007,0.295
	c-0.065,0.093-0.11,0.213-0.112,0.364c-0.003,0.06-0.003,0.117-0.005,0.175c-0.171-0.201-0.366-0.366-0.623-0.433
	c-0.031-0.044-0.079-0.067-0.113-0.109c-0.052-0.102-0.126-0.173-0.212-0.203c-0.082-0.076-0.146-0.173-0.243-0.232
	c-0.281-0.176-0.516,0.238-0.343,0.51c-0.018,0.038-0.035,0.078-0.044,0.124c-0.272-0.415-0.595-0.955-1.059-0.943
	c-0.22,0.009-0.443,0.271-0.406,0.542c0.031,0.241,0.12,0.408,0.241,0.558c-0.005,0.003-0.008,0.003-0.013,0.004
	c-0.296-0.411-0.634-0.751-1.052-0.963c-0.282-0.141-0.486,0.241-0.296,0.509c0.603,0.823,1.188,1.487,1.586,2.449
	c-0.126,0.008-0.23,0.085-0.299,0.206c-0.317-1.097-0.806-2.021-1.693-2.034c-0.278-0.004-0.444,0.488-0.209,0.696
	c0.333,0.296,0.704,0.423,0.958,0.859c0.232,0.393,0.417,0.813,0.561,1.26c0.045,0.136,0.086,0.275,0.129,0.414
	c-0.064-0.025-0.139-0.024-0.205-0.043c-0.134-0.239-0.272-0.476-0.415-0.703c-0.41-0.656-0.923-1.658-1.636-1.809
	c-0.155-0.032-0.273,0.088-0.299,0.249c-0.138,0.003-0.238,0.12-0.279,0.257c-0.131-0.043-0.271-0.065-0.418-0.031
	c-0.145,0.031-0.164,0.277-0.07,0.381c0.255,0.283,0.598,0.389,0.835,0.701c0.143,0.186,0.267,0.393,0.378,0.608
	c0.004,0.188,0.007,0.377,0.027,0.572c-0.279-0.572-0.652-1.04-1.146-1.291c-0.41-0.511-0.889-1.054-1.411-1.171
	c-0.187-0.043-0.345,0.055-0.432,0.213c-0.037,0.01-0.072,0.006-0.111,0.016c-0.133,0.041-0.147,0.291-0.024,0.356
	c0.026,0.016,0.052,0.026,0.079,0.035c0.013,0.058,0.01,0.115,0.036,0.168c0.067,0.15,0.166,0.274,0.271,0.399
	c-0.208-0.157-0.445-0.204-0.702,0.005c-0.158,0.124-0.15,0.42-0.022,0.551c-0.131-0.081-0.267-0.14-0.407-0.158
	c-0.249-0.038-0.512,0.285-0.331,0.571c0.003,0.009,0.01,0.015,0.012,0.025c-0.088-0.006-0.18,0.007-0.281,0.056
	c-0.146,0.068-0.165,0.294-0.03,0.386c0.291,0.19,0.489,0.365,0.666,0.612c-0.043,0.052-0.061,0.143-0.011,0.205
	c0.121,0.15,0.242,0.309,0.361,0.466c0.007,0.022,0.017,0.046,0.027,0.069c-0.263-0.197-0.48-0.359-0.589-0.451
	c-0.005-0.004-0.013-0.003-0.018-0.004c-0.066-0.152-0.15-0.297-0.264-0.421c-0.358-0.393-0.99-0.851-1.462-0.481
	c-0.168,0.135-0.166,0.388-0.04,0.56c0.008,0.01,0.02,0.015,0.027,0.025c-0.008,0-0.017-0.003-0.027-0.003
	c-0.09,0.006-0.113,0.116-0.076,0.197c-0.014,0.006-0.03,0-0.042,0.006c-0.022-0.014-0.042-0.029-0.063-0.041
	c-0.121-0.083-0.227,0.118-0.133,0.224c0.017,0.021,0.032,0.042,0.049,0.063c-0.005,0.056-0.014,0.113,0.011,0.171
	c-0.066,0.09-0.09,0.231-0.002,0.329c0.164,0.182,0.33,0.236,0.521,0.222c0.037,0.061,0.082,0.113,0.113,0.179
	c0.087,0.171,0.136,0.347,0.186,0.526c-0.289-0.442-0.722-0.763-1.072-1.127c-0.131-0.129-0.286,0.085-0.176,0.227
	c0.102,0.132,0.2,0.268,0.297,0.4c-0.066-0.026-0.131-0.055-0.185-0.074c-0.131-0.054-0.208,0.205-0.082,0.269
	c0.267,0.13,0.407,0.343,0.474,0.667c0.035,0.167,0.242,0.218,0.329,0.086c0.037-0.05,0.055-0.096,0.074-0.145
	c0.042,0.059,0.083,0.112,0.125,0.17c0.125,0.146,0.292,0.037,0.334-0.121c0.015,0.041,0.021,0.089,0.045,0.125
	c0.104,0.216,0.427,0.222,0.511-0.029c0.055-0.162,0.05-0.32,0.029-0.476c0.075,0.232,0.077,0.453-0.044,0.638
	c-0.153,0.239-0.049,0.684,0.25,0.638c0.37-0.061,0.561-0.285,0.627-0.566c0.044,0.053,0.074,0.119,0.119,0.168
	c0.091,0.098,0.21,0.093,0.315,0.046c0.053,0.093,0.064,0.121,0.055,0.095c0.052,0.166,0.195,0.307,0.339,0.277
	c0.434-0.08,0.444-0.433,0.318-0.794c0.034,0.046,0.076,0.093,0.108,0.14c0.063,0.141,0.136,0.268,0.217,0.386
	c0.084,0.185,0.149,0.378,0.179,0.609c0.021,0.196,0.223,0.385,0.383,0.236c0.183-0.173,0.25-0.366,0.247-0.571
	c0.166,0.063,0.339,0.098,0.509,0.132c0.096,0.1,0.217,0.144,0.338,0.064c0.063,0.007,0.126-0.002,0.188,0.003
	c0.202,0.012,0.402,0.018,0.604,0.006c0.025-0.003,0.052,0.001,0.077,0c0.049-0.003,0.094-0.017,0.143-0.021
	c0.223-0.021,0.444-0.048,0.665-0.084c0.252,0.31,0.689,0.217,0.817-0.126c0.136-0.023,0.27-0.034,0.405-0.055
	c0.005,0.005,0.01,0.012,0.015,0.017c0.161,0.167,0.413,0.127,0.526-0.089c0.171-0.021,0.344-0.053,0.514-0.069
	c0.005,0.008,0.01,0.014,0.015,0.02c-0.026,0.05-0.04,0.101-0.074,0.147c-0.092,0.121,0.062,0.292,0.155,0.173
	c0.032-0.042,0.053-0.084,0.079-0.124c0.025,0.026,0.045,0.061,0.07,0.084c0.264,0.294,0.627,0.021,0.637-0.361V380
	c0.106-0.006,0.212-0.015,0.321-0.018c0.141,0.165,0.357,0.251,0.449,0.092c0.003,0.004,0.006,0.009,0.006,0.012
	c0.021-0.037,0.009-0.087,0.021-0.129c0.21-0.001,0.417-0.019,0.627-0.021c0.03,0.018,0.053,0.049,0.082,0.063
	c0.064,0.032,0.116-0.003,0.144-0.072c0.219-0.005,0.437-0.017,0.655-0.024c0.002,0.002,0.002,0.003,0.002,0.005
	c0.103,0.196,0.309,0.161,0.404,0.009c0.407,0.364,1.089,0.453,1.52,0.438c0.092-0.005,0.152-0.069,0.194-0.144
	c0.065,0.009,0.121,0.027,0.174,0.057c0.185,0.105,0.323-0.081,0.302-0.282c0.021-0.003,0.042-0.014,0.063-0.018
	c0.279,0.215,0.652,0.274,0.976,0.168c0.102,0.02,0.205,0.04,0.309,0.051c0.146,0.016,0.218-0.196,0.087-0.299
	c-0.047-0.033-0.102-0.064-0.153-0.1c-0.018-0.048-0.052-0.083-0.097-0.101c0.074-0.006,0.148-0.017,0.223-0.023
	c0.066,0.091,0.146,0.162,0.247,0.184c0.104,0.216,0.218,0.433,0.354,0.637c0.197,0.307,0.578,0.021,0.425-0.326
	c-0.082-0.187-0.166-0.363-0.247-0.542h0.007c0.21,0.259,0.431,0.484,0.696,0.687c0.114,0.081,0.24-0.132,0.137-0.229
	c-0.097-0.089-0.186-0.187-0.276-0.279c0.084,0.038,0.168,0.075,0.249,0.115c0.037,0.017,0.071,0.017,0.108,0.011
	c0.067,0.203,0.228,0.355,0.44,0.258c0.051-0.025,0.091-0.071,0.14-0.104c0.126,0.15,0.25,0.304,0.359,0.474
	c0.101,0.157,0.313,0,0.217-0.165c-0.101-0.172-0.222-0.329-0.341-0.479c0.147-0.146,0.289-0.303,0.42-0.471
	c0,0.015-0.007,0.029-0.007,0.041c0.005,0.211,0.175,0.352,0.34,0.331c0.272,0.286,0.569,0.537,0.89,0.758
	c0.092,0.064,0.172-0.09,0.106-0.177c-0.032-0.032-0.058-0.073-0.084-0.106c0.017,0.009,0.026,0.028,0.042,0.037
	c0.02,0.028,0.045,0.052,0.069,0.065v0.001c0.162,0.102,0.353-0.001,0.433-0.19c0.096-0.131,0.12-0.336,0-0.471
	c-0.065-0.07-0.132-0.133-0.198-0.197c0.066,0,0.133,0.006,0.202-0.006c0.02,0.198,0.134,0.364,0.321,0.442
	c0.225,0.092,0.539,0.112,0.885,0.072c0.032,0.137,0.106,0.254,0.249,0.27c0.531,0.069,1.013-0.121,1.509-0.332
	c0.163-0.072,0.331-0.153,0.499-0.226c-0.007,0.026-0.023,0.046-0.027,0.077c-0.021,0.139,0.035,0.277,0.135,0.35
	c-0.021,0.025-0.045,0.044-0.067,0.069c-0.136,0.198-0.067,0.491,0.146,0.549c0.417,0.118,0.821-0.118,1.202-0.321
	c0.358-0.189,0.714-0.369,1.058-0.591c0.099-0.062,0.123-0.185,0.113-0.302c0.076-0.048,0.126-0.123,0.131-0.227
	c0.363,0.145,0.736,0.173,1.022-0.151c0.003,0,0.003-0.003,0.005-0.005c0.084,0.098,0.192,0.168,0.328,0.121
	c0.261-0.086,0.381-0.069,0.578-0.33c0.05-0.063,0.084-0.154,0.104-0.252c0.008,0.02,0.013,0.039,0.021,0.057
	c0.187,0.37,0.583,0.289,0.771,0.02c0.031,0.333,0.323,0.655,0.617,0.504c0.063-0.03,0.118-0.078,0.181-0.114
	c0.11,0.021,0.225-0.011,0.309-0.129c0-0.004,0.005-0.006,0.005-0.007c0.055-0.007,0.109-0.025,0.155-0.08
	c0.059-0.069,0.119-0.147,0.173-0.236c0.04-0.032,0.074-0.072,0.112-0.104c0.049-0.02,0.096-0.037,0.143-0.063
	c0,0.025,0,0.051,0.005,0.072c0.032,0.458,0.563,0.514,0.675,0.089l0.021-0.008c0.05,0.076,0.142,0.115,0.226,0.065
	c0.06-0.04,0.123-0.08,0.183-0.116c-0.089,0.19-0.037,0.439,0.106,0.583c-0.307,0.048-0.61,0.112-0.904,0.217
	c-0.158,0.055-0.114,0.348,0.047,0.327c1.523-0.208,3.083-0.165,4.594-0.471c0.131-0.028,0.126-0.272-0.009-0.253
	c-0.285,0.036-0.571,0.054-0.855,0.064c0.352-0.055,0.701-0.102,1.048-0.184c-0.018,0.09-0.016,0.178,0.01,0.266
	c-0.129,0.093-0.26,0.188-0.38,0.299c-0.116,0.103-0.009,0.311,0.12,0.227c0.142-0.091,0.284-0.168,0.431-0.248
	c0.068,0.055,0.149,0.095,0.261,0.095c0.719-0.01,1.485-0.049,2.194-0.246c0.457-0.075,0.914-0.167,1.368-0.251
	c1.124,0.153,2.228,0.264,3.342-0.038c0.457-0.124,0.43-0.929,0.035-1.114c0.047-0.155-0.018-0.363-0.171-0.407
	c-0.514-0.148-1.139,0.012-1.692,0.102c0.008-0.005,0.013-0.005,0.018-0.014c0.215-0.202,0.136-0.624-0.166-0.615
	c-0.207,0.005-0.432,0.06-0.656,0.139c-0.005-0.013-0.005-0.029-0.013-0.041c0.064-0.149,0.076-0.326-0.055-0.443
	c-0.034-0.035-0.074-0.051-0.108-0.075c-0.037-0.128-0.141-0.235-0.271-0.175c-0.027,0.018-0.052,0.039-0.079,0.058
	c-0.116-0.008-0.235,0.004-0.351,0.038c0.059-0.162-0.008-0.377-0.176-0.43c-0.026-0.009-0.057-0.008-0.084-0.012
	c-0.013-0.014-0.024-0.025-0.034-0.04c-0.064-0.066-0.15-0.093-0.237-0.096c-0.123-0.168-0.316-0.246-0.516-0.149
	c0.091-0.176,0.029-0.436-0.169-0.492c-0.333-0.101-0.646-0.037-0.934,0.126c-0.029-0.004-0.054-0.024-0.086-0.021
	c-0.06,0.004-0.119,0.02-0.181,0.025c0.113-0.148,0.213-0.302,0.279-0.469c0.152-0.385-0.136-0.74-0.467-0.654
	c-0.186,0.05-0.358,0.189-0.527,0.356c-0.056-0.018-0.112-0.027-0.18,0c-0.005,0.005-0.005,0.005-0.01,0.011
	c-0.052-0.15-0.165-0.266-0.309-0.236c-0.362,0.078-0.656,0.352-0.906,0.676c-0.151,0.096-0.296,0.208-0.445,0.317
	c0.352-0.612,0.764-1.179,1.1-1.8c0.15-0.281-0.218-0.573-0.393-0.33c-0.271,0.369-0.514,0.776-0.732,1.202
	c0.012-0.098,0.012-0.193,0.009-0.288c0.176-0.407,0.373-0.845,0.336-1.224c-0.022-0.233-0.215-0.43-0.42-0.342
	c-0.179,0.076-0.302,0.247-0.405,0.443c-0.059-0.053-0.119-0.107-0.193-0.151c-0.012-0.006-0.021-0.008-0.031-0.014
	c-0.097-0.47-0.391-1.135-0.751-1.126c-0.108-0.246-0.257-0.444-0.47-0.522c-0.131-0.047-0.309,0.055-0.36,0.202
	c-0.202,0.565,0.139,1.425,0.273,2.098c-0.044,0.075-0.086,0.151-0.125,0.229c-0.013,0-0.018,0.005-0.024,0.011
	c0.031-0.651-0.109-1.279-0.534-1.81c-0.102-0.122-0.217-0.143-0.328-0.128c-0.008,0-0.019-0.003-0.025-0.003
	c-0.094-0.198-0.205-0.383-0.325-0.537c-0.106-0.127-0.312-0.184-0.45-0.118c-0.685,0.333,0.018,1.279,0.2,1.843
	c-0.027,0.124-0.057,0.244-0.081,0.37c-0.158-0.426-0.352-0.823-0.604-1.144c-0.111-0.151-0.264-0.096-0.363,0.022
	c-0.189-0.24-0.409-0.387-0.664-0.34c-0.021-0.032-0.038-0.075-0.066-0.104c-0.16-0.21-0.433,0.081-0.312,0.309
	c0.188,0.347,0.36,0.723,0.52,1.109c-0.21,0.129-0.361,0.36-0.462,0.67c-0.245-0.217-0.478-0.449-0.69-0.699
	c-0.044-0.066-0.086-0.142-0.14-0.199c-0.008-0.01-0.021-0.007-0.028-0.015c-0.701-0.884-1.225-1.937-1.632-3.093
	c-1.149-3.271-1.25-6.935-1.667-10.407c-0.944-7.959-0.727-15.797-0.094-23.768c0.189-2.404,0.461-5.5,1.758-7.524
	c0.06-0.015,0.102-0.067,0.106-0.164c0.333-0.48,0.753-0.863,1.223-1.185c0.346,0.059,0.688,0.019,1.01-0.257
	c0.126-0.108,0.198-0.241,0.248-0.38c0.019-0.006,0.037-0.016,0.056-0.021c0.082-0.028,0.166-0.048,0.25-0.071
	c0.193-0.056,0.389-0.107,0.585-0.147c0.092-0.019,0.187-0.035,0.277-0.052c0.197-0.034,0.396-0.063,0.595-0.085
	c0.079-0.009,0.158-0.018,0.24-0.025c0.024-0.002,0.049-0.003,0.074-0.005c0.264,0.048,0.507,0.042,0.706-0.03
	c0.494-0.02,0.991-0.034,1.487-0.031c0.307,0.003,0.609,0.003,0.913,0.001c0.182,0.092,0.356,0.163,0.513,0.199
	c0.32,0.067,0.711,0.016,0.942-0.249c0.018,0,0.032-0.007,0.053-0.007c0.059,0.093,0.101,0.197,0.181,0.277
	c0.34,0.347,0.671,0.416,0.95,0.281c0.578,0.666,1.396,1.065,1.92,0.421c0.583,0.279,1.196,0.466,1.751-0.009
	c0.399-0.344,0.36-0.874,0.222-1.386c0.186,0.012,0.376,0.009,0.574-0.026c0.953,0.595,2.652,1.213,2.722-0.155
	c0.024-0.493-0.216-0.502,0.015-0.971c0.082-0.166,0.267-0.181,0.467-0.152c0.021,0.06,0.042,0.119,0.074,0.177
	c0.178,0.325,0.412,0.551,0.693,0.741c0.23,0.156,0.544,0.167,0.783,0.038c0.353-0.19,0.316,0.167,0.487,0.554
	c0.291,0.658,0.867,1.057,1.484,1.057c0.667-0.002,1.344-0.063,1.638-0.886c0.105-0.301-0.005-0.671-0.086-0.955
	c-0.065-0.234-0.124-0.516-0.084-0.76c0.019-0.145,0.157-0.647,0.231-0.245c0.136,0.752,0.907,1.431,1.559,1.211
	c0.237-0.081,0.562-0.287,0.811-0.247c0.178,0.023,0.338,0.187,0.514,0.241c0.242,0.081,0.536,0.159,0.771,0.009
	c0.084-0.052,0.153-0.109,0.213-0.173c0.034-0.036,0.057-0.08,0.086-0.119c0.018-0.03,0.042-0.055,0.06-0.086
	c0.034-0.066,0.062-0.141,0.084-0.219c0.004-0.009,0.008-0.017,0.01-0.025c0.027-0.096,0.05-0.197,0.064-0.31
	c0.044-0.347-0.351-0.768-0.121-1.043c0.007,0.01,0.01,0.018,0.022,0.029c0.131,0.177,0.257,0.362,0.385,0.541
	c0.517,0.716,1.228,1.364,1.91,0.961c0.728,0.54,1.808,0.79,2.403,0.008c0.399-0.523,0.483-1.187,0.212-1.827
	c-0.19-0.451-0.294-0.5,0.168-0.565c0.267-0.035,0.465-0.106,0.679-0.297c0.27-0.235,0.271-0.665,0.06-0.969
	c-0.212-0.303-0.894-0.741-0.656-1.139c0.026,0.043,0.056,0.089,0.081,0.127c0.541,0.785,1.307,0.932,2.116,1.075
	c0.25,0.044,0.557-0.218,0.539-0.537c-0.013-0.229-0.097-0.632,0.074-0.808c0.111-0.115,0.467-0.493,0.642-0.369
	c0.396,0.269,0.731,0.652,1.151,0.866c0.734,0.372,1.762,0.664,2.485,0.075c0.609-0.497,1.183-1.573,0.635-2.414
	C545.131,317.292,544.76,317.13,544.364,316.988 M465.232,313.928c-0.037,0.063-0.07,0.128-0.103,0.195
	c-0.016,0.027-0.033,0.056-0.047,0.084c-0.05,0.004-0.098,0.001-0.149,0.015c-0.029-0.202-0.091-0.392-0.173-0.56
	c0.171-0.034,0.341-0.155,0.49-0.263c0.009,0.043,0.028,0.12,0.042,0.254C465.306,313.753,465.274,313.841,465.232,313.928
	 M480.26,377.602c-0.061-0.203-0.13-0.405-0.21-0.594c0.04,0.038,0.075,0.081,0.114,0.12c0.129,0.157,0.245,0.334,0.348,0.521
	C480.428,377.628,480.344,377.615,480.26,377.602 M481.419,375.839c-0.067,0.007-0.133,0.036-0.188,0.082
	c-0.091-0.188-0.194-0.376-0.32-0.54c0.159,0.149,0.339,0.285,0.512,0.419C481.422,375.813,481.419,375.827,481.419,375.839
	 M483.183,377.545c-0.037-0.08-0.082-0.157-0.126-0.233c0.066,0.067,0.136,0.131,0.205,0.196
	C483.238,377.521,483.21,377.531,483.183,377.545 M486.07,376.497c-0.036-0.201-0.073-0.401-0.117-0.606
	c0.107,0.18,0.212,0.364,0.328,0.538C486.209,376.451,486.139,376.476,486.07,376.497 M488.6,374.012
	c-0.037-0.147-0.069-0.298-0.116-0.437c0.052,0.075,0.074,0.18,0.118,0.264C488.602,373.896,488.6,373.954,488.6,374.012
	 M500.442,290.219c-0.032,0.03-0.074,0.055-0.111,0.081c-0.007-0.011-0.011-0.023-0.015-0.034
	C500.358,290.249,500.4,290.233,500.442,290.219 M500.452,293.989c-0.055-0.054-0.094-0.121-0.153-0.167
	c0.013-0.034,0.01-0.066,0.02-0.101c0.064,0.063,0.129,0.127,0.198,0.187C500.497,293.936,500.471,293.961,500.452,293.989
	 M517.604,376.922c0.007-0.005,0.013-0.009,0.021-0.012c-0.016,0.012-0.03,0.024-0.047,0.038
	C517.587,376.939,517.594,376.931,517.604,376.922 M517.421,377.11c-0.042,0.06-0.079,0.121-0.084,0.196
	c-0.052,0.021-0.106,0.037-0.158,0.058C517.271,377.291,517.339,377.191,517.421,377.11 M518.492,296.661
	c-0.007-0.019-0.011-0.035-0.014-0.056c0.011,0,0.023,0.006,0.032,0.006C518.503,296.628,518.499,296.646,518.492,296.661
	 M524.508,289.38c0.111-0.016,0.217-0.021,0.287-0.007c-0.023-0.129-0.005-0.096,0.044,0.102c0.002,0.014,0.005,0.027,0.007,0.04
	C524.738,289.457,524.625,289.412,524.508,289.38 M526.652,295.106c0,0.061,0.013,0.115,0.021,0.172
	C526.6,295.197,526.6,295.145,526.652,295.106"/>
</svg>
