<?xml version="1.0" encoding="utf-8"?>
<!-- Generator: Adobe Illustrator 17.1.0, SVG Export Plug-In . SVG Version: 6.00 Build 0)  -->
<!DOCTYPE svg PUBLIC "-//W3C//DTD SVG 1.1//EN" "http://www.w3.org/Graphics/SVG/1.1/DTD/svg11.dtd">
<svg version="1.1" id="Layer_1" xmlns="http://www.w3.org/2000/svg" xmlns:xlink="http://www.w3.org/1999/xlink" x="0px" y="0px"
	 viewBox="219.8 126.9 210.7 193.6" enable-background="new 219.8 126.9 210.7 193.6" xml:space="preserve">
<g>
	<g>
		<g>
			<g>
				<g>
					<g>
						<polygon fill="#ED145B" points="231.5,147.9 254,132.2 270,138.6 288.1,127.4 315.8,135.1 321.9,131.9 347,139.2 347,137.8 
							359.8,132.2 393.7,143.2 393.7,151.8 391.1,153 391.1,155.2 402,158.5 401.8,167.2 408.3,169.6 409.2,169.6 409.2,268.8 
							322.5,263 288.8,259.9 269.6,259.5 253.5,260.2 232.8,263.5 234.4,161.2 231.4,161 						"/>
						<g>
							<path fill="none" d="M423.6,259.7c0.3,0.1,0.6,0.2,1,0.3"/>
							<path fill="none" d="M417.4,250.6"/>
							<path fill="#302C4E" d="M399.9,270.6c3.2-0.3,6.3-1,9.3-1.8v-99.7l-7.4-1.8l0.2-8.7l-10.9-3.2V153l2.7-1.1v-8.7l-33.9-11
								l-12.8,5.6v1.4l-24.6-7.3V263c16.3,2.2,33.3,5.5,50.6,7.3C382,271.2,391.1,271.7,399.9,270.6z"/>
							<path fill="#302C4E" d="M321.3,262.8V132.2l-4.8,2.7v127.4c1.2,0.1,2.4,0.3,3.6,0.4C320.5,262.7,320.9,262.8,321.3,262.8z"/>
							<path fill="#302C4E" d="M315.3,262.1V134.9l-26.5-7.5v132.5c2.2,0.1,4.4,0.2,6.6,0.3C301.8,260.6,308.5,261.2,315.3,262.1z
								 M295.2,151.4l13.7,2.8v9.4l-13.7-2.5V151.4z M295.2,169.4l13.7,2.1v9.4l-13.7-1.7V169.4z M295.2,187.5l13.7,1.4v9.4l-13.7-1
								V187.5z M295.2,205.6l13.7,0.7v9.4l-13.7-0.3V205.6z M295.2,223.7h13.7v9.4l-13.7,0.4V223.7z M295.2,241.8l13.7-0.7v9.4
								l-13.7,1.1V241.8z"/>
							<path fill="#302C4E" d="M287.6,259.8V127.7l-16.9,10.8v121c0.8,0,1.6,0,2.4,0C277.8,259.5,282.7,259.6,287.6,259.8z
								 M283,251.4l-9.7-2V240l9.7,1.4V251.4z M283.1,234.2l-9.7-0.9v-9.5l9.7,0.3V234.2z M283.4,217.2l-9.7,0.2V208l9.7-0.8V217.2z
								 M283.1,197.9l-9.7,1.4v-9.5l9.7-2V197.9z M273.4,156.9l9.7-4.3v10.1l-9.7,3.7V156.9z M273.3,172.8l9.7-3.2v10l-9.7,2.6
								V172.8z"/>
							<path fill="#302C4E" d="M269.6,138.5l-15-6.2v127.8c4.5-0.3,9.6-0.5,15-0.6V138.5z"/>
							<polygon fill="#FFFFFF" points="308.9,154.2 295.2,151.4 295.2,161.1 308.9,163.6 							"/>
							<polygon fill="#FFFFFF" points="395.5,236.3 388.1,236.7 388.1,243.8 395.5,243.2 							"/>
							<g>
								<polygon fill="#FFFFFF" points="333,168.1 343.8,171.3 343.8,163 333,159.3 								"/>
								<polygon fill="#FFFFFF" points="333,183.8 343.8,186.3 343.8,178 333,175.1 								"/>
								<polygon fill="#FFFFFF" points="333,200.2 343.8,201.8 343.8,193.5 333,191.5 								"/>
								<polygon fill="#FFFFFF" points="333,216.3 343.8,217.1 343.8,208.8 333,207.6 								"/>
								<polygon fill="#FFFFFF" points="333,232.5 343.8,232.5 343.8,224.2 333,223.8 								"/>
								<polygon fill="#FFFFFF" points="333,248.2 343.8,247.4 343.8,239.1 333,239.5 								"/>
								<polygon fill="#FFFFFF" points="395.5,179.3 388.1,177 388.1,183.6 395.5,185.6 								"/>
								<polygon fill="#FFFFFF" points="395.5,190.7 388.1,189 388.1,195.6 395.5,197.1 								"/>
								<polygon fill="#FFFFFF" points="395.5,202.5 388.1,201.3 388.1,207.9 395.5,208.9 								"/>
								<polygon fill="#FFFFFF" points="395.5,214.2 388.1,213.5 388.1,220.1 395.5,220.6 								"/>
								<polygon fill="#FFFFFF" points="395.5,226 388.1,225.7 388.1,232.3 395.5,232.3 								"/>
							</g>
							<polygon fill="#FFFFFF" points="308.9,171.6 295.2,169.4 295.2,179.2 308.9,181 							"/>
							<polygon fill="#FFFFFF" points="308.9,188.9 295.2,187.5 295.2,197.3 308.9,198.3 							"/>
							<polygon fill="#FFFFFF" points="308.9,206.3 295.2,205.6 295.2,215.4 308.9,215.7 							"/>
							<polygon fill="#FFFFFF" points="308.9,223.7 295.2,223.7 295.2,233.5 308.9,233.1 							"/>
							<polygon fill="#FFFFFF" points="308.9,241.1 295.2,241.8 295.2,251.6 308.9,250.5 							"/>
							<polygon fill="#FFFFFF" points="283.1,152.6 273.4,156.9 273.4,166.4 283.1,162.7 							"/>
							<polygon fill="#FFFFFF" points="283,169.6 273.3,172.8 273.3,182.3 283,179.7 							"/>
							<polygon fill="#FFFFFF" points="273.5,199.3 283.1,197.9 283.1,187.8 273.5,189.9 							"/>
							<polygon fill="#FFFFFF" points="273.7,217.4 283.4,217.2 283.4,207.2 273.7,208 							"/>
							<polygon fill="#FFFFFF" points="273.4,233.3 283.1,234.2 283.1,224.2 273.4,223.9 							"/>
							<polygon fill="#FFFFFF" points="273.4,249.4 283,251.4 283,241.4 273.4,240 							"/>
							<path fill="#302C4E" d="M231.4,147.9V161l2.9,0.2l-0.2,14.3l0,0v4.4v2.4l0,0V180l-0.1,7.2l0,0l-0.1,6.8l0,0l-0.1,5.4h0l0,5.7
								l-0.1,7l0,0l-0.1,6.6l0,0l-0.1,5.2l0,0l0,4l-0.1,7.1l-0.1,6.9l0,0l-0.3,21.5c1.9-0.5,4.3-1.1,7.3-1.6
								c3.7-0.6,8.2-1.2,13.3-1.6v-14.6v-8.2v-5.3V224v-6.1v-7.9v-7.1l0,0v-8.2v-6.5V180l0,0v-5.7l0,0v-8.2v-33.5L231.4,147.9z"/>
							<polygon fill="#FFFFFF" points="247.2,156.1 237.9,161.8 237.9,170 247.2,165.3 							"/>
							<polygon fill="#FFFFFF" points="247.1,172.6 237.7,177.2 237.7,185.4 247.1,181.8 							"/>
							<polygon fill="#FFFFFF" points="237.9,201.9 247.3,199.5 247.3,190.3 237.9,193.7 							"/>
							<polygon fill="#FFFFFF" points="238.1,219.5 247.5,218.3 247.5,209.1 238.1,211.3 							"/>
							<polygon fill="#FFFFFF" points="237.9,234.9 247.3,234.7 247.3,225.6 237.9,226.8 							"/>
							<polygon fill="#FFFFFF" points="237.8,250.1 247.1,250.9 247.1,241.8 237.8,241.3 							"/>
							<g>
								<polygon fill="#FFFFFF" points="353.5,174.3 363.8,177.2 363.8,169.7 353.5,166.5 								"/>
								<polygon fill="#FFFFFF" points="353.5,188.5 363.8,190.7 363.8,183.2 353.5,180.7 								"/>
								<polygon fill="#FFFFFF" points="353.5,203.2 363.8,204.6 363.8,197.2 353.5,195.4 								"/>
								<polygon fill="#FFFFFF" points="353.5,217.7 363.8,218.4 363.8,211 353.5,209.9 								"/>
								<polygon fill="#FFFFFF" points="353.5,232.2 363.8,232.2 363.8,224.8 353.5,224.4 								"/>
								<polygon fill="#FFFFFF" points="353.5,246.4 363.8,245.6 363.8,238.2 353.5,238.5 								"/>
							</g>
							<g>
								<polygon fill="#FFFFFF" points="371.1,179 380.5,181.7 380.5,174.8 371.1,171.8 								"/>
								<polygon fill="#FFFFFF" points="371.1,192 380.5,194 380.5,187.1 371.1,184.8 								"/>
								<polygon fill="#FFFFFF" points="371.1,205.3 380.5,206.7 380.5,199.8 371.1,198.2 								"/>
								<polygon fill="#FFFFFF" points="371.1,218.6 380.5,219.2 380.5,212.5 371.1,211.5 								"/>
								<polygon fill="#FFFFFF" points="371.1,231.9 380.5,231.8 380.5,225 371.1,224.7 								"/>
								<polygon fill="#FFFFFF" points="371.1,244.8 380.5,244.1 380.5,237.3 371.1,237.6 								"/>
							</g>
						</g>
						<g>
							<g>
								<path fill="#ED145B" d="M256.2,258.9h4.8c0,0-9.8-32.6,9.4-37.2c0,0,63.3-13.4,29.9-43.6c0,0-12.4-19.9-27.4-7.7
									c0,0-4.3-7.9-18.8-2.6c-14.5,5.3-11.3,12.6-9.4,14.2c-2-1.9-29.3,6.1-15.9,20.8c0.6-0.6-5.3,12.5,2,16.2
									c7.4,3.7,15.2,1.8,15.2,1.8S256.2,216.1,256.2,258.9z"/>
								<g>
									<path fill="none" d="M269.7,219.8c0.4-0.1,32-6.9,37.2-21c2.1-5.8-0.7-12.3-8.4-19.3c-0.1-0.1-0.2-0.3-0.3-0.4
										c0-0.1-6.7-10.6-15.2-10.6c-2.7,0-5.5,1.1-8.3,3.4c-0.5,0.4-1.4,0.6-2.1,0.5c-0.8-0.1-1.4-0.5-1.8-1.1c0-0.1-2-3.3-7.5-3.3
										c-2.4,0-5.1,0.5-8.1,1.7c-5.6,2-8.9,4.6-9.5,7.3c-0.4,1.9,0.5,3.3,0.8,3.6c0.9,0.8,0.9,2,0,2.8c-0.8,0.6-2,0.7-2.9,0.3
										c-3.4,0.1-12,3-14.9,7.9c-1.8,2.9-1.1,6.2,1.9,9.7c0.1,0,0.1,0.1,0.2,0.2c0.7,0.8,0.5,1.5,0.2,2.6
										c-2.7,9-0.9,12.1,1.2,13.2c2.6,1.3,5.6,2,9,2c2.1,0,3.7-0.3,4.1-0.4c0.3-0.1,0.9-0.2,1.7-0.2c4.7,0,8.1,5,9.9,15
										C258.3,227.3,261.9,221.6,269.7,219.8z"/>
									<path fill="#FFFFFF" d="M263.5,258.9c0-0.3-0.1-0.6-0.2-0.9c-2.5-8.9-5.9-31.1,7.8-34.4c1.4-0.3,34.6-7.5,40.6-23.7
										c2.6-7.2-0.5-14.9-9.2-22.9c-1.2-1.8-8.7-12.5-19.4-12.5c-3.3,0-6.5,1-9.6,3c-1.8-1.6-5-3.5-10.1-3.5
										c-3.1,0-6.5,0.7-10.1,2c-9,3.3-11.6,7.4-12.3,10.2c-0.3,1.3-0.2,2.6,0.1,3.7c-5.2,0.9-13.3,4.3-16.6,9.8
										c-1.8,2.9-2.8,7.7,2,13.5c-1,3.4-4.1,13.6,3.4,17.4c3.4,1.7,7.3,2.6,11.5,2.6c3.2,0,5.6-0.5,5.7-0.6c0,0,0.1,0,0.2,0
										c0.5,0.1,6.8,2.7,6.8,36.3c0,0.4,0.2,0.8,0.5,1.2c2.8-0.2,5.8-0.3,9-0.4C263.4,259.4,263.5,259.2,263.5,258.9z
										 M246.9,218.7c-0.7,0-1.3,0.1-1.7,0.2c-0.4,0.1-2,0.4-4.1,0.4c-3.3,0-6.3-0.7-9-2c-2-1-3.9-4.2-1.2-13.2
										c0.3-1.1,0.5-1.8-0.2-2.6c-0.1-0.1-0.1-0.1-0.2-0.2c-3.1-3.5-3.7-6.8-1.9-9.7c2.9-4.8,11.6-7.8,14.9-7.9
										c0.9,0.4,2.1,0.3,2.9-0.3c0.9-0.7,0.9-2,0-2.8c-0.3-0.2-1.3-1.6-0.8-3.6c0.6-2.7,3.9-5.3,9.5-7.3c3-1.1,5.7-1.7,8.1-1.7
										c5.5,0,7.4,3.1,7.5,3.3c0.3,0.6,1,1,1.8,1.1c0.8,0.1,1.6-0.1,2.1-0.5c2.7-2.2,5.5-3.4,8.3-3.4c8.5,0,15.1,10.5,15.2,10.6
										c0.1,0.1,0.2,0.3,0.3,0.4c7.7,7,10.5,13.5,8.4,19.3c-5.1,14.1-36.8,20.9-37.2,21c-7.8,1.8-11.4,7.5-12.9,14
										C254.9,223.7,251.7,218.7,246.9,218.7z"/>
								</g>
							</g>
						</g>
					</g>
					<g>
						<path fill="none" d="M368.4,255.3c-1.6,0.8-4.3,1.8-7.1,1.8c-1.8,0-4.1-0.4-5.8-2.3c-1.4,2.7-1.3,7.9-0.5,13.2
							c4.1,0.6,8.3,1.2,12.4,1.7C368.5,265.3,369.5,259.5,368.4,255.3z"/>
						<path fill="none" d="M381.8,253.5c-1.4,1.4-3.7,1.9-6.5,1.5c-0.6,1.7-1.9,6.3-2.3,15.2l0,0c3.4,0.3,6.9,0.6,10.3,0.7
							c0-8.1-0.6-13.8-1.3-17.7C381.9,253.4,381.9,253.5,381.8,253.5z"/>
						<path fill="#ED145B" d="M375.4,227.1c1.1,0.3,2.1,0.9,2.9,1.7c1.3,1.2,2.1,3,2.5,5.2c5.4,0.5,8.5,2.6,8.5,6
							c0,1.5-0.4,2.9-1,3.9c0.1,0,0.3,0.1,0.4,0.1c0,0,4.5,2.7,8.6,2.7c2.8,0,4.8-1.4,6-4.2c0-0.1,0.1-0.3,0.3-0.4
							c0-0.1,7.6-7.7,5.4-13.4c-1-2.6-4.1-4.5-9.1-5.7c-0.7-0.1-1.3-0.8-1.2-1.4c0-0.3,0.8-7.5-8.2-8.6c-0.6,0-1.2-0.1-1.7-0.1
							c-5.7,0-7.9,3.5-8.5,4.6c-0.8,1.7-0.8,3.5,0,4.2c0.5,0.4,0.6,1,0.3,1.5c-0.3,0.5-0.9,0.8-1.6,0.7c0,0-0.9-0.1-2.2-0.1
							c-0.8,0-1.8,0-2.9,0.1c-0.1,0.6-0.2,1.2-0.3,1.7C374.3,226.2,374.9,226.6,375.4,227.1z"/>
						<path fill="#FFFFFF" d="M384,247.7c-0.2,0.1-0.4,0.2-0.5,0.2c0.1,1.3,0,3.7-1.5,5.3c0.7,3.9,1.2,9.6,1.3,17.7
							c2.9,0.1,5.8,0.1,8.7,0.1c-1.1-3.1-5.3-15.7-3.2-23.9c2,0.9,5.3,2.2,8.6,2.2c2.9,0,6.9-1,9-5.8c1.3-1.3,8.3-9.1,5.8-15.7
							c-1.3-3.3-4.7-5.7-10.1-7.1c0-3.6-2.3-9.4-11.1-10.4c-7.4-0.9-12,2.7-13.7,6.1c-0.8,1.7-1.1,3.3-0.7,4.8c-0.9,0-1.7,0-2.5,0.1
							c0.1,0.9,0,1.8-0.1,2.7c1-0.1,2-0.1,2.9-0.1c1.3,0,2.1,0,2.2,0.1c0.7,0,1.3-0.2,1.6-0.7c0.3-0.5,0.2-1.1-0.3-1.5
							c-0.9-0.7-0.9-2.5,0-4.2c0.5-1.1,2.7-4.6,8.5-4.6c0.5,0,1.1,0,1.7,0.1c9,1.1,8.2,8.3,8.2,8.6c-0.1,0.6,0.4,1.2,1.2,1.4
							c5,1.1,8.1,3,9.1,5.7c2.2,5.7-5.3,13.3-5.4,13.4c-0.1,0.1-0.2,0.2-0.3,0.4c-1.2,2.8-3.1,4.2-6,4.2c-4.1,0-8.5-2.7-8.6-2.7
							c-0.1-0.1-0.3-0.1-0.4-0.1c-0.7,1.3-1.7,2.3-2.8,3c-0.3,1.4-0.5,3-0.6,4.6 M386.6,271c0-2.7-0.1-5.2-0.2-7.5
							c0.7,3.1,1.6,5.8,2.1,7.5H386.6z"/>
						<path fill="#ED145B" d="M349.1,239.3c1-2.7,3.9-4.7,8.4-5.9c0-3,1.9-7.7,9.1-8.6c1.1-0.1,2.2-0.1,3.2,0
							c0.4-1.7,0.5-3.8-0.4-5.6c-0.9-1.6-2.7-2.7-5.4-3.3c-0.5-0.1-0.9-0.4-1.2-0.8c-0.7-1-3.1-3.8-5.7-3.8c-1,0-2.2,0.4-3.3,1.4
							c-0.6,0.5-1.6,0.6-2.4,0.2c0,0-1.6-0.7-3.9-0.7c-5.7,0-10.4,4.2-13.8,12.2c-0.3,0.6-1,1.1-1.9,1.1c-0.2,0-0.4,0-0.7-0.1
							c0,0-0.1,0-0.2,0c-0.8,0-8,0.2-8,6.5c0,5.5,14.8,13.9,24.1,17.9c0.3,0.1,0.6,0.4,0.8,0.7c0.1,0.2,1.6,2.6,2.9,6.3
							c0.3-2.1,1-3.8,2.2-5.1c0,0,0.1-0.1,0.2-0.2C351.4,249.5,347.2,244,349.1,239.3z"/>
						<path fill="#ED145B" d="M375.4,227.1c1.1,0.8,1.9,1.9,2.4,2.9c0.7,1.4,0.9,2.8,0.6,3.9c0.8,0,1.6,0,2.4,0.1
							c-0.3-2.2-1.1-4-2.5-5.2C377.6,227.9,376.6,227.4,375.4,227.1z"/>
						<path fill="#FFFFFF" d="M354.9,268c-0.7-5.2-0.9-10.5,0.5-13.2c-0.6-0.6-1.1-1.4-1.6-2.5c-0.1-0.1-0.3-0.4-0.6-0.7
							c0,0-0.1,0.1-0.2,0.2c-1.2,1.2-1.9,3-2.2,5.1c-1.4-3.8-2.8-6.1-2.9-6.3c-0.2-0.3-0.5-0.5-0.8-0.7c-9.3-4-24.1-12.4-24.1-17.9
							c0-6.4,7.1-6.5,8-6.5c0,0,0.1,0,0.2,0c0.2,0,0.4,0.1,0.7,0.1c0.9,0,1.6-0.4,1.9-1.1c3.3-8,8.1-12.2,13.8-12.2
							c2.3,0,3.9,0.7,3.9,0.7c0.8,0.3,1.7,0.2,2.4-0.2c1.1-0.9,2.2-1.4,3.3-1.4c2.6,0,5,2.8,5.7,3.8c0.2,0.4,0.7,0.6,1.2,0.8
							c2.7,0.6,4.5,1.7,5.4,3.3c1,1.8,0.9,3.9,0.4,5.6c1.4,0.1,2.7,0.5,3.8,1c0.1-0.5,0.2-1.1,0.3-1.7c0.1-0.8,0.2-1.7,0.1-2.7
							c-0.1-1.2-0.4-2.4-1.1-3.6c-1.3-2.3-3.7-4-7.1-4.9c-1.1-1.4-4.3-4.9-8.8-4.9c-1.8,0-3.5,0.5-5.1,1.6
							c-3.8-1.1-14.7-2.4-21.5,12.5c-4.2,0.1-11.5,2.3-11.5,9.8c0,8.7,21.1,18.5,25.6,20.5c0.8,1.6,3.7,7.2,4.6,14.6
							C351,267.4,353,267.7,354.9,268z"/>
						<path fill="#0CA155" d="M370,270c0.1,0,0.2,0,0.3,0c0-0.4,0-0.9,0-1.4C370.3,269.1,370.2,269.5,370,270z"/>
						<path fill="#ED145B" d="M374.7,252.7c2.4,0.5,4.1,0.3,5-0.6c1.3-1.3,1.1-3.8,0.9-4.6c-0.1-0.5,0.3-1.1,1-1.3
							c0.2,0,5-1.2,5-6.2c0-3.4-5.3-3.9-8.4-3.9c-1,0-1.7,0-1.8,0c-0.5,0-1.1-0.2-1.3-0.6c-0.2-0.4-0.1-0.9,0.2-1.2
							c0.7-0.6,0.7-2.1,0-3.5c-0.5-1-2.8-4.4-8.4-3.7c-7.4,0.9-6.8,6.8-6.8,7.1c0,0.5-0.3,1-1,1.2c-4.1,0.9-6.7,2.5-7.5,4.7
							c-1.8,4.7,4.4,11,4.4,11.1c0.1,0.1,0.2,0.2,0.2,0.3c1,2.3,2.6,3.5,4.9,3.5c2.8,0,6.1-1.6,7.1-2.3c0.2-0.1,0.5-0.2,0.8-0.2
							c0.1,0,0.2,0,0.4,0c0.4,0.1,0.7,0.3,0.9,0.7c0.7,1.6,1,3.6,1.1,5.6c0.7-3.8,1.5-5.3,1.6-5.4
							C373.4,252.8,374,252.6,374.7,252.7z"/>
						<path fill="#FFFFFF" d="M381.8,253.5c0,0,0.1-0.1,0.1-0.2c1.5-1.7,1.6-4,1.5-5.3c0.2,0,0.3-0.1,0.5-0.2c0.5-0.2,1-0.5,1.5-0.8
							c1-0.7,2-1.7,2.8-3c0.6-1.1,1-2.4,1-3.9c0-3.4-3-5.5-8.5-6c-0.7,0-1.6-0.1-2.4-0.1c0.3-1.1,0.1-2.5-0.6-3.9
							c-0.5-1-1.3-2-2.4-2.9c-0.5-0.4-1.1-0.8-1.8-1.1c-1.1-0.5-2.3-0.9-3.8-1c-1-0.1-2.1-0.1-3.2,0c-7.2,0.8-9.1,5.5-9.1,8.6
							c-4.5,1.2-7.3,3.2-8.4,5.9c-1.8,4.7,2.3,10.2,4.1,12.3c0.3,0.3,0.5,0.5,0.6,0.7c0.4,1,1,1.8,1.6,2.5c1.7,1.9,4,2.3,5.8,2.3
							c2.7,0,5.4-1,7.1-1.8c1.1,4.3,0.1,10.1-1,14.4c0.9,0.1,1.8,0.2,2.7,0.3c0.1-0.4,0.2-0.9,0.3-1.3c0,0.4,0,0.9,0,1.4
							c0.9,0.1,1.8,0.2,2.7,0.3c0.4-9,1.6-13.5,2.3-15.2C378.1,255.5,380.4,254.9,381.8,253.5z M370.4,253.1
							c-0.1-0.3-0.4-0.6-0.9-0.7c-0.1,0-0.2,0-0.4,0c-0.3,0-0.6,0.1-0.8,0.2c-1,0.6-4.2,2.3-7.1,2.3c-2.3,0-4-1.1-4.9-3.5
							c0-0.1-0.1-0.2-0.2-0.3c0,0-6.3-6.3-4.4-11.1c0.8-2.2,3.4-3.7,7.5-4.7c0.6-0.1,1-0.6,1-1.2c0-0.2-0.7-6.2,6.8-7.1
							c5.6-0.7,7.9,2.7,8.4,3.7c0.7,1.4,0.7,2.9,0,3.5c-0.4,0.3-0.5,0.8-0.2,1.2c0.2,0.4,0.8,0.7,1.3,0.6c0,0,0.7,0,1.8,0
							c3.1,0,8.4,0.5,8.4,3.9c0,5-4.8,6.2-5,6.2c-0.7,0.1-1.1,0.7-1,1.3c0.2,0.8,0.4,3.3-0.9,4.6c-0.9,0.9-2.6,1.1-5,0.6
							c-0.6-0.1-1.3,0.1-1.6,0.6c0,0.1-0.8,1.6-1.6,5.4C371.5,256.7,371.1,254.8,370.4,253.1z"/>
					</g>
					<g>
						<g>
							<polygon fill="#ED145B" points="393.7,157.7 393.7,160.6 391,161.7 391,164.1 401.8,167.2 401.9,160.2 							"/>
							<polygon fill="#ED145B" points="347,146.6 359,140.3 393.7,152 393.7,144.9 359.7,133.9 347,139.5 347,140.9 322.4,133.6 
								322.4,140.7 347,148 							"/>
							<polygon fill="#ED145B" points="401.9,168.9 401.7,176 409.1,177.7 409.1,171.3 							"/>
						</g>
						<polygon fill="#ED145B" points="316.4,136.6 316.4,143.6 321.3,140.9 321.3,133.9 						"/>
						<g>
							<polygon fill="#ED145B" points="288.8,129.1 288.8,136.2 315.3,143.7 315.3,136.6 							"/>
						</g>
						<g>
							<polygon fill="#ED145B" points="270.7,140.1 270.7,147.3 287.7,136.5 287.7,129.4 							"/>
						</g>
						<polygon fill="#ED145B" points="254.6,134.1 254.6,141.1 269.6,147.3 269.6,140.2 						"/>
						<g>
							<polygon fill="#ED145B" points="231.4,149.6 231.4,156.7 253.4,141.4 253.4,134.3 							"/>
						</g>
					</g>
					<g>
						<g>
							<polygon fill="#ED145B" points="391,155.2 391,162.3 401.8,165.5 401.9,158.5 							"/>
							<polygon fill="#ED145B" points="347,144.9 358.5,138.7 393.7,150.3 393.7,143.2 357.5,131.5 347,137.8 347,139.2 
								322.4,131.9 322.4,139 347,146.3 							"/>
							<polygon fill="#ED145B" points="401.9,167.3 401.7,174.3 409.1,176.1 409.1,169 							"/>
						</g>
						<polygon fill="#ED145B" points="316.4,134.8 316.4,141.9 321.3,139.2 321.3,132.2 						"/>
						<g>
							<polygon fill="#ED145B" points="288.8,127.4 288.8,134.5 315.3,142 315.3,134.9 							"/>
						</g>
						<g>
							<polygon fill="#ED145B" points="270.7,138.4 270.7,145.6 287.7,134.8 287.7,127.7 							"/>
						</g>
						<polygon fill="#ED145B" points="254.6,132.4 254.6,139.4 269.6,145.6 269.6,138.5 						"/>
						<g>
							<polygon fill="#ED145B" points="231.4,147.9 231.4,155 253.4,139.7 253.4,132.6 							"/>
						</g>
					</g>
				</g>
			</g>
		</g>
	</g>
</g>
<rect x="232.8" y="260.2" fill="#302C4E" width="14.8" height="17.3"/>
<polygon fill="#302C4E" points="242,272.3 242,284.9 233.7,284.9 233.7,307.8 394.4,307.8 394.4,300.5 408.2,300.5 408.2,320.4 
	219.8,320.4 219.8,272.3 "/>
<g>
	<path fill="#FFFFFF" d="M304.2,314.4v-2.9h1.2v2.9l2.3-2.9h1.3l-2.4,2.9l2.6,3.1h-1.4l-2.5-3.1v3.1h-1.2L304.2,314.4l-2.5,3.1h-1.4
		l2.6-3.1l-2.4-2.9h1.3L304.2,314.4z"/>
	<path fill="#FFFFFF" d="M311.5,311.4v3.1c0,0.3,0,0.9-0.1,1.6l3-4.7h1.5v6h-1.2v-3c0-0.1,0-0.4,0-0.8c0-0.4,0-0.6,0-0.8l-3,4.7
		h-1.5v-6L311.5,311.4L311.5,311.4z"/>
	<path fill="#FFFFFF" d="M322.8,317.4h-1.3v-5h-1.6c-0.1,1.3-0.2,2.3-0.4,3c-0.1,0.7-0.4,1.2-0.7,1.6c-0.3,0.3-0.6,0.5-1.1,0.5
		c-0.3,0-0.5,0-0.7-0.1v-1c0.1,0,0.2,0.1,0.4,0.1c0.3,0,0.6-0.4,0.9-1.2c0.2-0.8,0.4-2.1,0.5-3.8h4L322.8,317.4L322.8,317.4z"/>
	<path fill="#FFFFFF" d="M330,314.4c0,1-0.2,1.7-0.7,2.3c-0.5,0.5-1.2,0.8-2.1,0.8c-0.5,0-1-0.1-1.5-0.4c-0.4-0.2-0.7-0.6-1-1.1
		c-0.2-0.5-0.3-1-0.3-1.6c0-1,0.2-1.7,0.7-2.3s1.2-0.8,2.1-0.8c0.9,0,1.5,0.3,2.1,0.8C329.7,312.7,330,313.5,330,314.4z
		 M325.6,314.4c0,1.4,0.5,2.1,1.5,2.1c1,0,1.5-0.7,1.5-2.1s-0.5-2.1-1.5-2.1c-0.5,0-0.9,0.2-1.2,0.5
		C325.7,313.3,325.6,313.8,325.6,314.4z"/>
	<path fill="#FFFFFF" d="M332.7,311.4v3.1c0,0.3,0,0.9-0.1,1.6l3-4.7h1.5v6h-1.2v-3c0-0.1,0-0.4,0-0.8c0-0.4,0-0.6,0-0.8l-3,4.7
		h-1.5v-6L332.7,311.4L332.7,311.4z M334.3,310.7c-0.7,0-1.3-0.1-1.7-0.4c-0.3-0.3-0.5-0.7-0.6-1.4h1.1c0,0.2,0,0.4,0.1,0.6
		s0.2,0.2,0.3,0.3s0.3,0.1,0.7,0.1c0.3,0,0.6-0.1,0.8-0.2c0.2-0.1,0.3-0.4,0.3-0.8h1.2c0,0.6-0.3,1.1-0.6,1.4
		C335.6,310.5,335.1,310.7,334.3,310.7z"/>
	<path fill="#FFFFFF" d="M345.7,311.4h1.4l-2.5,2.9l2.7,3.1h-1.5l-2.6-3.1v3.1h-1.3v-6h1.3v2.9L345.7,311.4z"/>
</g>
<g>
	<path fill="#FFFFFF" d="M353.5,314.4c0,1-0.2,1.7-0.7,2.3c-0.5,0.5-1.2,0.8-2.1,0.8c-0.5,0-1-0.1-1.5-0.4c-0.4-0.2-0.7-0.6-1-1.1
		c-0.2-0.5-0.3-1-0.3-1.6c0-1,0.2-1.7,0.7-2.3s1.2-0.8,2.1-0.8c0.9,0,1.5,0.3,2.1,0.8C353.2,312.7,353.5,313.5,353.5,314.4z
		 M349,314.4c0,1.4,0.5,2.1,1.5,2.1c1,0,1.5-0.7,1.5-2.1s-0.5-2.1-1.5-2.1c-0.5,0-0.9,0.2-1.2,0.5C349.2,313.3,349,313.8,349,314.4z
		"/>
	<path fill="#FFFFFF" d="M358.4,316.3l0-0.2c0.1-0.5,0.3-0.9,0.4-1.2l1.3-3.3h1.7v6h-1.2v-4.9l-0.1,0.3c-0.1,0.6-0.3,1-0.4,1.3
		l-1.3,3.2h-1l-1.3-3.3c-0.2-0.5-0.3-1-0.5-1.6v4.9h-1.2v-6h1.7l1.3,3.2C358,314.9,358.2,315.5,358.4,316.3z"/>
	<path fill="#FFFFFF" d="M369,311.4v6h-1.2v-5h-2.7v5h-1.3v-6H369z"/>
	<path fill="#FFFFFF" d="M375.8,317.4h-1.3v-5h-1.6c-0.1,1.3-0.2,2.3-0.4,3c-0.1,0.7-0.4,1.2-0.7,1.6c-0.3,0.3-0.6,0.5-1.1,0.5
		c-0.3,0-0.5,0-0.7-0.1v-1c0.1,0,0.2,0.1,0.4,0.1c0.3,0,0.6-0.4,0.9-1.2c0.2-0.8,0.4-2.1,0.5-3.8h4L375.8,317.4L375.8,317.4z"/>
	<path fill="#FFFFFF" d="M380.3,317.6c-0.9,0-1.7-0.3-2.2-0.8c-0.5-0.5-0.8-1.3-0.8-2.2c0-1,0.2-1.7,0.7-2.3c0.5-0.5,1.1-0.8,2-0.8
		c0.8,0,1.4,0.2,1.9,0.7c0.4,0.5,0.7,1.1,0.7,2v0.7h-4c0,0.6,0.2,1,0.5,1.3c0.3,0.3,0.7,0.4,1.2,0.4c0.3,0,0.7,0,1-0.1
		s0.6-0.2,1-0.3v1c-0.3,0.1-0.6,0.2-0.9,0.3C381.2,317.5,380.7,317.6,380.3,317.6z M380.1,312.3c-0.4,0-0.7,0.1-1,0.4
		c-0.2,0.2-0.4,0.6-0.4,1.1h2.7c0-0.5-0.1-0.9-0.3-1.1C380.8,312.4,380.5,312.3,380.1,312.3z"/>
	<path fill="#FFFFFF" d="M387.8,311.4h1.4l-2.5,2.9l2.7,3.1h-1.5l-2.6-3.1v3.1h-1.3v-6h1.3v2.9L387.8,311.4z"/>
</g>
<text transform="matrix(1 0 0 1 389.3399 317.465)" fill="#FFFFFF" font-family="'OpenSans'" font-size="11.1886">с</text>
<path fill="#302C4E" d="M372.8,248c0.5-0.1,0.9-0.3,1.3-0.4C373.7,247.7,373.3,247.8,372.8,248z"/>
<rect x="242" y="259.3" fill="#ED145B" width="188.5" height="40.8"/>
<g>
	<path fill="#FFFFFF" d="M255.4,272.5c0,1.2-0.4,2.2-1.3,2.8s-2.1,1-3.7,1h-3.8v-11.9h7.8v2.6h-4.6v1.8h0.4c1.6,0,2.9,0.3,3.8,0.9
		C255,270.4,255.4,271.3,255.4,272.5z M249.9,273.9h0.4c0.6,0,1.1-0.1,1.4-0.3c0.3-0.2,0.4-0.5,0.4-1s-0.1-0.7-0.4-0.9
		c-0.3-0.2-0.8-0.3-1.4-0.3h-0.4L249.9,273.9L249.9,273.9z"/>
	<path fill="#FFFFFF" d="M268.5,270.4c0,2-0.5,3.5-1.4,4.5c-1,1-2.4,1.5-4.3,1.5c-1.8,0-3.3-0.5-4.3-1.5c-1-1-1.5-2.5-1.5-4.6
		c0-2,0.5-3.5,1.5-4.5c1-1,2.4-1.5,4.3-1.5c1.9,0,3.3,0.5,4.3,1.5C268,266.9,268.5,268.4,268.5,270.4z M260.3,270.4
		c0,2.3,0.8,3.4,2.4,3.4c0.8,0,1.4-0.3,1.8-0.8c0.4-0.5,0.6-1.4,0.6-2.6c0-1.2-0.2-2-0.6-2.6c-0.4-0.5-1-0.8-1.8-0.8
		C261.1,266.9,260.3,268.1,260.3,270.4z"/>
	<path fill="#FFFFFF" d="M280.8,276.4h-3.2v-9.3h-2.2c-0.1,1.3-0.3,2.7-0.5,4.1c-0.2,1.4-0.4,2.4-0.6,2.9c-0.2,0.5-0.4,1-0.7,1.3
		c-0.3,0.3-0.6,0.6-1.1,0.7c-0.4,0.1-0.9,0.2-1.5,0.2c-0.4,0-0.9,0-1.2-0.2v-2.5c0.3,0.1,0.6,0.1,0.8,0.1c0.3,0,0.5-0.1,0.6-0.3
		c0.1-0.2,0.3-0.6,0.4-1.2s0.3-1.6,0.5-3.1c0.2-1.5,0.4-3.1,0.6-4.8h8.2L280.8,276.4L280.8,276.4z"/>
	<path fill="#FFFFFF" d="M291.8,272.4c0,1.2-0.4,2.2-1.3,2.9c-0.8,0.7-2.1,1-3.7,1h-3.5v-11.9h3.2v4.2h0.1c1.6,0,2.9,0.3,3.8,0.9
		C291.4,270.3,291.8,271.2,291.8,272.4z M286.5,273.9h0.1c1.2,0,1.9-0.4,1.9-1.4c0-0.9-0.6-1.3-1.9-1.3h-0.1V273.9z"/>
	<path fill="#FFFFFF" d="M309.2,276.4h-15.5v-11.9h3.2v9.2h2.9v-9.2h3.1v9.2h2.9v-9.2h3.2L309.2,276.4L309.2,276.4z"/>
	<path fill="#FFFFFF" d="M311.8,264.5h2.8v5.1c0,0.5,0,1.6-0.1,3.2h0l4.7-8.4h4v11.9h-2.8v-5c0-0.7,0-1.9,0.1-3.4h0l-4.8,8.4h-3.9
		L311.8,264.5L311.8,264.5z"/>
	<path fill="#FFFFFF" d="M332.9,276.4h-7v-11.9h7v2.6H329v1.8h3.5v2.6H329v2.2h3.8V276.4z"/>
	<path fill="#FFFFFF" d="M344.4,276.4l-2.4-8.6h0c0.1,1.4,0.1,2.6,0.1,3.4v5.1h-2.8v-11.9h4.3l2.5,8.4h0l2.4-8.4h4.3v11.9h-2.9v-5.2
		c0-0.2,0-0.5,0-0.9c0-0.3,0-1.1,0.1-2.4h0l-2.4,8.5L344.4,276.4L344.4,276.4z"/>
	<path fill="#FFFFFF" d="M363.8,272.4c0,1.2-0.4,2.2-1.3,2.9c-0.8,0.7-2.1,1-3.7,1h-3.5v-11.9h3.2v4.2h0.1c1.6,0,2.9,0.3,3.8,0.9
		C363.4,270.3,363.8,271.2,363.8,272.4z M358.6,273.9h0.1c1.2,0,1.9-0.4,1.9-1.4c0-0.9-0.6-1.3-1.9-1.3h-0.1L358.6,273.9
		L358.6,273.9z M368.2,276.4h-3.2v-11.9h3.2V276.4z"/>
	<path fill="#FFFFFF" d="M375.9,276.4h-3.2v-9.3h-2.9v-2.6h9v2.6H376L375.9,276.4L375.9,276.4z"/>
	<path fill="#FFFFFF" d="M380.5,264.5h2.8v5.1c0,0.5,0,1.6-0.1,3.2h0l4.7-8.4h4v11.9h-2.8v-5c0-0.7,0-1.9,0.1-3.4h0l-4.8,8.4h-3.9
		L380.5,264.5L380.5,264.5z"/>
	<path fill="#FFFFFF" d="M394.6,276.4v-11.9h3.2v9.2h2.9v-9.2h3.1v9.2h2.9v-9.2h3.2v9.2h2.5v6.3h-3.1v-3.7H394.6z"/>
	<path fill="#FFFFFF" d="M414.2,264.5h2.8v5.1c0,0.5,0,1.6-0.1,3.2h0l4.7-8.4h4v11.9h-2.8v-5c0-0.7,0-1.9,0.1-3.4h0l-4.8,8.4h-3.9
		V264.5z"/>
	<path fill="#FFFFFF" d="M282.1,296.3h-3.2v-9.3H276v-2.6h9v2.6h-2.9V296.3z"/>
	<path fill="#FFFFFF" d="M293.9,296.3l-0.6-2.2h-3.8l-0.6,2.2h-3.5l3.9-11.9h4.3l3.9,11.9H293.9z M292.7,291.5l-0.5-1.9
		c-0.1-0.4-0.2-1-0.4-1.7c-0.1-0.7-0.3-1.2-0.3-1.5c0,0.3-0.1,0.7-0.3,1.3c-0.1,0.6-0.4,1.9-0.9,3.7L292.7,291.5L292.7,291.5z"/>
	<path fill="#FFFFFF" d="M298.7,284.5h2.8v5.1c0,0.5,0,1.6-0.1,3.2h0l4.7-8.4h4v11.9h-2.8v-5c0-0.7,0-1.9,0.1-3.4h0l-4.8,8.4h-3.9
		V284.5z M304.4,283.5c-1.3,0-2.2-0.2-2.9-0.7c-0.6-0.5-1-1.3-1.1-2.3h2.6c0,0.5,0.1,0.9,0.3,1.1s0.5,0.3,1,0.3
		c0.8,0,1.2-0.5,1.3-1.5h2.7C308.2,282.5,306.9,283.5,304.4,283.5z"/>
	<path fill="#FFFFFF" d="M323,296.3h-3.2v-4.8H316v4.8h-3.2v-11.9h3.2v4.4h3.7v-4.4h3.2V296.3z"/>
	<path fill="#FFFFFF" d="M325.5,284.5h2.8v5.1c0,0.5,0,1.6-0.1,3.2h0l4.7-8.4h4v11.9h-2.8v-5c0-0.7,0-1.9,0.1-3.4h0l-4.8,8.4h-3.9
		V284.5z"/>
	<path fill="#FFFFFF" d="M349.7,296.3h-3.2v-4.8h-3.7v4.8h-3.2v-11.9h3.2v4.4h3.7v-4.4h3.2V296.3z"/>
	<path fill="#FFFFFF" d="M357.6,286.9c-0.7,0-1.3,0.3-1.8,0.9c-0.4,0.6-0.6,1.5-0.6,2.6c0,2.3,0.8,3.4,2.6,3.4c0.5,0,1,0,1.5-0.2
		s1-0.3,1.5-0.5v2.7c-1,0.4-2.1,0.6-3.3,0.6c-1.8,0-3.2-0.5-4.1-1.5c-0.9-1-1.4-2.5-1.4-4.5c0-1.2,0.2-2.3,0.7-3.2s1.1-1.6,2-2.1
		c0.8-0.5,1.9-0.7,3.1-0.7c1.3,0,2.5,0.3,3.7,0.8l-1,2.5c-0.4-0.2-0.9-0.4-1.3-0.5C358.6,287,358.1,286.9,357.6,286.9z"/>
	<path fill="#FFFFFF" d="M373.5,296.3h-3.6l-3.5-6v6h-3.2v-11.9h3.2v5.7l3.4-5.7h3.5l-3.6,5.7L373.5,296.3z"/>
	<path fill="#FFFFFF" d="M382,296.3l-0.6-2.2h-3.8l-0.6,2.2h-3.5l3.9-11.9h4.3l3.9,11.9H382z M380.7,291.5l-0.5-1.9
		c-0.1-0.4-0.2-1-0.4-1.7c-0.1-0.7-0.3-1.2-0.3-1.5c0,0.3-0.1,0.7-0.3,1.3c-0.1,0.6-0.4,1.9-0.9,3.7L380.7,291.5L380.7,291.5z"/>
	<path fill="#FFFFFF" d="M391.3,292l-2.3,4.3h-3.6l3.2-5.2c-0.6-0.3-1-0.8-1.4-1.3c-0.3-0.5-0.5-1.1-0.5-1.8c0-2.3,1.6-3.5,4.8-3.5
		h3.9v11.9h-3.2V292H391.3L391.3,292z M392.3,286.9h-0.7c-0.5,0-0.9,0.1-1.2,0.3c-0.3,0.2-0.4,0.5-0.4,0.9c0,0.5,0.1,0.8,0.4,1.1
		c0.3,0.2,0.7,0.3,1.3,0.3h0.6L392.3,286.9L392.3,286.9z"/>
</g>
</svg>
