<?xml version="1.0" encoding="utf-8"?>
<!-- Generator: Adobe Illustrator 17.1.0, SVG Export Plug-In . SVG Version: 6.00 Build 0)  -->
<!DOCTYPE svg PUBLIC "-//W3C//DTD SVG 1.1//EN" "http://www.w3.org/Graphics/SVG/1.1/DTD/svg11.dtd">
<svg version="1.1" id="Capa_1" xmlns="http://www.w3.org/2000/svg" xmlns:xlink="http://www.w3.org/1999/xlink" x="0px" y="0px"
	 viewBox="0 0 625.6 628.4" enable-background="new 0 0 625.6 628.4" xml:space="preserve">
<path fill="#FFFDFD" d="M469,628c3,0.2,6.1,0.4,9,0.4c33.2,0,61-12,82.7-35.7c0.2-0.2,0.5-0.5,0.7-0.7c7.2-8.6,15.4-16.5,24.2-24.9
	c6.1-5.7,12.2-11.8,18.1-18.1c29.4-30.7,29.2-71-0.4-100.6l-76.6-76.6c-14.2-14.9-31.4-22.6-49.5-22.6c-17.9,0-35.3,7.7-49.9,22.4
	l-42.3,42.3c-2.9-1.6-5.9-3-8.8-4.5c-4.8-2.5-9.5-4.8-13.5-7.4c-41.1-26-78.4-60.1-113.9-103.8c-16.9-21.2-28.3-39.3-36.4-56.7
	c10.8-10,21-20.3,30.8-30.3c3.9-3.9,7.9-7.9,11.8-11.8c15.1-15.1,23-32.5,23-50.4s-7.9-35.3-23-50.4l-38-38
	c-4.3-4.3-8.6-8.8-12.9-13.1c-8.4-8.8-17.4-17.8-26-25.8C164.1,7.5,147.1,0,129.2,0c-17.8,0-35,7.4-49.9,21.7L31.6,69.4
	c-18.3,18.5-28.9,40.9-31,66.7c-3.4,41.2,8.8,79.6,18.1,104.9c22.6,61.2,56.7,118,107.1,178.8C187.1,493,261,550.9,345.3,591.6
	C377.4,606.9,420.6,625,469,628z M159.3,391.5c-47.2-56.7-78.7-109.4-99.7-165.9c-12.7-34.3-17.6-60.8-15.4-85.9
	c1.3-15.4,7.4-28.3,18.8-39.8l47-47c4.3-4.1,11.1-9.1,19.2-9.1c7.7,0,14.2,4.8,18.6,9.3c8.4,7.9,16.5,16.1,25.1,24.9
	c4.3,4.5,8.8,9,13.3,13.5l38,38c4.7,4.7,10,11.7,10,19.4c0,7.7-5.6,14.7-10,19.4c-4.1,4.1-8.1,8.1-12,12.2
	c-11.7,11.8-22.8,23.1-34.8,33.9c-0.4,0.4-0.5,0.5-0.9,0.9c-13.1,13.1-10.8,26.2-7.9,34.8c0.2,0.5,0.4,0.9,0.5,1.4
	c10,24.2,24,47.2,45.7,74.4c38.7,47.7,79.4,84.8,124.5,113.3c5.7,3.8,11.7,6.6,17.4,9.5c4.8,2.5,9.5,4.8,13.5,7.4
	c0.7,0.4,1.3,0.7,2,1.1c13.8,6.8,27.4,4.5,38.6-6.8l47.7-47.7c4.3-4.3,11.1-9.5,18.8-9.5c7.5,0,13.8,5,18.1,9.5l76.9,76.9
	c12.7,12.7,12.7,25.5-0.5,39.3c-5.2,5.6-10.9,10.9-16.9,16.7c-9,8.8-18.5,17.8-27.1,28c-13.5,14.3-29.2,21-50,21
	c-2.2,0-4.1,0-6.3-0.2c-40.9-2.7-79.1-18.6-107.6-32.3C285.5,514,216.7,460,159.3,391.5z"/>
</svg>
