<?xml version="1.0" encoding="utf-8"?>
<!-- Generator: Adobe Illustrator 17.1.0, SVG Export Plug-In . SVG Version: 6.00 Build 0)  -->
<!DOCTYPE svg PUBLIC "-//W3C//DTD SVG 1.1//EN" "http://www.w3.org/Graphics/SVG/1.1/DTD/svg11.dtd">
<svg version="1.1" id="Layer_1" xmlns="http://www.w3.org/2000/svg" xmlns:xlink="http://www.w3.org/1999/xlink" x="0px" y="0px"
	 viewBox="0 0 123.1 102.5" enable-background="new 0 0 123.1 102.5" xml:space="preserve">
<g>
	<defs>
		<rect id="SVGID_1_" width="123.1" height="102.5"/>
	</defs>
	<clipPath id="SVGID_2_">
		<use xlink:href="#SVGID_1_"  overflow="visible"/>
	</clipPath>
	<path clip-path="url(#SVGID_2_)" fill="none" stroke="#D7593E" stroke-width="3" stroke-miterlimit="1" d="M1.5,40.3
		c1.6,21.1,44.6,13.1,44.6,13.1S16.7,66.8,16,78.8c-0.7,10.6,13.5,17.4,23.5,13.7c10-3.7,19.2-24.2,19.2-24.2s-5.9,34.9,17.6,32.6
		c27.4-2.7,3.6-38.1,3.6-38.1s16.5,8.5,25.5,7.8c9-0.7,17.9-8.9,16-17.7c-1.8-8.1-11.1-12-19.3-13.4C95.5,38.3,83.7,38,83.7,38
		s14.8-6.6,18.9-14c4.1-7.4,0.6-19.1-7.8-19.8c-4.4-0.4-8.5,2.3-11.9,5.2c-6.3,5.4-15.6,19.3-15.6,19.3s-1.4-17.7-7.7-23.4
		c-6.3-5.6-18.2-5-21.7,2.7c-3.8,8.5,4.7,21.7,4.7,21.7S-0.2,18.2,1.5,40.3z"/>
</g>
</svg>
