<?xml version="1.0" encoding="utf-8"?>
<!-- Generator: Adobe Illustrator 17.1.0, SVG Export Plug-In . SVG Version: 6.00 Build 0)  -->
<!DOCTYPE svg PUBLIC "-//W3C//DTD SVG 1.1//EN" "http://www.w3.org/Graphics/SVG/1.1/DTD/svg11.dtd">
<svg version="1.1" id="Layer_1" xmlns="http://www.w3.org/2000/svg" xmlns:xlink="http://www.w3.org/1999/xlink" x="0px" y="0px"
	 viewBox="0 0 100.4 99.2" enable-background="new 0 0 100.4 99.2" xml:space="preserve">
<g>
	<defs>
		<rect id="SVGID_1_" y="0" width="100.4" height="99.2"/>
	</defs>
	<clipPath id="SVGID_2_">
		<use xlink:href="#SVGID_1_"  overflow="visible"/>
	</clipPath>
	<path clip-path="url(#SVGID_2_)" fill="none" stroke="#D7593E" stroke-width="3" stroke-miterlimit="10" d="M99.5,83.4
		c-17.8,13.4-42.4,18.4-63.2,10.5C15.5,86-0.1,64.3,1.6,42.1C3.3,19.9,24,0.1,46.2,1.6C52.2,2,58,3.7,63.4,6.2
		c11.6,5.2,22.1,14.1,26.9,25.9c4.8,11.8,3,26.6-6.2,35.4c-12.3,11.8-33.7,8.9-46.5-2.4c-4.7-4.2-8.7-9.7-8.8-16
		c-0.1-7.6,5.8-14.2,12.7-17.5c6.5-3.2,15-3.8,20.5,1c5.5,4.7,4.6,15.7-2.4,17.5"/>
</g>
</svg>
