<?xml version="1.0" encoding="utf-8"?>
<!-- Generator: Adobe Illustrator 16.0.0, SVG Export Plug-In . SVG Version: 6.00 Build 0)  -->
<!DOCTYPE svg PUBLIC "-//W3C//DTD SVG 1.1//EN" "http://www.w3.org/Graphics/SVG/1.1/DTD/svg11.dtd">
<svg version="1.1" id="Слой_1" xmlns="http://www.w3.org/2000/svg" xmlns:xlink="http://www.w3.org/1999/xlink" x="0px" y="0px"
	 width="201.777px" height="197px" viewBox="0 0 201.777 197" enable-background="new 0 0 201.777 197" xml:space="preserve">
<rect x="6.32" y="4.856" fill="#CFE9EF" width="10.854" height="10.854"/>
<path fill="#FFFFFF" d="M17.043,15.58H6.45V4.987h10.593V15.58z M17.305,4.726H6.19V15.84h11.114V4.726z"/>
<rect x="17.435" y="4.856" fill="#CFE9EF" width="10.854" height="10.854"/>
<path fill="#FFFFFF" d="M28.158,15.58H17.565V4.987h10.593V15.58z M28.418,4.726H17.306V15.84h11.112V4.726z"/>
<rect x="28.55" y="4.856" fill="#CFE9EF" width="10.854" height="10.854"/>
<path fill="#FFFFFF" d="M39.272,15.58H28.68V4.987h10.593V15.58z M39.533,4.726H28.42V15.84h11.113V4.726z"/>
<rect x="39.718" y="4.856" fill="#CFE9EF" width="10.854" height="10.854"/>
<path fill="#FFFFFF" d="M50.441,15.58H39.849V4.987h10.593V15.58z M50.702,4.726H39.59V15.84h11.112V4.726z"/>
<rect x="50.832" y="4.856" fill="#CFE9EF" width="10.854" height="10.854"/>
<path fill="#FFFFFF" d="M61.556,15.58H50.962V4.987h10.594V15.58z M61.816,4.726H50.702V15.84h11.114V4.726z"/>
<rect x="61.946" y="4.856" fill="#CFE9EF" width="10.854" height="10.854"/>
<path fill="#FFFFFF" d="M72.67,15.58H62.076V4.987H72.67V15.58z M72.931,4.726H61.816V15.84h11.114V4.726z"/>
<rect x="6.32" y="15.971" fill="#CFE9EF" width="10.854" height="10.854"/>
<path fill="#FFFFFF" d="M17.043,26.694H6.45V16.1h10.593V26.694z M17.305,15.841H6.19v11.114h11.114V15.841z"/>
<rect x="17.435" y="15.971" fill="#CFE9EF" width="10.854" height="10.854"/>
<path fill="#FFFFFF" d="M28.158,26.694H17.565V16.1h10.593V26.694z M28.418,15.841H17.306v11.114h11.112V15.841z"/>
<rect x="28.55" y="15.971" fill="#CFE9EF" width="10.854" height="10.854"/>
<path fill="#FFFFFF" d="M39.272,26.694H28.68V16.1h10.593V26.694z M39.533,15.841H28.42v11.114h11.113V15.841z"/>
<rect x="39.718" y="15.971" fill="#CFE9EF" width="10.854" height="10.854"/>
<path fill="#FFFFFF" d="M50.441,26.694H39.849V16.1h10.593V26.694z M50.702,15.841H39.59v11.114h11.112V15.841z"/>
<rect x="50.832" y="15.971" fill="#CFE9EF" width="10.854" height="10.854"/>
<path fill="#FFFFFF" d="M61.556,26.694H50.962V16.1h10.594V26.694z M61.816,15.841H50.702v11.114h11.114V15.841z"/>
<rect x="61.946" y="15.971" fill="#CFE9EF" width="10.854" height="10.854"/>
<path fill="#FFFFFF" d="M72.67,26.694H62.076V16.1H72.67V26.694z M72.931,15.841H61.816v11.114h11.114V15.841z"/>
<rect x="6.32" y="27.075" fill="#CFE9EF" width="10.854" height="10.853"/>
<path fill="#FFFFFF" d="M17.043,37.798H6.45V27.205h10.593V37.798z M17.305,26.944H6.19v11.112h11.114V26.944z"/>
<rect x="17.435" y="27.075" fill="#CFE9EF" width="10.854" height="10.853"/>
<path fill="#FFFFFF" d="M28.158,37.798H17.565V27.205h10.593V37.798z M28.418,26.944H17.306v11.112h11.112V26.944z"/>
<rect x="28.55" y="27.075" fill="#CFE9EF" width="10.854" height="10.853"/>
<path fill="#FFFFFF" d="M39.272,37.798H28.68V27.205h10.593V37.798z M39.533,26.944H28.42v11.112h11.113V26.944z"/>
<rect x="39.718" y="27.075" fill="#CFE9EF" width="10.854" height="10.853"/>
<path fill="#FFFFFF" d="M50.441,37.798H39.849V27.205h10.593V37.798z M50.702,26.944H39.59v11.112h11.112V26.944z"/>
<rect x="50.832" y="27.075" fill="#CFE9EF" width="10.854" height="10.853"/>
<path fill="#FFFFFF" d="M61.556,37.798H50.962V27.205h10.594V37.798z M61.816,26.944H50.702v11.112h11.114V26.944z"/>
<rect x="61.946" y="27.075" fill="#CFE9EF" width="10.854" height="10.853"/>
<path fill="#FFFFFF" d="M72.67,37.798H62.076V27.205H72.67V37.798z M72.931,26.944H61.816v11.112h11.114V26.944z"/>
<rect x="6.32" y="38.188" fill="#CFE9EF" width="10.854" height="10.854"/>
<path fill="#FFFFFF" d="M17.043,48.912H6.45V38.319h10.593V48.912z M17.305,38.058H6.19v11.114h11.114V38.058z"/>
<rect x="17.435" y="38.188" fill="#CFE9EF" width="10.854" height="10.854"/>
<path fill="#FFFFFF" d="M28.158,48.912H17.565V38.319h10.593V48.912z M28.418,38.058H17.306v11.114h11.112V38.058z"/>
<rect x="28.55" y="38.188" fill="#CFE9EF" width="10.854" height="10.854"/>
<path fill="#FFFFFF" d="M39.272,48.912H28.68V38.319h10.593V48.912z M39.533,38.058H28.42v11.114h11.113V38.058z"/>
<rect x="39.718" y="38.188" fill="#CFE9EF" width="10.854" height="10.854"/>
<path fill="#FFFFFF" d="M50.441,48.912H39.849V38.319h10.593V48.912z M50.702,38.058H39.59v11.114h11.112V38.058z"/>
<rect x="50.832" y="38.188" fill="#CFE9EF" width="10.854" height="10.854"/>
<path fill="#FFFFFF" d="M61.556,48.912H50.962V38.319h10.594V48.912z M61.816,38.058H50.702v11.114h11.114V38.058z"/>
<rect x="61.946" y="38.188" fill="#CFE9EF" width="10.854" height="10.854"/>
<path fill="#FFFFFF" d="M72.67,48.912H62.076V38.319H72.67V48.912z M72.931,38.058H61.816v11.114h11.114V38.058z"/>
<rect x="6.32" y="49.237" fill="#CFE9EF" width="10.854" height="10.321"/>
<path fill="#FFFFFF" d="M17.043,59.43H6.45V49.368h10.593V59.43z M17.305,49.107H6.19V59.69h11.114V49.107z"/>
<rect x="17.435" y="49.237" fill="#CFE9EF" width="10.854" height="10.321"/>
<path fill="#FFFFFF" d="M28.158,59.43H17.565V49.368h10.593V59.43z M28.418,49.107H17.306V59.69h11.112V49.107z"/>
<rect x="28.55" y="49.237" fill="#CFE9EF" width="10.854" height="10.321"/>
<path fill="#FFFFFF" d="M39.272,59.43H28.68V49.368h10.593V59.43z M39.533,49.107H28.42V59.69h11.113V49.107z"/>
<rect x="39.718" y="49.237" fill="#CFE9EF" width="10.854" height="10.321"/>
<path fill="#FFFFFF" d="M50.441,59.43H39.849V49.368h10.593V59.43z M50.702,49.107H39.59V59.69h11.112V49.107z"/>
<rect x="50.832" y="49.237" fill="#CFE9EF" width="10.854" height="10.321"/>
<path fill="#FFFFFF" d="M61.556,59.43H50.962V49.368h10.594V59.43z M61.816,49.107H50.702V59.69h11.114V49.107z"/>
<rect x="61.946" y="49.237" fill="#CFE9EF" width="10.854" height="10.321"/>
<path fill="#FFFFFF" d="M72.67,59.43H62.076V49.368H72.67V59.43z M72.931,49.107H61.816V59.69h11.114V49.107z"/>
<polyline fill="#2E2D4B" points="185.361,197 185.361,177.25 201.694,177.25 201.694,197 "/>
<rect x="185.361" y="84.374" fill="#2E2D4B" width="16.333" height="38.042"/>
<rect x="185.361" fill="#2E2D4B" width="16.333" height="29.083"/>
<rect x="4.61" fill="#2E2D4B" width="188.917" height="5.25"/>
<rect x="17.82" y="191.5" fill="#2E2D4B" width="182.457" height="5.5"/>
<rect x="21.568" y="105.563" fill="#2E2D4B" width="15.042" height="3.625"/>
<rect x="0.002" y="105.561" fill="#2E2D4B" width="23.318" height="6.302"/>
<rect y="96.909" fill="#2E2D4B" width="6.302" height="11.472"/>
<rect x="3.277" y="56.083" fill="#2E2D4B" width="21.167" height="3.625"/>
<rect x="64.424" y="86.708" fill="#2E2D4B" width="3.625" height="20.667"/>
<rect x="86.277" y="92.354" fill="#2E2D4B" width="88.583" height="3.625"/>
<rect x="1.86" fill="#2E2D4B" width="5.5" height="68.837"/>
<rect x="17.82" y="106.222" fill="#2E2D4B" width="5.5" height="90.777"/>
<rect x="64.424" y="92.354" fill="#2E2D4B" width="22.687" height="7"/>
<rect x="169.924" y="92.354" fill="#2E2D4B" width="22.687" height="7"/>
<rect x="46.467" y="56.083" fill="#2E2D4B" width="28.654" height="3.625"/>
<rect x="71.496" y="5.25" fill="#2E2D4B" width="3.625" height="52.646"/>
<rect x="64.424" y="57.896" fill="#2E2D4B" width="3.625" height="4.958"/>
<rect x="88.944" y="4.354" fill="#2E2D4B" width="2.25" height="23.646"/>
<rect x="74.361" y="25.583" fill="#2E2D4B" width="16.833" height="2.417"/>
<rect x="74.361" y="18.75" fill="#2E2D4B" width="16.833" height="2.417"/>
<rect x="78.777" y="19.958" fill="#2E2D4B" width="2.417" height="6.833"/>
<rect x="185.277" y="122.416" fill="#A5D5E7" width="16.5" height="54.833"/>
<rect x="190.959" y="122.416" fill="#62AAC3" width="5.135" height="54.833"/>
<rect x="185.277" y="29.083" fill="#A5D5E7" width="16.5" height="55.292"/>
<rect x="190.959" y="29.083" fill="#62AAC3" width="5.135" height="55.292"/>
<rect x="75.121" y="5.25" fill="#D7D8D5" width="13.823" height="13.5"/>
<rect x="75.121" y="21.166" fill="#D7D8D5" width="3.656" height="4.417"/>
<rect x="81.194" y="21.166" fill="#D7D8D5" width="7.75" height="4.417"/>
<rect x="64.424" y="84.458" fill="#E3004F" width="3.125" height="2.25"/>
<rect x="72.653" y="64.597" transform="matrix(-0.7071 -0.7071 0.7071 -0.7071 71.7104 183.1067)" fill="#E3004F" width="2.25" height="24.21"/>
<rect x="1.59" y="94.659" fill="#E3004F" width="3.125" height="2.25"/>
<rect x="9.819" y="74.798" transform="matrix(-0.7071 -0.7071 0.7071 -0.7071 -42.7673 156.0909)" fill="#E3004F" width="2.25" height="24.21"/>
<rect x="24.444" y="57.458" fill="#E3004F" width="3.125" height="2.25"/>
<rect x="32.674" y="55.36" transform="matrix(-0.7071 0.7071 -0.7071 -0.7071 105.4027 91.2695)" fill="#E3004F" width="2.25" height="24.209"/>
<rect x="91.193" y="5.25" fill="#B2D3DC" width="21.387" height="17.107"/>
<path fill="#FFFFFF" d="M108.263,8.154h-6.104h-0.771h-8.604v0.491h7.052c-0.311,0.219-0.569,0.5-0.769,0.825h-6.283v0.491h6.047
	c-0.094,0.26-0.151,0.536-0.162,0.825h-5.885v0.49h5.875v0.824h-5.875v0.492h5.875v0.824h-5.875v0.492h5.875v0.823h-5.875v0.491
	h5.875v0.826h-5.875v0.49h5.875v0.824h-5.875v0.491h5.885c0.011,0.289,0.068,0.564,0.162,0.824h-6.047v0.493h6.283
	c0.199,0.323,0.458,0.605,0.769,0.823h-7.052v0.49h8.604h0.771h6.104c1.501,0,2.729-1.228,2.729-2.729v-6.875
	C110.991,9.384,109.764,8.154,108.263,8.154"/>
<path fill="#62A9C4" d="M106.86,5.25h-4.333v2.904h1.666v2.843c0,0.154,0.127,0.28,0.282,0.28h0.438c0.154,0,0.28-0.126,0.28-0.28
	V8.154h1.667V5.25z"/>
<path fill="#FFFFFF" d="M104.093,6.704c0,0.269-0.217,0.484-0.484,0.484s-0.485-0.216-0.485-0.484c0-0.268,0.218-0.483,0.485-0.483
	S104.093,6.437,104.093,6.704"/>
<path fill="#FFFFFF" d="M106.265,6.704c0,0.269-0.218,0.484-0.484,0.484c-0.268,0-0.485-0.216-0.485-0.484
	c0-0.268,0.218-0.483,0.485-0.483C106.047,6.221,106.265,6.437,106.265,6.704"/>
<rect x="128.977" y="5.25" fill="#B2D3DC" width="15.25" height="2.905"/>
<rect x="128.977" y="8.155" fill="#62A9C4" width="15.25" height="14.202"/>
<rect x="130.477" y="23.017" fill="#62A9C4" width="12.25" height="0.929"/>
<path fill="#FFFFFF" d="M139.936,14.031c-1.327,0-2.406-1.079-2.406-2.405c0-1.327,1.079-2.406,2.406-2.406
	c1.325,0,2.404,1.079,2.404,2.406C142.34,12.952,141.261,14.031,139.936,14.031 M139.936,9.97c-0.913,0-1.656,0.743-1.656,1.656
	s0.743,1.655,1.656,1.655s1.654-0.742,1.654-1.655S140.849,9.97,139.936,9.97"/>
<path fill="#FFFFFF" d="M139.936,12.875c-0.689,0-1.25-0.561-1.25-1.25c0-0.688,0.561-1.25,1.25-1.25c0.688,0,1.25,0.563,1.25,1.25
	C141.186,12.314,140.623,12.875,139.936,12.875 M139.936,11.125c-0.275,0-0.5,0.225-0.5,0.5c0,0.276,0.225,0.5,0.5,0.5
	c0.273,0,0.5-0.224,0.5-0.5C140.436,11.35,140.209,11.125,139.936,11.125"/>
<path fill="#FFFFFF" d="M139.936,19.604c-0.908,0-1.646-0.738-1.646-1.646c0-0.908,0.738-1.646,1.646-1.646
	c0.906,0,1.646,0.738,1.646,1.646C141.582,18.866,140.842,19.604,139.936,19.604 M139.936,17.063c-0.494,0-0.896,0.402-0.896,0.896
	s0.402,0.896,0.896,0.896c0.493,0,0.896-0.401,0.896-0.896S140.429,17.063,139.936,17.063"/>
<path fill="#FFFFFF" d="M139.936,21.292c-1.838,0-3.334-1.495-3.334-3.334c0-1.837,1.496-3.333,3.334-3.333s3.333,1.496,3.333,3.333
	C143.269,19.797,141.773,21.292,139.936,21.292 M139.936,15.375c-1.426,0-2.584,1.159-2.584,2.583c0,1.426,1.158,2.584,2.584,2.584
	c1.424,0,2.583-1.158,2.583-2.584C142.519,16.534,141.359,15.375,139.936,15.375"/>
<path fill="#FFFFFF" d="M133.268,16.48c1.326,0,2.405,1.079,2.405,2.405c0,1.327-1.079,2.406-2.405,2.406s-2.405-1.079-2.405-2.406
	C130.862,17.56,131.941,16.48,133.268,16.48 M133.268,20.542c0.913,0,1.655-0.743,1.655-1.656s-0.742-1.656-1.655-1.656
	s-1.655,0.743-1.655,1.656S132.354,20.542,133.268,20.542"/>
<path fill="#FFFFFF" d="M133.268,17.636c0.688,0,1.25,0.562,1.25,1.25c0,0.689-0.563,1.25-1.25,1.25c-0.689,0-1.25-0.561-1.25-1.25
	C132.018,18.197,132.578,17.636,133.268,17.636 M133.268,19.386c0.273,0,0.5-0.224,0.5-0.5c0-0.275-0.227-0.5-0.5-0.5
	c-0.275,0-0.5,0.225-0.5,0.5C132.768,19.162,132.992,19.386,133.268,19.386"/>
<path fill="#FFFFFF" d="M133.268,10.906c0.907,0,1.646,0.739,1.646,1.646c0,0.909-0.739,1.646-1.646,1.646s-1.646-0.737-1.646-1.646
	C131.621,11.646,132.36,10.906,133.268,10.906 M133.268,13.448c0.493,0,0.896-0.401,0.896-0.896c0-0.493-0.403-0.896-0.896-0.896
	c-0.494,0-0.896,0.402-0.896,0.896C132.371,13.047,132.773,13.448,133.268,13.448"/>
<path fill="#FFFFFF" d="M133.268,9.219c1.838,0,3.334,1.496,3.334,3.334s-1.496,3.333-3.334,3.333c-1.839,0-3.333-1.495-3.333-3.333
	S131.429,9.219,133.268,9.219 M133.268,15.136c1.425,0,2.584-1.158,2.584-2.583s-1.159-2.584-2.584-2.584s-2.583,1.159-2.583,2.584
	S131.843,15.136,133.268,15.136"/>
<rect x="133.352" y="22.358" fill="#B2D3DC" width="1.48" height="0.658"/>
<rect x="138.371" y="22.358" fill="#B2D3DC" width="1.481" height="0.658"/>
<rect x="160.459" y="5.25" fill="#B2D3DC" width="16.938" height="17.107"/>
<path fill="#62A9C4" d="M160.464,22.829c0.016,0.615,0.397,1.115,0.87,1.115h15.188c0.472,0,0.854-0.5,0.87-1.115H160.464z"/>
<rect x="112.58" y="5.25" fill="#CFE9EF" width="16.396" height="17.107"/>
<rect x="144.227" y="5.25" fill="#CFE9EF" width="16.238" height="17.107"/>
<rect x="177.396" y="5.25" fill="#CFE9EF" width="7.964" height="17.107"/>
<rect x="48.932" y="5.25" fill="#62A9C4" width="22.611" height="50.833"/>
<path fill="#FFFFFF" d="M58.116,12.447h0.52c0.105-0.477,0.467-0.839,0.943-0.944v-0.519C58.824,11.099,58.231,11.691,58.116,12.447
	"/>
<path fill="#FFFFFF" d="M59.162,12.447h0.418v-0.418C59.387,12.104,59.235,12.254,59.162,12.447"/>
<path fill="#FFFFFF" d="M58.636,12.974h-0.521c0.115,0.756,0.709,1.349,1.465,1.463v-0.52C59.103,13.812,58.74,13.45,58.636,12.974"
	/>
<path fill="#FFFFFF" d="M59.58,13.392v-0.418h-0.419C59.236,13.166,59.387,13.317,59.58,13.392"/>
<path fill="#FFFFFF" d="M60.105,12.029v0.418h0.418C60.448,12.255,60.299,12.104,60.105,12.029"/>
<path fill="#FFFFFF" d="M60.523,12.974h-0.418v0.418C60.299,13.316,60.449,13.166,60.523,12.974"/>
<path fill="#FFFFFF" d="M69.308,11.178c0-1.368-1.119-2.487-2.486-2.487H53.652c-1.368,0-2.486,1.119-2.486,2.487v31.727
	c0,0.174,0.02,0.346,0.055,0.511c-0.035,0.322-0.055,0.648-0.055,0.979c0,5.01,4.061,9.071,9.07,9.071
	c5.011,0,9.071-4.062,9.071-9.071c0-0.33-0.021-0.656-0.054-0.979c0.035-0.165,0.054-0.337,0.054-0.511V11.178z M63.02,12.974
	h-0.925c-0.122,1.044-0.945,1.866-1.989,1.988v0.926H59.58v-0.926c-1.045-0.122-1.867-0.944-1.989-1.988h-0.925v-0.526h0.925
	c0.122-1.044,0.944-1.867,1.989-1.989V9.533h0.525v0.925c1.044,0.122,1.867,0.945,1.989,1.989h0.925V12.974z"/>
<path fill="#FFFFFF" d="M60.105,10.984v0.521c0.478,0.104,0.838,0.465,0.944,0.942h0.519C61.455,11.692,60.861,11.099,60.105,10.984
	"/>
<path fill="#FFFFFF" d="M60.105,13.917v0.521c0.756-0.115,1.35-0.708,1.463-1.465H61.05C60.943,13.45,60.583,13.813,60.105,13.917"
	/>
<path fill="#62A9C4" d="M32.124,5.25v5.771v1.322v0.844c0,1.982,1.622,3.604,3.604,3.604h7.125c1.982,0,3.604-1.622,3.604-3.604
	v-0.844v-1.322V5.25H32.124z"/>
<path fill="#FFFFFF" d="M42.864,15.916h-7.146c-1.53,0-2.781-1.252-2.781-2.78v-1.833c0-1.53,1.251-2.781,2.781-2.781h7.146
	c1.529,0,2.78,1.251,2.78,2.781v1.833C45.645,14.664,44.394,15.916,42.864,15.916"/>
<path fill="#62A9C4" d="M38.082,12.159h0.363c0.073-0.334,0.326-0.587,0.66-0.661v-0.364C38.577,11.214,38.161,11.63,38.082,12.159"
	/>
<path fill="#62A9C4" d="M38.813,12.159h0.293v-0.293C38.972,11.918,38.866,12.024,38.813,12.159"/>
<path fill="#62A9C4" d="M38.445,12.527h-0.363c0.079,0.529,0.495,0.945,1.024,1.025v-0.364
	C38.772,13.114,38.52,12.861,38.445,12.527"/>
<path fill="#62A9C4" d="M39.106,12.82v-0.293h-0.293C38.865,12.662,38.972,12.769,39.106,12.82"/>
<path fill="#62A9C4" d="M39.475,11.866v0.293h0.294C39.716,12.024,39.61,11.919,39.475,11.866"/>
<path fill="#62A9C4" d="M39.768,12.527h-0.293v0.293C39.61,12.769,39.716,12.663,39.768,12.527"/>
<path fill="#62A9C4" d="M39.475,11.134v0.364c0.335,0.074,0.588,0.327,0.661,0.661H40.5C40.42,11.63,40.004,11.214,39.475,11.134"/>
<path fill="#62A9C4" d="M39.475,13.188v0.364c0.53-0.08,0.945-0.496,1.025-1.025h-0.364C40.063,12.861,39.81,13.114,39.475,13.188"
	/>
<path fill="#62A9C4" d="M18.382,25.322h-2.375c-2.476,0-4.5-2.025-4.5-4.5v-4.625c0-2.476,2.024-4.5,4.5-4.5h2.375
	c2.475,0,4.5,2.024,4.5,4.5v4.625C22.882,23.297,20.856,25.322,18.382,25.322"/>
<path fill="#FFFFFF" d="M17.992,24.249h-1.596c-2.156,0-3.911-1.755-3.911-3.91v-5.231c0-2.156,1.755-3.911,3.911-3.911h1.596
	c2.156,0,3.91,1.755,3.91,3.911v5.231C21.902,22.494,20.148,24.249,17.992,24.249 M16.396,12.196c-1.605,0-2.911,1.307-2.911,2.911
	v5.231c0,1.604,1.306,2.91,2.911,2.91h1.596c1.605,0,2.91-1.307,2.91-2.91v-5.231c0-1.604-1.305-2.911-2.91-2.911H16.396z"/>
<path fill="#62A9C4" d="M22.444,12h-10.5c-0.619,0-1.125-0.506-1.125-1.125v-4.5c0-0.619,0.506-1.125,1.125-1.125h10.5
	c0.619,0,1.125,0.506,1.125,1.125v4.5C23.569,11.494,23.063,12,22.444,12"/>
<path fill="#62A9C4" d="M18.944,13.739h-3.5c-0.271,0-0.49-0.22-0.49-0.49v-2.5c0-0.269,0.22-0.489,0.49-0.489h3.5
	c0.269,0,0.489,0.221,0.489,0.489v2.5C19.434,13.52,19.213,13.739,18.944,13.739"/>
<path fill="#FFFFFF" d="M18.141,8.625c0,0.522-0.424,0.945-0.946,0.945s-0.948-0.423-0.948-0.945c0-0.523,0.426-0.946,0.948-0.946
	S18.141,8.102,18.141,8.625"/>
<path fill="#E3004F" d="M93.991,174.831H81.048v-24.984c0-3.034,0.064-5.811,0.193-8.329c-0.797,0.97-1.786,1.981-2.97,3.035
	l-5.358,4.423l-6.617-8.135L82.5,127.639h11.491V174.831z"/>
<path fill="#2E2D4B" d="M111.643,145.041h-4.365v-8.426c0-1.022,0.022-1.959,0.065-2.809c-0.269,0.327-0.603,0.668-1.001,1.023
	l-1.808,1.491l-2.231-2.743l5.465-4.452h3.875V145.041z"/>
<path fill="#2E2D4B" d="M121.025,128.897c1.677,0,2.981,0.338,3.914,1.013s1.398,1.633,1.398,2.874c0,0.842-0.22,1.58-0.658,2.215
	c-0.439,0.635-1.134,1.188-2.085,1.66c1.176,0.668,2.005,1.333,2.487,1.997s0.725,1.381,0.725,2.15c0,1.415-0.512,2.511-1.535,3.287
	s-2.453,1.165-4.289,1.165c-1.873,0-3.306-0.379-4.3-1.138c-0.994-0.758-1.491-1.849-1.491-3.271c0-0.921,0.222-1.707,0.664-2.356
	s1.187-1.239,2.231-1.769c-0.842-0.566-1.457-1.174-1.845-1.823c-0.389-0.649-0.583-1.362-0.583-2.14
	c0-1.219,0.476-2.168,1.427-2.846C118.036,129.237,119.35,128.897,121.025,128.897 M119.132,140.676c0,0.45,0.159,0.812,0.479,1.083
	c0.319,0.272,0.762,0.408,1.327,0.408c1.277,0,1.916-0.468,1.916-1.404c0-0.355-0.14-0.705-0.419-1.05s-0.778-0.731-1.497-1.159
	c-0.646,0.341-1.108,0.684-1.388,1.028S119.132,140.291,119.132,140.676 M121.004,132c-0.37,0-0.682,0.107-0.936,0.321
	s-0.381,0.491-0.381,0.833c0,0.624,0.424,1.176,1.273,1.654c0.515-0.298,0.867-0.569,1.056-0.816s0.283-0.526,0.283-0.838
	c0-0.349-0.127-0.628-0.381-0.839C121.665,132.105,121.359,132,121.004,132"/>
<path fill="#2E2D4B" d="M132.935,141.786l0.152,0.25c-0.704,2.766-1.343,4.801-1.916,6.107h-3.037
	c0.211-1.002,0.423-2.125,0.637-3.369c0.215-1.244,0.361-2.24,0.441-2.988H132.935z"/>
<path fill="#2E2D4B" d="M141.632,134.612c0.915,0,1.74,0.213,2.477,0.637c0.737,0.426,1.311,1.025,1.721,1.802
	c0.409,0.776,0.614,1.673,0.614,2.689c0,1.777-0.535,3.143-1.605,4.093s-2.69,1.426-4.86,1.426c-1.857,0-3.374-0.287-4.55-0.86
	v-3.526c0.631,0.29,1.344,0.529,2.139,0.718c0.794,0.189,1.479,0.283,2.052,0.283c0.799,0,1.411-0.168,1.84-0.506
	s0.643-0.836,0.643-1.497c0-0.609-0.218-1.085-0.653-1.426s-1.096-0.512-1.981-0.512c-0.675,0-1.404,0.127-2.188,0.381l-1.578-0.783
	l0.6-8.404h9.078v3.582h-5.421l-0.196,2.101c0.566-0.108,0.969-0.169,1.209-0.18C141.208,134.618,141.429,134.612,141.632,134.612"
	/>
<path fill="#2E2D4B" d="M160.192,141.96h-1.753v3.081h-4.245v-3.081h-6.347v-3.156l6.617-9.678h3.975v9.623h1.753V141.96z
	 M154.194,138.749v-1.851c0-0.349,0.013-0.818,0.038-1.409c0.025-0.592,0.045-0.902,0.06-0.931h-0.12
	c-0.246,0.559-0.525,1.081-0.838,1.567l-1.764,2.623H154.194z"/>
<path fill="#2E2D4B" d="M114.36,159.31c0,0.987-0.302,1.834-0.904,2.542c-0.603,0.707-1.473,1.221-2.612,1.54v0.065
	c2.656,0.334,3.984,1.589,3.984,3.767c0,1.481-0.586,2.645-1.758,3.494c-1.173,0.849-2.8,1.273-4.883,1.273
	c-0.856,0-1.648-0.062-2.378-0.186c-0.729-0.123-1.519-0.348-2.368-0.675v-3.57c0.697,0.355,1.406,0.619,2.128,0.789
	c0.723,0.171,1.389,0.256,1.998,0.256c0.942,0,1.631-0.132,2.063-0.397c0.432-0.265,0.647-0.68,0.647-1.246
	c0-0.436-0.112-0.771-0.337-1.006c-0.227-0.236-0.588-0.415-1.089-0.534c-0.501-0.12-1.153-0.18-1.959-0.18h-0.979v-3.233h1.001
	c2.185,0,3.276-0.559,3.276-1.676c0-0.42-0.161-0.733-0.484-0.937s-0.756-0.305-1.301-0.305c-1.016,0-2.068,0.341-3.156,1.023
	l-1.785-2.874c0.842-0.579,1.703-0.994,2.585-1.241c0.882-0.246,1.893-0.37,3.031-0.37c1.647,0,2.939,0.327,3.876,0.979
	C113.892,157.263,114.36,158.164,114.36,159.31"/>
<path fill="#2E2D4B" d="M122.316,155.63c1.677,0,2.981,0.338,3.914,1.013s1.398,1.633,1.398,2.874c0,0.842-0.22,1.58-0.658,2.215
	c-0.439,0.635-1.134,1.188-2.085,1.66c1.176,0.668,2.005,1.333,2.487,1.997s0.725,1.381,0.725,2.15c0,1.415-0.512,2.511-1.535,3.287
	s-2.453,1.165-4.289,1.165c-1.873,0-3.306-0.379-4.3-1.138c-0.994-0.758-1.491-1.849-1.491-3.271c0-0.921,0.222-1.707,0.664-2.356
	s1.187-1.239,2.231-1.769c-0.842-0.566-1.457-1.174-1.845-1.823c-0.389-0.649-0.583-1.362-0.583-2.14
	c0-1.219,0.476-2.168,1.427-2.846C119.327,155.97,120.641,155.63,122.316,155.63 M120.423,167.408c0,0.45,0.159,0.812,0.479,1.083
	c0.319,0.272,0.762,0.408,1.327,0.408c1.277,0,1.916-0.468,1.916-1.404c0-0.355-0.14-0.705-0.419-1.05s-0.778-0.731-1.497-1.159
	c-0.646,0.341-1.108,0.684-1.388,1.028S120.423,167.023,120.423,167.408 M122.295,158.732c-0.37,0-0.682,0.107-0.936,0.321
	s-0.381,0.49-0.381,0.833c0,0.624,0.424,1.176,1.273,1.654c0.515-0.298,0.867-0.569,1.056-0.816s0.283-0.526,0.283-0.838
	c0-0.349-0.127-0.628-0.381-0.839C122.956,158.838,122.65,158.732,122.295,158.732"/>
<path fill="#2E2D4B" d="M134.226,168.519l0.152,0.25c-0.704,2.766-1.343,4.801-1.916,6.107h-3.037
	c0.211-1.003,0.423-2.125,0.637-3.369c0.215-1.244,0.361-2.24,0.441-2.988H134.226z"/>
<path fill="#2E2D4B" d="M147.975,163.838c0,2.815-0.473,4.879-1.415,6.188c-0.944,1.31-2.388,1.965-4.333,1.965
	c-1.901,0-3.335-0.684-4.3-2.052s-1.447-3.402-1.447-6.102c0-2.83,0.472-4.905,1.415-6.227c0.943-1.32,2.387-1.981,4.332-1.981
	c1.895,0,3.325,0.688,4.295,2.063C147.49,159.068,147.975,161.116,147.975,163.838 M140.757,163.838c0,1.8,0.112,3.037,0.338,3.712
	c0.224,0.675,0.603,1.013,1.132,1.013c0.537,0,0.916-0.349,1.137-1.045c0.223-0.697,0.332-1.924,0.332-3.68
	c0-1.764-0.111-2.999-0.337-3.707c-0.225-0.707-0.603-1.061-1.132-1.061s-0.908,0.341-1.132,1.022
	C140.869,160.775,140.757,162.023,140.757,163.838"/>
<path fill="#2E2D4B" d="M159.012,171.773h-4.365v-8.426c0-1.022,0.022-1.959,0.065-2.809c-0.269,0.327-0.603,0.668-1.001,1.023
	l-1.808,1.491l-2.231-2.743l5.465-4.452h3.875V171.773z"/>
<rect x="102.681" y="150.433" fill="#2E2D4B" width="58.897" height="1.775"/>
<path fill="#2E2D4B" d="M35.772,187.125h-2.845v-5.49c0-0.667,0.014-1.277,0.042-1.83c-0.175,0.213-0.393,0.435-0.652,0.666
	l-1.178,0.973l-1.454-1.788l3.562-2.901h2.525V187.125z"/>
<path fill="#2E2D4B" d="M41.887,176.605c1.092,0,1.942,0.22,2.551,0.659c0.607,0.44,0.911,1.064,0.911,1.873
	c0,0.549-0.143,1.029-0.429,1.443s-0.739,0.774-1.359,1.082c0.767,0.435,1.307,0.869,1.621,1.302s0.472,0.899,0.472,1.4
	c0,0.923-0.333,1.637-1,2.143s-1.599,0.759-2.795,0.759c-1.22,0-2.154-0.247-2.802-0.741s-0.972-1.204-0.972-2.132
	c0-0.601,0.144-1.112,0.433-1.535c0.288-0.424,0.773-0.808,1.454-1.153c-0.549-0.368-0.95-0.766-1.202-1.188
	c-0.253-0.424-0.38-0.888-0.38-1.395c0-0.794,0.31-1.412,0.93-1.854C39.938,176.826,40.795,176.605,41.887,176.605 M40.652,184.28
	c0,0.294,0.104,0.528,0.313,0.706s0.497,0.266,0.865,0.266c0.833,0,1.249-0.305,1.249-0.915c0-0.231-0.092-0.46-0.273-0.685
	s-0.507-0.476-0.976-0.755c-0.421,0.222-0.723,0.445-0.904,0.67S40.652,184.03,40.652,184.28 M41.873,178.627
	c-0.241,0-0.444,0.069-0.61,0.209c-0.165,0.14-0.248,0.32-0.248,0.543c0,0.406,0.276,0.766,0.83,1.078
	c0.336-0.194,0.564-0.371,0.688-0.532c0.123-0.16,0.185-0.343,0.185-0.546c0-0.228-0.083-0.409-0.248-0.546
	C42.303,178.695,42.104,178.627,41.873,178.627"/>
<path fill="#2E2D4B" d="M49.647,185.004l0.1,0.163c-0.459,1.802-0.875,3.129-1.248,3.979H46.52c0.137-0.652,0.275-1.384,0.415-2.195
	c0.14-0.811,0.235-1.46,0.287-1.947H49.647z"/>
<path fill="#2E2D4B" d="M55.315,180.329c0.596,0,1.134,0.139,1.614,0.415c0.479,0.276,0.854,0.668,1.119,1.174
	c0.269,0.507,0.402,1.091,0.402,1.752c0,1.159-0.349,2.048-1.047,2.668c-0.697,0.619-1.753,0.929-3.167,0.929
	c-1.211,0-2.199-0.187-2.965-0.561v-2.298c0.411,0.189,0.876,0.345,1.394,0.468s0.963,0.185,1.338,0.185
	c0.52,0,0.918-0.109,1.198-0.33c0.279-0.22,0.419-0.545,0.419-0.975c0-0.397-0.143-0.707-0.426-0.93
	c-0.284-0.222-0.715-0.333-1.291-0.333c-0.441,0-0.915,0.082-1.426,0.248l-1.029-0.511l0.391-5.477h5.916v2.334h-3.532l-0.128,1.369
	c0.369-0.071,0.631-0.11,0.787-0.117S55.184,180.329,55.315,180.329"/>
<path fill="#2E2D4B" d="M67.41,185.117h-1.142v2.008h-2.767v-2.008h-4.136v-2.057l4.313-6.307h2.589v6.271h1.142V185.117z
	 M63.502,183.024v-1.205c0-0.228,0.008-0.533,0.023-0.919c0.018-0.386,0.031-0.588,0.039-0.606h-0.076
	c-0.161,0.364-0.344,0.705-0.547,1.021l-1.149,1.709H63.502z"/>
<path fill="#2E2D4B" d="M148.272,86.902h-2.845v-5.49c0-0.667,0.014-1.277,0.042-1.83c-0.175,0.213-0.393,0.435-0.652,0.666
	l-1.178,0.973l-1.454-1.788l3.562-2.901h2.525V86.902z"/>
<path fill="#2E2D4B" d="M158.062,86.902h-7.526v-1.845l2.532-2.561c0.723-0.757,1.196-1.273,1.419-1.55s0.377-0.515,0.465-0.713
	c0.087-0.198,0.131-0.406,0.131-0.624c0-0.271-0.087-0.482-0.263-0.639c-0.175-0.156-0.421-0.234-0.737-0.234
	c-0.326,0-0.656,0.094-0.989,0.28c-0.334,0.188-0.711,0.463-1.132,0.826l-1.539-1.802c0.534-0.478,0.983-0.819,1.348-1.024
	c0.364-0.206,0.76-0.363,1.188-0.472c0.429-0.109,0.91-0.163,1.444-0.163c0.671,0,1.271,0.118,1.798,0.354s0.937,0.573,1.228,1.011
	s0.437,0.928,0.437,1.472c0,0.407-0.051,0.783-0.152,1.128c-0.103,0.346-0.26,0.685-0.473,1.019
	c-0.212,0.333-0.495,0.685-0.848,1.053c-0.352,0.369-1.103,1.069-2.252,2.1v0.07h3.923V86.902z"/>
<path fill="#2E2D4B" d="M162.147,84.781l0.1,0.163c-0.459,1.802-0.875,3.129-1.248,3.979h-1.979
	c0.137-0.652,0.275-1.384,0.415-2.195c0.14-0.811,0.235-1.46,0.287-1.947H162.147z"/>
<path fill="#2E2D4B" d="M171.107,81.731c0,1.835-0.307,3.179-0.923,4.032c-0.614,0.854-1.556,1.279-2.823,1.279
	c-1.238,0-2.173-0.444-2.802-1.336c-0.63-0.892-0.943-2.217-0.943-3.976c0-1.845,0.308-3.197,0.922-4.058
	c0.615-0.861,1.556-1.291,2.823-1.291c1.234,0,2.167,0.448,2.799,1.344C170.791,78.623,171.107,79.958,171.107,81.731
	 M166.404,81.731c0,1.173,0.073,1.979,0.22,2.419c0.146,0.439,0.393,0.659,0.737,0.659c0.351,0,0.598-0.227,0.741-0.681
	c0.145-0.454,0.217-1.253,0.217-2.397c0-1.149-0.073-1.955-0.22-2.416s-0.393-0.691-0.738-0.691c-0.345,0-0.591,0.223-0.737,0.667
	S166.404,80.549,166.404,81.731"/>
<path fill="#2E2D4B" d="M178.301,86.902h-2.845v-5.49c0-0.667,0.014-1.277,0.042-1.83c-0.176,0.213-0.393,0.435-0.652,0.666
	l-1.178,0.973l-1.454-1.788l3.562-2.901h2.525V86.902z"/>
<path fill="#2E2D4B" d="M24.411,44.515H23.27v2.008h-2.767v-2.008h-4.136v-2.057l4.313-6.307h2.589v6.271h1.142V44.515z
	 M20.503,42.422v-1.205c0-0.228,0.008-0.533,0.024-0.919s0.03-0.588,0.039-0.605h-0.077c-0.161,0.363-0.344,0.704-0.548,1.021
	l-1.148,1.709H20.503z"/>
<path fill="#2E2D4B" d="M28.164,44.401l0.1,0.163c-0.459,1.802-0.875,3.129-1.248,3.979h-1.979c0.137-0.652,0.274-1.384,0.415-2.195
	c0.14-0.811,0.234-1.46,0.287-1.947H28.164z"/>
<path fill="#2E2D4B" d="M35.805,46.522H32.96v-5.49c0-0.667,0.014-1.277,0.042-1.83c-0.176,0.213-0.393,0.435-0.652,0.666
	l-1.178,0.973l-1.454-1.788l3.562-2.901h2.525V46.522z"/>
<polygon fill="#2E2D4B" points="39.117,46.522 42.679,38.485 38.188,38.485 38.188,36.166 45.672,36.166 45.672,37.818 
	42.018,46.522 "/>
<path fill="#2E2D4B" d="M35.77,84.231c0,0.643-0.196,1.195-0.589,1.656s-0.96,0.796-1.702,1.004v0.042
	c1.73,0.218,2.596,1.036,2.596,2.455c0,0.965-0.382,1.724-1.146,2.276c-0.763,0.554-1.824,0.83-3.181,0.83
	c-0.559,0-1.075-0.04-1.551-0.12c-0.475-0.081-0.99-0.228-1.543-0.44v-2.326c0.454,0.231,0.917,0.403,1.387,0.515
	c0.471,0.11,0.905,0.166,1.302,0.166c0.614,0,1.063-0.086,1.345-0.259s0.422-0.444,0.422-0.813c0-0.283-0.073-0.502-0.22-0.656
	c-0.146-0.153-0.383-0.27-0.709-0.347c-0.327-0.078-0.752-0.117-1.277-0.117h-0.639V85.99h0.653c1.423,0,2.135-0.364,2.135-1.092
	c0-0.274-0.105-0.478-0.315-0.61c-0.211-0.133-0.493-0.198-0.848-0.198c-0.662,0-1.349,0.222-2.058,0.666l-1.164-1.872
	c0.55-0.379,1.111-0.648,1.686-0.809c0.575-0.161,1.232-0.241,1.976-0.241c1.073,0,1.915,0.213,2.525,0.638
	C35.465,82.897,35.77,83.484,35.77,84.231"/>
<path fill="#2E2D4B" d="M40.203,90.232l0.1,0.163c-0.459,1.802-0.875,3.129-1.248,3.979h-1.979c0.137-0.652,0.274-1.384,0.415-2.195
	c0.14-0.811,0.234-1.46,0.287-1.947H40.203z"/>
<path fill="#2E2D4B" d="M49.12,92.354h-7.526v-1.845l2.532-2.561c0.723-0.757,1.196-1.273,1.419-1.55s0.377-0.515,0.465-0.713
	c0.087-0.198,0.131-0.406,0.131-0.624c0-0.27-0.087-0.482-0.263-0.639c-0.175-0.156-0.421-0.234-0.737-0.234
	c-0.326,0-0.656,0.094-0.989,0.28c-0.334,0.188-0.711,0.463-1.132,0.826l-1.539-1.802c0.534-0.478,0.983-0.819,1.348-1.024
	c0.364-0.206,0.76-0.363,1.188-0.472c0.429-0.109,0.91-0.163,1.444-0.163c0.671,0,1.271,0.118,1.798,0.354s0.937,0.573,1.228,1.011
	s0.437,0.928,0.437,1.472c0,0.407-0.051,0.783-0.152,1.128c-0.103,0.346-0.26,0.685-0.473,1.019
	c-0.212,0.333-0.495,0.685-0.848,1.053c-0.352,0.369-1.103,1.069-2.252,2.1v0.071h3.923V92.354z"/>
<path fill="#2E2D4B" d="M57.711,86.729c0,2.028-0.438,3.497-1.313,4.405c-0.875,0.907-2.274,1.361-4.199,1.361
	c-0.634,0-1.116-0.023-1.447-0.07v-2.221c0.406,0.076,0.813,0.113,1.22,0.113c1.003,0,1.776-0.207,2.32-0.62
	c0.544-0.414,0.839-1.068,0.887-1.962h-0.085c-0.186,0.341-0.367,0.587-0.547,0.737c-0.18,0.152-0.399,0.268-0.659,0.349
	c-0.261,0.08-0.584,0.12-0.972,0.12c-0.899,0-1.602-0.3-2.107-0.9s-0.759-1.429-0.759-2.484c0-1.148,0.327-2.049,0.981-2.701
	c0.656-0.653,1.554-0.979,2.693-0.979c1.266,0,2.248,0.421,2.943,1.263S57.711,85.177,57.711,86.729 M53.803,84.118
	c-0.309,0-0.559,0.11-0.749,0.333c-0.191,0.223-0.287,0.579-0.287,1.071c0,0.388,0.083,0.696,0.248,0.926
	c0.166,0.229,0.419,0.344,0.76,0.344c0.307,0,0.574-0.111,0.8-0.333c0.229-0.223,0.342-0.489,0.342-0.802
	c0-0.421-0.105-0.783-0.315-1.085C54.39,84.27,54.124,84.118,53.803,84.118"/>
</svg>
