<?xml version="1.0" encoding="utf-8"?>
<!-- Generator: Adobe Illustrator 16.0.0, SVG Export Plug-In . SVG Version: 6.00 Build 0)  -->
<!DOCTYPE svg PUBLIC "-//W3C//DTD SVG 1.1//EN" "http://www.w3.org/Graphics/SVG/1.1/DTD/svg11.dtd">
<svg version="1.1" id="Слой_1" xmlns="http://www.w3.org/2000/svg" xmlns:xlink="http://www.w3.org/1999/xlink" x="0px" y="0px"
	 width="263.75px" height="225.399px" viewBox="0 0 263.75 225.399" enable-background="new 0 0 263.75 225.399"
	 xml:space="preserve">
<path fill="#E3004F" d="M160.465,182.632h-12.943v-24.984c0-3.035,0.064-5.811,0.193-8.329c-0.797,0.97-1.786,1.981-2.97,3.035
	l-5.358,4.423l-6.617-8.135l16.204-13.202h11.491V182.632z"/>
<path fill="#2E2D4B" d="M179.116,152.842h-4.365v-8.426c0-1.022,0.022-1.959,0.065-2.809c-0.269,0.327-0.603,0.668-1.001,1.023
	l-1.808,1.491l-2.231-2.743l5.465-4.452h3.875V152.842z"/>
<path fill="#2E2D4B" d="M194.258,144.21c0,3.113-0.671,5.366-2.014,6.76s-3.49,2.09-6.444,2.09c-0.974,0-1.713-0.036-2.221-0.109
	v-3.406c0.624,0.115,1.247,0.174,1.872,0.174c1.539,0,2.726-0.317,3.561-0.951c0.834-0.637,1.288-1.64,1.36-3.012h-0.132
	c-0.282,0.522-0.562,0.9-0.837,1.133c-0.276,0.232-0.613,0.41-1.013,0.533c-0.4,0.123-0.896,0.185-1.491,0.185
	c-1.379,0-2.456-0.46-3.233-1.382c-0.776-0.922-1.164-2.191-1.164-3.811c0-1.763,0.502-3.146,1.508-4.146
	c1.005-1.002,2.382-1.503,4.131-1.503c1.944,0,3.45,0.646,4.518,1.938C193.725,139.993,194.258,141.829,194.258,144.21
	 M188.26,140.204c-0.472,0-0.854,0.17-1.148,0.511c-0.294,0.343-0.44,0.89-0.44,1.645c0,0.595,0.127,1.068,0.381,1.42
	c0.254,0.353,0.643,0.528,1.165,0.528c0.472,0,0.882-0.171,1.229-0.512c0.349-0.341,0.522-0.751,0.522-1.23
	c0-0.646-0.161-1.2-0.484-1.665C189.162,140.436,188.754,140.204,188.26,140.204"/>
<path fill="#2E2D4B" d="M200.408,149.587l0.152,0.25c-0.704,2.766-1.343,4.801-1.916,6.107h-3.037
	c0.211-1.002,0.423-2.125,0.637-3.369c0.215-1.244,0.361-2.24,0.441-2.988H200.408z"/>
<path fill="#2E2D4B" d="M213.559,140.378c0,0.987-0.302,1.834-0.904,2.542c-0.603,0.707-1.473,1.221-2.613,1.54v0.064
	c2.657,0.335,3.985,1.59,3.985,3.768c0,1.48-0.586,2.645-1.758,3.494c-1.173,0.849-2.8,1.273-4.883,1.273
	c-0.856,0-1.648-0.062-2.378-0.186c-0.729-0.123-1.519-0.348-2.368-0.675v-3.57c0.697,0.355,1.406,0.619,2.128,0.789
	c0.723,0.171,1.389,0.256,1.998,0.256c0.943,0,1.631-0.132,2.063-0.397c0.432-0.265,0.647-0.68,0.647-1.246
	c0-0.436-0.112-0.771-0.337-1.006c-0.227-0.236-0.588-0.415-1.089-0.534c-0.501-0.12-1.153-0.18-1.959-0.18h-0.979v-3.233h1.001
	c2.185,0,3.276-0.559,3.276-1.676c0-0.421-0.161-0.733-0.484-0.937c-0.322-0.203-0.756-0.305-1.301-0.305
	c-1.016,0-2.068,0.341-3.156,1.023l-1.785-2.874c0.842-0.58,1.703-0.995,2.584-1.241c0.883-0.246,1.894-0.37,3.032-0.37
	c1.647,0,2.939,0.326,3.876,0.979C213.09,138.331,213.559,139.231,213.559,140.378"/>
<path fill="#2E2D4B" d="M227.22,144.906c0,2.815-0.473,4.879-1.415,6.188c-0.945,1.31-2.388,1.965-4.333,1.965
	c-1.901,0-3.335-0.684-4.3-2.051c-0.965-1.369-1.447-3.403-1.447-6.103c0-2.83,0.472-4.905,1.415-6.227
	c0.943-1.32,2.386-1.981,4.332-1.981c1.895,0,3.325,0.688,4.295,2.063C226.734,140.137,227.22,142.185,227.22,144.906
	 M220.002,144.906c0,1.8,0.112,3.037,0.338,3.712c0.224,0.675,0.602,1.013,1.132,1.013c0.537,0,0.916-0.349,1.138-1.045
	c0.222-0.697,0.332-1.924,0.332-3.68c0-1.764-0.112-2.999-0.338-3.707c-0.225-0.707-0.603-1.061-1.132-1.061
	c-0.53,0-0.908,0.341-1.132,1.022C220.114,141.844,220.002,143.093,220.002,144.906"/>
<path fill="#2E2D4B" d="M181.879,176.493h-1.753v3.081h-4.245v-3.081h-6.347v-3.156l6.618-9.678h3.974v9.623h1.753V176.493z
	 M175.881,173.282v-1.851c0-0.349,0.013-0.818,0.038-1.409c0.024-0.592,0.045-0.902,0.06-0.931h-0.12
	c-0.247,0.559-0.525,1.081-0.838,1.567l-1.764,2.623H175.881z"/>
<path fill="#2E2D4B" d="M182.978,172.847c0-2.221,0.317-4.019,0.953-5.394s1.57-2.39,2.808-3.043
	c1.237-0.652,2.764-0.979,4.578-0.979c0.646,0,1.4,0.063,2.264,0.186v3.363c-0.726-0.138-1.514-0.207-2.362-0.207
	c-1.437,0-2.507,0.316-3.211,0.947c-0.704,0.632-1.089,1.662-1.153,3.092h0.129c0.654-1.233,1.703-1.851,3.147-1.851
	c1.415,0,2.513,0.455,3.293,1.366c0.779,0.911,1.17,2.179,1.17,3.805c0,1.749-0.494,3.129-1.481,4.142
	c-0.986,1.013-2.365,1.519-4.136,1.519c-1.88,0-3.349-0.609-4.409-1.829C183.508,176.744,182.978,175.039,182.978,172.847
	 M188.878,176.385c0.457,0,0.829-0.172,1.115-0.517c0.287-0.345,0.431-0.895,0.431-1.649c0-1.292-0.501-1.938-1.503-1.938
	c-0.493,0-0.896,0.167-1.202,0.5c-0.309,0.334-0.463,0.74-0.463,1.22c0,0.697,0.148,1.268,0.446,1.714
	S188.392,176.385,188.878,176.385"/>
<path fill="#2E2D4B" d="M200.699,176.319l0.152,0.25c-0.704,2.766-1.343,4.801-1.916,6.107h-3.037
	c0.211-1.003,0.423-2.125,0.637-3.369c0.215-1.244,0.361-2.24,0.441-2.988H200.699z"/>
<path fill="#2E2D4B" d="M214.895,176.493h-1.753v3.081h-4.245v-3.081h-6.347v-3.156l6.618-9.678h3.974v9.623h1.753V176.493z
	 M208.896,173.282v-1.851c0-0.349,0.013-0.818,0.038-1.409c0.024-0.592,0.045-0.902,0.06-0.931h-0.12
	c-0.247,0.559-0.525,1.081-0.838,1.567l-1.764,2.623H208.896z"/>
<path fill="#2E2D4B" d="M227.511,171.639c0,2.815-0.473,4.879-1.415,6.188c-0.945,1.31-2.388,1.965-4.333,1.965
	c-1.901,0-3.335-0.684-4.3-2.051c-0.965-1.369-1.447-3.403-1.447-6.103c0-2.83,0.472-4.905,1.415-6.227
	c0.943-1.32,2.386-1.981,4.332-1.981c1.895,0,3.325,0.688,4.295,2.063C227.025,166.869,227.511,168.917,227.511,171.639
	 M220.293,171.639c0,1.8,0.112,3.037,0.338,3.712c0.224,0.675,0.602,1.013,1.132,1.013c0.537,0,0.916-0.349,1.138-1.045
	c0.222-0.697,0.332-1.924,0.332-3.68c0-1.764-0.112-2.999-0.338-3.707c-0.225-0.707-0.603-1.061-1.132-1.061
	c-0.53,0-0.908,0.341-1.132,1.022C220.405,168.576,220.293,169.825,220.293,171.639"/>
<rect x="169.155" y="158.234" fill="#2E2D4B" width="58.897" height="1.774"/>
<path fill="#2E2D4B" d="M211.714,111.453h-2.845v-5.49c0-0.667,0.014-1.277,0.042-1.83c-0.175,0.213-0.393,0.435-0.652,0.666
	l-1.178,0.973l-1.454-1.788l3.562-2.901h2.525V111.453z"/>
<path fill="#2E2D4B" d="M221.581,105.828c0,2.028-0.438,3.497-1.313,4.405c-0.875,0.907-2.274,1.361-4.2,1.361
	c-0.633,0-1.115-0.022-1.446-0.07v-2.221c0.407,0.076,0.813,0.113,1.22,0.113c1.003,0,1.776-0.207,2.32-0.62
	c0.544-0.414,0.839-1.068,0.887-1.962h-0.085c-0.185,0.341-0.367,0.587-0.547,0.738c-0.181,0.151-0.399,0.267-0.659,0.348
	c-0.261,0.08-0.584,0.12-0.972,0.12c-0.899,0-1.602-0.3-2.107-0.9s-0.759-1.429-0.759-2.483c0-1.149,0.327-2.05,0.981-2.702
	c0.656-0.653,1.554-0.979,2.693-0.979c1.267,0,2.248,0.421,2.943,1.264C221.233,103.08,221.581,104.276,221.581,105.828
	 M217.673,103.218c-0.308,0-0.558,0.11-0.749,0.333s-0.287,0.579-0.287,1.071c0,0.388,0.083,0.696,0.248,0.926
	c0.166,0.23,0.419,0.344,0.76,0.344c0.307,0,0.574-0.11,0.801-0.333c0.228-0.223,0.341-0.489,0.341-0.802
	c0-0.421-0.105-0.783-0.315-1.085C218.26,103.369,217.994,103.218,217.673,103.218"/>
<path fill="#2E2D4B" d="M225.589,109.332l0.1,0.163c-0.459,1.802-0.875,3.129-1.248,3.979h-1.979
	c0.137-0.652,0.275-1.384,0.415-2.195c0.14-0.811,0.235-1.46,0.287-1.947H225.589z"/>
<path fill="#2E2D4B" d="M234.158,103.331c0,0.643-0.196,1.195-0.589,1.656s-0.96,0.796-1.702,1.004v0.042
	c1.73,0.218,2.596,1.036,2.596,2.455c0,0.965-0.382,1.724-1.146,2.276c-0.763,0.554-1.824,0.83-3.181,0.83
	c-0.559,0-1.075-0.04-1.551-0.119c-0.475-0.081-0.99-0.229-1.543-0.441v-2.326c0.454,0.231,0.917,0.403,1.387,0.515
	c0.471,0.11,0.905,0.166,1.302,0.166c0.614,0,1.063-0.086,1.345-0.259s0.422-0.443,0.422-0.813c0-0.283-0.073-0.502-0.22-0.656
	c-0.146-0.153-0.383-0.27-0.709-0.347c-0.327-0.078-0.752-0.117-1.277-0.117h-0.639v-2.107h0.653c1.423,0,2.135-0.363,2.135-1.092
	c0-0.274-0.105-0.478-0.315-0.61c-0.211-0.133-0.493-0.198-0.848-0.198c-0.662,0-1.349,0.222-2.058,0.666l-1.164-1.872
	c0.55-0.379,1.111-0.648,1.686-0.809c0.575-0.161,1.232-0.24,1.976-0.24c1.073,0,1.915,0.212,2.525,0.637
	C233.854,101.997,234.158,102.584,234.158,103.331"/>
<path fill="#2E2D4B" d="M243.062,106.282c0,1.835-0.308,3.179-0.923,4.032c-0.614,0.854-1.556,1.279-2.823,1.279
	c-1.238,0-2.173-0.444-2.802-1.336s-0.943-2.217-0.943-3.976c0-1.845,0.308-3.197,0.922-4.058c0.615-0.861,1.555-1.291,2.823-1.291
	c1.233,0,2.167,0.448,2.799,1.344C242.745,103.174,243.062,104.509,243.062,106.282 M238.358,106.282
	c0,1.173,0.073,1.979,0.22,2.419c0.146,0.439,0.393,0.659,0.737,0.659c0.351,0,0.598-0.227,0.741-0.682
	c0.145-0.453,0.217-1.252,0.217-2.396c0-1.149-0.073-1.955-0.22-2.416s-0.393-0.691-0.738-0.691c-0.345,0-0.591,0.223-0.737,0.667
	S238.358,105.1,238.358,106.282"/>
<path fill="#2E2D4B" d="M42.201,130.155h-2.845v-5.49c0-0.667,0.014-1.277,0.042-1.83c-0.176,0.213-0.393,0.435-0.652,0.666
	l-1.178,0.973l-1.454-1.788l3.562-2.901h2.525V130.155z"/>
<path fill="#2E2D4B" d="M51.99,130.155h-7.526v-1.845l2.532-2.561c0.723-0.757,1.196-1.273,1.419-1.55
	c0.222-0.275,0.377-0.515,0.465-0.713c0.087-0.198,0.132-0.406,0.132-0.624c0-0.27-0.088-0.482-0.264-0.639
	c-0.175-0.156-0.421-0.234-0.736-0.234c-0.327,0-0.657,0.094-0.99,0.28c-0.334,0.188-0.711,0.463-1.132,0.826l-1.539-1.802
	c0.534-0.478,0.983-0.819,1.348-1.024c0.364-0.206,0.76-0.363,1.188-0.471c0.428-0.11,0.909-0.164,1.443-0.164
	c0.671,0,1.271,0.118,1.798,0.354s0.937,0.573,1.228,1.011s0.437,0.928,0.437,1.472c0,0.407-0.051,0.783-0.152,1.128
	c-0.103,0.346-0.26,0.685-0.473,1.019c-0.212,0.333-0.495,0.685-0.848,1.053c-0.352,0.369-1.103,1.069-2.252,2.1v0.071h3.923
	V130.155z"/>
<path fill="#2E2D4B" d="M56.076,128.034l0.1,0.163c-0.459,1.802-0.875,3.129-1.248,3.979h-1.979
	c0.137-0.652,0.274-1.384,0.415-2.195c0.14-0.811,0.234-1.46,0.287-1.947H56.076z"/>
<path fill="#2E2D4B" d="M65.036,124.984c0,1.835-0.308,3.179-0.923,4.032c-0.614,0.854-1.556,1.279-2.823,1.279
	c-1.238,0-2.173-0.444-2.802-1.336s-0.943-2.217-0.943-3.976c0-1.845,0.308-3.197,0.922-4.058c0.615-0.861,1.555-1.291,2.823-1.291
	c1.233,0,2.167,0.448,2.799,1.344C64.72,121.876,65.036,123.211,65.036,124.984 M60.333,124.984c0,1.173,0.073,1.979,0.22,2.419
	s0.393,0.659,0.737,0.659c0.351,0,0.598-0.227,0.741-0.681c0.145-0.454,0.217-1.252,0.217-2.397c0-1.149-0.073-1.955-0.22-2.416
	s-0.393-0.691-0.738-0.691c-0.345,0-0.591,0.223-0.737,0.667S60.333,123.802,60.333,124.984"/>
<path fill="#2E2D4B" d="M73.549,124.984c0,1.835-0.308,3.179-0.923,4.032c-0.614,0.854-1.556,1.279-2.823,1.279
	c-1.238,0-2.173-0.444-2.802-1.336c-0.63-0.892-0.943-2.217-0.943-3.976c0-1.845,0.308-3.197,0.922-4.058
	c0.615-0.861,1.555-1.291,2.823-1.291c1.234,0,2.167,0.448,2.799,1.344C73.232,121.876,73.549,123.211,73.549,124.984
	 M68.846,124.984c0,1.173,0.073,1.979,0.22,2.419s0.393,0.659,0.737,0.659c0.351,0,0.598-0.227,0.741-0.681
	c0.145-0.454,0.217-1.252,0.217-2.397c0-1.149-0.073-1.955-0.22-2.416s-0.393-0.691-0.738-0.691c-0.345,0-0.591,0.223-0.737,0.667
	S68.846,123.802,68.846,124.984"/>
<path fill="#2E2D4B" d="M14.635,108.976H11.79v-5.49c0-0.667,0.014-1.277,0.042-1.83c-0.176,0.213-0.393,0.435-0.652,0.666
	l-1.178,0.973l-1.454-1.788l3.562-2.901h2.525V108.976z"/>
<path fill="#2E2D4B" d="M24.467,103.805c0,1.835-0.307,3.179-0.923,4.032c-0.614,0.854-1.556,1.279-2.823,1.279
	c-1.238,0-2.173-0.444-2.802-1.336s-0.943-2.217-0.943-3.976c0-1.845,0.308-3.197,0.922-4.058c0.615-0.861,1.556-1.291,2.823-1.291
	c1.234,0,2.167,0.448,2.799,1.344C24.15,100.696,24.467,102.031,24.467,103.805 M19.764,103.805c0,1.173,0.073,1.979,0.22,2.419
	s0.393,0.659,0.737,0.659c0.351,0,0.598-0.227,0.741-0.681c0.145-0.454,0.217-1.252,0.217-2.397c0-1.149-0.073-1.955-0.22-2.416
	s-0.393-0.691-0.738-0.691c-0.345,0-0.591,0.223-0.737,0.667S19.764,102.622,19.764,103.805"/>
<path fill="#2E2D4B" d="M28.51,106.854l0.1,0.163c-0.459,1.802-0.875,3.129-1.248,3.979h-1.979c0.137-0.652,0.274-1.384,0.415-2.195
	c0.14-0.811,0.234-1.46,0.287-1.947H28.51z"/>
<path fill="#2E2D4B" d="M29.964,104.592c0-1.447,0.207-2.619,0.62-3.515c0.414-0.896,1.024-1.558,1.83-1.983
	c0.808-0.425,1.802-0.638,2.984-0.638c0.421,0,0.912,0.04,1.474,0.12v2.192c-0.472-0.09-0.984-0.135-1.538-0.135
	c-0.937,0-1.634,0.205-2.093,0.618c-0.458,0.41-0.709,1.083-0.752,2.014h0.086c0.425-0.805,1.108-1.206,2.05-1.206
	c0.922,0,1.638,0.297,2.146,0.89c0.509,0.595,0.763,1.42,0.763,2.479c0,1.14-0.321,2.039-0.965,2.699
	c-0.643,0.66-1.542,0.989-2.696,0.989c-1.224,0-2.182-0.396-2.872-1.191S29.964,106.02,29.964,104.592 M33.809,106.897
	c0.299,0,0.541-0.112,0.728-0.337s0.28-0.583,0.28-1.075c0-0.842-0.326-1.263-0.979-1.263c-0.322,0-0.583,0.11-0.784,0.326
	c-0.201,0.218-0.302,0.482-0.302,0.795c0,0.454,0.097,0.826,0.291,1.117S33.492,106.897,33.809,106.897"/>
<path fill="#2E2D4B" d="M45.982,103.805c0,1.835-0.308,3.179-0.923,4.032c-0.614,0.854-1.556,1.279-2.823,1.279
	c-1.238,0-2.173-0.444-2.802-1.336c-0.63-0.892-0.943-2.217-0.943-3.976c0-1.845,0.308-3.197,0.922-4.058
	c0.615-0.861,1.555-1.291,2.823-1.291c1.234,0,2.167,0.448,2.799,1.344C45.666,100.696,45.982,102.031,45.982,103.805
	 M41.279,103.805c0,1.173,0.073,1.979,0.22,2.419s0.393,0.659,0.737,0.659c0.351,0,0.598-0.227,0.741-0.681
	c0.145-0.454,0.217-1.252,0.217-2.397c0-1.149-0.073-1.955-0.22-2.416s-0.393-0.691-0.738-0.691c-0.345,0-0.591,0.223-0.737,0.667
	S41.279,102.622,41.279,103.805"/>
<g>
	<defs>
		<rect id="SVGID_1_" x="62.313" y="5.884" width="69.646" height="58.928"/>
	</defs>
	<clipPath id="SVGID_2_">
		<use xlink:href="#SVGID_1_"  overflow="visible"/>
	</clipPath>
	<rect x="62.456" y="4.897" clip-path="url(#SVGID_2_)" fill="#CFE9EF" width="11.904" height="11.904"/>
	<path clip-path="url(#SVGID_2_)" fill="#FFFFFF" d="M74.217,16.659H62.599V5.041h11.618V16.659z M74.502,4.755H62.313v12.19h12.188
		V4.755z"/>
	<rect x="74.646" y="4.897" clip-path="url(#SVGID_2_)" fill="#CFE9EF" width="11.902" height="11.904"/>
	<path clip-path="url(#SVGID_2_)" fill="#FFFFFF" d="M86.406,16.659H74.788V5.041h11.618V16.659z M86.692,4.755h-12.19v12.19h12.19
		V4.755z"/>
	<rect x="86.835" y="4.897" clip-path="url(#SVGID_2_)" fill="#CFE9EF" width="11.904" height="11.904"/>
	<path clip-path="url(#SVGID_2_)" fill="#FFFFFF" d="M98.596,16.659H86.979V5.041h11.616V16.659z M98.882,4.755H86.693v12.19h12.188
		V4.755z"/>
	<rect x="99.084" y="4.897" clip-path="url(#SVGID_2_)" fill="#CFE9EF" width="11.904" height="11.904"/>
	<path clip-path="url(#SVGID_2_)" fill="#FFFFFF" d="M110.845,16.659H99.229V5.041h11.616V16.659z M111.131,4.755H98.942v12.19
		h12.188V4.755z"/>
	<rect x="111.274" y="4.897" clip-path="url(#SVGID_2_)" fill="#CFE9EF" width="11.902" height="11.904"/>
	<path clip-path="url(#SVGID_2_)" fill="#FFFFFF" d="M123.034,16.659h-11.618V5.041h11.618V16.659z M123.32,4.755h-12.19v12.19
		h12.19V4.755z"/>
	<rect x="123.463" y="4.897" clip-path="url(#SVGID_2_)" fill="#CFE9EF" width="11.904" height="11.904"/>
	<path clip-path="url(#SVGID_2_)" fill="#FFFFFF" d="M135.225,16.659h-11.617V5.041h11.617V16.659z M135.51,4.755h-12.188v12.19
		h12.188V4.755z"/>
	<rect x="62.456" y="17.087" clip-path="url(#SVGID_2_)" fill="#CFE9EF" width="11.904" height="11.904"/>
	<path clip-path="url(#SVGID_2_)" fill="#FFFFFF" d="M74.217,28.849H62.599V17.23h11.618V28.849z M74.502,16.944H62.313v12.189
		h12.188V16.944z"/>
	<rect x="74.646" y="17.087" clip-path="url(#SVGID_2_)" fill="#CFE9EF" width="11.902" height="11.904"/>
	<path clip-path="url(#SVGID_2_)" fill="#FFFFFF" d="M86.406,28.849H74.788V17.23h11.618V28.849z M86.692,16.944h-12.19v12.189
		h12.19V16.944z"/>
	<rect x="86.835" y="17.087" clip-path="url(#SVGID_2_)" fill="#CFE9EF" width="11.904" height="11.904"/>
	<path clip-path="url(#SVGID_2_)" fill="#FFFFFF" d="M98.596,28.849H86.979V17.23h11.616V28.849z M98.882,16.944H86.693v12.189
		h12.188V16.944z"/>
	<rect x="99.084" y="17.087" clip-path="url(#SVGID_2_)" fill="#CFE9EF" width="11.904" height="11.904"/>
	<path clip-path="url(#SVGID_2_)" fill="#FFFFFF" d="M110.845,28.849H99.229V17.23h11.616V28.849z M111.131,16.944H98.942v12.189
		h12.188V16.944z"/>
	<rect x="111.274" y="17.087" clip-path="url(#SVGID_2_)" fill="#CFE9EF" width="11.902" height="11.904"/>
	<path clip-path="url(#SVGID_2_)" fill="#FFFFFF" d="M123.034,28.849h-11.618V17.23h11.618V28.849z M123.32,16.944h-12.19v12.189
		h12.19V16.944z"/>
	<rect x="123.463" y="17.087" clip-path="url(#SVGID_2_)" fill="#CFE9EF" width="11.904" height="11.904"/>
	<path clip-path="url(#SVGID_2_)" fill="#FFFFFF" d="M135.225,28.849h-11.617V17.23h11.617V28.849z M135.51,16.944h-12.188v12.189
		h12.188V16.944z"/>
	<rect x="62.456" y="29.266" clip-path="url(#SVGID_2_)" fill="#CFE9EF" width="11.904" height="11.901"/>
	<path clip-path="url(#SVGID_2_)" fill="#FFFFFF" d="M74.217,41.026H62.599V29.408h11.618V41.026z M74.502,29.122H62.313v12.19
		h12.188V29.122z"/>
	<rect x="74.646" y="29.266" clip-path="url(#SVGID_2_)" fill="#CFE9EF" width="11.902" height="11.901"/>
	<path clip-path="url(#SVGID_2_)" fill="#FFFFFF" d="M86.406,41.026H74.788V29.408h11.618V41.026z M86.692,29.122h-12.19v12.19
		h12.19V29.122z"/>
	<rect x="86.835" y="29.266" clip-path="url(#SVGID_2_)" fill="#CFE9EF" width="11.904" height="11.901"/>
	<path clip-path="url(#SVGID_2_)" fill="#FFFFFF" d="M98.596,41.026H86.979V29.408h11.616V41.026z M98.882,29.122H86.693v12.19
		h12.188V29.122z"/>
	<rect x="99.084" y="29.266" clip-path="url(#SVGID_2_)" fill="#CFE9EF" width="11.904" height="11.901"/>
	<path clip-path="url(#SVGID_2_)" fill="#FFFFFF" d="M110.845,41.026H99.229V29.408h11.616V41.026z M111.131,29.122H98.942v12.19
		h12.188V29.122z"/>
	<rect x="111.274" y="29.266" clip-path="url(#SVGID_2_)" fill="#CFE9EF" width="11.902" height="11.901"/>
	<path clip-path="url(#SVGID_2_)" fill="#FFFFFF" d="M123.034,41.026h-11.618V29.408h11.618V41.026z M123.32,29.122h-12.19v12.19
		h12.19V29.122z"/>
	<rect x="123.463" y="29.266" clip-path="url(#SVGID_2_)" fill="#CFE9EF" width="11.904" height="11.901"/>
	<path clip-path="url(#SVGID_2_)" fill="#FFFFFF" d="M135.225,41.026h-11.617V29.408h11.617V41.026z M135.51,29.122h-12.188v12.19
		h12.188V29.122z"/>
	<rect x="62.456" y="41.454" clip-path="url(#SVGID_2_)" fill="#CFE9EF" width="11.904" height="11.904"/>
	<path clip-path="url(#SVGID_2_)" fill="#FFFFFF" d="M74.217,53.215H62.599V41.599h11.618V53.215z M74.502,41.313H62.313v12.188
		h12.188V41.313z"/>
	<rect x="74.646" y="41.454" clip-path="url(#SVGID_2_)" fill="#CFE9EF" width="11.902" height="11.904"/>
	<path clip-path="url(#SVGID_2_)" fill="#FFFFFF" d="M86.406,53.215H74.788V41.599h11.618V53.215z M86.692,41.313h-12.19v12.188
		h12.19V41.313z"/>
	<rect x="86.835" y="41.454" clip-path="url(#SVGID_2_)" fill="#CFE9EF" width="11.904" height="11.904"/>
	<path clip-path="url(#SVGID_2_)" fill="#FFFFFF" d="M98.596,53.215H86.979V41.599h11.616V53.215z M98.882,41.313H86.693v12.188
		h12.188V41.313z"/>
	<rect x="99.084" y="41.454" clip-path="url(#SVGID_2_)" fill="#CFE9EF" width="11.904" height="11.904"/>
	<path clip-path="url(#SVGID_2_)" fill="#FFFFFF" d="M110.845,53.215H99.229V41.599h11.616V53.215z M111.131,41.313H98.942v12.188
		h12.188V41.313z"/>
	<rect x="111.274" y="41.454" clip-path="url(#SVGID_2_)" fill="#CFE9EF" width="11.902" height="11.904"/>
	<path clip-path="url(#SVGID_2_)" fill="#FFFFFF" d="M123.034,53.215h-11.618V41.599h11.618V53.215z M123.32,41.313h-12.19v12.188
		h12.19V41.313z"/>
	<rect x="123.463" y="41.454" clip-path="url(#SVGID_2_)" fill="#CFE9EF" width="11.904" height="11.904"/>
	<path clip-path="url(#SVGID_2_)" fill="#FFFFFF" d="M135.225,53.215h-11.617V41.599h11.617V53.215z M135.51,41.313h-12.188v12.188
		h12.188V41.313z"/>
	<rect x="62.456" y="53.571" clip-path="url(#SVGID_2_)" fill="#CFE9EF" width="11.904" height="11.322"/>
	<path clip-path="url(#SVGID_2_)" fill="#FFFFFF" d="M74.217,64.75H62.599V53.714h11.618V64.75z M74.502,53.43H62.313v11.605h12.188
		V53.43z"/>
	<rect x="74.646" y="53.571" clip-path="url(#SVGID_2_)" fill="#CFE9EF" width="11.902" height="11.322"/>
	<path clip-path="url(#SVGID_2_)" fill="#FFFFFF" d="M86.406,64.75H74.788V53.714h11.618V64.75z M86.692,53.43h-12.19v11.605h12.19
		V53.43z"/>
	<rect x="86.835" y="53.571" clip-path="url(#SVGID_2_)" fill="#CFE9EF" width="11.904" height="11.322"/>
	<path clip-path="url(#SVGID_2_)" fill="#FFFFFF" d="M98.596,64.75H86.979V53.714h11.616V64.75z M98.882,53.43H86.693v11.605h12.188
		V53.43z"/>
	<rect x="99.084" y="53.571" clip-path="url(#SVGID_2_)" fill="#CFE9EF" width="11.904" height="11.322"/>
	<path clip-path="url(#SVGID_2_)" fill="#FFFFFF" d="M110.845,64.75H99.229V53.714h11.616V64.75z M111.131,53.43H98.942v11.605
		h12.188V53.43z"/>
	<rect x="111.274" y="53.571" clip-path="url(#SVGID_2_)" fill="#CFE9EF" width="11.902" height="11.322"/>
	<path clip-path="url(#SVGID_2_)" fill="#FFFFFF" d="M123.034,64.75h-11.618V53.714h11.618V64.75z M123.32,53.43h-12.19v11.605
		h12.19V53.43z"/>
	<rect x="123.463" y="53.571" clip-path="url(#SVGID_2_)" fill="#CFE9EF" width="11.904" height="11.322"/>
	<path clip-path="url(#SVGID_2_)" fill="#FFFFFF" d="M135.225,64.75h-11.617V53.714h11.617V64.75z M135.51,53.43h-12.188v11.605
		h12.188V53.43z"/>
</g>
<rect x="248.5" y="126.322" fill="#A5D5E7" width="15.25" height="55.208"/>
<rect x="253.754" y="126.322" fill="#62AAC3" width="4.744" height="55.208"/>
<rect x="243.125" y="204.155" fill="#2E2D4B" width="8.5" height="8.125"/>
<rect y="209.071" fill="#2E2D4B" width="29.75" height="16.271"/>
<rect x="72" y="209.071" fill="#2E2D4B" width="112.25" height="16.271"/>
<rect x="225.5" y="209.071" fill="#2E2D4B" width="38.25" height="16.271"/>
<rect x="248.5" y="181.53" fill="#2E2D4B" width="15.25" height="43.813"/>
<rect x="248.5" y="91.613" fill="#2E2D4B" width="15.25" height="34.709"/>
<rect x="40.834" y="1.123" fill="#2E2D4B" width="94.333" height="6.313"/>
<rect y="1.03" fill="#2E2D4B" width="6.5" height="224.313"/>
<rect x="0.288" fill="#2E2D4B" width="13.046" height="7.53"/>
<line fill="#2E2D4B" x1="3.25" y1="70.113" x2="3.25" y2="73.863"/>
<rect x="100.719" y="61.062" fill="#2E2D4B" width="35.865" height="3.75"/>
<rect x="131.959" y="58.229" fill="#2E2D4B" width="19.958" height="6.583"/>
<rect x="105.86" y="96.223" fill="#2E2D4B" width="3.75" height="114.307"/>
<rect x="16.209" y="112.802" fill="#2E2D4B" width="58.042" height="3.458"/>
<rect x="100" y="94.493" fill="#2E2D4B" width="14.875" height="3.458"/>
<rect x="140" y="94.493" fill="#2E2D4B" width="14.875" height="3.458"/>
<rect x="150.792" y="91.613" fill="#2E2D4B" width="101.833" height="6.339"/>
<rect x="68.792" y="92.571" fill="#2E2D4B" width="6.417" height="23.688"/>
<rect x="128.75" y="4.28" fill="#2E2D4B" width="6.417" height="59.5"/>
<rect x="145.5" y="62.28" fill="#2E2D4B" width="6.417" height="33.943"/>
<line fill="#2E2D4B" x1="0.886" y1="87.566" x2="0.886" y2="90.066"/>
<rect x="131.584" y="1.124" fill="#2E2D4B" width="3.583" height="5.739"/>
<rect x="53.5" y="61.062" fill="#2E2D4B" width="25.063" height="3.75"/>
<rect x="59.636" y="3.427" fill="#2E2D4B" width="3.75" height="59.51"/>
<rect x="53.5" y="54.968" fill="#2E2D4B" width="3.125" height="9.375"/>
<rect x="53.5" y="54.968" fill="#2E2D4B" width="8.813" height="3.188"/>
<rect x="6.063" y="112.802" fill="#2E2D4B" width="17.937" height="3.457"/>
<rect x="14.125" y="115.405" fill="#2E2D4B" width="2.688" height="24"/>
<rect x="6.063" y="136.968" fill="#2E2D4B" width="10.75" height="2.438"/>
<rect x="6.063" y="130.155" fill="#2E2D4B" width="10.146" height="2.375"/>
<rect x="29.313" y="209.015" fill="#A5D5E7" width="42.938" height="16.385"/>
<rect x="29.313" y="214.658" fill="#62AAC3" width="42.938" height="5.098"/>
<rect x="184.25" y="209.015" fill="#A5D5E7" width="41.563" height="16.385"/>
<rect x="184.25" y="214.658" fill="#62AAC3" width="41.563" height="5.098"/>
<rect x="56.626" y="58.155" fill="#D7D8D5" width="3.01" height="2.906"/>
<rect x="6.5" y="116.26" fill="#9C9D9A" width="7.625" height="13.896"/>
<rect x="6.5" y="132.457" fill="#9C9D9A" width="7.625" height="4.511"/>
<polygon fill="#D7D8D5" points="14.125,116.26 8.813,118.467 6.5,130.156 14.125,130.156 "/>
<polygon fill="#D7D8D5" points="14.125,132.457 7.813,133.78 6.5,136.967 14.125,136.967 "/>
<rect x="63.385" y="7.437" fill="#9C9D9A" width="22.054" height="14.031"/>
<rect x="97.75" y="94.493" fill="#E3004F" width="2.25" height="3.125"/>
<rect x="88.868" y="91.743" transform="matrix(-0.7073 -0.7069 0.7069 -0.7073 80.2391 240.918)" fill="#E3004F" width="2.25" height="24.209"/>
<rect x="38.584" y="4.32" fill="#E3004F" width="2.25" height="3.125"/>
<rect x="29.701" y="1.571" transform="matrix(-0.7073 -0.7069 0.7069 -0.7073 42.9642 45.1392)" fill="#E3004F" width="2.25" height="24.209"/>
<rect x="114.875" y="94.493" fill="#E3004F" width="2.25" height="3.125"/>
<rect x="123.757" y="91.743" transform="matrix(0.7071 -0.7071 0.7071 0.7071 -36.8545 118.7216)" fill="#E3004F" width="2.25" height="24.21"/>
<rect x="78.563" y="61.062" fill="#E3004F" width="2.25" height="3.125"/>
<rect x="87.444" y="58.311" transform="matrix(0.7071 -0.7071 0.7071 0.7071 -23.8508 83.2522)" fill="#E3004F" width="2.25" height="24.21"/>
<rect x="16.814" y="116.26" fill="#B2D3DC" width="17.105" height="21.387"/>
<path fill="#FFFFFF" d="M19.718,120.577v6.104v0.771v8.604h0.491v-7.053c0.218,0.312,0.5,0.57,0.825,0.77v6.283h0.491v-6.047
	c0.26,0.094,0.536,0.151,0.823,0.161v5.886h0.492v-5.875h0.824v5.875h0.491v-5.875h0.825v5.875h0.491v-5.875h0.824v5.875h0.491
	v-5.875h0.825v5.875h0.491v-5.875h0.823v5.875h0.492v-5.886c0.289-0.01,0.564-0.067,0.824-0.161v6.047h0.492v-6.283
	c0.324-0.199,0.606-0.458,0.824-0.77v7.053h0.49v-8.604v-0.771v-6.104c0-1.501-1.229-2.729-2.729-2.729h-6.875
	C20.946,117.849,19.718,119.076,19.718,120.577"/>
<path fill="#62A9C4" d="M16.813,121.979v4.333h2.904v-1.666h2.843c0.153,0,0.28-0.127,0.28-0.282v-0.437
	c0-0.155-0.127-0.281-0.28-0.281h-2.843v-1.667H16.813z"/>
<path fill="#FFFFFF" d="M18.269,124.747c0.268,0,0.482,0.217,0.482,0.484s-0.215,0.484-0.482,0.484
	c-0.269,0-0.484-0.217-0.484-0.484S18,124.747,18.269,124.747"/>
<path fill="#FFFFFF" d="M18.269,122.575c0.268,0,0.482,0.217,0.482,0.484s-0.215,0.484-0.482,0.484
	c-0.269,0-0.484-0.217-0.484-0.484S18,122.575,18.269,122.575"/>
<rect x="6.5" y="153.987" fill="#B2D3DC" width="2.905" height="15.25"/>
<rect x="9.405" y="153.987" fill="#62A9C4" width="14.202" height="15.25"/>
<rect x="24.268" y="155.487" fill="#62A9C4" width="0.928" height="12.25"/>
<path fill="#FFFFFF" d="M15.281,158.278c0,1.327-1.079,2.406-2.405,2.406c-1.327,0-2.406-1.079-2.406-2.406
	c0-1.326,1.079-2.405,2.406-2.405C14.202,155.873,15.281,156.952,15.281,158.278 M11.22,158.278c0,0.913,0.743,1.656,1.656,1.656
	s1.657-0.743,1.657-1.656s-0.744-1.655-1.657-1.655S11.22,157.365,11.22,158.278"/>
<path fill="#FFFFFF" d="M14.126,158.278c0,0.688-0.562,1.25-1.25,1.25s-1.25-0.563-1.25-1.25c0-0.689,0.562-1.25,1.25-1.25
	S14.126,157.589,14.126,158.278 M12.376,158.278c0,0.275,0.225,0.5,0.5,0.5c0.276,0,0.5-0.225,0.5-0.5s-0.224-0.5-0.5-0.5
	C12.601,157.778,12.376,158.003,12.376,158.278"/>
<path fill="#FFFFFF" d="M20.855,158.278c0,0.908-0.738,1.646-1.645,1.646c-0.909,0-1.646-0.738-1.646-1.646
	c0-0.907,0.737-1.646,1.646-1.646C20.117,156.632,20.855,157.371,20.855,158.278 M18.314,158.278c0,0.494,0.401,0.896,0.896,0.896
	c0.493,0,0.895-0.402,0.895-0.896s-0.401-0.896-0.895-0.896C18.716,157.382,18.314,157.784,18.314,158.278"/>
<path fill="#FFFFFF" d="M22.543,158.278c0,1.838-1.496,3.334-3.334,3.334c-1.837,0-3.333-1.496-3.333-3.334s1.496-3.333,3.333-3.333
	C21.047,154.945,22.543,156.44,22.543,158.278 M16.626,158.278c0,1.425,1.159,2.584,2.583,2.584c1.425,0,2.584-1.159,2.584-2.584
	c0-1.424-1.159-2.583-2.584-2.583C17.785,155.695,16.626,156.854,16.626,158.278"/>
<path fill="#FFFFFF" d="M17.73,164.946c0-1.327,1.081-2.406,2.406-2.406c1.327,0,2.406,1.079,2.406,2.406
	c0,1.326-1.079,2.405-2.406,2.405C18.812,167.352,17.73,166.272,17.73,164.946 M21.793,164.946c0-0.913-0.743-1.656-1.656-1.656
	s-1.656,0.743-1.656,1.656s0.743,1.655,1.656,1.655S21.793,165.859,21.793,164.946"/>
<path fill="#FFFFFF" d="M18.887,164.946c0-0.689,0.563-1.25,1.25-1.25c0.689,0,1.25,0.561,1.25,1.25s-0.561,1.25-1.25,1.25
	C19.449,166.196,18.887,165.636,18.887,164.946 M20.637,164.946c0-0.275-0.224-0.5-0.5-0.5c-0.275,0-0.5,0.225-0.5,0.5
	s0.225,0.5,0.5,0.5C20.413,165.446,20.637,165.222,20.637,164.946"/>
<path fill="#FFFFFF" d="M12.157,164.946c0-0.908,0.739-1.646,1.646-1.646c0.908,0,1.646,0.738,1.646,1.646
	c0,0.907-0.738,1.646-1.646,1.646C12.896,166.593,12.157,165.854,12.157,164.946 M14.699,164.946c0-0.494-0.402-0.896-0.896-0.896
	c-0.493,0-0.896,0.402-0.896,0.896s0.402,0.896,0.896,0.896C14.297,165.843,14.699,165.44,14.699,164.946"/>
<path fill="#FFFFFF" d="M10.47,164.946c0-1.838,1.496-3.334,3.334-3.334s3.333,1.496,3.333,3.334s-1.495,3.333-3.333,3.333
	S10.47,166.784,10.47,164.946 M16.387,164.946c0-1.425-1.158-2.584-2.583-2.584s-2.584,1.159-2.584,2.584
	c0,1.424,1.159,2.583,2.584,2.583S16.387,166.37,16.387,164.946"/>
<rect x="23.608" y="163.382" fill="#B2D3DC" width="0.659" height="1.481"/>
<rect x="23.608" y="158.362" fill="#B2D3DC" width="0.659" height="1.48"/>
<rect x="6.5" y="192.134" fill="#B2D3DC" width="17.107" height="16.938"/>
<path fill="#62A9C4" d="M24.08,209.066c0.615-0.015,1.115-0.398,1.115-0.87V193.01c0-0.473-0.5-0.855-1.115-0.87V209.066z"/>
<line fill="#B2D3DC" x1="0" y1="90.066" x2="0" y2="111.453"/>
<rect x="6.5" y="169.238" fill="#CFE9EF" width="17.107" height="22.896"/>
<rect x="6.5" y="139.404" fill="#CFE9EF" width="17.107" height="14.583"/>
<rect x="16.814" y="137.646" fill="#CFE9EF" width="17.105" height="9.551"/>
<rect x="106.426" y="7.436" fill="#62A9C4" width="22.324" height="50.186"/>
<path fill="#FFFFFF" d="M115.495,14.541h0.513c0.104-0.471,0.461-0.828,0.933-0.932v-0.513
	C116.193,13.209,115.608,13.795,115.495,14.541"/>
<path fill="#FFFFFF" d="M116.527,14.541h0.413v-0.413C116.75,14.202,116.601,14.353,116.527,14.541"/>
<path fill="#FFFFFF" d="M116.008,15.061h-0.513c0.113,0.746,0.698,1.332,1.445,1.444v-0.513
	C116.469,15.889,116.111,15.531,116.008,15.061"/>
<path fill="#FFFFFF" d="M116.939,15.474v-0.413h-0.413C116.601,15.251,116.749,15.4,116.939,15.474"/>
<path fill="#FFFFFF" d="M117.459,14.129v0.413h0.413C117.798,14.353,117.648,14.202,117.459,14.129"/>
<path fill="#FFFFFF" d="M117.871,15.061h-0.413v0.413C117.649,15.399,117.798,15.25,117.871,15.061"/>
<path fill="#FFFFFF" d="M126.544,13.288c0-1.352-1.104-2.456-2.455-2.456h-13.002c-1.349,0-2.454,1.104-2.454,2.456V44.61
	c0,0.173,0.02,0.341,0.055,0.505c-0.035,0.317-0.055,0.639-0.055,0.967c0,4.945,4.011,8.954,8.955,8.954
	c4.947,0,8.956-4.009,8.956-8.954c0-0.328-0.019-0.649-0.054-0.967c0.035-0.164,0.054-0.332,0.054-0.505V13.288z M120.336,15.061
	h-0.914c-0.121,1.03-0.932,1.843-1.963,1.964v0.913h-0.52v-0.913c-1.03-0.121-1.845-0.934-1.963-1.964h-0.913v-0.52h0.913
	c0.118-1.03,0.933-1.844,1.963-1.964v-0.912h0.52v0.912c1.031,0.12,1.842,0.934,1.963,1.964h0.914V15.061z"/>
<path fill="#FFFFFF" d="M117.459,13.097v0.513c0.471,0.104,0.828,0.461,0.933,0.932h0.513
	C118.791,13.795,118.205,13.209,117.459,13.097"/>
<path fill="#FFFFFF" d="M117.459,15.992v0.513c0.746-0.112,1.332-0.697,1.445-1.444h-0.513
	C118.287,15.531,117.93,15.889,117.459,15.992"/>
<line fill="#62A9C4" x1="0.001" y1="47.672" x2="0.001" y2="70.1"/>
<path fill="#62A9C4" d="M89.267,7.436v5.771v1.322v0.844c0,1.982,1.621,3.604,3.604,3.604h7.125c1.982,0,3.604-1.622,3.604-3.604
	v-0.844v-1.322V7.436H89.267z"/>
<path fill="#FFFFFF" d="M100.006,18.103h-7.146c-1.528,0-2.78-1.252-2.78-2.781v-1.833c0-1.53,1.252-2.781,2.78-2.781h7.146
	c1.53,0,2.781,1.251,2.781,2.781v1.833C102.787,16.851,101.536,18.103,100.006,18.103"/>
<path fill="#62A9C4" d="M95.224,14.346h0.364c0.074-0.334,0.326-0.588,0.66-0.661V13.32C95.72,13.4,95.304,13.816,95.224,14.346"/>
<path fill="#62A9C4" d="M95.956,14.346h0.293v-0.293C96.114,14.105,96.008,14.21,95.956,14.346"/>
<path fill="#62A9C4" d="M95.588,14.713h-0.364c0.08,0.53,0.495,0.945,1.025,1.025v-0.364C95.915,15.3,95.662,15.047,95.588,14.713"
	/>
<path fill="#62A9C4" d="M96.249,15.006v-0.293h-0.293C96.008,14.849,96.114,14.954,96.249,15.006"/>
<path fill="#62A9C4" d="M96.617,14.053v0.293h0.293C96.858,14.21,96.752,14.104,96.617,14.053"/>
<path fill="#62A9C4" d="M96.91,14.713h-0.293v0.293C96.752,14.954,96.858,14.849,96.91,14.713"/>
<path fill="#62A9C4" d="M96.617,13.32v0.364c0.334,0.072,0.587,0.327,0.661,0.661h0.364C97.563,13.816,97.147,13.4,96.617,13.32"/>
<path fill="#62A9C4" d="M96.617,15.374v0.364c0.53-0.08,0.945-0.495,1.025-1.025h-0.364C97.204,15.047,96.951,15.3,96.617,15.374"/>
<path fill="#62A9C4" d="M74.839,41.542h-2.375c-2.475,0-4.5-2.024-4.5-4.5v-4.625c0-2.475,2.025-4.5,4.5-4.5h2.375
	c2.476,0,4.5,2.025,4.5,4.5v4.625C79.339,39.518,77.314,41.542,74.839,41.542"/>
<path fill="#FFFFFF" d="M74.45,40.469h-1.596c-2.156,0-3.911-1.755-3.911-3.91v-5.231c0-2.156,1.755-3.911,3.911-3.911h1.596
	c2.156,0,3.91,1.755,3.91,3.911v5.231C78.36,38.714,76.606,40.469,74.45,40.469 M72.854,28.416c-1.605,0-2.911,1.307-2.911,2.911
	v5.231c0,1.604,1.306,2.91,2.911,2.91h1.596c1.604,0,2.91-1.307,2.91-2.91v-5.231c0-1.604-1.306-2.911-2.91-2.911H72.854z"/>
<path fill="#62A9C4" d="M78.901,28.22h-10.5c-0.619,0-1.125-0.507-1.125-1.125v-4.5c0-0.619,0.506-1.125,1.125-1.125h10.5
	c0.619,0,1.125,0.506,1.125,1.125v4.5C80.026,27.713,79.521,28.22,78.901,28.22"/>
<path fill="#62A9C4" d="M75.401,29.959h-3.5c-0.271,0-0.49-0.22-0.49-0.489v-2.5c0-0.27,0.22-0.489,0.49-0.489h3.5
	c0.269,0,0.49,0.22,0.49,0.489v2.5C75.892,29.739,75.67,29.959,75.401,29.959"/>
<path fill="#FFFFFF" d="M74.598,24.845c0,0.521-0.424,0.945-0.945,0.945c-0.523,0-0.947-0.424-0.947-0.945
	c0-0.523,0.424-0.946,0.947-0.946C74.174,23.898,74.598,24.321,74.598,24.845"/>
<line fill="#9C9D9A" x1="0" y1="73.863" x2="0" y2="87.978"/>
<line fill="#CFE9EF" x1="0" y1="141.031" x2="0" y2="149.886"/>
<line fill="#CFE9EF" x1="0" y1="111.453" x2="0" y2="125.853"/>
<path fill="#2E2D4B" d="M82.704,52.96h-1.142v2.008h-2.767V52.96H74.66v-2.057l4.313-6.307h2.589v6.271h1.142V52.96z M78.796,50.867
	v-1.205c0-0.228,0.008-0.533,0.024-0.919s0.03-0.588,0.039-0.605h-0.077c-0.161,0.363-0.344,0.704-0.548,1.021l-1.148,1.709H78.796z
	"/>
<path fill="#2E2D4B" d="M86.457,52.847l0.1,0.163c-0.459,1.802-0.875,3.129-1.248,3.979h-1.979c0.137-0.652,0.274-1.384,0.415-2.195
	c0.14-0.811,0.234-1.46,0.287-1.947H86.457z"/>
<path fill="#2E2D4B" d="M92.125,48.172c0.596,0,1.134,0.139,1.614,0.415c0.479,0.276,0.854,0.668,1.12,1.174
	c0.268,0.507,0.401,1.091,0.401,1.752c0,1.159-0.349,2.048-1.047,2.668c-0.697,0.619-1.753,0.928-3.167,0.928
	c-1.211,0-2.199-0.186-2.965-0.56v-2.298c0.411,0.189,0.876,0.345,1.394,0.468s0.964,0.185,1.337,0.185
	c0.521,0,0.92-0.109,1.199-0.33c0.279-0.22,0.419-0.545,0.419-0.975c0-0.397-0.143-0.707-0.426-0.93
	c-0.284-0.222-0.715-0.333-1.291-0.333c-0.44,0-0.915,0.082-1.426,0.248l-1.029-0.511l0.39-5.477h5.916v2.334h-3.531L90.905,48.3
	c0.368-0.071,0.631-0.11,0.786-0.117C91.849,48.176,91.993,48.172,92.125,48.172"/>
<path fill="#2E2D4B" d="M103.93,49.797c0,1.835-0.307,3.179-0.923,4.032c-0.614,0.854-1.556,1.279-2.823,1.279
	c-1.238,0-2.173-0.444-2.802-1.336c-0.63-0.892-0.943-2.217-0.943-3.976c0-1.845,0.308-3.197,0.922-4.058
	c0.615-0.861,1.556-1.291,2.823-1.291c1.234,0,2.167,0.448,2.799,1.344C103.613,46.688,103.93,48.023,103.93,49.797 M99.227,49.797
	c0,1.173,0.073,1.979,0.22,2.419s0.393,0.659,0.737,0.659c0.351,0,0.598-0.227,0.741-0.681c0.145-0.454,0.217-1.252,0.217-2.397
	c0-1.149-0.073-1.955-0.22-2.416s-0.393-0.691-0.738-0.691c-0.345,0-0.591,0.223-0.737,0.667S99.227,48.614,99.227,49.797"/>
</svg>
