<?xml version="1.0" encoding="utf-8"?>
<!-- Generator: Adobe Illustrator 16.0.0, SVG Export Plug-In . SVG Version: 6.00 Build 0)  -->
<!DOCTYPE svg PUBLIC "-//W3C//DTD SVG 1.1//EN" "http://www.w3.org/Graphics/SVG/1.1/DTD/svg11.dtd">
<svg version="1.1" id="Слой_1" xmlns="http://www.w3.org/2000/svg" xmlns:xlink="http://www.w3.org/1999/xlink" x="0px" y="0px"
	 width="217.323px" height="257px" viewBox="0 0 217.323 257" enable-background="new 0 0 217.323 257" xml:space="preserve">
<rect x="148.057" y="5.335" fill="#D0EAF0" width="10.417" height="10.417"/>
<path fill="#FFFFFF" d="M158.348,15.627h-10.167V5.46h10.167V15.627z M158.598,5.21h-10.667v10.667h10.667V5.21z"/>
<rect x="158.723" y="5.335" fill="#D0EAF0" width="10.417" height="10.417"/>
<path fill="#FFFFFF" d="M169.015,15.627h-10.167V5.46h10.167V15.627z M169.265,5.21h-10.667v10.667h10.667V5.21z"/>
<rect x="169.39" y="5.335" fill="#D0EAF0" width="10.417" height="10.417"/>
<path fill="#FFFFFF" d="M179.682,15.627h-10.167V5.46h10.167V15.627z M179.932,5.21h-10.667v10.667h10.667V5.21z"/>
<rect x="180.107" y="5.335" fill="#D0EAF0" width="10.418" height="10.417"/>
<path fill="#FFFFFF" d="M190.4,15.627h-10.168V5.46H190.4V15.627z M190.65,5.21h-10.668v10.667h10.668V5.21z"/>
<rect x="190.775" y="5.335" fill="#D0EAF0" width="10.416" height="10.417"/>
<path fill="#FFFFFF" d="M201.066,15.627H190.9V5.46h10.166V15.627z M201.316,5.21H190.65v10.667h10.666V5.21z"/>
<rect x="201.441" y="5.335" fill="#D0EAF0" width="10.418" height="10.417"/>
<path fill="#FFFFFF" d="M211.734,15.627h-10.168V5.46h10.168V15.627z M211.984,5.21h-10.668v10.667h10.668V5.21z"/>
<rect x="148.057" y="16.002" fill="#D0EAF0" width="10.417" height="10.417"/>
<path fill="#FFFFFF" d="M158.348,26.293h-10.167V16.126h10.167V26.293z M158.598,15.877h-10.667v10.667h10.667V15.877z"/>
<rect x="158.723" y="16.002" fill="#D0EAF0" width="10.417" height="10.417"/>
<path fill="#FFFFFF" d="M169.015,26.293h-10.167V16.126h10.167V26.293z M169.265,15.877h-10.667v10.667h10.667V15.877z"/>
<rect x="169.39" y="16.002" fill="#D0EAF0" width="10.417" height="10.417"/>
<path fill="#FFFFFF" d="M179.682,26.293h-10.167V16.126h10.167V26.293z M179.932,15.877h-10.667v10.667h10.667V15.877z"/>
<rect x="180.107" y="16.002" fill="#D0EAF0" width="10.418" height="10.417"/>
<path fill="#FFFFFF" d="M190.4,26.293h-10.168V16.126H190.4V26.293z M190.65,15.877h-10.668v10.667h10.668V15.877z"/>
<rect x="190.775" y="16.002" fill="#D0EAF0" width="10.416" height="10.417"/>
<path fill="#FFFFFF" d="M201.066,26.293H190.9V16.126h10.166V26.293z M201.316,15.877H190.65v10.667h10.666V15.877z"/>
<rect x="201.441" y="16.002" fill="#D0EAF0" width="10.418" height="10.417"/>
<path fill="#FFFFFF" d="M211.734,26.293h-10.168V16.126h10.168V26.293z M211.984,15.877h-10.668v10.667h10.668V15.877z"/>
<rect x="148.057" y="26.658" fill="#D0EAF0" width="10.417" height="10.416"/>
<path fill="#FFFFFF" d="M158.348,36.95h-10.167V26.783h10.167V36.95z M158.598,26.533h-10.667V37.2h10.667V26.533z"/>
<rect x="158.723" y="26.658" fill="#D0EAF0" width="10.417" height="10.416"/>
<path fill="#FFFFFF" d="M169.015,36.95h-10.167V26.783h10.167V36.95z M169.265,26.533h-10.667V37.2h10.667V26.533z"/>
<rect x="169.39" y="26.658" fill="#D0EAF0" width="10.417" height="10.416"/>
<path fill="#FFFFFF" d="M179.682,36.95h-10.167V26.783h10.167V36.95z M179.932,26.533h-10.667V37.2h10.667V26.533z"/>
<rect x="180.107" y="26.658" fill="#D0EAF0" width="10.418" height="10.416"/>
<path fill="#FFFFFF" d="M190.4,36.95h-10.168V26.783H190.4V36.95z M190.65,26.533h-10.668V37.2h10.668V26.533z"/>
<rect x="190.775" y="26.658" fill="#D0EAF0" width="10.416" height="10.416"/>
<path fill="#FFFFFF" d="M201.066,36.95H190.9V26.783h10.166V36.95z M201.316,26.533H190.65V37.2h10.666V26.533z"/>
<rect x="201.441" y="26.658" fill="#D0EAF0" width="10.418" height="10.416"/>
<path fill="#FFFFFF" d="M211.734,36.95h-10.168V26.783h10.168V36.95z M211.984,26.533h-10.668V37.2h10.668V26.533z"/>
<rect x="148.057" y="37.324" fill="#D0EAF0" width="10.417" height="10.417"/>
<path fill="#FFFFFF" d="M158.348,47.616h-10.167V37.449h10.167V47.616z M158.598,37.2h-10.667v10.667h10.667V37.2z"/>
<rect x="158.723" y="37.324" fill="#D0EAF0" width="10.417" height="10.417"/>
<path fill="#FFFFFF" d="M169.015,47.616h-10.167V37.449h10.167V47.616z M169.265,37.2h-10.667v10.667h10.667V37.2z"/>
<rect x="169.39" y="37.324" fill="#D0EAF0" width="10.417" height="10.417"/>
<path fill="#FFFFFF" d="M179.682,47.616h-10.167V37.449h10.167V47.616z M179.932,37.2h-10.667v10.667h10.667V37.2z"/>
<rect x="180.107" y="37.324" fill="#D0EAF0" width="10.418" height="10.417"/>
<path fill="#FFFFFF" d="M190.4,47.616h-10.168V37.449H190.4V47.616z M190.65,37.2h-10.668v10.667h10.668V37.2z"/>
<rect x="190.775" y="37.324" fill="#D0EAF0" width="10.416" height="10.417"/>
<path fill="#FFFFFF" d="M201.066,47.616H190.9V37.449h10.166V47.616z M201.316,37.2H190.65v10.667h10.666V37.2z"/>
<rect x="201.441" y="37.324" fill="#D0EAF0" width="10.418" height="10.417"/>
<path fill="#FFFFFF" d="M211.734,47.616h-10.168V37.449h10.168V47.616z M211.984,37.2h-10.668v10.667h10.668V37.2z"/>
<rect x="148.057" y="47.928" fill="#D0EAF0" width="10.417" height="9.907"/>
<path fill="#FFFFFF" d="M158.348,57.71h-10.167v-9.657h10.167V57.71z M158.598,47.803h-10.667V57.96h10.667V47.803z"/>
<rect x="158.723" y="47.928" fill="#D0EAF0" width="10.417" height="9.907"/>
<path fill="#FFFFFF" d="M169.015,57.71h-10.167v-9.657h10.167V57.71z M169.265,47.803h-10.667V57.96h10.667V47.803z"/>
<rect x="169.39" y="47.928" fill="#D0EAF0" width="10.417" height="9.907"/>
<path fill="#FFFFFF" d="M179.682,57.71h-10.167v-9.657h10.167V57.71z M179.932,47.803h-10.667V57.96h10.667V47.803z"/>
<rect x="180.107" y="47.928" fill="#D0EAF0" width="10.418" height="9.907"/>
<path fill="#FFFFFF" d="M190.4,57.71h-10.168v-9.657H190.4V57.71z M190.65,47.803h-10.668V57.96h10.668V47.803z"/>
<rect x="190.775" y="47.928" fill="#D0EAF0" width="10.416" height="9.907"/>
<path fill="#FFFFFF" d="M201.066,57.71H190.9v-9.657h10.166V57.71z M201.316,47.803H190.65V57.96h10.666V47.803z"/>
<rect x="201.441" y="47.928" fill="#D0EAF0" width="10.418" height="9.907"/>
<path fill="#FFFFFF" d="M211.734,57.71h-10.168v-9.657h10.168V57.71z M211.984,47.803h-10.668V57.96h10.668V47.803z"/>
<rect x="148.057" y="57.96" fill="#D0EAF0" width="10.417" height="10.417"/>
<path fill="#FFFFFF" d="M158.348,68.252h-10.167V58.085h10.167V68.252z M158.598,57.835h-10.667v10.667h10.667V57.835z"/>
<rect x="158.723" y="57.96" fill="#D0EAF0" width="10.417" height="10.417"/>
<path fill="#FFFFFF" d="M169.015,68.252h-10.167V58.085h10.167V68.252z M169.265,57.835h-10.667v10.667h10.667V57.835z"/>
<rect x="169.39" y="57.96" fill="#D0EAF0" width="10.417" height="10.417"/>
<path fill="#FFFFFF" d="M179.682,68.252h-10.167V58.085h10.167V68.252z M179.932,57.835h-10.667v10.667h10.667V57.835z"/>
<rect x="180.107" y="57.96" fill="#D0EAF0" width="10.418" height="10.417"/>
<path fill="#FFFFFF" d="M190.4,68.252h-10.168V58.085H190.4V68.252z M190.65,57.835h-10.668v10.667h10.668V57.835z"/>
<rect x="190.775" y="57.96" fill="#D0EAF0" width="10.416" height="10.417"/>
<path fill="#FFFFFF" d="M201.066,68.252H190.9V58.085h10.166V68.252z M201.316,57.835H190.65v10.667h10.666V57.835z"/>
<rect x="201.441" y="57.96" fill="#D0EAF0" width="10.418" height="10.417"/>
<path fill="#FFFFFF" d="M211.734,68.252h-10.168V58.085h10.168V68.252z M211.984,57.835h-10.668v10.667h10.668V57.835z"/>
<rect x="148.057" y="68.566" fill="#D0EAF0" width="10.417" height="5.329"/>
<path fill="#FFFFFF" d="M158.348,73.831h-10.167V68.63h10.167V73.831z M158.598,68.502h-10.667v5.457h10.667V68.502z"/>
<rect x="158.723" y="68.566" fill="#D0EAF0" width="10.417" height="5.329"/>
<path fill="#FFFFFF" d="M169.015,73.831h-10.167V68.63h10.167V73.831z M169.265,68.502h-10.667v5.457h10.667V68.502z"/>
<rect x="169.39" y="68.566" fill="#D0EAF0" width="10.417" height="5.329"/>
<path fill="#FFFFFF" d="M179.682,73.831h-10.167V68.63h10.167V73.831z M179.932,68.502h-10.667v5.457h10.667V68.502z"/>
<rect x="180.107" y="68.566" fill="#D0EAF0" width="10.418" height="5.329"/>
<path fill="#FFFFFF" d="M190.4,73.831h-10.168V68.63H190.4V73.831z M190.65,68.502h-10.668v5.457h10.668V68.502z"/>
<rect x="190.775" y="68.566" fill="#D0EAF0" width="10.416" height="5.329"/>
<path fill="#FFFFFF" d="M201.066,73.831H190.9V68.63h10.166V73.831z M201.316,68.502H190.65v5.457h10.666V68.502z"/>
<rect x="201.441" y="68.566" fill="#D0EAF0" width="10.418" height="5.329"/>
<path fill="#FFFFFF" d="M211.734,73.831h-10.168V68.63h10.168V73.831z M211.984,68.502h-10.668v5.457h10.668V68.502z"/>
<rect y="242.125" fill="#2E2D4B" width="145.417" height="14.875"/>
<rect x="48.167" y="242.125" fill="#2E2D4B" width="97.25" height="7.438"/>
<rect x="211.238" fill="#2E2D4B" width="6.084" height="117.374"/>
<rect x="211.238" y="145.916" fill="#2E2D4B" width="6.084" height="43.458"/>
<rect x="139.334" y="186.333" fill="#2E2D4B" width="6.083" height="57.542"/>
<rect x="192.25" y="170.791" fill="#2E2D4B" width="6.083" height="16.521"/>
<rect x="192.654" y="170.791" fill="#2E2D4B" width="19.511" height="6.083"/>
<rect x="39.586" y="120.042" fill="#2E2D4B" width="103.331" height="6.063"/>
<rect x="14.25" y="122.604" fill="#2E2D4B" width="108.75" height="3.5"/>
<rect x="148" y="73.834" fill="#2E2D4B" width="27.875" height="3.5"/>
<rect x="134.417" y="120.041" fill="#2E2D4B" width="15.583" height="3.5"/>
<rect x="198.251" y="73.834" fill="#2E2D4B" width="17.937" height="3.5"/>
<rect x="139.334" y="120.041" fill="#2E2D4B" width="3.583" height="13.75"/>
<rect x="139.334" y="158.708" fill="#2E2D4B" width="3.583" height="26.083"/>
<rect x="130.584" y="5.146" fill="#2E2D4B" width="3.583" height="29.042"/>
<rect x="147.146" y="5.146" fill="#2E2D4B" width="3.583" height="74.875"/>
<rect x="147.146" y="114.291" fill="#2E2D4B" width="3.583" height="9.25"/>
<rect y="2.125" fill="#2E2D4B" width="3.5" height="115.25"/>
<rect y="110.75" fill="#2E2D4B" width="52" height="14.875"/>
<rect y="212.25" fill="#2E2D4B" width="14.875" height="44.75"/>
<rect y="110.75" fill="#2E2D4B" width="14.875" height="44.75"/>
<rect x="35.667" y="102.375" fill="#2E2D4B" width="16.333" height="22"/>
<polyline fill="#2E2D4B" points="52,1.624 52,61.938 35.667,61.938 35.667,1.624 "/>
<rect x="43.833" y="1.624" fill="#2E2D4B" width="8.172" height="13.667"/>
<rect x="139.334" y="183.292" fill="#2E2D4B" width="77.988" height="6.083"/>
<rect fill="#2E2D4B" width="216.25" height="6.083"/>
<rect y="1.624" fill="#2E2D4B" width="36.5" height="3.667"/>
<rect x="130.584" y="31.585" fill="#2E2D4B" width="19.229" height="2.604"/>
<rect x="130.584" y="18.71" fill="#2E2D4B" width="19.229" height="2.604"/>
<rect x="130.584" y="25.085" fill="#2E2D4B" width="19.229" height="2.604"/>
<rect x="130.584" y="12.273" fill="#2E2D4B" width="9.615" height="2.603"/>
<rect x="137.594" y="12.273" fill="#2E2D4B" width="2.603" height="8.54"/>
<rect x="141.135" y="19.667" fill="#2E2D4B" width="2.603" height="13.219"/>
<rect x="188.75" y="5.824" fill="#9E9D9B" width="22.49" height="14.188"/>
<rect x="198.333" y="176.874" fill="#9E9D9B" width="12.905" height="6.417"/>
<polygon fill="#D7D7D5" points="202.411,178.791 198.333,183.291 211.239,183.291 211.239,176.874 "/>
<polygon fill="#9E9D9B" points="140.198,5.854 134.167,5.854 134.167,12.272 140.198,12.272 140.198,18.711 147.146,18.711 
	147.146,12.272 147.146,5.854 "/>
<rect x="143.76" y="27.689" fill="#9E9D9B" width="3.485" height="3.896"/>
<rect x="134.167" y="27.689" fill="#9E9D9B" width="7.203" height="3.896"/>
<rect x="143.76" y="21.314" fill="#9E9D9B" width="3.485" height="3.896"/>
<rect x="134.167" y="21.314" fill="#9E9D9B" width="7.203" height="3.896"/>
<polygon fill="#D7D7D5" points="136.125,22.563 141.369,21.313 141.369,25.21 134.167,25.21 "/>
<polygon fill="#D7D7D5" points="147.244,21.313 145,22.604 143.759,25.21 147.244,25.21 "/>
<rect x="134.166" y="14.875" fill="#9E9D9B" width="3.428" height="3.835"/>
<polygon fill="#D7D7D5" points="135.391,15.938 134.167,18.71 137.596,18.71 137.596,14.876 "/>
<rect y="155.5" fill="#A5DAEC" width="14.875" height="56.75"/>
<rect x="5.229" y="155.5" fill="#61A9C4" width="4.417" height="56.75"/>
<rect x="35.667" y="61.938" fill="#A5DAEC" width="16.333" height="40.438"/>
<rect x="41.408" y="61.938" fill="#61A9C4" width="4.85" height="40.438"/>
<rect x="139.334" y="156.458" fill="#E3004F" width="3.125" height="2.25"/>
<rect x="147.563" y="136.597" transform="matrix(-0.7071 -0.7071 0.7071 -0.7071 148.6779 358.9877)" fill="#E3004F" width="2.25" height="24.21"/>
<rect x="195.125" y="73.834" fill="#E3004F" width="3.125" height="2.25"/>
<rect x="187.77" y="71.736" transform="matrix(0.7071 0.7071 -0.7071 0.7071 114.61 -109.0123)" fill="#E3004F" width="2.25" height="24.209"/>
<rect x="214.197" y="143.666" fill="#E3004F" width="3.125" height="2.25"/>
<rect x="206.843" y="123.805" transform="matrix(0.7069 -0.7073 0.7073 0.7069 -35.1745 186.9374)" fill="#E3004F" width="2.25" height="24.209"/>
<rect x="147.604" y="112.041" fill="#E3004F" width="3.125" height="2.25"/>
<rect x="140.249" y="92.18" transform="matrix(0.7069 -0.7073 0.7073 0.7069 -32.3248 130.5643)" fill="#E3004F" width="2.25" height="24.209"/>
<rect x="35.667" y="61.938" fill="#E3004F" width="3.125" height="2.25"/>
<rect x="43.896" y="59.839" transform="matrix(-0.7071 0.7071 -0.7071 -0.7071 127.728 90.981)" fill="#E3004F" width="2.25" height="24.21"/>
<rect x="150.667" y="5.824" fill="#61A9C4" width="21.5" height="48.333"/>
<path fill="#FFFFFF" d="M159.4,12.668h0.494c0.1-0.454,0.444-0.797,0.897-0.896v-0.495C160.073,11.386,159.509,11.948,159.4,12.668"
	/>
<path fill="#FFFFFF" d="M160.394,12.668h0.397v-0.396C160.608,12.341,160.465,12.484,160.394,12.668"/>
<path fill="#FFFFFF" d="M159.894,13.168H159.4c0.109,0.719,0.673,1.282,1.391,1.392v-0.495
	C160.338,13.965,159.994,13.622,159.894,13.168"/>
<path fill="#FFFFFF" d="M160.791,13.565v-0.396h-0.397C160.464,13.352,160.608,13.494,160.791,13.565"/>
<path fill="#FFFFFF" d="M161.292,12.271v0.396h0.397C161.619,12.484,161.475,12.342,161.292,12.271"/>
<path fill="#FFFFFF" d="M161.689,13.168h-0.397v0.396C161.475,13.495,161.618,13.351,161.689,13.168"/>
<path fill="#FFFFFF" d="M170.041,11.46c0-1.3-1.064-2.364-2.364-2.364h-12.522c-1.3,0-2.364,1.064-2.364,2.364v30.167
	c0,0.166,0.019,0.329,0.052,0.486c-0.033,0.306-0.052,0.616-0.052,0.93c0,4.764,3.862,8.625,8.625,8.625
	c4.764,0,8.625-3.861,8.625-8.625c0-0.313-0.019-0.624-0.052-0.93c0.034-0.157,0.052-0.32,0.052-0.486V11.46z M164.062,13.168
	h-0.879c-0.116,0.993-0.899,1.774-1.892,1.892v0.88h-0.5v-0.88c-0.993-0.117-1.775-0.898-1.891-1.892h-0.88v-0.5h0.88
	c0.116-0.993,0.898-1.774,1.891-1.892V9.897h0.5v0.879c0.993,0.117,1.776,0.898,1.892,1.892h0.879V13.168z"/>
<path fill="#FFFFFF" d="M161.292,11.276v0.494c0.454,0.1,0.797,0.443,0.897,0.896h0.494
	C162.573,11.949,162.01,11.386,161.292,11.276"/>
<path fill="#FFFFFF" d="M161.292,14.065v0.494c0.719-0.109,1.282-0.674,1.391-1.391h-0.494
	C162.088,13.621,161.746,13.965,161.292,14.065"/>
<path fill="#61A9C4" d="M174,5.824v5.771v1.322v0.843c0,1.983,1.621,3.605,3.604,3.605h7.125c1.982,0,3.604-1.622,3.604-3.605
	v-0.843v-1.322V5.824H174z"/>
<path fill="#FFFFFF" d="M184.739,16.491h-7.146c-1.53,0-2.781-1.253-2.781-2.781v-1.833c0-1.53,1.251-2.782,2.781-2.782h7.146
	c1.53,0,2.781,1.252,2.781,2.782v1.833C187.521,15.238,186.27,16.491,184.739,16.491"/>
<path fill="#61A9C4" d="M179.957,12.733h0.364c0.073-0.334,0.327-0.587,0.661-0.661v-0.363
	C180.453,11.789,180.037,12.205,179.957,12.733"/>
<path fill="#61A9C4" d="M180.689,12.733h0.293V12.44C180.848,12.492,180.741,12.599,180.689,12.733"/>
<path fill="#61A9C4" d="M180.32,13.102h-0.363c0.08,0.529,0.496,0.945,1.025,1.025v-0.364
	C180.648,13.689,180.395,13.436,180.32,13.102"/>
<path fill="#61A9C4" d="M180.982,13.395v-0.293h-0.293C180.74,13.236,180.848,13.343,180.982,13.395"/>
<path fill="#61A9C4" d="M181.351,12.441v0.293h0.293C181.592,12.599,181.485,12.493,181.351,12.441"/>
<path fill="#61A9C4" d="M181.644,13.102h-0.293v0.294C181.485,13.343,181.592,13.237,181.644,13.102"/>
<path fill="#61A9C4" d="M181.351,11.709v0.363c0.334,0.074,0.587,0.327,0.661,0.661h0.363
	C182.295,12.204,181.879,11.788,181.351,11.709"/>
<path fill="#61A9C4" d="M181.351,13.763v0.364c0.53-0.08,0.944-0.496,1.024-1.025h-0.363
	C181.938,13.436,181.685,13.689,181.351,13.763"/>
<path fill="#61A9C4" d="M202.146,40.084h-2.375c-2.476,0-4.5-2.024-4.5-4.5v-4.625c0-2.476,2.024-4.5,4.5-4.5h2.375
	c2.476,0,4.5,2.024,4.5,4.5v4.625C206.646,38.06,204.621,40.084,202.146,40.084"/>
<path fill="#FFFFFF" d="M201.756,39.011h-1.596c-2.156,0-3.911-1.754-3.911-3.91v-5.231c0-2.155,1.755-3.911,3.911-3.911h1.596
	c2.156,0,3.91,1.756,3.91,3.911v5.231C205.666,37.257,203.912,39.011,201.756,39.011 M200.16,26.958
	c-1.605,0-2.911,1.307-2.911,2.911v5.231c0,1.604,1.306,2.91,2.911,2.91h1.596c1.605,0,2.91-1.307,2.91-2.91v-5.231
	c0-1.604-1.305-2.911-2.91-2.911H200.16z"/>
<path fill="#61A9C4" d="M206.208,26.762h-10.5c-0.619,0-1.125-0.506-1.125-1.125v-4.5c0-0.619,0.506-1.125,1.125-1.125h10.5
	c0.619,0,1.125,0.506,1.125,1.125v4.5C207.333,26.256,206.827,26.762,206.208,26.762"/>
<path fill="#61A9C4" d="M202.708,28.501h-3.5c-0.269,0-0.49-0.22-0.49-0.49v-2.5c0-0.269,0.222-0.488,0.49-0.488h3.5
	c0.269,0,0.489,0.22,0.489,0.488v2.5C203.197,28.281,202.977,28.501,202.708,28.501"/>
<path fill="#FFFFFF" d="M201.904,23.387c0,0.522-0.424,0.946-0.946,0.946s-0.946-0.424-0.946-0.946s0.424-0.946,0.946-0.946
	S201.904,22.864,201.904,23.387"/>
<rect x="109.197" y="5.945" fill="#B2D4DC" width="21.387" height="17.105"/>
<path fill="#FFFFFF" d="M126.265,8.85h-6.103h-0.772h-8.604v0.491h7.052c-0.311,0.218-0.57,0.5-0.769,0.824h-6.283v0.491h6.047
	c-0.094,0.26-0.152,0.536-0.162,0.825h-5.885v0.491h5.875v0.824h-5.875v0.491h5.875v0.824h-5.875v0.492h5.875v0.824h-5.875v0.49
	h5.875v0.826h-5.875v0.49h5.875v0.824h-5.875v0.492h5.885c0.01,0.289,0.068,0.563,0.162,0.823h-6.047v0.492h6.283
	c0.199,0.324,0.458,0.607,0.769,0.824h-7.052v0.491h8.604h0.772h6.103c1.501,0,2.729-1.229,2.729-2.729v-6.875
	C128.994,10.077,127.766,8.85,126.265,8.85"/>
<path fill="#61A9C4" d="M124.863,5.944h-4.333V8.85h1.666v2.842c0,0.155,0.127,0.281,0.282,0.281h0.437
	c0.155,0,0.281-0.126,0.281-0.281V8.85h1.667V5.944z"/>
<path fill="#FFFFFF" d="M122.095,7.399c0,0.267-0.217,0.483-0.484,0.483c-0.268,0-0.485-0.217-0.485-0.483
	c0-0.269,0.217-0.484,0.485-0.484C121.878,6.915,122.095,7.131,122.095,7.399"/>
<path fill="#FFFFFF" d="M124.267,7.399c0,0.267-0.217,0.483-0.484,0.483c-0.268,0-0.485-0.217-0.485-0.483
	c0-0.269,0.217-0.484,0.485-0.484C124.05,6.915,124.267,7.131,124.267,7.399"/>
<rect x="80.484" y="5.944" fill="#B2D4DC" width="15.25" height="2.903"/>
<rect x="80.484" y="8.849" fill="#61A9C4" width="15.25" height="14.202"/>
<rect x="81.984" y="23.711" fill="#61A9C4" width="12.25" height="0.927"/>
<path fill="#FFFFFF" d="M91.444,14.726c-1.327,0-2.406-1.079-2.406-2.405c0-1.327,1.079-2.406,2.406-2.406
	c1.326,0,2.405,1.079,2.405,2.406C93.849,13.646,92.77,14.726,91.444,14.726 M91.444,10.664c-0.913,0-1.656,0.743-1.656,1.656
	s0.743,1.657,1.656,1.657s1.655-0.744,1.655-1.657S92.357,10.664,91.444,10.664"/>
<path fill="#FFFFFF" d="M91.444,13.57c-0.689,0-1.25-0.562-1.25-1.25s0.561-1.25,1.25-1.25s1.25,0.562,1.25,1.25
	S92.133,13.57,91.444,13.57 M91.444,11.82c-0.275,0-0.5,0.224-0.5,0.5c0,0.275,0.225,0.5,0.5,0.5s0.5-0.225,0.5-0.5
	C91.944,12.044,91.719,11.82,91.444,11.82"/>
<path fill="#FFFFFF" d="M91.444,20.3c-0.908,0-1.646-0.739-1.646-1.646c0-0.909,0.738-1.646,1.646-1.646
	c0.907,0,1.646,0.737,1.646,1.646C93.09,19.561,92.351,20.3,91.444,20.3 M91.444,17.758c-0.494,0-0.896,0.401-0.896,0.896
	c0,0.493,0.402,0.896,0.896,0.896s0.896-0.402,0.896-0.896C92.34,18.159,91.938,17.758,91.444,17.758"/>
<path fill="#FFFFFF" d="M91.444,21.987c-1.838,0-3.334-1.496-3.334-3.334c0-1.837,1.496-3.333,3.334-3.333s3.333,1.496,3.333,3.333
	C94.777,20.491,93.282,21.987,91.444,21.987 M91.444,16.07c-1.425,0-2.584,1.159-2.584,2.583c0,1.425,1.159,2.584,2.584,2.584
	c1.424,0,2.583-1.159,2.583-2.584C94.027,17.229,92.868,16.07,91.444,16.07"/>
<path fill="#FFFFFF" d="M84.776,17.175c1.327,0,2.406,1.08,2.406,2.405c0,1.327-1.079,2.406-2.406,2.406
	c-1.326,0-2.405-1.079-2.405-2.406C82.371,18.255,83.45,17.175,84.776,17.175 M84.776,21.236c0.913,0,1.656-0.743,1.656-1.656
	c0-0.912-0.743-1.655-1.656-1.655s-1.655,0.743-1.655,1.655C83.121,20.493,83.863,21.236,84.776,21.236"/>
<path fill="#FFFFFF" d="M84.776,18.331c0.689,0,1.25,0.561,1.25,1.25c0,0.688-0.561,1.25-1.25,1.25s-1.25-0.563-1.25-1.25
	C83.526,18.892,84.087,18.331,84.776,18.331 M84.776,20.081c0.275,0,0.5-0.225,0.5-0.5c0-0.276-0.225-0.5-0.5-0.5
	s-0.5,0.224-0.5,0.5C84.276,19.856,84.501,20.081,84.776,20.081"/>
<path fill="#FFFFFF" d="M84.776,11.602c0.908,0,1.646,0.738,1.646,1.646c0,0.908-0.738,1.646-1.646,1.646
	c-0.907,0-1.646-0.738-1.646-1.646C83.13,12.34,83.869,11.602,84.776,11.602 M84.776,14.144c0.494,0,0.896-0.402,0.896-0.896
	s-0.402-0.896-0.896-0.896s-0.896,0.401-0.896,0.896S84.282,14.144,84.776,14.144"/>
<path fill="#FFFFFF" d="M84.776,9.914c1.838,0,3.334,1.496,3.334,3.334c0,1.837-1.496,3.333-3.334,3.333s-3.333-1.496-3.333-3.333
	C81.443,11.41,82.938,9.914,84.776,9.914 M84.776,15.831c1.425,0,2.584-1.159,2.584-2.583c0-1.426-1.159-2.584-2.584-2.584
	c-1.424,0-2.583,1.158-2.583,2.584C82.193,14.672,83.352,15.831,84.776,15.831"/>
<rect x="84.858" y="23.051" fill="#B2D4DC" width="1.481" height="0.66"/>
<rect x="89.879" y="23.051" fill="#B2D4DC" width="1.481" height="0.66"/>
<rect x="52.001" y="5.945" fill="#B2D4DC" width="16.937" height="17.105"/>
<path fill="#61A9C4" d="M52.005,23.523c0.015,0.615,0.398,1.115,0.87,1.115h15.187c0.472,0,0.855-0.5,0.87-1.115H52.005z"/>
<rect x="68.936" y="5.945" fill="#D0EAF0" width="11.548" height="17.105"/>
<rect x="95.734" y="5.945" fill="#D0EAF0" width="13.462" height="17.105"/>
<path fill="#E3004F" d="M55.899,192.946H42.956v-24.984c0-3.034,0.065-5.811,0.194-8.328c-0.797,0.969-1.787,1.98-2.97,3.034
	l-5.359,4.424l-6.617-8.136l16.204-13.202h11.492V192.946z"/>
<path fill="#2E2D4B" d="M73.551,163.156h-4.365v-8.426c0-1.022,0.022-1.959,0.065-2.809c-0.268,0.327-0.602,0.668-1.001,1.023
	l-1.807,1.491l-2.232-2.743l5.465-4.452h3.875V163.156z"/>
<path fill="#2E2D4B" d="M82.934,147.013c1.676,0,2.981,0.338,3.914,1.013c0.932,0.675,1.398,1.633,1.398,2.874
	c0,0.842-0.22,1.58-0.658,2.215c-0.44,0.635-1.134,1.188-2.085,1.66c1.176,0.668,2.005,1.333,2.487,1.997
	c0.483,0.664,0.725,1.381,0.725,2.15c0,1.415-0.512,2.511-1.535,3.287c-1.024,0.776-2.454,1.165-4.289,1.165
	c-1.873,0-3.306-0.379-4.3-1.138c-0.994-0.758-1.491-1.849-1.491-3.271c0-0.921,0.221-1.707,0.664-2.356
	c0.442-0.649,1.186-1.239,2.231-1.769c-0.842-0.566-1.457-1.174-1.845-1.823c-0.388-0.649-0.583-1.362-0.583-2.14
	c0-1.219,0.476-2.168,1.427-2.846C79.944,147.353,81.258,147.013,82.934,147.013 M81.04,158.791c0,0.45,0.159,0.812,0.479,1.083
	c0.32,0.272,0.762,0.408,1.328,0.408c1.277,0,1.916-0.468,1.916-1.404c0-0.355-0.14-0.705-0.419-1.05
	c-0.28-0.345-0.779-0.731-1.497-1.159c-0.646,0.341-1.109,0.684-1.388,1.028C81.18,158.042,81.04,158.406,81.04,158.791
	 M82.912,150.115c-0.37,0-0.682,0.107-0.936,0.321c-0.253,0.214-0.38,0.49-0.38,0.833c0,0.624,0.423,1.176,1.273,1.654
	c0.515-0.298,0.867-0.569,1.056-0.816c0.188-0.247,0.283-0.526,0.283-0.838c0-0.349-0.127-0.628-0.381-0.839
	S83.267,150.115,82.912,150.115"/>
<path fill="#2E2D4B" d="M94.843,159.901l0.152,0.25c-0.704,2.766-1.342,4.801-1.916,6.107h-3.037
	c0.211-1.002,0.423-2.125,0.637-3.369c0.215-1.244,0.361-2.24,0.441-2.988H94.843z"/>
<path fill="#2E2D4B" d="M108.592,155.221c0,2.815-0.473,4.879-1.415,6.188c-0.945,1.31-2.388,1.965-4.333,1.965
	c-1.902,0-3.335-0.684-4.3-2.052s-1.447-3.402-1.447-6.102c0-2.83,0.471-4.905,1.415-6.227c0.943-1.32,2.386-1.981,4.332-1.981
	c1.894,0,3.325,0.688,4.295,2.063C108.107,150.451,108.592,152.499,108.592,155.221 M101.374,155.221c0,1.8,0.112,3.037,0.338,3.712
	c0.224,0.675,0.602,1.013,1.132,1.013c0.537,0,0.916-0.349,1.137-1.045c0.222-0.697,0.332-1.924,0.332-3.68
	c0-1.764-0.112-2.999-0.337-3.707c-0.225-0.707-0.603-1.061-1.132-1.061c-0.53,0-0.908,0.341-1.132,1.022
	C101.486,152.157,101.374,153.406,101.374,155.221"/>
<path fill="#2E2D4B" d="M121.654,155.221c0,2.815-0.473,4.879-1.415,6.188c-0.945,1.31-2.388,1.965-4.333,1.965
	c-1.902,0-3.335-0.684-4.3-2.052s-1.447-3.402-1.447-6.102c0-2.83,0.471-4.905,1.415-6.227c0.943-1.32,2.386-1.981,4.332-1.981
	c1.894,0,3.325,0.688,4.295,2.063C121.169,150.451,121.654,152.499,121.654,155.221 M114.437,155.221c0,1.8,0.112,3.037,0.338,3.712
	c0.224,0.675,0.602,1.013,1.132,1.013c0.537,0,0.916-0.349,1.137-1.045c0.222-0.697,0.332-1.924,0.332-3.68
	c0-1.764-0.112-2.999-0.337-3.707c-0.225-0.707-0.603-1.061-1.132-1.061c-0.53,0-0.908,0.341-1.132,1.022
	C114.548,152.157,114.437,153.406,114.437,155.221"/>
<rect x="64.589" y="168.549" fill="#2E2D4B" width="58.898" height="1.775"/>
<path fill="#2E2D4B" d="M176.877,57.391c0.596,0,1.133,0.139,1.613,0.415s0.854,0.668,1.12,1.174
	c0.269,0.507,0.402,1.091,0.402,1.752c0,1.159-0.349,2.048-1.048,2.668c-0.696,0.619-1.752,0.928-3.166,0.928
	c-1.211,0-2.199-0.186-2.965-0.56V61.47c0.41,0.189,0.875,0.345,1.394,0.468c0.517,0.123,0.963,0.185,1.337,0.185
	c0.52,0,0.919-0.109,1.199-0.33c0.279-0.22,0.419-0.545,0.419-0.975c0-0.397-0.144-0.707-0.427-0.93
	c-0.283-0.222-0.715-0.333-1.291-0.333c-0.44,0-0.914,0.082-1.426,0.248l-1.029-0.511l0.391-5.477h5.916v2.334h-3.531l-0.129,1.369
	c0.369-0.071,0.631-0.11,0.787-0.117C176.601,57.395,176.744,57.391,176.877,57.391"/>
<path fill="#2E2D4B" d="M184.211,62.065l0.101,0.163c-0.459,1.802-0.875,3.129-1.248,3.979h-1.979
	c0.137-0.652,0.274-1.384,0.414-2.195c0.141-0.811,0.235-1.46,0.287-1.947H184.211z"/>
<path fill="#2E2D4B" d="M193.129,64.187h-7.526v-1.845l2.532-2.561c0.723-0.757,1.195-1.273,1.418-1.55
	c0.223-0.275,0.377-0.515,0.466-0.713c0.087-0.198,0.131-0.406,0.131-0.624c0-0.27-0.087-0.482-0.263-0.639
	s-0.422-0.234-0.737-0.234c-0.327,0-0.657,0.094-0.99,0.28c-0.334,0.188-0.711,0.463-1.132,0.826l-1.539-1.802
	c0.535-0.478,0.984-0.819,1.348-1.024c0.364-0.206,0.76-0.363,1.188-0.471c0.428-0.11,0.91-0.164,1.444-0.164
	c0.67,0,1.27,0.118,1.798,0.354c0.526,0.236,0.936,0.573,1.227,1.011s0.437,0.928,0.437,1.472c0,0.407-0.051,0.783-0.152,1.128
	c-0.102,0.346-0.259,0.685-0.473,1.019c-0.211,0.333-0.494,0.685-0.848,1.053c-0.351,0.369-1.102,1.069-2.252,2.1v0.071h3.924
	V64.187z"/>
<path fill="#2E2D4B" d="M201.684,59.016c0,1.835-0.307,3.179-0.923,4.032c-0.614,0.854-1.555,1.279-2.823,1.279
	c-1.237,0-2.172-0.444-2.802-1.336c-0.629-0.892-0.942-2.217-0.942-3.976c0-1.845,0.308-3.197,0.922-4.058
	c0.615-0.861,1.555-1.291,2.822-1.291c1.234,0,2.168,0.448,2.799,1.344C201.368,55.907,201.684,57.243,201.684,59.016
	 M196.98,59.016c0,1.173,0.074,1.979,0.221,2.419s0.392,0.659,0.736,0.659c0.352,0,0.599-0.226,0.742-0.681
	c0.145-0.454,0.217-1.252,0.217-2.397c0-1.149-0.074-1.955-0.221-2.416s-0.392-0.691-0.738-0.691c-0.345,0-0.59,0.223-0.736,0.667
	S196.98,57.833,196.98,59.016"/>
<path fill="#2E2D4B" d="M152.465,169.563c1.092,0,1.942,0.22,2.55,0.659c0.608,0.44,0.912,1.064,0.912,1.873
	c0,0.549-0.143,1.029-0.429,1.443s-0.739,0.774-1.359,1.082c0.766,0.435,1.306,0.869,1.621,1.302c0.314,0.434,0.471,0.899,0.471,1.4
	c0,0.923-0.333,1.637-1,2.143s-1.598,0.759-2.795,0.759c-1.219,0-2.154-0.247-2.801-0.741c-0.648-0.494-0.972-1.204-0.972-2.132
	c0-0.601,0.144-1.112,0.433-1.535c0.288-0.424,0.773-0.808,1.454-1.153c-0.549-0.368-0.95-0.766-1.203-1.188
	c-0.252-0.424-0.379-0.888-0.379-1.395c0-0.794,0.309-1.412,0.929-1.854C150.516,169.784,151.373,169.563,152.465,169.563
	 M151.23,177.238c0,0.294,0.105,0.528,0.313,0.706s0.497,0.266,0.865,0.266c0.833,0,1.249-0.305,1.249-0.915
	c0-0.231-0.092-0.46-0.273-0.685c-0.182-0.225-0.507-0.476-0.976-0.754c-0.421,0.221-0.723,0.444-0.904,0.669
	C151.322,176.75,151.23,176.988,151.23,177.238 M152.451,171.585c-0.241,0-0.444,0.069-0.61,0.209
	c-0.165,0.14-0.248,0.32-0.248,0.543c0,0.406,0.276,0.766,0.83,1.078c0.336-0.194,0.564-0.371,0.687-0.532
	c0.123-0.16,0.185-0.343,0.185-0.546c0-0.228-0.083-0.409-0.248-0.546C152.881,171.653,152.682,171.585,152.451,171.585"/>
<path fill="#2E2D4B" d="M160.226,177.962l0.1,0.163c-0.459,1.802-0.875,3.129-1.248,3.979h-1.98
	c0.137-0.652,0.275-1.384,0.415-2.195c0.14-0.811,0.235-1.46,0.287-1.947H160.226z"/>
<path fill="#2E2D4B" d="M165.894,173.287c0.596,0,1.134,0.139,1.614,0.415c0.48,0.276,0.854,0.668,1.12,1.174
	c0.268,0.507,0.402,1.091,0.402,1.752c0,1.159-0.349,2.048-1.047,2.668c-0.697,0.619-1.753,0.928-3.167,0.928
	c-1.211,0-2.199-0.186-2.965-0.56v-2.298c0.411,0.189,0.876,0.345,1.394,0.468c0.517,0.123,0.963,0.185,1.337,0.185
	c0.52,0,0.919-0.109,1.199-0.33c0.279-0.22,0.419-0.545,0.419-0.975c0-0.397-0.143-0.707-0.426-0.93
	c-0.284-0.222-0.715-0.333-1.291-0.333c-0.441,0-0.915,0.082-1.426,0.248l-1.029-0.511l0.39-5.477h5.916v2.334h-3.532l-0.128,1.369
	c0.369-0.071,0.631-0.11,0.787-0.117C165.618,173.291,165.762,173.287,165.894,173.287"/>
<path fill="#2E2D4B" d="M177.698,174.912c0,1.835-0.308,3.179-0.923,4.032c-0.614,0.854-1.555,1.279-2.823,1.279
	c-1.238,0-2.173-0.444-2.802-1.336c-0.629-0.892-0.943-2.217-0.943-3.976c0-1.845,0.308-3.197,0.922-4.058
	c0.615-0.861,1.555-1.291,2.823-1.291c1.233,0,2.167,0.448,2.799,1.344C177.382,171.804,177.698,173.139,177.698,174.912
	 M172.995,174.912c0,1.173,0.073,1.979,0.22,2.419s0.393,0.659,0.737,0.659c0.351,0,0.599-0.227,0.741-0.681
	c0.145-0.454,0.217-1.252,0.217-2.397c0-1.149-0.073-1.955-0.221-2.416c-0.146-0.461-0.392-0.691-0.737-0.691
	c-0.345,0-0.591,0.223-0.737,0.667S172.995,173.729,172.995,174.912"/>
<path fill="#2E2D4B" d="M61.059,117.374h-2.845v-5.49c0-0.667,0.014-1.277,0.042-1.83c-0.175,0.213-0.392,0.435-0.652,0.666
	l-1.178,0.973l-1.454-1.788l3.562-2.901h2.525V117.374z"/>
<path fill="#2E2D4B" d="M70.5,109.252c0,0.643-0.196,1.195-0.589,1.656c-0.392,0.461-0.96,0.796-1.702,1.004v0.042
	c1.73,0.218,2.596,1.036,2.596,2.455c0,0.965-0.382,1.724-1.146,2.276c-0.763,0.554-1.824,0.83-3.18,0.83
	c-0.559,0-1.076-0.04-1.551-0.12c-0.475-0.08-0.99-0.228-1.543-0.44v-2.326c0.454,0.231,0.917,0.403,1.387,0.515
	c0.47,0.11,0.905,0.166,1.301,0.166c0.615,0,1.064-0.086,1.345-0.259c0.281-0.173,0.422-0.444,0.422-0.813
	c0-0.283-0.073-0.502-0.22-0.656c-0.146-0.153-0.383-0.27-0.709-0.347c-0.327-0.078-0.752-0.117-1.277-0.117h-0.639v-2.107h0.653
	c1.423,0,2.135-0.364,2.135-1.092c0-0.274-0.105-0.479-0.315-0.61c-0.211-0.133-0.493-0.198-0.848-0.198
	c-0.662,0-1.348,0.222-2.057,0.666l-1.164-1.872c0.549-0.38,1.111-0.648,1.685-0.809c0.575-0.161,1.233-0.241,1.976-0.241
	c1.073,0,1.915,0.213,2.525,0.638C70.195,107.918,70.5,108.505,70.5,109.252"/>
<path fill="#2E2D4B" d="M74.934,115.253l0.1,0.163c-0.459,1.802-0.875,3.129-1.248,3.979h-1.98c0.137-0.652,0.275-1.384,0.415-2.195
	c0.14-0.811,0.235-1.46,0.287-1.947H74.934z"/>
<path fill="#2E2D4B" d="M83.503,109.252c0,0.643-0.196,1.195-0.589,1.656c-0.392,0.461-0.96,0.796-1.702,1.004v0.042
	c1.73,0.218,2.596,1.036,2.596,2.455c0,0.965-0.382,1.724-1.146,2.276c-0.763,0.554-1.824,0.83-3.18,0.83
	c-0.559,0-1.076-0.04-1.551-0.12c-0.475-0.08-0.99-0.228-1.543-0.44v-2.326c0.454,0.231,0.917,0.403,1.387,0.515
	c0.47,0.11,0.905,0.166,1.301,0.166c0.615,0,1.064-0.086,1.345-0.259c0.281-0.173,0.422-0.444,0.422-0.813
	c0-0.283-0.073-0.502-0.22-0.656c-0.146-0.153-0.383-0.27-0.709-0.347c-0.327-0.078-0.752-0.117-1.277-0.117h-0.639v-2.107h0.653
	c1.423,0,2.135-0.364,2.135-1.092c0-0.274-0.105-0.479-0.315-0.61c-0.211-0.133-0.493-0.198-0.848-0.198
	c-0.662,0-1.348,0.222-2.057,0.666l-1.164-1.872c0.549-0.38,1.111-0.648,1.685-0.809c0.575-0.161,1.233-0.241,1.976-0.241
	c1.073,0,1.915,0.213,2.525,0.638C83.198,107.918,83.503,108.505,83.503,109.252"/>
<path fill="#2E2D4B" d="M92.406,112.203c0,1.835-0.307,3.179-0.923,4.032c-0.614,0.854-1.555,1.279-2.823,1.279
	c-1.238,0-2.173-0.444-2.802-1.336c-0.629-0.892-0.943-2.217-0.943-3.976c0-1.845,0.308-3.197,0.922-4.058
	c0.615-0.861,1.555-1.291,2.823-1.291c1.234,0,2.167,0.448,2.799,1.344C92.09,109.095,92.406,110.431,92.406,112.203
	 M87.703,112.203c0,1.173,0.073,1.979,0.22,2.419c0.146,0.439,0.392,0.659,0.737,0.659c0.351,0,0.598-0.226,0.741-0.681
	c0.145-0.454,0.217-1.252,0.217-2.397c0-1.149-0.073-1.955-0.22-2.416c-0.146-0.461-0.392-0.691-0.738-0.691
	c-0.345,0-0.591,0.223-0.737,0.667C87.776,110.207,87.703,111.021,87.703,112.203"/>
<path fill="#2E2D4B" d="M12.458,20.012H4.933v-1.845l2.532-2.561c0.723-0.757,1.196-1.273,1.419-1.55
	c0.222-0.276,0.377-0.515,0.465-0.713c0.087-0.198,0.131-0.406,0.131-0.624c0-0.27-0.087-0.482-0.263-0.639
	c-0.175-0.156-0.421-0.234-0.737-0.234c-0.327,0-0.657,0.094-0.99,0.28c-0.334,0.188-0.711,0.463-1.132,0.826l-1.539-1.802
	c0.535-0.478,0.984-0.819,1.348-1.024c0.364-0.206,0.76-0.363,1.188-0.472c0.428-0.109,0.91-0.163,1.444-0.163
	c0.671,0,1.27,0.118,1.798,0.354c0.527,0.236,0.936,0.573,1.227,1.011s0.437,0.928,0.437,1.472c0,0.407-0.051,0.783-0.153,1.128
	c-0.102,0.346-0.259,0.685-0.472,1.019c-0.212,0.333-0.495,0.685-0.848,1.053c-0.351,0.369-1.102,1.069-2.252,2.1v0.07h3.923V20.012
	z"/>
<path fill="#2E2D4B" d="M16.544,17.891l0.1,0.163c-0.459,1.802-0.875,3.129-1.248,3.979h-1.98c0.137-0.652,0.275-1.384,0.415-2.195
	c0.14-0.811,0.235-1.46,0.287-1.947H16.544z"/>
<path fill="#2E2D4B" d="M25.114,11.89c0,0.643-0.196,1.195-0.589,1.656c-0.392,0.461-0.96,0.796-1.702,1.004v0.042
	c1.73,0.218,2.596,1.036,2.596,2.455c0,0.965-0.382,1.724-1.146,2.276c-0.763,0.554-1.824,0.83-3.18,0.83
	c-0.559,0-1.076-0.04-1.551-0.12c-0.475-0.081-0.99-0.228-1.543-0.44v-2.326c0.454,0.231,0.917,0.403,1.387,0.515
	c0.47,0.11,0.905,0.166,1.301,0.166c0.615,0,1.064-0.086,1.345-0.259c0.281-0.173,0.422-0.443,0.422-0.813
	c0-0.283-0.073-0.502-0.22-0.656c-0.146-0.153-0.383-0.27-0.709-0.347c-0.327-0.078-0.752-0.117-1.277-0.117h-0.639v-2.107h0.653
	c1.423,0,2.135-0.364,2.135-1.092c0-0.274-0.105-0.478-0.315-0.61c-0.211-0.133-0.493-0.198-0.848-0.198
	c-0.662,0-1.348,0.222-2.057,0.666l-1.164-1.872c0.549-0.379,1.111-0.648,1.685-0.809c0.575-0.161,1.233-0.241,1.976-0.241
	c1.073,0,1.915,0.212,2.525,0.638S25.114,11.143,25.114,11.89"/>
<path fill="#2E2D4B" d="M34.017,14.841c0,1.835-0.307,3.179-0.923,4.032c-0.614,0.854-1.555,1.28-2.823,1.28
	c-1.238,0-2.173-0.445-2.802-1.337c-0.629-0.892-0.943-2.217-0.943-3.976c0-1.845,0.308-3.197,0.922-4.058
	c0.615-0.861,1.555-1.291,2.823-1.291c1.234,0,2.167,0.448,2.799,1.344C33.701,11.732,34.017,13.067,34.017,14.841 M29.314,14.841
	c0,1.173,0.073,1.979,0.22,2.419c0.146,0.439,0.392,0.659,0.737,0.659c0.351,0,0.598-0.227,0.741-0.681
	c0.145-0.454,0.217-1.253,0.217-2.397c0-1.149-0.073-1.955-0.22-2.416c-0.146-0.461-0.392-0.691-0.738-0.691
	c-0.345,0-0.591,0.223-0.737,0.668C29.387,12.845,29.314,13.658,29.314,14.841"/>
<path fill="#2E2D4B" d="M24.932,239.45h-2.845v-5.49c0-0.667,0.014-1.277,0.042-1.83c-0.175,0.213-0.392,0.435-0.652,0.666
	l-1.178,0.973l-1.454-1.788l3.562-2.901h2.525V239.45z"/>
<path fill="#2E2D4B" d="M31.047,228.931c1.092,0,1.942,0.22,2.55,0.659c0.608,0.44,0.912,1.064,0.912,1.873
	c0,0.549-0.143,1.029-0.429,1.443s-0.739,0.774-1.359,1.082c0.766,0.435,1.306,0.869,1.621,1.302c0.314,0.434,0.471,0.899,0.471,1.4
	c0,0.923-0.333,1.637-1,2.143s-1.598,0.759-2.795,0.759c-1.219,0-2.154-0.247-2.801-0.741c-0.648-0.494-0.972-1.204-0.972-2.132
	c0-0.601,0.144-1.112,0.433-1.535c0.288-0.424,0.773-0.808,1.454-1.153c-0.549-0.368-0.95-0.766-1.203-1.188
	c-0.252-0.424-0.379-0.888-0.379-1.395c0-0.794,0.309-1.412,0.929-1.854C29.098,229.151,29.955,228.931,31.047,228.931
	 M29.812,236.605c0,0.294,0.105,0.528,0.313,0.706s0.497,0.266,0.865,0.266c0.833,0,1.249-0.305,1.249-0.915
	c0-0.231-0.092-0.46-0.273-0.685c-0.182-0.225-0.507-0.476-0.976-0.754c-0.421,0.221-0.723,0.444-0.904,0.669
	C29.904,236.117,29.812,236.355,29.812,236.605 M31.033,230.952c-0.241,0-0.444,0.069-0.61,0.209
	c-0.165,0.14-0.248,0.32-0.248,0.543c0,0.406,0.276,0.766,0.83,1.078c0.336-0.194,0.564-0.371,0.687-0.532
	c0.123-0.16,0.185-0.343,0.185-0.546c0-0.228-0.083-0.409-0.248-0.546C31.463,231.021,31.264,230.952,31.033,230.952"/>
<path fill="#2E2D4B" d="M38.807,237.329l0.1,0.163c-0.459,1.802-0.875,3.129-1.248,3.979h-1.98c0.137-0.652,0.275-1.384,0.415-2.195
	c0.14-0.811,0.235-1.46,0.287-1.947H38.807z"/>
<path fill="#2E2D4B" d="M47.767,234.279c0,1.835-0.307,3.179-0.923,4.032c-0.614,0.854-1.555,1.28-2.823,1.28
	c-1.238,0-2.173-0.445-2.802-1.337c-0.629-0.892-0.943-2.217-0.943-3.976c0-1.845,0.308-3.197,0.922-4.058
	c0.615-0.861,1.555-1.291,2.823-1.291c1.234,0,2.167,0.448,2.799,1.344C47.451,231.171,47.767,232.507,47.767,234.279
	 M43.064,234.279c0,1.173,0.073,1.979,0.22,2.419c0.146,0.439,0.392,0.659,0.737,0.659c0.351,0,0.598-0.226,0.741-0.681
	c0.145-0.454,0.217-1.252,0.217-2.397c0-1.149-0.073-1.955-0.22-2.416c-0.146-0.461-0.392-0.691-0.738-0.691
	c-0.345,0-0.591,0.223-0.737,0.667C43.137,232.283,43.064,233.097,43.064,234.279"/>
<path fill="#2E2D4B" d="M56.28,234.279c0,1.835-0.307,3.179-0.923,4.032c-0.614,0.854-1.555,1.28-2.823,1.28
	c-1.238,0-2.173-0.445-2.802-1.337c-0.629-0.892-0.943-2.217-0.943-3.976c0-1.845,0.308-3.197,0.922-4.058
	c0.615-0.861,1.555-1.291,2.823-1.291c1.234,0,2.167,0.448,2.799,1.344C55.964,231.171,56.28,232.507,56.28,234.279 M51.577,234.279
	c0,1.173,0.073,1.979,0.22,2.419c0.146,0.439,0.392,0.659,0.737,0.659c0.351,0,0.598-0.226,0.741-0.681
	c0.145-0.454,0.217-1.252,0.217-2.397c0-1.149-0.073-1.955-0.22-2.416c-0.146-0.461-0.392-0.691-0.738-0.691
	c-0.345,0-0.591,0.223-0.737,0.667C51.65,232.283,51.577,233.097,51.577,234.279"/>
<path fill="#2E2D4B" d="M77.234,186.765h-1.77v3.11h-4.286v-3.11h-6.407v-3.187l6.682-9.771h4.011v9.715h1.77V186.765z
	 M71.178,183.522v-1.868c0-0.352,0.013-0.826,0.039-1.423c0.025-0.598,0.045-0.91,0.06-0.939h-0.121
	c-0.249,0.563-0.531,1.091-0.846,1.582l-1.78,2.648H71.178z"/>
<polygon fill="#2E2D4B" points="79.871,189.875 85.388,177.423 78.432,177.423 78.432,173.829 90.026,173.829 90.026,176.391 
	84.366,189.875 "/>
<path fill="#2E2D4B" d="M96.235,186.589l0.154,0.253c-0.711,2.792-1.355,4.847-1.934,6.166h-3.067
	c0.213-1.012,0.428-2.146,0.643-3.401c0.217-1.257,0.365-2.263,0.446-3.018H96.235z"/>
<path fill="#2E2D4B" d="M109.512,177.291c0,0.997-0.304,1.853-0.912,2.566c-0.609,0.715-1.487,1.233-2.638,1.556v0.064
	c2.682,0.338,4.023,1.605,4.023,3.804c0,1.495-0.592,2.671-1.775,3.528c-1.184,0.856-2.826,1.285-4.929,1.285
	c-0.865,0-1.665-0.063-2.402-0.187c-0.736-0.125-1.533-0.352-2.39-0.682v-3.604c0.703,0.359,1.419,0.624,2.148,0.797
	c0.729,0.172,1.402,0.258,2.017,0.258c0.953,0,1.647-0.134,2.083-0.401c0.436-0.267,0.654-0.687,0.654-1.258
	c0-0.439-0.114-0.778-0.341-1.017s-0.594-0.418-1.099-0.539c-0.505-0.12-1.165-0.181-1.978-0.181h-0.989v-3.265h1.011
	c2.205,0,3.308-0.563,3.308-1.692c0-0.425-0.163-0.74-0.489-0.945c-0.326-0.205-0.764-0.308-1.314-0.308
	c-1.026,0-2.088,0.345-3.187,1.033l-1.802-2.901c0.85-0.586,1.72-1.004,2.61-1.253s1.911-0.373,3.061-0.373
	c1.663,0,2.967,0.329,3.913,0.988C109.039,175.226,109.512,176.134,109.512,177.291"/>
<path fill="#2E2D4B" d="M123.304,181.863c0,2.843-0.476,4.926-1.429,6.248c-0.952,1.322-2.41,1.983-4.374,1.983
	c-1.919,0-3.366-0.69-4.34-2.071c-0.975-1.381-1.462-3.435-1.462-6.16c0-2.857,0.476-4.953,1.428-6.286c0.953-1.334,2.411-2,4.374-2
	c1.913,0,3.358,0.693,4.336,2.082S123.304,179.116,123.304,181.863 M116.018,181.863c0,1.817,0.113,3.066,0.34,3.748
	c0.228,0.681,0.609,1.022,1.143,1.022c0.543,0,0.926-0.353,1.149-1.056c0.223-0.703,0.335-1.941,0.335-3.715
	c0-1.78-0.113-3.027-0.341-3.742c-0.227-0.714-0.607-1.07-1.143-1.07c-0.534,0-0.915,0.343-1.143,1.032
	C116.131,178.771,116.018,180.031,116.018,181.863"/>
</svg>
