<?xml version="1.0" encoding="utf-8"?>
<!-- Generator: Adobe Illustrator 16.0.0, SVG Export Plug-In . SVG Version: 6.00 Build 0)  -->
<!DOCTYPE svg PUBLIC "-//W3C//DTD SVG 1.1//EN" "http://www.w3.org/Graphics/SVG/1.1/DTD/svg11.dtd">
<svg version="1.1" id="Слой_1" xmlns="http://www.w3.org/2000/svg" xmlns:xlink="http://www.w3.org/1999/xlink" x="0px" y="0px"
	 width="272.566px" height="258.403px" viewBox="0 0 272.566 258.403" enable-background="new 0 0 272.566 258.403"
	 xml:space="preserve">
<path fill="#E3004F" d="M164.277,177.572h-12.943v-24.984c0-3.034,0.064-5.811,0.193-8.328c-0.797,0.969-1.787,1.98-2.97,3.034
	l-5.359,4.424l-6.616-8.136l16.203-13.202h11.492V177.572z"/>
<path fill="#2E2D4B" d="M181.929,147.782h-4.365v-8.426c0-1.022,0.022-1.959,0.065-2.809c-0.268,0.327-0.602,0.668-1.001,1.023
	l-1.808,1.491l-2.231-2.743l5.465-4.452h3.875V147.782z"/>
<path fill="#2E2D4B" d="M197.07,139.15c0,3.113-0.671,5.366-2.014,6.76c-1.342,1.394-3.49,2.089-6.444,2.089
	c-0.974,0-1.713-0.035-2.222-0.108v-3.406c0.625,0.115,1.248,0.174,1.873,0.174c1.539,0,2.726-0.317,3.561-0.952
	c0.834-0.636,1.288-1.639,1.359-3.011h-0.131c-0.282,0.522-0.562,0.9-0.836,1.133c-0.277,0.232-0.615,0.41-1.014,0.533
	c-0.4,0.123-0.896,0.185-1.49,0.185c-1.38,0-2.457-0.46-3.234-1.382c-0.776-0.922-1.164-2.191-1.164-3.811
	c0-1.763,0.502-3.146,1.508-4.147c1.005-1.001,2.382-1.502,4.131-1.502c1.944,0,3.45,0.646,4.518,1.938
	C196.537,134.934,197.07,136.77,197.07,139.15 M191.072,135.145c-0.473,0-0.854,0.17-1.148,0.511c-0.293,0.342-0.44,0.89-0.44,1.645
	c0,0.595,0.127,1.068,0.381,1.42c0.254,0.353,0.644,0.528,1.165,0.528c0.472,0,0.882-0.171,1.23-0.512
	c0.348-0.341,0.521-0.751,0.521-1.23c0-0.646-0.161-1.2-0.484-1.665C191.975,135.376,191.566,135.145,191.072,135.145"/>
<path fill="#2E2D4B" d="M203.221,144.527l0.152,0.25c-0.704,2.766-1.342,4.801-1.916,6.107h-3.037
	c0.211-1.002,0.423-2.125,0.637-3.369c0.215-1.244,0.361-2.24,0.441-2.988H203.221z"/>
<path fill="#2E2D4B" d="M216.371,135.318c0,0.987-0.302,1.834-0.904,2.542c-0.603,0.707-1.473,1.221-2.613,1.54v0.065
	c2.658,0.334,3.985,1.589,3.985,3.767c0,1.481-0.586,2.645-1.758,3.494c-1.173,0.849-2.8,1.273-4.883,1.273
	c-0.856,0-1.648-0.062-2.378-0.186c-0.729-0.123-1.518-0.348-2.368-0.675v-3.57c0.696,0.355,1.405,0.619,2.128,0.789
	c0.723,0.171,1.389,0.256,1.998,0.256c0.943,0,1.631-0.132,2.063-0.397c0.432-0.265,0.647-0.68,0.647-1.246
	c0-0.436-0.112-0.771-0.337-1.006c-0.227-0.236-0.588-0.415-1.089-0.534c-0.501-0.12-1.153-0.18-1.959-0.18h-0.979v-3.233h1.001
	c2.185,0,3.276-0.559,3.276-1.676c0-0.42-0.161-0.733-0.484-0.937c-0.322-0.203-0.756-0.305-1.301-0.305
	c-1.016,0-2.068,0.341-3.156,1.023l-1.785-2.874c0.842-0.579,1.703-0.994,2.584-1.241c0.883-0.246,1.894-0.37,3.032-0.37
	c1.647,0,2.939,0.327,3.876,0.979C215.902,133.271,216.371,134.173,216.371,135.318"/>
<path fill="#2E2D4B" d="M230.032,139.847c0,2.815-0.473,4.879-1.415,6.188c-0.945,1.31-2.388,1.965-4.333,1.965
	c-1.901,0-3.335-0.684-4.3-2.052s-1.447-3.402-1.447-6.102c0-2.83,0.471-4.905,1.415-6.227c0.943-1.32,2.386-1.981,4.332-1.981
	c1.894,0,3.325,0.687,4.296,2.063C229.547,135.077,230.032,137.125,230.032,139.847 M222.814,139.847c0,1.8,0.111,3.037,0.338,3.712
	c0.225,0.675,0.602,1.013,1.132,1.013c0.537,0,0.916-0.349,1.138-1.045c0.222-0.697,0.332-1.924,0.332-3.68
	c0-1.764-0.112-2.999-0.338-3.707c-0.225-0.707-0.603-1.061-1.132-1.061c-0.53,0-0.907,0.341-1.132,1.022
	C222.926,136.784,222.814,138.032,222.814,139.847"/>
<path fill="#2E2D4B" d="M185.691,171.434h-1.753v3.081h-4.245v-3.081h-6.348v-3.156l6.619-9.678h3.974v9.623h1.753V171.434z
	 M179.693,168.223v-1.851c0-0.349,0.013-0.818,0.038-1.409c0.024-0.592,0.045-0.902,0.06-0.931h-0.119
	c-0.248,0.559-0.526,1.081-0.838,1.567l-1.765,2.623H179.693z"/>
<path fill="#2E2D4B" d="M192.604,158.37c1.676,0,2.98,0.339,3.914,1.014c0.932,0.675,1.397,1.633,1.397,2.874
	c0,0.842-0.22,1.58-0.658,2.215c-0.44,0.635-1.134,1.188-2.085,1.66c1.176,0.668,2.005,1.333,2.487,1.997
	c0.483,0.664,0.725,1.381,0.725,2.15c0,1.415-0.512,2.511-1.534,3.287c-1.024,0.776-2.455,1.165-4.289,1.165
	c-1.873,0-3.307-0.379-4.301-1.138c-0.994-0.758-1.49-1.85-1.49-3.271c0-0.921,0.221-1.707,0.664-2.356
	c0.441-0.649,1.186-1.239,2.23-1.769c-0.842-0.566-1.457-1.174-1.846-1.823c-0.387-0.649-0.582-1.362-0.582-2.14
	c0-1.219,0.476-2.168,1.427-2.846C189.613,158.711,190.927,158.37,192.604,158.37 M190.709,170.149c0,0.45,0.159,0.812,0.479,1.083
	c0.32,0.272,0.763,0.408,1.328,0.408c1.277,0,1.916-0.468,1.916-1.404c0-0.355-0.14-0.705-0.418-1.05
	c-0.281-0.345-0.779-0.732-1.498-1.159c-0.646,0.341-1.108,0.684-1.388,1.028C190.85,169.4,190.709,169.765,190.709,170.149
	 M192.581,161.474c-0.37,0-0.683,0.107-0.937,0.321c-0.252,0.214-0.379,0.49-0.379,0.833c0,0.624,0.422,1.176,1.272,1.654
	c0.515-0.298,0.867-0.569,1.056-0.816s0.283-0.526,0.283-0.838c0-0.349-0.127-0.628-0.381-0.84
	C193.242,161.578,192.936,161.474,192.581,161.474"/>
<path fill="#2E2D4B" d="M204.512,171.26l0.152,0.25c-0.705,2.766-1.342,4.801-1.916,6.107h-3.037
	c0.211-1.002,0.423-2.125,0.637-3.369c0.215-1.244,0.361-2.24,0.441-2.988H204.512z"/>
<path fill="#2E2D4B" d="M212.557,158.37c1.676,0,2.98,0.339,3.914,1.014c0.932,0.675,1.397,1.633,1.397,2.874
	c0,0.842-0.22,1.58-0.658,2.215c-0.44,0.635-1.134,1.188-2.085,1.66c1.176,0.668,2.005,1.333,2.487,1.997
	c0.483,0.664,0.725,1.381,0.725,2.15c0,1.415-0.512,2.511-1.534,3.287c-1.024,0.776-2.455,1.165-4.289,1.165
	c-1.873,0-3.307-0.379-4.301-1.138c-0.994-0.758-1.49-1.85-1.49-3.271c0-0.921,0.221-1.707,0.664-2.356
	c0.441-0.649,1.186-1.239,2.23-1.769c-0.842-0.566-1.457-1.174-1.846-1.823c-0.387-0.649-0.582-1.362-0.582-2.14
	c0-1.219,0.476-2.168,1.427-2.846C209.566,158.711,210.88,158.37,212.557,158.37 M210.662,170.149c0,0.45,0.159,0.812,0.479,1.083
	c0.32,0.272,0.763,0.408,1.328,0.408c1.277,0,1.916-0.468,1.916-1.404c0-0.355-0.14-0.705-0.418-1.05
	c-0.281-0.345-0.779-0.732-1.498-1.159c-0.646,0.341-1.108,0.684-1.388,1.028C210.803,169.4,210.662,169.765,210.662,170.149
	 M212.534,161.474c-0.37,0-0.683,0.107-0.937,0.321c-0.252,0.214-0.379,0.49-0.379,0.833c0,0.624,0.422,1.176,1.272,1.654
	c0.515-0.298,0.867-0.569,1.056-0.816s0.283-0.526,0.283-0.838c0-0.349-0.127-0.628-0.381-0.84
	C213.195,161.578,212.889,161.474,212.534,161.474"/>
<path fill="#2E2D4B" d="M231.323,166.579c0,2.815-0.473,4.879-1.415,6.188c-0.945,1.311-2.388,1.966-4.333,1.966
	c-1.901,0-3.335-0.684-4.3-2.052s-1.447-3.402-1.447-6.102c0-2.83,0.471-4.905,1.415-6.227c0.943-1.32,2.386-1.981,4.332-1.981
	c1.894,0,3.325,0.687,4.296,2.063C230.838,161.81,231.323,163.857,231.323,166.579 M224.105,166.579c0,1.8,0.111,3.037,0.338,3.712
	c0.225,0.675,0.602,1.013,1.132,1.013c0.537,0,0.916-0.349,1.138-1.045c0.222-0.697,0.332-1.924,0.332-3.68
	c0-1.764-0.112-2.999-0.338-3.707c-0.225-0.707-0.603-1.061-1.132-1.061c-0.53,0-0.907,0.341-1.132,1.022
	C224.217,163.516,224.105,164.765,224.105,166.579"/>
<rect x="172.966" y="153.176" fill="#2E2D4B" width="58.897" height="1.774"/>
<path fill="#2E2D4B" d="M219.088,115.166h-2.846v-5.49c0-0.667,0.014-1.277,0.042-1.83c-0.175,0.213-0.392,0.435-0.651,0.666
	l-1.179,0.973L213,107.696l3.563-2.901h2.525V115.166z"/>
<path fill="#2E2D4B" d="M228.954,109.541c0,2.028-0.437,3.497-1.312,4.405c-0.875,0.907-2.275,1.361-4.2,1.361
	c-0.633,0-1.116-0.023-1.447-0.07v-2.221c0.407,0.076,0.814,0.113,1.22,0.113c1.004,0,1.776-0.207,2.32-0.62
	c0.544-0.414,0.84-1.068,0.887-1.962h-0.084c-0.186,0.341-0.367,0.587-0.547,0.738c-0.181,0.151-0.399,0.267-0.66,0.348
	c-0.261,0.08-0.584,0.12-0.972,0.12c-0.899,0-1.601-0.3-2.106-0.9s-0.76-1.429-0.76-2.483c0-1.149,0.327-2.05,0.982-2.702
	c0.656-0.653,1.553-0.979,2.693-0.979c1.266,0,2.248,0.421,2.942,1.264C228.607,106.793,228.954,107.989,228.954,109.541
	 M225.047,106.931c-0.309,0-0.559,0.11-0.75,0.333c-0.19,0.223-0.287,0.579-0.287,1.071c0,0.388,0.084,0.696,0.248,0.926
	c0.166,0.23,0.42,0.344,0.761,0.344c0.306,0,0.573-0.11,0.8-0.333c0.229-0.223,0.341-0.489,0.341-0.802
	c0-0.421-0.104-0.783-0.315-1.085C225.633,107.082,225.367,106.931,225.047,106.931"/>
<path fill="#2E2D4B" d="M232.963,113.045l0.1,0.163c-0.459,1.802-0.875,3.129-1.248,3.979h-1.98
	c0.137-0.652,0.275-1.384,0.416-2.195c0.139-0.811,0.234-1.46,0.286-1.947H232.963z"/>
<path fill="#2E2D4B" d="M241.531,107.044c0,0.643-0.195,1.195-0.588,1.656s-0.961,0.796-1.703,1.004v0.042
	c1.73,0.218,2.597,1.036,2.597,2.455c0,0.965-0.382,1.724-1.146,2.276c-0.764,0.554-1.824,0.83-3.181,0.83
	c-0.56,0-1.076-0.039-1.551-0.119c-0.476-0.081-0.99-0.229-1.543-0.441v-2.326c0.454,0.231,0.917,0.403,1.387,0.516
	c0.47,0.109,0.905,0.166,1.302,0.166c0.614,0,1.063-0.087,1.344-0.26c0.281-0.173,0.422-0.443,0.422-0.813
	c0-0.283-0.072-0.502-0.219-0.656c-0.146-0.153-0.384-0.269-0.709-0.347c-0.328-0.078-0.752-0.117-1.277-0.117h-0.639v-2.107h0.652
	c1.423,0,2.135-0.363,2.135-1.092c0-0.274-0.104-0.478-0.314-0.61c-0.211-0.133-0.493-0.198-0.848-0.198
	c-0.662,0-1.349,0.222-2.058,0.666l-1.164-1.872c0.55-0.379,1.111-0.648,1.685-0.809c0.576-0.16,1.233-0.24,1.977-0.24
	c1.073,0,1.915,0.212,2.525,0.637C241.227,105.71,241.531,106.297,241.531,107.044"/>
<path fill="#2E2D4B" d="M250.436,109.995c0,1.835-0.308,3.179-0.924,4.032c-0.613,0.854-1.555,1.279-2.822,1.279
	c-1.238,0-2.174-0.444-2.803-1.336s-0.943-2.217-0.943-3.976c0-1.845,0.309-3.197,0.923-4.058c0.614-0.861,1.555-1.291,2.823-1.291
	c1.233,0,2.166,0.448,2.799,1.344C250.119,106.887,250.436,108.222,250.436,109.995 M245.732,109.995
	c0,1.173,0.072,1.979,0.22,2.419c0.146,0.439,0.392,0.659,0.737,0.659c0.351,0,0.598-0.227,0.74-0.682
	c0.146-0.453,0.217-1.252,0.217-2.396c0-1.149-0.072-1.955-0.22-2.416c-0.146-0.461-0.392-0.691-0.737-0.691
	s-0.592,0.223-0.737,0.667C245.805,107.999,245.732,108.813,245.732,109.995"/>
<path fill="#2E2D4B" d="M50.021,132.312h-2.845v-5.49c0-0.667,0.014-1.277,0.042-1.83c-0.175,0.213-0.392,0.435-0.652,0.666
	l-1.178,0.973l-1.454-1.788l3.562-2.901h2.525V132.312z"/>
<path fill="#2E2D4B" d="M59.81,132.312h-7.526v-1.845l2.532-2.561c0.723-0.757,1.196-1.273,1.419-1.55
	c0.222-0.276,0.377-0.515,0.465-0.713c0.087-0.198,0.131-0.406,0.131-0.624c0-0.271-0.087-0.482-0.263-0.639
	c-0.175-0.156-0.421-0.234-0.737-0.234c-0.327,0-0.657,0.094-0.99,0.28c-0.334,0.188-0.711,0.463-1.132,0.826l-1.539-1.802
	c0.535-0.478,0.984-0.819,1.348-1.024c0.364-0.206,0.76-0.363,1.188-0.472c0.428-0.109,0.91-0.163,1.444-0.163
	c0.671,0,1.27,0.118,1.798,0.354c0.527,0.236,0.937,0.573,1.228,1.011c0.291,0.438,0.437,0.928,0.437,1.472
	c0,0.407-0.051,0.783-0.153,1.128c-0.102,0.346-0.259,0.685-0.472,1.019c-0.212,0.333-0.495,0.685-0.848,1.053
	c-0.351,0.369-1.102,1.069-2.252,2.1v0.07h3.923V132.312z"/>
<path fill="#2E2D4B" d="M63.896,130.19l0.1,0.163c-0.459,1.802-0.875,3.129-1.248,3.979h-1.98c0.137-0.652,0.275-1.384,0.415-2.195
	c0.14-0.811,0.235-1.46,0.287-1.947H63.896z"/>
<path fill="#2E2D4B" d="M72.855,127.141c0,1.835-0.307,3.179-0.923,4.032c-0.614,0.854-1.555,1.279-2.823,1.279
	c-1.238,0-2.173-0.444-2.802-1.336c-0.629-0.892-0.943-2.217-0.943-3.976c0-1.845,0.308-3.197,0.922-4.058
	c0.615-0.861,1.555-1.291,2.823-1.291c1.234,0,2.167,0.448,2.799,1.344C72.54,124.032,72.855,125.367,72.855,127.141
	 M68.152,127.141c0,1.173,0.073,1.979,0.22,2.419c0.146,0.439,0.392,0.659,0.737,0.659c0.351,0,0.598-0.227,0.741-0.681
	c0.145-0.454,0.217-1.253,0.217-2.397c0-1.149-0.073-1.955-0.22-2.416c-0.146-0.461-0.392-0.691-0.738-0.691
	c-0.345,0-0.591,0.223-0.737,0.667C68.226,125.145,68.152,125.958,68.152,127.141"/>
<path fill="#2E2D4B" d="M81.368,127.141c0,1.835-0.307,3.179-0.923,4.032c-0.614,0.854-1.555,1.279-2.823,1.279
	c-1.238,0-2.173-0.444-2.802-1.336c-0.629-0.892-0.943-2.217-0.943-3.976c0-1.845,0.308-3.197,0.922-4.058
	c0.615-0.861,1.555-1.291,2.823-1.291c1.234,0,2.167,0.448,2.799,1.344C81.052,124.032,81.368,125.367,81.368,127.141
	 M76.665,127.141c0,1.173,0.073,1.979,0.22,2.419c0.146,0.439,0.392,0.659,0.737,0.659c0.351,0,0.598-0.227,0.741-0.681
	c0.145-0.454,0.217-1.253,0.217-2.397c0-1.149-0.073-1.955-0.22-2.416c-0.146-0.461-0.392-0.691-0.738-0.691
	c-0.345,0-0.591,0.223-0.737,0.667C76.738,125.145,76.665,125.958,76.665,127.141"/>
<path fill="#2E2D4B" d="M25.451,104.334h-2.845v-5.49c0-0.667,0.014-1.277,0.042-1.83c-0.175,0.213-0.392,0.435-0.652,0.666
	l-1.178,0.973l-1.454-1.788l3.562-2.901h2.525V104.334z"/>
<path fill="#2E2D4B" d="M35.283,99.163c0,1.835-0.307,3.179-0.923,4.032c-0.614,0.854-1.555,1.28-2.823,1.28
	c-1.238,0-2.173-0.445-2.802-1.337c-0.629-0.892-0.943-2.217-0.943-3.976c0-1.845,0.308-3.197,0.922-4.058
	c0.615-0.861,1.555-1.291,2.823-1.291c1.234,0,2.167,0.448,2.799,1.344C34.967,96.055,35.283,97.39,35.283,99.163 M30.58,99.163
	c0,1.173,0.073,1.979,0.22,2.419c0.146,0.439,0.392,0.659,0.737,0.659c0.351,0,0.598-0.227,0.741-0.681
	c0.145-0.454,0.217-1.253,0.217-2.397c0-1.149-0.073-1.955-0.22-2.416c-0.146-0.461-0.392-0.691-0.738-0.691
	c-0.345,0-0.591,0.223-0.737,0.668C30.652,97.167,30.58,97.98,30.58,99.163"/>
<path fill="#2E2D4B" d="M39.326,102.213l0.1,0.163c-0.459,1.802-0.875,3.129-1.248,3.979h-1.98c0.137-0.652,0.275-1.384,0.415-2.195
	c0.14-0.811,0.235-1.46,0.287-1.947H39.326z"/>
<path fill="#2E2D4B" d="M40.779,99.95c0-1.447,0.207-2.619,0.621-3.515c0.414-0.896,1.024-1.558,1.83-1.983
	c0.807-0.425,1.801-0.638,2.984-0.638c0.421,0,0.912,0.04,1.474,0.12v2.192c-0.472-0.09-0.985-0.135-1.539-0.135
	c-0.936,0-1.633,0.205-2.092,0.618c-0.458,0.41-0.709,1.082-0.752,2.014h0.086c0.424-0.805,1.108-1.206,2.049-1.206
	c0.922,0,1.638,0.297,2.146,0.89c0.509,0.595,0.763,1.42,0.763,2.479c0,1.14-0.322,2.039-0.965,2.699s-1.542,0.989-2.696,0.989
	c-1.224,0-2.182-0.396-2.873-1.191C41.125,102.489,40.779,101.378,40.779,99.95 M44.625,102.256c0.299,0,0.541-0.112,0.728-0.337
	c0.186-0.225,0.28-0.583,0.28-1.075c0-0.842-0.326-1.263-0.979-1.263c-0.322,0-0.583,0.109-0.784,0.326
	c-0.201,0.218-0.302,0.482-0.302,0.795c0,0.454,0.097,0.826,0.291,1.117C44.054,102.11,44.309,102.256,44.625,102.256"/>
<path fill="#2E2D4B" d="M56.798,99.163c0,1.835-0.307,3.179-0.923,4.032c-0.614,0.854-1.555,1.28-2.823,1.28
	c-1.238,0-2.173-0.445-2.802-1.337s-0.943-2.217-0.943-3.976c0-1.845,0.308-3.197,0.922-4.058c0.615-0.861,1.555-1.291,2.823-1.291
	c1.234,0,2.167,0.448,2.799,1.344C56.482,96.055,56.798,97.39,56.798,99.163 M52.095,99.163c0,1.173,0.073,1.979,0.22,2.419
	c0.146,0.439,0.392,0.659,0.737,0.659c0.351,0,0.598-0.227,0.741-0.681c0.145-0.454,0.217-1.253,0.217-2.397
	c0-1.149-0.073-1.955-0.22-2.416c-0.146-0.461-0.392-0.691-0.738-0.691c-0.345,0-0.591,0.223-0.737,0.668
	C52.168,97.167,52.095,97.98,52.095,99.163"/>
<path fill="#2E2D4B" d="M43.239,249.182h-7.526v-1.845l2.532-2.561c0.723-0.757,1.196-1.273,1.419-1.55
	c0.222-0.276,0.377-0.515,0.465-0.713c0.087-0.198,0.131-0.406,0.131-0.624c0-0.27-0.087-0.482-0.263-0.639
	c-0.175-0.156-0.421-0.234-0.737-0.234c-0.327,0-0.657,0.094-0.99,0.28c-0.334,0.188-0.711,0.463-1.132,0.826l-1.539-1.802
	c0.535-0.478,0.984-0.819,1.348-1.024c0.364-0.206,0.76-0.363,1.188-0.472c0.428-0.109,0.91-0.163,1.444-0.163
	c0.671,0,1.27,0.118,1.798,0.354c0.527,0.236,0.937,0.573,1.228,1.011c0.291,0.438,0.437,0.928,0.437,1.472
	c0,0.407-0.051,0.783-0.153,1.128c-0.102,0.346-0.259,0.685-0.472,1.019c-0.212,0.333-0.495,0.685-0.848,1.053
	c-0.351,0.369-1.102,1.069-2.252,2.1v0.071h3.923V249.182z"/>
<path fill="#2E2D4B" d="M47.325,247.061l0.1,0.163c-0.459,1.802-0.875,3.129-1.248,3.979h-1.98c0.137-0.652,0.275-1.384,0.415-2.195
	c0.14-0.811,0.235-1.46,0.287-1.947H47.325z"/>
<path fill="#2E2D4B" d="M56.575,247.174h-1.141v2.008h-2.767v-2.008h-4.136v-2.057l4.314-6.307h2.589v6.271h1.141V247.174z
	 M52.667,245.081v-1.205c0-0.228,0.008-0.533,0.024-0.919c0.017-0.386,0.031-0.588,0.039-0.605h-0.077
	c-0.161,0.363-0.343,0.704-0.547,1.021l-1.149,1.709H52.667z"/>
<path fill="#2E2D4B" d="M64.798,244.011c0,1.835-0.307,3.179-0.923,4.032c-0.614,0.854-1.555,1.28-2.823,1.28
	c-1.238,0-2.173-0.445-2.802-1.337c-0.629-0.892-0.943-2.217-0.943-3.976c0-1.845,0.308-3.197,0.922-4.058
	c0.615-0.861,1.555-1.291,2.823-1.291c1.234,0,2.167,0.448,2.799,1.344C64.481,240.902,64.798,242.237,64.798,244.011
	 M60.095,244.011c0,1.173,0.073,1.979,0.22,2.419c0.146,0.439,0.392,0.659,0.737,0.659c0.351,0,0.598-0.227,0.741-0.681
	c0.145-0.454,0.217-1.252,0.217-2.397c0-1.149-0.073-1.955-0.22-2.416c-0.146-0.461-0.392-0.691-0.738-0.691
	c-0.345,0-0.591,0.223-0.737,0.668C60.167,242.015,60.095,242.828,60.095,244.011"/>
<rect x="116.021" y="4.694" fill="#D0EAF0" width="11.27" height="10.341"/>
<polygon fill="#FFFFFF" points="127.154,4.694 127.154,14.9 116.157,14.9 116.157,4.694 115.887,4.694 115.887,15.172 
	127.426,15.172 127.426,4.694 "/>
<rect x="116.023" y="15.307" fill="#D0EAF0" width="11.268" height="11.268"/>
<path fill="#FFFFFF" d="M127.154,26.439h-10.998V15.441h10.998V26.439z M127.426,15.172h-11.539v11.539h11.539V15.172z"/>
<rect x="116.023" y="26.846" fill="#D0EAF0" width="11.268" height="11.269"/>
<path fill="#FFFFFF" d="M127.154,37.979h-10.998V26.98h10.998V37.979z M127.426,26.711h-11.539V38.25h11.539V26.711z"/>
<rect x="116.023" y="38.44" fill="#D0EAF0" width="11.268" height="11.271"/>
<path fill="#FFFFFF" d="M127.154,49.573h-10.998V38.575h10.998V49.573z M127.426,38.306h-11.539v11.539h11.539V38.306z"/>
<rect x="116.023" y="49.979" fill="#D0EAF0" width="11.268" height="11.27"/>
<path fill="#FFFFFF" d="M127.154,61.112h-10.998V50.114h10.998V61.112z M127.426,49.844h-11.539v11.539h11.539V49.844z"/>
<rect x="116.021" y="61.518" fill="#D0EAF0" width="11.27" height="2.406"/>
<polygon fill="#FFFFFF" points="115.887,61.383 115.887,63.925 116.157,63.925 116.157,61.654 127.154,61.654 127.154,63.925 
	127.426,63.925 127.426,61.383 "/>
<rect x="127.561" y="4.694" fill="#D0EAF0" width="11.268" height="10.341"/>
<polygon fill="#FFFFFF" points="138.693,4.694 138.693,14.9 127.695,14.9 127.695,4.694 127.426,4.694 127.426,15.172 
	138.965,15.172 138.965,4.694 "/>
<rect x="127.561" y="15.307" fill="#D0EAF0" width="11.268" height="11.268"/>
<path fill="#FFFFFF" d="M138.693,26.439h-10.998V15.441h10.998V26.439z M138.965,15.172h-11.539v11.539h11.539V15.172z"/>
<rect x="127.561" y="26.846" fill="#D0EAF0" width="11.268" height="11.269"/>
<path fill="#FFFFFF" d="M138.693,37.979h-10.998V26.98h10.998V37.979z M138.965,26.711h-11.539V38.25h11.539V26.711z"/>
<rect x="127.561" y="38.44" fill="#D0EAF0" width="11.268" height="11.271"/>
<path fill="#FFFFFF" d="M138.693,49.573h-10.998V38.575h10.998V49.573z M138.965,38.306h-11.539v11.539h11.539V38.306z"/>
<rect x="127.561" y="49.979" fill="#D0EAF0" width="11.268" height="11.27"/>
<path fill="#FFFFFF" d="M138.693,61.112h-10.998V50.114h10.998V61.112z M138.965,49.844h-11.539v11.539h11.539V49.844z"/>
<rect x="127.561" y="61.518" fill="#D0EAF0" width="11.268" height="2.406"/>
<polygon fill="#FFFFFF" points="127.426,61.383 127.426,63.925 127.695,63.925 127.695,61.654 138.693,61.654 138.693,63.925 
	138.965,63.925 138.965,61.383 "/>
<rect x="104.484" y="4.694" fill="#D0EAF0" width="11.268" height="10.341"/>
<polygon fill="#FFFFFF" points="115.616,4.694 115.616,14.9 104.618,14.9 104.618,4.694 104.347,4.694 104.347,15.172 
	115.887,15.172 115.887,4.694 "/>
<rect x="104.484" y="15.307" fill="#D0EAF0" width="11.268" height="11.268"/>
<path fill="#FFFFFF" d="M115.615,26.439h-10.998V15.441h10.998V26.439z M115.886,15.172h-11.539v11.539h11.539V15.172z"/>
<rect x="104.484" y="26.846" fill="#D0EAF0" width="11.268" height="11.269"/>
<path fill="#FFFFFF" d="M115.615,37.979h-10.998V26.98h10.998V37.979z M115.886,26.711h-11.539V38.25h11.539V26.711z"/>
<rect x="104.484" y="38.44" fill="#D0EAF0" width="11.268" height="11.271"/>
<path fill="#FFFFFF" d="M115.615,49.573h-10.998V38.575h10.998V49.573z M115.886,38.306h-11.539v11.539h11.539V38.306z"/>
<rect x="104.484" y="49.979" fill="#D0EAF0" width="11.268" height="11.27"/>
<path fill="#FFFFFF" d="M115.615,61.112h-10.998V50.114h10.998V61.112z M115.886,49.844h-11.539v11.539h11.539V49.844z"/>
<rect x="104.484" y="61.518" fill="#D0EAF0" width="11.268" height="2.406"/>
<polygon fill="#FFFFFF" points="104.347,61.383 104.347,63.925 104.618,63.925 104.618,61.654 115.616,61.654 115.616,63.925 
	115.887,63.925 115.887,61.383 "/>
<rect x="92.955" y="4.694" fill="#D0EAF0" width="11.268" height="10.341"/>
<polygon fill="#FFFFFF" points="104.088,4.694 104.088,14.9 93.09,14.9 93.09,4.694 92.82,4.694 92.82,15.172 104.359,15.172 
	104.359,4.694 "/>
<rect x="92.957" y="15.307" fill="#D0EAF0" width="11.268" height="11.268"/>
<path fill="#FFFFFF" d="M104.089,26.439H93.091V15.441h10.998V26.439z M104.36,15.172H92.821v11.539h11.539V15.172z"/>
<rect x="92.957" y="26.846" fill="#D0EAF0" width="11.268" height="11.269"/>
<path fill="#FFFFFF" d="M104.089,37.979H93.091V26.98h10.998V37.979z M104.36,26.711H92.821V38.25h11.539V26.711z"/>
<rect x="92.957" y="38.44" fill="#D0EAF0" width="11.268" height="11.271"/>
<rect x="92.957" y="49.979" fill="#D0EAF0" width="11.268" height="11.27"/>
<path fill="#FFFFFF" d="M104.089,61.112H93.091V50.114h10.998V61.112z M104.36,49.844H92.821v11.539h11.539V49.844z"/>
<rect x="92.955" y="61.518" fill="#D0EAF0" width="11.268" height="2.406"/>
<polygon fill="#FFFFFF" points="92.82,61.383 92.82,63.925 93.09,63.925 93.09,61.654 104.088,61.654 104.088,63.925 
	104.359,63.925 104.359,61.383 "/>
<rect x="81.417" y="4.694" fill="#D0EAF0" width="11.269" height="10.341"/>
<polygon fill="#FFFFFF" points="92.549,4.694 92.549,14.9 81.552,14.9 81.552,4.694 81.281,4.694 81.281,15.172 92.82,15.172 
	92.82,4.694 "/>
<rect x="81.417" y="15.307" fill="#D0EAF0" width="11.269" height="11.268"/>
<path fill="#FFFFFF" d="M92.551,26.439H81.553V15.441h10.998V26.439z M92.821,15.172H81.282v11.539h11.539V15.172z"/>
<rect x="81.417" y="26.846" fill="#D0EAF0" width="11.269" height="11.269"/>
<path fill="#FFFFFF" d="M92.551,37.979H81.553V26.98h10.998V37.979z M92.821,26.711H81.282V38.25h11.539V26.711z"/>
<rect x="81.417" y="38.44" fill="#D0EAF0" width="11.269" height="11.271"/>
<path fill="#FFFFFF" d="M92.551,49.573H81.553V38.575h10.998V49.573z M92.821,38.306H81.282v11.539h11.539V38.306z"/>
<rect x="81.417" y="49.979" fill="#D0EAF0" width="11.269" height="11.27"/>
<path fill="#FFFFFF" d="M92.551,61.112H81.553V50.114h10.998V61.112z M92.821,49.844H81.282v11.539h11.539V49.844z"/>
<rect x="81.417" y="61.518" fill="#D0EAF0" width="11.269" height="2.406"/>
<polygon fill="#FFFFFF" points="81.281,61.383 81.281,63.925 81.552,63.925 81.552,61.654 92.549,61.654 92.549,63.925 
	92.82,63.925 92.82,61.383 "/>
<rect x="70.633" y="4.694" fill="#D0EAF0" width="10.582" height="10.341"/>
<polygon fill="#FFFFFF" points="81.08,4.694 81.08,14.9 70.633,14.9 70.633,4.694 70.633,15.172 81.35,15.172 81.35,4.694 "/>
<rect x="70.633" y="15.307" fill="#D0EAF0" width="10.582" height="11.268"/>
<path fill="#FFFFFF" d="M70.633,15.441H81.08v10.998H70.633V15.441z M70.633,26.71H81.35V15.171H70.633V26.71z"/>
<rect x="70.633" y="26.845" fill="#D0EAF0" width="10.582" height="11.269"/>
<path fill="#FFFFFF" d="M70.633,26.98H81.08v10.998H70.633V26.98z M70.633,38.249H81.35V26.71H70.633V38.249z"/>
<rect x="70.633" y="38.439" fill="#D0EAF0" width="10.582" height="11.27"/>
<path fill="#FFFFFF" d="M70.633,38.575H81.08v10.998H70.633V38.575z M70.633,49.845H81.35V38.306H70.633V49.845z"/>
<rect x="70.633" y="49.979" fill="#D0EAF0" width="10.582" height="11.269"/>
<path fill="#FFFFFF" d="M70.633,50.114H81.08v10.998H70.633V50.114z M70.633,61.383H81.35V49.845H70.633V61.383z"/>
<rect x="70.633" y="61.518" fill="#D0EAF0" width="10.582" height="2.406"/>
<polygon fill="#FFFFFF" points="70.632,61.383 70.632,63.925 70.632,61.654 81.079,61.654 81.079,63.925 81.349,63.925 
	81.349,61.383 "/>
<rect x="2.575" y="6.002" fill="#D0EAF0" width="10.499" height="10.499"/>
<path fill="#FFFFFF" d="M2.7,6.128h10.247v10.246H2.7V6.128z M2.448,16.627h10.751V5.877H2.448V16.627z"/>
<rect x="14.395" y="162.678" fill="#D0EAF0" width="17.107" height="28.278"/>
<rect x="76.799" y="92" fill="#2E2D4B" width="6.844" height="24.375"/>
<rect x="137.66" y="57.487" fill="#2E2D4B" width="22.156" height="6.846"/>
<rect x="152.972" y="58.167" fill="#2E2D4B" width="6.845" height="38.355"/>
<rect x="135.968" y="5.27" fill="#2E2D4B" width="6.872" height="59.063"/>
<rect x="158.869" y="91.7" fill="#2E2D4B" width="102.773" height="6.846"/>
<rect y="207.894" fill="#2E2D4B" width="50.643" height="16.583"/>
<rect x="233.668" y="207.894" fill="#2E2D4B" width="38.81" height="16.583"/>
<rect x="93" y="207.894" fill="#2E2D4B" width="98.143" height="16.583"/>
<rect y="1.175" fill="#2E2D4B" width="14.393" height="209.052"/>
<rect x="256.145" y="181.25" fill="#2E2D4B" width="16.333" height="33.362"/>
<rect x="256.145" y="91.701" fill="#2E2D4B" width="16.333" height="34.411"/>
<rect x="113.908" y="94.5" fill="#2E2D4B" width="4.859" height="119.051"/>
<rect x="9.534" y="5.367" fill="#2E2D4B" width="4.859" height="163.384"/>
<polyline fill="#2E2D4B" points="0,6.473 21.478,6.473 21.478,0 0,0 "/>
<rect x="67.431" y="5.325" fill="#2E2D4B" width="4.047" height="59.009"/>
<rect x="108.267" y="94.5" fill="#2E2D4B" width="15.251" height="4.047"/>
<rect x="60.976" y="60.702" fill="#2E2D4B" width="25.417" height="4.049"/>
<rect x="108.268" y="60.702" fill="#2E2D4B" width="49.543" height="4.049"/>
<rect x="148.767" y="94.5" fill="#2E2D4B" width="15.251" height="4.047"/>
<rect x="11.018" y="112.327" fill="#2E2D4B" width="71.375" height="4.049"/>
<rect x="49" fill="#2E2D4B" width="93.84" height="6.472"/>
<rect x="27.493" y="254.591" fill="#2E2D4B" width="216.318" height="3.813"/>
<rect x="27.492" y="219.736" fill="#2E2D4B" width="3.484" height="38.667"/>
<rect x="240.326" y="219.736" fill="#2E2D4B" width="3.483" height="38.667"/>
<rect x="251.518" y="203.987" fill="#2E2D4B" width="8.125" height="10.625"/>
<rect x="60.976" y="49.406" fill="#2E2D4B" width="2.917" height="13.32"/>
<rect x="60.978" y="54.999" fill="#2E2D4B" width="9.479" height="2.188"/>
<rect x="60.978" y="48.937" fill="#2E2D4B" width="9.479" height="2.188"/>
<rect x="71.478" y="7.083" fill="#9E9D9B" width="21.833" height="13.833"/>
<rect x="22.143" y="115.166" fill="#2E2D4B" width="2.5" height="36.5"/>
<rect x="13.893" y="129.687" fill="#2E2D4B" width="9.75" height="2.625"/>
<rect x="13.893" y="136.562" fill="#2E2D4B" width="9.75" height="2.625"/>
<rect x="13.893" y="142.75" fill="#2E2D4B" width="9.75" height="2.625"/>
<rect x="13.893" y="149.041" fill="#2E2D4B" width="9.75" height="2.625"/>
<rect x="49" y="1.833" fill="#2E2D4B" width="93.84" height="5.25"/>
<rect x="63.895" y="51.125" fill="#9E9D9B" width="3.708" height="3.875"/>
<rect x="63.895" y="57.187" fill="#9E9D9B" width="3.708" height="3.875"/>
<polygon fill="#D7D7D5" points="63.893,55 65.06,52.75 67.601,51.125 67.601,55 "/>
<polygon fill="#D7D7D5" points="63.893,61.062 65.06,58.812 67.601,57.187 67.601,61.062 "/>
<rect x="14.393" y="132.312" fill="#9E9D9B" width="7.75" height="4.25"/>
<rect x="14.393" y="139.187" fill="#9E9D9B" width="7.75" height="3.563"/>
<rect x="14.393" y="145.374" fill="#9E9D9B" width="7.75" height="3.667"/>
<polygon fill="#D7D7D5" points="14.393,136.562 16.08,133.873 22.143,132.312 22.143,136.562 "/>
<polygon fill="#D7D7D5" points="14.393,142.75 16.08,140.517 22.143,139.219 22.143,142.75 "/>
<rect x="14.393" y="116.374" fill="#9E9D9B" width="7.75" height="13.313"/>
<polygon fill="#D7D7D5" points="16.862,119.53 22.143,116.375 22.143,129.687 14.393,129.687 "/>
<rect x="50.643" y="207.929" fill="#A5DAEC" width="42.357" height="16.512"/>
<rect x="50.643" y="213.733" fill="#61A9C4" width="42.357" height="4.903"/>
<rect x="191.143" y="207.929" fill="#A5DAEC" width="42.523" height="16.512"/>
<rect x="191.143" y="213.733" fill="#61A9C4" width="42.523" height="4.903"/>
<rect x="256.055" y="126.112" fill="#A5DAEC" width="16.512" height="55.138"/>
<rect x="261.857" y="126.112" fill="#61A9C4" width="4.903" height="55.138"/>
<rect x="86.393" y="60.702" fill="#E3004F" width="2.25" height="3.125"/>
<rect x="95.275" y="57.953" transform="matrix(0.7069 -0.7073 0.7073 0.7069 -21.2975 88.7209)" fill="#E3004F" width="2.25" height="24.21"/>
<rect x="123.525" y="94.478" fill="#E3004F" width="2.25" height="3.125"/>
<rect x="132.406" y="91.727" transform="matrix(0.7073 -0.7069 0.7069 0.7073 -34.3167 124.7812)" fill="#E3004F" width="2.25" height="24.21"/>
<rect x="90.751" y="221.315" fill="#E3004F" width="2.25" height="3.125"/>
<rect x="81.869" y="202.981" transform="matrix(-0.7071 0.7071 -0.7071 -0.7071 293.7689 308.4898)" fill="#E3004F" width="2.25" height="24.21"/>
<rect x="106.017" y="94.5" fill="#E3004F" width="2.25" height="3.125"/>
<rect x="97.136" y="91.748" transform="matrix(-0.7069 -0.7073 0.7073 -0.7069 94.263 246.769)" fill="#E3004F" width="2.25" height="24.21"/>
<rect x="46.75" y="3.958" fill="#E3004F" width="2.25" height="3.125"/>
<rect x="37.867" y="1.207" transform="matrix(-0.7069 -0.7073 0.7073 -0.7069 57.1391 50.3031)" fill="#E3004F" width="2.25" height="24.21"/>
<rect x="114.732" y="7.084" fill="#61A9C4" width="21.235" height="47.738"/>
<path fill="#FFFFFF" d="M123.358,13.843h0.487c0.1-0.448,0.438-0.787,0.887-0.886v-0.488
	C124.023,12.575,123.467,13.133,123.358,13.843"/>
<path fill="#FFFFFF" d="M124.34,13.843h0.393V13.45C124.553,13.52,124.41,13.661,124.34,13.843"/>
<path fill="#FFFFFF" d="M123.848,14.337h-0.488c0.107,0.71,0.664,1.267,1.374,1.374v-0.488
	C124.285,15.124,123.946,14.784,123.848,14.337"/>
<path fill="#FFFFFF" d="M124.733,14.729v-0.392h-0.394C124.41,14.517,124.553,14.658,124.733,14.729"/>
<path fill="#FFFFFF" d="M125.228,13.449v0.393h0.392C125.551,13.661,125.408,13.52,125.228,13.449"/>
<path fill="#FFFFFF" d="M125.619,14.337h-0.393v0.392C125.407,14.659,125.549,14.518,125.619,14.337"/>
<path fill="#FFFFFF" d="M133.87,12.65c0-1.285-1.051-2.335-2.336-2.335h-12.366c-1.285,0-2.336,1.05-2.336,2.335v29.795
	c0,0.165,0.019,0.325,0.051,0.481c-0.032,0.302-0.051,0.607-0.051,0.918c0,4.705,3.814,8.519,8.52,8.519s8.519-3.813,8.519-8.519
	c0-0.311-0.019-0.616-0.052-0.918c0.033-0.156,0.052-0.316,0.052-0.481V12.65z M127.965,14.337h-0.869
	c-0.114,0.98-0.887,1.754-1.868,1.868v0.868h-0.494v-0.868c-0.979-0.114-1.753-0.888-1.868-1.868h-0.868v-0.494h0.868
	c0.115-0.98,0.889-1.753,1.868-1.868v-0.868h0.494v0.868c0.981,0.115,1.754,0.888,1.868,1.868h0.869V14.337z"/>
<path fill="#FFFFFF" d="M125.228,12.468v0.488c0.448,0.099,0.787,0.438,0.886,0.886h0.488
	C126.494,13.132,125.938,12.575,125.228,12.468"/>
<path fill="#FFFFFF" d="M125.228,15.223v0.488c0.71-0.108,1.267-0.664,1.374-1.374h-0.488
	C126.015,14.784,125.676,15.124,125.228,15.223"/>
<path fill="#61A9C4" d="M96.731,7.083v5.771v1.322v0.844c0,1.982,1.622,3.604,3.604,3.604h7.125c1.982,0,3.604-1.622,3.604-3.604
	v-0.844v-1.322V7.083H96.731z"/>
<path fill="#FFFFFF" d="M107.47,17.75h-7.146c-1.53,0-2.781-1.252-2.781-2.781v-1.833c0-1.53,1.251-2.781,2.781-2.781h7.146
	c1.53,0,2.781,1.251,2.781,2.781v1.833C110.251,16.498,109,17.75,107.47,17.75"/>
<path fill="#61A9C4" d="M102.688,13.992h0.364c0.074-0.334,0.327-0.587,0.661-0.66v-0.364
	C103.185,13.048,102.769,13.464,102.688,13.992"/>
<path fill="#61A9C4" d="M103.42,13.992h0.293v-0.293C103.578,13.753,103.472,13.857,103.42,13.992"/>
<path fill="#61A9C4" d="M103.052,14.36h-0.364c0.08,0.53,0.496,0.945,1.025,1.025v-0.364
	C103.379,14.947,103.126,14.694,103.052,14.36"/>
<path fill="#61A9C4" d="M103.713,14.653V14.36h-0.293C103.472,14.496,103.578,14.602,103.713,14.653"/>
<path fill="#61A9C4" d="M104.083,13.699v0.293h0.293C104.322,13.857,104.217,13.752,104.083,13.699"/>
<path fill="#61A9C4" d="M104.375,14.36h-0.293v0.293C104.216,14.602,104.322,14.496,104.375,14.36"/>
<path fill="#61A9C4" d="M104.083,12.968v0.364c0.334,0.073,0.587,0.326,0.661,0.66h0.364
	C105.027,13.464,104.611,13.048,104.083,12.968"/>
<path fill="#61A9C4" d="M104.083,15.021v0.364c0.529-0.08,0.945-0.496,1.025-1.025h-0.364
	C104.669,14.694,104.417,14.947,104.083,15.021"/>
<path fill="#61A9C4" d="M83.582,40.988h-2.375c-2.475,0-4.5-2.024-4.5-4.5v-4.625c0-2.475,2.025-4.5,4.5-4.5h2.375
	c2.475,0,4.5,2.025,4.5,4.5v4.625C88.082,38.964,86.057,40.988,83.582,40.988"/>
<path fill="#FFFFFF" d="M83.192,39.915h-1.596c-2.156,0-3.911-1.755-3.911-3.91v-5.231c0-2.156,1.755-3.911,3.911-3.911h1.596
	c2.156,0,3.91,1.755,3.91,3.911v5.231C87.102,38.16,85.348,39.915,83.192,39.915 M81.596,27.862c-1.605,0-2.911,1.307-2.911,2.911
	v5.231c0,1.604,1.306,2.91,2.911,2.91h1.596c1.605,0,2.91-1.307,2.91-2.91v-5.231c0-1.604-1.305-2.911-2.91-2.911H81.596z"/>
<path fill="#61A9C4" d="M87.643,27.666h-10.5c-0.619,0-1.125-0.507-1.125-1.125v-4.5c0-0.618,0.506-1.125,1.125-1.125h10.5
	c0.619,0,1.125,0.507,1.125,1.125v4.5C88.768,27.159,88.262,27.666,87.643,27.666"/>
<path fill="#61A9C4" d="M84.143,29.405h-3.5c-0.269,0-0.49-0.22-0.49-0.489v-2.5c0-0.27,0.221-0.489,0.49-0.489h3.5
	c0.269,0,0.49,0.22,0.49,0.489v2.5C84.633,29.186,84.412,29.405,84.143,29.405"/>
<path fill="#FFFFFF" d="M83.34,24.291c0,0.522-0.424,0.945-0.946,0.945c-0.523,0-0.947-0.423-0.947-0.945s0.424-0.945,0.947-0.945
	C82.917,23.346,83.34,23.769,83.34,24.291"/>
<rect x="24.645" y="116.375" fill="#B2D4DC" width="17.107" height="21.387"/>
<path fill="#FFFFFF" d="M27.549,120.692v6.104v0.771v8.604h0.491v-7.052c0.218,0.312,0.5,0.57,0.825,0.77v6.282h0.491v-6.046
	c0.26,0.094,0.536,0.151,0.824,0.161v5.885h0.492v-5.875h0.824v5.875h0.492v-5.875h0.824v5.875h0.492v-5.875h0.824v5.875h0.491
	v-5.875h0.825v5.875h0.491v-5.875h0.824v5.875h0.492v-5.885c0.289-0.01,0.564-0.067,0.824-0.161v6.046h0.492v-6.282
	c0.324-0.199,0.607-0.458,0.824-0.77v7.052h0.491v-8.604v-0.771v-6.104c0-1.501-1.228-2.729-2.729-2.729h-6.875
	C28.777,117.964,27.549,119.191,27.549,120.692"/>
<path fill="#61A9C4" d="M24.643,122.095v4.333h2.905v-1.666h2.842c0.154,0,0.281-0.127,0.281-0.282v-0.437
	c0-0.155-0.127-0.281-0.281-0.281h-2.842v-1.667H24.643z"/>
<path fill="#FFFFFF" d="M26.098,124.862c0.268,0,0.484,0.218,0.484,0.484c0,0.268-0.216,0.485-0.484,0.485
	c-0.267,0-0.484-0.218-0.484-0.485C25.614,125.08,25.831,124.862,26.098,124.862"/>
<path fill="#FFFFFF" d="M26.098,122.69c0.268,0,0.484,0.217,0.484,0.484s-0.216,0.484-0.484,0.484c-0.267,0-0.484-0.217-0.484-0.484
	S25.831,122.69,26.098,122.69"/>
<rect x="24.643" y="142.595" fill="#B2D4DC" width="2.905" height="15.25"/>
<rect x="27.55" y="142.595" fill="#61A9C4" width="14.202" height="15.25"/>
<rect x="42.411" y="144.095" fill="#61A9C4" width="0.927" height="12.25"/>
<path fill="#FFFFFF" d="M33.425,146.886c0,1.327-1.08,2.406-2.406,2.406c-1.327,0-2.406-1.079-2.406-2.406
	c0-1.326,1.079-2.405,2.406-2.405C32.345,144.48,33.425,145.56,33.425,146.886 M29.363,146.886c0,0.913,0.743,1.656,1.656,1.656
	c0.913,0,1.656-0.743,1.656-1.656s-0.743-1.655-1.656-1.655C30.106,145.23,29.363,145.973,29.363,146.886"/>
<path fill="#FFFFFF" d="M32.27,146.886c0,0.688-0.561,1.25-1.25,1.25s-1.25-0.562-1.25-1.25c0-0.689,0.561-1.25,1.25-1.25
	S32.27,146.196,32.27,146.886 M30.52,146.886c0,0.274,0.224,0.5,0.5,0.5s0.5-0.226,0.5-0.5c0-0.275-0.224-0.5-0.5-0.5
	S30.52,146.61,30.52,146.886"/>
<path fill="#FFFFFF" d="M39,146.886c0,0.908-0.739,1.646-1.646,1.646c-0.908,0-1.646-0.738-1.646-1.646
	c0-0.907,0.738-1.646,1.646-1.646C38.26,145.24,39,145.979,39,146.886 M36.458,146.886c0,0.494,0.402,0.896,0.896,0.896
	s0.896-0.402,0.896-0.896s-0.402-0.896-0.896-0.896S36.458,146.392,36.458,146.886"/>
<path fill="#FFFFFF" d="M40.687,146.886c0,1.838-1.496,3.334-3.334,3.334c-1.837,0-3.333-1.496-3.333-3.334s1.496-3.333,3.333-3.333
	C39.19,143.553,40.687,145.048,40.687,146.886 M34.77,146.886c0,1.425,1.159,2.584,2.583,2.584c1.425,0,2.584-1.159,2.584-2.584
	c0-1.424-1.159-2.583-2.584-2.583C35.929,144.303,34.77,145.462,34.77,146.886"/>
<path fill="#FFFFFF" d="M35.875,153.554c0-1.327,1.08-2.406,2.406-2.406c1.327,0,2.406,1.079,2.406,2.406
	c0,1.326-1.079,2.405-2.406,2.405C36.955,155.959,35.875,154.88,35.875,153.554 M39.937,153.554c0-0.913-0.743-1.656-1.656-1.656
	s-1.656,0.743-1.656,1.656s0.743,1.655,1.656,1.655S39.937,154.467,39.937,153.554"/>
<path fill="#FFFFFF" d="M37.03,153.554c0-0.689,0.561-1.25,1.25-1.25s1.25,0.561,1.25,1.25c0,0.688-0.561,1.25-1.25,1.25
	S37.03,154.241,37.03,153.554 M38.78,153.554c0-0.275-0.224-0.5-0.5-0.5s-0.5,0.225-0.5,0.5s0.224,0.5,0.5,0.5
	S38.78,153.829,38.78,153.554"/>
<path fill="#FFFFFF" d="M30.3,153.554c0-0.908,0.739-1.646,1.646-1.646c0.908,0,1.646,0.738,1.646,1.646
	c0,0.907-0.738,1.646-1.646,1.646C31.039,155.2,30.3,154.461,30.3,153.554 M32.842,153.554c0-0.494-0.402-0.896-0.896-0.896
	s-0.896,0.402-0.896,0.896s0.402,0.896,0.896,0.896S32.842,154.048,32.842,153.554"/>
<path fill="#FFFFFF" d="M28.613,153.554c0-1.838,1.496-3.334,3.334-3.334c1.837,0,3.333,1.496,3.333,3.334s-1.496,3.333-3.333,3.333
	C30.109,156.887,28.613,155.392,28.613,153.554 M34.53,153.554c0-1.425-1.159-2.584-2.583-2.584c-1.425,0-2.584,1.159-2.584,2.584
	c0,1.424,1.159,2.583,2.584,2.583C33.371,156.137,34.53,154.978,34.53,153.554"/>
<rect x="41.751" y="151.989" fill="#B2D4DC" width="0.66" height="1.481"/>
<rect x="41.751" y="146.97" fill="#B2D4DC" width="0.66" height="1.479"/>
<rect x="14.395" y="190.957" fill="#B2D4DC" width="17.107" height="16.937"/>
<path fill="#61A9C4" d="M31.973,207.888c0.615-0.015,1.115-0.398,1.115-0.87v-15.187c0-0.473-0.5-0.855-1.115-0.87V207.888z"/>
<rect x="24.645" y="137.762" fill="#D0EAF0" width="17.107" height="4.833"/>
<polygon fill="#D0EAF0" points="24.643,157.845 24.643,151.667 14.393,151.667 14.393,157.845 14.393,158.042 14.393,162.678 
	41.75,162.678 41.75,157.845 "/>
<path fill="#2E2D4B" d="M90.886,49.708h-1.141v2.008h-2.767v-2.008h-4.136v-2.057l4.314-6.308h2.589v6.271h1.141V49.708z
	 M86.979,47.615V46.41c0-0.228,0.008-0.533,0.024-0.919c0.017-0.386,0.031-0.588,0.039-0.606h-0.077
	c-0.161,0.364-0.343,0.705-0.547,1.021l-1.149,1.709H86.979z"/>
<path fill="#2E2D4B" d="M94.64,49.595l0.1,0.163c-0.459,1.802-0.875,3.129-1.248,3.979h-1.98c0.137-0.652,0.275-1.384,0.415-2.195
	c0.14-0.811,0.235-1.46,0.287-1.947H94.64z"/>
<path fill="#2E2D4B" d="M100.308,44.92c0.596,0,1.134,0.139,1.614,0.415s0.854,0.668,1.12,1.174
	c0.268,0.507,0.402,1.091,0.402,1.752c0,1.159-0.349,2.048-1.047,2.668c-0.697,0.619-1.753,0.928-3.167,0.928
	c-1.211,0-2.199-0.186-2.965-0.56v-2.298c0.411,0.189,0.876,0.345,1.394,0.468c0.517,0.123,0.963,0.185,1.337,0.185
	c0.52,0,0.919-0.109,1.199-0.33c0.279-0.22,0.419-0.545,0.419-0.975c0-0.397-0.143-0.707-0.426-0.93
	c-0.284-0.222-0.715-0.333-1.291-0.333c-0.441,0-0.915,0.082-1.426,0.248l-1.029-0.511l0.39-5.477h5.916v2.334h-3.532l-0.128,1.369
	c0.369-0.071,0.631-0.11,0.787-0.117C100.032,44.924,100.176,44.92,100.308,44.92"/>
<path fill="#2E2D4B" d="M112.112,46.545c0,1.835-0.307,3.179-0.923,4.032c-0.614,0.854-1.555,1.279-2.823,1.279
	c-1.238,0-2.173-0.444-2.802-1.336c-0.629-0.892-0.943-2.217-0.943-3.976c0-1.845,0.308-3.197,0.922-4.058
	c0.615-0.861,1.555-1.291,2.823-1.291c1.234,0,2.167,0.448,2.799,1.344C111.796,43.437,112.112,44.771,112.112,46.545
	 M107.409,46.545c0,1.173,0.073,1.979,0.22,2.419c0.146,0.439,0.392,0.659,0.737,0.659c0.351,0,0.598-0.227,0.741-0.681
	c0.145-0.454,0.217-1.253,0.217-2.397c0-1.149-0.073-1.955-0.22-2.416c-0.146-0.461-0.392-0.691-0.738-0.691
	c-0.345,0-0.591,0.223-0.737,0.667S107.409,45.362,107.409,46.545"/>
</svg>
