<?xml version="1.0" encoding="utf-8"?>
<!-- Generator: Adobe Illustrator 16.0.0, SVG Export Plug-In . SVG Version: 6.00 Build 0)  -->
<!DOCTYPE svg PUBLIC "-//W3C//DTD SVG 1.1//EN" "http://www.w3.org/Graphics/SVG/1.1/DTD/svg11.dtd">
<svg version="1.1" id="Слой_1" xmlns="http://www.w3.org/2000/svg" xmlns:xlink="http://www.w3.org/1999/xlink" x="0px" y="0px"
	 width="403.469px" height="219.899px" viewBox="0 0 403.469 219.899" enable-background="new 0 0 403.469 219.899"
	 xml:space="preserve">
<path fill="#E3004F" d="M175.44,105.33h-34.249v-8.393l11.524-11.653c3.292-3.442,5.444-5.794,6.456-7.053
	c1.011-1.259,1.716-2.339,2.114-3.244c0.398-0.903,0.597-1.851,0.597-2.841c0-1.227-0.398-2.194-1.194-2.904
	c-0.796-0.711-1.915-1.065-3.357-1.065c-1.485,0-2.986,0.425-4.503,1.274c-1.517,0.851-3.234,2.104-5.149,3.761l-7.004-8.199
	c2.432-2.173,4.475-3.728,6.133-4.663c1.657-0.937,3.459-1.652,5.407-2.147c1.947-0.495,4.137-0.742,6.569-0.742
	c3.055,0,5.782,0.538,8.182,1.613c2.4,1.077,4.261,2.611,5.584,4.601c1.325,1.99,1.986,4.224,1.986,6.697
	c0,1.852-0.232,3.563-0.694,5.133c-0.464,1.571-1.178,3.115-2.147,4.632c-0.968,1.518-2.254,3.115-3.858,4.794
	c-1.603,1.679-5.019,4.863-10.248,9.555v0.322h17.851V105.33z"/>
<path fill="#2E2D4B" d="M190.708,63.076c0,0.987-0.302,1.834-0.904,2.542c-0.603,0.707-1.473,1.221-2.613,1.54v0.065
	c2.657,0.334,3.985,1.589,3.985,3.767c0,1.481-0.586,2.645-1.758,3.494c-1.173,0.849-2.8,1.273-4.883,1.273
	c-0.856,0-1.648-0.062-2.378-0.186c-0.729-0.123-1.518-0.348-2.368-0.675v-3.57c0.697,0.355,1.406,0.619,2.128,0.789
	c0.723,0.171,1.389,0.256,1.998,0.256c0.943,0,1.631-0.132,2.063-0.397c0.431-0.265,0.647-0.68,0.647-1.246
	c0-0.436-0.112-0.771-0.337-1.006c-0.226-0.236-0.588-0.415-1.089-0.534c-0.501-0.12-1.153-0.18-1.959-0.18h-0.979v-3.233h1.001
	c2.184,0,3.276-0.559,3.276-1.676c0-0.42-0.161-0.733-0.484-0.937c-0.323-0.203-0.756-0.305-1.301-0.305
	c-1.016,0-2.068,0.341-3.156,1.023l-1.785-2.874c0.841-0.58,1.703-0.994,2.584-1.241c0.882-0.246,1.893-0.37,3.032-0.37
	c1.647,0,2.939,0.327,3.876,0.979C190.239,61.029,190.708,61.931,190.708,63.076"/>
<path fill="#2E2D4B" d="M199.317,65.111c0.916,0,1.74,0.213,2.478,0.637c0.737,0.425,1.31,1.025,1.72,1.801
	c0.409,0.777,0.615,1.674,0.615,2.69c0,1.777-0.536,3.142-1.605,4.093c-1.07,0.95-2.69,1.425-4.86,1.425
	c-1.858,0-3.374-0.286-4.55-0.859v-3.526c0.631,0.29,1.344,0.529,2.139,0.718c0.794,0.189,1.479,0.283,2.051,0.283
	c0.799,0,1.412-0.168,1.84-0.506c0.43-0.338,0.644-0.836,0.644-1.497c0-0.609-0.218-1.085-0.654-1.426
	c-0.435-0.341-1.095-0.512-1.981-0.512c-0.674,0-1.403,0.127-2.188,0.381l-1.579-0.783l0.601-8.404h9.078v3.582h-5.422l-0.195,2.101
	c0.565-0.108,0.969-0.169,1.209-0.18C198.893,65.117,199.114,65.111,199.317,65.111"/>
<path fill="#2E2D4B" d="M210.573,72.285l0.152,0.25c-0.704,2.766-1.342,4.801-1.916,6.107h-3.037
	c0.211-1.002,0.424-2.125,0.637-3.369c0.215-1.244,0.361-2.24,0.441-2.988H210.573z"/>
<path fill="#2E2D4B" d="M224.768,72.459h-1.752v3.081h-4.246v-3.081h-6.347v-3.156l6.618-9.678h3.975v9.623h1.752V72.459z
	 M218.77,69.248v-1.851c0-0.349,0.014-0.818,0.039-1.409c0.024-0.592,0.045-0.902,0.06-0.931h-0.12
	c-0.247,0.559-0.525,1.081-0.838,1.567l-1.764,2.623H218.77z"/>
<path fill="#2E2D4B" d="M237.385,67.604c0,2.815-0.473,4.879-1.415,6.188c-0.945,1.31-2.388,1.965-4.333,1.965
	c-1.902,0-3.336-0.684-4.301-2.052s-1.446-3.402-1.446-6.102c0-2.83,0.471-4.905,1.415-6.227c0.943-1.32,2.386-1.981,4.332-1.981
	c1.894,0,3.324,0.688,4.295,2.063C236.9,62.835,237.385,64.883,237.385,67.604 M230.167,67.604c0,1.8,0.112,3.037,0.338,3.712
	c0.225,0.675,0.603,1.013,1.133,1.013c0.537,0,0.916-0.349,1.137-1.045c0.223-0.697,0.332-1.924,0.332-3.68
	c0-1.764-0.111-2.999-0.337-3.707c-0.226-0.707-0.603-1.061-1.132-1.061c-0.53,0-0.908,0.341-1.133,1.022
	C230.279,64.542,230.167,65.79,230.167,67.604"/>
<path fill="#2E2D4B" d="M179.081,95.545c0-2.221,0.317-4.019,0.953-5.394c0.635-1.375,1.57-2.39,2.807-3.043
	c1.238-0.652,2.764-0.979,4.578-0.979c0.646,0,1.401,0.063,2.264,0.186v3.363c-0.725-0.138-1.513-0.207-2.362-0.207
	c-1.437,0-2.507,0.316-3.211,0.947c-0.704,0.632-1.089,1.662-1.153,3.092h0.129c0.654-1.233,1.703-1.851,3.147-1.851
	c1.415,0,2.513,0.455,3.293,1.366c0.779,0.91,1.17,2.179,1.17,3.805c0,1.749-0.494,3.129-1.481,4.142
	c-0.987,1.013-2.366,1.519-4.136,1.519c-1.88,0-3.349-0.609-4.409-1.829C179.61,99.442,179.081,97.737,179.081,95.545
	 M184.98,99.083c0.457,0,0.829-0.172,1.115-0.517c0.287-0.345,0.431-0.895,0.431-1.649c0-1.292-0.501-1.938-1.503-1.938
	c-0.493,0-0.895,0.167-1.202,0.5c-0.309,0.334-0.463,0.74-0.463,1.22c0,0.697,0.148,1.268,0.446,1.714
	C184.103,98.859,184.495,99.083,184.98,99.083"/>
<path fill="#2E2D4B" d="M192.143,95.545c0-2.221,0.316-4.019,0.953-5.394c0.635-1.375,1.57-2.39,2.807-3.043
	c1.238-0.652,2.764-0.979,4.578-0.979c0.646,0,1.4,0.063,2.264,0.186v3.363c-0.725-0.138-1.513-0.207-2.361-0.207
	c-1.438,0-2.508,0.316-3.211,0.947c-0.705,0.632-1.09,1.662-1.153,3.092h0.129c0.653-1.233,1.703-1.851,3.147-1.851
	c1.414,0,2.513,0.455,3.293,1.366c0.779,0.91,1.17,2.179,1.17,3.805c0,1.749-0.494,3.129-1.481,4.142s-2.366,1.519-4.136,1.519
	c-1.88,0-3.35-0.609-4.409-1.829C192.672,99.442,192.143,97.737,192.143,95.545 M198.043,99.083c0.457,0,0.828-0.172,1.115-0.517
	c0.286-0.345,0.43-0.895,0.43-1.649c0-1.292-0.5-1.938-1.502-1.938c-0.494,0-0.896,0.167-1.203,0.5
	c-0.309,0.334-0.463,0.74-0.463,1.22c0,0.697,0.148,1.268,0.447,1.714C197.165,98.859,197.557,99.083,198.043,99.083"/>
<path fill="#2E2D4B" d="M209.864,99.018l0.152,0.25c-0.703,2.766-1.342,4.801-1.916,6.107h-3.037
	c0.211-1.002,0.424-2.125,0.637-3.369c0.216-1.244,0.361-2.24,0.441-2.988H209.864z"/>
<path fill="#2E2D4B" d="M221.588,102.272h-4.365v-8.426c0-1.022,0.021-1.959,0.064-2.809c-0.268,0.327-0.602,0.668-1.001,1.023
	l-1.807,1.491l-2.231-2.743l5.465-4.452h3.875V102.272z"/>
<path fill="#2E2D4B" d="M236.676,94.337c0,2.815-0.473,4.879-1.415,6.188c-0.945,1.31-2.388,1.965-4.333,1.965
	c-1.902,0-3.336-0.684-4.301-2.052s-1.446-3.402-1.446-6.102c0-2.83,0.471-4.905,1.415-6.227c0.943-1.32,2.386-1.981,4.332-1.981
	c1.894,0,3.324,0.687,4.295,2.063C236.191,89.567,236.676,91.615,236.676,94.337 M229.458,94.337c0,1.8,0.112,3.037,0.338,3.712
	c0.225,0.675,0.603,1.013,1.133,1.013c0.537,0,0.916-0.349,1.137-1.045c0.223-0.697,0.332-1.924,0.332-3.68
	c0-1.764-0.111-2.999-0.337-3.707c-0.226-0.707-0.603-1.061-1.132-1.061c-0.53,0-0.908,0.341-1.133,1.022
	C229.57,91.273,229.458,92.522,229.458,94.337"/>
<rect x="178.319" y="80.933" fill="#2E2D4B" width="58.898" height="1.775"/>
<path fill="#2E2D4B" d="M262.378,84.813h-2.845v-5.49c0-0.667,0.014-1.277,0.041-1.83c-0.174,0.213-0.391,0.435-0.651,0.666
	l-1.178,0.973l-1.454-1.788l3.563-2.901h2.524V84.813z"/>
<polygon fill="#2E2D4B" points="265.691,84.813 269.252,76.776 264.762,76.776 264.762,74.457 272.247,74.457 272.247,76.109 
	268.592,84.813 "/>
<path fill="#2E2D4B" d="M276.253,82.692l0.101,0.163c-0.459,1.802-0.875,3.129-1.248,3.979h-1.98
	c0.137-0.652,0.275-1.384,0.415-2.195c0.14-0.811,0.235-1.46,0.287-1.947H276.253z"/>
<path fill="#2E2D4B" d="M281.921,78.018c0.597,0,1.134,0.139,1.614,0.415s0.854,0.668,1.119,1.174
	c0.269,0.507,0.402,1.091,0.402,1.752c0,1.159-0.349,2.048-1.047,2.668c-0.697,0.619-1.753,0.929-3.167,0.929
	c-1.211,0-2.198-0.187-2.965-0.561v-2.298c0.411,0.19,0.876,0.345,1.394,0.468s0.963,0.185,1.338,0.185
	c0.52,0,0.918-0.109,1.199-0.33c0.278-0.22,0.418-0.545,0.418-0.975c0-0.397-0.143-0.707-0.426-0.93
	c-0.283-0.222-0.715-0.333-1.291-0.333c-0.441,0-0.915,0.082-1.426,0.248l-1.029-0.511l0.391-5.477h5.916v2.334h-3.532l-0.128,1.369
	c0.369-0.071,0.631-0.11,0.787-0.117S281.79,78.018,281.921,78.018"/>
<path fill="#2E2D4B" d="M293.726,79.643c0,1.835-0.308,3.179-0.923,4.032c-0.614,0.854-1.555,1.28-2.823,1.28
	c-1.238,0-2.173-0.445-2.802-1.337s-0.943-2.217-0.943-3.976c0-1.845,0.309-3.197,0.922-4.058c0.615-0.861,1.555-1.291,2.823-1.291
	c1.233,0,2.167,0.448,2.799,1.344C293.41,76.534,293.726,77.869,293.726,79.643 M289.023,79.643c0,1.173,0.073,1.979,0.22,2.419
	s0.393,0.659,0.737,0.659c0.351,0,0.599-0.227,0.741-0.681c0.145-0.454,0.217-1.252,0.217-2.397c0-1.149-0.073-1.955-0.221-2.416
	c-0.146-0.461-0.392-0.691-0.737-0.691c-0.345,0-0.591,0.223-0.737,0.667S289.023,78.46,289.023,79.643"/>
<path fill="#2E2D4B" d="M143.139,32.941h-2.845v-5.49c0-0.667,0.014-1.277,0.042-1.83c-0.175,0.213-0.392,0.435-0.652,0.666
	l-1.178,0.973l-1.454-1.788l3.562-2.901h2.525V32.941z"/>
<polygon fill="#2E2D4B" points="146.452,32.941 150.014,24.904 145.522,24.904 145.522,22.585 153.007,22.585 153.007,24.237 
	149.353,32.941 "/>
<path fill="#2E2D4B" d="M157.014,30.82l0.1,0.163c-0.459,1.802-0.875,3.129-1.248,3.979h-1.98c0.137-0.652,0.275-1.384,0.415-2.195
	c0.14-0.811,0.235-1.46,0.287-1.947H157.014z"/>
<path fill="#2E2D4B" d="M166.009,27.316c0,2.028-0.437,3.497-1.312,4.405c-0.875,0.907-2.275,1.361-4.2,1.361
	c-0.633,0-1.116-0.022-1.447-0.07v-2.221c0.407,0.076,0.814,0.113,1.22,0.113c1.003,0,1.776-0.207,2.32-0.62
	c0.544-0.414,0.839-1.068,0.887-1.962h-0.085c-0.185,0.341-0.367,0.587-0.547,0.738c-0.18,0.151-0.399,0.267-0.659,0.348
	c-0.261,0.08-0.584,0.12-0.972,0.12c-0.899,0-1.601-0.3-2.107-0.9c-0.506-0.601-0.759-1.429-0.759-2.483
	c0-1.149,0.327-2.05,0.982-2.702c0.656-0.653,1.553-0.979,2.693-0.979c1.266,0,2.248,0.421,2.943,1.264
	C165.662,24.568,166.009,25.765,166.009,27.316 M162.101,24.706c-0.308,0-0.558,0.11-0.749,0.333s-0.287,0.579-0.287,1.071
	c0,0.388,0.083,0.696,0.248,0.926c0.166,0.23,0.419,0.344,0.76,0.344c0.306,0,0.574-0.11,0.8-0.333
	c0.228-0.223,0.341-0.488,0.341-0.802c0-0.421-0.105-0.783-0.315-1.085C162.688,24.857,162.422,24.706,162.101,24.706"/>
<path fill="#2E2D4B" d="M174.487,27.771c0,1.835-0.307,3.179-0.923,4.032c-0.614,0.854-1.555,1.279-2.823,1.279
	c-1.238,0-2.173-0.444-2.802-1.336c-0.629-0.892-0.943-2.217-0.943-3.976c0-1.845,0.308-3.197,0.922-4.058
	c0.615-0.861,1.555-1.291,2.823-1.291c1.234,0,2.167,0.448,2.799,1.344C174.171,24.662,174.487,25.997,174.487,27.771
	 M169.784,27.771c0,1.173,0.073,1.979,0.22,2.419s0.392,0.659,0.737,0.659c0.351,0,0.598-0.227,0.741-0.681
	c0.145-0.454,0.217-1.253,0.217-2.397c0-1.149-0.073-1.955-0.22-2.416c-0.146-0.461-0.392-0.691-0.738-0.691
	c-0.345,0-0.591,0.223-0.737,0.667S169.784,26.588,169.784,27.771"/>
<path fill="#2E2D4B" d="M155.427,196.14c0,2.028-0.437,3.497-1.312,4.405c-0.875,0.907-2.275,1.361-4.2,1.361
	c-0.633,0-1.116-0.022-1.447-0.07v-2.221c0.407,0.076,0.814,0.113,1.22,0.113c1.003,0,1.776-0.207,2.32-0.62
	c0.544-0.414,0.839-1.068,0.887-1.962h-0.085c-0.185,0.341-0.367,0.587-0.547,0.738c-0.18,0.151-0.399,0.267-0.659,0.348
	c-0.261,0.08-0.584,0.12-0.972,0.12c-0.899,0-1.601-0.3-2.107-0.9c-0.506-0.601-0.759-1.429-0.759-2.483
	c0-1.149,0.327-2.05,0.982-2.702c0.656-0.653,1.553-0.979,2.693-0.979c1.266,0,2.248,0.421,2.943,1.264
	C155.08,193.392,155.427,194.588,155.427,196.14 M151.519,193.529c-0.308,0-0.558,0.11-0.749,0.333s-0.287,0.579-0.287,1.071
	c0,0.388,0.083,0.696,0.248,0.926c0.166,0.229,0.419,0.344,0.76,0.344c0.306,0,0.574-0.11,0.8-0.333
	c0.228-0.223,0.341-0.489,0.341-0.802c0-0.421-0.104-0.783-0.315-1.085C152.105,193.681,151.839,193.529,151.519,193.529"/>
<path fill="#2E2D4B" d="M159.435,199.644l0.1,0.163c-0.459,1.802-0.875,3.129-1.248,3.979h-1.98
	c0.137-0.652,0.275-1.384,0.415-2.195c0.14-0.811,0.235-1.46,0.287-1.947H159.435z"/>
<path fill="#2E2D4B" d="M165.103,194.969c0.596,0,1.134,0.139,1.614,0.415s0.854,0.668,1.12,1.174
	c0.268,0.507,0.402,1.091,0.402,1.752c0,1.159-0.349,2.048-1.047,2.668c-0.697,0.619-1.753,0.928-3.167,0.928
	c-1.211,0-2.199-0.186-2.965-0.56v-2.298c0.411,0.189,0.876,0.345,1.394,0.468c0.517,0.123,0.963,0.184,1.337,0.184
	c0.52,0,0.919-0.108,1.199-0.329c0.279-0.22,0.419-0.546,0.419-0.975c0-0.397-0.143-0.707-0.426-0.93
	c-0.284-0.222-0.715-0.333-1.291-0.333c-0.441,0-0.915,0.082-1.426,0.248l-1.029-0.511l0.39-5.477h5.916v2.334h-3.532l-0.128,1.369
	c0.369-0.071,0.631-0.11,0.787-0.117C164.827,194.973,164.971,194.969,165.103,194.969"/>
<path fill="#2E2D4B" d="M176.907,196.594c0,1.835-0.307,3.179-0.923,4.032c-0.614,0.854-1.555,1.279-2.823,1.279
	c-1.238,0-2.173-0.444-2.802-1.336c-0.629-0.892-0.943-2.217-0.943-3.976c0-1.845,0.308-3.197,0.922-4.058
	c0.615-0.861,1.555-1.291,2.823-1.291c1.234,0,2.167,0.448,2.799,1.344C176.591,193.485,176.907,194.82,176.907,196.594
	 M172.204,196.594c0,1.173,0.073,1.979,0.22,2.419c0.146,0.439,0.392,0.659,0.737,0.659c0.351,0,0.598-0.227,0.741-0.682
	c0.145-0.453,0.217-1.252,0.217-2.396c0-1.149-0.073-1.955-0.22-2.416c-0.146-0.461-0.392-0.691-0.738-0.691
	c-0.345,0-0.591,0.223-0.737,0.667C172.277,194.598,172.204,195.411,172.204,196.594"/>
<path fill="#2E2D4B" d="M32.306,67.114h-2.845v-5.49c0-0.667,0.014-1.277,0.042-1.83c-0.175,0.213-0.392,0.435-0.652,0.666
	l-1.178,0.973l-1.454-1.788l3.562-2.901h2.525V67.114z"/>
<path fill="#2E2D4B" d="M42.095,67.114h-7.526V65.27l2.532-2.561c0.723-0.757,1.196-1.273,1.419-1.55
	c0.222-0.275,0.377-0.515,0.465-0.713c0.087-0.198,0.131-0.406,0.131-0.624c0-0.27-0.087-0.482-0.263-0.639
	c-0.175-0.156-0.421-0.234-0.737-0.234c-0.327,0-0.657,0.094-0.99,0.28c-0.334,0.188-0.711,0.463-1.132,0.826l-1.539-1.802
	c0.535-0.478,0.984-0.819,1.348-1.024c0.364-0.206,0.76-0.363,1.188-0.471c0.428-0.11,0.91-0.164,1.444-0.164
	c0.671,0,1.27,0.118,1.798,0.354c0.527,0.236,0.936,0.573,1.227,1.011s0.437,0.928,0.437,1.472c0,0.407-0.051,0.783-0.153,1.128
	c-0.102,0.346-0.259,0.685-0.472,1.019c-0.212,0.333-0.495,0.685-0.848,1.053c-0.351,0.369-1.102,1.069-2.252,2.1v0.071h3.923
	V67.114z"/>
<path fill="#2E2D4B" d="M46.181,64.993l0.1,0.163c-0.459,1.802-0.875,3.129-1.248,3.979h-1.98c0.137-0.652,0.275-1.384,0.415-2.195
	c0.14-0.811,0.235-1.46,0.287-1.947H46.181z"/>
<path fill="#2E2D4B" d="M55.431,65.106H54.29v2.008h-2.767v-2.008h-4.136V63.05l4.314-6.307h2.589v6.271h1.141V65.106z
	 M51.522,63.014v-1.205c0-0.228,0.008-0.533,0.024-0.919c0.017-0.386,0.031-0.588,0.039-0.605h-0.077
	c-0.161,0.363-0.343,0.704-0.547,1.021l-1.149,1.709H51.522z"/>
<path fill="#2E2D4B" d="M63.653,61.943c0,1.835-0.307,3.179-0.923,4.032c-0.614,0.854-1.555,1.28-2.823,1.28
	c-1.238,0-2.173-0.445-2.802-1.337c-0.629-0.892-0.943-2.217-0.943-3.976c0-1.845,0.308-3.197,0.922-4.058
	c0.615-0.861,1.555-1.291,2.823-1.291c1.234,0,2.167,0.448,2.799,1.344C63.337,58.835,63.653,60.17,63.653,61.943 M58.95,61.943
	c0,1.173,0.073,1.979,0.22,2.419c0.146,0.439,0.392,0.659,0.737,0.659c0.351,0,0.598-0.227,0.741-0.681
	c0.145-0.454,0.217-1.252,0.217-2.397c0-1.149-0.073-1.955-0.22-2.416c-0.146-0.461-0.392-0.691-0.738-0.691
	c-0.345,0-0.591,0.223-0.737,0.668C59.023,59.947,58.95,60.761,58.95,61.943"/>
<rect x="65.389" y="140.251" fill="#D0EAF0" width="15.05" height="12.004"/>
<polygon fill="#FFFFFF" points="80.258,140.251 80.258,152.105 65.568,152.105 65.568,140.251 65.208,140.251 65.208,152.405 
	80.62,152.405 80.62,140.251 "/>
<rect x="65.388" y="152.554" fill="#D0EAF0" width="15.05" height="12.486"/>
<path fill="#FFFFFF" d="M80.258,164.892H65.569v-12.188h14.689V164.892z M80.619,152.405H65.207v12.786h15.412V152.405z"/>
<rect x="65.388" y="165.34" fill="#D0EAF0" width="15.05" height="12.486"/>
<path fill="#FFFFFF" d="M80.258,177.677H65.569v-12.188h14.689V177.677z M80.619,165.19H65.207v12.786h15.412V165.19z"/>
<rect x="65.388" y="178.188" fill="#D0EAF0" width="15.05" height="12.485"/>
<path fill="#FFFFFF" d="M80.258,190.525H65.569v-12.187h14.689V190.525z M80.619,178.039H65.207v12.785h15.412V178.039z"/>
<rect x="65.388" y="190.975" fill="#D0EAF0" width="15.05" height="12.485"/>
<path fill="#FFFFFF" d="M80.258,203.312H65.569v-12.188h14.689V203.312z M80.619,190.824H65.207v12.786h15.412V190.824z"/>
<rect x="65.389" y="203.76" fill="#D0EAF0" width="15.05" height="9.143"/>
<polygon fill="#FFFFFF" points="65.208,203.61 65.208,212.902 65.569,212.902 65.569,203.91 80.258,203.91 80.258,212.902 
	80.621,212.902 80.621,203.61 "/>
<rect x="80.8" y="140.251" fill="#D0EAF0" width="14.408" height="12.004"/>
<polygon fill="#FFFFFF" points="80.619,140.251 80.619,152.405 95.208,152.405 95.208,152.105 80.98,152.105 80.98,140.251 "/>
<rect x="80.8" y="152.554" fill="#D0EAF0" width="14.408" height="12.486"/>
<polygon fill="#FFFFFF" points="80.619,152.404 80.619,165.19 95.208,165.19 95.208,164.893 80.98,164.893 80.98,152.704 
	95.208,152.704 95.208,152.404 "/>
<rect x="80.8" y="165.34" fill="#D0EAF0" width="14.408" height="12.487"/>
<polygon fill="#FFFFFF" points="80.619,165.191 80.619,177.977 95.208,177.977 95.208,177.677 80.98,177.677 80.98,165.491 
	95.208,165.491 95.208,165.191 "/>
<rect x="80.8" y="178.188" fill="#D0EAF0" width="14.408" height="12.486"/>
<polygon fill="#FFFFFF" points="80.619,178.039 80.619,190.824 95.208,190.824 95.208,190.525 80.98,190.525 80.98,178.339 
	95.208,178.339 95.208,178.039 "/>
<rect x="80.8" y="190.976" fill="#D0EAF0" width="14.408" height="12.485"/>
<polygon fill="#FFFFFF" points="80.619,190.825 80.619,203.61 95.208,203.61 95.208,203.312 80.98,203.312 80.98,191.124 
	95.208,191.124 95.208,190.825 "/>
<rect x="80.8" y="203.76" fill="#D0EAF0" width="14.408" height="9.143"/>
<polygon fill="#FFFFFF" points="80.619,203.61 80.619,212.902 80.98,212.902 80.98,203.91 95.208,203.91 95.208,203.61 "/>
<rect x="49.978" y="140.251" fill="#D0EAF0" width="15.05" height="12.004"/>
<polygon fill="#FFFFFF" points="64.846,140.251 64.846,152.105 50.157,152.105 50.157,140.251 49.796,140.251 49.796,152.405 
	65.208,152.405 65.208,140.251 "/>
<rect x="49.978" y="152.554" fill="#D0EAF0" width="15.05" height="12.486"/>
<path fill="#FFFFFF" d="M64.846,164.892H50.157v-12.188h14.689V164.892z M65.208,152.405H49.797v12.786h15.411V152.405z"/>
<rect x="49.978" y="165.34" fill="#D0EAF0" width="15.05" height="12.486"/>
<path fill="#FFFFFF" d="M64.846,177.677H50.157v-12.188h14.689V177.677z M65.208,165.19H49.797v12.786h15.411V165.19z"/>
<rect x="49.978" y="178.188" fill="#D0EAF0" width="15.05" height="12.485"/>
<path fill="#FFFFFF" d="M64.846,190.525H50.157v-12.187h14.689V190.525z M65.208,178.039H49.797v12.785h15.411V178.039z"/>
<rect x="49.978" y="190.975" fill="#D0EAF0" width="15.05" height="12.485"/>
<path fill="#FFFFFF" d="M64.846,203.312H50.157v-12.188h14.689V203.312z M65.208,190.824H49.797v12.786h15.411V190.824z"/>
<rect x="49.978" y="203.76" fill="#D0EAF0" width="15.05" height="9.143"/>
<polygon fill="#FFFFFF" points="49.796,203.61 49.796,212.902 50.157,212.902 50.157,203.91 64.846,203.91 64.846,212.902 
	65.208,212.902 65.208,203.61 "/>
<rect x="34.582" y="140.251" fill="#D0EAF0" width="15.049" height="12.004"/>
<polygon fill="#FFFFFF" points="49.45,140.251 49.45,152.105 34.76,152.105 34.76,140.251 34.4,140.251 34.4,152.405 
	49.811,152.405 49.811,140.251 "/>
<rect x="34.582" y="152.554" fill="#D0EAF0" width="15.049" height="12.486"/>
<path fill="#FFFFFF" d="M49.45,164.892H34.761v-12.188H49.45V164.892z M49.812,152.405H34.401v12.786h15.411V152.405z"/>
<rect x="34.582" y="165.34" fill="#D0EAF0" width="15.049" height="12.486"/>
<path fill="#FFFFFF" d="M49.45,177.677H34.761v-12.188H49.45V177.677z M49.812,165.19H34.401v12.786h15.411V165.19z"/>
<rect x="34.582" y="178.188" fill="#D0EAF0" width="15.049" height="12.485"/>
<path fill="#FFFFFF" d="M49.45,190.525H34.761v-12.187H49.45V190.525z M49.812,178.039H34.401v12.785h15.411V178.039z"/>
<rect x="34.582" y="190.975" fill="#D0EAF0" width="15.049" height="12.485"/>
<path fill="#FFFFFF" d="M49.45,203.312H34.761v-12.188H49.45V203.312z M49.812,190.824H34.401v12.786h15.411V190.824z"/>
<rect x="34.582" y="203.76" fill="#D0EAF0" width="15.049" height="9.143"/>
<polygon fill="#FFFFFF" points="34.4,203.61 34.4,212.902 34.761,212.902 34.761,203.91 49.45,203.91 49.45,212.902 49.812,212.902 
	49.812,203.61 "/>
<rect x="19.168" y="140.251" fill="#D0EAF0" width="15.051" height="12.004"/>
<polygon fill="#FFFFFF" points="34.039,140.251 34.039,152.105 19.35,152.105 19.35,140.251 18.989,140.251 18.989,152.405 
	34.4,152.405 34.4,140.251 "/>
<rect x="19.169" y="152.554" fill="#D0EAF0" width="15.051" height="12.486"/>
<path fill="#FFFFFF" d="M34.039,164.892H19.35v-12.188h14.689V164.892z M34.399,152.405H18.988v12.786h15.411V152.405z"/>
<rect x="19.169" y="165.34" fill="#D0EAF0" width="15.051" height="12.486"/>
<path fill="#FFFFFF" d="M34.039,177.677H19.35v-12.188h14.689V177.677z M34.399,165.19H18.988v12.786h15.411V165.19z"/>
<rect x="19.169" y="178.188" fill="#D0EAF0" width="15.051" height="12.485"/>
<path fill="#FFFFFF" d="M34.039,190.525H19.35v-12.187h14.689V190.525z M34.399,178.039H18.988v12.785h15.411V178.039z"/>
<rect x="19.169" y="190.975" fill="#D0EAF0" width="15.051" height="12.485"/>
<path fill="#FFFFFF" d="M34.039,203.312H19.35v-12.188h14.689V203.312z M34.399,190.824H18.988v12.786h15.411V190.824z"/>
<rect x="19.168" y="203.76" fill="#D0EAF0" width="15.051" height="9.143"/>
<polygon fill="#FFFFFF" points="18.988,203.61 18.988,212.902 19.349,212.902 19.349,203.91 34.038,203.91 34.038,212.902 
	34.399,212.902 34.399,203.61 "/>
<rect x="4.585" y="140.251" fill="#D0EAF0" width="14.315" height="12.004"/>
<polygon fill="#FFFFFF" points="18.718,140.251 18.718,152.105 4.765,152.105 4.765,140.251 4.403,140.251 4.403,152.405 
	19.079,152.405 19.079,140.251 "/>
<rect x="4.585" y="152.554" fill="#D0EAF0" width="14.314" height="12.486"/>
<path fill="#FFFFFF" d="M18.718,164.892H4.765v-12.188h13.953V164.892z M19.08,152.405H4.405v12.786H19.08V152.405z"/>
<rect x="4.585" y="165.34" fill="#D0EAF0" width="14.314" height="12.486"/>
<path fill="#FFFFFF" d="M18.718,177.677H4.765v-12.188h13.953V177.677z M19.08,165.19H4.405v12.786H19.08V165.19z"/>
<rect x="4.585" y="178.188" fill="#D0EAF0" width="14.314" height="12.485"/>
<path fill="#FFFFFF" d="M18.718,190.525H4.765v-12.187h13.953V190.525z M19.08,178.039H4.405v12.785H19.08V178.039z"/>
<rect x="4.585" y="190.975" fill="#D0EAF0" width="14.314" height="12.485"/>
<path fill="#FFFFFF" d="M18.718,203.312H4.765v-12.188h13.953V203.312z M19.08,190.824H4.405v12.786H19.08V190.824z"/>
<polygon fill="#FFFFFF" points="4.404,203.61 4.404,212.902 4.766,212.902 4.766,203.91 18.719,203.91 18.719,212.902 
	19.079,212.902 19.079,203.61 "/>
<rect x="387.72" y="143.311" fill="#2E2D4B" width="16.333" height="33.807"/>
<rect y="26.247" fill="#2E2D4B" width="12.219" height="13.389"/>
<rect y="37.001" fill="#2E2D4B" width="53.219" height="16.583"/>
<rect x="94.695" y="37.001" fill="#2E2D4B" width="36.524" height="16.583"/>
<rect x="114.695" y="0.001" fill="#2E2D4B" width="48.024" height="16.583"/>
<rect x="217.195" y="0.001" fill="#2E2D4B" width="43.524" height="16.583"/>
<rect x="248.719" y="52.834" fill="#2E2D4B" width="48.25" height="16.583"/>
<rect x="337.719" y="52.834" fill="#2E2D4B" width="65.75" height="16.583"/>
<rect x="245.219" y="12.25" fill="#2E2D4B" width="15.5" height="57.167"/>
<rect x="114.695" y="14.334" fill="#2E2D4B" width="16.524" height="26.145"/>
<rect x="124.219" y="116.905" fill="#2E2D4B" width="7" height="24.472"/>
<rect x="245.219" y="57.039" fill="#2E2D4B" width="7" height="84.337"/>
<rect x="181.041" y="170.117" fill="#2E2D4B" width="215.513" height="7"/>
<rect x="124.219" y="27.169" fill="#2E2D4B" width="7" height="96.374"/>
<rect x="245.221" y="27.169" fill="#2E2D4B" width="4.859" height="96.374"/>
<rect x="56.709" y="208.884" fill="#2E2D4B" width="51.344" height="4.859"/>
<rect x="136.457" y="208.884" fill="#2E2D4B" width="49.298" height="4.859"/>
<rect y="45.048" fill="#2E2D4B" width="4.859" height="159.427"/>
<rect x="53.603" y="200.431" fill="#2E2D4B" width="5.522" height="19.468"/>
<rect x="95.238" y="189.812" fill="#2E2D4B" width="4.047" height="19.917"/>
<rect x="180.575" y="170.117" fill="#2E2D4B" width="5.18" height="43.602"/>
<rect x="95.238" y="137.33" fill="#2E2D4B" width="4.047" height="30.594"/>
<rect x="3.625" y="137.33" fill="#2E2D4B" width="95.011" height="4.047"/>
<rect x="124.219" y="137.33" fill="#2E2D4B" width="35.5" height="4.047"/>
<rect x="184.886" y="137.33" fill="#2E2D4B" width="67.333" height="4.047"/>
<rect x="8.696" fill="#2E2D4B" width="122.848" height="4.047"/>
<rect x="3.907" y="119.496" fill="#2E2D4B" width="31.845" height="4.047"/>
<rect x="14.085" y="131.288" fill="#2E2D4B" width="21.667" height="2.439"/>
<rect x="13.085" y="119.496" fill="#2E2D4B" width="2.417" height="21.667"/>
<rect x="19.835" y="119.496" fill="#2E2D4B" width="2.417" height="21.667"/>
<rect x="26.002" y="119.496" fill="#2E2D4B" width="2.417" height="21.667"/>
<rect x="33.335" y="119.496" fill="#2E2D4B" width="2.417" height="21.667"/>
<rect x="48.4" y="216.237" fill="#2E2D4B" width="10.725" height="3.662"/>
<rect y="216.237" fill="#2E2D4B" width="53.666" height="3.662"/>
<rect y="201.765" fill="#2E2D4B" width="4.379" height="16.289"/>
<rect x="8.695" y="0.001" fill="#2E2D4B" width="3.524" height="40.478"/>
<rect x="4.842" y="141.376" fill="#9E9D9B" width="22.781" height="14.333"/>
<rect x="4.379" y="205.291" fill="#9E9D9B" width="49.287" height="10.946"/>
<polygon fill="#D7D7D5" points="53.667,216.237 46.776,208.942 4.404,205.29 4.404,216.237 "/>
<rect x="4.842" y="123.543" fill="#9E9D9B" width="8.243" height="13.787"/>
<rect x="15.502" y="123.543" fill="#9E9D9B" width="4.333" height="7.745"/>
<polygon fill="#D7D7D5" points="16.877,125.604 19.835,123.543 19.835,131.288 15.502,131.288 "/>
<rect x="21.669" y="123.543" fill="#9E9D9B" width="4.333" height="7.745"/>
<rect x="15.502" y="133.729" fill="#9E9D9B" width="4.333" height="3.697"/>
<rect x="21.669" y="133.729" fill="#9E9D9B" width="4.333" height="3.697"/>
<rect x="28.418" y="123.543" fill="#9E9D9B" width="4.917" height="7.745"/>
<rect x="28.418" y="133.729" fill="#9E9D9B" width="4.917" height="3.697"/>
<polygon fill="#D7D7D5" points="23.044,125.604 26.002,123.543 26.002,131.288 21.669,131.288 "/>
<polygon fill="#D7D7D5" points="15.502,137.426 16.835,134.937 19.835,133.729 19.835,137.426 "/>
<polygon fill="#D7D7D5" points="21.669,137.426 23.002,134.937 26.002,133.729 26.002,137.426 "/>
<rect x="387.72" y="52.834" fill="#2E2D4B" width="16.333" height="34.895"/>
<rect x="387.722" y="87.729" fill="#A5DAEC" width="16.333" height="55.583"/>
<rect x="393.463" y="87.729" fill="#61A9C4" width="4.85" height="55.583"/>
<rect x="296.969" y="52.834" fill="#A5DAEC" width="41.167" height="16.583"/>
<rect x="296.969" y="58.663" fill="#61A9C4" width="41.167" height="4.924"/>
<rect x="162.72" y="0.001" fill="#A5DAEC" width="54.476" height="16.583"/>
<rect x="162.72" y="5.83" fill="#61A9C4" width="54.476" height="4.924"/>
<rect x="53.22" y="37.001" fill="#A5DAEC" width="41.476" height="16.583"/>
<rect x="53.22" y="42.83" fill="#61A9C4" width="41.476" height="4.924"/>
<rect x="95.238" y="187.562" fill="#E3004F" width="3.125" height="2.25"/>
<rect x="103.469" y="167.7" transform="matrix(-0.7071 -0.7071 0.7071 -0.7071 51.4108 380.9054)" fill="#E3004F" width="2.25" height="24.21"/>
<rect x="108.053" y="211.493" fill="#E3004F" width="3.125" height="2.25"/>
<rect x="116.284" y="191.632" transform="matrix(-0.7069 -0.7073 0.7073 -0.7069 56.2953 430.8021)" fill="#E3004F" width="2.249" height="24.209"/>
<rect x="159.719" y="139.126" fill="#E3004F" width="3.125" height="2.25"/>
<rect x="167.949" y="119.265" transform="matrix(-0.7069 -0.7073 0.7073 -0.7069 195.6703 343.8247)" fill="#E3004F" width="2.25" height="24.21"/>
<rect x="249.081" y="167.867" fill="#E3004F" width="3.125" height="2.25"/>
<rect x="257.31" y="148.005" transform="matrix(-0.7069 -0.7073 0.7073 -0.7069 327.8689 456.0865)" fill="#E3004F" width="2.249" height="24.209"/>
<rect x="91.571" y="37.001" fill="#E3004F" width="3.125" height="2.25"/>
<rect x="84.216" y="34.902" transform="matrix(0.7071 0.7071 -0.7071 0.7071 58.235 -46.5771)" fill="#E3004F" width="2.25" height="24.21"/>
<rect x="47.498" y="141.377" fill="#61A9C4" width="47.74" height="21.235"/>
<path fill="#FFFFFF" d="M54.259,153.986v-0.488c-0.449-0.099-0.788-0.438-0.886-0.886h-0.489
	C52.991,153.322,53.548,153.878,54.259,153.986"/>
<path fill="#FFFFFF" d="M54.259,153.004v-0.392h-0.393C53.935,152.792,54.077,152.935,54.259,153.004"/>
<path fill="#FFFFFF" d="M54.752,153.498v0.488c0.71-0.108,1.267-0.664,1.374-1.374h-0.488
	C55.54,153.061,55.2,153.399,54.752,153.498"/>
<path fill="#FFFFFF" d="M55.146,152.611h-0.392v0.392C54.934,152.935,55.076,152.792,55.146,152.611"/>
<path fill="#FFFFFF" d="M53.866,152.117h0.392v-0.392C54.078,151.794,53.936,151.937,53.866,152.117"/>
<path fill="#FFFFFF" d="M54.752,151.726v0.393h0.392C55.075,151.938,54.934,151.795,54.752,151.726"/>
<path fill="#FFFFFF" d="M53.065,143.476c-1.284,0-2.335,1.052-2.335,2.335v12.367c0,1.285,1.051,2.335,2.335,2.335h29.796
	c0.165,0,0.325-0.018,0.481-0.051c0.302,0.032,0.608,0.051,0.918,0.051c4.705,0,8.519-3.813,8.519-8.519s-3.814-8.519-8.519-8.519
	c-0.31,0-0.616,0.019-0.918,0.052c-0.156-0.033-0.316-0.052-0.481-0.052H53.065z M54.752,149.381v0.869
	c0.98,0.114,1.754,0.887,1.868,1.868h0.869v0.494h-0.869c-0.114,0.979-0.888,1.753-1.868,1.868v0.867h-0.494v-0.867
	c-0.981-0.115-1.753-0.889-1.868-1.868h-0.869v-0.494h0.869c0.115-0.981,0.887-1.754,1.868-1.868v-0.869H54.752z"/>
<path fill="#FFFFFF" d="M52.884,152.117h0.488c0.099-0.448,0.438-0.787,0.886-0.886v-0.488
	C53.548,150.851,52.992,151.407,52.884,152.117"/>
<path fill="#FFFFFF" d="M55.639,152.117h0.488c-0.108-0.71-0.664-1.267-1.374-1.374v0.488
	C55.201,151.33,55.54,151.669,55.639,152.117"/>
<path fill="#61A9C4" d="M48.401,200.431v-5.771v-1.323v-0.843c0-1.983-1.623-3.605-3.604-3.605h-7.125
	c-1.982,0-3.605,1.622-3.605,3.605v0.843v1.323v5.771H48.401z"/>
<path fill="#FFFFFF" d="M37.661,189.764h7.146c1.53,0,2.781,1.251,2.781,2.781v1.833c0,1.531-1.251,2.782-2.781,2.782h-7.146
	c-1.53,0-2.781-1.251-2.781-2.782v-1.833C34.88,191.015,36.131,189.764,37.661,189.764"/>
<path fill="#61A9C4" d="M42.443,193.521H42.08c-0.074,0.334-0.327,0.587-0.661,0.661v0.363
	C41.947,194.466,42.363,194.05,42.443,193.521"/>
<path fill="#61A9C4" d="M41.711,193.521h-0.293v0.293C41.553,193.762,41.659,193.656,41.711,193.521"/>
<path fill="#61A9C4" d="M42.08,193.153h0.364c-0.08-0.53-0.495-0.945-1.025-1.025v0.364
	C41.752,192.566,42.005,192.819,42.08,193.153"/>
<path fill="#61A9C4" d="M41.418,192.86v0.293h0.293C41.66,193.019,41.554,192.912,41.418,192.86"/>
<path fill="#61A9C4" d="M41.05,193.814v-0.293h-0.293C40.81,193.656,40.916,193.762,41.05,193.814"/>
<path fill="#61A9C4" d="M40.757,193.153h0.293v-0.293C40.916,192.912,40.809,193.019,40.757,193.153"/>
<path fill="#61A9C4" d="M41.05,194.546v-0.363c-0.334-0.073-0.587-0.327-0.661-0.661h-0.364
	C40.105,194.05,40.521,194.466,41.05,194.546"/>
<path fill="#61A9C4" d="M41.05,192.492v-0.364c-0.529,0.08-0.945,0.495-1.025,1.025h0.364
	C40.463,192.819,40.716,192.566,41.05,192.492"/>
<path fill="#61A9C4" d="M16.627,175.63h-2.375c-2.475,0-4.5-2.024-4.5-4.5v-4.625c0-2.475,2.025-4.5,4.5-4.5h2.375
	c2.475,0,4.5,2.025,4.5,4.5v4.625C21.127,173.605,19.103,175.63,16.627,175.63"/>
<path fill="#FFFFFF" d="M16.238,174.556h-1.596c-2.156,0-3.911-1.754-3.911-3.909v-5.231c0-2.156,1.755-3.911,3.911-3.911h1.596
	c2.156,0,3.91,1.755,3.91,3.911v5.231C20.147,172.802,18.394,174.556,16.238,174.556 M14.642,162.504
	c-1.605,0-2.911,1.307-2.911,2.911v5.231c0,1.604,1.306,2.909,2.911,2.909h1.596c1.605,0,2.91-1.306,2.91-2.909v-5.231
	c0-1.604-1.305-2.911-2.91-2.911H14.642z"/>
<path fill="#61A9C4" d="M20.689,162.308h-10.5c-0.619,0-1.125-0.507-1.125-1.125v-4.5c0-0.619,0.506-1.125,1.125-1.125h10.5
	c0.619,0,1.125,0.506,1.125,1.125v4.5C21.814,161.801,21.309,162.308,20.689,162.308"/>
<path fill="#61A9C4" d="M17.189,164.047h-3.5c-0.269,0-0.49-0.22-0.49-0.489v-2.5c0-0.27,0.221-0.489,0.49-0.489h3.5
	c0.269,0,0.49,0.22,0.49,0.489v2.5C17.679,163.827,17.458,164.047,17.189,164.047"/>
<path fill="#FFFFFF" d="M16.385,158.933c0,0.522-0.424,0.945-0.946,0.945c-0.523,0-0.947-0.423-0.947-0.945
	c0-0.523,0.424-0.946,0.947-0.946C15.961,157.986,16.385,158.409,16.385,158.933"/>
<rect x="4.842" y="98.108" fill="#B2D4DC" width="17.107" height="21.388"/>
<path fill="#FFFFFF" d="M7.748,102.428v6.104v0.771v8.604h0.491v-7.051c0.218,0.311,0.5,0.569,0.825,0.769v6.282h0.491v-6.046
	c0.26,0.094,0.536,0.151,0.824,0.162v5.884h0.492v-5.875h0.824v5.875h0.492v-5.875h0.824v5.875h0.492v-5.875h0.824v5.875h0.491
	v-5.875h0.825v5.875h0.491v-5.875h0.824v5.875h0.492v-5.884c0.289-0.011,0.564-0.068,0.824-0.162v6.046h0.492v-6.282
	c0.324-0.199,0.607-0.458,0.824-0.769v7.051h0.491v-8.604v-0.771v-6.104c0-1.501-1.228-2.729-2.729-2.729h-6.875
	C8.976,99.698,7.748,100.927,7.748,102.428"/>
<path fill="#61A9C4" d="M4.842,103.829v4.333h2.905v-1.666h2.842c0.154,0,0.281-0.127,0.281-0.282v-0.437
	c0-0.155-0.127-0.281-0.281-0.281H7.747v-1.667H4.842z"/>
<path fill="#FFFFFF" d="M6.297,106.598c0.268,0,0.484,0.218,0.484,0.484c0,0.269-0.216,0.485-0.484,0.485
	c-0.267,0-0.484-0.217-0.484-0.485C5.813,106.815,6.03,106.598,6.297,106.598"/>
<path fill="#FFFFFF" d="M6.297,104.426c0.268,0,0.484,0.218,0.484,0.484c0,0.268-0.216,0.485-0.484,0.485
	c-0.267,0-0.484-0.218-0.484-0.485C5.813,104.644,6.03,104.426,6.297,104.426"/>
<rect x="4.842" y="72.604" fill="#B2D4DC" width="2.905" height="15.25"/>
<rect x="7.748" y="72.604" fill="#61A9C4" width="14.202" height="15.25"/>
<rect x="22.609" y="74.104" fill="#61A9C4" width="0.927" height="12.25"/>
<path fill="#FFFFFF" d="M13.625,76.896c0,1.326-1.08,2.405-2.406,2.405c-1.327,0-2.406-1.079-2.406-2.405s1.079-2.405,2.406-2.405
	C12.544,74.49,13.625,75.569,13.625,76.896 M9.563,76.896c0,0.913,0.743,1.655,1.656,1.655c0.913,0,1.656-0.742,1.656-1.655
	s-0.743-1.655-1.656-1.655C10.306,75.24,9.563,75.982,9.563,76.896"/>
<path fill="#FFFFFF" d="M12.468,76.896c0,0.688-0.561,1.25-1.25,1.25s-1.25-0.562-1.25-1.25c0-0.689,0.561-1.25,1.25-1.25
	S12.468,76.206,12.468,76.896 M10.718,76.896c0,0.274,0.224,0.5,0.5,0.5s0.5-0.226,0.5-0.5c0-0.275-0.224-0.5-0.5-0.5
	S10.718,76.62,10.718,76.896"/>
<path fill="#FFFFFF" d="M19.198,76.896c0,0.907-0.739,1.646-1.646,1.646c-0.908,0-1.646-0.739-1.646-1.646s0.738-1.646,1.646-1.646
	C18.459,75.25,19.198,75.988,19.198,76.896 M16.656,76.896c0,0.493,0.402,0.896,0.896,0.896s0.896-0.403,0.896-0.896
	c0-0.494-0.402-0.896-0.896-0.896S16.656,76.401,16.656,76.896"/>
<path fill="#FFFFFF" d="M20.885,76.896c0,1.838-1.496,3.334-3.334,3.334c-1.837,0-3.333-1.496-3.333-3.334s1.496-3.333,3.333-3.333
	C19.389,73.563,20.885,75.058,20.885,76.896 M14.968,76.896c0,1.425,1.159,2.584,2.583,2.584c1.425,0,2.584-1.159,2.584-2.584
	s-1.159-2.583-2.584-2.583C16.127,74.313,14.968,75.471,14.968,76.896"/>
<path fill="#FFFFFF" d="M16.073,83.563c0-1.327,1.08-2.406,2.406-2.406c1.327,0,2.405,1.079,2.405,2.406
	c0,1.325-1.078,2.404-2.405,2.404C17.153,85.968,16.073,84.889,16.073,83.563 M20.134,83.563c0-0.913-0.742-1.656-1.655-1.656
	c-0.913,0-1.656,0.743-1.656,1.656s0.743,1.654,1.656,1.654C19.392,85.218,20.134,84.477,20.134,83.563"/>
<path fill="#FFFFFF" d="M17.229,83.563c0-0.688,0.561-1.25,1.25-1.25s1.25,0.562,1.25,1.25s-0.561,1.25-1.25,1.25
	S17.229,84.252,17.229,83.563 M18.979,83.563c0-0.275-0.224-0.5-0.5-0.5s-0.5,0.225-0.5,0.5c0,0.274,0.224,0.5,0.5,0.5
	S18.979,83.838,18.979,83.563"/>
<path fill="#FFFFFF" d="M10.5,83.563c0-0.908,0.739-1.646,1.646-1.646c0.908,0,1.646,0.737,1.646,1.646
	c0,0.906-0.738,1.646-1.646,1.646C11.238,85.21,10.5,84.47,10.5,83.563 M13.042,83.563c0-0.494-0.402-0.896-0.896-0.896
	s-0.896,0.401-0.896,0.896s0.402,0.896,0.896,0.896S13.042,84.058,13.042,83.563"/>
<path fill="#FFFFFF" d="M8.813,83.563c0-1.838,1.496-3.334,3.334-3.334c1.837,0,3.333,1.496,3.333,3.334s-1.496,3.333-3.333,3.333
	C10.309,86.896,8.813,85.401,8.813,83.563 M14.729,83.563c0-1.426-1.159-2.584-2.583-2.584c-1.425,0-2.584,1.158-2.584,2.584
	c0,1.424,1.159,2.583,2.584,2.583C13.57,86.146,14.729,84.987,14.729,83.563"/>
<rect x="21.949" y="82" fill="#B2D4DC" width="0.66" height="1.48"/>
<rect x="21.949" y="76.979" fill="#B2D4DC" width="0.66" height="1.48"/>
<rect x="4.842" y="53.585" fill="#B2D4DC" width="17.107" height="16.937"/>
<path fill="#61A9C4" d="M22.422,70.517c0.615-0.016,1.115-0.398,1.115-0.87V54.459c0-0.472-0.5-0.854-1.115-0.87V70.517z"/>
<rect x="4.842" y="87.854" fill="#D0EAF0" width="17.107" height="10.255"/>
<rect x="4.842" y="70.521" fill="#D0EAF0" width="17.107" height="2.083"/>
<rect y="200.431" fill="#2E2D4B" width="59.125" height="4.859"/>
<path fill="#2E2D4B" d="M23.397,16.584h-7.526v-1.845l2.532-2.561c0.723-0.757,1.196-1.273,1.419-1.55
	c0.222-0.275,0.377-0.515,0.465-0.713c0.087-0.198,0.131-0.406,0.131-0.624c0-0.27-0.087-0.482-0.263-0.639
	c-0.175-0.156-0.421-0.234-0.737-0.234c-0.327,0-0.657,0.094-0.99,0.28c-0.334,0.188-0.711,0.463-1.132,0.826l-1.539-1.802
	c0.535-0.478,0.984-0.819,1.348-1.024c0.364-0.206,0.76-0.363,1.188-0.471c0.428-0.11,0.91-0.164,1.444-0.164
	c0.671,0,1.27,0.118,1.798,0.354c0.527,0.236,0.936,0.573,1.227,1.011S23.2,8.357,23.2,8.901c0,0.407-0.051,0.783-0.153,1.128
	c-0.102,0.346-0.259,0.685-0.472,1.019c-0.212,0.333-0.495,0.685-0.848,1.053c-0.351,0.369-1.102,1.069-2.252,2.1v0.071h3.923
	V16.584z"/>
<path fill="#2E2D4B" d="M27.483,14.463l0.1,0.163c-0.459,1.802-0.875,3.129-1.248,3.979h-1.98c0.137-0.652,0.275-1.384,0.415-2.195
	c0.14-0.811,0.235-1.46,0.287-1.947H27.483z"/>
<path fill="#2E2D4B" d="M35.124,16.584h-2.845v-5.49c0-0.667,0.014-1.277,0.042-1.83c-0.175,0.213-0.392,0.435-0.652,0.666
	l-1.178,0.973l-1.454-1.788l3.562-2.901h2.525V16.584z"/>
<path fill="#2E2D4B" d="M44.956,11.413c0,1.835-0.307,3.179-0.923,4.032c-0.614,0.854-1.555,1.28-2.823,1.28
	c-1.238,0-2.173-0.445-2.802-1.337c-0.629-0.892-0.943-2.217-0.943-3.976c0-1.845,0.308-3.197,0.922-4.058
	c0.615-0.861,1.555-1.291,2.823-1.291c1.234,0,2.167,0.448,2.799,1.344C44.64,8.305,44.956,9.641,44.956,11.413 M40.253,11.413
	c0,1.173,0.073,1.979,0.22,2.419c0.146,0.439,0.392,0.659,0.737,0.659c0.351,0,0.598-0.226,0.741-0.681
	c0.145-0.454,0.217-1.252,0.217-2.397c0-1.149-0.073-1.955-0.22-2.416c-0.146-0.461-0.392-0.691-0.738-0.691
	c-0.345,0-0.591,0.223-0.737,0.667C40.326,9.417,40.253,10.23,40.253,11.413"/>
<path fill="#2E2D4B" d="M57.205,180.048c0-1.447,0.207-2.619,0.621-3.515c0.414-0.896,1.024-1.558,1.83-1.983
	c0.807-0.426,1.801-0.638,2.984-0.638c0.421,0,0.912,0.04,1.474,0.12v2.192c-0.472-0.09-0.985-0.135-1.539-0.135
	c-0.936,0-1.633,0.205-2.092,0.617c-0.458,0.411-0.709,1.083-0.752,2.015h0.086c0.424-0.806,1.108-1.206,2.049-1.206
	c0.922,0,1.638,0.297,2.146,0.89c0.509,0.594,0.763,1.42,0.763,2.479c0,1.14-0.322,2.039-0.965,2.699
	c-0.643,0.66-1.542,0.989-2.696,0.989c-1.224,0-2.182-0.396-2.873-1.191C57.551,182.587,57.205,181.476,57.205,180.048
	 M61.05,182.354c0.299,0,0.541-0.112,0.728-0.337c0.186-0.226,0.28-0.583,0.28-1.075c0-0.842-0.326-1.263-0.979-1.263
	c-0.322,0-0.583,0.109-0.784,0.326c-0.201,0.218-0.302,0.482-0.302,0.795c0,0.454,0.097,0.826,0.291,1.116
	C60.479,182.207,60.734,182.354,61.05,182.354"/>
<path fill="#2E2D4B" d="M68.754,182.311l0.1,0.163c-0.459,1.802-0.875,3.129-1.248,3.979h-1.98c0.137-0.652,0.275-1.384,0.415-2.195
	c0.14-0.811,0.235-1.46,0.287-1.947H68.754z"/>
<polygon fill="#2E2D4B" points="71.194,184.432 74.756,176.395 70.265,176.395 70.265,174.075 77.75,174.075 77.75,175.728 
	74.095,184.432 "/>
<path fill="#2E2D4B" d="M86.227,179.261c0,1.835-0.307,3.179-0.923,4.032c-0.614,0.854-1.555,1.279-2.823,1.279
	c-1.238,0-2.173-0.444-2.802-1.336c-0.629-0.892-0.943-2.217-0.943-3.976c0-1.845,0.308-3.197,0.922-4.058
	c0.615-0.861,1.555-1.291,2.823-1.291c1.234,0,2.167,0.448,2.799,1.344C85.911,176.152,86.227,177.487,86.227,179.261
	 M81.523,179.261c0,1.173,0.073,1.979,0.22,2.419c0.146,0.439,0.392,0.659,0.737,0.659c0.351,0,0.598-0.227,0.741-0.682
	c0.145-0.453,0.217-1.252,0.217-2.396c0-1.149-0.073-1.955-0.22-2.416c-0.146-0.461-0.392-0.691-0.738-0.691
	c-0.345,0-0.591,0.223-0.737,0.667C81.596,177.265,81.523,178.078,81.523,179.261"/>
<rect x="99.285" y="137.371" fill="#E3004F" width="3.125" height="2.25"/>
<rect x="107.516" y="117.51" transform="matrix(-0.7071 -0.7071 0.7071 -0.7071 93.8093 298.0865)" fill="#E3004F" width="2.25" height="24.21"/>
</svg>
