<?xml version="1.0" encoding="utf-8"?>
<!-- Generator: Adobe Illustrator 16.0.0, SVG Export Plug-In . SVG Version: 6.00 Build 0)  -->
<!DOCTYPE svg PUBLIC "-//W3C//DTD SVG 1.1//EN" "http://www.w3.org/Graphics/SVG/1.1/DTD/svg11.dtd">
<svg version="1.1" id="Слой_1" xmlns="http://www.w3.org/2000/svg" xmlns:xlink="http://www.w3.org/1999/xlink" x="0px" y="0px"
	 width="403.469px" height="219.898px" viewBox="0 0 403.469 219.898" enable-background="new 0 0 403.469 219.898"
	 xml:space="preserve">
<path fill="#E3004F" d="M175.44,105.33h-34.249v-8.393l11.523-11.653c3.293-3.442,5.444-5.794,6.455-7.053
	c1.013-1.258,1.717-2.339,2.115-3.244c0.398-0.903,0.598-1.85,0.598-2.841c0-1.226-0.398-2.194-1.194-2.904
	c-0.797-0.711-1.916-1.065-3.357-1.065c-1.484,0-2.985,0.424-4.503,1.274c-1.517,0.851-3.233,2.105-5.148,3.761l-7.006-8.199
	c2.433-2.173,4.477-3.728,6.134-4.664s3.459-1.652,5.407-2.147c1.947-0.495,4.137-0.742,6.569-0.742
	c3.054,0,5.782,0.538,8.183,1.613c2.399,1.077,4.261,2.611,5.584,4.601c1.324,1.99,1.985,4.223,1.985,6.697
	c0,1.852-0.231,3.563-0.693,5.133c-0.464,1.571-1.179,3.115-2.147,4.632c-0.968,1.518-2.254,3.115-3.857,4.795
	c-1.604,1.678-5.02,4.862-10.248,9.554v0.323h17.851V105.33z"/>
<path fill="#2E2D4B" d="M190.708,63.076c0,0.987-0.302,1.834-0.904,2.542c-0.603,0.707-1.473,1.221-2.612,1.54v0.065
	c2.656,0.334,3.984,1.589,3.984,3.767c0,1.481-0.586,2.645-1.758,3.494c-1.173,0.849-2.8,1.273-4.883,1.273
	c-0.856,0-1.648-0.062-2.378-0.186c-0.729-0.123-1.519-0.349-2.368-0.675v-3.57c0.697,0.355,1.406,0.619,2.128,0.789
	c0.723,0.171,1.389,0.256,1.998,0.256c0.942,0,1.631-0.132,2.063-0.398c0.432-0.264,0.647-0.679,0.647-1.246
	c0-0.435-0.112-0.77-0.337-1.006c-0.227-0.236-0.588-0.415-1.089-0.534c-0.501-0.12-1.153-0.179-1.959-0.179h-0.979v-3.234h1.001
	c2.185,0,3.276-0.558,3.276-1.676c0-0.42-0.161-0.733-0.484-0.936s-0.756-0.305-1.301-0.305c-1.016,0-2.068,0.341-3.156,1.024
	l-1.785-2.874c0.842-0.58,1.703-0.995,2.585-1.242c0.882-0.246,1.893-0.37,3.031-0.37c1.647,0,2.939,0.327,3.876,0.98
	C190.239,61.029,190.708,61.93,190.708,63.076"/>
<path fill="#2E2D4B" d="M199.317,65.111c0.915,0,1.74,0.213,2.477,0.637c0.737,0.425,1.311,1.025,1.721,1.801
	c0.409,0.777,0.614,1.673,0.614,2.69c0,1.777-0.535,3.142-1.605,4.093c-1.07,0.95-2.69,1.425-4.86,1.425
	c-1.857,0-3.374-0.287-4.55-0.86v-3.526c0.631,0.29,1.344,0.529,2.139,0.718c0.794,0.189,1.479,0.283,2.052,0.283
	c0.799,0,1.411-0.168,1.84-0.506s0.643-0.836,0.643-1.497c0-0.61-0.218-1.085-0.653-1.426s-1.096-0.512-1.981-0.512
	c-0.675,0-1.404,0.127-2.188,0.381l-1.578-0.783l0.6-8.404h9.078v3.582h-5.421l-0.196,2.1c0.566-0.108,0.969-0.169,1.209-0.179
	C198.894,65.117,199.114,65.111,199.317,65.111"/>
<path fill="#2E2D4B" d="M210.573,72.285l0.152,0.25c-0.704,2.766-1.343,4.801-1.916,6.107h-3.037
	c0.211-1.002,0.423-2.125,0.637-3.369c0.215-1.244,0.361-2.24,0.441-2.988H210.573z"/>
<path fill="#2E2D4B" d="M224.257,75.54h-11.55v-2.83l3.886-3.93c1.11-1.161,1.836-1.954,2.178-2.379
	c0.34-0.424,0.578-0.789,0.713-1.093c0.134-0.305,0.201-0.624,0.201-0.958c0-0.414-0.135-0.741-0.403-0.98
	c-0.268-0.239-0.646-0.359-1.132-0.359c-0.5,0-1.007,0.143-1.519,0.429c-0.512,0.287-1.09,0.71-1.736,1.269l-2.361-2.765
	c0.819-0.733,1.509-1.258,2.068-1.573c0.559-0.315,1.166-0.557,1.823-0.724c0.656-0.167,1.396-0.251,2.215-0.251
	c1.03,0,1.95,0.182,2.76,0.545c0.809,0.363,1.437,0.88,1.882,1.551c0.447,0.671,0.671,1.425,0.671,2.259
	c0,0.624-0.078,1.201-0.234,1.73c-0.156,0.531-0.397,1.051-0.724,1.563c-0.327,0.512-0.761,1.051-1.301,1.616
	c-0.541,0.567-1.693,1.641-3.457,3.223v0.108h6.021V75.54z"/>
<path fill="#2E2D4B" d="M237.385,67.604c0,2.815-0.473,4.879-1.415,6.188c-0.944,1.31-2.388,1.965-4.333,1.965
	c-1.901,0-3.335-0.684-4.3-2.051c-0.965-1.369-1.447-3.403-1.447-6.102c0-2.83,0.472-4.905,1.415-6.227
	c0.943-1.32,2.387-1.981,4.332-1.981c1.895,0,3.325,0.687,4.295,2.063C236.9,62.834,237.385,64.883,237.385,67.604 M230.167,67.604
	c0,1.8,0.112,3.037,0.338,3.712c0.224,0.675,0.603,1.013,1.132,1.013c0.537,0,0.916-0.349,1.137-1.045
	c0.223-0.698,0.332-1.924,0.332-3.68c0-1.764-0.111-2.999-0.337-3.707c-0.225-0.707-0.603-1.061-1.132-1.061
	s-0.908,0.341-1.132,1.023C230.279,64.542,230.167,65.791,230.167,67.604"/>
<path fill="#2E2D4B" d="M179.08,95.545c0-2.221,0.317-4.019,0.953-5.394c0.635-1.375,1.57-2.39,2.808-3.043
	c1.237-0.652,2.764-0.979,4.577-0.979c0.646,0,1.401,0.063,2.265,0.186v3.363c-0.726-0.138-1.513-0.207-2.362-0.207
	c-1.437,0-2.507,0.316-3.211,0.947c-0.704,0.632-1.089,1.662-1.153,3.092h0.13c0.653-1.233,1.702-1.851,3.146-1.851
	c1.415,0,2.513,0.455,3.293,1.366c0.779,0.911,1.17,2.179,1.17,3.805c0,1.749-0.494,3.129-1.48,4.142
	c-0.987,1.013-2.366,1.519-4.137,1.519c-1.88,0-3.349-0.609-4.408-1.829C179.61,99.442,179.08,97.737,179.08,95.545 M184.98,99.083
	c0.457,0,0.829-0.172,1.115-0.517c0.287-0.345,0.431-0.895,0.431-1.649c0-1.292-0.501-1.938-1.503-1.938
	c-0.493,0-0.895,0.167-1.202,0.5c-0.309,0.334-0.463,0.74-0.463,1.22c0,0.697,0.147,1.268,0.446,1.714
	C184.103,98.859,184.494,99.083,184.98,99.083"/>
<path fill="#2E2D4B" d="M197.955,86.129c1.677,0,2.981,0.338,3.914,1.013s1.398,1.633,1.398,2.874c0,0.842-0.22,1.58-0.658,2.215
	c-0.439,0.635-1.134,1.188-2.085,1.66c1.176,0.668,2.005,1.333,2.487,1.997s0.725,1.381,0.725,2.15c0,1.415-0.512,2.511-1.535,3.287
	s-2.453,1.165-4.289,1.165c-1.873,0-3.306-0.379-4.3-1.138c-0.994-0.758-1.491-1.849-1.491-3.271c0-0.921,0.222-1.707,0.664-2.356
	s1.187-1.239,2.231-1.769c-0.842-0.566-1.457-1.174-1.845-1.823c-0.389-0.649-0.583-1.362-0.583-2.14
	c0-1.219,0.476-2.168,1.427-2.846C194.966,86.469,196.279,86.129,197.955,86.129 M196.062,97.907c0,0.45,0.159,0.812,0.479,1.083
	c0.319,0.272,0.762,0.408,1.327,0.408c1.277,0,1.916-0.468,1.916-1.404c0-0.355-0.14-0.705-0.419-1.05s-0.778-0.731-1.497-1.159
	c-0.646,0.341-1.108,0.684-1.388,1.028S196.062,97.522,196.062,97.907 M197.934,89.231c-0.37,0-0.682,0.107-0.936,0.321
	s-0.381,0.491-0.381,0.833c0,0.624,0.424,1.176,1.273,1.654c0.515-0.298,0.867-0.569,1.056-0.816s0.283-0.526,0.283-0.838
	c0-0.349-0.127-0.628-0.381-0.839C198.595,89.337,198.289,89.231,197.934,89.231"/>
<path fill="#2E2D4B" d="M209.864,99.018l0.152,0.25c-0.704,2.767-1.343,4.801-1.916,6.107h-3.037
	c0.211-1.002,0.423-2.125,0.637-3.369c0.215-1.244,0.361-2.24,0.441-2.988H209.864z"/>
<path fill="#2E2D4B" d="M221.588,102.272h-4.365v-8.426c0-1.022,0.022-1.959,0.065-2.809c-0.269,0.327-0.603,0.668-1.001,1.023
	l-1.808,1.491l-2.231-2.743l5.465-4.452h3.875V102.272z"/>
<path fill="#2E2D4B" d="M236.676,94.337c0,2.815-0.473,4.879-1.415,6.188c-0.944,1.31-2.388,1.965-4.333,1.965
	c-1.901,0-3.335-0.684-4.3-2.052s-1.447-3.402-1.447-6.102c0-2.83,0.472-4.905,1.415-6.227c0.943-1.32,2.387-1.981,4.332-1.981
	c1.895,0,3.325,0.687,4.295,2.063C236.191,89.567,236.676,91.615,236.676,94.337 M229.458,94.337c0,1.8,0.112,3.037,0.338,3.712
	c0.224,0.675,0.603,1.013,1.132,1.013c0.537,0,0.916-0.349,1.137-1.045c0.223-0.697,0.332-1.924,0.332-3.68
	c0-1.764-0.111-2.999-0.337-3.707c-0.225-0.707-0.603-1.061-1.132-1.061s-0.908,0.341-1.132,1.022
	C229.57,91.274,229.458,92.522,229.458,94.337"/>
<rect x="178.318" y="80.934" fill="#2E2D4B" width="58.898" height="1.774"/>
<path fill="#2E2D4B" d="M262.378,84.813h-2.845v-5.49c0-0.667,0.014-1.277,0.042-1.83c-0.175,0.213-0.393,0.435-0.652,0.666
	l-1.178,0.973l-1.454-1.788l3.562-2.902h2.525V84.813z"/>
<polygon fill="#2E2D4B" points="265.69,84.813 269.252,76.776 264.762,76.776 264.762,74.457 272.245,74.457 272.245,76.109 
	268.592,84.813 "/>
<path fill="#2E2D4B" d="M276.253,82.692l0.1,0.163c-0.459,1.802-0.875,3.129-1.248,3.979h-1.979
	c0.137-0.652,0.275-1.384,0.415-2.195c0.14-0.811,0.235-1.46,0.287-1.947H276.253z"/>
<path fill="#2E2D4B" d="M284.822,76.691c0,0.643-0.196,1.195-0.589,1.656s-0.96,0.796-1.702,1.004v0.042
	c1.73,0.218,2.596,1.036,2.596,2.455c0,0.965-0.382,1.724-1.146,2.276c-0.763,0.554-1.824,0.83-3.181,0.83
	c-0.559,0-1.075-0.04-1.551-0.12c-0.475-0.08-0.99-0.228-1.543-0.44v-2.326c0.454,0.231,0.917,0.403,1.387,0.515
	c0.471,0.11,0.905,0.166,1.302,0.166c0.614,0,1.063-0.086,1.345-0.259s0.422-0.443,0.422-0.813c0-0.283-0.073-0.502-0.22-0.656
	c-0.146-0.153-0.383-0.269-0.709-0.347c-0.327-0.078-0.752-0.117-1.277-0.117h-0.639V78.45h0.653c1.423,0,2.135-0.363,2.135-1.092
	c0-0.274-0.105-0.478-0.315-0.61c-0.211-0.133-0.493-0.198-0.848-0.198c-0.662,0-1.349,0.222-2.058,0.666l-1.164-1.872
	c0.55-0.379,1.111-0.649,1.686-0.81c0.575-0.161,1.232-0.241,1.976-0.241c1.073,0,1.915,0.213,2.525,0.638
	C284.518,75.357,284.822,75.944,284.822,76.691"/>
<path fill="#2E2D4B" d="M293.726,79.643c0,1.835-0.308,3.179-0.923,4.032c-0.614,0.854-1.556,1.28-2.823,1.28
	c-1.238,0-2.173-0.445-2.802-1.337s-0.943-2.217-0.943-3.976c0-1.845,0.308-3.197,0.922-4.058c0.615-0.861,1.555-1.292,2.823-1.292
	c1.233,0,2.167,0.448,2.799,1.344C293.409,76.534,293.726,77.87,293.726,79.643 M289.022,79.643c0,1.173,0.073,1.979,0.22,2.419
	s0.393,0.659,0.737,0.659c0.351,0,0.598-0.226,0.741-0.681c0.145-0.454,0.217-1.252,0.217-2.397c0-1.149-0.073-1.955-0.22-2.416
	s-0.393-0.69-0.738-0.69c-0.345,0-0.591,0.222-0.737,0.667C289.096,77.646,289.022,78.46,289.022,79.643"/>
<path fill="#2E2D4B" d="M143.139,32.941h-2.845v-5.49c0-0.667,0.014-1.278,0.042-1.83c-0.176,0.213-0.393,0.434-0.652,0.666
	l-1.178,0.972l-1.454-1.788l3.562-2.901h2.525V32.941z"/>
<polygon fill="#2E2D4B" points="146.451,32.941 150.013,24.904 145.522,24.904 145.522,22.585 153.006,22.585 153.006,24.237 
	149.352,32.941 "/>
<path fill="#2E2D4B" d="M157.014,30.82l0.1,0.163c-0.459,1.802-0.875,3.129-1.248,3.98h-1.979c0.137-0.653,0.274-1.384,0.415-2.196
	c0.14-0.81,0.234-1.46,0.287-1.947H157.014z"/>
<path fill="#2E2D4B" d="M166.009,27.316c0,2.029-0.438,3.497-1.313,4.406c-0.875,0.907-2.274,1.361-4.2,1.361
	c-0.633,0-1.115-0.023-1.446-0.07v-2.221c0.407,0.076,0.813,0.113,1.22,0.113c1.003,0,1.776-0.207,2.32-0.62
	c0.544-0.414,0.839-1.068,0.887-1.962h-0.085c-0.185,0.341-0.367,0.587-0.547,0.738c-0.181,0.152-0.399,0.267-0.659,0.348
	c-0.261,0.08-0.584,0.12-0.972,0.12c-0.899,0-1.602-0.3-2.107-0.9c-0.506-0.601-0.759-1.429-0.759-2.484
	c0-1.149,0.327-2.049,0.981-2.702c0.656-0.653,1.554-0.979,2.693-0.979c1.267,0,2.248,0.421,2.943,1.263
	C165.661,24.568,166.009,25.765,166.009,27.316 M162.101,24.706c-0.308,0-0.558,0.11-0.749,0.333s-0.287,0.579-0.287,1.071
	c0,0.388,0.083,0.697,0.248,0.926c0.166,0.23,0.419,0.344,0.76,0.344c0.307,0,0.574-0.111,0.801-0.333
	c0.228-0.223,0.341-0.489,0.341-0.802c0-0.421-0.105-0.783-0.315-1.085C162.688,24.857,162.422,24.706,162.101,24.706"/>
<path fill="#2E2D4B" d="M174.486,27.771c0,1.835-0.307,3.179-0.923,4.032c-0.614,0.854-1.556,1.28-2.823,1.28
	c-1.238,0-2.173-0.445-2.802-1.336c-0.63-0.892-0.943-2.217-0.943-3.976c0-1.845,0.308-3.197,0.922-4.058
	c0.615-0.861,1.556-1.291,2.823-1.291c1.234,0,2.167,0.449,2.799,1.344C174.17,24.663,174.486,25.998,174.486,27.771
	 M169.783,27.771c0,1.173,0.073,1.979,0.22,2.419c0.146,0.439,0.393,0.659,0.737,0.659c0.351,0,0.598-0.226,0.741-0.681
	c0.145-0.454,0.217-1.252,0.217-2.397c0-1.149-0.073-1.955-0.22-2.416s-0.393-0.691-0.738-0.691c-0.345,0-0.591,0.222-0.737,0.667
	C169.856,25.774,169.783,26.587,169.783,27.771"/>
<path fill="#2E2D4B" d="M155.427,196.14c0,2.028-0.438,3.497-1.313,4.405c-0.875,0.907-2.274,1.361-4.2,1.361
	c-0.633,0-1.115-0.022-1.446-0.07v-2.221c0.407,0.076,0.813,0.113,1.22,0.113c1.003,0,1.776-0.207,2.32-0.62
	c0.544-0.414,0.839-1.068,0.887-1.962h-0.085c-0.185,0.341-0.367,0.587-0.547,0.738c-0.181,0.151-0.399,0.267-0.659,0.348
	c-0.261,0.08-0.584,0.12-0.972,0.12c-0.899,0-1.602-0.3-2.107-0.9s-0.759-1.429-0.759-2.483c0-1.149,0.327-2.05,0.981-2.702
	c0.656-0.653,1.554-0.979,2.693-0.979c1.267,0,2.248,0.421,2.943,1.264C155.079,193.392,155.427,194.588,155.427,196.14
	 M151.519,193.529c-0.308,0-0.558,0.11-0.749,0.333s-0.287,0.579-0.287,1.071c0,0.388,0.083,0.696,0.248,0.926
	c0.166,0.229,0.419,0.344,0.76,0.344c0.307,0,0.574-0.11,0.801-0.333c0.228-0.223,0.341-0.488,0.341-0.802
	c0-0.421-0.105-0.783-0.315-1.085C152.105,193.681,151.84,193.529,151.519,193.529"/>
<path fill="#2E2D4B" d="M159.435,199.644l0.1,0.163c-0.459,1.802-0.875,3.129-1.248,3.979h-1.979
	c0.137-0.652,0.275-1.384,0.415-2.195c0.14-0.811,0.235-1.46,0.287-1.947H159.435z"/>
<path fill="#2E2D4B" d="M168.004,193.643c0,0.644-0.196,1.195-0.589,1.656s-0.96,0.796-1.702,1.004v0.042
	c1.73,0.218,2.596,1.036,2.596,2.455c0,0.965-0.382,1.724-1.146,2.277c-0.763,0.553-1.824,0.829-3.181,0.829
	c-0.559,0-1.075-0.04-1.551-0.119c-0.475-0.081-0.99-0.229-1.543-0.441v-2.326c0.454,0.231,0.917,0.403,1.387,0.515
	c0.471,0.11,0.905,0.166,1.302,0.166c0.614,0,1.063-0.086,1.345-0.259s0.422-0.443,0.422-0.813c0-0.283-0.073-0.502-0.22-0.656
	c-0.146-0.153-0.383-0.269-0.709-0.347c-0.327-0.078-0.752-0.117-1.277-0.117h-0.639v-2.107h0.653c1.423,0,2.135-0.363,2.135-1.092
	c0-0.273-0.105-0.478-0.315-0.61c-0.211-0.133-0.493-0.198-0.848-0.198c-0.662,0-1.349,0.222-2.058,0.666l-1.164-1.872
	c0.55-0.379,1.111-0.648,1.686-0.809c0.575-0.161,1.232-0.24,1.976-0.24c1.073,0,1.915,0.212,2.525,0.637
	C167.699,192.309,168.004,192.896,168.004,193.643"/>
<path fill="#2E2D4B" d="M176.907,196.594c0,1.835-0.308,3.179-0.923,4.032c-0.614,0.854-1.556,1.279-2.823,1.279
	c-1.238,0-2.173-0.444-2.802-1.336s-0.943-2.217-0.943-3.976c0-1.845,0.308-3.197,0.922-4.058c0.615-0.861,1.555-1.291,2.823-1.291
	c1.233,0,2.167,0.448,2.799,1.344C176.591,193.485,176.907,194.821,176.907,196.594 M172.204,196.594
	c0,1.173,0.073,1.979,0.22,2.419s0.393,0.659,0.737,0.659c0.351,0,0.598-0.226,0.741-0.681c0.145-0.454,0.217-1.252,0.217-2.397
	c0-1.149-0.073-1.955-0.22-2.416s-0.393-0.691-0.738-0.691c-0.345,0-0.591,0.223-0.737,0.667S172.204,195.411,172.204,196.594"/>
<path fill="#2E2D4B" d="M32.306,67.114h-2.845v-5.49c0-0.667,0.014-1.278,0.042-1.83c-0.175,0.213-0.393,0.434-0.652,0.666
	l-1.178,0.972l-1.454-1.788l3.562-2.901h2.525V67.114z"/>
<path fill="#2E2D4B" d="M42.095,67.114h-7.526v-1.845l2.532-2.56c0.723-0.757,1.196-1.274,1.419-1.55s0.377-0.515,0.465-0.713
	c0.087-0.198,0.131-0.406,0.131-0.624c0-0.27-0.087-0.482-0.263-0.639c-0.175-0.156-0.421-0.234-0.737-0.234
	c-0.326,0-0.656,0.094-0.989,0.28c-0.334,0.188-0.711,0.463-1.132,0.826l-1.539-1.801c0.534-0.478,0.983-0.82,1.348-1.025
	c0.364-0.206,0.76-0.363,1.188-0.471c0.429-0.11,0.91-0.164,1.444-0.164c0.671,0,1.271,0.119,1.798,0.355s0.937,0.573,1.228,1.011
	c0.291,0.437,0.437,0.927,0.437,1.471c0,0.408-0.051,0.784-0.152,1.128c-0.103,0.346-0.26,0.685-0.473,1.019
	c-0.212,0.333-0.495,0.684-0.848,1.053C40.072,63,39.321,63.7,38.172,64.729v0.071h3.923V67.114z"/>
<path fill="#2E2D4B" d="M46.181,64.993l0.1,0.163c-0.459,1.802-0.875,3.129-1.248,3.98h-1.979c0.137-0.653,0.275-1.384,0.415-2.196
	c0.14-0.81,0.235-1.46,0.287-1.947H46.181z"/>
<path fill="#2E2D4B" d="M55.141,61.943c0,1.835-0.307,3.179-0.923,4.032c-0.614,0.854-1.556,1.28-2.823,1.28
	c-1.238,0-2.173-0.445-2.802-1.336c-0.63-0.892-0.943-2.217-0.943-3.976c0-1.845,0.308-3.197,0.922-4.058
	c0.615-0.861,1.556-1.291,2.823-1.291c1.234,0,2.167,0.449,2.799,1.344C54.824,58.835,55.141,60.17,55.141,61.943 M50.438,61.943
	c0,1.173,0.073,1.979,0.22,2.419c0.146,0.439,0.393,0.659,0.737,0.659c0.351,0,0.598-0.226,0.741-0.681
	c0.145-0.454,0.217-1.252,0.217-2.397c0-1.149-0.073-1.955-0.22-2.416s-0.393-0.691-0.738-0.691c-0.345,0-0.591,0.222-0.737,0.667
	C50.511,59.947,50.438,60.76,50.438,61.943"/>
<path fill="#2E2D4B" d="M63.653,61.943c0,1.835-0.308,3.179-0.923,4.032c-0.614,0.854-1.556,1.28-2.823,1.28
	c-1.238,0-2.173-0.445-2.802-1.336c-0.629-0.892-0.943-2.217-0.943-3.976c0-1.845,0.308-3.197,0.922-4.058
	c0.615-0.861,1.555-1.291,2.823-1.291c1.233,0,2.167,0.449,2.799,1.344C63.337,58.835,63.653,60.17,63.653,61.943 M58.95,61.943
	c0,1.173,0.073,1.979,0.22,2.419c0.146,0.439,0.393,0.659,0.737,0.659c0.351,0,0.598-0.226,0.741-0.681
	c0.145-0.454,0.217-1.252,0.217-2.397c0-1.149-0.073-1.955-0.22-2.416s-0.393-0.691-0.738-0.691c-0.345,0-0.591,0.222-0.737,0.667
	C59.023,59.947,58.95,60.76,58.95,61.943"/>
<rect x="65.39" y="140.251" fill="#D0EAF0" width="15.05" height="12.004"/>
<polygon fill="#FFFFFF" points="80.258,140.251 80.258,152.105 65.568,152.105 65.568,140.251 65.208,140.251 65.208,152.405 
	80.62,152.405 80.62,140.251 "/>
<rect x="65.389" y="152.554" fill="#D0EAF0" width="15.05" height="12.485"/>
<path fill="#FFFFFF" d="M80.258,164.891H65.569v-12.188h14.688V164.891z M80.619,152.405H65.207v12.785h15.412V152.405z"/>
<rect x="65.389" y="165.34" fill="#D0EAF0" width="15.05" height="12.486"/>
<path fill="#FFFFFF" d="M80.258,177.677H65.569V165.49h14.688V177.677z M80.619,165.189H65.207v12.786h15.412V165.189z"/>
<rect x="65.389" y="178.188" fill="#D0EAF0" width="15.05" height="12.485"/>
<path fill="#FFFFFF" d="M80.258,190.524H65.569v-12.187h14.688V190.524z M80.619,178.039H65.207v12.786h15.412V178.039z"/>
<rect x="65.389" y="190.974" fill="#D0EAF0" width="15.05" height="12.485"/>
<path fill="#FFFFFF" d="M80.258,203.311H65.569v-12.188h14.688V203.311z M80.619,190.824H65.207v12.786h15.412V190.824z"/>
<rect x="65.39" y="203.759" fill="#D0EAF0" width="15.05" height="9.144"/>
<polygon fill="#FFFFFF" points="65.208,203.61 65.208,212.902 65.569,212.902 65.569,203.91 80.258,203.91 80.258,212.902 
	80.62,212.902 80.62,203.61 "/>
<rect x="80.8" y="140.251" fill="#D0EAF0" width="14.408" height="12.004"/>
<polygon fill="#FFFFFF" points="80.619,140.251 80.619,152.405 95.208,152.405 95.208,152.105 80.98,152.105 80.98,140.251 "/>
<rect x="80.8" y="152.554" fill="#D0EAF0" width="14.408" height="12.486"/>
<polygon fill="#FFFFFF" points="80.619,152.404 80.619,165.189 95.208,165.189 95.208,164.892 80.98,164.892 80.98,152.704 
	95.208,152.704 95.208,152.404 "/>
<rect x="80.8" y="165.34" fill="#D0EAF0" width="14.408" height="12.487"/>
<polygon fill="#FFFFFF" points="80.619,165.19 80.619,177.976 95.208,177.976 95.208,177.677 80.98,177.677 80.98,165.491 
	95.208,165.491 95.208,165.19 "/>
<rect x="80.8" y="178.188" fill="#D0EAF0" width="14.408" height="12.486"/>
<polygon fill="#FFFFFF" points="80.619,178.039 80.619,190.824 95.208,190.824 95.208,190.524 80.98,190.524 80.98,178.339 
	95.208,178.339 95.208,178.039 "/>
<rect x="80.8" y="190.976" fill="#D0EAF0" width="14.408" height="12.485"/>
<polygon fill="#FFFFFF" points="80.619,190.825 80.619,203.61 95.208,203.61 95.208,203.311 80.98,203.311 80.98,191.124 
	95.208,191.124 95.208,190.825 "/>
<rect x="80.8" y="203.759" fill="#D0EAF0" width="14.408" height="9.144"/>
<polygon fill="#FFFFFF" points="80.619,203.61 80.619,212.902 80.98,212.902 80.98,203.91 95.208,203.91 95.208,203.61 "/>
<rect x="49.978" y="140.251" fill="#D0EAF0" width="15.05" height="12.004"/>
<polygon fill="#FFFFFF" points="64.847,140.251 64.847,152.105 50.157,152.105 50.157,140.251 49.796,140.251 49.796,152.405 
	65.208,152.405 65.208,140.251 "/>
<rect x="49.978" y="152.554" fill="#D0EAF0" width="15.05" height="12.485"/>
<path fill="#FFFFFF" d="M64.847,164.891H50.158v-12.188h14.688V164.891z M65.207,152.405H49.796v12.785h15.411V152.405z"/>
<rect x="49.978" y="165.34" fill="#D0EAF0" width="15.05" height="12.486"/>
<path fill="#FFFFFF" d="M64.847,177.677H50.158V165.49h14.688V177.677z M65.207,165.189H49.796v12.786h15.411V165.189z"/>
<rect x="49.978" y="178.188" fill="#D0EAF0" width="15.05" height="12.485"/>
<path fill="#FFFFFF" d="M64.847,190.524H50.158v-12.187h14.688V190.524z M65.207,178.039H49.796v12.786h15.411V178.039z"/>
<rect x="49.978" y="190.974" fill="#D0EAF0" width="15.05" height="12.485"/>
<path fill="#FFFFFF" d="M64.847,203.311H50.158v-12.188h14.688V203.311z M65.207,190.824H49.796v12.786h15.411V190.824z"/>
<rect x="49.978" y="203.759" fill="#D0EAF0" width="15.05" height="9.144"/>
<polygon fill="#FFFFFF" points="49.796,203.61 49.796,212.902 50.157,212.902 50.157,203.91 64.847,203.91 64.847,212.902 
	65.208,212.902 65.208,203.61 "/>
<rect x="34.581" y="140.251" fill="#D0EAF0" width="15.049" height="12.004"/>
<polygon fill="#FFFFFF" points="49.45,140.251 49.45,152.105 34.76,152.105 34.76,140.251 34.4,140.251 34.4,152.405 
	49.812,152.405 49.812,140.251 "/>
<rect x="34.581" y="152.554" fill="#D0EAF0" width="15.049" height="12.485"/>
<path fill="#FFFFFF" d="M49.451,164.891H34.763v-12.188h14.688V164.891z M49.812,152.405H34.4v12.785h15.411V152.405z"/>
<rect x="34.581" y="165.34" fill="#D0EAF0" width="15.049" height="12.486"/>
<path fill="#FFFFFF" d="M49.451,177.677H34.763V165.49h14.688V177.677z M49.812,165.189H34.4v12.786h15.411V165.189z"/>
<rect x="34.581" y="178.188" fill="#D0EAF0" width="15.049" height="12.485"/>
<path fill="#FFFFFF" d="M49.451,190.524H34.763v-12.187h14.688V190.524z M49.812,178.039H34.4v12.786h15.411V178.039z"/>
<rect x="34.581" y="190.974" fill="#D0EAF0" width="15.049" height="12.485"/>
<path fill="#FFFFFF" d="M49.451,203.311H34.763v-12.188h14.688V203.311z M49.812,190.824H34.4v12.786h15.411V190.824z"/>
<rect x="34.581" y="203.759" fill="#D0EAF0" width="15.049" height="9.144"/>
<polygon fill="#FFFFFF" points="34.4,203.61 34.4,212.902 34.762,212.902 34.762,203.91 49.45,203.91 49.45,212.902 49.812,212.902 
	49.812,203.61 "/>
<rect x="19.168" y="140.251" fill="#D0EAF0" width="15.052" height="12.004"/>
<polygon fill="#FFFFFF" points="34.038,140.251 34.038,152.105 19.35,152.105 19.35,140.251 18.988,140.251 18.988,152.405 
	34.4,152.405 34.4,140.251 "/>
<rect x="19.169" y="152.554" fill="#D0EAF0" width="15.052" height="12.485"/>
<path fill="#FFFFFF" d="M34.037,164.891H19.35v-12.188h14.688V164.891z M34.399,152.405H18.988v12.785h15.411V152.405z"/>
<rect x="19.169" y="165.34" fill="#D0EAF0" width="15.052" height="12.486"/>
<path fill="#FFFFFF" d="M34.037,177.677H19.35V165.49h14.688V177.677z M34.399,165.189H18.988v12.786h15.411V165.189z"/>
<rect x="19.169" y="178.188" fill="#D0EAF0" width="15.052" height="12.485"/>
<path fill="#FFFFFF" d="M34.037,190.524H19.35v-12.187h14.688V190.524z M34.399,178.039H18.988v12.786h15.411V178.039z"/>
<rect x="19.169" y="190.974" fill="#D0EAF0" width="15.052" height="12.485"/>
<path fill="#FFFFFF" d="M34.037,203.311H19.35v-12.188h14.688V203.311z M34.399,190.824H18.988v12.786h15.411V190.824z"/>
<rect x="19.168" y="203.759" fill="#D0EAF0" width="15.052" height="9.144"/>
<polygon fill="#FFFFFF" points="18.988,203.61 18.988,212.902 19.35,212.902 19.35,203.91 34.038,203.91 34.038,212.902 
	34.399,212.902 34.399,203.61 "/>
<rect x="4.585" y="140.251" fill="#D0EAF0" width="14.314" height="12.004"/>
<polygon fill="#FFFFFF" points="18.718,140.251 18.718,152.105 4.766,152.105 4.766,140.251 4.403,140.251 4.403,152.405 
	19.079,152.405 19.079,140.251 "/>
<rect x="4.585" y="152.554" fill="#D0EAF0" width="14.313" height="12.485"/>
<path fill="#FFFFFF" d="M18.718,164.891H4.766v-12.188h13.952V164.891z M19.078,152.405H4.403v12.785h14.675V152.405z"/>
<rect x="4.585" y="165.34" fill="#D0EAF0" width="14.313" height="12.486"/>
<path fill="#FFFFFF" d="M18.718,177.677H4.766V165.49h13.952V177.677z M19.078,165.189H4.403v12.786h14.675V165.189z"/>
<rect x="4.585" y="178.188" fill="#D0EAF0" width="14.313" height="12.485"/>
<path fill="#FFFFFF" d="M18.718,190.524H4.766v-12.187h13.952V190.524z M19.078,178.039H4.403v12.786h14.675V178.039z"/>
<rect x="4.585" y="190.974" fill="#D0EAF0" width="14.313" height="12.485"/>
<path fill="#FFFFFF" d="M18.718,203.311H4.766v-12.188h13.952V203.311z M19.078,190.824H4.403v12.786h14.675V190.824z"/>
<polygon fill="#FFFFFF" points="4.404,203.61 4.404,212.902 4.767,212.902 4.767,203.91 18.719,203.91 18.719,212.902 
	19.079,212.902 19.079,203.61 "/>
<rect x="387.721" y="143.311" fill="#2E2D4B" width="16.333" height="33.807"/>
<rect y="26.247" fill="#2E2D4B" width="12.219" height="13.389"/>
<rect y="37.001" fill="#2E2D4B" width="53.219" height="16.583"/>
<rect x="94.695" y="37.001" fill="#2E2D4B" width="36.523" height="16.583"/>
<rect x="114.695" y="0.001" fill="#2E2D4B" width="48.023" height="16.583"/>
<rect x="217.195" y="0.001" fill="#2E2D4B" width="43.523" height="16.583"/>
<rect x="248.719" y="52.834" fill="#2E2D4B" width="48.25" height="16.583"/>
<rect x="337.719" y="52.834" fill="#2E2D4B" width="65.75" height="16.583"/>
<rect x="245.219" y="12.25" fill="#2E2D4B" width="15.5" height="57.167"/>
<rect x="114.695" y="14.334" fill="#2E2D4B" width="16.523" height="26.144"/>
<rect x="124.219" y="116.905" fill="#2E2D4B" width="7" height="24.471"/>
<rect x="245.219" y="57.039" fill="#2E2D4B" width="7" height="84.337"/>
<rect x="181.04" y="170.117" fill="#2E2D4B" width="215.514" height="7"/>
<rect x="124.219" y="27.169" fill="#2E2D4B" width="7" height="96.374"/>
<rect x="245.221" y="27.169" fill="#2E2D4B" width="4.857" height="96.374"/>
<rect x="56.709" y="208.884" fill="#2E2D4B" width="51.345" height="4.859"/>
<rect x="136.456" y="208.884" fill="#2E2D4B" width="49.298" height="4.859"/>
<rect y="45.047" fill="#2E2D4B" width="4.858" height="159.426"/>
<rect x="53.603" y="200.431" fill="#2E2D4B" width="5.522" height="19.467"/>
<rect x="95.238" y="189.811" fill="#2E2D4B" width="4.047" height="19.917"/>
<rect x="180.574" y="170.117" fill="#2E2D4B" width="5.181" height="43.603"/>
<rect x="95.238" y="137.33" fill="#2E2D4B" width="4.047" height="30.594"/>
<rect x="3.625" y="137.33" fill="#2E2D4B" width="95.012" height="4.047"/>
<rect x="124.219" y="137.33" fill="#2E2D4B" width="35.5" height="4.047"/>
<rect x="184.887" y="137.33" fill="#2E2D4B" width="67.332" height="4.047"/>
<rect x="8.695" fill="#2E2D4B" width="122.849" height="4.047"/>
<rect x="3.906" y="119.496" fill="#2E2D4B" width="31.846" height="4.047"/>
<rect x="14.085" y="131.288" fill="#2E2D4B" width="21.667" height="2.439"/>
<rect x="13.085" y="119.496" fill="#2E2D4B" width="2.417" height="21.667"/>
<rect x="19.835" y="119.496" fill="#2E2D4B" width="2.417" height="21.667"/>
<rect x="26.002" y="119.496" fill="#2E2D4B" width="2.417" height="21.667"/>
<rect x="33.335" y="119.496" fill="#2E2D4B" width="2.417" height="21.667"/>
<rect x="48.4" y="216.237" fill="#2E2D4B" width="10.726" height="3.661"/>
<rect y="216.237" fill="#2E2D4B" width="53.666" height="3.661"/>
<rect y="201.765" fill="#2E2D4B" width="4.379" height="16.289"/>
<rect x="8.695" y="0.001" fill="#2E2D4B" width="3.523" height="40.477"/>
<rect x="4.842" y="141.376" fill="#9E9D9B" width="22.781" height="14.333"/>
<rect x="4.379" y="205.29" fill="#9E9D9B" width="49.287" height="10.947"/>
<polygon fill="#D7D7D5" points="53.666,216.237 46.776,208.941 4.404,205.29 4.404,216.237 "/>
<rect x="4.842" y="123.543" fill="#9E9D9B" width="8.243" height="13.787"/>
<rect x="15.502" y="123.543" fill="#9E9D9B" width="4.333" height="7.745"/>
<polygon fill="#D7D7D5" points="16.877,125.603 19.835,123.543 19.835,131.288 15.502,131.288 "/>
<rect x="21.669" y="123.543" fill="#9E9D9B" width="4.333" height="7.745"/>
<rect x="15.502" y="133.729" fill="#9E9D9B" width="4.333" height="3.697"/>
<rect x="21.669" y="133.729" fill="#9E9D9B" width="4.333" height="3.697"/>
<rect x="28.418" y="123.543" fill="#9E9D9B" width="4.917" height="7.745"/>
<rect x="28.418" y="133.729" fill="#9E9D9B" width="4.917" height="3.697"/>
<polygon fill="#D7D7D5" points="23.044,125.603 26.002,123.543 26.002,131.288 21.669,131.288 "/>
<polygon fill="#D7D7D5" points="15.502,137.426 16.835,134.936 19.835,133.728 19.835,137.426 "/>
<polygon fill="#D7D7D5" points="21.669,137.426 23.002,134.936 26.002,133.728 26.002,137.426 "/>
<rect x="387.721" y="52.834" fill="#2E2D4B" width="16.333" height="34.895"/>
<rect x="387.723" y="87.728" fill="#A5DAEC" width="16.333" height="55.583"/>
<rect x="393.463" y="87.728" fill="#61A9C4" width="4.851" height="55.583"/>
<rect x="296.969" y="52.834" fill="#A5DAEC" width="41.168" height="16.583"/>
<rect x="296.969" y="58.663" fill="#61A9C4" width="41.168" height="4.924"/>
<rect x="162.721" y="0.001" fill="#A5DAEC" width="54.476" height="16.583"/>
<rect x="162.721" y="5.83" fill="#61A9C4" width="54.476" height="4.924"/>
<rect x="53.221" y="37.001" fill="#A5DAEC" width="41.476" height="16.583"/>
<rect x="53.221" y="42.83" fill="#61A9C4" width="41.476" height="4.924"/>
<rect x="95.238" y="187.561" fill="#E3004F" width="3.125" height="2.25"/>
<rect x="103.468" y="167.7" transform="matrix(-0.7071 -0.7071 0.7071 -0.7071 51.4104 380.9052)" fill="#E3004F" width="2.25" height="24.21"/>
<rect x="108.054" y="211.493" fill="#E3004F" width="3.125" height="2.25"/>
<rect x="116.283" y="191.632" transform="matrix(-0.7071 -0.7071 0.7071 -0.7071 56.3647 430.8206)" fill="#E3004F" width="2.25" height="24.209"/>
<rect x="159.719" y="139.126" fill="#E3004F" width="3.125" height="2.25"/>
<rect x="167.949" y="119.265" transform="matrix(-0.7073 -0.7069 0.7069 -0.7073 195.8006 343.8073)" fill="#E3004F" width="2.25" height="24.21"/>
<rect x="249.078" y="167.867" fill="#E3004F" width="3.125" height="2.25"/>
<rect x="257.31" y="148.005" transform="matrix(-0.7069 -0.7073 0.7073 -0.7069 327.8689 456.0865)" fill="#E3004F" width="2.249" height="24.209"/>
<rect x="91.571" y="37.001" fill="#E3004F" width="3.125" height="2.25"/>
<rect x="84.216" y="34.902" transform="matrix(0.7071 0.7071 -0.7071 0.7071 58.2347 -46.5774)" fill="#E3004F" width="2.25" height="24.21"/>
<rect x="47.499" y="141.376" fill="#61A9C4" width="47.739" height="21.236"/>
<path fill="#FFFFFF" d="M54.259,153.986v-0.488c-0.448-0.1-0.787-0.438-0.886-0.886h-0.489
	C52.99,153.322,53.548,153.878,54.259,153.986"/>
<path fill="#FFFFFF" d="M54.259,153.004v-0.392h-0.394C53.936,152.792,54.077,152.934,54.259,153.004"/>
<path fill="#FFFFFF" d="M54.752,153.498v0.488c0.71-0.108,1.268-0.664,1.374-1.374h-0.487
	C55.539,153.06,55.2,153.398,54.752,153.498"/>
<path fill="#FFFFFF" d="M55.146,152.611h-0.394v0.392C54.934,152.934,55.075,152.792,55.146,152.611"/>
<path fill="#FFFFFF" d="M53.866,152.117h0.392v-0.393C54.078,151.794,53.937,151.936,53.866,152.117"/>
<path fill="#FFFFFF" d="M54.752,151.725v0.394h0.393C55.075,151.937,54.934,151.795,54.752,151.725"/>
<path fill="#FFFFFF" d="M53.064,143.475c-1.283,0-2.334,1.052-2.334,2.335v12.368c0,1.285,1.051,2.335,2.334,2.335h29.797
	c0.164,0,0.325-0.018,0.48-0.051c0.303,0.032,0.608,0.051,0.918,0.051c4.705,0,8.52-3.813,8.52-8.519s-3.814-8.52-8.52-8.52
	c-0.31,0-0.615,0.02-0.918,0.052c-0.155-0.032-0.316-0.052-0.48-0.052H53.064z M54.752,149.381v0.869
	c0.98,0.114,1.754,0.887,1.868,1.868h0.869v0.494H56.62c-0.114,0.979-0.888,1.753-1.868,1.867v0.868h-0.494v-0.868
	c-0.98-0.114-1.753-0.888-1.867-1.867h-0.869v-0.494h0.869c0.114-0.981,0.887-1.754,1.867-1.868v-0.869H54.752z"/>
<path fill="#FFFFFF" d="M52.884,152.117h0.488c0.1-0.448,0.438-0.787,0.886-0.887v-0.487
	C53.548,150.85,52.992,151.407,52.884,152.117"/>
<path fill="#FFFFFF" d="M55.64,152.117h0.487c-0.107-0.71-0.664-1.268-1.374-1.374v0.487
	C55.201,151.33,55.539,151.669,55.64,152.117"/>
<path fill="#61A9C4" d="M48.401,200.431v-5.771v-1.322v-0.844c0-1.982-1.623-3.604-3.604-3.604h-7.125
	c-1.981,0-3.604,1.622-3.604,3.604v0.844v1.322v5.771H48.401z"/>
<path fill="#FFFFFF" d="M37.661,189.764h7.146c1.53,0,2.781,1.251,2.781,2.781v1.833c0,1.53-1.251,2.781-2.781,2.781h-7.146
	c-1.53,0-2.781-1.251-2.781-2.781v-1.833C34.88,191.015,36.131,189.764,37.661,189.764"/>
<path fill="#61A9C4" d="M42.443,193.521h-0.364c-0.074,0.334-0.327,0.587-0.661,0.661v0.364
	C41.947,194.466,42.363,194.05,42.443,193.521"/>
<path fill="#61A9C4" d="M41.711,193.521h-0.293v0.293C41.554,193.762,41.659,193.656,41.711,193.521"/>
<path fill="#61A9C4" d="M42.079,193.153h0.364c-0.08-0.53-0.495-0.945-1.025-1.025v0.364
	C41.752,192.565,42.005,192.819,42.079,193.153"/>
<path fill="#61A9C4" d="M41.418,192.86v0.293h0.293C41.659,193.018,41.554,192.912,41.418,192.86"/>
<path fill="#61A9C4" d="M41.05,193.813v-0.293h-0.293C40.811,193.656,40.915,193.762,41.05,193.813"/>
<path fill="#61A9C4" d="M40.757,193.153h0.293v-0.293C40.915,192.912,40.81,193.018,40.757,193.153"/>
<path fill="#61A9C4" d="M41.05,194.546v-0.364c-0.334-0.073-0.587-0.327-0.66-0.661h-0.364
	C40.105,194.05,40.521,194.466,41.05,194.546"/>
<path fill="#61A9C4" d="M41.05,192.492v-0.364c-0.528,0.08-0.944,0.495-1.024,1.025h0.364
	C40.463,192.819,40.716,192.565,41.05,192.492"/>
<path fill="#61A9C4" d="M16.627,175.63h-2.375c-2.475,0-4.5-2.025-4.5-4.5v-4.625c0-2.475,2.025-4.5,4.5-4.5h2.375
	c2.476,0,4.5,2.025,4.5,4.5v4.625C21.127,173.604,19.103,175.63,16.627,175.63"/>
<path fill="#FFFFFF" d="M16.237,174.556h-1.596c-2.156,0-3.911-1.754-3.911-3.91v-5.23c0-2.156,1.755-3.911,3.911-3.911h1.596
	c2.156,0,3.91,1.755,3.91,3.911v5.23C20.147,172.802,18.394,174.556,16.237,174.556 M14.642,162.504
	c-1.605,0-2.911,1.306-2.911,2.911v5.23c0,1.604,1.306,2.91,2.911,2.91h1.596c1.604,0,2.91-1.306,2.91-2.91v-5.23
	c0-1.605-1.306-2.911-2.91-2.911H14.642z"/>
<path fill="#61A9C4" d="M20.689,162.307h-10.5c-0.619,0-1.125-0.506-1.125-1.125v-4.5c0-0.619,0.506-1.125,1.125-1.125h10.5
	c0.619,0,1.125,0.506,1.125,1.125v4.5C21.814,161.801,21.309,162.307,20.689,162.307"/>
<path fill="#61A9C4" d="M17.189,164.047h-3.5c-0.27,0-0.49-0.22-0.49-0.49v-2.5c0-0.269,0.221-0.489,0.49-0.489h3.5
	c0.269,0,0.49,0.221,0.49,0.489v2.5C17.68,163.827,17.458,164.047,17.189,164.047"/>
<path fill="#FFFFFF" d="M16.385,158.932c0,0.523-0.424,0.946-0.945,0.946c-0.523,0-0.947-0.423-0.947-0.946
	c0-0.522,0.424-0.945,0.947-0.945C15.961,157.986,16.385,158.409,16.385,158.932"/>
<rect x="4.843" y="98.108" fill="#B2D4DC" width="17.106" height="21.388"/>
<path fill="#FFFFFF" d="M7.747,102.428v6.104v0.771v8.604h0.491v-7.053c0.218,0.312,0.5,0.57,0.824,0.77v6.283h0.492v-6.047
	c0.26,0.094,0.535,0.151,0.823,0.161v5.886h0.492v-5.875h0.824v5.875h0.491v-5.875h0.824v5.875h0.492v-5.875h0.824v5.875h0.491
	v-5.875h0.825v5.875h0.49v-5.875h0.824v5.875h0.492v-5.886c0.289-0.01,0.564-0.067,0.824-0.161v6.047h0.492v-6.283
	c0.323-0.199,0.606-0.458,0.823-0.77v7.053h0.491v-8.604v-0.771v-6.104c0-1.501-1.229-2.729-2.729-2.729h-6.875
	C8.976,99.699,7.747,100.927,7.747,102.428"/>
<path fill="#61A9C4" d="M4.842,103.829v4.333h2.905v-1.666h2.842c0.153,0,0.281-0.127,0.281-0.282v-0.437
	c0-0.155-0.128-0.281-0.281-0.281H7.747v-1.667H4.842z"/>
<path fill="#FFFFFF" d="M6.297,106.598c0.269,0,0.484,0.217,0.484,0.484s-0.216,0.484-0.484,0.484c-0.268,0-0.483-0.217-0.483-0.484
	S6.029,106.598,6.297,106.598"/>
<path fill="#FFFFFF" d="M6.297,104.426c0.269,0,0.484,0.217,0.484,0.484s-0.216,0.484-0.484,0.484c-0.268,0-0.483-0.217-0.483-0.484
	S6.029,104.426,6.297,104.426"/>
<rect x="4.842" y="72.603" fill="#B2D4DC" width="2.905" height="15.25"/>
<rect x="7.747" y="72.603" fill="#61A9C4" width="14.202" height="15.25"/>
<rect x="22.609" y="74.103" fill="#61A9C4" width="0.928" height="12.25"/>
<path fill="#FFFFFF" d="M13.624,76.895c0,1.327-1.081,2.406-2.406,2.406c-1.326,0-2.405-1.079-2.405-2.406
	c0-1.325,1.079-2.405,2.405-2.405C12.543,74.49,13.624,75.569,13.624,76.895 M9.563,76.895c0,0.913,0.743,1.656,1.655,1.656
	c0.913,0,1.656-0.743,1.656-1.656s-0.743-1.654-1.656-1.654C10.306,75.24,9.563,75.981,9.563,76.895"/>
<path fill="#FFFFFF" d="M12.468,76.895c0,0.689-0.562,1.25-1.25,1.25s-1.25-0.561-1.25-1.25c0-0.688,0.562-1.25,1.25-1.25
	S12.468,76.206,12.468,76.895 M10.718,76.895c0,0.275,0.225,0.5,0.5,0.5c0.276,0,0.5-0.225,0.5-0.5c0-0.274-0.224-0.5-0.5-0.5
	C10.942,76.395,10.718,76.62,10.718,76.895"/>
<path fill="#FFFFFF" d="M19.198,76.895c0,0.908-0.739,1.646-1.646,1.646c-0.908,0-1.646-0.738-1.646-1.646
	c0-0.906,0.738-1.646,1.646-1.646C18.459,75.249,19.198,75.988,19.198,76.895 M16.656,76.895c0,0.494,0.402,0.896,0.896,0.896
	c0.493,0,0.896-0.402,0.896-0.896c0-0.493-0.402-0.896-0.896-0.896C17.059,75.999,16.656,76.401,16.656,76.895"/>
<path fill="#FFFFFF" d="M20.885,76.895c0,1.838-1.495,3.334-3.334,3.334c-1.837,0-3.333-1.496-3.333-3.334s1.496-3.333,3.333-3.333
	C19.39,73.562,20.885,75.057,20.885,76.895 M14.968,76.895c0,1.426,1.159,2.584,2.583,2.584c1.426,0,2.584-1.158,2.584-2.584
	c0-1.424-1.158-2.583-2.584-2.583C16.127,74.312,14.968,75.471,14.968,76.895"/>
<path fill="#FFFFFF" d="M16.072,83.563c0-1.326,1.081-2.405,2.407-2.405c1.327,0,2.404,1.079,2.404,2.405s-1.077,2.405-2.404,2.405
	C17.153,85.968,16.072,84.889,16.072,83.563 M20.134,83.563c0-0.913-0.741-1.655-1.654-1.655s-1.657,0.742-1.657,1.655
	s0.744,1.655,1.657,1.655S20.134,84.476,20.134,83.563"/>
<path fill="#FFFFFF" d="M17.229,83.563c0-0.688,0.561-1.25,1.25-1.25c0.688,0,1.25,0.562,1.25,1.25c0,0.689-0.562,1.25-1.25,1.25
	C17.79,84.813,17.229,84.252,17.229,83.563 M18.979,83.563c0-0.274-0.226-0.5-0.5-0.5c-0.276,0-0.5,0.226-0.5,0.5
	c0,0.275,0.224,0.5,0.5,0.5C18.754,84.063,18.979,83.838,18.979,83.563"/>
<path fill="#FFFFFF" d="M10.499,83.563c0-0.907,0.739-1.646,1.646-1.646c0.909,0,1.646,0.738,1.646,1.646s-0.737,1.646-1.646,1.646
	C11.238,85.209,10.499,84.47,10.499,83.563 M13.041,83.563c0-0.493-0.401-0.896-0.896-0.896c-0.493,0-0.896,0.402-0.896,0.896
	c0,0.494,0.402,0.896,0.896,0.896C12.64,84.459,13.041,84.057,13.041,83.563"/>
<path fill="#FFFFFF" d="M8.813,83.563c0-1.838,1.496-3.334,3.334-3.334c1.837,0,3.333,1.496,3.333,3.334
	c0,1.839-1.496,3.333-3.333,3.333C10.309,86.896,8.813,85.401,8.813,83.563 M14.729,83.563c0-1.425-1.159-2.584-2.583-2.584
	c-1.425,0-2.584,1.159-2.584,2.584s1.159,2.583,2.584,2.583C13.57,86.146,14.729,84.987,14.729,83.563"/>
<rect x="21.949" y="81.999" fill="#B2D4DC" width="0.66" height="1.48"/>
<rect x="21.949" y="76.979" fill="#B2D4DC" width="0.66" height="1.48"/>
<rect x="4.843" y="53.584" fill="#B2D4DC" width="17.106" height="16.938"/>
<path fill="#61A9C4" d="M22.422,70.516c0.615-0.015,1.115-0.398,1.115-0.87V54.459c0-0.472-0.5-0.855-1.115-0.87V70.516z"/>
<rect x="4.843" y="87.854" fill="#D0EAF0" width="17.106" height="10.255"/>
<rect x="4.843" y="70.521" fill="#D0EAF0" width="17.106" height="2.083"/>
<rect y="200.431" fill="#2E2D4B" width="59.125" height="4.858"/>
<path fill="#2E2D4B" d="M23.397,16.584h-7.526v-1.845l2.532-2.56c0.723-0.757,1.196-1.274,1.419-1.55
	c0.223-0.276,0.377-0.515,0.465-0.713c0.087-0.198,0.131-0.406,0.131-0.624c0-0.27-0.087-0.482-0.263-0.639
	c-0.175-0.156-0.421-0.234-0.737-0.234c-0.326,0-0.656,0.094-0.989,0.28c-0.334,0.188-0.711,0.463-1.132,0.826l-1.539-1.801
	c0.534-0.478,0.983-0.82,1.348-1.025c0.364-0.206,0.76-0.363,1.188-0.471c0.429-0.11,0.91-0.164,1.444-0.164
	c0.671,0,1.271,0.119,1.798,0.355c0.527,0.236,0.937,0.573,1.228,1.011c0.291,0.437,0.437,0.927,0.437,1.471
	c0,0.408-0.051,0.784-0.152,1.128c-0.103,0.346-0.26,0.685-0.473,1.019c-0.212,0.333-0.495,0.684-0.848,1.053
	c-0.352,0.369-1.103,1.069-2.252,2.099v0.071h3.923V16.584z"/>
<path fill="#2E2D4B" d="M27.483,14.463l0.1,0.163c-0.459,1.802-0.875,3.129-1.248,3.98h-1.979c0.137-0.653,0.275-1.384,0.415-2.196
	c0.14-0.81,0.235-1.46,0.287-1.947H27.483z"/>
<path fill="#2E2D4B" d="M35.124,16.584h-2.845v-5.49c0-0.667,0.014-1.278,0.042-1.83c-0.175,0.213-0.393,0.434-0.652,0.666
	l-1.178,0.972l-1.454-1.788l3.562-2.901h2.525V16.584z"/>
<path fill="#2E2D4B" d="M44.956,11.413c0,1.835-0.308,3.179-0.923,4.032c-0.614,0.854-1.556,1.28-2.823,1.28
	c-1.238,0-2.173-0.445-2.802-1.336c-0.629-0.892-0.943-2.217-0.943-3.976c0-1.845,0.308-3.197,0.922-4.058
	c0.615-0.861,1.555-1.291,2.823-1.291c1.233,0,2.167,0.449,2.799,1.344C44.64,8.305,44.956,9.64,44.956,11.413 M40.253,11.413
	c0,1.173,0.073,1.979,0.22,2.419c0.146,0.439,0.393,0.659,0.737,0.659c0.351,0,0.598-0.226,0.741-0.681
	c0.145-0.454,0.217-1.252,0.217-2.397c0-1.149-0.073-1.955-0.22-2.416s-0.393-0.691-0.738-0.691c-0.345,0-0.591,0.222-0.737,0.667
	C40.326,9.417,40.253,10.23,40.253,11.413"/>
<path fill="#2E2D4B" d="M57.205,180.048c0-1.447,0.207-2.619,0.621-3.515c0.414-0.896,1.023-1.558,1.83-1.983
	c0.807-0.425,1.801-0.638,2.983-0.638c0.421,0,0.912,0.04,1.474,0.12v2.192c-0.472-0.09-0.984-0.135-1.539-0.135
	c-0.936,0-1.633,0.205-2.092,0.618c-0.458,0.41-0.709,1.082-0.752,2.014h0.086c0.424-0.805,1.108-1.206,2.049-1.206
	c0.923,0,1.639,0.297,2.146,0.89c0.509,0.595,0.763,1.42,0.763,2.479c0,1.14-0.321,2.039-0.965,2.699
	c-0.643,0.66-1.542,0.989-2.696,0.989c-1.224,0-2.182-0.396-2.873-1.191C57.551,182.587,57.205,181.476,57.205,180.048
	 M61.05,182.354c0.299,0,0.541-0.112,0.728-0.337s0.28-0.583,0.28-1.075c0-0.842-0.326-1.263-0.979-1.263
	c-0.322,0-0.583,0.109-0.784,0.326c-0.201,0.218-0.302,0.482-0.302,0.795c0,0.454,0.097,0.826,0.29,1.117
	C60.479,182.208,60.733,182.354,61.05,182.354"/>
<path fill="#2E2D4B" d="M68.754,182.311l0.1,0.163c-0.459,1.802-0.875,3.129-1.248,3.979h-1.979
	c0.137-0.652,0.274-1.384,0.415-2.195c0.14-0.811,0.234-1.46,0.287-1.947H68.754z"/>
<path fill="#2E2D4B" d="M77.749,178.807c0,2.028-0.438,3.497-1.313,4.405c-0.875,0.907-2.274,1.361-4.2,1.361
	c-0.633,0-1.115-0.022-1.446-0.07v-2.221c0.407,0.076,0.813,0.113,1.22,0.113c1.003,0,1.776-0.207,2.32-0.62
	c0.544-0.414,0.839-1.068,0.887-1.962h-0.085c-0.185,0.341-0.367,0.587-0.547,0.738c-0.181,0.151-0.399,0.267-0.659,0.348
	c-0.261,0.08-0.584,0.12-0.972,0.12c-0.899,0-1.602-0.3-2.107-0.9s-0.759-1.429-0.759-2.483c0-1.149,0.327-2.05,0.981-2.702
	c0.656-0.653,1.554-0.979,2.693-0.979c1.267,0,2.248,0.421,2.943,1.264C77.401,176.059,77.749,177.255,77.749,178.807
	 M73.841,176.196c-0.308,0-0.558,0.11-0.749,0.333s-0.287,0.579-0.287,1.071c0,0.388,0.083,0.697,0.248,0.926
	c0.166,0.23,0.419,0.344,0.76,0.344c0.307,0,0.574-0.11,0.801-0.333c0.228-0.223,0.341-0.488,0.341-0.802
	c0-0.421-0.105-0.783-0.315-1.085C74.428,176.348,74.162,176.196,73.841,176.196"/>
<path fill="#2E2D4B" d="M86.227,179.261c0,1.835-0.307,3.179-0.923,4.032c-0.614,0.854-1.556,1.28-2.823,1.28
	c-1.238,0-2.173-0.445-2.802-1.337c-0.63-0.892-0.943-2.217-0.943-3.976c0-1.845,0.308-3.197,0.922-4.058
	c0.615-0.861,1.556-1.291,2.823-1.291c1.234,0,2.167,0.448,2.799,1.344C85.91,176.152,86.227,177.487,86.227,179.261
	 M81.523,179.261c0,1.173,0.073,1.979,0.22,2.419c0.146,0.439,0.393,0.659,0.737,0.659c0.351,0,0.598-0.227,0.741-0.681
	c0.145-0.454,0.217-1.253,0.217-2.397c0-1.149-0.073-1.955-0.22-2.416s-0.393-0.691-0.738-0.691c-0.345,0-0.591,0.223-0.737,0.668
	C81.597,177.265,81.523,178.078,81.523,179.261"/>
<rect x="99.285" y="137.371" fill="#E3004F" width="3.125" height="2.25"/>
<rect x="107.515" y="117.51" transform="matrix(-0.7071 -0.7071 0.7071 -0.7071 93.8088 298.0864)" fill="#E3004F" width="2.25" height="24.21"/>
<rect x="257.119" y="15.646" fill="#2E2D4B" width="132.365" height="4.047"/>
<rect x="387.723" y="15.646" fill="#2E2D4B" width="3.523" height="38.765"/>
<path fill="#2E2D4B" d="M271.82,32.942h-7.526v-1.845l2.532-2.56c0.723-0.757,1.196-1.274,1.419-1.55
	c0.222-0.276,0.377-0.515,0.465-0.713c0.087-0.198,0.132-0.406,0.132-0.624c0-0.27-0.088-0.482-0.264-0.639
	c-0.175-0.156-0.421-0.234-0.736-0.234c-0.327,0-0.657,0.094-0.99,0.28c-0.334,0.188-0.711,0.463-1.133,0.826l-1.538-1.801
	c0.534-0.478,0.983-0.82,1.348-1.025c0.364-0.206,0.76-0.363,1.188-0.471c0.428-0.11,0.909-0.164,1.443-0.164
	c0.671,0,1.271,0.119,1.798,0.355c0.527,0.236,0.937,0.573,1.228,1.011c0.291,0.437,0.437,0.927,0.437,1.471
	c0,0.408-0.051,0.784-0.153,1.128c-0.102,0.346-0.259,0.685-0.472,1.02c-0.212,0.333-0.495,0.684-0.848,1.053
	c-0.352,0.369-1.103,1.069-2.252,2.099v0.071h3.923V32.942z"/>
<path fill="#2E2D4B" d="M275.906,30.821l0.1,0.163c-0.459,1.802-0.875,3.129-1.248,3.98h-1.979c0.137-0.653,0.274-1.384,0.415-2.196
	c0.14-0.81,0.234-1.46,0.287-1.947H275.906z"/>
<path fill="#2E2D4B" d="M277.36,28.558c0-1.447,0.207-2.619,0.62-3.514c0.414-0.897,1.024-1.558,1.83-1.984
	c0.808-0.425,1.802-0.637,2.984-0.637c0.421,0,0.912,0.04,1.475,0.12v2.192c-0.473-0.09-0.985-0.135-1.539-0.135
	c-0.937,0-1.634,0.205-2.093,0.618c-0.458,0.411-0.709,1.083-0.752,2.014h0.086c0.425-0.805,1.108-1.206,2.05-1.206
	c0.922,0,1.638,0.297,2.146,0.89c0.509,0.594,0.763,1.42,0.763,2.479c0,1.14-0.321,2.039-0.965,2.699
	c-0.643,0.661-1.542,0.99-2.695,0.99c-1.225,0-2.183-0.397-2.873-1.192S277.36,29.986,277.36,28.558 M281.205,30.864
	c0.299,0,0.541-0.112,0.728-0.337s0.28-0.583,0.28-1.075c0-0.842-0.326-1.263-0.979-1.263c-0.322,0-0.583,0.11-0.784,0.326
	c-0.201,0.218-0.302,0.483-0.302,0.795c0,0.454,0.097,0.826,0.291,1.117S280.889,30.864,281.205,30.864"/>
<path fill="#2E2D4B" d="M293.379,27.771c0,1.835-0.307,3.179-0.923,4.032c-0.614,0.854-1.556,1.28-2.823,1.28
	c-1.238,0-2.173-0.445-2.802-1.336c-0.63-0.892-0.943-2.217-0.943-3.976c0-1.845,0.308-3.197,0.922-4.058
	c0.615-0.861,1.556-1.291,2.823-1.291c1.234,0,2.167,0.449,2.799,1.344C293.063,24.663,293.379,25.998,293.379,27.771
	 M288.676,27.771c0,1.173,0.073,1.979,0.22,2.419c0.146,0.439,0.393,0.659,0.737,0.659c0.351,0,0.598-0.226,0.741-0.681
	c0.145-0.454,0.217-1.252,0.217-2.397c0-1.149-0.073-1.955-0.22-2.416s-0.393-0.691-0.738-0.691c-0.345,0-0.591,0.222-0.737,0.667
	C288.749,25.775,288.676,26.588,288.676,27.771"/>
</svg>
