<?xml version="1.0" encoding="utf-8"?>
<!-- Generator: Adobe Illustrator 16.0.0, SVG Export Plug-In . SVG Version: 6.00 Build 0)  -->
<!DOCTYPE svg PUBLIC "-//W3C//DTD SVG 1.1//EN" "http://www.w3.org/Graphics/SVG/1.1/DTD/svg11.dtd">
<svg version="1.1" id="Слой_1" xmlns="http://www.w3.org/2000/svg" xmlns:xlink="http://www.w3.org/1999/xlink" x="0px" y="0px"
	 width="250.297px" height="406.752px" viewBox="0 0 250.297 406.752" enable-background="new 0 0 250.297 406.752"
	 xml:space="preserve">
<path fill="#E3004F" d="M54.335,343.008H20.086v-8.394l11.522-11.652c3.293-3.441,5.445-5.794,6.457-7.053
	c1.012-1.258,1.715-2.34,2.115-3.244c0.397-0.903,0.596-1.85,0.596-2.842c0-1.226-0.397-2.193-1.193-2.903
	c-0.797-0.711-1.916-1.065-3.357-1.065c-1.484,0-2.986,0.424-4.502,1.274c-1.518,0.851-3.234,2.104-5.15,3.761l-7.004-8.199
	c2.432-2.173,4.476-3.728,6.133-4.664c1.656-0.936,3.459-1.651,5.406-2.146c1.949-0.495,4.138-0.742,6.57-0.742
	c3.055,0,5.782,0.538,8.182,1.613c2.4,1.077,4.262,2.611,5.584,4.602c1.326,1.989,1.986,4.223,1.986,6.696
	c0,1.853-0.232,3.563-0.693,5.133c-0.465,1.571-1.178,3.115-2.147,4.632c-0.968,1.518-2.254,3.115-3.858,4.795
	c-1.603,1.678-5.019,4.862-10.248,9.554v0.323h17.852V343.008z"/>
<path fill="#2E2D4B" d="M69.603,300.754c0,0.987-0.302,1.834-0.904,2.542c-0.603,0.707-1.473,1.221-2.613,1.54v0.065
	c2.658,0.334,3.985,1.589,3.985,3.767c0,1.481-0.586,2.646-1.758,3.494c-1.173,0.849-2.8,1.274-4.883,1.274
	c-0.856,0-1.647-0.063-2.378-0.187c-0.729-0.123-1.518-0.349-2.368-0.675v-3.57c0.696,0.355,1.405,0.619,2.128,0.789
	c0.723,0.171,1.389,0.256,1.998,0.256c0.943,0,1.631-0.132,2.063-0.398c0.432-0.264,0.647-0.678,0.647-1.245
	c0-0.436-0.112-0.771-0.337-1.007c-0.227-0.235-0.588-0.414-1.089-0.533c-0.501-0.12-1.153-0.18-1.959-0.18h-0.979v-3.233h1.002
	c2.184,0,3.275-0.558,3.275-1.677c0-0.42-0.161-0.732-0.484-0.936c-0.322-0.203-0.756-0.305-1.301-0.305
	c-1.016,0-2.068,0.341-3.156,1.023l-1.785-2.873c0.842-0.58,1.703-0.996,2.584-1.242c0.883-0.246,1.894-0.37,3.033-0.37
	c1.646,0,2.938,0.327,3.875,0.979C69.134,298.708,69.603,299.609,69.603,300.754"/>
<path fill="#2E2D4B" d="M81.238,313.218h-4.365v-8.426c0-1.022,0.022-1.959,0.065-2.809c-0.268,0.327-0.602,0.668-1.002,1.023
	l-1.807,1.491l-2.231-2.743l5.465-4.452h3.875V313.218z"/>
<path fill="#2E2D4B" d="M89.468,309.963l0.152,0.25c-0.705,2.767-1.342,4.801-1.916,6.106h-3.037
	c0.211-1.002,0.423-2.125,0.637-3.368c0.215-1.244,0.361-2.24,0.441-2.988H89.468z"/>
<path fill="#2E2D4B" d="M101.191,313.218h-4.364v-8.426c0-1.022,0.021-1.959,0.064-2.809c-0.268,0.327-0.602,0.668-1.001,1.023
	l-1.808,1.491l-2.231-2.743l5.465-4.452h3.875V313.218z"/>
<path fill="#2E2D4B" d="M111.228,302.79c0.915,0,1.74,0.213,2.477,0.638c0.737,0.424,1.311,1.024,1.721,1.801
	c0.408,0.776,0.615,1.673,0.615,2.689c0,1.777-0.537,3.143-1.606,4.094c-1.069,0.949-2.69,1.424-4.86,1.424
	c-1.857,0-3.373-0.287-4.55-0.859v-3.526c0.631,0.29,1.345,0.529,2.14,0.718c0.793,0.189,1.478,0.283,2.051,0.283
	c0.799,0,1.412-0.168,1.84-0.506c0.429-0.338,0.643-0.836,0.643-1.497c0-0.61-0.218-1.085-0.654-1.426
	c-0.435-0.341-1.094-0.512-1.98-0.512c-0.675,0-1.404,0.127-2.188,0.381l-1.58-0.783l0.601-8.403h9.078v3.582h-5.421l-0.196,2.1
	c0.565-0.108,0.97-0.169,1.209-0.18S111.024,302.79,111.228,302.79"/>
<path fill="#2E2D4B" d="M59.976,333.223c0-2.221,0.316-4.019,0.952-5.394s1.57-2.389,2.808-3.043
	c1.238-0.652,2.764-0.979,4.578-0.979c0.646,0,1.4,0.062,2.264,0.185v3.365c-0.725-0.139-1.514-0.207-2.362-0.207
	c-1.437,0-2.507,0.315-3.211,0.946c-0.704,0.632-1.089,1.662-1.153,3.092h0.129c0.654-1.233,1.703-1.851,3.147-1.851
	c1.415,0,2.513,0.455,3.293,1.365c0.778,0.912,1.17,2.18,1.17,3.806c0,1.749-0.494,3.129-1.481,4.142
	c-0.986,1.012-2.365,1.519-4.135,1.519c-1.881,0-3.35-0.609-4.41-1.829C60.505,337.121,59.976,335.416,59.976,333.223
	 M65.875,336.761c0.457,0,0.829-0.172,1.114-0.518c0.287-0.344,0.432-0.894,0.432-1.648c0-1.292-0.501-1.938-1.503-1.938
	c-0.493,0-0.896,0.166-1.202,0.5c-0.309,0.334-0.463,0.74-0.463,1.22c0,0.696,0.148,1.268,0.445,1.714
	C64.997,336.537,65.39,336.761,65.875,336.761"/>
<path fill="#2E2D4B" d="M84.608,331.319c0,3.113-0.671,5.366-2.014,6.761c-1.342,1.393-3.49,2.088-6.444,2.088
	c-0.974,0-1.713-0.035-2.222-0.108v-3.406c0.625,0.115,1.248,0.175,1.873,0.175c1.539,0,2.726-0.318,3.561-0.953
	c0.834-0.636,1.288-1.639,1.359-3.011h-0.131c-0.282,0.522-0.562,0.9-0.836,1.134c-0.277,0.231-0.615,0.41-1.014,0.532
	c-0.4,0.123-0.896,0.185-1.49,0.185c-1.38,0-2.457-0.461-3.234-1.381c-0.776-0.922-1.164-2.192-1.164-3.812
	c0-1.763,0.502-3.146,1.508-4.147c1.005-1,2.382-1.502,4.131-1.502c1.944,0,3.45,0.646,4.518,1.938
	C84.075,327.102,84.608,328.938,84.608,331.319 M78.61,327.313c-0.473,0-0.854,0.17-1.148,0.511c-0.293,0.342-0.44,0.889-0.44,1.645
	c0,0.595,0.127,1.068,0.381,1.42c0.254,0.354,0.644,0.529,1.165,0.529c0.473,0,0.882-0.172,1.23-0.513
	c0.348-0.341,0.521-0.751,0.521-1.23c0-0.646-0.161-1.2-0.484-1.665C79.513,327.544,79.104,327.313,78.61,327.313"/>
<path fill="#2E2D4B" d="M90.759,336.696l0.152,0.25c-0.705,2.767-1.342,4.801-1.916,6.106h-3.037
	c0.211-1.002,0.423-2.125,0.637-3.368c0.215-1.244,0.361-2.24,0.441-2.988H90.759z"/>
<path fill="#2E2D4B" d="M103.909,327.487c0,0.987-0.303,1.834-0.904,2.542c-0.603,0.707-1.473,1.221-2.613,1.54v0.065
	c2.658,0.334,3.985,1.589,3.985,3.767c0,1.481-0.586,2.646-1.758,3.494c-1.173,0.849-2.8,1.274-4.883,1.274
	c-0.856,0-1.648-0.063-2.378-0.187c-0.729-0.123-1.518-0.349-2.368-0.675v-3.57c0.696,0.355,1.405,0.619,2.128,0.789
	c0.723,0.171,1.389,0.256,1.998,0.256c0.943,0,1.631-0.132,2.063-0.398c0.432-0.264,0.647-0.678,0.647-1.245
	c0-0.436-0.112-0.771-0.337-1.007c-0.227-0.235-0.588-0.414-1.089-0.533c-0.501-0.12-1.153-0.18-1.96-0.18h-0.979v-3.233h1.001
	c2.185,0,3.276-0.558,3.276-1.677c0-0.42-0.161-0.732-0.484-0.936c-0.322-0.203-0.756-0.305-1.301-0.305
	c-1.016,0-2.068,0.341-3.156,1.023l-1.785-2.873c0.842-0.58,1.703-0.996,2.584-1.242c0.883-0.246,1.894-0.37,3.032-0.37
	c1.647,0,2.939,0.327,3.876,0.979C103.44,325.44,103.909,326.341,103.909,327.487"/>
<path fill="#2E2D4B" d="M117.57,332.015c0,2.814-0.473,4.879-1.415,6.188c-0.945,1.311-2.388,1.966-4.332,1.966
	c-1.902,0-3.336-0.683-4.301-2.052s-1.447-3.402-1.447-6.102c0-2.83,0.471-4.904,1.416-6.227c0.942-1.32,2.385-1.981,4.332-1.981
	c1.894,0,3.324,0.687,4.295,2.063C117.085,327.246,117.57,329.293,117.57,332.015 M110.353,332.015c0,1.8,0.111,3.037,0.338,3.712
	c0.225,0.675,0.602,1.013,1.133,1.013c0.536,0,0.916-0.349,1.137-1.045c0.222-0.697,0.332-1.924,0.332-3.68
	c0-1.764-0.112-2.999-0.338-3.707c-0.225-0.707-0.603-1.061-1.131-1.061c-0.531,0-0.908,0.341-1.133,1.022
	C110.464,328.953,110.353,330.201,110.353,332.015"/>
<rect x="59.213" y="318.611" fill="#2E2D4B" width="58.897" height="1.774"/>
<path fill="#2E2D4B" d="M136.734,30.827h-2.845v-5.49c0-0.667,0.014-1.278,0.041-1.83c-0.174,0.213-0.391,0.434-0.651,0.666
	l-1.178,0.972l-1.454-1.788l3.563-2.901h2.524V30.827z"/>
<path fill="#2E2D4B" d="M142.849,20.308c1.092,0,1.942,0.219,2.551,0.659c0.607,0.44,0.912,1.064,0.912,1.873
	c0,0.549-0.144,1.029-0.43,1.443s-0.738,0.775-1.359,1.082c0.767,0.435,1.307,0.869,1.621,1.302c0.314,0.433,0.471,0.899,0.471,1.4
	c0,0.923-0.332,1.637-1,2.143c-0.666,0.506-1.598,0.759-2.795,0.759c-1.219,0-2.153-0.247-2.801-0.742
	c-0.647-0.494-0.972-1.204-0.972-2.131c0-0.601,0.144-1.113,0.433-1.536c0.289-0.423,0.773-0.807,1.455-1.153
	c-0.55-0.368-0.951-0.765-1.203-1.187c-0.252-0.424-0.379-0.888-0.379-1.395c0-0.794,0.309-1.412,0.928-1.854
	C140.899,20.528,141.757,20.308,142.849,20.308 M141.614,27.982c0,0.294,0.104,0.529,0.313,0.706
	c0.208,0.178,0.497,0.266,0.865,0.266c0.833,0,1.249-0.305,1.249-0.915c0-0.231-0.093-0.46-0.272-0.685
	c-0.183-0.224-0.508-0.475-0.977-0.754c-0.421,0.221-0.723,0.445-0.904,0.669C141.706,27.494,141.614,27.732,141.614,27.982
	 M142.835,22.329c-0.241,0-0.443,0.069-0.609,0.209c-0.166,0.14-0.248,0.32-0.248,0.543c0,0.406,0.275,0.766,0.83,1.078
	c0.336-0.194,0.563-0.371,0.687-0.532c0.123-0.16,0.185-0.343,0.185-0.546c0-0.228-0.083-0.409-0.248-0.546
	C143.265,22.397,143.065,22.329,142.835,22.329"/>
<path fill="#2E2D4B" d="M150.609,28.706l0.101,0.163c-0.459,1.802-0.875,3.129-1.248,3.98h-1.98
	c0.137-0.653,0.275-1.384,0.415-2.196c0.14-0.81,0.235-1.46,0.286-1.947H150.609z"/>
<polygon fill="#2E2D4B" points="153.05,30.827 156.612,22.79 152.12,22.79 152.12,20.471 159.604,20.471 159.604,22.123 
	155.95,30.827 "/>
<path fill="#2E2D4B" d="M168.117,25.202c0,2.029-0.438,3.497-1.313,4.406c-0.875,0.907-2.274,1.361-4.2,1.361
	c-0.633,0-1.115-0.023-1.447-0.07v-2.221c0.408,0.076,0.814,0.113,1.221,0.113c1.003,0,1.775-0.207,2.32-0.62
	c0.544-0.414,0.839-1.068,0.887-1.962H165.5c-0.185,0.341-0.367,0.587-0.547,0.738c-0.181,0.152-0.399,0.267-0.659,0.348
	c-0.262,0.08-0.584,0.12-0.973,0.12c-0.898,0-1.601-0.3-2.106-0.9c-0.506-0.601-0.759-1.429-0.759-2.484
	c0-1.149,0.326-2.049,0.982-2.702c0.655-0.653,1.553-0.979,2.692-0.979c1.267,0,2.248,0.421,2.942,1.263
	C167.771,22.454,168.117,23.65,168.117,25.202 M164.209,22.591c-0.308,0-0.558,0.11-0.749,0.333
	c-0.191,0.223-0.287,0.579-0.287,1.071c0,0.388,0.083,0.697,0.248,0.926c0.166,0.23,0.419,0.344,0.76,0.344
	c0.307,0,0.574-0.111,0.801-0.333c0.228-0.223,0.34-0.489,0.34-0.802c0-0.421-0.104-0.783-0.314-1.085
	C164.796,22.742,164.53,22.591,164.209,22.591"/>
<path fill="#2E2D4B" d="M22.661,16.584h-7.525v-1.845l2.531-2.56c0.724-0.757,1.197-1.274,1.42-1.55
	c0.222-0.276,0.377-0.515,0.465-0.713c0.087-0.198,0.131-0.406,0.131-0.624c0-0.27-0.087-0.482-0.264-0.639
	c-0.174-0.156-0.42-0.234-0.736-0.234c-0.327,0-0.656,0.094-0.99,0.28c-0.334,0.188-0.711,0.463-1.132,0.826l-1.539-1.801
	c0.535-0.478,0.984-0.82,1.349-1.025c0.363-0.206,0.76-0.363,1.188-0.471c0.428-0.11,0.91-0.164,1.443-0.164
	c0.672,0,1.271,0.119,1.799,0.355c0.527,0.236,0.936,0.573,1.227,1.011c0.291,0.437,0.438,0.927,0.438,1.471
	c0,0.408-0.051,0.784-0.153,1.128c-0.103,0.346-0.259,0.685-0.472,1.02c-0.213,0.333-0.495,0.684-0.848,1.053
	c-0.352,0.369-1.103,1.069-2.252,2.099v0.071h3.922V16.584z"/>
<path fill="#2E2D4B" d="M26.747,14.463l0.101,0.163c-0.459,1.802-0.875,3.129-1.248,3.98H23.62c0.137-0.653,0.274-1.384,0.414-2.196
	c0.141-0.81,0.235-1.46,0.287-1.947H26.747z"/>
<polygon fill="#2E2D4B" points="29.188,16.584 32.75,8.547 28.259,8.547 28.259,6.228 35.743,6.228 35.743,7.88 32.089,16.584 "/>
<polygon fill="#2E2D4B" points="37.7,16.584 41.263,8.547 36.771,8.547 36.771,6.228 44.256,6.228 44.256,7.88 40.602,16.584 "/>
<path fill="#2E2D4B" d="M26.503,384.442h-2.845v-5.49c0-0.667,0.015-1.278,0.042-1.829c-0.175,0.213-0.392,0.434-0.652,0.666
	l-1.178,0.972l-1.453-1.788l3.562-2.901h2.524V384.442z"/>
<polygon fill="#2E2D4B" points="29.815,384.442 33.378,376.405 28.887,376.405 28.887,374.085 36.371,374.085 36.371,375.738 
	32.717,384.442 "/>
<path fill="#2E2D4B" d="M40.378,382.321l0.101,0.163c-0.459,1.802-0.875,3.129-1.248,3.98h-1.979
	c0.137-0.653,0.274-1.385,0.414-2.196c0.141-0.81,0.235-1.46,0.287-1.947H40.378z"/>
<path fill="#2E2D4B" d="M48.948,376.32c0,0.643-0.196,1.195-0.59,1.656c-0.392,0.461-0.959,0.796-1.701,1.004v0.042
	c1.729,0.218,2.596,1.036,2.596,2.455c0,0.965-0.383,1.724-1.146,2.276c-0.763,0.554-1.824,0.83-3.18,0.83
	c-0.559,0-1.076-0.039-1.551-0.119c-0.475-0.082-0.99-0.229-1.543-0.441v-2.326c0.453,0.23,0.916,0.403,1.387,0.516
	c0.471,0.109,0.904,0.166,1.301,0.166c0.615,0,1.064-0.086,1.346-0.26c0.281-0.173,0.422-0.443,0.422-0.813
	c0-0.283-0.073-0.502-0.221-0.656c-0.146-0.153-0.383-0.27-0.709-0.348c-0.326-0.077-0.752-0.116-1.277-0.116h-0.639v-2.107h0.653
	c1.423,0,2.136-0.364,2.136-1.092c0-0.274-0.105-0.478-0.316-0.61s-0.492-0.199-0.848-0.199c-0.662,0-1.348,0.223-2.057,0.666
	l-1.164-1.871c0.549-0.379,1.111-0.648,1.686-0.809s1.232-0.24,1.976-0.24c1.073,0,1.915,0.211,2.524,0.637
	C48.643,374.986,48.948,375.573,48.948,376.32"/>
<path fill="#2E2D4B" d="M50.345,380.058c0-1.447,0.207-2.619,0.621-3.514c0.414-0.897,1.023-1.559,1.83-1.984
	s1.801-0.637,2.984-0.637c0.421,0,0.912,0.039,1.474,0.119v2.192c-0.472-0.09-0.985-0.135-1.539-0.135
	c-0.937,0-1.633,0.204-2.092,0.618c-0.458,0.41-0.709,1.082-0.752,2.014h0.086c0.424-0.805,1.108-1.206,2.049-1.206
	c0.922,0,1.638,0.297,2.146,0.89c0.51,0.594,0.764,1.42,0.764,2.479c0,1.14-0.322,2.039-0.965,2.698
	c-0.643,0.662-1.543,0.99-2.696,0.99c-1.224,0-2.183-0.396-2.873-1.191S50.345,381.486,50.345,380.058 M54.19,382.364
	c0.299,0,0.541-0.112,0.728-0.337s0.28-0.583,0.28-1.075c0-0.842-0.326-1.263-0.979-1.263c-0.321,0-0.583,0.109-0.784,0.326
	c-0.201,0.218-0.302,0.482-0.302,0.795c0,0.453,0.097,0.826,0.291,1.117C53.619,382.218,53.874,382.364,54.19,382.364"/>
<path fill="#2E2D4B" d="M24.8,80.454h-2.846v-5.49c0-0.667,0.015-1.278,0.043-1.83c-0.176,0.213-0.393,0.434-0.652,0.666
	l-1.178,0.972l-1.454-1.788l3.562-2.901H24.8V80.454z"/>
<path fill="#2E2D4B" d="M34.241,72.332c0,0.643-0.195,1.195-0.589,1.656c-0.392,0.461-0.96,0.796-1.702,1.004v0.042
	c1.73,0.218,2.596,1.036,2.596,2.455c0,0.965-0.382,1.724-1.146,2.277c-0.763,0.553-1.824,0.83-3.181,0.83
	c-0.559,0-1.076-0.04-1.551-0.12c-0.475-0.081-0.99-0.228-1.543-0.441v-2.326c0.454,0.231,0.918,0.403,1.387,0.515
	c0.471,0.11,0.906,0.166,1.302,0.166c0.614,0,1.063-0.086,1.345-0.259c0.281-0.173,0.422-0.444,0.422-0.813
	c0-0.283-0.072-0.502-0.22-0.656c-0.146-0.153-0.384-0.269-0.709-0.347c-0.327-0.078-0.752-0.117-1.277-0.117h-0.639v-2.107h0.653
	c1.423,0,2.135-0.364,2.135-1.092c0-0.274-0.105-0.478-0.314-0.61c-0.212-0.133-0.494-0.199-0.849-0.199
	c-0.662,0-1.349,0.222-2.058,0.666l-1.164-1.872c0.55-0.379,1.111-0.648,1.686-0.808c0.575-0.161,1.232-0.241,1.977-0.241
	c1.072,0,1.914,0.212,2.524,0.637C33.937,70.998,34.241,71.585,34.241,72.332"/>
<path fill="#2E2D4B" d="M38.675,78.333l0.1,0.163c-0.459,1.802-0.875,3.129-1.248,3.98h-1.979c0.137-0.653,0.274-1.384,0.415-2.196
	c0.14-0.81,0.234-1.46,0.287-1.947H38.675z"/>
<polygon fill="#2E2D4B" points="41.115,80.454 44.677,72.417 40.187,72.417 40.187,70.098 47.671,70.098 47.671,71.75 
	44.017,80.454 "/>
<path fill="#2E2D4B" d="M56.183,74.829c0,2.029-0.438,3.497-1.313,4.406c-0.875,0.907-2.274,1.361-4.199,1.361
	c-0.633,0-1.116-0.023-1.447-0.07v-2.221c0.406,0.076,0.814,0.113,1.22,0.113c1.003,0,1.776-0.207,2.32-0.62
	c0.544-0.414,0.839-1.068,0.887-1.962h-0.085c-0.186,0.341-0.367,0.587-0.547,0.738c-0.18,0.152-0.398,0.267-0.659,0.348
	c-0.261,0.08-0.584,0.12-0.972,0.12c-0.899,0-1.602-0.3-2.107-0.9c-0.506-0.602-0.759-1.429-0.759-2.484
	c0-1.149,0.327-2.049,0.981-2.702c0.656-0.653,1.554-0.979,2.693-0.979c1.266,0,2.248,0.421,2.943,1.263
	C55.835,72.081,56.183,73.278,56.183,74.829 M52.274,72.219c-0.309,0-0.559,0.11-0.749,0.333s-0.287,0.579-0.287,1.071
	c0,0.388,0.083,0.697,0.248,0.926c0.166,0.23,0.419,0.344,0.761,0.344c0.305,0,0.573-0.111,0.799-0.333
	c0.229-0.223,0.342-0.489,0.342-0.802c0-0.421-0.105-0.783-0.315-1.085C52.861,72.37,52.596,72.219,52.274,72.219"/>
<path fill="#2E2D4B" d="M118.171,193.451h-2.846v-5.49c0-0.667,0.015-1.278,0.043-1.83c-0.176,0.213-0.393,0.434-0.652,0.666
	l-1.178,0.972l-1.454-1.788l3.562-2.901h2.525V193.451z"/>
<path fill="#2E2D4B" d="M128.003,188.28c0,1.835-0.307,3.179-0.924,4.032c-0.613,0.854-1.555,1.279-2.822,1.279
	c-1.238,0-2.173-0.444-2.803-1.336c-0.629-0.892-0.942-2.217-0.942-3.976c0-1.845,0.308-3.197,0.922-4.058
	c0.615-0.861,1.556-1.291,2.823-1.291c1.234,0,2.167,0.449,2.799,1.344C127.687,185.172,128.003,186.507,128.003,188.28
	 M123.3,188.28c0,1.173,0.072,1.979,0.22,2.419c0.146,0.439,0.392,0.659,0.737,0.659c0.352,0,0.598-0.226,0.74-0.681
	c0.146-0.454,0.218-1.252,0.218-2.397c0-1.149-0.073-1.955-0.22-2.416s-0.393-0.691-0.738-0.691s-0.592,0.222-0.737,0.667
	C123.372,186.284,123.3,187.097,123.3,188.28"/>
<path fill="#2E2D4B" d="M132.046,191.33l0.1,0.163c-0.459,1.802-0.875,3.129-1.248,3.979h-1.979
	c0.137-0.652,0.274-1.384,0.415-2.195c0.14-0.811,0.234-1.46,0.287-1.947H132.046z"/>
<path fill="#2E2D4B" d="M137.714,186.655c0.596,0,1.134,0.139,1.613,0.415c0.48,0.276,0.854,0.668,1.121,1.174
	c0.268,0.507,0.401,1.091,0.401,1.752c0,1.159-0.349,2.049-1.047,2.668c-0.696,0.619-1.753,0.928-3.167,0.928
	c-1.211,0-2.199-0.186-2.965-0.56v-2.298c0.411,0.189,0.876,0.345,1.395,0.468c0.517,0.123,0.963,0.185,1.336,0.185
	c0.521,0,0.92-0.109,1.199-0.33c0.279-0.219,0.42-0.545,0.42-0.975c0-0.397-0.144-0.707-0.427-0.93
	c-0.284-0.222-0.715-0.333-1.291-0.333c-0.44,0-0.915,0.082-1.426,0.248l-1.029-0.511l0.39-5.476h5.916v2.334h-3.531l-0.129,1.369
	c0.369-0.071,0.632-0.11,0.787-0.117C137.438,186.659,137.582,186.655,137.714,186.655"/>
<path fill="#2E2D4B" d="M149.519,188.28c0,1.835-0.307,3.179-0.923,4.032c-0.614,0.854-1.556,1.279-2.823,1.279
	c-1.238,0-2.173-0.444-2.802-1.336c-0.63-0.892-0.943-2.217-0.943-3.976c0-1.845,0.308-3.197,0.922-4.058
	c0.615-0.861,1.556-1.291,2.823-1.291c1.234,0,2.167,0.449,2.799,1.344C149.202,185.172,149.519,186.507,149.519,188.28
	 M144.815,188.28c0,1.173,0.073,1.979,0.221,2.419c0.146,0.439,0.391,0.659,0.736,0.659c0.352,0,0.598-0.226,0.741-0.681
	c0.145-0.454,0.217-1.252,0.217-2.397c0-1.149-0.073-1.955-0.22-2.416s-0.393-0.691-0.738-0.691s-0.591,0.222-0.736,0.667
	C144.889,186.284,144.815,187.097,144.815,188.28"/>
<rect x="51.937" y="203.732" fill="#D0EAF0" width="10.5" height="10.498"/>
<path fill="#FFFFFF" d="M62.31,214.105H52.063v-10.246H62.31V214.105z M62.562,203.607h-10.75v10.75h10.75V203.607z"/>
<rect x="51.937" y="214.482" fill="#D0EAF0" width="10.5" height="10.5"/>
<path fill="#FFFFFF" d="M62.31,224.857H52.063v-10.248H62.31V224.857z M62.562,214.357h-10.75v10.75h10.75V214.357z"/>
<rect x="51.937" y="225.234" fill="#D0EAF0" width="10.5" height="10.5"/>
<path fill="#FFFFFF" d="M62.31,235.607H52.063v-10.248H62.31V235.607z M62.562,225.107h-10.75v10.752h10.75V225.107z"/>
<rect x="51.937" y="236.039" fill="#D0EAF0" width="10.5" height="10.5"/>
<path fill="#FFFFFF" d="M62.31,246.412H52.063v-10.247H62.31V246.412z M62.562,235.913h-10.75v10.751h10.75V235.913z"/>
<rect x="51.937" y="246.79" fill="#D0EAF0" width="10.5" height="10.499"/>
<path fill="#FFFFFF" d="M62.31,257.163H52.063v-10.247H62.31V257.163z M62.562,246.664h-10.75v10.751h10.75V246.664z"/>
<rect x="51.937" y="257.541" fill="#D0EAF0" width="10.5" height="10.499"/>
<path fill="#FFFFFF" d="M52.063,257.667H62.31v10.247H52.063V257.667z M51.812,268.04h10.75v-10.625h-10.75V268.04z"/>
<rect x="62.688" y="203.732" fill="#D0EAF0" width="10.5" height="10.5"/>
<path fill="#FFFFFF" d="M62.813,203.857h10.248v10.248H62.813V203.857z M62.562,214.357h10.752v-10.75H62.562V214.357z"/>
<rect x="62.688" y="214.482" fill="#D0EAF0" width="10.5" height="10.5"/>
<path fill="#FFFFFF" d="M62.813,214.609h10.248v10.246H62.813V214.609z M62.562,225.107h10.752v-10.75H62.562V225.107z"/>
<rect x="62.688" y="225.234" fill="#D0EAF0" width="10.5" height="10.498"/>
<path fill="#FFFFFF" d="M62.813,225.359h10.248v10.248H62.813V225.359z M62.562,235.859h10.752v-10.752H62.562V235.859z"/>
<rect x="62.688" y="236.039" fill="#D0EAF0" width="10.5" height="10.499"/>
<path fill="#FFFFFF" d="M62.813,236.165h10.248v10.247H62.813V236.165z M62.562,246.664h10.752v-10.751H62.562V246.664z"/>
<rect x="62.688" y="246.79" fill="#D0EAF0" width="10.5" height="10.499"/>
<path fill="#FFFFFF" d="M62.813,246.916h10.248v10.247H62.813V246.916z M62.562,257.415h10.752v-10.751H62.562V257.415z"/>
<rect x="62.688" y="257.541" fill="#D0EAF0" width="10.5" height="10.499"/>
<path fill="#FFFFFF" d="M62.813,257.667h10.248v10.247H62.813V257.667z M62.562,268.04h10.752v-10.625H62.562V268.04z"/>
<rect x="41.187" y="203.732" fill="#D0EAF0" width="10.498" height="10.498"/>
<path fill="#FFFFFF" d="M51.56,214.105H41.313v-10.246H51.56V214.105z M51.812,203.607H41.06v10.75h10.752V203.607z"/>
<rect x="41.187" y="214.482" fill="#D0EAF0" width="10.498" height="10.5"/>
<path fill="#FFFFFF" d="M51.56,224.857H41.313v-10.248H51.56V224.857z M51.812,214.357H41.06v10.75h10.752V214.357z"/>
<rect x="41.187" y="225.234" fill="#D0EAF0" width="10.498" height="10.5"/>
<path fill="#FFFFFF" d="M51.56,235.607H41.313v-10.248H51.56V235.607z M51.812,225.107H41.06v10.752h10.752V225.107z"/>
<rect x="41.187" y="236.039" fill="#D0EAF0" width="10.498" height="10.5"/>
<path fill="#FFFFFF" d="M51.56,246.412H41.313v-10.247H51.56V246.412z M51.812,235.913H41.06v10.751h10.752V235.913z"/>
<rect x="41.187" y="246.79" fill="#D0EAF0" width="10.498" height="10.499"/>
<path fill="#FFFFFF" d="M51.56,257.163H41.313v-10.247H51.56V257.163z M51.812,246.664H41.06v10.751h10.752V246.664z"/>
<rect x="41.187" y="257.541" fill="#D0EAF0" width="10.498" height="10.499"/>
<path fill="#FFFFFF" d="M41.312,257.667H51.56v10.247H41.312V257.667z M41.06,268.04h10.752v-10.625H41.06V268.04z"/>
<rect x="30.446" y="203.732" fill="#D0EAF0" width="10.498" height="10.498"/>
<path fill="#FFFFFF" d="M40.817,214.105H30.571v-10.246h10.246V214.105z M41.069,203.607h-10.75v10.75h10.75V203.607z"/>
<rect x="30.446" y="214.482" fill="#D0EAF0" width="10.498" height="10.5"/>
<path fill="#FFFFFF" d="M40.817,224.857H30.571v-10.248h10.246V224.857z M41.069,214.357h-10.75v10.75h10.75V214.357z"/>
<rect x="30.446" y="225.234" fill="#D0EAF0" width="10.498" height="10.5"/>
<path fill="#FFFFFF" d="M40.817,235.607H30.571v-10.248h10.246V235.607z M41.069,225.107h-10.75v10.752h10.75V225.107z"/>
<rect x="30.446" y="236.039" fill="#D0EAF0" width="10.498" height="10.5"/>
<path fill="#FFFFFF" d="M40.817,246.412H30.571v-10.247h10.246V246.412z M41.069,235.913h-10.75v10.751h10.75V235.913z"/>
<rect x="30.446" y="246.79" fill="#D0EAF0" width="10.498" height="10.499"/>
<path fill="#FFFFFF" d="M40.817,257.163H30.571v-10.247h10.246V257.163z M41.069,246.664h-10.75v10.751h10.75V246.664z"/>
<rect x="30.444" y="257.541" fill="#D0EAF0" width="10.5" height="10.499"/>
<path fill="#FFFFFF" d="M30.571,257.667h10.246v10.247H30.571V257.667z M30.319,268.04H41.07v-10.625H30.319V268.04z"/>
<rect x="19.694" y="203.732" fill="#D0EAF0" width="10.5" height="10.498"/>
<path fill="#FFFFFF" d="M30.067,214.105H19.819v-10.246h10.248V214.105z M30.319,203.607H19.567v10.75h10.752V203.607z"/>
<rect x="19.694" y="214.482" fill="#D0EAF0" width="10.5" height="10.5"/>
<path fill="#FFFFFF" d="M30.067,224.857H19.819v-10.248h10.248V224.857z M30.319,214.357H19.567v10.75h10.752V214.357z"/>
<rect x="19.694" y="225.234" fill="#D0EAF0" width="10.5" height="10.5"/>
<path fill="#FFFFFF" d="M30.067,235.607H19.819v-10.248h10.248V235.607z M30.319,225.107H19.567v10.752h10.752V225.107z"/>
<rect x="19.694" y="236.039" fill="#D0EAF0" width="10.5" height="10.5"/>
<path fill="#FFFFFF" d="M30.067,246.412H19.819v-10.247h10.248V246.412z M30.319,235.913H19.567v10.751h10.752V235.913z"/>
<rect x="19.694" y="246.79" fill="#D0EAF0" width="10.5" height="10.499"/>
<path fill="#FFFFFF" d="M30.067,257.163H19.819v-10.247h10.248V257.163z M30.319,246.664H19.567v10.751h10.752V246.664z"/>
<rect x="19.694" y="257.541" fill="#D0EAF0" width="10.498" height="10.499"/>
<path fill="#FFFFFF" d="M19.819,257.667h10.248v10.247H19.819V257.667z M19.567,268.04h10.752v-10.625H19.567V268.04z"/>
<rect x="10.552" y="203.732" fill="#D0EAF0" width="8.955" height="10.5"/>
<polygon fill="#FFFFFF" points="10.552,203.606 10.552,203.858 19.38,203.858 19.38,214.105 10.552,214.105 10.552,214.357 
	19.632,214.357 19.632,203.606 "/>
<rect x="10.552" y="214.482" fill="#D0EAF0" width="8.955" height="10.5"/>
<polygon fill="#FFFFFF" points="10.552,214.357 10.552,214.608 19.38,214.608 19.38,224.856 10.552,224.856 10.552,225.107 
	19.632,225.107 19.632,214.357 "/>
<rect x="10.552" y="225.234" fill="#D0EAF0" width="8.955" height="10.498"/>
<polygon fill="#FFFFFF" points="10.552,225.108 10.552,225.36 19.38,225.36 19.38,235.607 10.552,235.607 10.552,235.859 
	19.632,235.859 19.632,225.108 "/>
<rect x="10.552" y="236.039" fill="#D0EAF0" width="8.955" height="10.499"/>
<polygon fill="#FFFFFF" points="10.552,235.912 10.552,236.164 19.38,236.164 19.38,246.412 10.552,246.412 10.552,246.664 
	19.632,246.664 19.632,235.912 "/>
<rect x="10.552" y="246.79" fill="#D0EAF0" width="8.955" height="10.499"/>
<polygon fill="#FFFFFF" points="10.552,246.664 10.552,246.916 19.38,246.916 19.38,257.162 10.552,257.162 10.552,257.414 
	19.632,257.414 19.632,246.664 "/>
<rect x="10.552" y="257.541" fill="#D0EAF0" width="8.955" height="10.499"/>
<polygon fill="#FFFFFF" points="10.552,257.414 10.552,257.666 19.38,257.666 19.38,267.914 10.552,267.914 10.552,268.039 
	19.632,268.039 19.632,257.414 "/>
<g>
	<defs>
		<rect id="SVGID_1_" x="10.552" y="172.646" width="62.762" height="95.394"/>
	</defs>
	<clipPath id="SVGID_2_">
		<use xlink:href="#SVGID_1_"  overflow="visible"/>
	</clipPath>
	<rect x="51.937" y="161.995" clip-path="url(#SVGID_2_)" fill="#D0EAF0" width="10.5" height="10.5"/>
	<path clip-path="url(#SVGID_2_)" fill="#FFFFFF" d="M62.31,172.369H52.063v-10.247H62.31V172.369z M62.562,161.87h-10.75v10.751
		h10.75V161.87z"/>
</g>
<rect x="51.937" y="172.798" fill="#D0EAF0" width="10.5" height="10.499"/>
<path fill="#FFFFFF" d="M52.063,172.923H62.31v10.247H52.063V172.923z M51.812,183.423h10.75v-10.751h-10.75V183.423z"/>
<rect x="51.937" y="183.549" fill="#D0EAF0" width="10.5" height="10.499"/>
<path fill="#FFFFFF" d="M62.31,193.922H52.063v-10.247H62.31V193.922z M62.562,183.423h-10.75v10.751h10.75V183.423z"/>
<rect x="51.937" y="194.3" fill="#D0EAF0" width="10.5" height="10.499"/>
<path fill="#FFFFFF" d="M62.31,204.673H52.063v-10.247H62.31V204.673z M62.562,194.174h-10.75v10.751h10.75V194.174z"/>
<g>
	<defs>
		<rect id="SVGID_3_" x="10.552" y="172.646" width="62.762" height="95.394"/>
	</defs>
	<clipPath id="SVGID_4_">
		<use xlink:href="#SVGID_3_"  overflow="visible"/>
	</clipPath>
	<rect x="62.688" y="161.995" clip-path="url(#SVGID_4_)" fill="#D0EAF0" width="10.498" height="10.5"/>
	<path clip-path="url(#SVGID_4_)" fill="#FFFFFF" d="M73.062,172.369H62.813v-10.247h10.248V172.369z M73.313,161.87H62.562v10.751
		h10.752V161.87z"/>
</g>
<rect x="62.688" y="172.798" fill="#D0EAF0" width="10.5" height="10.499"/>
<path fill="#FFFFFF" d="M62.813,172.923h10.248v10.247H62.813V172.923z M62.562,183.423h10.752v-10.751H62.562V183.423z"/>
<rect x="62.688" y="183.549" fill="#D0EAF0" width="10.5" height="10.499"/>
<path fill="#FFFFFF" d="M62.813,183.675h10.248v10.247H62.813V183.675z M62.562,194.174h10.752v-10.751H62.562V194.174z"/>
<rect x="62.688" y="194.3" fill="#D0EAF0" width="10.5" height="10.499"/>
<path fill="#FFFFFF" d="M62.813,194.426h10.248v10.247H62.813V194.426z M62.562,204.925h10.752v-10.75H62.562V204.925z"/>
<g>
	<defs>
		<rect id="SVGID_5_" x="10.552" y="172.646" width="62.762" height="95.394"/>
	</defs>
	<clipPath id="SVGID_6_">
		<use xlink:href="#SVGID_5_"  overflow="visible"/>
	</clipPath>
	<rect x="41.187" y="161.995" clip-path="url(#SVGID_6_)" fill="#D0EAF0" width="10.498" height="10.5"/>
	<path clip-path="url(#SVGID_6_)" fill="#FFFFFF" d="M51.56,172.369H41.313v-10.247H51.56V172.369z M51.812,161.87H41.06v10.751
		h10.752V161.87z"/>
</g>
<rect x="41.187" y="172.798" fill="#D0EAF0" width="10.498" height="10.499"/>
<path fill="#FFFFFF" d="M41.312,172.923H51.56v10.247H41.312V172.923z M41.06,183.423h10.752v-10.751H41.06V183.423z"/>
<rect x="41.187" y="183.549" fill="#D0EAF0" width="10.498" height="10.499"/>
<path fill="#FFFFFF" d="M51.56,193.922H41.313v-10.247H51.56V193.922z M51.812,183.423H41.06v10.751h10.752V183.423z"/>
<rect x="41.187" y="194.3" fill="#D0EAF0" width="10.498" height="10.499"/>
<path fill="#FFFFFF" d="M51.56,204.673H41.313v-10.247H51.56V204.673z M51.812,194.174H41.06v10.751h10.752V194.174z"/>
<g>
	<defs>
		<rect id="SVGID_7_" x="10.552" y="172.646" width="62.762" height="95.394"/>
	</defs>
	<clipPath id="SVGID_8_">
		<use xlink:href="#SVGID_7_"  overflow="visible"/>
	</clipPath>
	<rect x="30.446" y="161.995" clip-path="url(#SVGID_8_)" fill="#D0EAF0" width="10.498" height="10.5"/>
	<path clip-path="url(#SVGID_8_)" fill="#FFFFFF" d="M40.817,172.369H30.571v-10.247h10.246V172.369z M41.069,161.87h-10.75v10.751
		h10.75V161.87z"/>
</g>
<rect x="30.444" y="172.798" fill="#D0EAF0" width="10.5" height="10.499"/>
<path fill="#FFFFFF" d="M30.571,172.923h10.246v10.247H30.571V172.923z M30.319,183.423H41.07v-10.751H30.319V183.423z"/>
<rect x="30.446" y="183.549" fill="#D0EAF0" width="10.498" height="10.499"/>
<path fill="#FFFFFF" d="M40.817,193.922H30.571v-10.247h10.246V193.922z M41.069,183.423h-10.75v10.751h10.75V183.423z"/>
<rect x="30.446" y="194.3" fill="#D0EAF0" width="10.498" height="10.499"/>
<path fill="#FFFFFF" d="M40.817,204.673H30.571v-10.247h10.246V204.673z M41.069,194.174h-10.75v10.751h10.75V194.174z"/>
<g>
	<defs>
		<rect id="SVGID_9_" x="10.552" y="172.646" width="62.762" height="95.394"/>
	</defs>
	<clipPath id="SVGID_10_">
		<use xlink:href="#SVGID_9_"  overflow="visible"/>
	</clipPath>
	<rect x="19.694" y="161.995" clip-path="url(#SVGID_10_)" fill="#D0EAF0" width="10.5" height="10.5"/>
	<path clip-path="url(#SVGID_10_)" fill="#FFFFFF" d="M30.067,172.369H19.819v-10.247h10.248V172.369z M30.319,161.87H19.567v10.751
		h10.752V161.87z"/>
</g>
<rect x="19.694" y="172.798" fill="#D0EAF0" width="10.498" height="10.499"/>
<path fill="#FFFFFF" d="M19.819,172.923h10.248v10.247H19.819V172.923z M19.567,183.423h10.752v-10.751H19.567V183.423z"/>
<rect x="19.694" y="183.549" fill="#D0EAF0" width="10.5" height="10.499"/>
<path fill="#FFFFFF" d="M30.067,193.922H19.819v-10.247h10.248V193.922z M30.319,183.423H19.567v10.751h10.752V183.423z"/>
<rect x="19.694" y="194.3" fill="#D0EAF0" width="10.5" height="10.499"/>
<path fill="#FFFFFF" d="M30.067,204.673H19.819v-10.247h10.248V204.673z M30.319,194.174H19.567v10.751h10.752V194.174z"/>
<g>
	<defs>
		<rect id="SVGID_11_" x="10.552" y="172.646" width="62.762" height="95.394"/>
	</defs>
	<clipPath id="SVGID_12_">
		<use xlink:href="#SVGID_11_"  overflow="visible"/>
	</clipPath>
	<rect x="9.521" y="161.995" clip-path="url(#SVGID_12_)" fill="#D0EAF0" width="9.985" height="10.5"/>
	<path clip-path="url(#SVGID_12_)" fill="#FFFFFF" d="M19.38,172.369H9.646v-10.247h9.734V172.369z M19.632,161.87H9.396v10.751
		h10.236V161.87z"/>
</g>
<rect x="10.552" y="172.798" fill="#D0EAF0" width="8.955" height="10.499"/>
<polygon fill="#FFFFFF" points="10.552,172.672 10.552,172.924 19.38,172.924 19.38,183.171 10.552,183.171 10.552,183.423 
	19.632,183.423 19.632,172.672 "/>
<rect x="10.552" y="183.549" fill="#D0EAF0" width="8.955" height="10.499"/>
<polygon fill="#FFFFFF" points="10.552,183.424 10.552,183.676 19.38,183.676 19.38,193.923 10.552,193.923 10.552,194.175 
	19.632,194.175 19.632,183.424 "/>
<rect x="10.552" y="194.3" fill="#D0EAF0" width="8.955" height="10.499"/>
<polygon fill="#FFFFFF" points="10.552,194.175 10.552,194.427 19.38,194.427 19.38,204.673 10.552,204.673 10.552,204.925 
	19.632,204.925 19.632,194.175 "/>
<rect x="3.121" y="184.012" fill="#D0EAF0" width="11.789" height="11.789"/>
<path fill="#FFFFFF" d="M14.769,195.66H3.263v-11.506h11.506V195.66z M15.052,183.871H2.979v12.072h12.072V183.871z"/>
<rect x="3.121" y="196.083" fill="#D0EAF0" width="11.789" height="11.789"/>
<path fill="#FFFFFF" d="M14.769,207.732H3.263v-11.506h11.506V207.732z M15.052,195.941H2.979v12.072h12.072V195.941z"/>
<rect x="3.121" y="208.154" fill="#D0EAF0" width="11.789" height="11.789"/>
<path fill="#FFFFFF" d="M14.769,219.802H3.263v-11.506h11.506V219.802z M15.052,208.014H2.979v12.072h12.072V208.014z"/>
<rect x="3.121" y="220.287" fill="#D0EAF0" width="11.789" height="11.789"/>
<path fill="#FFFFFF" d="M14.769,231.933H3.263v-11.506h11.506V231.933z M15.052,220.144H2.979v12.072h12.072V220.144z"/>
<rect x="3.121" y="232.357" fill="#D0EAF0" width="11.789" height="11.789"/>
<path fill="#FFFFFF" d="M14.769,244.004H3.263v-11.506h11.506V244.004z M15.052,232.215H2.979v12.072h12.072V232.215z"/>
<rect x="3.121" y="244.43" fill="#D0EAF0" width="11.789" height="11.789"/>
<path fill="#FFFFFF" d="M14.769,256.078H3.263v-11.506h11.506V256.078z M15.052,244.289H2.979v12.072h12.072V244.289z"/>
<rect x="209.849" y="147.999" fill="#D0EAF0" width="28.703" height="8.051"/>
<rect x="209.849" y="115.568" fill="#D0EAF0" width="28.703" height="11.043"/>
<rect x="221.513" y="86.118" fill="#D0EAF0" width="21.656" height="14.201"/>
<rect x="122.858" y="208.644" fill="#2E2D4B" width="6.845" height="185.977"/>
<rect y="51.812" fill="#2E2D4B" width="15.052" height="351.186"/>
<rect x="4.024" y="1.02" fill="#2E2D4B" width="7" height="59.615"/>
<rect y="390.169" fill="#2E2D4B" width="37.843" height="16.583"/>
<rect x="91.409" y="390.169" fill="#2E2D4B" width="38.294" height="16.583"/>
<rect x="113.004" y="10.333" fill="#2E2D4B" width="14.714" height="52.144"/>
<rect x="113.004" y="0" fill="#2E2D4B" width="33.382" height="16.583"/>
<rect x="200.504" y="0" fill="#2E2D4B" width="42.907" height="16.583"/>
<rect y="48.398" fill="#2E2D4B" width="52.386" height="16.583"/>
<rect x="94.004" y="48.398" fill="#2E2D4B" width="33.714" height="16.583"/>
<polyline fill="#2E2D4B" points="4.025,0 118.718,0 118.718,3.648 4.025,3.648 "/>
<rect x="14.136" y="202.134" fill="#2E2D4B" width="56.375" height="3.51"/>
<rect x="69.927" y="157.288" fill="#2E2D4B" width="3.625" height="19.482"/>
<rect x="122.858" y="63.859" fill="#2E2D4B" width="4.859" height="96.374"/>
<rect x="239.797" y="147.81" fill="#2E2D4B" width="10.5" height="4.859"/>
<rect x="195.063" y="158.48" fill="#2E2D4B" width="5.983" height="17.164"/>
<rect x="195.063" y="203.298" fill="#2E2D4B" width="6.125" height="11.819"/>
<rect x="238.62" y="0" fill="#2E2D4B" width="6.257" height="160.909"/>
<rect x="126.358" y="208.644" fill="#2E2D4B" width="74.83" height="6.474"/>
<rect x="169.136" y="156.049" fill="#2E2D4B" width="74.332" height="4.859"/>
<rect x="69.927" y="198.963" fill="#2E2D4B" width="3.625" height="32.304"/>
<rect x="69.927" y="253.228" fill="#2E2D4B" width="3.625" height="15.416"/>
<rect x="64.031" y="256.144" fill="#2E2D4B" width="2.271" height="12.5"/>
<rect x="57.781" y="256.144" fill="#2E2D4B" width="2.271" height="12.5"/>
<rect x="14.136" y="170.89" fill="#2E2D4B" width="56.375" height="3.51"/>
<rect x="14.136" y="266.058" fill="#2E2D4B" width="59.416" height="3.51"/>
<rect x="57.78" y="255.674" fill="#2E2D4B" width="29.708" height="3.511"/>
<rect x="69.927" y="156.723" fill="#2E2D4B" width="17.563" height="3.51"/>
<rect x="112.802" y="156.723" fill="#2E2D4B" width="31.084" height="3.51"/>
<rect x="226.954" y="115.568" fill="#2E2D4B" width="3.51" height="32.43"/>
<rect x="226.954" y="145.568" fill="#2E2D4B" width="16.215" height="2.43"/>
<rect x="226.954" y="127.735" fill="#2E2D4B" width="16.215" height="2.43"/>
<rect x="226.954" y="115.568" fill="#2E2D4B" width="16.215" height="2.43"/>
<rect x="226.954" y="121.818" fill="#2E2D4B" width="16.215" height="2.43"/>
<rect x="169.136" y="156.723" fill="#2E2D4B" width="31.082" height="3.51"/>
<rect x="112.613" y="255.674" fill="#2E2D4B" width="17.438" height="3.511"/>
<rect x="15.052" y="176.77" fill="#9E9D9B" width="12.916" height="22.875"/>
<rect x="60.052" y="259.185" fill="#9E9D9B" width="3.979" height="6.873"/>
<rect x="66.302" y="259.185" fill="#9E9D9B" width="3.625" height="6.873"/>
<polygon fill="#D7D7D5" points="66.302,266.058 67.405,260.935 69.927,259.184 69.927,266.058 "/>
<polygon fill="#D7D7D5" points="59.968,266.058 61.204,260.935 64.03,259.184 64.03,266.058 "/>
<rect x="230.465" y="118" fill="#9E9D9B" width="8.087" height="4.145"/>
<rect x="230.465" y="123.59" fill="#9E9D9B" width="8.087" height="4.145"/>
<polygon fill="#D7D7D5" points="230.464,127.736 232.28,125.206 238.552,123.591 238.552,127.736 "/>
<polygon fill="#D7D7D5" points="230.464,122.144 232.28,119.614 238.552,117.999 238.552,122.144 "/>
<rect x="230.465" y="130.165" fill="#9E9D9B" width="8.087" height="15.404"/>
<polygon fill="#D7D7D5" points="230.464,145.569 232.802,133.852 238.552,130.165 238.552,145.569 "/>
<rect x="37.757" y="390.21" fill="#A5DAEC" width="53.651" height="16.5"/>
<rect x="37.757" y="396.009" fill="#61A9C4" width="53.651" height="4.899"/>
<rect x="146.384" y="0" fill="#A5DAEC" width="54.119" height="16.583"/>
<rect x="146.384" y="5.829" fill="#61A9C4" width="54.119" height="4.924"/>
<rect x="52.384" y="48.398" fill="#A5DAEC" width="41.619" height="16.583"/>
<rect x="52.384" y="54.228" fill="#61A9C4" width="41.619" height="4.924"/>
<rect x="91.753" y="48.398" fill="#E3004F" width="2.25" height="3.125"/>
<rect x="82.871" y="45.649" transform="matrix(-0.7073 -0.7069 0.7069 -0.7073 102.5834 157.9793)" fill="#E3004F" width="2.25" height="24.208"/>
<rect x="110.363" y="255.674" fill="#E3004F" width="2.25" height="3.125"/>
<rect x="101.483" y="252.924" transform="matrix(-0.7067 -0.7075 0.7075 -0.7067 -12.4014 524.9163)" fill="#E3004F" width="2.25" height="24.21"/>
<rect x="69.927" y="231.269" fill="#E3004F" width="3.125" height="2.25"/>
<rect x="78.156" y="229.17" transform="matrix(-0.7069 0.7073 -0.7073 -0.7069 305.983 355.7525)" fill="#E3004F" width="2.25" height="24.21"/>
<rect x="69.927" y="176.77" fill="#E3004F" width="3.125" height="2.25"/>
<rect x="78.156" y="174.67" transform="matrix(-0.7069 0.7073 -0.7073 -0.7069 267.434 262.7274)" fill="#E3004F" width="2.25" height="24.21"/>
<rect x="87.488" y="157.108" fill="#E3004F" width="2.25" height="3.125"/>
<rect x="96.37" y="138.776" transform="matrix(0.7071 0.7071 -0.7071 0.7071 135.244 -24.7477)" fill="#E3004F" width="2.25" height="24.209"/>
<rect x="143.886" y="157.108" fill="#E3004F" width="2.25" height="3.125"/>
<rect x="152.766" y="138.775" transform="matrix(0.7069 0.7073 -0.7073 0.7069 151.8281 -64.626)" fill="#E3004F" width="2.249" height="24.21"/>
<rect x="195.063" y="175.645" fill="#E3004F" width="3.125" height="2.25"/>
<rect x="203.292" y="173.545" transform="matrix(-0.7069 0.7073 -0.7073 -0.7069 480.2329 172.295)" fill="#E3004F" width="2.25" height="24.21"/>
<rect x="15.05" y="205.642" fill="#61A9C4" width="47.74" height="21.236"/>
<path fill="#FFFFFF" d="M21.811,218.253v-0.488c-0.448-0.1-0.787-0.438-0.886-0.887h-0.488
	C20.544,217.589,21.101,218.145,21.811,218.253"/>
<path fill="#FFFFFF" d="M21.811,217.271v-0.393h-0.392C21.487,217.059,21.63,217.201,21.811,217.271"/>
<path fill="#FFFFFF" d="M22.305,217.765v0.488c0.71-0.108,1.267-0.664,1.374-1.374H23.19
	C23.092,217.328,22.753,217.666,22.305,217.765"/>
<path fill="#FFFFFF" d="M22.697,216.878h-0.392v0.393C22.485,217.203,22.628,217.06,22.697,216.878"/>
<path fill="#FFFFFF" d="M21.418,216.384h0.392v-0.392C21.63,216.062,21.487,216.204,21.418,216.384"/>
<path fill="#FFFFFF" d="M22.305,215.992v0.394h0.392C22.628,216.205,22.485,216.062,22.305,215.992"/>
<path fill="#FFFFFF" d="M20.618,207.742c-1.285,0-2.336,1.051-2.336,2.336v12.367c0,1.285,1.051,2.335,2.336,2.335h29.795
	c0.166,0,0.326-0.018,0.481-0.051c0.302,0.032,0.608,0.051,0.918,0.051c4.705,0,8.519-3.813,8.519-8.519s-3.813-8.52-8.519-8.52
	c-0.31,0-0.616,0.02-0.918,0.053c-0.155-0.033-0.315-0.053-0.481-0.053H20.618z M22.305,213.648v0.869
	c0.981,0.113,1.754,0.887,1.868,1.868h0.869v0.493h-0.869c-0.114,0.98-0.887,1.754-1.868,1.869v0.867h-0.494v-0.867
	c-0.979-0.115-1.753-0.889-1.868-1.869h-0.869v-0.493h0.869c0.115-0.981,0.889-1.755,1.868-1.868v-0.869H22.305z"/>
<path fill="#FFFFFF" d="M20.437,216.384h0.488c0.099-0.447,0.438-0.787,0.886-0.886v-0.487
	C21.101,215.118,20.544,215.675,20.437,216.384"/>
<path fill="#FFFFFF" d="M23.19,216.384h0.488c-0.107-0.709-0.664-1.267-1.373-1.373v0.487
	C22.753,215.597,23.092,215.937,23.19,216.384"/>
<path fill="#61A9C4" d="M15.052,250.638h5.771h1.323h0.843c1.983,0,3.604-1.622,3.604-3.604v-7.125c0-1.982-1.621-3.604-3.604-3.604
	h-0.843h-1.323h-5.771V250.638z"/>
<path fill="#FFFFFF" d="M25.718,239.898v7.146c0,1.528-1.252,2.78-2.781,2.78h-1.833c-1.53,0-2.78-1.252-2.78-2.78v-7.146
	c0-1.529,1.25-2.781,2.78-2.781h1.833C24.466,237.117,25.718,238.369,25.718,239.898"/>
<path fill="#61A9C4" d="M21.96,244.681v-0.365c-0.334-0.074-0.586-0.326-0.66-0.66h-0.364
	C21.016,244.184,21.432,244.601,21.96,244.681"/>
<path fill="#61A9C4" d="M21.96,243.948v-0.293h-0.293C21.72,243.79,21.825,243.896,21.96,243.948"/>
<path fill="#61A9C4" d="M22.329,244.316v0.365c0.529-0.08,0.945-0.496,1.025-1.026H22.99
	C22.916,243.989,22.663,244.242,22.329,244.316"/>
<path fill="#61A9C4" d="M22.622,243.655h-0.293v0.293C22.464,243.896,22.569,243.79,22.622,243.655"/>
<path fill="#61A9C4" d="M21.668,243.287h0.293v-0.293C21.826,243.046,21.72,243.152,21.668,243.287"/>
<path fill="#61A9C4" d="M22.329,242.994v0.293h0.293C22.569,243.152,22.464,243.046,22.329,242.994"/>
<path fill="#61A9C4" d="M20.936,243.287H21.3c0.074-0.334,0.326-0.586,0.66-0.66v-0.364
	C21.432,242.342,21.016,242.757,20.936,243.287"/>
<path fill="#61A9C4" d="M22.99,243.287h0.364c-0.08-0.529-0.496-0.944-1.025-1.024v0.364
	C22.663,242.701,22.916,242.953,22.99,243.287"/>
<path fill="#61A9C4" d="M48.04,186.576v2.375c0,2.475-2.025,4.5-4.5,4.5h-4.625c-2.475,0-4.5-2.024-4.5-4.5v-2.375
	c0-2.475,2.025-4.5,4.5-4.5h4.625C46.015,182.076,48.04,184.101,48.04,186.576"/>
<path fill="#FFFFFF" d="M46.966,186.966v1.596c0,2.156-1.754,3.911-3.909,3.911h-5.231c-2.156,0-3.91-1.755-3.91-3.911v-1.596
	c0-2.156,1.754-3.91,3.91-3.91h5.231C45.212,183.056,46.966,184.81,46.966,186.966 M34.915,188.562c0,1.605,1.306,2.911,2.91,2.911
	h5.231c1.604,0,2.909-1.306,2.909-2.911v-1.596c0-1.605-1.305-2.91-2.909-2.91h-5.231c-1.604,0-2.91,1.305-2.91,2.91V188.562z"/>
<path fill="#61A9C4" d="M34.718,182.514v10.5c0,0.619-0.506,1.125-1.125,1.125h-4.5c-0.619,0-1.125-0.506-1.125-1.125v-10.5
	c0-0.619,0.506-1.125,1.125-1.125h4.5C34.212,181.389,34.718,181.895,34.718,182.514"/>
<path fill="#61A9C4" d="M36.458,186.014v3.5c0,0.269-0.221,0.49-0.49,0.49h-2.5c-0.27,0-0.489-0.222-0.489-0.49v-3.5
	c0-0.269,0.22-0.49,0.489-0.49h2.5C36.237,185.524,36.458,185.745,36.458,186.014"/>
<path fill="#FFFFFF" d="M31.343,186.817c0.523,0,0.945,0.424,0.945,0.946c0,0.524-0.422,0.947-0.945,0.947s-0.945-0.423-0.945-0.947
	C30.397,187.241,30.819,186.817,31.343,186.817"/>
<rect x="209.849" y="126.611" fill="#B2D4DC" width="17.106" height="21.387"/>
<path fill="#FFFFFF" d="M224.05,143.681v-6.103v-0.772v-8.604h-0.491v7.052c-0.218-0.311-0.5-0.57-0.825-0.769v-6.283h-0.49v6.047
	c-0.26-0.094-0.537-0.152-0.824-0.162v-5.885h-0.492v5.875h-0.824v-5.875h-0.492v5.875h-0.824v-5.875h-0.491v5.875h-0.824v-5.875
	h-0.491v5.875h-0.826v-5.875h-0.49v5.875h-0.823v-5.875h-0.492v5.885c-0.289,0.01-0.563,0.068-0.823,0.162v-6.047h-0.494v6.283
	c-0.322,0.199-0.605,0.458-0.822,0.769v-7.052h-0.491v8.604v0.772v6.103c0,1.501,1.228,2.729,2.729,2.729h6.875
	C222.821,146.41,224.05,145.182,224.05,143.681"/>
<path fill="#61A9C4" d="M226.954,142.279v-4.333h-2.904v1.666h-2.842c-0.154,0-0.281,0.127-0.281,0.282v0.437
	c0,0.155,0.127,0.281,0.281,0.281h2.842v1.667H226.954z"/>
<path fill="#FFFFFF" d="M225.501,139.511c-0.269,0-0.484-0.217-0.484-0.484c0-0.268,0.216-0.485,0.484-0.485
	c0.267,0,0.482,0.217,0.482,0.485C225.983,139.294,225.768,139.511,225.501,139.511"/>
<path fill="#FFFFFF" d="M225.501,141.683c-0.269,0-0.484-0.217-0.484-0.484c0-0.268,0.216-0.485,0.484-0.485
	c0.267,0,0.482,0.217,0.482,0.485C225.983,141.466,225.768,141.683,225.501,141.683"/>
<rect x="235.715" y="100.318" fill="#B2D4DC" width="2.905" height="15.25"/>
<rect x="221.513" y="100.318" fill="#61A9C4" width="14.201" height="15.25"/>
<rect x="219.925" y="101.818" fill="#61A9C4" width="0.928" height="12.25"/>
<path fill="#FFFFFF" d="M229.837,111.278c0-1.327,1.08-2.406,2.406-2.406c1.327,0,2.406,1.079,2.406,2.406
	c0,1.326-1.079,2.405-2.406,2.405C230.917,113.683,229.837,112.604,229.837,111.278 M233.899,111.278
	c0-0.913-0.743-1.656-1.656-1.656c-0.912,0-1.656,0.743-1.656,1.656s0.744,1.655,1.656,1.655
	C233.156,112.933,233.899,112.191,233.899,111.278"/>
<path fill="#FFFFFF" d="M230.993,111.278c0-0.689,0.562-1.25,1.25-1.25c0.689,0,1.25,0.561,1.25,1.25s-0.561,1.25-1.25,1.25
	C231.555,112.528,230.993,111.967,230.993,111.278 M232.743,111.278c0-0.275-0.224-0.5-0.5-0.5c-0.275,0-0.5,0.225-0.5,0.5
	s0.225,0.5,0.5,0.5C232.52,111.778,232.743,111.553,232.743,111.278"/>
<path fill="#FFFFFF" d="M224.265,111.278c0-0.908,0.738-1.646,1.646-1.646s1.646,0.738,1.646,1.646c0,0.907-0.737,1.646-1.646,1.646
	S224.265,112.185,224.265,111.278 M226.807,111.278c0-0.494-0.401-0.896-0.896-0.896c-0.496,0-0.896,0.402-0.896,0.896
	s0.4,0.896,0.896,0.896C226.405,112.174,226.807,111.772,226.807,111.278"/>
<path fill="#FFFFFF" d="M222.577,111.278c0-1.838,1.496-3.334,3.334-3.334c1.836,0,3.332,1.496,3.332,3.334
	s-1.496,3.333-3.332,3.333C224.073,114.611,222.577,113.116,222.577,111.278 M228.493,111.278c0-1.425-1.158-2.584-2.582-2.584
	c-1.426,0-2.584,1.159-2.584,2.584c0,1.424,1.158,2.583,2.584,2.583C227.335,113.861,228.493,112.702,228.493,111.278"/>
<path fill="#FFFFFF" d="M227.389,104.61c0,1.327-1.079,2.406-2.405,2.406s-2.406-1.079-2.406-2.406c0-1.326,1.08-2.405,2.406-2.405
	S227.389,103.284,227.389,104.61 M223.327,104.61c0,0.913,0.742,1.656,1.656,1.656c0.913,0,1.655-0.743,1.655-1.656
	s-0.742-1.655-1.655-1.655C224.069,102.955,223.327,103.697,223.327,104.61"/>
<path fill="#FFFFFF" d="M226.232,104.61c0,0.689-0.562,1.25-1.25,1.25s-1.25-0.561-1.25-1.25s0.562-1.25,1.25-1.25
	S226.232,103.921,226.232,104.61 M224.482,104.61c0,0.275,0.224,0.5,0.5,0.5s0.5-0.225,0.5-0.5s-0.224-0.5-0.5-0.5
	S224.482,104.335,224.482,104.61"/>
<path fill="#FFFFFF" d="M232.962,104.61c0,0.908-0.738,1.646-1.646,1.646c-0.908,0-1.646-0.738-1.646-1.646
	c0-0.907,0.737-1.646,1.646-1.646C232.224,102.964,232.962,103.703,232.962,104.61 M230.421,104.61c0,0.494,0.401,0.896,0.896,0.896
	s0.896-0.402,0.896-0.896s-0.401-0.896-0.896-0.896S230.421,104.116,230.421,104.61"/>
<path fill="#FFFFFF" d="M234.649,104.61c0,1.838-1.496,3.334-3.334,3.334c-1.837,0-3.333-1.496-3.333-3.334s1.496-3.333,3.333-3.333
	C233.153,101.277,234.649,102.772,234.649,104.61 M228.732,104.61c0,1.425,1.159,2.584,2.583,2.584c1.425,0,2.584-1.159,2.584-2.584
	c0-1.424-1.159-2.583-2.584-2.583C229.892,102.027,228.732,103.186,228.732,104.61"/>
<rect x="220.853" y="104.693" fill="#B2D4DC" width="0.66" height="1.481"/>
<rect x="220.853" y="109.714" fill="#B2D4DC" width="0.66" height="1.481"/>
<rect x="221.483" y="69.181" fill="#B2D4DC" width="17.106" height="16.938"/>
<path fill="#61A9C4" d="M221.011,69.186c-0.615,0.015-1.115,0.398-1.115,0.87v15.187c0,0.472,0.5,0.855,1.115,0.87V69.186z"/>
<path fill="#2E2D4B" d="M45.802,192.472h-7.525v-1.845l2.531-2.56c0.723-0.757,1.196-1.274,1.419-1.55
	c0.222-0.276,0.377-0.515,0.466-0.713c0.086-0.198,0.131-0.406,0.131-0.624c0-0.27-0.088-0.482-0.264-0.639
	c-0.175-0.156-0.421-0.234-0.736-0.234c-0.328,0-0.658,0.094-0.99,0.28c-0.334,0.188-0.711,0.463-1.133,0.826l-1.539-1.801
	c0.535-0.478,0.984-0.82,1.349-1.025c0.364-0.206,0.76-0.363,1.188-0.471c0.428-0.11,0.91-0.164,1.443-0.164
	c0.671,0,1.27,0.119,1.799,0.355c0.526,0.236,0.936,0.573,1.227,1.011c0.291,0.437,0.437,0.927,0.437,1.471
	c0,0.408-0.051,0.784-0.153,1.128c-0.102,0.346-0.258,0.685-0.472,1.02c-0.212,0.333-0.495,0.684-0.848,1.053
	c-0.351,0.369-1.103,1.069-2.252,2.1v0.07h3.923V192.472z"/>
<path fill="#2E2D4B" d="M49.888,190.351l0.1,0.164c-0.459,1.802-0.875,3.129-1.248,3.979H46.76c0.137-0.653,0.274-1.384,0.415-2.196
	c0.14-0.81,0.234-1.46,0.287-1.947H49.888z"/>
<path fill="#2E2D4B" d="M58.848,187.302c0,1.835-0.308,3.179-0.923,4.032c-0.614,0.854-1.555,1.28-2.823,1.28
	c-1.237,0-2.173-0.444-2.802-1.336s-0.943-2.217-0.943-3.976c0-1.845,0.309-3.197,0.922-4.058c0.615-0.861,1.555-1.291,2.823-1.291
	c1.233,0,2.167,0.449,2.799,1.344C58.532,184.194,58.848,185.529,58.848,187.302 M54.145,187.302c0,1.173,0.073,1.979,0.22,2.418
	s0.393,0.66,0.737,0.66c0.351,0,0.599-0.227,0.741-0.682c0.145-0.454,0.217-1.252,0.217-2.397c0-1.149-0.073-1.955-0.221-2.416
	c-0.146-0.461-0.391-0.691-0.737-0.691c-0.345,0-0.591,0.222-0.737,0.667C54.218,185.306,54.145,186.119,54.145,187.302"/>
<path fill="#2E2D4B" d="M67.36,187.302c0,1.835-0.307,3.179-0.923,4.032c-0.614,0.854-1.556,1.28-2.823,1.28
	c-1.238,0-2.173-0.444-2.802-1.336c-0.63-0.892-0.943-2.217-0.943-3.976c0-1.845,0.308-3.197,0.922-4.058
	c0.615-0.861,1.556-1.291,2.823-1.291c1.234,0,2.167,0.449,2.799,1.344C67.044,184.194,67.36,185.529,67.36,187.302 M62.657,187.302
	c0,1.173,0.073,1.979,0.221,2.418c0.146,0.439,0.391,0.66,0.736,0.66c0.352,0,0.598-0.227,0.741-0.682
	c0.145-0.454,0.217-1.252,0.217-2.397c0-1.149-0.073-1.955-0.22-2.416s-0.393-0.691-0.738-0.691s-0.591,0.222-0.736,0.667
	C62.73,185.306,62.657,186.119,62.657,187.302"/>
<path fill="#2E2D4B" d="M46.05,242.564h-1.142v2.008h-2.767v-2.008h-4.137v-2.057l4.314-6.308h2.589v6.271h1.142V242.564z
	 M42.142,240.47v-1.205c0-0.228,0.008-0.532,0.023-0.918c0.018-0.387,0.031-0.588,0.039-0.606h-0.077
	c-0.161,0.364-0.343,0.705-0.547,1.021l-1.149,1.709H42.142z"/>
<path fill="#2E2D4B" d="M49.802,242.451l0.101,0.162c-0.459,1.803-0.875,3.129-1.248,3.98h-1.979
	c0.137-0.652,0.274-1.384,0.414-2.196c0.141-0.81,0.235-1.46,0.287-1.946H49.802z"/>
<path fill="#2E2D4B" d="M58.763,239.4c0,1.836-0.308,3.18-0.924,4.033c-0.613,0.854-1.555,1.279-2.822,1.279
	c-1.238,0-2.174-0.445-2.803-1.336c-0.629-0.893-0.943-2.217-0.943-3.977c0-1.845,0.309-3.196,0.922-4.058
	c0.615-0.86,1.556-1.291,2.824-1.291c1.233,0,2.166,0.449,2.799,1.345C58.446,236.292,58.763,237.627,58.763,239.4 M54.06,239.4
	c0,1.174,0.072,1.979,0.219,2.42c0.146,0.438,0.393,0.658,0.738,0.658c0.351,0,0.598-0.226,0.74-0.681
	c0.145-0.454,0.217-1.252,0.217-2.397c0-1.148-0.072-1.955-0.22-2.416c-0.146-0.461-0.392-0.69-0.737-0.69s-0.592,0.222-0.738,0.667
	C54.132,237.404,54.06,238.217,54.06,239.4"/>
<path fill="#2E2D4B" d="M67.31,238.946c0,2.029-0.437,3.497-1.312,4.406c-0.875,0.907-2.275,1.36-4.2,1.36
	c-0.633,0-1.116-0.022-1.447-0.069v-2.222c0.407,0.076,0.814,0.113,1.221,0.113c1.002,0,1.775-0.207,2.319-0.619
	c0.544-0.414,0.839-1.068,0.888-1.963h-0.086c-0.185,0.342-0.367,0.588-0.547,0.738c-0.18,0.152-0.398,0.268-0.658,0.348
	c-0.262,0.08-0.584,0.121-0.973,0.121c-0.898,0-1.601-0.301-2.107-0.9c-0.506-0.602-0.758-1.43-0.758-2.484
	c0-1.148,0.326-2.049,0.981-2.702s1.554-0.979,2.692-0.979c1.267,0,2.248,0.421,2.943,1.263
	C66.963,236.198,67.31,237.395,67.31,238.946 M63.401,236.335c-0.308,0-0.558,0.11-0.748,0.334c-0.191,0.223-0.287,0.578-0.287,1.07
	c0,0.389,0.082,0.697,0.248,0.926c0.166,0.23,0.418,0.345,0.76,0.345c0.306,0,0.574-0.111,0.8-0.333
	c0.228-0.223,0.341-0.489,0.341-0.803c0-0.42-0.105-0.782-0.314-1.084C63.989,236.487,63.723,236.335,63.401,236.335"/>
</svg>
