<?xml version="1.0" encoding="utf-8"?>
<!-- Generator: Adobe Illustrator 16.0.0, SVG Export Plug-In . SVG Version: 6.00 Build 0)  -->
<!DOCTYPE svg PUBLIC "-//W3C//DTD SVG 1.1//EN" "http://www.w3.org/Graphics/SVG/1.1/DTD/svg11.dtd">
<svg version="1.1" id="Слой_1" xmlns="http://www.w3.org/2000/svg" xmlns:xlink="http://www.w3.org/1999/xlink" x="0px" y="0px"
	 width="305.732px" height="363.944px" viewBox="0 0 305.732 363.944" enable-background="new 0 0 305.732 363.944"
	 xml:space="preserve">
<path fill="#E3004F" d="M84.081,234.652H49.832v-8.393l11.524-11.653c3.292-3.442,5.444-5.794,6.456-7.053
	c1.011-1.258,1.716-2.339,2.114-3.244c0.398-0.903,0.597-1.85,0.597-2.841c0-1.226-0.398-2.194-1.194-2.904
	c-0.796-0.711-1.915-1.065-3.357-1.065c-1.485,0-2.986,0.424-4.503,1.274c-1.517,0.851-3.234,2.105-5.149,3.761l-7.004-8.199
	c2.432-2.173,4.475-3.728,6.133-4.664c1.657-0.936,3.459-1.652,5.407-2.147c1.947-0.495,4.137-0.742,6.569-0.742
	c3.055,0,5.782,0.538,8.182,1.613c2.4,1.077,4.261,2.611,5.584,4.601c1.325,1.99,1.986,4.223,1.986,6.697
	c0,1.852-0.232,3.563-0.694,5.133c-0.464,1.571-1.178,3.115-2.147,4.632c-0.968,1.517-2.254,3.115-3.858,4.794
	c-1.603,1.678-5.019,4.863-10.248,9.554v0.322h17.851V234.652z"/>
<path fill="#2E2D4B" d="M99.393,201.781H97.64v3.081h-4.245v-3.081h-6.347v-3.156l6.618-9.678h3.974v9.623h1.753V201.781z
	 M93.395,198.57v-1.851c0-0.348,0.013-0.818,0.038-1.409c0.025-0.592,0.045-0.902,0.06-0.93h-0.12
	c-0.247,0.558-0.526,1.081-0.838,1.567l-1.764,2.623H93.395z"/>
<path fill="#2E2D4B" d="M112.009,196.927c0,2.815-0.473,4.879-1.415,6.188c-0.945,1.31-2.388,1.965-4.333,1.965
	c-1.902,0-3.335-0.683-4.3-2.051c-0.965-1.369-1.447-3.403-1.447-6.102c0-2.83,0.471-4.905,1.415-6.227
	c0.943-1.32,2.386-1.981,4.332-1.981c1.894,0,3.325,0.687,4.295,2.063C111.524,192.157,112.009,194.205,112.009,196.927
	 M104.792,196.927c0,1.8,0.112,3.037,0.338,3.712c0.224,0.675,0.602,1.013,1.132,1.013c0.537,0,0.916-0.349,1.137-1.045
	c0.222-0.698,0.332-1.924,0.332-3.68c0-1.764-0.112-2.999-0.337-3.707c-0.225-0.707-0.603-1.061-1.132-1.061
	c-0.53,0-0.908,0.341-1.132,1.023C104.903,193.864,104.792,195.113,104.792,196.927"/>
<path fill="#2E2D4B" d="M118.213,201.607l0.152,0.25c-0.704,2.766-1.342,4.801-1.916,6.107h-3.037
	c0.211-1.002,0.423-2.125,0.637-3.369c0.215-1.244,0.361-2.24,0.441-2.988H118.213z"/>
<path fill="#2E2D4B" d="M132.409,201.781h-1.753v3.081h-4.245v-3.081h-6.347v-3.156l6.618-9.678h3.974v9.623h1.753V201.781z
	 M126.411,198.57v-1.851c0-0.348,0.013-0.818,0.038-1.409c0.025-0.592,0.045-0.902,0.06-0.93h-0.12
	c-0.247,0.558-0.526,1.081-0.838,1.567l-1.764,2.623H126.411z"/>
<path fill="#2E2D4B" d="M139.973,194.434c0.915,0,1.739,0.213,2.478,0.637c0.736,0.425,1.31,1.025,1.719,1.801
	c0.41,0.777,0.615,1.673,0.615,2.69c0,1.777-0.535,3.142-1.605,4.093c-1.07,0.95-2.69,1.425-4.86,1.425
	c-1.858,0-3.374-0.287-4.55-0.86v-3.526c0.631,0.29,1.344,0.529,2.139,0.718c0.794,0.189,1.478,0.283,2.051,0.283
	c0.799,0,1.412-0.168,1.84-0.506c0.429-0.338,0.643-0.836,0.643-1.497c0-0.61-0.218-1.085-0.654-1.426
	c-0.435-0.341-1.095-0.512-1.981-0.512c-0.675,0-1.404,0.127-2.188,0.381l-1.579-0.783l0.6-8.404h9.078v3.582h-5.421l-0.196,2.1
	c0.566-0.108,0.969-0.169,1.209-0.179C139.549,194.439,139.77,194.434,139.973,194.434"/>
<path fill="#2E2D4B" d="M87.721,224.867c0-2.221,0.317-4.019,0.953-5.394c0.635-1.375,1.57-2.389,2.807-3.043
	c1.238-0.652,2.764-0.979,4.578-0.979c0.646,0,1.401,0.062,2.264,0.185V219c-0.725-0.138-1.513-0.207-2.362-0.207
	c-1.437,0-2.507,0.316-3.211,0.947c-0.704,0.632-1.089,1.662-1.153,3.092h0.129c0.654-1.233,1.703-1.851,3.147-1.851
	c1.415,0,2.513,0.455,3.293,1.366c0.779,0.91,1.17,2.179,1.17,3.805c0,1.749-0.494,3.129-1.481,4.143
	c-0.987,1.012-2.366,1.518-4.136,1.518c-1.88,0-3.349-0.609-4.409-1.829C88.25,228.764,87.721,227.06,87.721,224.867
	 M93.621,228.405c0.457,0,0.829-0.172,1.115-0.517c0.287-0.344,0.431-0.895,0.431-1.649c0-1.292-0.501-1.938-1.503-1.938
	c-0.493,0-0.895,0.168-1.202,0.5c-0.309,0.334-0.463,0.742-0.463,1.221c0,0.697,0.148,1.268,0.446,1.714
	C92.743,228.182,93.135,228.405,93.621,228.405"/>
<path fill="#2E2D4B" d="M112.354,222.963c0,3.113-0.671,5.366-2.014,6.76c-1.342,1.394-3.49,2.09-6.444,2.09
	c-0.973,0-1.713-0.036-2.221-0.109v-3.406c0.624,0.115,1.248,0.174,1.873,0.174c1.538,0,2.725-0.317,3.56-0.951
	c0.834-0.637,1.288-1.64,1.36-3.012h-0.131c-0.283,0.522-0.562,0.9-0.837,1.133c-0.277,0.232-0.614,0.41-1.013,0.533
	c-0.4,0.123-0.897,0.184-1.491,0.184c-1.379,0-2.456-0.459-3.234-1.381c-0.776-0.922-1.164-2.191-1.164-3.811
	c0-1.763,0.502-3.146,1.508-4.147c1.005-1.001,2.382-1.502,4.131-1.502c1.944,0,3.45,0.646,4.517,1.937
	C111.821,218.746,112.354,220.582,112.354,222.963 M106.356,218.957c-0.472,0-0.854,0.17-1.148,0.511
	c-0.294,0.342-0.441,0.889-0.441,1.644c0,0.595,0.127,1.069,0.381,1.42c0.254,0.353,0.643,0.528,1.165,0.528
	c0.472,0,0.882-0.17,1.23-0.512c0.348-0.341,0.522-0.751,0.522-1.23c0-0.646-0.161-1.2-0.484-1.665
	C107.258,219.188,106.85,218.957,106.356,218.957"/>
<path fill="#2E2D4B" d="M118.504,228.34l0.152,0.25c-0.704,2.766-1.342,4.801-1.916,6.107h-3.037
	c0.211-1.002,0.423-2.125,0.637-3.369c0.215-1.244,0.361-2.24,0.441-2.988H118.504z"/>
<path fill="#2E2D4B" d="M132.307,222.963c0,3.113-0.671,5.366-2.014,6.76c-1.342,1.394-3.49,2.09-6.444,2.09
	c-0.973,0-1.713-0.036-2.221-0.109v-3.406c0.624,0.115,1.248,0.174,1.873,0.174c1.538,0,2.725-0.317,3.56-0.951
	c0.834-0.637,1.288-1.64,1.36-3.012h-0.131c-0.283,0.522-0.562,0.9-0.837,1.133c-0.277,0.232-0.614,0.41-1.013,0.533
	c-0.4,0.123-0.897,0.184-1.491,0.184c-1.379,0-2.456-0.459-3.234-1.381c-0.776-0.922-1.164-2.191-1.164-3.811
	c0-1.763,0.502-3.146,1.508-4.147c1.005-1.001,2.382-1.502,4.131-1.502c1.944,0,3.45,0.646,4.517,1.937
	C131.774,218.746,132.307,220.582,132.307,222.963 M126.309,218.957c-0.472,0-0.854,0.17-1.148,0.511
	c-0.294,0.342-0.441,0.889-0.441,1.644c0,0.595,0.127,1.069,0.381,1.42c0.254,0.353,0.643,0.528,1.165,0.528
	c0.472,0,0.882-0.17,1.23-0.512c0.348-0.341,0.522-0.751,0.522-1.23c0-0.646-0.161-1.2-0.484-1.665
	C127.211,219.188,126.803,218.957,126.309,218.957"/>
<path fill="#2E2D4B" d="M133.799,224.867c0-2.221,0.317-4.019,0.953-5.394c0.635-1.375,1.57-2.389,2.807-3.043
	c1.238-0.652,2.764-0.979,4.578-0.979c0.646,0,1.401,0.062,2.265,0.185V219c-0.726-0.138-1.513-0.207-2.362-0.207
	c-1.437,0-2.507,0.316-3.211,0.947c-0.704,0.632-1.089,1.662-1.153,3.092h0.129c0.654-1.233,1.703-1.851,3.147-1.851
	c1.415,0,2.513,0.455,3.293,1.366c0.779,0.91,1.17,2.179,1.17,3.805c0,1.749-0.494,3.129-1.48,4.143
	c-0.987,1.012-2.366,1.518-4.137,1.518c-1.88,0-3.349-0.609-4.409-1.829C134.329,228.764,133.799,227.06,133.799,224.867
	 M139.699,228.405c0.457,0,0.829-0.172,1.115-0.517c0.288-0.344,0.431-0.895,0.431-1.649c0-1.292-0.501-1.938-1.503-1.938
	c-0.493,0-0.895,0.168-1.202,0.5c-0.309,0.334-0.463,0.742-0.463,1.221c0,0.697,0.148,1.268,0.446,1.714
	C138.821,228.182,139.212,228.405,139.699,228.405"/>
<rect x="87.959" y="210.254" fill="#2E2D4B" width="58.898" height="1.775"/>
<path fill="#2E2D4B" d="M27.079,176.329h-2.845v-5.49c0-0.667,0.014-1.278,0.042-1.83c-0.175,0.213-0.392,0.434-0.652,0.666
	l-1.178,0.972l-1.454-1.788l3.562-2.901h2.525V176.329z"/>
<path fill="#2E2D4B" d="M36.946,170.704c0,2.029-0.438,3.497-1.313,4.406c-0.875,0.907-2.275,1.361-4.2,1.361
	c-0.633,0-1.116-0.023-1.447-0.07v-2.221c0.407,0.076,0.813,0.113,1.22,0.113c1.003,0,1.776-0.207,2.32-0.62
	c0.544-0.414,0.839-1.068,0.887-1.962h-0.085c-0.185,0.341-0.367,0.587-0.547,0.738c-0.18,0.152-0.399,0.267-0.659,0.348
	c-0.261,0.08-0.584,0.12-0.972,0.12c-0.899,0-1.601-0.3-2.107-0.9c-0.506-0.601-0.759-1.429-0.759-2.484
	c0-1.149,0.327-2.049,0.982-2.702c0.656-0.653,1.553-0.979,2.693-0.979c1.266,0,2.248,0.421,2.943,1.263
	C36.599,167.956,36.946,169.153,36.946,170.704 M33.038,168.094c-0.308,0-0.558,0.11-0.749,0.333
	c-0.191,0.223-0.287,0.579-0.287,1.071c0,0.388,0.083,0.697,0.248,0.926c0.166,0.23,0.419,0.344,0.76,0.344
	c0.306,0,0.574-0.111,0.8-0.333c0.228-0.223,0.341-0.489,0.341-0.802c0-0.421-0.105-0.783-0.315-1.085
	C33.625,168.245,33.358,168.094,33.038,168.094"/>
<path fill="#2E2D4B" d="M40.954,174.208l0.1,0.163c-0.459,1.802-0.875,3.129-1.248,3.98h-1.98c0.137-0.653,0.275-1.384,0.415-2.196
	c0.14-0.81,0.235-1.46,0.287-1.947H40.954z"/>
<path fill="#2E2D4B" d="M46.196,165.81c1.092,0,1.942,0.219,2.55,0.659s0.912,1.064,0.912,1.873c0,0.549-0.143,1.029-0.429,1.443
	s-0.739,0.775-1.359,1.082c0.766,0.435,1.306,0.869,1.621,1.302c0.314,0.433,0.471,0.899,0.471,1.4c0,0.923-0.333,1.637-1,2.143
	c-0.667,0.506-1.598,0.759-2.795,0.759c-1.219,0-2.154-0.247-2.801-0.742c-0.648-0.494-0.972-1.204-0.972-2.131
	c0-0.601,0.144-1.113,0.433-1.536c0.288-0.423,0.773-0.807,1.454-1.153c-0.549-0.368-0.95-0.765-1.203-1.187
	c-0.252-0.424-0.379-0.888-0.379-1.395c0-0.794,0.309-1.412,0.929-1.854C44.247,166.03,45.104,165.81,46.196,165.81 M44.961,173.484
	c0,0.294,0.105,0.529,0.313,0.706c0.208,0.178,0.497,0.266,0.865,0.266c0.833,0,1.249-0.305,1.249-0.915
	c0-0.231-0.092-0.46-0.273-0.685c-0.182-0.224-0.507-0.475-0.976-0.754c-0.421,0.221-0.723,0.445-0.904,0.669
	C45.053,172.996,44.961,173.234,44.961,173.484 M46.182,167.831c-0.241,0-0.444,0.069-0.61,0.209
	c-0.165,0.14-0.248,0.32-0.248,0.543c0,0.406,0.276,0.766,0.83,1.078c0.336-0.194,0.564-0.371,0.688-0.532
	c0.123-0.16,0.185-0.343,0.185-0.546c0-0.228-0.083-0.409-0.248-0.546C46.612,167.899,46.413,167.831,46.182,167.831"/>
<path fill="#2E2D4B" d="M50.92,171.945c0-1.447,0.207-2.619,0.621-3.514c0.414-0.897,1.024-1.558,1.83-1.984
	c0.807-0.425,1.801-0.637,2.984-0.637c0.421,0,0.912,0.04,1.474,0.12v2.192c-0.472-0.09-0.985-0.135-1.539-0.135
	c-0.936,0-1.633,0.205-2.092,0.618c-0.458,0.411-0.709,1.083-0.752,2.014h0.086c0.424-0.805,1.108-1.206,2.049-1.206
	c0.922,0,1.638,0.297,2.146,0.89c0.509,0.594,0.763,1.42,0.763,2.479c0,1.14-0.322,2.039-0.965,2.699
	c-0.643,0.661-1.542,0.99-2.696,0.99c-1.224,0-2.182-0.397-2.873-1.192C51.266,174.484,50.92,173.373,50.92,171.945 M54.765,174.251
	c0.299,0,0.541-0.112,0.728-0.337c0.186-0.225,0.28-0.583,0.28-1.075c0-0.842-0.326-1.263-0.979-1.263
	c-0.322,0-0.583,0.11-0.784,0.326c-0.201,0.218-0.302,0.483-0.302,0.795c0,0.454,0.097,0.826,0.291,1.117
	C54.194,174.105,54.449,174.251,54.765,174.251"/>
<path fill="#2E2D4B" d="M209.48,47.349h-7.525v-1.845l2.531-2.56c0.723-0.757,1.196-1.274,1.419-1.55
	c0.222-0.276,0.377-0.515,0.466-0.713c0.086-0.198,0.131-0.406,0.131-0.624c0-0.27-0.088-0.482-0.264-0.639
	c-0.175-0.156-0.421-0.234-0.736-0.234c-0.328,0-0.658,0.094-0.99,0.28c-0.334,0.188-0.711,0.463-1.133,0.826l-1.539-1.801
	c0.535-0.478,0.984-0.82,1.349-1.025c0.364-0.206,0.76-0.363,1.188-0.471c0.428-0.11,0.91-0.164,1.443-0.164
	c0.671,0,1.27,0.119,1.798,0.355c0.527,0.236,0.937,0.573,1.228,1.011c0.291,0.437,0.437,0.927,0.437,1.471
	c0,0.408-0.051,0.784-0.153,1.128c-0.102,0.346-0.258,0.685-0.472,1.02c-0.212,0.333-0.495,0.684-0.848,1.053
	c-0.351,0.369-1.103,1.069-2.252,2.099v0.071h3.923V47.349z"/>
<path fill="#2E2D4B" d="M218.036,42.178c0,1.835-0.308,3.179-0.923,4.032c-0.614,0.854-1.555,1.28-2.823,1.28
	c-1.238,0-2.173-0.445-2.802-1.336c-0.629-0.892-0.943-2.217-0.943-3.976c0-1.845,0.309-3.197,0.922-4.058
	c0.615-0.861,1.555-1.291,2.823-1.291c1.233,0,2.167,0.449,2.799,1.344C217.719,39.07,218.036,40.405,218.036,42.178
	 M213.333,42.178c0,1.173,0.073,1.979,0.22,2.419c0.146,0.439,0.393,0.659,0.737,0.659c0.351,0,0.599-0.226,0.741-0.681
	c0.145-0.454,0.217-1.252,0.217-2.397c0-1.149-0.073-1.955-0.221-2.416c-0.146-0.461-0.392-0.691-0.737-0.691
	c-0.345,0-0.591,0.222-0.737,0.667C213.406,40.182,213.333,40.995,213.333,42.178"/>
<path fill="#2E2D4B" d="M222.079,45.228l0.101,0.163c-0.459,1.802-0.875,3.129-1.248,3.98h-1.98
	c0.137-0.653,0.275-1.384,0.415-2.196c0.14-0.81,0.235-1.46,0.287-1.947H222.079z"/>
<path fill="#2E2D4B" d="M227.747,40.553c0.596,0,1.134,0.139,1.614,0.415c0.479,0.276,0.854,0.668,1.119,1.174
	c0.269,0.507,0.402,1.091,0.402,1.752c0,1.159-0.349,2.048-1.047,2.668c-0.697,0.619-1.753,0.928-3.167,0.928
	c-1.211,0-2.198-0.186-2.965-0.56v-2.298c0.411,0.19,0.876,0.345,1.394,0.468c0.518,0.123,0.963,0.184,1.338,0.184
	c0.52,0,0.918-0.109,1.198-0.33c0.279-0.219,0.419-0.545,0.419-0.974c0-0.398-0.143-0.707-0.426-0.93
	c-0.284-0.222-0.715-0.333-1.291-0.333c-0.441,0-0.915,0.082-1.426,0.248l-1.029-0.511l0.391-5.476h5.916v2.334h-3.532l-0.128,1.369
	c0.369-0.071,0.631-0.11,0.787-0.117C227.47,40.557,227.615,40.553,227.747,40.553"/>
<path fill="#2E2D4B" d="M239.586,41.724c0,2.029-0.438,3.497-1.313,4.406c-0.875,0.907-2.274,1.361-4.2,1.361
	c-0.633,0-1.115-0.023-1.446-0.07V45.2c0.407,0.076,0.813,0.113,1.22,0.113c1.003,0,1.775-0.207,2.32-0.62
	c0.544-0.414,0.839-1.068,0.887-1.962h-0.085c-0.185,0.341-0.367,0.587-0.547,0.738c-0.181,0.152-0.399,0.267-0.659,0.348
	c-0.261,0.08-0.584,0.12-0.973,0.12c-0.898,0-1.601-0.3-2.106-0.9c-0.506-0.602-0.759-1.429-0.759-2.484
	c0-1.149,0.327-2.049,0.982-2.702c0.655-0.653,1.553-0.979,2.692-0.979c1.267,0,2.248,0.421,2.943,1.263
	C239.24,38.976,239.586,40.173,239.586,41.724 M235.678,39.114c-0.308,0-0.558,0.11-0.749,0.333s-0.287,0.579-0.287,1.071
	c0,0.388,0.083,0.697,0.248,0.926c0.166,0.23,0.419,0.344,0.76,0.344c0.307,0,0.574-0.111,0.801-0.333
	c0.228-0.223,0.34-0.489,0.34-0.802c0-0.421-0.104-0.783-0.314-1.085C236.265,39.265,236,39.114,235.678,39.114"/>
<path fill="#2E2D4B" d="M194.141,235.604c0,2.028-0.438,3.497-1.313,4.405c-0.875,0.907-2.274,1.361-4.2,1.361
	c-0.633,0-1.115-0.023-1.446-0.07v-2.221c0.407,0.076,0.813,0.113,1.22,0.113c1.003,0,1.775-0.207,2.32-0.62
	c0.544-0.414,0.839-1.067,0.887-1.962h-0.085c-0.185,0.341-0.367,0.587-0.547,0.738c-0.181,0.151-0.399,0.267-0.659,0.348
	c-0.261,0.08-0.584,0.12-0.973,0.12c-0.898,0-1.601-0.3-2.106-0.9s-0.759-1.429-0.759-2.483c0-1.149,0.327-2.049,0.982-2.702
	s1.553-0.979,2.692-0.979c1.267,0,2.248,0.422,2.943,1.264C193.794,232.856,194.141,234.053,194.141,235.604 M190.233,232.994
	c-0.308,0-0.558,0.11-0.749,0.333c-0.191,0.224-0.287,0.579-0.287,1.071c0,0.388,0.083,0.697,0.248,0.926
	c0.166,0.23,0.419,0.344,0.76,0.344c0.307,0,0.574-0.111,0.801-0.333c0.228-0.223,0.34-0.489,0.34-0.802
	c0-0.421-0.104-0.783-0.314-1.085C190.82,233.145,190.554,232.994,190.233,232.994"/>
<path fill="#2E2D4B" d="M198.149,239.108l0.101,0.163c-0.459,1.802-0.875,3.129-1.248,3.98h-1.98
	c0.137-0.653,0.275-1.385,0.415-2.196c0.14-0.81,0.235-1.46,0.287-1.947H198.149z"/>
<path fill="#2E2D4B" d="M203.817,234.434c0.596,0,1.134,0.139,1.614,0.415c0.479,0.276,0.854,0.668,1.119,1.174
	c0.269,0.507,0.402,1.091,0.402,1.752c0,1.159-0.349,2.048-1.047,2.668c-0.697,0.619-1.753,0.929-3.167,0.929
	c-1.211,0-2.198-0.187-2.965-0.561v-2.298c0.411,0.19,0.876,0.345,1.394,0.468s0.963,0.184,1.338,0.184
	c0.52,0,0.918-0.108,1.198-0.33c0.279-0.219,0.419-0.545,0.419-0.974c0-0.397-0.143-0.706-0.426-0.93
	c-0.284-0.222-0.715-0.333-1.291-0.333c-0.441,0-0.915,0.082-1.426,0.248l-1.029-0.512l0.391-5.476h5.916v2.334h-3.532l-0.128,1.369
	c0.369-0.071,0.631-0.11,0.787-0.116C203.541,234.438,203.685,234.434,203.817,234.434"/>
<path fill="#2E2D4B" d="M208.116,236.846c0-1.447,0.207-2.619,0.62-3.514c0.414-0.897,1.024-1.559,1.83-1.984
	c0.808-0.426,1.802-0.637,2.984-0.637c0.422,0,0.912,0.039,1.475,0.119v2.192c-0.473-0.09-0.985-0.135-1.539-0.135
	c-0.937,0-1.633,0.204-2.092,0.618c-0.459,0.41-0.709,1.082-0.752,2.014h0.086c0.424-0.805,1.107-1.206,2.049-1.206
	c0.922,0,1.638,0.297,2.146,0.89c0.509,0.594,0.763,1.42,0.763,2.479c0,1.14-0.322,2.039-0.965,2.698
	c-0.643,0.662-1.542,0.99-2.695,0.99c-1.225,0-2.183-0.396-2.873-1.191S208.116,238.273,208.116,236.846 M211.96,239.151
	c0.299,0,0.541-0.112,0.729-0.337c0.186-0.225,0.279-0.583,0.279-1.075c0-0.842-0.326-1.263-0.979-1.263
	c-0.322,0-0.583,0.109-0.784,0.326c-0.201,0.218-0.302,0.482-0.302,0.795c0,0.453,0.097,0.826,0.291,1.117
	C211.39,239.006,211.644,239.151,211.96,239.151"/>
<path fill="#2E2D4B" d="M66.761,277.194h-2.845v-5.49c0-0.667,0.014-1.278,0.042-1.829c-0.175,0.213-0.392,0.434-0.652,0.666
	l-1.178,0.972l-1.454-1.788l3.562-2.901h2.525V277.194z"/>
<path fill="#2E2D4B" d="M76.55,277.194h-7.526v-1.845l2.532-2.561c0.723-0.757,1.196-1.273,1.419-1.55
	c0.222-0.276,0.377-0.515,0.465-0.713c0.087-0.198,0.131-0.406,0.131-0.624c0-0.27-0.087-0.482-0.263-0.639
	c-0.175-0.156-0.421-0.234-0.737-0.234c-0.327,0-0.657,0.094-0.99,0.28c-0.334,0.188-0.711,0.463-1.132,0.825l-1.539-1.801
	c0.535-0.478,0.984-0.819,1.348-1.024c0.364-0.206,0.76-0.363,1.188-0.472c0.428-0.109,0.91-0.164,1.444-0.164
	c0.671,0,1.27,0.119,1.798,0.355c0.527,0.236,0.936,0.573,1.227,1.012c0.291,0.437,0.437,0.926,0.437,1.471
	c0,0.408-0.051,0.783-0.153,1.128c-0.102,0.346-0.259,0.685-0.472,1.019c-0.212,0.333-0.495,0.684-0.848,1.053
	c-0.351,0.369-1.102,1.069-2.252,2.1v0.07h3.923V277.194z"/>
<path fill="#2E2D4B" d="M80.636,275.073l0.1,0.163c-0.459,1.802-0.875,3.129-1.248,3.98h-1.98c0.137-0.653,0.275-1.385,0.415-2.196
	c0.14-0.81,0.235-1.46,0.287-1.947H80.636z"/>
<path fill="#2E2D4B" d="M89.885,275.187h-1.141v2.009h-2.767v-2.009h-4.136v-2.057l4.314-6.308h2.589v6.271h1.141V275.187z
	 M85.978,273.094v-1.205c0-0.229,0.008-0.533,0.024-0.919c0.017-0.386,0.031-0.588,0.039-0.606h-0.077
	c-0.161,0.364-0.343,0.705-0.547,1.021l-1.149,1.709H85.978z"/>
<path fill="#2E2D4B" d="M98.398,275.187h-1.141v2.009H94.49v-2.009h-4.136v-2.057l4.314-6.308h2.589v6.271h1.141V275.187z
	 M94.49,273.094v-1.205c0-0.229,0.008-0.533,0.024-0.919c0.017-0.386,0.031-0.588,0.039-0.606h-0.077
	c-0.161,0.364-0.343,0.705-0.547,1.021l-1.149,1.709H94.49z"/>
<path fill="#E9F1D9" d="M221.542,382.176c0,0.811,1.125-22.189,1.125-22.189"/>
<path fill="#FFFFFF" d="M236.656,109.562h-11.131V98.43h11.131V109.562z M236.93,98.156h-11.679v11.679h11.679V98.156z"/>
<rect x="237.067" y="98.293" fill="#CFE9EF" width="11.405" height="11.405"/>
<path fill="#FFFFFF" d="M248.335,109.562h-11.131V98.43h11.131V109.562z M248.609,98.156H236.93v11.679h11.679V98.156z"/>
<rect x="248.746" y="98.293" fill="#CFE9EF" width="11.404" height="11.405"/>
<path fill="#FFFFFF" d="M260.013,109.562h-11.131V98.43h11.131V109.562z M260.289,98.156h-11.68v11.679h11.68V98.156z"/>
<rect x="260.481" y="98.293" fill="#CFE9EF" width="11.405" height="11.405"/>
<path fill="#FFFFFF" d="M271.75,109.562h-11.131V98.43h11.131V109.562z M272.023,98.156h-11.679v11.679h11.679V98.156z"/>
<rect x="272.16" y="98.293" fill="#CFE9EF" width="11.405" height="11.405"/>
<path fill="#FFFFFF" d="M283.428,109.562h-11.132V98.43h11.132V109.562z M283.703,98.156h-11.68v11.679h11.68V98.156z"/>
<path fill="#FFFFFF" d="M236.656,121.24h-11.131v-11.131h11.131V121.24z M236.93,109.835h-11.679v11.679h11.679V109.835z"/>
<rect x="237.067" y="109.971" fill="#CFE9EF" width="11.405" height="11.405"/>
<path fill="#FFFFFF" d="M248.335,121.24h-11.131v-11.131h11.131V121.24z M248.609,109.835H236.93v11.679h11.679V109.835z"/>
<rect x="248.746" y="109.971" fill="#CFE9EF" width="11.404" height="11.405"/>
<path fill="#FFFFFF" d="M260.013,121.24h-11.131v-11.131h11.131V121.24z M260.289,109.835h-11.68v11.679h11.68V109.835z"/>
<rect x="260.481" y="109.971" fill="#CFE9EF" width="11.405" height="11.405"/>
<path fill="#FFFFFF" d="M271.75,121.24h-11.131v-11.131h11.131V121.24z M272.023,109.835h-11.679v11.679h11.679V109.835z"/>
<rect x="272.16" y="109.971" fill="#CFE9EF" width="11.405" height="11.405"/>
<path fill="#FFFFFF" d="M283.428,121.24h-11.132v-11.131h11.132V121.24z M283.703,109.835h-11.68v11.679h11.68V109.835z"/>
<path fill="#FFFFFF" d="M295.107,121.24h-11.131v-11.131h11.131V121.24z M295.38,109.835h-11.68v11.679h11.68V109.835z"/>
<rect x="237.067" y="121.639" fill="#CFE9EF" width="11.405" height="11.404"/>
<path fill="#FFFFFF" d="M248.335,132.907h-11.131v-11.131h11.131V132.907z M248.609,121.502H236.93v11.679h11.679V121.502z"/>
<rect x="248.746" y="121.639" fill="#CFE9EF" width="11.404" height="11.404"/>
<path fill="#FFFFFF" d="M260.013,132.907h-11.131v-11.131h11.131V132.907z M260.289,121.502h-11.68v11.679h11.68V121.502z"/>
<rect x="260.481" y="121.639" fill="#CFE9EF" width="11.405" height="11.404"/>
<path fill="#FFFFFF" d="M271.75,132.907h-11.131v-11.131h11.131V132.907z M272.023,121.502h-11.679v11.679h11.679V121.502z"/>
<rect x="272.16" y="121.639" fill="#CFE9EF" width="11.405" height="11.404"/>
<path fill="#FFFFFF" d="M283.428,132.907h-11.132v-11.131h11.132V132.907z M283.703,121.502h-11.68v11.679h11.68V121.502z"/>
<rect x="283.837" y="121.639" fill="#CFE9EF" width="11.406" height="11.404"/>
<path fill="#FFFFFF" d="M295.107,132.907h-11.131v-11.131h11.131V132.907z M295.38,121.502h-11.68v11.679h11.68V121.502z"/>
<path fill="#FFFFFF" d="M236.656,144.586h-11.131v-11.131h11.131V144.586z M236.93,133.181h-11.679v11.679h11.679V133.181z"/>
<path fill="#FFFFFF" d="M248.335,144.586h-11.131v-11.131h11.131V144.586z M236.93,144.86h11.679v-11.679H236.93"/>
<rect x="248.746" y="133.317" fill="#CFE9EF" width="11.404" height="11.405"/>
<path fill="#FFFFFF" d="M260.013,144.586h-11.131v-11.131h11.131V144.586z M260.289,133.181h-11.68v11.679h11.68V133.181z"/>
<rect x="260.481" y="133.317" fill="#CFE9EF" width="11.405" height="11.405"/>
<path fill="#FFFFFF" d="M271.75,144.586h-11.131v-11.131h11.131V144.586z M272.023,133.181h-11.679v11.679h11.679V133.181z"/>
<rect x="272.16" y="133.317" fill="#CFE9EF" width="11.405" height="11.405"/>
<path fill="#FFFFFF" d="M283.428,144.586h-11.132v-11.131h11.132V144.586z M283.703,133.181h-11.68v11.679h11.68V133.181z"/>
<rect x="283.837" y="133.317" fill="#CFE9EF" width="6.976" height="7.7"/>
<path fill="#FFFFFF" d="M291.491,141.205h-7.602v-7.832h7.602V141.205z M291.678,133.181h-7.978v8.217h7.978V133.181z"/>
<path fill="#FFFFFF" d="M236.656,155.637h-11.131v-10.573h11.131V155.637z M236.93,144.79h-11.679v11.121h11.679V144.79z"/>
<rect x="248.746" y="144.927" fill="#CFE9EF" width="11.404" height="10.847"/>
<path fill="#FFFFFF" d="M260.013,155.637h-11.131v-10.573h11.131V155.637z M260.289,144.79h-11.68v11.121h11.68V144.79z"/>
<rect x="260.481" y="144.927" fill="#CFE9EF" width="11.132" height="6.26"/>
<path fill="#FFFFFF" d="M271.75,155.637h-11.131v-10.573h11.131V155.637z M272.023,144.79h-11.679v11.121h11.679V144.79z"/>
<path fill="#FFFFFF" d="M283.428,155.637h-11.132v-10.573h11.132V155.637z M283.703,144.79h-11.68v11.121h11.68V144.79z"/>
<g>
	<defs>
		<rect id="SVGID_1_" x="171.667" y="310.111" width="50.998" height="49.875"/>
	</defs>
	<clipPath id="SVGID_2_">
		<use xlink:href="#SVGID_1_"  overflow="visible"/>
	</clipPath>
	<rect x="170.26" y="310.236" clip-path="url(#SVGID_2_)" fill="#CFE9EF" width="10.417" height="10.417"/>
	<path clip-path="url(#SVGID_2_)" fill="#FFFFFF" d="M180.552,320.527h-10.167V310.36h10.167V320.527z M180.802,310.111h-10.667
		v10.667h10.667V310.111z"/>
	<rect x="180.927" y="310.236" clip-path="url(#SVGID_2_)" fill="#CFE9EF" width="10.417" height="10.417"/>
	<path clip-path="url(#SVGID_2_)" fill="#FFFFFF" d="M191.218,320.527h-10.167V310.36h10.167V320.527z M191.468,310.111h-10.667
		v10.667h10.667V310.111z"/>
	<rect x="191.593" y="310.236" clip-path="url(#SVGID_2_)" fill="#CFE9EF" width="10.417" height="10.417"/>
	<path clip-path="url(#SVGID_2_)" fill="#FFFFFF" d="M201.885,320.527h-10.167V310.36h10.167V320.527z M202.135,310.111h-10.667
		v10.667h10.667V310.111z"/>
	<rect x="202.313" y="310.236" clip-path="url(#SVGID_2_)" fill="#CFE9EF" width="10.417" height="10.417"/>
	<path clip-path="url(#SVGID_2_)" fill="#FFFFFF" d="M212.604,320.527h-10.167V310.36h10.167V320.527z M212.854,310.111h-10.667
		v10.667h10.667V310.111z"/>
	<rect x="212.979" y="310.236" clip-path="url(#SVGID_2_)" fill="#CFE9EF" width="10.417" height="10.417"/>
	<path clip-path="url(#SVGID_2_)" fill="#FFFFFF" d="M223.271,320.527h-10.167V310.36h10.167V320.527z M223.521,310.111h-10.667
		v10.667h10.667V310.111z"/>
	<rect x="223.646" y="310.236" clip-path="url(#SVGID_2_)" fill="#CFE9EF" width="10.417" height="10.417"/>
	<path clip-path="url(#SVGID_2_)" fill="#FFFFFF" d="M233.938,320.527h-10.167V310.36h10.167V320.527z M234.188,310.111h-10.667
		v10.667h10.667V310.111z"/>
	<rect x="170.26" y="320.902" clip-path="url(#SVGID_2_)" fill="#CFE9EF" width="10.417" height="10.417"/>
	<path clip-path="url(#SVGID_2_)" fill="#FFFFFF" d="M180.552,331.194h-10.167v-10.167h10.167V331.194z M180.802,320.777h-10.667
		v10.667h10.667V320.777z"/>
	<rect x="180.927" y="320.902" clip-path="url(#SVGID_2_)" fill="#CFE9EF" width="10.417" height="10.417"/>
	<path clip-path="url(#SVGID_2_)" fill="#FFFFFF" d="M191.218,331.194h-10.167v-10.167h10.167V331.194z M191.468,320.777h-10.667
		v10.667h10.667V320.777z"/>
	<rect x="191.593" y="320.902" clip-path="url(#SVGID_2_)" fill="#CFE9EF" width="10.417" height="10.417"/>
	<path clip-path="url(#SVGID_2_)" fill="#FFFFFF" d="M201.885,331.194h-10.167v-10.167h10.167V331.194z M202.135,320.777h-10.667
		v10.667h10.667V320.777z"/>
	<rect x="202.313" y="320.902" clip-path="url(#SVGID_2_)" fill="#CFE9EF" width="10.417" height="10.417"/>
	<path clip-path="url(#SVGID_2_)" fill="#FFFFFF" d="M212.604,331.194h-10.167v-10.167h10.167V331.194z M212.854,320.777h-10.667
		v10.667h10.667V320.777z"/>
	<rect x="212.979" y="320.902" clip-path="url(#SVGID_2_)" fill="#CFE9EF" width="10.417" height="10.417"/>
	<path clip-path="url(#SVGID_2_)" fill="#FFFFFF" d="M223.271,331.194h-10.167v-10.167h10.167V331.194z M223.521,320.777h-10.667
		v10.667h10.667V320.777z"/>
	<rect x="223.646" y="320.902" clip-path="url(#SVGID_2_)" fill="#CFE9EF" width="10.417" height="10.417"/>
	<path clip-path="url(#SVGID_2_)" fill="#FFFFFF" d="M233.938,331.194h-10.167v-10.167h10.167V331.194z M234.188,320.777h-10.667
		v10.667h10.667V320.777z"/>
	<rect x="170.26" y="331.56" clip-path="url(#SVGID_2_)" fill="#CFE9EF" width="10.417" height="10.416"/>
	<path clip-path="url(#SVGID_2_)" fill="#FFFFFF" d="M180.552,341.851h-10.167v-10.167h10.167V341.851z M180.802,331.435h-10.667
		v10.667h10.667V331.435z"/>
	<rect x="180.927" y="331.56" clip-path="url(#SVGID_2_)" fill="#CFE9EF" width="10.417" height="10.416"/>
	<path clip-path="url(#SVGID_2_)" fill="#FFFFFF" d="M191.218,341.851h-10.167v-10.167h10.167V341.851z M191.468,331.435h-10.667
		v10.667h10.667V331.435z"/>
	<rect x="191.593" y="331.56" clip-path="url(#SVGID_2_)" fill="#CFE9EF" width="10.417" height="10.416"/>
	<path clip-path="url(#SVGID_2_)" fill="#FFFFFF" d="M201.885,341.851h-10.167v-10.167h10.167V341.851z M202.135,331.435h-10.667
		v10.667h10.667V331.435z"/>
	<rect x="202.313" y="331.56" clip-path="url(#SVGID_2_)" fill="#CFE9EF" width="10.417" height="10.416"/>
	<path clip-path="url(#SVGID_2_)" fill="#FFFFFF" d="M212.604,341.851h-10.167v-10.167h10.167V341.851z M212.854,331.435h-10.667
		v10.667h10.667V331.435z"/>
	<rect x="212.979" y="331.56" clip-path="url(#SVGID_2_)" fill="#CFE9EF" width="10.417" height="10.416"/>
	<path clip-path="url(#SVGID_2_)" fill="#FFFFFF" d="M223.271,341.851h-10.167v-10.167h10.167V341.851z M223.521,331.435h-10.667
		v10.667h10.667V331.435z"/>
	<rect x="223.646" y="331.56" clip-path="url(#SVGID_2_)" fill="#CFE9EF" width="10.417" height="10.416"/>
	<path clip-path="url(#SVGID_2_)" fill="#FFFFFF" d="M233.938,341.851h-10.167v-10.167h10.167V341.851z M234.188,331.435h-10.667
		v10.667h10.667V331.435z"/>
	<rect x="170.26" y="342.226" clip-path="url(#SVGID_2_)" fill="#CFE9EF" width="10.417" height="10.417"/>
	<path clip-path="url(#SVGID_2_)" fill="#FFFFFF" d="M180.552,352.518h-10.167v-10.167h10.167V352.518z M180.802,342.101h-10.667
		v10.667h10.667V342.101z"/>
	<rect x="180.927" y="342.226" clip-path="url(#SVGID_2_)" fill="#CFE9EF" width="10.417" height="10.417"/>
	<path clip-path="url(#SVGID_2_)" fill="#FFFFFF" d="M191.218,352.518h-10.167v-10.167h10.167V352.518z M191.468,342.101h-10.667
		v10.667h10.667V342.101z"/>
	<rect x="191.593" y="342.226" clip-path="url(#SVGID_2_)" fill="#CFE9EF" width="10.417" height="10.417"/>
	<path clip-path="url(#SVGID_2_)" fill="#FFFFFF" d="M201.885,352.518h-10.167v-10.167h10.167V352.518z M202.135,342.101h-10.667
		v10.667h10.667V342.101z"/>
	<rect x="202.313" y="342.226" clip-path="url(#SVGID_2_)" fill="#CFE9EF" width="10.417" height="10.417"/>
	<path clip-path="url(#SVGID_2_)" fill="#FFFFFF" d="M212.604,352.518h-10.167v-10.167h10.167V352.518z M212.854,342.101h-10.667
		v10.667h10.667V342.101z"/>
	<rect x="212.979" y="342.226" clip-path="url(#SVGID_2_)" fill="#CFE9EF" width="10.417" height="10.417"/>
	<path clip-path="url(#SVGID_2_)" fill="#FFFFFF" d="M223.271,352.518h-10.167v-10.167h10.167V352.518z M223.521,342.101h-10.667
		v10.667h10.667V342.101z"/>
	<rect x="223.646" y="342.226" clip-path="url(#SVGID_2_)" fill="#CFE9EF" width="10.417" height="10.417"/>
	<path clip-path="url(#SVGID_2_)" fill="#FFFFFF" d="M233.938,352.518h-10.167v-10.167h10.167V352.518z M234.188,342.101h-10.667
		v10.667h10.667V342.101z"/>
	<rect x="170.26" y="352.828" clip-path="url(#SVGID_2_)" fill="#CFE9EF" width="10.417" height="9.907"/>
	<path clip-path="url(#SVGID_2_)" fill="#FFFFFF" d="M180.552,362.611h-10.167v-9.657h10.167V362.611z M180.802,352.704h-10.667
		v10.157h10.667V352.704z"/>
	<rect x="180.927" y="352.828" clip-path="url(#SVGID_2_)" fill="#CFE9EF" width="10.417" height="9.907"/>
	<path clip-path="url(#SVGID_2_)" fill="#FFFFFF" d="M191.218,362.611h-10.167v-9.657h10.167V362.611z M191.468,352.704h-10.667
		v10.157h10.667V352.704z"/>
	<rect x="191.593" y="352.828" clip-path="url(#SVGID_2_)" fill="#CFE9EF" width="10.417" height="9.907"/>
	<path clip-path="url(#SVGID_2_)" fill="#FFFFFF" d="M201.885,362.611h-10.167v-9.657h10.167V362.611z M202.135,352.704h-10.667
		v10.157h10.667V352.704z"/>
	<rect x="202.313" y="352.828" clip-path="url(#SVGID_2_)" fill="#CFE9EF" width="10.417" height="9.907"/>
	<path clip-path="url(#SVGID_2_)" fill="#FFFFFF" d="M212.604,362.611h-10.167v-9.657h10.167V362.611z M212.854,352.704h-10.667
		v10.157h10.667V352.704z"/>
	<rect x="212.979" y="352.828" clip-path="url(#SVGID_2_)" fill="#CFE9EF" width="10.417" height="9.907"/>
	<path clip-path="url(#SVGID_2_)" fill="#FFFFFF" d="M223.271,362.611h-10.167v-9.657h10.167V362.611z M223.521,352.704h-10.667
		v10.157h10.667V352.704z"/>
	<rect x="223.646" y="352.828" clip-path="url(#SVGID_2_)" fill="#CFE9EF" width="10.417" height="9.907"/>
	<path clip-path="url(#SVGID_2_)" fill="#FFFFFF" d="M233.938,362.611h-10.167v-9.657h10.167V362.611z M234.188,352.704h-10.667
		v10.157h10.667V352.704z"/>
</g>
<polyline fill="#2E2D4B" points="40.833,363.944 40.833,332.152 57.167,332.152 57.167,363.944 "/>
<rect x="0.084" y="236.653" fill="#2E2D4B" width="16.333" height="37.958"/>
<rect x="40.834" y="107.611" fill="#2E2D4B" width="16.333" height="44.177"/>
<rect x="0.084" y="143.653" fill="#2E2D4B" width="16.333" height="37.958"/>
<rect x="40.834" y="258.61" fill="#2E2D4B" width="16.333" height="32.542"/>
<rect x="0.083" y="258.611" fill="#2E2D4B" width="45.75" height="16.271"/>
<rect x="0.084" y="143.652" fill="#2E2D4B" width="57.083" height="16.271"/>
<rect x="143.042" y="258.971" fill="#2E2D4B" width="23.75" height="6.531"/>
<polyline fill="#2E2D4B" points="218.167,363.944 218.167,280.319 224.917,280.319 224.917,363.944 "/>
<rect x="218.167" y="176.329" fill="#2E2D4B" width="6.75" height="76.573"/>
<rect x="213.403" y="151.702" transform="matrix(-0.8673 0.4978 -0.4978 -0.8673 566.3328 159.1633)" fill="#2E2D4B" width="97.093" height="6.749"/>
<rect x="219.788" y="93.989" transform="matrix(-0.8673 0.4978 -0.4978 -0.8673 507.3713 56.365)" fill="#2E2D4B" width="52.769" height="3.658"/>
<rect x="87.174" y="37.315" transform="matrix(-0.8673 0.4978 -0.4978 -0.8673 329.1401 2.5949)" fill="#2E2D4B" width="154.1" height="15.718"/>
<rect x="40.781" y="91.571" transform="matrix(-0.8673 0.4978 -0.4978 -0.8673 181.4309 150.4884)" fill="#2E2D4B" width="59.747" height="15.718"/>
<rect x="41.792" y="357.194" fill="#2E2D4B" width="183.125" height="6.75"/>
<rect x="52.333" y="156.298" fill="#2E2D4B" width="134.833" height="3.625"/>
<rect x="52.333" y="258.611" fill="#2E2D4B" width="115.833" height="3.625"/>
<rect x="164.958" y="251.235" fill="#2E2D4B" width="3.209" height="23.167"/>
<rect x="183.958" y="156.658" fill="#2E2D4B" width="3.209" height="64.703"/>
<rect x="164.958" y="219.361" fill="#2E2D4B" width="3.209" height="7.5"/>
<rect x="184.783" y="151.957" transform="matrix(0.8699 -0.4933 0.4933 0.8699 -50.5821 115.3837)" fill="#2E2D4B" width="17.229" height="3.209"/>
<rect x="221.212" y="131.001" transform="matrix(0.8699 -0.4933 0.4933 0.8699 -35.5043 130.6336)" fill="#2E2D4B" width="17.229" height="3.209"/>
<rect x="247.133" y="153.472" transform="matrix(0.4933 0.8698 -0.8698 0.4933 262.3254 -140.2001)" fill="#2E2D4B" width="8.75" height="3.208"/>
<rect x="164.958" y="218.153" fill="#2E2D4B" width="21.146" height="3.208"/>
<rect x="164.958" y="299.736" fill="#2E2D4B" width="3.209" height="13.583"/>
<rect x="154.292" y="341.653" fill="#2E2D4B" width="3.207" height="16.333"/>
<rect x="164.958" y="310.111" fill="#2E2D4B" width="27.209" height="3.208"/>
<rect x="154.562" y="341.653" fill="#2E2D4B" width="18.521" height="3.208"/>
<rect x="154.562" y="348.215" fill="#2E2D4B" width="18.521" height="3.209"/>
<rect x="164.974" y="341.652" fill="#2E2D4B" width="2.188" height="9.26"/>
<rect x="214.5" y="310.111" fill="#2E2D4B" width="9.668" height="3.208"/>
<rect x="170.542" y="312.152" fill="#2E2D4B" width="3.207" height="46.667"/>
<rect x="196.585" y="71.373" transform="matrix(0.5072 0.8618 -0.8618 0.5072 195.9558 -193.4509)" fill="#2E2D4B" width="141.103" height="6.501"/>
<polyline fill="#2E2D4B" points="222.669,107.84 225.249,106.323 240.318,131.93 237.74,133.447 "/>
<rect x="289.979" y="128.091" transform="matrix(0.8718 -0.4898 0.4898 0.8718 -27.4412 159.638)" fill="#2E2D4B" width="2.626" height="8.317"/>
<rect x="291.066" y="124.201" transform="matrix(0.49 0.8717 -0.8717 0.49 261.0077 -189.4094)" fill="#2E2D4B" width="2.625" height="8.317"/>
<rect x="40.75" y="291.152" fill="#A5D5E7" width="16.5" height="41"/>
<rect x="46.434" y="291.152" fill="#62AAC3" width="5.133" height="41"/>
<rect y="181.611" fill="#A5D5E7" width="16.417" height="55.042"/>
<rect x="5.654" y="181.611" fill="#62AAC3" width="5.107" height="55.042"/>
<rect x="167.162" y="344.861" fill="#D7D8D5" width="3.381" height="3.354"/>
<rect x="157.5" y="344.861" fill="#D7D8D5" width="7.475" height="3.354"/>
<rect x="157.5" y="351.424" fill="#D7D8D5" width="13.043" height="5.771"/>
<polygon fill="#D7D8D5" points="295.007,128.387 291.677,130.258 293.343,133.219 296.647,131.267 "/>
<rect x="192.167" y="311.069" fill="#E3004F" width="3.125" height="2.25"/>
<rect x="200.396" y="291.208" transform="matrix(-0.7073 -0.7069 0.7069 -0.7073 129.6527 660.3066)" fill="#E3004F" width="2.25" height="24.21"/>
<rect x="222.667" y="277.194" fill="#E3004F" width="2.25" height="3.125"/>
<rect x="213.785" y="258.859" transform="matrix(-0.7071 0.7071 -0.7071 -0.7071 558.4753 310.6006)" fill="#E3004F" width="2.25" height="24.21"/>
<rect x="165.042" y="274.402" fill="#E3004F" width="3.125" height="2.25"/>
<rect x="157.687" y="272.304" transform="matrix(0.7075 0.7067 -0.7067 0.7075 247.4302 -29.05)" fill="#E3004F" width="2.25" height="24.21"/>
<rect x="165.042" y="248.986" fill="#E3004F" width="3.125" height="2.25"/>
<rect x="157.687" y="229.124" transform="matrix(0.7073 -0.7069 0.7069 0.7073 -124.0418 182.8646)" fill="#E3004F" width="2.25" height="24.21"/>
<rect x="247.675" y="149.051" transform="matrix(-0.6328 -0.7743 0.7743 -0.6328 289.6234 438.571)" fill="#E3004F" width="2.25" height="3.125"/>
<rect x="236.021" y="136.565" transform="matrix(0.0998 -0.995 0.995 0.0998 65.5458 369.7898)" fill="#E3004F" width="2.25" height="24.209"/>
<rect x="132.897" y="340.064" fill="#B2D3DC" width="21.388" height="17.107"/>
<path fill="#FFFFFF" d="M137.215,354.266h6.103h0.772h8.604v-0.49h-7.053c0.311-0.219,0.57-0.5,0.77-0.825h6.283v-0.491h-6.048
	c0.095-0.26,0.152-0.535,0.162-0.824h5.886v-0.492h-5.875v-0.823h5.875v-0.492h-5.875v-0.824h5.875v-0.491h-5.875v-0.824h5.875
	v-0.491h-5.875v-0.825h5.875v-0.491h-5.875v-0.823h5.875v-0.492h-5.886c-0.01-0.289-0.067-0.564-0.162-0.824h6.048v-0.492h-6.283
	c-0.199-0.324-0.459-0.607-0.77-0.824h7.053v-0.49h-8.604h-0.772h-6.103c-1.501,0-2.729,1.228-2.729,2.729v6.875
	C134.486,353.038,135.714,354.266,137.215,354.266"/>
<path fill="#62A9C4" d="M138.617,357.172h4.333v-2.905h-1.666v-2.843c0-0.154-0.127-0.28-0.283-0.28h-0.437
	c-0.155,0-0.281,0.126-0.281,0.28v2.843h-1.667V357.172z"/>
<path fill="#FFFFFF" d="M141.386,355.717c0-0.268,0.217-0.484,0.483-0.484c0.269,0,0.485,0.217,0.485,0.484
	c0,0.267-0.217,0.483-0.485,0.483C141.603,356.2,141.386,355.983,141.386,355.717"/>
<path fill="#FFFFFF" d="M139.214,355.717c0-0.268,0.217-0.484,0.484-0.484c0.268,0,0.485,0.217,0.485,0.484
	c0,0.267-0.217,0.483-0.485,0.483C139.431,356.2,139.214,355.983,139.214,355.717"/>
<rect x="112.397" y="354.289" fill="#B2D3DC" width="15.25" height="2.905"/>
<rect x="112.397" y="340.088" fill="#62A9C4" width="15.25" height="14.201"/>
<rect x="113.897" y="338.5" fill="#62A9C4" width="12.25" height="0.928"/>
<path fill="#FFFFFF" d="M116.688,348.412c1.327,0,2.406,1.08,2.406,2.406s-1.079,2.406-2.406,2.406c-1.326,0-2.405-1.08-2.405-2.406
	S115.362,348.412,116.688,348.412 M116.688,352.475c0.913,0,1.656-0.744,1.656-1.656c0-0.913-0.743-1.656-1.656-1.656
	s-1.655,0.743-1.655,1.656C115.034,351.73,115.775,352.475,116.688,352.475"/>
<path fill="#FFFFFF" d="M116.688,349.568c0.689,0,1.25,0.561,1.25,1.25s-0.561,1.25-1.25,1.25s-1.25-0.561-1.25-1.25
	S116,349.568,116.688,349.568 M116.688,351.318c0.275,0,0.5-0.225,0.5-0.5s-0.225-0.5-0.5-0.5s-0.5,0.225-0.5,0.5
	S116.414,351.318,116.688,351.318"/>
<path fill="#FFFFFF" d="M116.688,342.84c0.908,0,1.646,0.738,1.646,1.646c0,0.908-0.738,1.646-1.646,1.646
	c-0.907,0-1.646-0.737-1.646-1.646C115.042,343.578,115.781,342.84,116.688,342.84 M116.688,345.381
	c0.494,0,0.896-0.401,0.896-0.896s-0.402-0.896-0.896-0.896s-0.896,0.401-0.896,0.896S116.194,345.381,116.688,345.381"/>
<path fill="#FFFFFF" d="M116.688,341.151c1.838,0,3.334,1.496,3.334,3.334c0,1.837-1.496,3.333-3.334,3.333
	s-3.333-1.496-3.333-3.333C113.355,342.647,114.851,341.151,116.688,341.151 M116.688,347.068c1.425,0,2.584-1.159,2.584-2.583
	c0-1.425-1.159-2.584-2.584-2.584c-1.424,0-2.583,1.159-2.583,2.584C114.105,345.909,115.265,347.068,116.688,347.068"/>
<path fill="#FFFFFF" d="M123.356,345.965c-1.327,0-2.406-1.08-2.406-2.406c0-1.327,1.079-2.406,2.406-2.406
	c1.326,0,2.405,1.079,2.405,2.406C125.761,344.885,124.682,345.965,123.356,345.965 M123.356,341.902
	c-0.913,0-1.656,0.743-1.656,1.656c0,0.912,0.743,1.656,1.656,1.656s1.655-0.744,1.655-1.656
	C125.011,342.646,124.27,341.902,123.356,341.902"/>
<path fill="#FFFFFF" d="M123.356,344.807c-0.689,0-1.25-0.561-1.25-1.25c0-0.688,0.561-1.25,1.25-1.25s1.25,0.562,1.25,1.25
	C124.606,344.246,124.045,344.807,123.356,344.807 M123.356,343.057c-0.275,0-0.5,0.225-0.5,0.5c0,0.276,0.225,0.5,0.5,0.5
	s0.5-0.224,0.5-0.5C123.856,343.281,123.631,343.057,123.356,343.057"/>
<path fill="#FFFFFF" d="M123.356,351.537c-0.908,0-1.646-0.738-1.646-1.646c0-0.907,0.738-1.646,1.646-1.646
	c0.907,0,1.646,0.738,1.646,1.646C125.002,350.799,124.263,351.537,123.356,351.537 M123.356,348.995
	c-0.494,0-0.896,0.401-0.896,0.896s0.402,0.896,0.896,0.896c0.494,0,0.896-0.402,0.896-0.896S123.85,348.995,123.356,348.995"/>
<path fill="#FFFFFF" d="M123.356,353.225c-1.838,0-3.334-1.496-3.334-3.334c0-1.836,1.496-3.334,3.334-3.334
	s3.333,1.498,3.333,3.334C126.689,351.729,125.194,353.225,123.356,353.225 M123.356,347.307c-1.425,0-2.584,1.16-2.584,2.584
	c0,1.425,1.159,2.584,2.584,2.584c1.424,0,2.583-1.159,2.583-2.584C125.939,348.467,124.78,347.307,123.356,347.307"/>
<rect x="121.792" y="339.428" fill="#B2D3DC" width="1.481" height="0.66"/>
<rect x="116.771" y="339.428" fill="#B2D3DC" width="1.481" height="0.66"/>
<rect x="83.552" y="340.088" fill="#B2D3DC" width="16.937" height="17.106"/>
<path fill="#62A9C4" d="M100.484,339.614c-0.015-0.615-0.398-1.115-0.87-1.115H84.427c-0.472,0-0.855,0.5-0.87,1.115H100.484z"/>
<rect x="100.484" y="340.088" fill="#CFE9EF" width="11.913" height="17.106"/>
<rect x="57.167" y="340.088" fill="#CFE9EF" width="26.385" height="17.106"/>
<rect x="127.647" y="340.088" fill="#CFE9EF" width="5.25" height="17.106"/>
<path fill="#62A9C4" d="M215.682,357.172V351.4v-1.323v-0.843c0-1.982-1.622-3.605-3.604-3.605h-7.125
	c-1.981,0-3.604,1.623-3.604,3.605v0.843v1.323v5.771H215.682z"/>
<path fill="#FFFFFF" d="M204.943,346.504h7.146c1.529,0,2.78,1.252,2.78,2.781v1.833c0,1.53-1.251,2.781-2.78,2.781h-7.146
	c-1.53,0-2.781-1.251-2.781-2.781v-1.833C202.162,347.756,203.413,346.504,204.943,346.504"/>
<path fill="#62A9C4" d="M209.725,350.262h-0.364c-0.074,0.334-0.326,0.586-0.66,0.66v0.364
	C209.229,351.206,209.645,350.791,209.725,350.262"/>
<path fill="#62A9C4" d="M208.993,350.262H208.7v0.293C208.834,350.502,208.941,350.396,208.993,350.262"/>
<path fill="#62A9C4" d="M209.361,349.893h0.363c-0.079-0.529-0.495-0.944-1.024-1.024v0.364
	C209.034,349.307,209.287,349.559,209.361,349.893"/>
<path fill="#62A9C4" d="M208.7,349.6v0.293h0.293C208.941,349.758,208.834,349.652,208.7,349.6"/>
<path fill="#62A9C4" d="M208.332,350.555v-0.293h-0.293C208.09,350.396,208.197,350.502,208.332,350.555"/>
<path fill="#62A9C4" d="M208.039,349.893h0.293V349.6C208.197,349.652,208.09,349.758,208.039,349.893"/>
<path fill="#62A9C4" d="M208.332,351.286v-0.364c-0.334-0.074-0.587-0.326-0.661-0.66h-0.364
	C207.386,350.79,207.802,351.206,208.332,351.286"/>
<path fill="#62A9C4" d="M208.332,349.232v-0.363c-0.53,0.079-0.945,0.495-1.025,1.024h0.364
	C207.745,349.56,207.998,349.307,208.332,349.232"/>
<path fill="#62A9C4" d="M183.437,323.561h2.375c2.476,0,4.5,2.024,4.5,4.5v4.625c0,2.475-2.024,4.5-4.5,4.5h-2.375
	c-2.475,0-4.5-2.025-4.5-4.5v-4.625C178.937,325.585,180.962,323.561,183.437,323.561"/>
<path fill="#FFFFFF" d="M183.827,324.633h1.597c2.155,0,3.91,1.754,3.91,3.91v5.23c0,2.156-1.755,3.912-3.91,3.912h-1.597
	c-2.155,0-3.909-1.756-3.909-3.912v-5.23C179.917,326.387,181.671,324.633,183.827,324.633 M185.423,336.686
	c1.604,0,2.91-1.307,2.91-2.912v-5.23c0-1.604-1.306-2.91-2.91-2.91h-1.597c-1.604,0-2.909,1.307-2.909,2.91v5.23
	c0,1.605,1.305,2.912,2.909,2.912H185.423z"/>
<path fill="#62A9C4" d="M179.375,336.883h10.5c0.619,0,1.125,0.506,1.125,1.125v4.5c0,0.619-0.506,1.125-1.125,1.125h-10.5
	c-0.619,0-1.125-0.506-1.125-1.125v-4.5C178.25,337.389,178.755,336.883,179.375,336.883"/>
<path fill="#62A9C4" d="M182.875,335.143h3.5c0.27,0,0.49,0.22,0.49,0.49v2.5c0,0.269-0.221,0.488-0.49,0.488h-3.5
	c-0.269,0-0.49-0.22-0.49-0.488v-2.5C182.384,335.362,182.606,335.143,182.875,335.143"/>
<path fill="#FFFFFF" d="M183.679,340.258c0-0.523,0.424-0.946,0.945-0.946c0.523,0,0.947,0.423,0.947,0.946
	c0,0.522-0.424,0.945-0.947,0.945C184.103,341.203,183.679,340.78,183.679,340.258"/>
<path fill="#62A9C4" d="M284.056,109.623l-4.981,2.912l-1.142,0.668l-0.729,0.425c-1.711,1.001-2.293,3.219-1.293,4.931l3.596,6.151
	c1,1.711,3.22,2.293,4.931,1.293l0.728-0.426l1.144-0.667l4.981-2.912L284.056,109.623z"/>
<path fill="#FFFFFF" d="M280.267,124.277l-3.605-6.169c-0.772-1.321-0.324-3.033,0.998-3.805l1.582-0.925
	c1.32-0.772,3.032-0.323,3.805,0.998l3.605,6.169c0.771,1.321,0.323,3.033-0.998,3.805l-1.582,0.925
	C282.751,126.047,281.039,125.599,280.267,124.277"/>
<path fill="#62A9C4" d="M281.097,118.253l0.185,0.314c0.325-0.105,0.672-0.014,0.903,0.238l0.314-0.184
	C282.164,118.205,281.595,118.056,281.097,118.253"/>
<path fill="#62A9C4" d="M281.467,118.885l0.147,0.253l0.252-0.148C281.754,118.9,281.611,118.862,281.467,118.885"/>
<path fill="#62A9C4" d="M280.963,118.753l-0.185-0.314c-0.416,0.336-0.564,0.904-0.366,1.402l0.313-0.184
	C280.622,119.332,280.712,118.985,280.963,118.753"/>
<path fill="#62A9C4" d="M281.044,119.471l0.253-0.148l-0.147-0.252C281.059,119.184,281.021,119.328,281.044,119.471"/>
<path fill="#62A9C4" d="M282.054,119.308l-0.254,0.148l0.148,0.253C282.039,119.595,282.077,119.451,282.054,119.308"/>
<path fill="#62A9C4" d="M281.63,119.894l-0.147-0.253l-0.252,0.148C281.343,119.879,281.488,119.917,281.63,119.894"/>
<path fill="#62A9C4" d="M282.686,118.939l-0.313,0.184c0.104,0.325,0.014,0.672-0.238,0.904l0.184,0.314
	C282.735,120.005,282.884,119.438,282.686,118.939"/>
<path fill="#62A9C4" d="M280.912,119.975l-0.313,0.184c0.336,0.416,0.903,0.565,1.401,0.367l-0.184-0.314
	C281.492,120.317,281.144,120.226,280.912,119.975"/>
<rect x="242.668" y="81.783" transform="matrix(0.4966 0.868 -0.868 0.4966 219.9035 -166.5881)" fill="#62A9C4" width="21.797" height="49.002"/>
<path fill="#FFFFFF" d="M267.796,95.788l0.248,0.435c0.449-0.141,0.926-0.011,1.241,0.338l0.435-0.249
	C269.263,95.734,268.483,95.522,267.796,95.788"/>
<path fill="#FFFFFF" d="M268.296,96.663l0.2,0.35l0.35-0.2C268.691,96.687,268.494,96.633,268.296,96.663"/>
<path fill="#FFFFFF" d="M267.605,96.475l-0.249-0.435c-0.577,0.458-0.79,1.238-0.524,1.925l0.436-0.249
	C267.126,97.267,267.255,96.791,267.605,96.475"/>
<path fill="#FFFFFF" d="M267.707,97.464l0.351-0.2l-0.2-0.35C267.731,97.069,267.677,97.268,267.707,97.464"/>
<path fill="#FFFFFF" d="M269.098,97.252l-0.351,0.2l0.201,0.35C269.074,97.647,269.128,97.449,269.098,97.252"/>
<path fill="#FFFFFF" d="M268.508,98.054l-0.2-0.35l-0.35,0.2C268.113,98.03,268.311,98.084,268.508,98.054"/>
<path fill="#FFFFFF" d="M274.216,104.544c1.145-0.654,1.545-2.126,0.891-3.27l-6.305-11.02c-0.654-1.144-2.126-1.546-3.271-0.891
	l-26.546,15.189c-0.147,0.083-0.28,0.182-0.401,0.29c-0.286,0.125-0.568,0.264-0.846,0.423c-4.19,2.397-5.645,7.74-3.246,11.932
	c2.397,4.192,7.74,5.645,11.932,3.248c0.277-0.159,0.539-0.332,0.793-0.515c0.154-0.05,0.307-0.115,0.453-0.199L274.216,104.544z
	 M269.703,100.142l-0.442-0.773c-0.933,0.397-2.015,0.102-2.616-0.713l-0.773,0.444l-0.252-0.44l0.773-0.443
	c-0.398-0.932-0.104-2.016,0.712-2.617l-0.442-0.775l0.439-0.251l0.443,0.774c0.932-0.398,2.015-0.103,2.617,0.712l0.773-0.443
	l0.251,0.44l-0.774,0.443c0.398,0.932,0.104,2.015-0.711,2.616l0.442,0.775L269.703,100.142z"/>
<path fill="#FFFFFF" d="M269.972,96.752l-0.435,0.249c0.142,0.449,0.011,0.925-0.338,1.241l0.249,0.435
	C270.027,98.22,270.239,97.439,269.972,96.752"/>
<path fill="#FFFFFF" d="M267.519,98.156l-0.436,0.249c0.458,0.577,1.238,0.79,1.926,0.524l-0.25-0.435
	C268.31,98.634,267.834,98.505,267.519,98.156"/>
<rect x="173.75" y="343.633" fill="#9C9D9A" width="21.75" height="13.539"/>
<polyline fill="#A5D5E7" points="160.925,56.423 97.711,92.703 89.719,78.86 152.933,42.582 "/>
<polyline fill="#62AAC3" points="158.173,51.656 94.959,87.935 92.472,83.629 155.687,47.349 "/>
<polygon fill="#CFE9EF" points="248.435,133.355 248.537,144.789 237.001,133.253 "/>
<rect x="220.4" y="135.714" transform="matrix(-0.8536 0.521 -0.521 -0.8536 482.1302 139.038)" fill="#E3004F" width="2.249" height="3.125"/>
<rect x="208.76" y="123.149" transform="matrix(-0.2348 0.972 -0.972 -0.2348 390.642 -37.0018)" fill="#E3004F" width="2.25" height="24.211"/>
<path fill="#2E2D4B" d="M195.125,331.16h-7.526v-1.846l2.532-2.56c0.724-0.757,1.196-1.274,1.419-1.55
	c0.223-0.276,0.377-0.516,0.465-0.713c0.088-0.198,0.131-0.406,0.131-0.625c0-0.27-0.086-0.481-0.263-0.639
	c-0.175-0.156-0.421-0.234-0.737-0.234c-0.326,0-0.656,0.095-0.99,0.281c-0.334,0.188-0.711,0.463-1.131,0.825l-1.539-1.801
	c0.535-0.478,0.983-0.82,1.348-1.024c0.363-0.207,0.76-0.363,1.188-0.472c0.429-0.11,0.91-0.164,1.444-0.164
	c0.671,0,1.271,0.119,1.798,0.354c0.527,0.236,0.937,0.574,1.228,1.012c0.29,0.438,0.437,0.927,0.437,1.471
	c0,0.408-0.051,0.784-0.152,1.128c-0.103,0.347-0.26,0.685-0.473,1.02c-0.212,0.333-0.494,0.684-0.848,1.053
	c-0.352,0.369-1.102,1.069-2.252,2.099v0.071h3.923V331.16z"/>
<path fill="#2E2D4B" d="M199.211,329.039l0.101,0.162c-0.459,1.803-0.875,3.129-1.248,3.98h-1.98
	c0.137-0.652,0.275-1.384,0.415-2.195c0.14-0.811,0.235-1.461,0.287-1.947H199.211z"/>
<path fill="#2E2D4B" d="M204.879,324.363c0.596,0,1.134,0.14,1.614,0.416c0.479,0.275,0.854,0.668,1.119,1.174
	c0.269,0.507,0.402,1.091,0.402,1.752c0,1.158-0.349,2.048-1.047,2.668c-0.697,0.619-1.753,0.928-3.167,0.928
	c-1.211,0-2.198-0.186-2.965-0.561v-2.297c0.411,0.189,0.876,0.345,1.394,0.468c0.518,0.122,0.963,0.184,1.338,0.184
	c0.52,0,0.918-0.108,1.198-0.33c0.279-0.219,0.419-0.545,0.419-0.974c0-0.398-0.143-0.707-0.426-0.93
	c-0.284-0.223-0.715-0.334-1.291-0.334c-0.441,0-0.915,0.082-1.426,0.248l-1.029-0.511l0.391-5.476h5.916v2.334h-3.532l-0.128,1.369
	c0.369-0.071,0.631-0.11,0.787-0.117C204.603,324.367,204.748,324.363,204.879,324.363"/>
<path fill="#2E2D4B" d="M212.966,320.641c1.092,0,1.942,0.219,2.551,0.659c0.607,0.44,0.912,1.063,0.912,1.873
	c0,0.549-0.144,1.028-0.43,1.442s-0.738,0.775-1.359,1.082c0.767,0.436,1.307,0.869,1.621,1.303
	c0.314,0.433,0.471,0.898,0.471,1.399c0,0.923-0.332,1.638-1,2.144c-0.666,0.506-1.598,0.759-2.795,0.759
	c-1.219,0-2.153-0.247-2.801-0.742c-0.647-0.494-0.972-1.204-0.972-2.131c0-0.601,0.144-1.113,0.433-1.536s0.773-0.807,1.455-1.152
	c-0.55-0.369-0.951-0.766-1.203-1.188c-0.252-0.424-0.379-0.889-0.379-1.395c0-0.795,0.309-1.412,0.928-1.854
	S211.875,320.641,212.966,320.641 M211.732,328.314c0,0.294,0.104,0.529,0.313,0.706c0.208,0.179,0.497,0.267,0.865,0.267
	c0.833,0,1.249-0.306,1.249-0.916c0-0.23-0.093-0.459-0.272-0.685c-0.183-0.224-0.508-0.475-0.977-0.754
	c-0.421,0.222-0.723,0.444-0.904,0.669S211.732,328.064,211.732,328.314 M212.953,322.662c-0.241,0-0.444,0.068-0.61,0.209
	c-0.165,0.14-0.247,0.319-0.247,0.543c0,0.406,0.275,0.766,0.829,1.078c0.337-0.194,0.564-0.371,0.688-0.533
	c0.122-0.159,0.185-0.342,0.185-0.545c0-0.229-0.083-0.409-0.248-0.547C213.382,322.729,213.183,322.662,212.953,322.662"/>
<path fill="#2E2D4B" d="M256.494,127.235c0,0.643-0.195,1.195-0.589,1.656c-0.392,0.461-0.96,0.796-1.702,1.004v0.042
	c1.73,0.218,2.596,1.036,2.596,2.455c0,0.965-0.382,1.724-1.146,2.277c-0.763,0.553-1.824,0.83-3.181,0.83
	c-0.559,0-1.076-0.04-1.551-0.12c-0.475-0.081-0.99-0.228-1.543-0.441v-2.326c0.454,0.231,0.917,0.403,1.387,0.515
	c0.471,0.11,0.905,0.166,1.302,0.166c0.614,0,1.063-0.086,1.345-0.259c0.281-0.173,0.422-0.444,0.422-0.813
	c0-0.283-0.072-0.502-0.22-0.656c-0.146-0.153-0.383-0.269-0.709-0.347c-0.327-0.078-0.752-0.117-1.277-0.117h-0.639v-2.107h0.653
	c1.423,0,2.135-0.364,2.135-1.092c0-0.274-0.105-0.478-0.315-0.61c-0.211-0.133-0.493-0.199-0.848-0.199
	c-0.662,0-1.349,0.222-2.058,0.666l-1.164-1.872c0.55-0.379,1.111-0.648,1.686-0.808c0.575-0.161,1.232-0.241,1.977-0.241
	c1.072,0,1.914,0.212,2.524,0.637C256.189,125.901,256.494,126.488,256.494,127.235"/>
<path fill="#2E2D4B" d="M260.927,133.236l0.1,0.163c-0.459,1.802-0.875,3.129-1.248,3.98h-1.979
	c0.137-0.653,0.274-1.384,0.415-2.196c0.14-0.81,0.234-1.46,0.287-1.947H260.927z"/>
<path fill="#2E2D4B" d="M268.568,135.357h-2.846v-5.49c0-0.667,0.015-1.278,0.043-1.83c-0.176,0.213-0.393,0.434-0.652,0.666
	l-1.178,0.972l-1.454-1.788l3.562-2.901h2.525V135.357z"/>
<path fill="#2E2D4B" d="M274.683,124.838c1.092,0,1.941,0.219,2.549,0.659c0.608,0.44,0.912,1.064,0.912,1.873
	c0,0.549-0.143,1.029-0.429,1.443s-0.739,0.775-1.358,1.082c0.766,0.435,1.306,0.869,1.621,1.302c0.313,0.433,0.471,0.899,0.471,1.4
	c0,0.923-0.333,1.637-1,2.144c-0.667,0.506-1.598,0.759-2.795,0.759c-1.219,0-2.154-0.247-2.801-0.742
	c-0.648-0.494-0.973-1.204-0.973-2.131c0-0.601,0.145-1.113,0.434-1.536c0.287-0.423,0.772-0.807,1.453-1.153
	c-0.549-0.368-0.949-0.765-1.203-1.187c-0.252-0.424-0.379-0.888-0.379-1.395c0-0.794,0.31-1.412,0.93-1.854
	C272.734,125.058,273.59,124.838,274.683,124.838 M273.448,132.512c0,0.294,0.104,0.529,0.313,0.706
	c0.208,0.178,0.497,0.266,0.865,0.266c0.833,0,1.249-0.305,1.249-0.915c0-0.231-0.092-0.46-0.273-0.685
	c-0.182-0.224-0.507-0.475-0.976-0.754c-0.421,0.221-0.724,0.445-0.903,0.669C273.54,132.024,273.448,132.262,273.448,132.512
	 M274.668,126.859c-0.241,0-0.444,0.069-0.61,0.209c-0.164,0.14-0.248,0.32-0.248,0.543c0,0.406,0.276,0.766,0.83,1.078
	c0.336-0.194,0.564-0.371,0.688-0.532c0.123-0.16,0.186-0.343,0.186-0.546c0-0.228-0.084-0.409-0.248-0.546
	C275.099,126.927,274.9,126.859,274.668,126.859"/>
<rect x="3.732" y="260.549" fill="#2E2D4B" width="3.5" height="99.125"/>
<rect x="3.732" y="356.049" fill="#2E2D4B" width="44.583" height="3.625"/>
<path fill="#2E2D4B" d="M14.932,353.899h-2.845v-5.49c0-0.667,0.014-1.278,0.042-1.829c-0.175,0.213-0.392,0.434-0.652,0.666
	l-1.178,0.971l-1.454-1.787l3.562-2.901h2.525V353.899z"/>
<path fill="#2E2D4B" d="M20.294,351.778l0.1,0.163c-0.459,1.802-0.875,3.129-1.248,3.98h-1.98c0.137-0.653,0.275-1.385,0.415-2.196
	c0.14-0.81,0.235-1.46,0.287-1.947H20.294z"/>
<polygon fill="#2E2D4B" points="22.735,353.899 26.297,345.862 21.806,345.862 21.806,343.543 29.29,343.543 29.29,345.195 
	25.636,353.899 "/>
<path fill="#2E2D4B" d="M34.475,347.104c0.596,0,1.134,0.139,1.614,0.415s0.854,0.668,1.12,1.174
	c0.268,0.507,0.402,1.091,0.402,1.752c0,1.159-0.349,2.048-1.047,2.668c-0.697,0.619-1.753,0.929-3.167,0.929
	c-1.211,0-2.199-0.187-2.965-0.561v-2.298c0.411,0.19,0.876,0.345,1.394,0.468c0.517,0.123,0.963,0.184,1.337,0.184
	c0.52,0,0.919-0.108,1.199-0.33c0.279-0.219,0.419-0.545,0.419-0.974c0-0.397-0.143-0.706-0.426-0.93
	c-0.284-0.222-0.715-0.333-1.291-0.333c-0.441,0-0.915,0.082-1.426,0.248l-1.029-0.512l0.39-5.476h5.916v2.334h-3.532l-0.128,1.369
	c0.369-0.071,0.631-0.11,0.787-0.116C34.199,347.107,34.343,347.104,34.475,347.104"/>
</svg>
