<?xml version="1.0" encoding="utf-8"?>
<!-- Generator: Adobe Illustrator 16.0.0, SVG Export Plug-In . SVG Version: 6.00 Build 0)  -->
<!DOCTYPE svg PUBLIC "-//W3C//DTD SVG 1.1//EN" "http://www.w3.org/Graphics/SVG/1.1/DTD/svg11.dtd">
<svg version="1.1" id="Слой_1" xmlns="http://www.w3.org/2000/svg" xmlns:xlink="http://www.w3.org/1999/xlink" x="0px" y="0px"
	 width="439.75px" height="245.388px" viewBox="0 0 439.75 245.388" enable-background="new 0 0 439.75 245.388"
	 xml:space="preserve">
<rect x="203.521" y="22.295" fill="#D0EAF0" width="10.417" height="10.417"/>
<path fill="#FFFFFF" d="M213.813,32.587h-10.167V22.42h10.167V32.587z M214.063,22.17h-10.667v10.667h10.667V22.17z"/>
<rect x="214.188" y="22.295" fill="#D0EAF0" width="10.417" height="10.417"/>
<path fill="#FFFFFF" d="M224.479,32.587h-10.167V22.42h10.167V32.587z M224.729,22.17h-10.667v10.667h10.667V22.17z"/>
<rect x="224.854" y="22.295" fill="#D0EAF0" width="10.417" height="10.417"/>
<path fill="#FFFFFF" d="M235.146,32.587h-10.167V22.42h10.167V32.587z M235.396,22.17h-10.667v10.667h10.667V22.17z"/>
<rect x="235.572" y="22.295" fill="#D0EAF0" width="10.417" height="10.417"/>
<path fill="#FFFFFF" d="M245.864,32.587h-10.167V22.42h10.167V32.587z M246.114,22.17h-10.667v10.667h10.667V22.17z"/>
<rect x="246.24" y="22.295" fill="#D0EAF0" width="10.417" height="10.417"/>
<path fill="#FFFFFF" d="M256.531,32.587h-10.167V22.42h10.167V32.587z M256.781,22.17h-10.667v10.667h10.667V22.17z"/>
<rect x="256.906" y="22.295" fill="#D0EAF0" width="10.417" height="10.417"/>
<path fill="#FFFFFF" d="M267.198,32.587h-10.167V22.42h10.167V32.587z M267.448,22.17h-10.667v10.667h10.667V22.17z"/>
<rect x="203.521" y="11.628" fill="#D0EAF0" width="10.417" height="10.417"/>
<path fill="#FFFFFF" d="M213.813,21.92h-10.167V11.753h10.167V21.92z M214.063,11.503h-10.667V22.17h10.667V11.503z"/>
<rect x="214.188" y="11.628" fill="#D0EAF0" width="10.417" height="10.417"/>
<path fill="#FFFFFF" d="M224.479,21.92h-10.167V11.753h10.167V21.92z M224.729,11.503h-10.667V22.17h10.667V11.503z"/>
<rect x="224.854" y="11.628" fill="#D0EAF0" width="10.417" height="10.417"/>
<path fill="#FFFFFF" d="M235.146,21.92h-10.167V11.753h10.167V21.92z M235.396,11.503h-10.667V22.17h10.667V11.503z"/>
<rect x="235.572" y="11.628" fill="#D0EAF0" width="10.417" height="10.417"/>
<path fill="#FFFFFF" d="M245.864,21.92h-10.167V11.753h10.167V21.92z M246.114,11.503h-10.667V22.17h10.667V11.503z"/>
<rect x="246.24" y="11.628" fill="#D0EAF0" width="10.417" height="10.417"/>
<path fill="#FFFFFF" d="M256.531,21.92h-10.167V11.753h10.167V21.92z M256.781,11.503h-10.667V22.17h10.667V11.503z"/>
<rect x="256.906" y="11.628" fill="#D0EAF0" width="10.417" height="10.417"/>
<path fill="#FFFFFF" d="M267.198,21.92h-10.167V11.753h10.167V21.92z M267.448,11.503h-10.667V22.17h10.667V11.503z"/>
<rect x="203.521" y="32.962" fill="#D0EAF0" width="10.417" height="10.417"/>
<path fill="#FFFFFF" d="M213.813,43.253h-10.167V33.086h10.167V43.253z M214.063,32.837h-10.667v10.667h10.667V32.837z"/>
<rect x="214.188" y="32.962" fill="#D0EAF0" width="10.417" height="10.417"/>
<path fill="#FFFFFF" d="M224.479,43.253h-10.167V33.086h10.167V43.253z M224.729,32.837h-10.667v10.667h10.667V32.837z"/>
<rect x="224.854" y="32.962" fill="#D0EAF0" width="10.417" height="10.417"/>
<path fill="#FFFFFF" d="M235.146,43.253h-10.167V33.086h10.167V43.253z M235.396,32.837h-10.667v10.667h10.667V32.837z"/>
<rect x="235.572" y="32.962" fill="#D0EAF0" width="10.417" height="10.417"/>
<path fill="#FFFFFF" d="M245.864,43.253h-10.167V33.086h10.167V43.253z M246.114,32.837h-10.667v10.667h10.667V32.837z"/>
<rect x="246.24" y="32.962" fill="#D0EAF0" width="10.417" height="10.417"/>
<path fill="#FFFFFF" d="M256.531,43.253h-10.167V33.086h10.167V43.253z M256.781,32.837h-10.667v10.667h10.667V32.837z"/>
<rect x="256.906" y="32.962" fill="#D0EAF0" width="10.417" height="10.417"/>
<path fill="#FFFFFF" d="M267.198,43.253h-10.167V33.086h10.167V43.253z M267.448,32.837h-10.667v10.667h10.667V32.837z"/>
<rect x="203.521" y="43.618" fill="#D0EAF0" width="10.417" height="10.416"/>
<path fill="#FFFFFF" d="M213.813,53.91h-10.167V43.743h10.167V53.91z M214.063,43.493h-10.667V54.16h10.667V43.493z"/>
<rect x="214.188" y="43.618" fill="#D0EAF0" width="10.417" height="10.416"/>
<path fill="#FFFFFF" d="M224.479,53.91h-10.167V43.743h10.167V53.91z M224.729,43.493h-10.667V54.16h10.667V43.493z"/>
<rect x="224.854" y="43.618" fill="#D0EAF0" width="10.417" height="10.416"/>
<path fill="#FFFFFF" d="M235.146,53.91h-10.167V43.743h10.167V53.91z M235.396,43.493h-10.667V54.16h10.667V43.493z"/>
<rect x="235.572" y="43.618" fill="#D0EAF0" width="10.417" height="10.416"/>
<path fill="#FFFFFF" d="M245.864,53.91h-10.167V43.743h10.167V53.91z M246.114,43.493h-10.667V54.16h10.667V43.493z"/>
<rect x="246.24" y="43.618" fill="#D0EAF0" width="10.417" height="10.416"/>
<path fill="#FFFFFF" d="M256.531,53.91h-10.167V43.743h10.167V53.91z M256.781,43.493h-10.667V54.16h10.667V43.493z"/>
<rect x="256.906" y="43.618" fill="#D0EAF0" width="10.417" height="10.416"/>
<path fill="#FFFFFF" d="M267.198,53.91h-10.167V43.743h10.167V53.91z M267.448,43.493h-10.667V54.16h10.667V43.493z"/>
<rect x="203.521" y="54.284" fill="#D0EAF0" width="10.417" height="10.417"/>
<path fill="#FFFFFF" d="M213.813,64.576h-10.167V54.409h10.167V64.576z M214.063,54.16h-10.667v10.667h10.667V54.16z"/>
<rect x="214.188" y="54.284" fill="#D0EAF0" width="10.417" height="10.417"/>
<path fill="#FFFFFF" d="M224.479,64.576h-10.167V54.409h10.167V64.576z M224.729,54.16h-10.667v10.667h10.667V54.16z"/>
<rect x="224.854" y="54.284" fill="#D0EAF0" width="10.417" height="10.417"/>
<path fill="#FFFFFF" d="M235.146,64.576h-10.167V54.409h10.167V64.576z M235.396,54.16h-10.667v10.667h10.667V54.16z"/>
<rect x="235.572" y="54.284" fill="#D0EAF0" width="10.417" height="10.417"/>
<path fill="#FFFFFF" d="M245.864,64.576h-10.167V54.409h10.167V64.576z M246.114,54.16h-10.667v10.667h10.667V54.16z"/>
<rect x="246.24" y="54.284" fill="#D0EAF0" width="10.417" height="10.417"/>
<path fill="#FFFFFF" d="M256.531,64.576h-10.167V54.409h10.167V64.576z M256.781,54.16h-10.667v10.667h10.667V54.16z"/>
<rect x="256.906" y="54.284" fill="#D0EAF0" width="10.417" height="10.417"/>
<path fill="#FFFFFF" d="M267.198,64.576h-10.167V54.409h10.167V64.576z M267.448,54.16h-10.667v10.667h10.667V54.16z"/>
<rect x="203.521" y="64.889" fill="#D0EAF0" width="10.417" height="9.906"/>
<path fill="#FFFFFF" d="M213.813,74.67h-10.167v-9.656h10.167V74.67z M214.063,64.764h-10.667V74.92h10.667V64.764z"/>
<rect x="214.188" y="64.889" fill="#D0EAF0" width="10.417" height="9.906"/>
<path fill="#FFFFFF" d="M224.479,74.67h-10.167v-9.656h10.167V74.67z M224.729,64.764h-10.667V74.92h10.667V64.764z"/>
<rect x="224.854" y="64.889" fill="#D0EAF0" width="10.417" height="9.906"/>
<path fill="#FFFFFF" d="M235.146,74.67h-10.167v-9.656h10.167V74.67z M235.396,64.764h-10.667V74.92h10.667V64.764z"/>
<rect x="235.572" y="64.889" fill="#D0EAF0" width="10.417" height="9.906"/>
<path fill="#FFFFFF" d="M245.864,74.67h-10.167v-9.656h10.167V74.67z M246.114,64.764h-10.667V74.92h10.667V64.764z"/>
<rect x="246.24" y="64.889" fill="#D0EAF0" width="10.417" height="9.906"/>
<path fill="#FFFFFF" d="M256.531,74.67h-10.167v-9.656h10.167V74.67z M256.781,64.764h-10.667V74.92h10.667V64.764z"/>
<rect x="256.906" y="64.889" fill="#D0EAF0" width="10.417" height="9.906"/>
<path fill="#FFFFFF" d="M267.198,74.67h-10.167v-9.656h10.167V74.67z M267.448,64.764h-10.667V74.92h10.667V64.764z"/>
<rect x="289.888" y="2.118" fill="#D0EAF0" width="10.417" height="9.907"/>
<path fill="#FFFFFF" d="M300.18,11.9h-10.167V2.243h10.167V11.9z M300.43,1.993h-10.667V12.15h10.667V1.993z"/>
<rect x="300.555" y="2.118" fill="#D0EAF0" width="10.417" height="9.907"/>
<path fill="#FFFFFF" d="M310.847,11.9H300.68V2.243h10.167V11.9z M311.097,1.993H300.43V12.15h10.667V1.993z"/>
<rect x="311.221" y="2.118" fill="#D0EAF0" width="10.417" height="9.907"/>
<path fill="#FFFFFF" d="M321.513,11.9h-10.167V2.243h10.167V11.9z M321.763,1.993h-10.667V12.15h10.667V1.993z"/>
<rect x="321.939" y="2.118" fill="#D0EAF0" width="10.417" height="9.907"/>
<path fill="#FFFFFF" d="M332.231,11.9h-10.167V2.243h10.167V11.9z M332.481,1.993h-10.667V12.15h10.667V1.993z"/>
<rect x="332.606" y="2.118" fill="#D0EAF0" width="10.417" height="9.907"/>
<path fill="#FFFFFF" d="M342.898,11.9h-10.167V2.243h10.167V11.9z M343.148,1.993h-10.667V12.15h10.667V1.993z"/>
<rect x="343.273" y="2.118" fill="#D0EAF0" width="10.416" height="9.907"/>
<path fill="#FFFFFF" d="M353.564,11.9h-10.167V2.243h10.167V11.9z M353.814,1.993h-10.667V12.15h10.667V1.993z"/>
<rect x="259.935" y="2.243" fill="#D0EAF0" width="10.416" height="10.417"/>
<path fill="#FFFFFF" d="M260.06,2.369h10.167v10.167H260.06V2.369z M259.81,12.785h10.667V2.118H259.81V12.785z"/>
<rect x="270.601" y="2.243" fill="#D0EAF0" width="10.417" height="10.417"/>
<path fill="#FFFFFF" d="M270.727,2.369h10.167v10.167h-10.167V2.369z M270.477,12.785h10.667V2.118h-10.667V12.785z"/>
<rect x="281.205" y="2.243" fill="#D0EAF0" width="9.906" height="10.417"/>
<path fill="#FFFFFF" d="M281.33,2.369h9.656v10.167h-9.656V2.369z M281.08,12.785h10.156V2.118H281.08V12.785z"/>
<rect x="172.385" y="21.741" fill="#D0EAF0" width="7.082" height="9.906"/>
<polygon fill="#FFFFFF" points="172.386,21.623 172.386,21.86 179.316,21.86 179.316,31.528 172.386,31.528 172.386,31.768 
	179.62,31.768 179.62,21.623 "/>
<rect x="179.836" y="21.741" fill="#D0EAF0" width="12.698" height="9.906"/>
<path fill="#FFFFFF" d="M192.382,31.528h-12.393v-9.669h12.393V31.528z M192.686,21.622h-13.002v10.146h13.002V21.622z"/>
<rect x="192.839" y="21.741" fill="#D0EAF0" width="7.736" height="9.906"/>
<polygon fill="#FFFFFF" points="192.687,21.623 192.687,31.768 200.574,31.768 200.574,31.528 192.99,31.528 192.99,21.86 
	200.574,21.86 200.574,21.623 "/>
<rect x="172.385" y="16.55" fill="#D0EAF0" width="7.082" height="4.953"/>
<polygon fill="#FFFFFF" points="179.316,16.55 179.316,21.385 172.386,21.385 172.386,21.622 179.62,21.622 179.62,16.55 "/>
<rect x="179.837" y="16.55" fill="#D0EAF0" width="12.698" height="4.953"/>
<polygon fill="#FFFFFF" points="192.381,16.55 192.381,21.385 179.988,21.385 179.988,16.55 179.685,16.55 179.685,21.622 
	192.687,21.622 192.687,16.55 "/>
<rect x="192.839" y="16.55" fill="#D0EAF0" width="7.736" height="4.953"/>
<polygon fill="#FFFFFF" points="192.687,16.55 192.687,21.622 200.574,21.622 200.574,21.385 192.99,21.385 192.99,16.55 "/>
<rect x="172.385" y="31.887" fill="#D0EAF0" width="7.082" height="9.904"/>
<polygon fill="#FFFFFF" points="172.386,31.767 172.386,32.005 179.316,32.005 179.316,41.673 172.386,41.673 172.386,41.91 
	179.62,41.91 179.62,31.767 "/>
<rect x="179.836" y="31.886" fill="#D0EAF0" width="12.698" height="9.904"/>
<path fill="#FFFFFF" d="M192.382,41.674h-12.393v-9.67h12.393V41.674z M192.686,31.767h-13.002V41.91h13.002V31.767z"/>
<rect x="192.839" y="31.887" fill="#D0EAF0" width="7.736" height="9.904"/>
<polygon fill="#FFFFFF" points="192.687,31.767 192.687,41.91 200.574,41.91 200.574,41.673 192.99,41.673 192.99,32.005 
	200.574,32.005 200.574,31.767 "/>
<rect x="172.385" y="42.021" fill="#D0EAF0" width="7.082" height="9.905"/>
<polygon fill="#FFFFFF" points="172.386,41.9 172.386,42.14 179.316,42.14 179.316,51.807 172.386,51.807 172.386,52.047 
	179.62,52.047 179.62,41.9 "/>
<rect x="179.836" y="42.021" fill="#D0EAF0" width="12.698" height="9.906"/>
<path fill="#FFFFFF" d="M192.382,51.808h-12.393v-9.669h12.393V51.808z M192.686,41.9h-13.002v10.145h13.002V41.9z"/>
<rect x="192.839" y="42.021" fill="#D0EAF0" width="7.736" height="9.905"/>
<polygon fill="#FFFFFF" points="192.687,41.9 192.687,52.047 200.574,52.047 200.574,51.807 192.99,51.807 192.99,42.14 
	200.574,42.14 200.574,41.9 "/>
<rect x="172.385" y="52.163" fill="#D0EAF0" width="7.082" height="9.907"/>
<polygon fill="#FFFFFF" points="172.386,52.045 172.386,52.283 179.316,52.283 179.316,61.951 172.386,61.951 172.386,62.189 
	179.62,62.189 179.62,52.045 "/>
<rect x="179.836" y="52.163" fill="#D0EAF0" width="12.698" height="9.907"/>
<path fill="#FFFFFF" d="M192.382,61.951h-12.393v-9.669h12.393V61.951z M192.686,52.045h-13.002v10.145h13.002V52.045z"/>
<rect x="192.839" y="52.163" fill="#D0EAF0" width="7.736" height="9.907"/>
<polygon fill="#FFFFFF" points="192.687,52.045 192.687,62.189 200.574,62.189 200.574,61.951 192.99,61.951 192.99,52.283 
	200.574,52.283 200.574,52.045 "/>
<rect x="172.385" y="62.246" fill="#D0EAF0" width="7.082" height="9.423"/>
<polygon fill="#FFFFFF" points="172.386,62.129 172.386,62.367 179.316,62.367 179.316,71.551 172.386,71.551 172.386,71.789 
	179.62,71.789 179.62,62.129 "/>
<rect x="179.836" y="62.247" fill="#D0EAF0" width="12.698" height="9.423"/>
<path fill="#FFFFFF" d="M192.382,71.551h-12.393v-9.186h12.393V71.551z M192.686,62.128h-13.002v9.658h13.002V62.128z"/>
<rect x="192.839" y="62.246" fill="#D0EAF0" width="7.736" height="9.423"/>
<polygon fill="#FFFFFF" points="192.687,62.129 192.687,71.789 200.574,71.789 200.574,71.551 192.99,71.551 192.99,62.367 
	200.574,62.367 200.574,62.129 "/>
<rect x="206.365" y="126" fill="#2E2D4B" width="7.437" height="42.778"/>
<rect x="206.365" y="126" fill="#2E2D4B" width="233.385" height="7.438"/>
<rect x="53.668" y="8.867" fill="#2E2D4B" width="386.083" height="7.717"/>
<rect x="53.668" y="0.086" fill="#2E2D4B" width="386.083" height="12.409"/>
<rect x="140.084" y="109.75" fill="#2E2D4B" width="23.167" height="6.063"/>
<rect x="47.532" y="109.75" fill="#2E2D4B" width="115.719" height="3.5"/>
<rect x="160.537" y="151.332" fill="#2E2D4B" width="3.583" height="16.804"/>
<rect x="160.537" y="104.5" fill="#2E2D4B" width="3.583" height="21.5"/>
<rect x="160.537" y="73.293" fill="#2E2D4B" width="3.583" height="5.957"/>
<rect x="197.662" y="71.5" fill="#2E2D4B" width="31.589" height="3.583"/>
<rect x="252.124" y="71.5" fill="#2E2D4B" width="15.461" height="3.583"/>
<rect x="160.538" y="71.5" fill="#2E2D4B" width="14.922" height="3.583"/>
<rect x="169.204" y="12.727" fill="#2E2D4B" width="3.583" height="62.356"/>
<rect x="200.204" y="12.727" fill="#2E2D4B" width="3.583" height="62.356"/>
<rect x="264.872" y="12.727" fill="#2E2D4B" width="3.583" height="76.189"/>
<rect x="264.335" y="114.166" fill="#2E2D4B" width="3.583" height="16.667"/>
<rect x="0.001" y="105.729" fill="#2E2D4B" width="3.5" height="127.741"/>
<rect x="423.251" y="93.75" fill="#2E2D4B" width="16.5" height="35.873"/>
<rect x="423.251" y="8.867" fill="#2E2D4B" width="16.5" height="30.716"/>
<rect y="231.721" fill="#2E2D4B" width="51.721" height="13.667"/>
<rect x="0.001" y="109.75" fill="#2E2D4B" width="51.72" height="16.583"/>
<rect x="0.001" fill="#2E2D4B" width="78" height="16.584"/>
<rect x="35.388" y="195.574" fill="#2E2D4B" width="16.333" height="36.342"/>
<rect x="35.388" y="115.333" fill="#2E2D4B" width="16.333" height="38.575"/>
<rect x="0.002" y="94.75" fill="#2E2D4B" width="16.333" height="26.333"/>
<rect x="0.002" fill="#2E2D4B" width="16.333" height="39.583"/>
<polyline fill="#2E2D4B" points="155.241,245.749 155.241,165.095 161.324,165.095 161.324,245.749 "/>
<rect x="140.865" y="162.817" fill="#2E2D4B" width="6.083" height="81.406"/>
<rect x="0.001" y="239.666" fill="#2E2D4B" width="161.323" height="6.083"/>
<rect x="140.865" y="162.695" fill="#2E2D4B" width="26.052" height="6.083"/>
<rect x="194.657" y="162.695" fill="#2E2D4B" width="13.844" height="6.083"/>
<rect x="145.204" y="202.943" fill="#2E2D4B" width="14.823" height="2.604"/>
<rect x="254.496" y="53.416" fill="#2E2D4B" width="2.094" height="19.092"/>
<rect x="254.496" y="53.416" fill="#2E2D4B" width="13.381" height="2.096"/>
<rect x="254.496" y="59.791" fill="#2E2D4B" width="13.381" height="2.096"/>
<rect x="254.496" y="66.291" fill="#2E2D4B" width="13.381" height="2.096"/>
<rect x="146.641" y="168.5" fill="#9E9D9B" width="10.25" height="34.444"/>
<polygon fill="#D7D7D5" points="150.069,197.583 156.892,202.944 156.892,168.5 146.642,168.5 "/>
<rect x="146.641" y="205.547" fill="#9E9D9B" width="10.25" height="34.619"/>
<polygon fill="#D7D7D5" points="150.069,234.778 156.892,240.167 156.892,205.547 146.642,205.547 "/>
<rect x="256.59" y="55.512" fill="#9E9D9B" width="8.281" height="4.279"/>
<rect x="256.59" y="61.887" fill="#9E9D9B" width="8.281" height="4.404"/>
<rect x="256.59" y="68.388" fill="#9E9D9B" width="8.281" height="3.112"/>
<polygon fill="#D7D7D5" points="263.043,63.625 256.59,61.886 256.59,66.292 264.871,66.292 "/>
<polygon fill="#D7D7D5" points="263.043,69.615 256.59,68.387 256.59,71.5 264.871,71.5 "/>
<rect x="175.459" y="16.584" fill="#9E9D9B" width="22.042" height="13.207"/>
<rect x="35.387" y="152.875" fill="#A5DAEC" width="16.333" height="44.366"/>
<rect x="41.13" y="152.875" fill="#61A9C4" width="4.85" height="44.366"/>
<rect x="0.001" y="39.583" fill="#A5DAEC" width="16.333" height="55.167"/>
<rect x="5.742" y="39.583" fill="#61A9C4" width="4.85" height="55.167"/>
<rect x="423.251" y="39.583" fill="#A5DAEC" width="16.5" height="54.167"/>
<rect x="429.052" y="39.583" fill="#61A9C4" width="4.898" height="54.167"/>
<rect x="166.918" y="162.695" fill="#E3004F" width="3.125" height="2.25"/>
<rect x="175.148" y="160.597" transform="matrix(-0.7071 0.7071 -0.7071 -0.7071 423.0349 170.1765)" fill="#E3004F" width="2.25" height="24.21"/>
<rect x="194.537" y="71.5" fill="#E3004F" width="3.125" height="2.25"/>
<rect x="187.183" y="69.401" transform="matrix(0.7071 0.7071 -0.7071 0.7071 112.7878 -109.2811)" fill="#E3004F" width="2.25" height="24.21"/>
<rect x="264.871" y="88.916" fill="#E3004F" width="3.125" height="2.25"/>
<rect x="273.1" y="86.818" transform="matrix(-0.7073 0.7069 -0.7069 -0.7073 538.1198 -24.9531)" fill="#E3004F" width="2.25" height="24.21"/>
<rect x="161.87" y="126" fill="#E3004F" width="2.25" height="3.125"/>
<rect x="152.99" y="123.25" transform="matrix(-0.7071 -0.7071 0.7071 -0.7071 167.3799 340.041)" fill="#E3004F" width="2.25" height="24.21"/>
<rect x="161.87" y="101.375" fill="#E3004F" width="2.25" height="3.125"/>
<rect x="152.99" y="83.04" transform="matrix(-0.7069 0.7073 -0.7073 -0.7069 330.3556 53.3939)" fill="#E3004F" width="2.25" height="24.21"/>
<rect x="35.387" y="152.875" fill="#E3004F" width="3.125" height="2.25"/>
<rect x="43.618" y="150.776" transform="matrix(-0.7071 0.7071 -0.7071 -0.7071 191.5555 246.4178)" fill="#E3004F" width="2.25" height="24.21"/>
<rect x="203.786" y="16.584" fill="#61A9C4" width="21.871" height="49.166"/>
<path fill="#FFFFFF" d="M212.672,23.545h0.503c0.102-0.461,0.451-0.811,0.912-0.913V22.13
	C213.356,22.24,212.782,22.814,212.672,23.545"/>
<path fill="#FFFFFF" d="M213.683,23.545h0.404v-0.403C213.901,23.213,213.755,23.359,213.683,23.545"/>
<path fill="#FFFFFF" d="M213.175,24.054h-0.504c0.111,0.731,0.686,1.305,1.416,1.415v-0.502
	C213.625,24.865,213.276,24.515,213.175,24.054"/>
<path fill="#FFFFFF" d="M214.087,24.458v-0.404h-0.404C213.755,24.24,213.901,24.386,214.087,24.458"/>
<path fill="#FFFFFF" d="M214.596,23.141v0.404h0.403C214.928,23.359,214.782,23.213,214.596,23.141"/>
<path fill="#FFFFFF" d="M215,24.054h-0.404v0.404C214.782,24.386,214.928,24.24,215,24.054"/>
<path fill="#FFFFFF" d="M223.497,22.316c0-1.322-1.082-2.404-2.406-2.404h-12.736c-1.323,0-2.404,1.082-2.404,2.404v30.687
	c0,0.17,0.019,0.335,0.053,0.495c-0.034,0.311-0.053,0.626-0.053,0.946c0,4.846,3.928,8.773,8.773,8.773
	c4.845,0,8.773-3.928,8.773-8.773c0-0.32-0.02-0.636-0.054-0.946c0.034-0.16,0.054-0.325,0.054-0.495V22.316z M217.415,24.054
	h-0.896c-0.118,1.01-0.914,1.807-1.924,1.924v0.896h-0.509v-0.896c-1.01-0.117-1.806-0.914-1.924-1.924h-0.895v-0.509h0.895
	c0.118-1.01,0.914-1.806,1.924-1.924v-0.895h0.509v0.895c1.01,0.118,1.806,0.914,1.924,1.924h0.896V24.054z"/>
<path fill="#FFFFFF" d="M214.596,22.13v0.503c0.461,0.102,0.812,0.451,0.913,0.912h0.502
	C215.901,22.813,215.327,22.241,214.596,22.13"/>
<path fill="#FFFFFF" d="M214.596,24.967v0.503c0.731-0.111,1.306-0.685,1.415-1.416h-0.502
	C215.407,24.516,215.057,24.864,214.596,24.967"/>
<path fill="#61A9C4" d="M238.966,16.583v5.771v1.324v0.842c0,1.984,1.623,3.605,3.604,3.605h7.125c1.981,0,3.604-1.621,3.604-3.605
	v-0.842v-1.324v-5.771H238.966z"/>
<path fill="#FFFFFF" d="M249.706,27.25h-7.146c-1.529,0-2.78-1.252-2.78-2.781v-1.833c0-1.529,1.251-2.78,2.78-2.78h7.146
	c1.53,0,2.781,1.251,2.781,2.78v1.833C252.487,25.998,251.236,27.25,249.706,27.25"/>
<path fill="#61A9C4" d="M244.924,23.493h0.364c0.074-0.334,0.327-0.587,0.661-0.661v-0.364
	C245.42,22.548,245.004,22.964,244.924,23.493"/>
<path fill="#61A9C4" d="M245.656,23.493h0.293V23.2C245.814,23.252,245.708,23.358,245.656,23.493"/>
<path fill="#61A9C4" d="M245.288,23.861h-0.364c0.08,0.529,0.496,0.945,1.025,1.025v-0.364
	C245.615,24.448,245.362,24.195,245.288,23.861"/>
<path fill="#61A9C4" d="M245.949,24.154v-0.293h-0.293C245.708,23.996,245.814,24.103,245.949,24.154"/>
<path fill="#61A9C4" d="M246.317,23.2v0.293h0.293C246.559,23.358,246.452,23.252,246.317,23.2"/>
<path fill="#61A9C4" d="M246.61,23.861h-0.293v0.293C246.452,24.103,246.559,23.996,246.61,23.861"/>
<path fill="#61A9C4" d="M246.317,22.468v0.364c0.334,0.074,0.587,0.327,0.661,0.661h0.364
	C247.263,22.964,246.847,22.548,246.317,22.468"/>
<path fill="#61A9C4" d="M246.317,24.522v0.364c0.53-0.08,0.945-0.496,1.025-1.025h-0.364
	C246.904,24.195,246.651,24.448,246.317,24.522"/>
<path fill="#61A9C4" d="M187.668,49.864h-2.375c-2.475,0-4.5-2.025-4.5-4.5v-4.625c0-2.476,2.025-4.5,4.5-4.5h2.375
	c2.475,0,4.5,2.024,4.5,4.5v4.625C192.168,47.839,190.143,49.864,187.668,49.864"/>
<path fill="#FFFFFF" d="M187.278,48.791h-1.596c-2.156,0-3.911-1.754-3.911-3.91v-5.231c0-2.155,1.755-3.91,3.911-3.91h1.596
	c2.156,0,3.91,1.755,3.91,3.91v5.231C191.188,47.037,189.435,48.791,187.278,48.791 M185.683,36.739
	c-1.605,0-2.911,1.306-2.911,2.91v5.231c0,1.604,1.306,2.91,2.911,2.91h1.596c1.605,0,2.91-1.307,2.91-2.91v-5.231
	c0-1.604-1.305-2.91-2.91-2.91H185.683z"/>
<path fill="#61A9C4" d="M191.73,36.542h-10.5c-0.619,0-1.125-0.506-1.125-1.125v-4.5c0-0.619,0.506-1.125,1.125-1.125h10.5
	c0.619,0,1.125,0.506,1.125,1.125v4.5C192.855,36.036,192.35,36.542,191.73,36.542"/>
<path fill="#61A9C4" d="M188.23,38.281h-3.5c-0.269,0-0.49-0.22-0.49-0.49v-2.5c0-0.269,0.221-0.488,0.49-0.488h3.5
	c0.269,0,0.49,0.22,0.49,0.488v2.5C188.721,38.062,188.5,38.281,188.23,38.281"/>
<path fill="#FFFFFF" d="M187.427,33.167c0,0.522-0.424,0.946-0.946,0.946c-0.523,0-0.947-0.424-0.947-0.946
	c0-0.523,0.424-0.946,0.947-0.946C187.003,32.221,187.427,32.644,187.427,33.167"/>
<rect x="105.901" y="222.509" fill="#B2D4DC" width="21.387" height="17.105"/>
<path fill="#FFFFFF" d="M110.219,236.71h6.103h0.772h8.604v-0.491h-7.052c0.311-0.218,0.57-0.5,0.769-0.825h6.283v-0.49h-6.047
	c0.094-0.261,0.152-0.536,0.162-0.825h5.885v-0.491h-5.875v-0.824h5.875v-0.492h-5.875v-0.823h5.875v-0.492h-5.875v-0.824h5.875
	v-0.491h-5.875v-0.824h5.875v-0.491h-5.875V227.5h5.875v-0.492h-5.885c-0.01-0.289-0.068-0.563-0.162-0.824h6.047v-0.491h-6.283
	c-0.199-0.324-0.458-0.607-0.769-0.824h7.052v-0.491h-8.604h-0.772h-6.103c-1.501,0-2.729,1.229-2.729,2.729v6.875
	C107.49,235.482,108.718,236.71,110.219,236.71"/>
<path fill="#61A9C4" d="M111.621,239.615h4.333v-2.905h-1.666v-2.842c0-0.155-0.127-0.281-0.282-0.281h-0.437
	c-0.155,0-0.281,0.126-0.281,0.281v2.842h-1.667V239.615z"/>
<path fill="#FFFFFF" d="M114.389,238.16c0-0.268,0.217-0.483,0.484-0.483c0.268,0,0.485,0.216,0.485,0.483
	c0,0.269-0.217,0.484-0.485,0.484C114.606,238.645,114.389,238.429,114.389,238.16"/>
<path fill="#FFFFFF" d="M112.217,238.16c0-0.268,0.217-0.483,0.484-0.483c0.268,0,0.485,0.216,0.485,0.483
	c0,0.269-0.217,0.484-0.485,0.484C112.434,238.645,112.217,238.429,112.217,238.16"/>
<rect x="85.617" y="236.711" fill="#B2D4DC" width="15.25" height="2.904"/>
<rect x="85.617" y="222.509" fill="#61A9C4" width="15.25" height="14.201"/>
<rect x="87.117" y="220.92" fill="#61A9C4" width="12.25" height="0.928"/>
<path fill="#FFFFFF" d="M89.909,230.833c1.327,0,2.406,1.08,2.406,2.406c0,1.327-1.079,2.406-2.406,2.406
	c-1.326,0-2.405-1.079-2.405-2.406C87.504,231.913,88.583,230.833,89.909,230.833 M89.909,234.896c0.913,0,1.656-0.743,1.656-1.656
	s-0.743-1.657-1.656-1.657s-1.655,0.744-1.655,1.657S88.996,234.896,89.909,234.896"/>
<path fill="#FFFFFF" d="M89.909,231.989c0.689,0,1.25,0.563,1.25,1.25c0,0.689-0.561,1.25-1.25,1.25s-1.25-0.561-1.25-1.25
	C88.659,232.552,89.22,231.989,89.909,231.989 M89.909,233.739c0.275,0,0.5-0.224,0.5-0.5s-0.225-0.5-0.5-0.5s-0.5,0.224-0.5,0.5
	S89.634,233.739,89.909,233.739"/>
<path fill="#FFFFFF" d="M89.909,225.26c0.908,0,1.646,0.739,1.646,1.646s-0.738,1.646-1.646,1.646c-0.907,0-1.646-0.738-1.646-1.646
	S89.001,225.26,89.909,225.26 M89.909,227.802c0.494,0,0.896-0.402,0.896-0.896c0-0.494-0.402-0.896-0.896-0.896
	s-0.896,0.402-0.896,0.896C89.013,227.399,89.415,227.802,89.909,227.802"/>
<path fill="#FFFFFF" d="M89.909,223.572c1.838,0,3.334,1.496,3.334,3.334c0,1.837-1.496,3.333-3.334,3.333s-3.333-1.496-3.333-3.333
	C86.576,225.068,88.071,223.572,89.909,223.572 M89.909,229.489c1.425,0,2.584-1.159,2.584-2.583c0-1.425-1.159-2.584-2.584-2.584
	c-1.424,0-2.583,1.159-2.583,2.584C87.326,228.33,88.485,229.489,89.909,229.489"/>
<path fill="#FFFFFF" d="M96.577,228.386c-1.327,0-2.406-1.081-2.406-2.407s1.079-2.405,2.406-2.405c1.326,0,2.405,1.079,2.405,2.405
	S97.903,228.386,96.577,228.386 M96.577,224.323c-0.913,0-1.656,0.742-1.656,1.655s0.743,1.657,1.656,1.657s1.655-0.744,1.655-1.657
	S97.49,224.323,96.577,224.323"/>
<path fill="#FFFFFF" d="M96.577,227.229c-0.689,0-1.25-0.561-1.25-1.25c0-0.688,0.561-1.25,1.25-1.25s1.25,0.562,1.25,1.25
	C97.827,226.668,97.266,227.229,96.577,227.229 M96.577,225.479c-0.275,0-0.5,0.224-0.5,0.5s0.225,0.5,0.5,0.5s0.5-0.224,0.5-0.5
	S96.852,225.479,96.577,225.479"/>
<path fill="#FFFFFF" d="M96.577,233.958c-0.908,0-1.646-0.739-1.646-1.646s0.738-1.646,1.646-1.646c0.907,0,1.646,0.738,1.646,1.646
	S97.483,233.958,96.577,233.958 M96.577,231.416c-0.494,0-0.896,0.402-0.896,0.896c0,0.494,0.402,0.896,0.896,0.896
	s0.896-0.402,0.896-0.896C97.473,231.818,97.071,231.416,96.577,231.416"/>
<path fill="#FFFFFF" d="M96.577,235.646c-1.838,0-3.334-1.496-3.334-3.334c0-1.837,1.496-3.333,3.334-3.333s3.333,1.496,3.333,3.333
	C99.91,234.149,98.415,235.646,96.577,235.646 M96.577,229.729c-1.425,0-2.584,1.159-2.584,2.583c0,1.425,1.159,2.584,2.584,2.584
	c1.424,0,2.583-1.159,2.583-2.584C99.16,230.888,98,229.729,96.577,229.729"/>
<rect x="95.012" y="221.848" fill="#B2D4DC" width="1.481" height="0.66"/>
<rect x="89.991" y="221.848" fill="#B2D4DC" width="1.481" height="0.66"/>
<rect x="51.721" y="222.509" fill="#B2D4DC" width="16.937" height="17.105"/>
<path fill="#61A9C4" d="M68.654,222.035c-0.015-0.615-0.398-1.115-0.87-1.115H52.597c-0.472,0-0.855,0.5-0.87,1.115H68.654z"/>
<rect x="68.654" y="222.51" fill="#D0EAF0" width="16.964" height="17.105"/>
<rect x="100.867" y="222.51" fill="#D0EAF0" width="5.033" height="17.105"/>
<rect x="127.288" y="210.999" fill="#2E2D4B" width="14.823" height="2.604"/>
<rect x="127.287" y="210.999" fill="#2E2D4B" width="2.603" height="29.917"/>
<rect x="128.365" y="221.199" fill="#2E2D4B" width="14.333" height="2.125"/>
<rect x="134.323" y="212.908" fill="#2E2D4B" width="1.583" height="8.75"/>
<rect x="129.89" y="213.603" fill="#9E9D9B" width="4.433" height="7.597"/>
<rect x="135.906" y="213.603" fill="#9E9D9B" width="4.959" height="7.597"/>
<rect x="129.89" y="223.335" fill="#9E9D9B" width="10.975" height="16.331"/>
<polygon fill="#D7D8D5" points="133.349,227.991 130.416,239.666 140.866,239.666 140.866,223.335 "/>
<path fill="#E3004F" d="M345.064,94.146h-34.249v-8.393L322.339,74.1c3.293-3.442,5.444-5.794,6.455-7.053
	c1.013-1.259,1.717-2.34,2.115-3.244c0.398-0.903,0.598-1.851,0.598-2.841c0-1.227-0.398-2.194-1.194-2.904
	c-0.797-0.711-1.916-1.065-3.357-1.065c-1.484,0-2.985,0.424-4.503,1.274c-1.517,0.851-3.233,2.104-5.148,3.761l-7.005-8.199
	c2.432-2.173,4.476-3.728,6.133-4.664c1.657-0.936,3.459-1.651,5.407-2.146c1.947-0.495,4.137-0.742,6.569-0.742
	c3.054,0,5.782,0.538,8.183,1.613c2.399,1.077,4.261,2.61,5.584,4.601c1.324,1.99,1.985,4.224,1.985,6.697
	c0,1.852-0.231,3.563-0.693,5.133c-0.464,1.571-1.179,3.115-2.147,4.632c-0.968,1.518-2.254,3.115-3.857,4.794
	s-5.02,4.863-10.248,9.555v0.322h17.851V94.146z"/>
<path fill="#2E2D4B" d="M360.332,51.892c0,0.987-0.302,1.834-0.904,2.542c-0.603,0.707-1.473,1.221-2.612,1.54v0.065
	c2.656,0.334,3.984,1.589,3.984,3.767c0,1.48-0.586,2.645-1.758,3.494c-1.173,0.849-2.8,1.273-4.883,1.273
	c-0.856,0-1.648-0.062-2.378-0.186c-0.729-0.123-1.519-0.348-2.368-0.675v-3.57c0.697,0.355,1.406,0.619,2.128,0.789
	c0.723,0.171,1.389,0.256,1.998,0.256c0.943,0,1.631-0.132,2.063-0.397c0.431-0.265,0.646-0.68,0.646-1.246
	c0-0.436-0.112-0.771-0.337-1.007c-0.226-0.235-0.588-0.414-1.089-0.533c-0.501-0.12-1.153-0.18-1.959-0.18h-0.979v-3.233h1.001
	c2.185,0,3.276-0.559,3.276-1.676c0-0.421-0.161-0.733-0.484-0.937c-0.322-0.203-0.756-0.305-1.301-0.305
	c-1.016,0-2.067,0.341-3.156,1.023l-1.784-2.874c0.841-0.58,1.702-0.995,2.584-1.241s1.893-0.37,3.031-0.37
	c1.647,0,2.939,0.327,3.876,0.979C359.863,49.845,360.332,50.745,360.332,51.892"/>
<path fill="#2E2D4B" d="M374.047,55.724c0,3.113-0.671,5.366-2.014,6.76s-3.49,2.09-6.444,2.09c-0.973,0-1.713-0.036-2.221-0.109
	v-3.406c0.624,0.115,1.248,0.174,1.873,0.174c1.538,0,2.725-0.317,3.56-0.951c0.834-0.637,1.288-1.64,1.36-3.012h-0.131
	c-0.283,0.522-0.563,0.9-0.838,1.133c-0.276,0.232-0.613,0.41-1.013,0.533s-0.896,0.185-1.491,0.185
	c-1.379,0-2.456-0.46-3.233-1.381c-0.776-0.923-1.164-2.192-1.164-3.812c0-1.763,0.502-3.146,1.508-4.146
	c1.005-1.002,2.382-1.503,4.131-1.503c1.944,0,3.45,0.646,4.518,1.938C373.514,51.507,374.047,53.343,374.047,55.724
	 M368.049,51.718c-0.472,0-0.854,0.17-1.147,0.511c-0.295,0.342-0.441,0.89-0.441,1.645c0,0.595,0.127,1.068,0.381,1.42
	c0.254,0.353,0.643,0.529,1.165,0.529c0.472,0,0.882-0.172,1.229-0.513c0.349-0.341,0.522-0.751,0.522-1.23
	c0-0.646-0.161-1.2-0.484-1.665C368.951,51.949,368.543,51.718,368.049,51.718"/>
<path fill="#2E2D4B" d="M380.197,61.101l0.152,0.25c-0.704,2.766-1.343,4.801-1.916,6.107h-3.037
	c0.211-1.002,0.423-2.125,0.637-3.369c0.215-1.244,0.361-2.24,0.441-2.988H380.197z"/>
<path fill="#2E2D4B" d="M393.881,64.355h-11.55v-2.83l3.886-3.93c1.11-1.161,1.836-1.954,2.178-2.379
	c0.34-0.424,0.578-0.789,0.713-1.094c0.134-0.305,0.201-0.624,0.201-0.958c0-0.413-0.135-0.74-0.403-0.979
	c-0.268-0.239-0.646-0.359-1.132-0.359c-0.5,0-1.007,0.144-1.519,0.43c-0.512,0.287-1.09,0.71-1.736,1.269l-2.361-2.765
	c0.819-0.733,1.509-1.258,2.068-1.573c0.559-0.315,1.166-0.557,1.823-0.724c0.656-0.167,1.396-0.251,2.215-0.251
	c1.03,0,1.95,0.182,2.76,0.545c0.809,0.362,1.437,0.88,1.882,1.551c0.447,0.671,0.671,1.425,0.671,2.259
	c0,0.624-0.078,1.201-0.234,1.73c-0.156,0.53-0.397,1.051-0.724,1.563c-0.327,0.512-0.761,1.051-1.301,1.616
	c-0.541,0.567-1.693,1.641-3.457,3.223v0.108h6.021V64.355z"/>
<path fill="#2E2D4B" d="M395.491,57.628c0-2.221,0.317-4.019,0.953-5.394c0.635-1.375,1.57-2.39,2.808-3.043
	c1.237-0.652,2.764-0.979,4.577-0.979c0.646,0,1.401,0.063,2.265,0.186v3.363c-0.726-0.138-1.513-0.207-2.362-0.207
	c-1.437,0-2.507,0.316-3.211,0.947c-0.704,0.632-1.089,1.662-1.153,3.092h0.13c0.653-1.233,1.702-1.851,3.146-1.851
	c1.415,0,2.513,0.455,3.293,1.366c0.779,0.91,1.17,2.179,1.17,3.805c0,1.749-0.494,3.129-1.48,4.142
	c-0.987,1.013-2.366,1.519-4.137,1.519c-1.88,0-3.349-0.609-4.408-1.829C396.021,61.525,395.491,59.82,395.491,57.628
	 M401.392,61.166c0.457,0,0.829-0.172,1.115-0.517c0.287-0.345,0.431-0.895,0.431-1.649c0-1.292-0.501-1.938-1.503-1.938
	c-0.493,0-0.895,0.167-1.202,0.5c-0.309,0.335-0.463,0.741-0.463,1.221c0,0.696,0.147,1.268,0.446,1.714
	C400.514,60.942,400.905,61.166,401.392,61.166"/>
<polygon fill="#2E2D4B" points="351.218,91.088 356.682,78.755 349.791,78.755 349.791,75.195 361.275,75.195 361.275,77.731 
	355.67,91.088 "/>
<path fill="#2E2D4B" d="M374.284,83.152c0,2.815-0.473,4.879-1.415,6.188c-0.944,1.31-2.388,1.965-4.333,1.965
	c-1.901,0-3.335-0.684-4.3-2.052s-1.447-3.402-1.447-6.102c0-2.83,0.472-4.905,1.415-6.227c0.943-1.32,2.387-1.981,4.332-1.981
	c1.895,0,3.325,0.688,4.295,2.063C373.8,78.383,374.284,80.431,374.284,83.152 M367.066,83.152c0,1.8,0.112,3.037,0.338,3.712
	c0.224,0.675,0.602,1.013,1.132,1.013c0.537,0,0.916-0.349,1.137-1.045c0.223-0.697,0.332-1.924,0.332-3.68
	c0-1.764-0.111-2.999-0.337-3.707c-0.225-0.707-0.603-1.061-1.132-1.061c-0.53,0-0.908,0.341-1.132,1.022
	C367.179,80.09,367.066,81.339,367.066,83.152"/>
<path fill="#2E2D4B" d="M380.488,87.833l0.152,0.25c-0.704,2.766-1.343,4.801-1.916,6.107h-3.037
	c0.211-1.003,0.423-2.125,0.637-3.369c0.215-1.244,0.361-2.24,0.441-2.988H380.488z"/>
<path fill="#2E2D4B" d="M388.532,74.944c1.677,0,2.981,0.338,3.914,1.013s1.398,1.633,1.398,2.874c0,0.842-0.22,1.58-0.658,2.215
	c-0.439,0.635-1.134,1.188-2.085,1.66c1.176,0.668,2.005,1.333,2.487,1.997s0.725,1.381,0.725,2.15c0,1.415-0.512,2.511-1.535,3.287
	s-2.453,1.165-4.289,1.165c-1.873,0-3.306-0.379-4.3-1.138c-0.994-0.758-1.491-1.849-1.491-3.271c0-0.921,0.222-1.707,0.664-2.356
	s1.187-1.239,2.231-1.769c-0.842-0.566-1.457-1.174-1.845-1.823c-0.389-0.649-0.583-1.362-0.583-2.14
	c0-1.219,0.476-2.168,1.427-2.846C385.543,75.284,386.856,74.944,388.532,74.944 M386.639,86.723c0,0.45,0.159,0.812,0.479,1.083
	c0.319,0.272,0.762,0.408,1.327,0.408c1.277,0,1.916-0.468,1.916-1.404c0-0.355-0.14-0.705-0.419-1.05s-0.778-0.731-1.497-1.159
	c-0.646,0.341-1.108,0.684-1.388,1.028S386.639,86.338,386.639,86.723 M388.511,78.047c-0.37,0-0.682,0.107-0.936,0.321
	s-0.381,0.491-0.381,0.833c0,0.624,0.424,1.176,1.273,1.654c0.515-0.298,0.867-0.569,1.056-0.816s0.283-0.526,0.283-0.838
	c0-0.349-0.127-0.628-0.381-0.839C389.172,78.152,388.866,78.047,388.511,78.047"/>
<path fill="#2E2D4B" d="M407.354,82.456c0,3.113-0.671,5.366-2.015,6.76c-1.342,1.394-3.489,2.09-6.443,2.09
	c-0.973,0-1.713-0.036-2.221-0.109V87.79c0.624,0.115,1.248,0.174,1.873,0.174c1.537,0,2.725-0.317,3.56-0.952
	c0.834-0.636,1.288-1.639,1.36-3.011h-0.131c-0.283,0.522-0.563,0.9-0.838,1.133c-0.276,0.232-0.613,0.41-1.013,0.533
	s-0.897,0.185-1.491,0.185c-1.379,0-2.456-0.46-3.233-1.382c-0.776-0.922-1.164-2.191-1.164-3.811c0-1.763,0.502-3.146,1.508-4.147
	c1.005-1.001,2.382-1.502,4.131-1.502c1.944,0,3.45,0.646,4.517,1.938C406.82,78.239,407.354,80.075,407.354,82.456 M401.355,78.45
	c-0.472,0-0.854,0.17-1.148,0.511c-0.294,0.342-0.44,0.89-0.44,1.645c0,0.595,0.127,1.068,0.381,1.42
	c0.254,0.353,0.643,0.528,1.165,0.528c0.472,0,0.882-0.171,1.229-0.512c0.349-0.341,0.522-0.751,0.522-1.23
	c0-0.646-0.161-1.2-0.484-1.665C402.258,78.682,401.85,78.45,401.355,78.45"/>
<rect x="349.943" y="69.748" fill="#2E2D4B" width="58.897" height="1.775"/>
<path fill="#2E2D4B" d="M282.102,30.792h-7.526v-1.845l2.532-2.561c0.723-0.757,1.196-1.273,1.419-1.55s0.377-0.515,0.465-0.713
	c0.087-0.198,0.131-0.406,0.131-0.624c0-0.27-0.087-0.482-0.263-0.639c-0.175-0.156-0.421-0.234-0.737-0.234
	c-0.326,0-0.656,0.094-0.989,0.28c-0.334,0.188-0.711,0.463-1.132,0.826l-1.539-1.802c0.534-0.478,0.983-0.819,1.348-1.024
	c0.364-0.206,0.76-0.363,1.188-0.472c0.429-0.109,0.91-0.163,1.444-0.163c0.671,0,1.271,0.118,1.798,0.354s0.937,0.573,1.228,1.011
	s0.437,0.928,0.437,1.472c0,0.407-0.051,0.783-0.152,1.128c-0.103,0.346-0.26,0.685-0.473,1.019
	c-0.212,0.333-0.495,0.685-0.848,1.053c-0.352,0.369-1.103,1.069-2.252,2.1v0.07h3.923V30.792z"/>
<path fill="#2E2D4B" d="M289.338,30.792h-2.845v-5.49c0-0.667,0.014-1.277,0.042-1.83c-0.175,0.213-0.393,0.435-0.652,0.666
	l-1.178,0.973l-1.454-1.788l3.562-2.901h2.525V30.792z"/>
<path fill="#2E2D4B" d="M294.7,28.671l0.1,0.163c-0.459,1.802-0.875,3.129-1.248,3.979h-1.979c0.137-0.652,0.274-1.384,0.415-2.195
	c0.14-0.811,0.234-1.46,0.287-1.947H294.7z"/>
<path fill="#2E2D4B" d="M300.368,23.996c0.596,0,1.134,0.139,1.614,0.415c0.479,0.276,0.854,0.668,1.12,1.174
	c0.268,0.507,0.401,1.091,0.401,1.752c0,1.159-0.349,2.048-1.047,2.668c-0.697,0.619-1.753,0.929-3.167,0.929
	c-1.211,0-2.199-0.187-2.965-0.561v-2.298c0.411,0.189,0.876,0.345,1.394,0.468s0.964,0.185,1.337,0.185
	c0.521,0,0.92-0.109,1.199-0.33c0.279-0.22,0.419-0.545,0.419-0.975c0-0.397-0.143-0.707-0.426-0.93
	c-0.284-0.222-0.715-0.333-1.291-0.333c-0.44,0-0.915,0.082-1.426,0.248l-1.029-0.511l0.391-5.477h5.915v2.334h-3.531l-0.128,1.369
	c0.369-0.071,0.631-0.11,0.787-0.117S300.236,23.996,300.368,23.996"/>
<path fill="#2E2D4B" d="M311.782,22.67c0,0.643-0.196,1.195-0.589,1.656c-0.392,0.461-0.96,0.796-1.702,1.004v0.042
	c1.73,0.218,2.596,1.036,2.596,2.455c0,0.965-0.382,1.724-1.146,2.276c-0.763,0.554-1.824,0.83-3.181,0.83
	c-0.559,0-1.075-0.04-1.551-0.12c-0.475-0.081-0.989-0.228-1.543-0.44v-2.326c0.454,0.231,0.917,0.403,1.388,0.515
	c0.47,0.11,0.904,0.166,1.301,0.166c0.615,0,1.063-0.086,1.345-0.259s0.422-0.443,0.422-0.813c0-0.283-0.073-0.502-0.22-0.656
	c-0.146-0.153-0.383-0.27-0.709-0.347c-0.327-0.078-0.752-0.117-1.277-0.117h-0.639v-2.107h0.653c1.423,0,2.135-0.364,2.135-1.092
	c0-0.274-0.105-0.478-0.315-0.61c-0.211-0.133-0.493-0.198-0.848-0.198c-0.662,0-1.348,0.222-2.057,0.666l-1.164-1.872
	c0.549-0.379,1.11-0.648,1.685-0.809c0.575-0.161,1.233-0.241,1.977-0.241c1.072,0,1.914,0.213,2.524,0.638
	C311.478,21.336,311.782,21.923,311.782,22.67"/>
<path fill="#2E2D4B" d="M180.469,64.484h-6.317v-1.549l2.125-2.148c0.608-0.637,1.004-1.07,1.191-1.301
	c0.187-0.232,0.316-0.434,0.39-0.6c0.073-0.166,0.11-0.342,0.11-0.523c0-0.227-0.073-0.404-0.22-0.535
	c-0.147-0.133-0.354-0.197-0.619-0.197c-0.274,0-0.551,0.078-0.831,0.234c-0.28,0.158-0.597,0.389-0.95,0.693l-1.292-1.511
	c0.449-0.401,0.826-0.688,1.132-0.86c0.305-0.174,0.637-0.305,0.997-0.396c0.359-0.092,0.763-0.137,1.212-0.137
	c0.563,0,1.066,0.1,1.509,0.297c0.442,0.199,0.786,0.482,1.03,0.85c0.244,0.367,0.366,0.779,0.366,1.234
	c0,0.342-0.042,0.658-0.128,0.947c-0.085,0.289-0.217,0.574-0.396,0.854c-0.179,0.281-0.415,0.576-0.711,0.885
	c-0.296,0.311-0.926,0.896-1.891,1.762v0.061h3.293V64.484z"/>
<path fill="#2E2D4B" d="M183.898,62.703l0.083,0.137c-0.385,1.514-0.734,2.627-1.048,3.342h-1.661
	c0.115-0.549,0.231-1.162,0.348-1.844c0.117-0.68,0.198-1.225,0.241-1.635H183.898z"/>
<path fill="#2E2D4B" d="M191.419,60.143c0,1.541-0.259,2.67-0.774,3.385c-0.516,0.717-1.306,1.076-2.37,1.076
	c-1.04,0-1.824-0.375-2.352-1.123c-0.528-0.748-0.792-1.861-0.792-3.338c0-1.547,0.258-2.682,0.774-3.404s1.306-1.084,2.37-1.084
	c1.036,0,1.819,0.375,2.349,1.127C191.154,57.535,191.419,58.654,191.419,60.143 M187.471,60.143c0,0.984,0.062,1.662,0.185,2.031
	s0.329,0.553,0.619,0.553c0.294,0,0.501-0.189,0.622-0.57c0.121-0.381,0.182-1.053,0.182-2.014c0-0.963-0.062-1.639-0.185-2.027
	c-0.123-0.387-0.329-0.58-0.619-0.58c-0.29,0-0.496,0.188-0.619,0.561S187.471,59.15,187.471,60.143"/>
<path fill="#2E2D4B" d="M198.563,60.143c0,1.541-0.259,2.67-0.774,3.385c-0.516,0.717-1.306,1.076-2.37,1.076
	c-1.04,0-1.824-0.375-2.352-1.123c-0.528-0.748-0.792-1.861-0.792-3.338c0-1.547,0.258-2.682,0.774-3.404
	c0.516-0.723,1.306-1.084,2.37-1.084c1.036,0,1.819,0.375,2.349,1.127C198.299,57.535,198.563,58.654,198.563,60.143
	 M194.616,60.143c0,0.984,0.062,1.662,0.185,2.031s0.329,0.553,0.619,0.553c0.294,0,0.501-0.189,0.622-0.57
	c0.121-0.381,0.182-1.053,0.182-2.014c0-0.963-0.062-1.639-0.185-2.027c-0.123-0.387-0.329-0.58-0.619-0.58
	c-0.29,0-0.496,0.188-0.619,0.561S194.616,59.15,194.616,60.143"/>
<path fill="#2E2D4B" d="M235.212,63.017h-0.959v1.685h-2.322v-1.685h-3.471v-1.728l3.619-5.293h2.174v5.264h0.959V63.017z
	 M231.931,61.26v-1.013c0-0.19,0.007-0.447,0.021-0.771c0.014-0.323,0.023-0.493,0.032-0.509h-0.065
	c-0.135,0.306-0.288,0.591-0.459,0.857l-0.965,1.435H231.931z"/>
<path fill="#2E2D4B" d="M238.361,62.921l0.083,0.137c-0.385,1.513-0.734,2.626-1.048,3.341h-1.661
	c0.115-0.548,0.23-1.162,0.348-1.843s0.198-1.226,0.241-1.635H238.361z"/>
<path fill="#2E2D4B" d="M244.773,64.701h-2.388v-4.608c0-0.56,0.012-1.072,0.036-1.536c-0.147,0.179-0.33,0.365-0.548,0.56
	l-0.988,0.815l-1.221-1.5l2.989-2.436h2.119V64.701z"/>
<polygon fill="#2E2D4B" points="247.555,64.701 250.543,57.955 246.774,57.955 246.774,56.008 253.056,56.008 253.056,57.396 
	249.989,64.701 "/>
<path fill="#2E2D4B" d="M204.859,97.76c1.092,0,1.942,0.219,2.55,0.658c0.607,0.44,0.912,1.064,0.912,1.873
	c0,0.549-0.143,1.029-0.43,1.443c-0.285,0.414-0.738,0.775-1.358,1.082c0.767,0.435,1.306,0.869,1.621,1.302
	c0.313,0.434,0.471,0.899,0.471,1.4c0,0.923-0.333,1.637-1,2.143s-1.598,0.759-2.795,0.759c-1.219,0-2.153-0.247-2.801-0.741
	c-0.648-0.494-0.972-1.204-0.972-2.132c0-0.601,0.144-1.112,0.433-1.535c0.288-0.424,0.772-0.808,1.454-1.153
	c-0.549-0.368-0.95-0.765-1.203-1.188c-0.252-0.424-0.379-0.888-0.379-1.395c0-0.794,0.309-1.412,0.929-1.854
	C202.91,97.979,203.767,97.76,204.859,97.76 M203.624,105.434c0,0.294,0.105,0.528,0.313,0.706c0.209,0.178,0.498,0.266,0.865,0.266
	c0.834,0,1.25-0.305,1.25-0.915c0-0.23-0.093-0.46-0.273-0.685c-0.182-0.225-0.508-0.476-0.977-0.754
	c-0.421,0.221-0.723,0.444-0.904,0.669S203.624,105.184,203.624,105.434 M204.845,99.78c-0.24,0-0.443,0.069-0.609,0.209
	c-0.165,0.14-0.248,0.32-0.248,0.543c0,0.406,0.275,0.766,0.83,1.078c0.336-0.194,0.563-0.371,0.687-0.532
	c0.123-0.16,0.185-0.343,0.185-0.546c0-0.228-0.082-0.409-0.248-0.546C205.275,99.849,205.076,99.78,204.845,99.78"/>
<path fill="#2E2D4B" d="M212.62,106.157l0.1,0.163c-0.459,1.802-0.875,3.129-1.248,3.979h-1.98c0.138-0.652,0.275-1.384,0.416-2.195
	c0.14-0.811,0.234-1.46,0.287-1.947H212.62z"/>
<path fill="#2E2D4B" d="M221.188,100.156c0,0.643-0.195,1.195-0.588,1.656s-0.961,0.796-1.703,1.004v0.042
	c1.73,0.218,2.597,1.036,2.597,2.455c0,0.965-0.382,1.724-1.146,2.276c-0.764,0.554-1.824,0.83-3.181,0.83
	c-0.56,0-1.076-0.04-1.551-0.119c-0.476-0.081-0.99-0.229-1.544-0.441v-2.326c0.455,0.231,0.918,0.403,1.388,0.515
	c0.47,0.11,0.905,0.166,1.301,0.166c0.615,0,1.064-0.086,1.345-0.259c0.281-0.173,0.422-0.443,0.422-0.813
	c0-0.283-0.072-0.502-0.219-0.656c-0.146-0.153-0.384-0.27-0.709-0.347c-0.328-0.078-0.752-0.117-1.277-0.117h-0.639v-2.107h0.652
	c1.423,0,2.135-0.363,2.135-1.092c0-0.274-0.104-0.478-0.314-0.61c-0.211-0.133-0.493-0.198-0.848-0.198
	c-0.662,0-1.349,0.222-2.058,0.666l-1.164-1.872c0.549-0.379,1.11-0.648,1.685-0.809c0.576-0.161,1.233-0.24,1.977-0.24
	c1.072,0,1.915,0.212,2.525,0.637C220.884,98.822,221.188,99.409,221.188,100.156"/>
<path fill="#2E2D4B" d="M226.8,101.482c0.597,0,1.135,0.139,1.614,0.415c0.48,0.276,0.854,0.668,1.12,1.174
	c0.268,0.507,0.402,1.091,0.402,1.752c0,1.159-0.35,2.048-1.047,2.668c-0.697,0.619-1.754,0.928-3.168,0.928
	c-1.211,0-2.198-0.186-2.965-0.56v-2.298c0.412,0.189,0.877,0.345,1.395,0.468s0.963,0.185,1.337,0.185
	c0.521,0,0.919-0.109,1.199-0.33c0.278-0.22,0.419-0.545,0.419-0.975c0-0.397-0.143-0.707-0.426-0.93
	c-0.284-0.222-0.715-0.333-1.291-0.333c-0.441,0-0.916,0.082-1.426,0.248l-1.029-0.511l0.39-5.477h5.916v2.334h-3.532l-0.128,1.369
	c0.369-0.071,0.632-0.11,0.787-0.117C226.524,101.486,226.669,101.482,226.8,101.482"/>
<path fill="#2E2D4B" d="M28.343,32.004h-2.845v-5.49c0-0.667,0.014-1.277,0.042-1.83c-0.175,0.213-0.392,0.435-0.652,0.666
	l-1.178,0.973l-1.454-1.788l3.562-2.901h2.525V32.004z"/>
<polygon fill="#2E2D4B" points="31.656,32.004 35.218,23.967 30.727,23.967 30.727,21.647 38.211,21.647 38.211,23.3 34.557,32.004 
	"/>
<path fill="#2E2D4B" d="M42.218,29.883l0.1,0.163c-0.459,1.802-0.875,3.129-1.248,3.979h-1.98c0.137-0.652,0.275-1.384,0.415-2.195
	c0.14-0.811,0.235-1.46,0.287-1.947H42.218z"/>
<polygon fill="#2E2D4B" points="44.659,32.004 48.221,23.967 43.729,23.967 43.729,21.647 51.214,21.647 51.214,23.3 47.56,32.004 
	"/>
<path fill="#2E2D4B" d="M59.3,23.882c0,0.644-0.196,1.195-0.589,1.656c-0.392,0.461-0.96,0.796-1.702,1.004v0.042
	c1.73,0.218,2.596,1.036,2.596,2.455c0,0.965-0.382,1.724-1.146,2.276c-0.763,0.554-1.824,0.83-3.18,0.83
	c-0.559,0-1.076-0.04-1.551-0.119c-0.475-0.081-0.99-0.229-1.543-0.441v-2.326c0.454,0.231,0.917,0.403,1.387,0.515
	c0.47,0.11,0.905,0.166,1.301,0.166c0.615,0,1.064-0.086,1.345-0.259s0.422-0.443,0.422-0.813c0-0.283-0.073-0.502-0.22-0.656
	c-0.146-0.153-0.383-0.269-0.709-0.347c-0.327-0.078-0.752-0.117-1.277-0.117h-0.639v-2.107h0.653c1.423,0,2.135-0.363,2.135-1.092
	c0-0.273-0.104-0.478-0.315-0.61c-0.211-0.133-0.493-0.198-0.848-0.198c-0.662,0-1.348,0.222-2.057,0.666l-1.164-1.872
	c0.549-0.379,1.111-0.648,1.685-0.809c0.575-0.161,1.233-0.24,1.976-0.24c1.073,0,1.915,0.212,2.525,0.637
	C58.995,22.548,59.3,23.135,59.3,23.882"/>
<path fill="#2E2D4B" d="M60.78,127.563h-2.845v-5.49c0-0.667,0.014-1.277,0.042-1.83c-0.175,0.213-0.392,0.435-0.652,0.666
	l-1.178,0.973l-1.454-1.788l3.562-2.901h2.525V127.563z"/>
<path fill="#2E2D4B" d="M70.902,125.555h-1.141v2.008h-2.767v-2.008h-4.136v-2.057l4.314-6.308h2.589v6.271h1.141V125.555z
	 M66.994,123.462v-1.205c0-0.228,0.008-0.533,0.024-0.919c0.017-0.386,0.031-0.588,0.039-0.606H66.98
	c-0.161,0.364-0.343,0.705-0.547,1.021l-1.149,1.709H66.994z"/>
<path fill="#2E2D4B" d="M74.655,125.441l0.1,0.163c-0.459,1.802-0.875,3.129-1.248,3.979h-1.98c0.137-0.652,0.275-1.384,0.415-2.195
	c0.14-0.811,0.235-1.46,0.287-1.947H74.655z"/>
<polygon fill="#2E2D4B" points="77.096,127.563 80.658,119.525 76.167,119.525 76.167,117.206 83.651,117.206 83.651,118.858 
	79.997,127.563 "/>
<path fill="#2E2D4B" d="M92.085,127.563h-7.526v-1.845l2.532-2.561c0.723-0.757,1.196-1.273,1.419-1.55
	c0.222-0.276,0.377-0.515,0.465-0.713c0.087-0.198,0.131-0.406,0.131-0.624c0-0.271-0.087-0.482-0.263-0.639
	c-0.175-0.156-0.421-0.234-0.737-0.234c-0.327,0-0.657,0.094-0.99,0.28c-0.334,0.188-0.711,0.463-1.132,0.826l-1.539-1.802
	c0.535-0.478,0.984-0.819,1.348-1.024c0.364-0.206,0.76-0.363,1.188-0.472c0.428-0.109,0.91-0.163,1.444-0.163
	c0.671,0,1.27,0.118,1.798,0.354c0.527,0.236,0.937,0.573,1.228,1.011c0.291,0.438,0.437,0.928,0.437,1.472
	c0,0.407-0.051,0.783-0.153,1.128c-0.102,0.346-0.259,0.685-0.472,1.019c-0.212,0.333-0.495,0.685-0.848,1.053
	c-0.351,0.369-1.102,1.069-2.252,2.1v0.07h3.923V127.563z"/>
<path fill="#2E2D4B" d="M13.125,136.029h-1.141v2.008H9.217v-2.008H5.081v-2.057l4.314-6.308h2.589v6.271h1.141V136.029z
	 M9.217,133.937v-1.205c0-0.228,0.008-0.533,0.024-0.919c0.017-0.386,0.031-0.588,0.039-0.606H9.203
	c-0.161,0.364-0.343,0.705-0.547,1.021l-1.149,1.709H9.217z"/>
<path fill="#2E2D4B" d="M16.878,135.916l0.1,0.163c-0.459,1.802-0.875,3.129-1.248,3.979h-1.98c0.137-0.652,0.275-1.384,0.415-2.195
	c0.14-0.811,0.235-1.46,0.287-1.947H16.878z"/>
<polygon fill="#2E2D4B" points="19.318,138.037 22.88,130 18.389,130 18.389,127.681 25.874,127.681 25.874,129.333 22.219,138.037 
	"/>
<path fill="#2E2D4B" d="M30.633,127.519c1.092,0,1.942,0.219,2.55,0.658c0.608,0.44,0.912,1.064,0.912,1.873
	c0,0.549-0.143,1.029-0.429,1.443c-0.286,0.414-0.739,0.775-1.359,1.082c0.766,0.435,1.306,0.869,1.621,1.302
	c0.314,0.434,0.471,0.899,0.471,1.4c0,0.923-0.333,1.637-1,2.143s-1.598,0.759-2.795,0.759c-1.219,0-2.154-0.247-2.801-0.741
	c-0.648-0.494-0.972-1.204-0.972-2.132c0-0.601,0.144-1.112,0.433-1.535c0.288-0.424,0.773-0.808,1.454-1.153
	c-0.549-0.368-0.95-0.765-1.203-1.188c-0.252-0.424-0.379-0.888-0.379-1.395c0-0.794,0.309-1.412,0.929-1.854
	C28.684,127.738,29.541,127.519,30.633,127.519 M29.398,135.192c0,0.294,0.104,0.528,0.313,0.706s0.497,0.266,0.865,0.266
	c0.833,0,1.249-0.305,1.249-0.915c0-0.23-0.092-0.46-0.273-0.685c-0.182-0.225-0.507-0.476-0.976-0.754
	c-0.421,0.221-0.723,0.444-0.904,0.669C29.49,134.704,29.398,134.942,29.398,135.192 M30.619,129.539
	c-0.241,0-0.444,0.069-0.61,0.209c-0.165,0.14-0.248,0.32-0.248,0.543c0,0.406,0.276,0.766,0.83,1.078
	c0.336-0.194,0.564-0.371,0.687-0.532c0.123-0.16,0.185-0.343,0.185-0.546c0-0.228-0.083-0.409-0.248-0.546
	C31.049,129.607,30.85,129.539,30.619,129.539"/>
</svg>
