<?xml version="1.0" encoding="utf-8"?>
<!-- Generator: Adobe Illustrator 16.0.0, SVG Export Plug-In . SVG Version: 6.00 Build 0)  -->
<!DOCTYPE svg PUBLIC "-//W3C//DTD SVG 1.1//EN" "http://www.w3.org/Graphics/SVG/1.1/DTD/svg11.dtd">
<svg version="1.1" id="Слой_1" xmlns="http://www.w3.org/2000/svg" xmlns:xlink="http://www.w3.org/1999/xlink" x="0px" y="0px"
	 width="306.551px" height="375.083px" viewBox="0 0 306.551 375.083" enable-background="new 0 0 306.551 375.083"
	 xml:space="preserve">
<polygon fill="#D0EAF0" points="227.043,108.557 227.043,109.438 238.801,109.438 238.801,101.557 "/>
<polygon fill="#FFFFFF" points="238.66,101.64 238.66,109.297 227.184,109.297 227.184,108.473 226.902,108.641 226.902,109.58 
	238.942,109.58 238.942,101.472 "/>
<polygon fill="#D0EAF0" points="245.312,97.68 239.084,101.388 239.084,109.438 250.84,109.438 250.84,97.68 "/>
<polygon fill="#FFFFFF" points="245.549,97.54 245.074,97.823 250.701,97.823 250.701,109.299 239.225,109.299 239.225,101.305 
	238.941,101.474 238.941,109.581 250.982,109.581 250.982,97.54 "/>
<rect x="251.123" y="97.681" fill="#D0EAF0" width="11.758" height="11.758"/>
<path fill="#FFFFFF" d="M251.264,97.822h11.477v11.476h-11.477V97.822z M250.982,109.581h12.04V97.54h-12.04V109.581z"/>
<rect x="263.221" y="97.681" fill="#D0EAF0" width="11.759" height="11.758"/>
<path fill="#FFFFFF" d="M263.364,97.822h11.476v11.476h-11.476V97.822z M263.08,109.581h12.04V97.54h-12.04V109.581z"/>
<polygon fill="#D0EAF0" points="275.262,97.68 275.262,109.438 285.842,109.438 278.277,97.68 "/>
<polygon fill="#FFFFFF" points="275.121,97.54 275.121,109.581 285.934,109.581 285.751,109.299 275.404,109.299 275.404,97.823 
	278.368,97.823 278.186,97.54 "/>
<polygon fill="#D0EAF0" points="245.786,97.397 250.842,97.397 250.842,94.388 "/>
<polygon fill="#FFFFFF" points="250.7,94.471 250.7,97.257 246.021,97.257 245.549,97.538 250.982,97.538 250.982,94.303 "/>
<polygon fill="#D0EAF0" points="251.123,94.22 251.123,97.398 262.881,97.398 262.881,87.219 "/>
<polygon fill="#FFFFFF" points="262.74,87.303 262.74,97.257 251.265,97.257 251.265,94.136 250.982,94.304 250.982,97.539 
	263.023,97.539 263.023,87.135 "/>
<polygon fill="#D0EAF0" points="265.534,85.64 263.223,87.016 263.223,97.398 274.98,97.398 274.98,92.557 270.531,85.64 "/>
<path fill="#FFFFFF" d="M263.08,87.101v10.438h12.041v-4.764l-0.281-0.438v4.921h-11.477V86.933L263.08,87.101z M265.771,85.499
	l-0.475,0.283h5.324l-0.182-0.283H265.771z"/>
<polygon fill="#D0EAF0" points="275.262,97.397 278.096,97.397 275.262,92.995 "/>
<polygon fill="#FFFFFF" points="275.121,97.54 278.186,97.54 278.005,97.258 275.404,97.258 275.404,93.215 275.121,92.776 "/>
<polygon fill="#D0EAF0" points="227.043,109.72 227.043,112.141 232.154,121.478 238.801,121.478 238.801,109.72 "/>
<polygon fill="#FFFFFF" points="226.902,109.581 226.902,111.884 227.186,112.399 227.186,109.863 238.66,109.863 238.66,121.338 
	232.076,121.338 232.232,121.62 238.941,121.62 238.941,109.581 "/>
<rect x="239.082" y="109.721" fill="#D0EAF0" width="11.758" height="11.758"/>
<path fill="#FFFFFF" d="M239.225,109.863H250.7v11.476h-11.476V109.863z M238.942,121.619h12.04V109.58h-12.04V121.619z"/>
<rect x="251.123" y="109.721" fill="#D0EAF0" width="11.758" height="11.758"/>
<path fill="#FFFFFF" d="M251.264,109.863h11.477v11.476h-11.477V109.863z M250.982,121.619h12.04V109.58h-12.04V121.619z"/>
<rect x="263.221" y="109.721" fill="#D0EAF0" width="11.759" height="11.758"/>
<path fill="#FFFFFF" d="M263.364,109.863h11.476v11.476h-11.476V109.863z M263.08,121.619h12.04V109.58h-12.04V121.619z"/>
<polygon fill="#D0EAF0" points="275.262,109.72 275.262,121.478 287.021,121.478 287.021,111.27 286.023,109.72 "/>
<polygon fill="#FFFFFF" points="275.121,109.581 275.121,121.62 287.161,121.62 287.161,111.49 286.879,111.052 286.879,121.338 
	275.404,121.338 275.404,109.863 286.114,109.863 285.934,109.581 "/>
<polygon fill="#D0EAF0" points="287.303,121.479 293.588,121.479 287.303,111.708 "/>
<polygon fill="#FFFFFF" points="287.161,121.619 293.68,121.619 293.497,121.337 287.444,121.337 287.444,111.928 287.161,111.489 
	"/>
<polygon fill="#D0EAF0" points="232.303,121.75 238.738,133.507 238.801,133.507 238.801,121.75 "/>
<polygon fill="#FFFFFF" points="232.225,121.607 232.38,121.89 238.66,121.89 238.66,133.363 238.816,133.647 238.941,133.647 
	238.941,121.607 "/>
<rect x="239.082" y="121.75" fill="#D0EAF0" width="11.758" height="11.757"/>
<path fill="#FFFFFF" d="M239.225,121.89H250.7v11.476h-11.476V121.89z M238.942,133.649h12.04v-12.04h-12.04V133.649z"/>
<rect x="251.123" y="121.75" fill="#D0EAF0" width="11.758" height="11.757"/>
<path fill="#FFFFFF" d="M251.264,121.89h11.477v11.476h-11.477V121.89z M250.982,133.649h12.04v-12.04h-12.04V133.649z"/>
<rect x="263.221" y="121.75" fill="#D0EAF0" width="11.759" height="11.757"/>
<path fill="#FFFFFF" d="M263.364,121.89h11.476v11.476h-11.476V121.89z M263.08,133.649h12.04v-12.04h-12.04V133.649z"/>
<rect x="275.262" y="121.75" fill="#D0EAF0" width="11.76" height="11.757"/>
<path fill="#FFFFFF" d="M275.404,121.89h11.477v11.476h-11.477V121.89z M275.12,133.649h12.04v-12.04h-12.04V133.649z"/>
<polygon fill="#D0EAF0" points="287.303,121.75 287.303,133.507 298.07,133.507 299.061,132.873 299.061,129.984 293.763,121.75 "/>
<path fill="#FFFFFF" d="M298.92,132.962l0.281-0.181v-2.578l-0.281-0.438V132.962z M287.161,121.607v12.04h10.688l0.439-0.281
	h-10.845V121.89h6.409l-0.183-0.283H287.161z"/>
<polygon fill="#FFFFFF" points="238.815,133.648 238.941,133.879 238.941,133.648 "/>
<polygon fill="#D0EAF0" points="239.083,133.79 239.083,134.138 245.329,145.549 250.841,145.549 250.841,133.79 "/>
<polygon fill="#FFFFFF" points="238.941,133.648 238.941,133.879 239.225,134.396 239.225,133.932 250.701,133.932 250.701,145.407 
	245.252,145.407 245.406,145.688 250.982,145.688 250.982,133.648 "/>
<rect x="251.123" y="133.789" fill="#D0EAF0" width="11.758" height="11.759"/>
<path fill="#FFFFFF" d="M251.264,133.93h11.477v11.476h-11.477V133.93z M250.982,145.689h12.04v-12.04h-12.04V145.689z"/>
<rect x="263.221" y="133.789" fill="#D0EAF0" width="11.759" height="11.759"/>
<path fill="#FFFFFF" d="M263.364,133.93h11.476v11.476h-11.476V133.93z M263.08,145.689h12.04v-12.04h-12.04V145.689z"/>
<polygon fill="#D0EAF0" points="275.262,133.79 275.262,145.549 279.287,145.549 287.021,140.591 287.021,133.79 "/>
<polygon fill="#FFFFFF" points="275.121,133.648 275.121,145.688 279.068,145.688 279.508,145.407 275.404,145.407 275.404,133.932 
	286.879,133.932 286.879,140.682 287.161,140.5 287.161,133.648 "/>
<polygon fill="#D0EAF0" points="287.303,133.79 287.303,140.41 297.63,133.79 "/>
<polygon fill="#FFFFFF" points="287.161,133.648 287.161,140.5 287.444,140.319 287.444,133.932 297.409,133.932 297.85,133.648 "/>
<polygon fill="#D0EAF0" points="245.445,145.758 250.841,155.617 250.841,145.758 "/>
<polygon fill="#FFFFFF" points="245.367,145.617 245.521,145.9 250.7,145.9 250.7,155.36 250.982,155.875 250.982,145.617 "/>
<polygon fill="#D0EAF0" points="251.123,145.758 251.123,156.133 251.565,156.94 261.516,156.94 262.881,156.064 262.881,145.758 
	"/>
<path fill="#FFFFFF" d="M251.488,156.799l0.154,0.283h9.652l0.439-0.283H251.488z M250.982,145.617v10.258l0.283,0.516V145.9h11.475
	v10.255l0.281-0.181v-10.358H250.982z"/>
<polygon fill="#D0EAF0" points="263.223,145.758 263.223,155.846 274.98,148.308 274.98,145.758 "/>
<polygon fill="#FFFFFF" points="263.081,145.617 263.081,155.937 263.364,155.756 263.364,145.9 274.839,145.9 274.839,148.399 
	275.121,148.219 275.121,145.617 "/>
<polygon fill="#D0EAF0" points="275.262,145.758 275.262,148.128 278.959,145.758 "/>
<polygon fill="#FFFFFF" points="275.121,145.617 275.121,148.219 275.404,148.039 275.404,145.9 278.739,145.9 279.18,145.617 "/>
<rect x="165.781" y="325.13" fill="#D0EAF0" width="10.417" height="10.416"/>
<path fill="#FFFFFF" d="M176.073,335.421h-10.167v-10.168h10.167V335.421z M176.323,325.005h-10.667v10.666h10.667V325.005z"/>
<rect x="176.448" y="325.13" fill="#D0EAF0" width="10.417" height="10.416"/>
<path fill="#FFFFFF" d="M186.739,335.421h-10.167v-10.168h10.167V335.421z M186.989,325.005h-10.667v10.666h10.667V325.005z"/>
<rect x="187.114" y="325.13" fill="#D0EAF0" width="10.417" height="10.416"/>
<path fill="#FFFFFF" d="M197.406,335.421h-10.167v-10.168h10.167V335.421z M197.656,325.005h-10.667v10.666h10.667V325.005z"/>
<rect x="197.832" y="325.13" fill="#D0EAF0" width="10.417" height="10.416"/>
<path fill="#FFFFFF" d="M208.124,335.421h-10.167v-10.168h10.167V335.421z M208.374,325.005h-10.667v10.666h10.667V325.005z"/>
<rect x="208.499" y="325.13" fill="#D0EAF0" width="10.417" height="10.416"/>
<path fill="#FFFFFF" d="M218.79,335.421h-10.167v-10.168h10.167V335.421z M219.04,325.005h-10.667v10.666h10.667V325.005z"/>
<rect x="165.781" y="314.462" fill="#D0EAF0" width="10.417" height="10.418"/>
<path fill="#FFFFFF" d="M176.073,324.755h-10.167v-10.168h10.167V324.755z M176.323,314.337h-10.667v10.668h10.667V314.337z"/>
<rect x="176.448" y="314.462" fill="#D0EAF0" width="10.417" height="10.418"/>
<path fill="#FFFFFF" d="M186.739,324.755h-10.167v-10.168h10.167V324.755z M186.989,314.337h-10.667v10.668h10.667V314.337z"/>
<rect x="187.114" y="314.462" fill="#D0EAF0" width="10.417" height="10.418"/>
<path fill="#FFFFFF" d="M197.406,324.755h-10.167v-10.168h10.167V324.755z M197.656,314.337h-10.667v10.668h10.667V314.337z"/>
<rect x="197.832" y="314.462" fill="#D0EAF0" width="10.417" height="10.418"/>
<path fill="#FFFFFF" d="M208.124,324.755h-10.167v-10.168h10.167V324.755z M208.374,314.337h-10.667v10.668h10.667V314.337z"/>
<rect x="208.499" y="314.462" fill="#D0EAF0" width="10.417" height="10.418"/>
<path fill="#FFFFFF" d="M218.79,324.755h-10.167v-10.168h10.167V324.755z M219.04,314.337h-10.667v10.668h10.667V314.337z"/>
<rect x="165.781" y="335.796" fill="#D0EAF0" width="10.417" height="10.416"/>
<path fill="#FFFFFF" d="M176.073,346.087h-10.167v-10.166h10.167V346.087z M176.323,335.671h-10.667v10.666h10.667V335.671z"/>
<rect x="176.448" y="335.796" fill="#D0EAF0" width="10.417" height="10.416"/>
<path fill="#FFFFFF" d="M186.739,346.087h-10.167v-10.166h10.167V346.087z M186.989,335.671h-10.667v10.666h10.667V335.671z"/>
<rect x="187.114" y="335.796" fill="#D0EAF0" width="10.417" height="10.416"/>
<path fill="#FFFFFF" d="M197.406,346.087h-10.167v-10.166h10.167V346.087z M197.656,335.671h-10.667v10.666h10.667V335.671z"/>
<rect x="197.832" y="335.796" fill="#D0EAF0" width="10.417" height="10.416"/>
<path fill="#FFFFFF" d="M208.124,346.087h-10.167v-10.166h10.167V346.087z M208.374,335.671h-10.667v10.666h10.667V335.671z"/>
<rect x="208.499" y="335.796" fill="#D0EAF0" width="10.417" height="10.416"/>
<path fill="#FFFFFF" d="M218.79,346.087h-10.167v-10.166h10.167V346.087z M219.04,335.671h-10.667v10.666h10.667V335.671z"/>
<rect x="165.781" y="346.452" fill="#D0EAF0" width="10.417" height="10.416"/>
<path fill="#FFFFFF" d="M176.073,356.743h-10.167v-10.166h10.167V356.743z M176.323,346.327h-10.667v10.668h10.667V346.327z"/>
<rect x="176.448" y="346.452" fill="#D0EAF0" width="10.417" height="10.416"/>
<path fill="#FFFFFF" d="M186.739,356.743h-10.167v-10.166h10.167V356.743z M186.989,346.327h-10.667v10.668h10.667V346.327z"/>
<rect x="187.114" y="346.452" fill="#D0EAF0" width="10.417" height="10.416"/>
<path fill="#FFFFFF" d="M197.406,356.743h-10.167v-10.166h10.167V356.743z M197.656,346.327h-10.667v10.668h10.667V346.327z"/>
<rect x="197.832" y="346.452" fill="#D0EAF0" width="10.417" height="10.416"/>
<path fill="#FFFFFF" d="M208.124,356.743h-10.167v-10.166h10.167V356.743z M208.374,346.327h-10.667v10.668h10.667V346.327z"/>
<rect x="208.499" y="346.452" fill="#D0EAF0" width="10.417" height="10.416"/>
<path fill="#FFFFFF" d="M218.79,356.743h-10.167v-10.166h10.167V356.743z M219.04,346.327h-10.667v10.668h10.667V346.327z"/>
<rect x="165.781" y="357.069" fill="#D0EAF0" width="10.417" height="6.311"/>
<path fill="#FFFFFF" d="M176.073,363.306h-10.167v-6.162h10.167V363.306z M176.323,356.993h-10.667v6.465h10.667V356.993z"/>
<rect x="176.448" y="357.069" fill="#D0EAF0" width="10.417" height="6.311"/>
<path fill="#FFFFFF" d="M186.739,363.306h-10.167v-6.162h10.167V363.306z M186.989,356.993h-10.667v6.465h10.667V356.993z"/>
<rect x="187.114" y="357.069" fill="#D0EAF0" width="10.417" height="6.311"/>
<path fill="#FFFFFF" d="M197.406,363.306h-10.167v-6.162h10.167V363.306z M197.656,356.993h-10.667v6.465h10.667V356.993z"/>
<rect x="197.832" y="357.069" fill="#D0EAF0" width="10.417" height="6.311"/>
<path fill="#FFFFFF" d="M208.124,363.306h-10.167v-6.162h10.167V363.306z M208.374,356.993h-10.667v6.465h10.667V356.993z"/>
<rect x="208.499" y="357.069" fill="#D0EAF0" width="10.417" height="6.311"/>
<path fill="#FFFFFF" d="M218.79,363.306h-10.167v-6.162h10.167V363.306z M219.04,356.993h-10.667v6.465h10.667V356.993z"/>
<rect x="78.798" y="358.583" fill="#2E2D4B" width="145.286" height="7.438"/>
<rect x="218.127" y="177.416" fill="#2E2D4B" width="7.437" height="75.583"/>
<rect x="213.527" y="152.783" transform="matrix(0.8664 -0.4994 0.4994 0.8664 -43.1675 151.6731)" fill="#2E2D4B" width="96.626" height="7.437"/>
<rect x="196.265" y="71.951" transform="matrix(0.5077 0.8615 -0.8615 0.5077 196.7767 -193.0253)" fill="#2E2D4B" width="142.046" height="7.438"/>
<rect x="16.334" y="258.831" fill="#2E2D4B" width="151.666" height="6.063"/>
<rect x="41.917" y="258.833" fill="#2E2D4B" width="126.083" height="3.5"/>
<rect x="41.917" y="157.083" fill="#2E2D4B" width="145.583" height="3.5"/>
<rect x="164.5" y="252.833" fill="#2E2D4B" width="3.5" height="22.666"/>
<rect x="164.5" y="219.333" fill="#2E2D4B" width="3.5" height="8.5"/>
<rect x="164.5" y="219.333" fill="#2E2D4B" width="22.167" height="3.5"/>
<rect x="182.909" y="153.655" transform="matrix(-0.861 0.5085 -0.5085 -0.861 436.8163 191.4474)" fill="#2E2D4B" width="18.683" height="3.501"/>
<rect x="221.502" y="131.782" transform="matrix(-0.861 0.5085 -0.5085 -0.861 496.635 131.357)" fill="#2E2D4B" width="17.737" height="3.5"/>
<rect x="217.087" y="118.77" transform="matrix(-0.4844 -0.8749 0.8749 -0.4844 238.1819 381.4189)" fill="#2E2D4B" width="28.806" height="3.5"/>
<rect x="246.145" y="156.049" transform="matrix(-0.4844 -0.8749 0.8749 -0.4844 236.6614 455.0795)" fill="#2E2D4B" width="12.582" height="3.499"/>
<rect x="219.745" y="93.955" transform="matrix(-0.861 0.5085 -0.5085 -0.861 510.9454 51.792)" fill="#2E2D4B" width="57.304" height="3.501"/>
<rect x="184" y="159.583" fill="#2E2D4B" width="3.5" height="63.25"/>
<rect x="218.125" y="281.157" fill="#2E2D4B" width="5.958" height="93.926"/>
<rect x="154.25" y="330.116" fill="#2E2D4B" width="19" height="2.445"/>
<rect x="165.806" y="311.616" fill="#2E2D4B" width="26.778" height="2.967"/>
<rect x="214.557" y="311.616" fill="#2E2D4B" width="7.152" height="2.967"/>
<rect x="171.278" y="330.116" fill="#2E2D4B" width="2.445" height="29.168"/>
<rect x="154.251" y="330.116" fill="#2E2D4B" width="2.445" height="29.168"/>
<rect x="164.584" y="300.583" fill="#2E2D4B" width="2.445" height="51"/>
<rect x="154.25" y="337.2" fill="#2E2D4B" width="19" height="1.799"/>
<rect x="154.25" y="343.366" fill="#2E2D4B" width="19" height="1.799"/>
<rect x="154.25" y="349.784" fill="#2E2D4B" width="19" height="1.799"/>
<rect x="276.206" y="130.772" transform="matrix(-0.863 0.5052 -0.5052 -0.863 601.4265 100.9608)" fill="#2E2D4B" width="21.635" height="2.512"/>
<rect x="4.667" y="263.208" fill="#2E2D4B" width="3.5" height="99.125"/>
<rect x="40.167" y="358.583" fill="#2E2D4B" width="183.916" height="16.5"/>
<rect x="0.417" y="258.833" fill="#2E2D4B" width="56.083" height="16.5"/>
<rect x="0.417" y="144.5" fill="#2E2D4B" width="56.083" height="16.083"/>
<rect x="40.167" y="320.831" fill="#2E2D4B" width="16.333" height="48.396"/>
<rect x="0.001" y="237.833" fill="#2E2D4B" width="16.333" height="37.25"/>
<rect x="0.001" y="144.5" fill="#2E2D4B" width="16.333" height="38.583"/>
<rect x="40.167" y="108.666" fill="#2E2D4B" width="16.333" height="47.583"/>
<rect x="62.239" y="70.272" transform="matrix(0.5014 0.8652 -0.8652 0.5014 122.0498 -10.8114)" fill="#2E2D4B" width="16.333" height="60.43"/>
<rect x="155.839" y="-31.665" transform="matrix(-0.5014 -0.8652 0.8652 -0.5014 206.4229 210.9816)" fill="#2E2D4B" width="16.335" height="155.35"/>
<rect x="40.167" y="258.831" fill="#2E2D4B" width="16.333" height="21.896"/>
<rect x="4.667" y="358.708" fill="#2E2D4B" width="44.583" height="3.625"/>
<rect x="285.192" y="132.619" transform="matrix(0.8808 -0.4734 0.4734 0.8808 -30.5955 151.754)" fill="#2E2D4B" width="1.893" height="8.063"/>
<rect x="279.38" y="136.181" transform="matrix(0.8808 -0.4734 0.4734 0.8808 -32.9746 149.4266)" fill="#2E2D4B" width="1.893" height="8.063"/>
<rect x="290.676" y="129.937" transform="matrix(0.8809 -0.4732 0.4732 0.8809 -28.677 153.9526)" fill="#2E2D4B" width="1.893" height="8.063"/>
<rect x="173.723" y="344.7" fill="#9E9D9B" width="21.496" height="13.883"/>
<rect x="156.696" y="351.583" fill="#9E9D9B" width="14.583" height="7"/>
<rect x="156.697" y="332.562" fill="#9E9D9B" width="7.888" height="4.639"/>
<rect x="167.03" y="332.562" fill="#9E9D9B" width="4.305" height="4.639"/>
<rect x="156.697" y="338.999" fill="#9E9D9B" width="7.888" height="4.367"/>
<rect x="167.03" y="338.999" fill="#9E9D9B" width="4.305" height="4.367"/>
<rect x="156.697" y="345.165" fill="#9E9D9B" width="7.888" height="4.619"/>
<rect x="167.03" y="345.165" fill="#9E9D9B" width="4.305" height="4.619"/>
<polygon fill="#D7D7D5" points="162.959,340.29 156.696,338.999 156.696,343.366 164.584,343.366 "/>
<polygon fill="#D7D7D5" points="162.959,346.501 156.696,345.124 156.696,349.782 164.584,349.782 "/>
<polygon fill="#D7D7D5" points="167.029,338.999 169.917,340.706 171.334,343.366 167.029,343.366 "/>
<polygon fill="#D7D7D5" points="167.029,345.165 169.917,346.972 171.334,349.784 167.029,349.784 "/>
<polygon fill="#9E9D9B" points="284.238,135.114 279.994,137.598 281.696,140.765 285.956,138.309 "/>
<polygon fill="#9E9D9B" points="285.873,134.157 287.597,137.364 291.244,135.261 289.51,132.028 "/>
<polygon fill="#D7D7D5" points="287.293,134.353 287.597,137.364 291.244,135.263 289.51,132.029 "/>
<polygon fill="#9E9D9B" points="294.49,129.153 291.141,131.073 292.884,134.316 296.354,132.316 "/>
<polygon fill="#D7D7D5" points="292.646,131.734 294.49,129.152 296.354,132.316 292.884,134.316 "/>
<rect x="40.167" y="280.728" fill="#A5DAEC" width="16.333" height="40.104"/>
<rect x="45.909" y="280.728" fill="#61A9C4" width="4.85" height="40.104"/>
<rect y="183.083" fill="#A5DAEC" width="16.333" height="54.75"/>
<rect x="5.742" y="183.083" fill="#61A9C4" width="4.85" height="54.75"/>
<rect x="192.586" y="311.458" fill="#E3004F" width="2.25" height="3.125"/>
<rect x="201.466" y="293.122" transform="matrix(0.7067 0.7075 -0.7075 0.7067 275.3864 -53.8096)" fill="#E3004F" width="2.25" height="24.21"/>
<rect x="165.75" y="275.499" fill="#E3004F" width="2.25" height="3.125"/>
<rect x="156.87" y="272.748" transform="matrix(-0.7073 -0.7069 0.7069 -0.7073 68.388 598.022)" fill="#E3004F" width="2.249" height="24.21"/>
<rect x="165.75" y="249.708" fill="#E3004F" width="2.25" height="3.125"/>
<rect x="156.869" y="231.372" transform="matrix(-0.7069 0.7073 -0.7073 -0.7069 441.8969 303.836)" fill="#E3004F" width="2.25" height="24.21"/>
<rect x="221.836" y="278.032" fill="#E3004F" width="2.25" height="3.125"/>
<rect x="212.952" y="259.697" transform="matrix(-0.7069 0.7073 -0.7073 -0.7069 557.6588 312.5135)" fill="#E3004F" width="2.25" height="24.21"/>
<rect x="246.94" y="149.704" transform="matrix(-0.8663 0.4995 -0.4995 -0.8663 538.5262 158.3874)" fill="#E3004F" width="2.25" height="3.125"/>
<rect x="235.355" y="136.847" transform="matrix(-0.2596 0.9657 -0.9657 -0.2596 441.7055 -40.7636)" fill="#E3004F" width="2.25" height="24.209"/>
<rect x="40.167" y="280.728" fill="#E3004F" width="2.25" height="3.125"/>
<rect x="49.049" y="277.977" transform="matrix(0.7073 -0.7069 0.7069 0.7073 -190.3713 120.3674)" fill="#E3004F" width="2.249" height="24.21"/>
<rect x="242.514" y="82.88" transform="matrix(0.5095 0.8605 -0.8605 0.5095 216.4964 -165.4059)" fill="#61A9C4" width="21.624" height="48.613"/>
<path fill="#FFFFFF" d="M267.285,96.564l0.253,0.428c0.444-0.146,0.918-0.025,1.237,0.316l0.427-0.253
	C268.74,96.49,267.963,96.291,267.285,96.564"/>
<path fill="#FFFFFF" d="M267.795,97.425l0.203,0.344l0.344-0.204C268.187,97.443,267.989,97.392,267.795,97.425"/>
<path fill="#FFFFFF" d="M267.105,97.249l-0.253-0.428c-0.565,0.463-0.765,1.24-0.491,1.918l0.428-0.254
	C266.643,98.041,266.765,97.568,267.105,97.249"/>
<path fill="#FFFFFF" d="M267.221,98.229l0.344-0.204l-0.203-0.344C267.239,97.836,267.188,98.034,267.221,98.229"/>
<path fill="#FFFFFF" d="M268.598,97.999l-0.344,0.204l0.204,0.343C268.58,98.391,268.631,98.194,268.598,97.999"/>
<path fill="#FFFFFF" d="M268.025,98.802l-0.205-0.345l-0.344,0.204C267.633,98.783,267.83,98.834,268.025,98.802"/>
<path fill="#FFFFFF" d="M273.783,105.157c1.126-0.667,1.501-2.133,0.835-3.258l-6.417-10.837c-0.666-1.125-2.132-1.501-3.257-0.835
	l-26.108,15.458c-0.145,0.086-0.275,0.185-0.395,0.295c-0.281,0.128-0.559,0.27-0.831,0.431c-4.123,2.441-5.486,7.762-3.045,11.885
	c2.44,4.122,7.761,5.486,11.884,3.045c0.271-0.161,0.529-0.337,0.777-0.522c0.154-0.052,0.305-0.119,0.449-0.204L273.783,105.157z
	 M269.241,100.856l-0.451-0.761c-0.918,0.408-1.997,0.132-2.606-0.668l-0.76,0.451l-0.257-0.433l0.761-0.451
	c-0.408-0.918-0.131-1.997,0.668-2.606l-0.451-0.761l0.434-0.256l0.451,0.761c0.918-0.408,1.996-0.132,2.605,0.668l0.762-0.451
	l0.256,0.433l-0.762,0.451c0.408,0.918,0.133,1.996-0.668,2.606l0.451,0.761L269.241,100.856z"/>
<path fill="#FFFFFF" d="M269.459,97.488l-0.429,0.253c0.146,0.444,0.025,0.917-0.315,1.237l0.252,0.427
	C269.533,98.943,269.732,98.167,269.459,97.488"/>
<path fill="#FFFFFF" d="M267.045,98.917l-0.428,0.253c0.463,0.566,1.24,0.765,1.918,0.492l-0.254-0.428
	C267.838,99.38,267.363,99.258,267.045,98.917"/>
<path fill="#61A9C4" d="M283.559,110.594l-4.973,2.929l-1.14,0.672l-0.727,0.428c-1.708,1.006-2.282,3.227-1.276,4.935l3.617,6.139
	c1.006,1.708,3.227,2.282,4.934,1.276l0.728-0.429l1.14-0.671l4.973-2.929L283.559,110.594z"/>
<path fill="#FFFFFF" d="M279.819,125.262l-3.627-6.157c-0.776-1.318-0.333-3.031,0.983-3.808l1.58-0.93
	c1.318-0.777,3.031-0.334,3.809,0.984l3.627,6.157c0.775,1.318,0.333,3.032-0.984,3.808l-1.58,0.931
	C282.31,127.023,280.596,126.58,279.819,125.262"/>
<path fill="#61A9C4" d="M280.629,119.234l0.186,0.314c0.324-0.106,0.672-0.017,0.904,0.234l0.314-0.185
	C281.695,119.183,281.127,119.035,280.629,119.234"/>
<path fill="#61A9C4" d="M281.001,119.865l0.149,0.252l0.252-0.148C281.288,119.879,281.145,119.842,281.001,119.865"/>
<path fill="#61A9C4" d="M280.496,119.735l-0.185-0.314c-0.415,0.338-0.562,0.907-0.362,1.404l0.313-0.185
	C280.156,120.315,280.246,119.968,280.496,119.735"/>
<path fill="#61A9C4" d="M280.58,120.453l0.252-0.149l-0.148-0.252C280.594,120.166,280.557,120.31,280.58,120.453"/>
<path fill="#61A9C4" d="M281.589,120.286l-0.252,0.149l0.147,0.252C281.574,120.573,281.611,120.429,281.589,120.286"/>
<path fill="#61A9C4" d="M281.168,120.875l-0.148-0.252l-0.252,0.148C280.881,120.86,281.025,120.898,281.168,120.875"/>
<path fill="#61A9C4" d="M282.22,119.916l-0.313,0.185c0.105,0.325,0.017,0.672-0.234,0.905l0.186,0.314
	C282.273,120.981,282.42,120.413,282.22,119.916"/>
<path fill="#61A9C4" d="M280.449,120.958l-0.313,0.185c0.338,0.415,0.907,0.563,1.403,0.363l-0.185-0.314
	C281.029,121.297,280.683,121.208,280.449,120.958"/>
<path fill="#61A9C4" d="M214.201,358.583v-5.771v-1.322v-0.844c0-1.982-1.622-3.605-3.604-3.605h-7.125
	c-1.982,0-3.604,1.623-3.604,3.605v0.844v1.322v5.771H214.201z"/>
<path fill="#FFFFFF" d="M203.462,347.915h7.146c1.53,0,2.781,1.252,2.781,2.781v1.834c0,1.529-1.251,2.779-2.781,2.779h-7.146
	c-1.53,0-2.78-1.25-2.78-2.779v-1.834C200.682,349.167,201.932,347.915,203.462,347.915"/>
<path fill="#61A9C4" d="M208.244,351.673h-0.364c-0.073,0.334-0.327,0.586-0.661,0.66v0.365
	C207.748,352.618,208.164,352.202,208.244,351.673"/>
<path fill="#61A9C4" d="M207.512,351.673h-0.293v0.293C207.354,351.913,207.46,351.808,207.512,351.673"/>
<path fill="#61A9C4" d="M207.88,351.304h0.364c-0.08-0.529-0.496-0.945-1.025-1.023v0.363
	C207.553,350.718,207.806,350.97,207.88,351.304"/>
<path fill="#61A9C4" d="M207.219,351.011v0.293h0.293C207.46,351.169,207.354,351.063,207.219,351.011"/>
<path fill="#61A9C4" d="M206.851,351.966v-0.293h-0.293C206.609,351.808,206.715,351.913,206.851,351.966"/>
<path fill="#61A9C4" d="M206.558,351.304h0.293v-0.293C206.716,351.063,206.609,351.169,206.558,351.304"/>
<path fill="#61A9C4" d="M206.851,352.698v-0.365c-0.334-0.072-0.587-0.326-0.661-0.66h-0.363
	C205.906,352.202,206.321,352.618,206.851,352.698"/>
<path fill="#61A9C4" d="M206.851,350.644v-0.363c-0.53,0.078-0.944,0.494-1.024,1.023h0.363
	C206.264,350.97,206.517,350.718,206.851,350.644"/>
<path fill="#61A9C4" d="M184.383,324.628h2.375c2.475,0,4.5,2.025,4.5,4.5v4.625c0,2.475-2.025,4.5-4.5,4.5h-2.375
	c-2.475,0-4.5-2.025-4.5-4.5v-4.625C179.883,326.653,181.908,324.628,184.383,324.628"/>
<path fill="#FFFFFF" d="M184.772,325.702h1.596c2.156,0,3.911,1.754,3.911,3.91v5.23c0,2.156-1.755,3.91-3.911,3.91h-1.596
	c-2.156,0-3.91-1.754-3.91-3.91v-5.23C180.862,327.456,182.616,325.702,184.772,325.702 M186.368,337.753
	c1.605,0,2.911-1.305,2.911-2.91v-5.23c0-1.605-1.306-2.91-2.911-2.91h-1.596c-1.605,0-2.91,1.305-2.91,2.91v5.23
	c0,1.605,1.305,2.91,2.91,2.91H186.368z"/>
<path fill="#61A9C4" d="M180.32,337.95h10.5c0.619,0,1.125,0.506,1.125,1.125v4.5c0,0.619-0.506,1.125-1.125,1.125h-10.5
	c-0.619,0-1.125-0.506-1.125-1.125v-4.5C179.195,338.456,179.701,337.95,180.32,337.95"/>
<path fill="#61A9C4" d="M183.82,336.21h3.5c0.269,0,0.49,0.221,0.49,0.49v2.5c0,0.27-0.221,0.49-0.49,0.49h-3.5
	c-0.269,0-0.49-0.221-0.49-0.49v-2.5C183.33,336.431,183.551,336.21,183.82,336.21"/>
<path fill="#FFFFFF" d="M184.624,341.325c0-0.521,0.424-0.945,0.946-0.945c0.523,0,0.947,0.424,0.947,0.945
	c0,0.523-0.424,0.945-0.947,0.945C185.048,342.271,184.624,341.849,184.624,341.325"/>
<rect x="105.558" y="341.476" fill="#B2D4DC" width="21.387" height="17.105"/>
<path fill="#FFFFFF" d="M109.877,355.677h6.103h0.772h8.604v-0.49h-7.052c0.311-0.219,0.57-0.5,0.769-0.826h6.283v-0.49h-6.047
	c0.094-0.26,0.152-0.537,0.162-0.824h5.885v-0.492h-5.875v-0.824h5.875v-0.49h-5.875v-0.824h5.875v-0.494h-5.875v-0.822h5.875
	v-0.492h-5.875v-0.824h5.875v-0.49h-5.875v-0.826h5.875v-0.49h-5.885c-0.01-0.289-0.068-0.564-0.162-0.826h6.047v-0.49h-6.283
	c-0.199-0.324-0.458-0.607-0.769-0.824h7.052v-0.492h-8.604h-0.772h-6.103c-1.501,0-2.729,1.23-2.729,2.73v6.875
	C107.148,354.448,108.376,355.677,109.877,355.677"/>
<path fill="#61A9C4" d="M111.279,358.583h4.333v-2.906h-1.666v-2.842c0-0.154-0.127-0.281-0.282-0.281h-0.437
	c-0.155,0-0.281,0.127-0.281,0.281v2.842h-1.667V358.583z"/>
<path fill="#FFFFFF" d="M114.047,357.128c0-0.27,0.217-0.484,0.484-0.484c0.268,0,0.485,0.215,0.485,0.484
	c0,0.268-0.217,0.484-0.485,0.484C114.264,357.612,114.047,357.396,114.047,357.128"/>
<path fill="#FFFFFF" d="M111.875,357.128c0-0.27,0.217-0.484,0.484-0.484c0.268,0,0.485,0.215,0.485,0.484
	c0,0.268-0.217,0.484-0.485,0.484C112.092,357.612,111.875,357.396,111.875,357.128"/>
<rect x="87.973" y="355.679" fill="#B2D4DC" width="15.25" height="2.904"/>
<rect x="87.973" y="341.474" fill="#61A9C4" width="15.25" height="14.203"/>
<rect x="89.473" y="339.888" fill="#61A9C4" width="12.25" height="0.926"/>
<path fill="#FFFFFF" d="M92.265,349.802c1.327,0,2.406,1.078,2.406,2.404c0,1.328-1.079,2.406-2.406,2.406
	c-1.326,0-2.405-1.078-2.405-2.406C89.86,350.88,90.938,349.802,92.265,349.802 M92.265,353.862c0.913,0,1.656-0.742,1.656-1.656
	c0-0.912-0.743-1.656-1.656-1.656s-1.655,0.744-1.655,1.656C90.61,353.12,91.352,353.862,92.265,353.862"/>
<path fill="#FFFFFF" d="M92.265,350.956c0.689,0,1.25,0.563,1.25,1.25c0,0.689-0.561,1.25-1.25,1.25s-1.25-0.561-1.25-1.25
	C91.015,351.519,91.576,350.956,92.265,350.956 M92.265,352.706c0.275,0,0.5-0.225,0.5-0.5s-0.225-0.5-0.5-0.5s-0.5,0.225-0.5,0.5
	S91.99,352.706,92.265,352.706"/>
<path fill="#FFFFFF" d="M92.265,344.226c0.908,0,1.646,0.74,1.646,1.646c0,0.908-0.738,1.646-1.646,1.646
	c-0.907,0-1.646-0.738-1.646-1.646C90.619,344.966,91.357,344.226,92.265,344.226 M92.265,346.769c0.494,0,0.896-0.402,0.896-0.896
	s-0.402-0.896-0.896-0.896s-0.896,0.402-0.896,0.896S91.771,346.769,92.265,346.769"/>
<path fill="#FFFFFF" d="M92.265,342.54c1.838,0,3.334,1.496,3.334,3.334c0,1.836-1.496,3.332-3.334,3.332s-3.333-1.496-3.333-3.332
	C88.932,344.036,90.427,342.54,92.265,342.54 M92.265,348.456c1.425,0,2.584-1.158,2.584-2.582c0-1.426-1.159-2.584-2.584-2.584
	c-1.424,0-2.583,1.158-2.583,2.584C89.682,347.298,90.841,348.456,92.265,348.456"/>
<path fill="#FFFFFF" d="M98.933,347.353c-1.327,0-2.406-1.082-2.406-2.406c0-1.328,1.079-2.406,2.406-2.406
	c1.326,0,2.405,1.078,2.405,2.406C101.338,346.271,100.259,347.353,98.933,347.353 M98.933,343.29c-0.913,0-1.656,0.742-1.656,1.656
	c0,0.912,0.743,1.656,1.656,1.656s1.655-0.744,1.655-1.656C100.588,344.032,99.846,343.29,98.933,343.29"/>
<path fill="#FFFFFF" d="M98.933,346.196c-0.689,0-1.25-0.563-1.25-1.25c0-0.689,0.561-1.25,1.25-1.25s1.25,0.561,1.25,1.25
	C100.183,345.634,99.622,346.196,98.933,346.196 M98.933,344.446c-0.275,0-0.5,0.223-0.5,0.5c0,0.275,0.225,0.5,0.5,0.5
	s0.5-0.225,0.5-0.5C99.433,344.669,99.208,344.446,98.933,344.446"/>
<path fill="#FFFFFF" d="M98.933,352.925c-0.908,0-1.646-0.738-1.646-1.645c0-0.908,0.738-1.646,1.646-1.646
	c0.907,0,1.646,0.738,1.646,1.646C100.579,352.187,99.84,352.925,98.933,352.925 M98.933,350.384c-0.494,0-0.896,0.402-0.896,0.896
	c0,0.492,0.402,0.895,0.896,0.895s0.896-0.402,0.896-0.895C99.829,350.786,99.427,350.384,98.933,350.384"/>
<path fill="#FFFFFF" d="M98.933,354.612c-1.838,0-3.334-1.496-3.334-3.334s1.496-3.332,3.334-3.332s3.333,1.494,3.333,3.332
	S100.771,354.612,98.933,354.612 M98.933,348.696c-1.425,0-2.584,1.158-2.584,2.582c0,1.426,1.159,2.584,2.584,2.584
	c1.424,0,2.583-1.158,2.583-2.584C101.516,349.854,100.356,348.696,98.933,348.696"/>
<rect x="97.368" y="340.813" fill="#B2D4DC" width="1.481" height="0.66"/>
<rect x="92.347" y="340.813" fill="#B2D4DC" width="1.481" height="0.66"/>
<rect x="56.5" y="341.476" fill="#B2D4DC" width="16.937" height="17.105"/>
<path fill="#61A9C4" d="M73.433,341.003c-0.015-0.615-0.398-1.115-0.87-1.115H57.376c-0.472,0-0.855,0.5-0.87,1.115H73.433z"/>
<rect x="73.432" y="341.476" fill="#D0EAF0" width="14.541" height="17.107"/>
<rect x="126.946" y="341.476" fill="#D0EAF0" width="27.305" height="17.107"/>
<rect x="103.223" y="341.476" fill="#D0EAF0" width="2.335" height="17.107"/>
<path fill="#E3004F" d="M79.425,233.384H45.177v-8.393L56.7,213.337c3.292-3.441,5.445-5.793,6.456-7.053
	c1.011-1.258,1.716-2.338,2.115-3.244c0.397-0.902,0.596-1.85,0.596-2.84c0-1.227-0.398-2.195-1.194-2.904
	c-0.796-0.711-1.915-1.066-3.356-1.066c-1.486,0-2.987,0.426-4.503,1.275c-1.518,0.85-3.235,2.104-5.15,3.76l-7.004-8.199
	c2.432-2.172,4.476-3.727,6.133-4.662c1.657-0.938,3.459-1.652,5.407-2.148c1.948-0.494,4.137-0.742,6.569-0.742
	c3.055,0,5.783,0.539,8.182,1.613c2.4,1.078,4.261,2.611,5.584,4.602c1.325,1.99,1.986,4.223,1.986,6.697
	c0,1.852-0.232,3.563-0.694,5.133c-0.464,1.57-1.178,3.115-2.147,4.631c-0.968,1.518-2.254,3.115-3.858,4.795
	c-1.602,1.678-5.018,4.863-10.248,9.555v0.322h17.851V233.384z"/>
<path fill="#2E2D4B" d="M94.737,200.513h-1.753v3.08h-4.245v-3.08h-6.347v-3.156l6.618-9.678h3.974v9.623h1.753V200.513z
	 M88.739,197.302v-1.852c0-0.348,0.013-0.818,0.038-1.408c0.025-0.592,0.045-0.902,0.06-0.93h-0.12
	c-0.247,0.557-0.526,1.08-0.838,1.566l-1.764,2.623H88.739z"/>
<path fill="#2E2D4B" d="M107.354,195.657c0,2.816-0.473,4.879-1.415,6.189c-0.945,1.309-2.388,1.965-4.333,1.965
	c-1.902,0-3.335-0.684-4.3-2.051c-0.965-1.369-1.447-3.404-1.447-6.104c0-2.83,0.471-4.904,1.415-6.227
	c0.943-1.32,2.386-1.98,4.332-1.98c1.894,0,3.325,0.688,4.295,2.063C106.869,190.888,107.354,192.937,107.354,195.657
	 M100.136,195.657c0,1.801,0.112,3.037,0.338,3.713c0.224,0.674,0.602,1.012,1.132,1.012c0.537,0,0.916-0.348,1.137-1.045
	c0.222-0.697,0.332-1.924,0.332-3.68c0-1.764-0.112-2.998-0.337-3.707c-0.225-0.707-0.603-1.061-1.132-1.061
	c-0.53,0-0.908,0.342-1.132,1.023C100.248,192.595,100.136,193.845,100.136,195.657"/>
<path fill="#2E2D4B" d="M113.558,200.339l0.152,0.25c-0.704,2.766-1.342,4.801-1.916,6.107h-3.037
	c0.211-1.002,0.423-2.125,0.637-3.369c0.215-1.244,0.361-2.24,0.441-2.988H113.558z"/>
<path fill="#2E2D4B" d="M127.753,200.513H126v3.08h-4.245v-3.08h-6.347v-3.156l6.618-9.678H126v9.623h1.753V200.513z
	 M121.755,197.302v-1.852c0-0.348,0.013-0.818,0.038-1.408c0.025-0.592,0.045-0.902,0.06-0.93h-0.12
	c-0.247,0.557-0.526,1.08-0.838,1.566l-1.764,2.623H121.755z"/>
<path fill="#2E2D4B" d="M140.369,195.657c0,2.816-0.473,4.879-1.415,6.189c-0.945,1.309-2.388,1.965-4.333,1.965
	c-1.902,0-3.335-0.684-4.3-2.051c-0.965-1.369-1.447-3.404-1.447-6.104c0-2.83,0.471-4.904,1.415-6.227
	c0.943-1.32,2.386-1.98,4.332-1.98c1.894,0,3.325,0.688,4.295,2.063C139.884,190.888,140.369,192.937,140.369,195.657
	 M133.151,195.657c0,1.801,0.112,3.037,0.338,3.713c0.224,0.674,0.602,1.012,1.132,1.012c0.537,0,0.916-0.348,1.137-1.045
	c0.222-0.697,0.332-1.924,0.332-3.68c0-1.764-0.112-2.998-0.337-3.707c-0.225-0.707-0.603-1.061-1.132-1.061
	c-0.53,0-0.908,0.342-1.132,1.023C133.263,192.595,133.151,193.845,133.151,195.657"/>
<polygon fill="#2E2D4B" points="84.578,230.325 90.042,217.993 83.151,217.993 83.151,214.433 94.636,214.433 94.636,216.97 
	89.03,230.325 "/>
<path fill="#2E2D4B" d="M107.645,222.39c0,2.816-0.473,4.879-1.415,6.189c-0.945,1.309-2.388,1.965-4.333,1.965
	c-1.902,0-3.335-0.684-4.3-2.051c-0.965-1.369-1.447-3.404-1.447-6.104c0-2.83,0.471-4.904,1.415-6.227
	c0.943-1.32,2.386-1.98,4.332-1.98c1.894,0,3.325,0.688,4.295,2.063C107.16,217.62,107.645,219.669,107.645,222.39 M100.427,222.39
	c0,1.801,0.112,3.037,0.338,3.713c0.224,0.674,0.602,1.014,1.132,1.014c0.537,0,0.916-0.35,1.137-1.047
	c0.222-0.697,0.332-1.924,0.332-3.68c0-1.764-0.112-2.998-0.337-3.707c-0.225-0.707-0.603-1.061-1.132-1.061
	c-0.53,0-0.908,0.342-1.132,1.023C100.539,219.327,100.427,220.577,100.427,222.39"/>
<path fill="#2E2D4B" d="M113.849,227.071l0.152,0.25c-0.704,2.766-1.342,4.801-1.916,6.107h-3.037
	c0.211-1.002,0.423-2.125,0.637-3.369c0.215-1.244,0.361-2.24,0.441-2.988H113.849z"/>
<path fill="#2E2D4B" d="M125.572,230.325h-4.365v-8.426c0-1.021,0.022-1.959,0.065-2.809c-0.268,0.328-0.602,0.668-1.001,1.023
	l-1.807,1.492l-2.232-2.744l5.465-4.451h3.875V230.325z"/>
<path fill="#2E2D4B" d="M140.66,222.39c0,2.816-0.473,4.879-1.415,6.189c-0.945,1.309-2.388,1.965-4.333,1.965
	c-1.902,0-3.335-0.684-4.3-2.051c-0.965-1.369-1.447-3.404-1.447-6.104c0-2.83,0.471-4.904,1.415-6.227
	c0.943-1.32,2.386-1.98,4.332-1.98c1.894,0,3.325,0.688,4.295,2.063C140.175,217.62,140.66,219.669,140.66,222.39 M133.442,222.39
	c0,1.801,0.112,3.037,0.338,3.713c0.224,0.674,0.602,1.014,1.132,1.014c0.537,0,0.916-0.35,1.137-1.047
	c0.222-0.697,0.332-1.924,0.332-3.68c0-1.764-0.112-2.998-0.337-3.707c-0.225-0.707-0.603-1.061-1.132-1.061
	c-0.53,0-0.908,0.342-1.132,1.023C133.554,219.327,133.442,220.577,133.442,222.39"/>
<rect x="83.303" y="208.985" fill="#2E2D4B" width="58.898" height="1.775"/>
<path fill="#2E2D4B" d="M26.35,175.2h-2.845v-5.49c0-0.667,0.014-1.277,0.042-1.83c-0.175,0.213-0.392,0.435-0.652,0.666
	l-1.178,0.973l-1.454-1.788l3.562-2.901h2.525V175.2z"/>
<path fill="#2E2D4B" d="M36.217,169.575c0,2.028-0.437,3.497-1.312,4.405c-0.875,0.907-2.275,1.361-4.2,1.361
	c-0.633,0-1.116-0.022-1.447-0.07v-2.221c0.407,0.076,0.814,0.113,1.22,0.113c1.003,0,1.776-0.207,2.32-0.62
	c0.544-0.414,0.839-1.068,0.887-1.962H33.6c-0.185,0.341-0.367,0.587-0.547,0.738c-0.18,0.151-0.399,0.267-0.659,0.348
	c-0.261,0.08-0.584,0.12-0.972,0.12c-0.899,0-1.601-0.3-2.107-0.9c-0.506-0.601-0.759-1.429-0.759-2.483
	c0-1.149,0.327-2.05,0.982-2.702c0.656-0.653,1.553-0.979,2.693-0.979c1.266,0,2.248,0.421,2.943,1.264
	C35.87,166.827,36.217,168.023,36.217,169.575 M32.309,166.964c-0.308,0-0.558,0.11-0.749,0.333s-0.287,0.579-0.287,1.071
	c0,0.388,0.083,0.696,0.248,0.926c0.166,0.229,0.419,0.344,0.76,0.344c0.306,0,0.574-0.11,0.8-0.333
	c0.228-0.223,0.341-0.488,0.341-0.802c0-0.421-0.105-0.783-0.315-1.085C32.896,167.116,32.63,166.964,32.309,166.964"/>
<path fill="#2E2D4B" d="M40.225,173.079l0.1,0.163c-0.459,1.802-0.875,3.129-1.248,3.979h-1.98c0.137-0.652,0.275-1.384,0.415-2.195
	c0.14-0.811,0.235-1.46,0.287-1.947H40.225z"/>
<path fill="#2E2D4B" d="M45.468,164.68c1.092,0,1.942,0.22,2.55,0.659c0.608,0.44,0.912,1.064,0.912,1.873
	c0,0.55-0.143,1.029-0.429,1.443c-0.286,0.414-0.739,0.774-1.359,1.082c0.766,0.435,1.306,0.869,1.621,1.302
	c0.314,0.434,0.471,0.899,0.471,1.4c0,0.923-0.333,1.637-1,2.143s-1.598,0.759-2.795,0.759c-1.219,0-2.154-0.247-2.801-0.741
	c-0.648-0.494-0.972-1.204-0.972-2.132c0-0.601,0.144-1.112,0.433-1.535c0.288-0.424,0.773-0.808,1.454-1.153
	c-0.549-0.368-0.95-0.765-1.203-1.188c-0.252-0.424-0.379-0.888-0.379-1.395c0-0.794,0.309-1.412,0.929-1.854
	C43.519,164.901,44.375,164.68,45.468,164.68 M44.232,172.355c0,0.294,0.105,0.528,0.313,0.706s0.497,0.266,0.865,0.266
	c0.833,0,1.249-0.305,1.249-0.915c0-0.231-0.092-0.46-0.273-0.685c-0.182-0.225-0.507-0.476-0.976-0.754
	c-0.421,0.221-0.723,0.444-0.904,0.669C44.325,171.867,44.232,172.105,44.232,172.355 M45.454,166.702
	c-0.241,0-0.444,0.069-0.61,0.209c-0.165,0.14-0.248,0.32-0.248,0.543c0,0.406,0.276,0.766,0.83,1.078
	c0.336-0.194,0.564-0.371,0.687-0.532c0.123-0.16,0.185-0.343,0.185-0.546c0-0.228-0.083-0.409-0.248-0.546
	C45.884,166.77,45.685,166.702,45.454,166.702"/>
<path fill="#2E2D4B" d="M57.698,170.029c0,1.835-0.307,3.179-0.923,4.032c-0.614,0.854-1.555,1.279-2.823,1.279
	c-1.238,0-2.173-0.444-2.802-1.336c-0.629-0.892-0.943-2.217-0.943-3.976c0-1.845,0.308-3.197,0.922-4.058
	c0.615-0.861,1.555-1.291,2.823-1.291c1.234,0,2.167,0.448,2.799,1.344C57.382,166.92,57.698,168.256,57.698,170.029
	 M52.995,170.029c0,1.173,0.073,1.979,0.22,2.419c0.146,0.439,0.392,0.659,0.737,0.659c0.351,0,0.598-0.226,0.741-0.681
	c0.145-0.454,0.217-1.252,0.217-2.397c0-1.149-0.073-1.955-0.22-2.416c-0.146-0.461-0.392-0.691-0.738-0.691
	c-0.345,0-0.591,0.223-0.737,0.667C53.068,168.033,52.995,168.846,52.995,170.029"/>
<path fill="#2E2D4B" d="M69.821,152.541h-7.526v-1.845l2.532-2.561c0.723-0.757,1.196-1.273,1.419-1.55
	c0.222-0.276,0.377-0.515,0.465-0.713c0.087-0.198,0.131-0.406,0.131-0.624c0-0.27-0.087-0.482-0.263-0.639
	c-0.175-0.156-0.421-0.234-0.737-0.234c-0.327,0-0.657,0.094-0.99,0.28c-0.334,0.188-0.711,0.463-1.132,0.826l-1.539-1.801
	c0.535-0.478,0.984-0.82,1.348-1.025c0.364-0.206,0.76-0.363,1.188-0.471c0.428-0.11,0.91-0.164,1.444-0.164
	c0.671,0,1.27,0.119,1.798,0.355c0.527,0.236,0.936,0.573,1.227,1.011s0.437,0.927,0.437,1.471c0,0.408-0.051,0.784-0.153,1.128
	c-0.102,0.346-0.259,0.685-0.472,1.019c-0.212,0.333-0.495,0.684-0.848,1.053c-0.351,0.369-1.102,1.069-2.252,2.1v0.07h3.923
	V152.541z"/>
<path fill="#2E2D4B" d="M78.376,147.37c0,1.835-0.307,3.179-0.923,4.032c-0.614,0.854-1.555,1.279-2.823,1.279
	c-1.238,0-2.173-0.444-2.802-1.336c-0.629-0.892-0.943-2.217-0.943-3.976c0-1.845,0.308-3.197,0.922-4.058
	c0.615-0.861,1.555-1.291,2.823-1.291c1.234,0,2.167,0.449,2.799,1.344C78.061,144.262,78.376,145.597,78.376,147.37 M73.673,147.37
	c0,1.173,0.073,1.979,0.22,2.419c0.146,0.439,0.392,0.659,0.737,0.659c0.351,0,0.598-0.227,0.741-0.682
	c0.145-0.453,0.217-1.252,0.217-2.396c0-1.149-0.073-1.955-0.22-2.416c-0.146-0.461-0.392-0.691-0.738-0.691
	c-0.345,0-0.591,0.222-0.737,0.667C73.747,145.374,73.673,146.187,73.673,147.37"/>
<path fill="#2E2D4B" d="M82.419,150.419l0.1,0.163c-0.459,1.802-0.875,3.129-1.248,3.979h-1.98c0.137-0.652,0.275-1.384,0.415-2.195
	c0.14-0.811,0.235-1.46,0.287-1.947H82.419z"/>
<path fill="#2E2D4B" d="M83.873,148.157c0-1.447,0.207-2.619,0.621-3.514c0.414-0.897,1.024-1.558,1.83-1.984
	c0.807-0.425,1.801-0.637,2.984-0.637c0.421,0,0.912,0.04,1.474,0.12v2.192c-0.472-0.09-0.985-0.135-1.539-0.135
	c-0.936,0-1.633,0.205-2.092,0.618c-0.458,0.411-0.709,1.083-0.752,2.014h0.086c0.424-0.805,1.108-1.206,2.049-1.206
	c0.922,0,1.638,0.297,2.146,0.89c0.509,0.595,0.763,1.42,0.763,2.479c0,1.14-0.322,2.039-0.965,2.699
	c-0.643,0.66-1.542,0.989-2.696,0.989c-1.224,0-2.182-0.396-2.873-1.191C84.219,150.696,83.873,149.584,83.873,148.157
	 M87.718,150.462c0.299,0,0.541-0.112,0.728-0.337c0.186-0.225,0.28-0.583,0.28-1.075c0-0.842-0.326-1.263-0.979-1.263
	c-0.322,0-0.583,0.109-0.784,0.326c-0.201,0.218-0.302,0.482-0.302,0.795c0,0.454,0.097,0.826,0.291,1.117
	C87.147,150.317,87.402,150.462,87.718,150.462"/>
<path fill="#2E2D4B" d="M99.892,147.37c0,1.835-0.307,3.179-0.923,4.032c-0.614,0.854-1.555,1.279-2.823,1.279
	c-1.238,0-2.173-0.444-2.802-1.336c-0.629-0.892-0.943-2.217-0.943-3.976c0-1.845,0.308-3.197,0.922-4.058
	c0.615-0.861,1.555-1.291,2.823-1.291c1.234,0,2.167,0.449,2.799,1.344C99.576,144.262,99.892,145.597,99.892,147.37 M95.189,147.37
	c0,1.173,0.073,1.979,0.22,2.419c0.146,0.439,0.392,0.659,0.737,0.659c0.351,0,0.598-0.227,0.741-0.682
	c0.145-0.453,0.217-1.252,0.217-2.396c0-1.149-0.073-1.955-0.22-2.416c-0.146-0.461-0.392-0.691-0.738-0.691
	c-0.345,0-0.591,0.222-0.737,0.667C95.262,145.374,95.189,146.187,95.189,147.37"/>
<path fill="#2E2D4B" d="M189.692,247.374c0,2.027-0.438,3.496-1.313,4.404s-2.275,1.361-4.2,1.361c-0.633,0-1.116-0.021-1.447-0.07
	v-2.221c0.407,0.076,0.814,0.113,1.22,0.113c1.003,0,1.776-0.207,2.32-0.619c0.544-0.414,0.839-1.068,0.887-1.963h-0.085
	c-0.185,0.342-0.367,0.588-0.547,0.738c-0.18,0.152-0.399,0.268-0.659,0.348c-0.261,0.08-0.584,0.121-0.972,0.121
	c-0.899,0-1.601-0.301-2.107-0.9c-0.506-0.602-0.759-1.43-0.759-2.484c0-1.148,0.327-2.049,0.982-2.701
	c0.656-0.654,1.553-0.98,2.693-0.98c1.266,0,2.248,0.422,2.943,1.264C189.345,244.626,189.692,245.821,189.692,247.374
	 M185.784,244.763c-0.308,0-0.558,0.111-0.749,0.334s-0.287,0.578-0.287,1.07c0,0.389,0.083,0.697,0.248,0.926
	c0.166,0.23,0.419,0.344,0.76,0.344c0.306,0,0.574-0.109,0.8-0.332c0.228-0.223,0.341-0.488,0.341-0.803
	c0-0.42-0.105-0.783-0.315-1.084C186.371,244.915,186.105,244.763,185.784,244.763"/>
<path fill="#2E2D4B" d="M193.7,250.878l0.101,0.162c-0.459,1.803-0.875,3.129-1.248,3.98h-1.98c0.137-0.652,0.275-1.385,0.415-2.195
	c0.14-0.811,0.235-1.461,0.286-1.947H193.7z"/>
<path fill="#2E2D4B" d="M195.154,248.614c0-1.447,0.207-2.619,0.621-3.514c0.414-0.896,1.023-1.559,1.83-1.984
	c0.807-0.424,1.801-0.637,2.983-0.637c0.421,0,0.912,0.039,1.474,0.119v2.193c-0.472-0.09-0.984-0.135-1.539-0.135
	c-0.936,0-1.633,0.205-2.092,0.617c-0.457,0.41-0.709,1.084-0.752,2.014h0.086c0.424-0.805,1.108-1.205,2.049-1.205
	c0.922,0,1.639,0.297,2.146,0.889c0.51,0.596,0.764,1.42,0.764,2.48c0,1.139-0.322,2.039-0.966,2.699
	c-0.643,0.66-1.542,0.988-2.696,0.988c-1.224,0-2.182-0.396-2.873-1.191C195.5,251.153,195.154,250.042,195.154,248.614
	 M198.999,250.921c0.299,0,0.541-0.113,0.728-0.338s0.28-0.582,0.28-1.074c0-0.842-0.325-1.264-0.979-1.264
	c-0.321,0-0.582,0.111-0.783,0.326c-0.201,0.219-0.303,0.482-0.303,0.795c0,0.455,0.098,0.826,0.291,1.117
	C198.428,250.774,198.684,250.921,198.999,250.921"/>
<path fill="#2E2D4B" d="M211.173,247.827c0,1.836-0.308,3.18-0.923,4.033c-0.614,0.854-1.555,1.279-2.823,1.279
	c-1.237,0-2.173-0.445-2.802-1.336c-0.629-0.893-0.943-2.217-0.943-3.977c0-1.844,0.309-3.197,0.922-4.057
	c0.615-0.861,1.555-1.291,2.823-1.291c1.233,0,2.167,0.449,2.799,1.344C210.857,244.72,211.173,246.056,211.173,247.827
	 M206.47,247.827c0,1.174,0.073,1.98,0.22,2.42s0.393,0.658,0.737,0.658c0.351,0,0.599-0.225,0.741-0.68
	c0.145-0.455,0.217-1.252,0.217-2.398c0-1.148-0.073-1.955-0.221-2.416c-0.146-0.461-0.391-0.689-0.737-0.689
	c-0.345,0-0.591,0.221-0.737,0.666C206.543,245.831,206.47,246.646,206.47,247.827"/>
<path fill="#2E2D4B" d="M66.211,279.593h-2.845v-5.49c0-0.666,0.014-1.277,0.042-1.83c-0.175,0.213-0.392,0.436-0.652,0.666
	l-1.178,0.973l-1.454-1.787l3.562-2.902h2.525V279.593z"/>
<path fill="#2E2D4B" d="M76,279.593h-7.526v-1.844l2.532-2.561c0.723-0.758,1.196-1.273,1.419-1.551
	c0.222-0.275,0.377-0.514,0.465-0.713c0.087-0.197,0.131-0.406,0.131-0.623c0-0.27-0.087-0.482-0.263-0.639
	c-0.175-0.156-0.421-0.234-0.737-0.234c-0.327,0-0.657,0.094-0.99,0.279c-0.334,0.188-0.711,0.463-1.132,0.826l-1.539-1.801
	c0.535-0.479,0.984-0.82,1.348-1.025c0.364-0.205,0.76-0.363,1.188-0.471c0.428-0.109,0.91-0.164,1.444-0.164
	c0.671,0,1.27,0.119,1.798,0.355c0.527,0.236,0.936,0.572,1.227,1.01s0.437,0.928,0.437,1.473c0,0.406-0.051,0.783-0.153,1.127
	c-0.102,0.346-0.259,0.686-0.472,1.02c-0.212,0.332-0.495,0.684-0.848,1.053c-0.351,0.369-1.102,1.068-2.252,2.1v0.07H76V279.593z"
	/>
<path fill="#2E2D4B" d="M80.086,277.472l0.1,0.164c-0.459,1.801-0.875,3.129-1.248,3.979h-1.98c0.137-0.652,0.275-1.383,0.415-2.195
	c0.14-0.811,0.235-1.459,0.287-1.947H80.086z"/>
<path fill="#2E2D4B" d="M85.754,272.798c0.596,0,1.134,0.139,1.614,0.414c0.48,0.277,0.854,0.668,1.12,1.174
	c0.268,0.508,0.402,1.092,0.402,1.752c0,1.16-0.349,2.049-1.047,2.668c-0.697,0.619-1.753,0.93-3.167,0.93
	c-1.211,0-2.199-0.188-2.965-0.561v-2.299c0.411,0.191,0.876,0.346,1.394,0.469c0.517,0.123,0.963,0.184,1.337,0.184
	c0.52,0,0.919-0.109,1.199-0.33c0.279-0.219,0.419-0.545,0.419-0.975c0-0.396-0.143-0.707-0.426-0.93
	c-0.284-0.221-0.715-0.332-1.291-0.332c-0.441,0-0.915,0.082-1.426,0.248l-1.029-0.512l0.39-5.477h5.916v2.334h-3.532l-0.128,1.369
	c0.369-0.07,0.631-0.109,0.787-0.117C85.479,272.802,85.623,272.798,85.754,272.798"/>
<path fill="#2E2D4B" d="M97.559,274.423c0,1.834-0.307,3.178-0.923,4.031c-0.614,0.854-1.555,1.281-2.823,1.281
	c-1.238,0-2.173-0.445-2.802-1.338c-0.629-0.891-0.943-2.217-0.943-3.975c0-1.846,0.308-3.197,0.922-4.059
	c0.615-0.861,1.555-1.291,2.823-1.291c1.234,0,2.167,0.449,2.799,1.344C97.243,271.313,97.559,272.649,97.559,274.423
	 M92.856,274.423c0,1.172,0.073,1.979,0.22,2.418c0.146,0.439,0.392,0.66,0.737,0.66c0.351,0,0.598-0.227,0.741-0.682
	c0.145-0.453,0.217-1.252,0.217-2.396c0-1.15-0.073-1.955-0.22-2.416c-0.146-0.461-0.392-0.691-0.738-0.691
	c-0.345,0-0.591,0.223-0.737,0.668C92.929,272.427,92.856,273.239,92.856,274.423"/>
<path fill="#2E2D4B" d="M195.77,334.88h-7.526v-1.844l2.532-2.561c0.723-0.758,1.196-1.273,1.419-1.551
	c0.222-0.275,0.377-0.514,0.466-0.713c0.086-0.197,0.131-0.406,0.131-0.623c0-0.27-0.088-0.482-0.264-0.639
	c-0.175-0.156-0.421-0.234-0.736-0.234c-0.328,0-0.657,0.094-0.99,0.279c-0.334,0.188-0.711,0.463-1.132,0.826l-1.539-1.801
	c0.535-0.479,0.984-0.82,1.348-1.025c0.364-0.205,0.76-0.363,1.188-0.471c0.428-0.109,0.911-0.164,1.444-0.164
	c0.672,0,1.27,0.119,1.799,0.355c0.526,0.236,0.936,0.572,1.227,1.01s0.437,0.928,0.437,1.473c0,0.406-0.051,0.783-0.153,1.127
	c-0.102,0.346-0.258,0.686-0.472,1.02c-0.212,0.332-0.495,0.684-0.848,1.053c-0.351,0.369-1.103,1.068-2.252,2.1v0.07h3.923V334.88z
	"/>
<path fill="#2E2D4B" d="M199.855,332.759l0.1,0.164c-0.459,1.801-0.875,3.129-1.248,3.979h-1.979
	c0.137-0.652,0.274-1.383,0.415-2.195c0.14-0.811,0.234-1.459,0.287-1.947H199.855z"/>
<path fill="#2E2D4B" d="M201.309,330.497c0-1.447,0.207-2.619,0.621-3.516s1.024-1.557,1.83-1.982
	c0.808-0.426,1.801-0.637,2.984-0.637c0.421,0,0.912,0.039,1.475,0.119v2.191c-0.473-0.09-0.985-0.135-1.539-0.135
	c-0.937,0-1.633,0.205-2.092,0.619c-0.459,0.41-0.709,1.082-0.752,2.014h0.086c0.424-0.805,1.107-1.207,2.049-1.207
	c0.922,0,1.638,0.297,2.146,0.891c0.509,0.594,0.763,1.42,0.763,2.479c0,1.141-0.322,2.039-0.965,2.699
	c-0.643,0.662-1.542,0.99-2.695,0.99c-1.225,0-2.183-0.396-2.873-1.191S201.309,331.925,201.309,330.497 M205.154,332.802
	c0.299,0,0.541-0.111,0.729-0.336c0.186-0.225,0.279-0.584,0.279-1.076c0-0.842-0.326-1.262-0.979-1.262
	c-0.322,0-0.584,0.109-0.784,0.326c-0.201,0.217-0.302,0.482-0.302,0.795c0,0.453,0.097,0.826,0.291,1.117
	S204.838,332.802,205.154,332.802"/>
<path fill="#2E2D4B" d="M217.328,329.71c0,1.834-0.307,3.178-0.924,4.031c-0.613,0.854-1.555,1.281-2.822,1.281
	c-1.238,0-2.173-0.445-2.803-1.338c-0.629-0.891-0.942-2.217-0.942-3.975c0-1.846,0.308-3.197,0.922-4.059
	c0.615-0.861,1.556-1.291,2.823-1.291c1.234,0,2.167,0.449,2.799,1.344C217.012,326.601,217.328,327.937,217.328,329.71
	 M212.625,329.71c0,1.172,0.072,1.979,0.22,2.418c0.146,0.439,0.392,0.66,0.737,0.66c0.352,0,0.598-0.227,0.74-0.682
	c0.146-0.453,0.218-1.252,0.218-2.396c0-1.15-0.073-1.955-0.22-2.416s-0.393-0.691-0.738-0.691s-0.592,0.223-0.737,0.668
	C212.697,327.714,212.625,328.526,212.625,329.71"/>
<rect x="87.991" y="65.868" transform="matrix(-0.8618 0.5073 -0.5073 -0.8618 252.7402 79.3478)" fill="#A5DAEC" width="55.138" height="16.477"/>
<rect x="87.991" y="71.66" transform="matrix(-0.8618 0.5073 -0.5073 -0.8618 252.7401 79.3463)" fill="#61A9C4" width="55.139" height="4.893"/>
<path fill="#2E2D4B" d="M14.85,357.069h-2.845v-5.49c0-0.668,0.014-1.277,0.042-1.83c-0.175,0.213-0.392,0.434-0.652,0.666
	l-1.178,0.973l-1.454-1.789l3.562-2.9h2.525V357.069z"/>
<path fill="#2E2D4B" d="M20.212,354.948l0.1,0.162c-0.459,1.803-0.875,3.129-1.248,3.98h-1.98c0.137-0.652,0.275-1.385,0.415-2.195
	s0.235-1.461,0.287-1.947H20.212z"/>
<path fill="#2E2D4B" d="M25.455,346.55c1.092,0,1.942,0.219,2.55,0.658c0.608,0.441,0.912,1.064,0.912,1.873
	c0,0.551-0.143,1.029-0.429,1.443c-0.286,0.414-0.739,0.775-1.359,1.082c0.766,0.436,1.306,0.869,1.621,1.303
	c0.314,0.434,0.471,0.898,0.471,1.4c0,0.922-0.333,1.637-1,2.143s-1.598,0.758-2.795,0.758c-1.219,0-2.154-0.246-2.801-0.74
	c-0.648-0.494-0.972-1.205-0.972-2.133c0-0.6,0.144-1.111,0.433-1.535c0.288-0.424,0.773-0.807,1.454-1.152
	c-0.549-0.369-0.95-0.766-1.203-1.188c-0.252-0.424-0.379-0.889-0.379-1.395c0-0.795,0.309-1.412,0.929-1.855
	C23.505,346.771,24.362,346.55,25.455,346.55 M24.219,354.224c0,0.295,0.105,0.529,0.313,0.707s0.497,0.266,0.865,0.266
	c0.833,0,1.249-0.305,1.249-0.916c0-0.23-0.092-0.459-0.273-0.684c-0.182-0.225-0.507-0.477-0.976-0.754
	c-0.421,0.221-0.723,0.443-0.904,0.668C24.312,353.735,24.219,353.974,24.219,354.224 M25.44,348.571
	c-0.241,0-0.444,0.068-0.61,0.209c-0.165,0.139-0.248,0.32-0.248,0.543c0,0.406,0.276,0.766,0.83,1.078
	c0.336-0.195,0.564-0.371,0.687-0.533c0.123-0.16,0.185-0.342,0.185-0.545c0-0.229-0.083-0.41-0.248-0.547
	C25.871,348.64,25.671,348.571,25.44,348.571"/>
<path fill="#2E2D4B" d="M37.685,351.897c0,1.836-0.307,3.18-0.923,4.033c-0.614,0.854-1.555,1.279-2.823,1.279
	c-1.238,0-2.173-0.445-2.802-1.336c-0.629-0.893-0.943-2.217-0.943-3.977c0-1.844,0.308-3.197,0.922-4.057
	c0.615-0.861,1.555-1.291,2.823-1.291c1.234,0,2.167,0.449,2.799,1.344C37.369,348.79,37.685,350.126,37.685,351.897
	 M32.981,351.897c0,1.174,0.073,1.98,0.22,2.42c0.146,0.439,0.392,0.658,0.737,0.658c0.351,0,0.598-0.225,0.741-0.68
	c0.145-0.455,0.217-1.252,0.217-2.398c0-1.148-0.073-1.955-0.22-2.416c-0.146-0.461-0.392-0.689-0.738-0.689
	c-0.345,0-0.591,0.221-0.737,0.666C33.055,349.901,32.981,350.716,32.981,351.897"/>
<path fill="#2E2D4B" d="M253.923,126.992c0,0.643-0.196,1.195-0.589,1.656c-0.393,0.461-0.96,0.796-1.702,1.004v0.042
	c1.729,0.218,2.597,1.036,2.597,2.455c0,0.965-0.383,1.724-1.146,2.277s-1.824,0.83-3.18,0.83c-0.56,0-1.076-0.04-1.552-0.12
	c-0.475-0.081-0.989-0.228-1.543-0.441v-2.326c0.454,0.231,0.917,0.403,1.388,0.515c0.47,0.11,0.904,0.166,1.301,0.166
	c0.615,0,1.064-0.086,1.345-0.259c0.281-0.173,0.422-0.444,0.422-0.813c0-0.283-0.073-0.502-0.22-0.656
	c-0.146-0.153-0.383-0.269-0.709-0.347c-0.327-0.078-0.752-0.117-1.277-0.117h-0.639v-2.107h0.652c1.424,0,2.136-0.364,2.136-1.092
	c0-0.274-0.105-0.478-0.315-0.61c-0.211-0.133-0.492-0.199-0.848-0.199c-0.662,0-1.348,0.222-2.057,0.666l-1.164-1.872
	c0.549-0.379,1.11-0.648,1.685-0.808c0.575-0.161,1.233-0.241,1.976-0.241c1.073,0,1.916,0.212,2.525,0.637
	C253.617,125.658,253.923,126.245,253.923,126.992"/>
<path fill="#2E2D4B" d="M258.356,132.993l0.101,0.163c-0.459,1.802-0.875,3.129-1.248,3.98h-1.98
	c0.137-0.653,0.275-1.384,0.415-2.196c0.14-0.81,0.235-1.46,0.287-1.947H258.356z"/>
<path fill="#2E2D4B" d="M267.273,135.114h-7.525v-1.845l2.531-2.56c0.723-0.757,1.196-1.274,1.419-1.55
	c0.222-0.276,0.377-0.515,0.466-0.713c0.086-0.198,0.131-0.406,0.131-0.624c0-0.27-0.088-0.482-0.264-0.639
	c-0.175-0.156-0.421-0.234-0.736-0.234c-0.328,0-0.658,0.094-0.99,0.28c-0.334,0.188-0.711,0.463-1.133,0.826l-1.539-1.801
	c0.535-0.478,0.984-0.82,1.349-1.025c0.364-0.206,0.76-0.363,1.188-0.471c0.428-0.11,0.91-0.164,1.443-0.164
	c0.671,0,1.27,0.119,1.799,0.355c0.526,0.236,0.936,0.573,1.227,1.011c0.291,0.437,0.437,0.927,0.437,1.471
	c0,0.408-0.051,0.784-0.153,1.128c-0.102,0.346-0.258,0.685-0.472,1.019c-0.212,0.333-0.495,0.684-0.848,1.053
	c-0.351,0.369-1.103,1.069-2.252,2.099v0.071h3.923V135.114z"/>
<path fill="#2E2D4B" d="M275.829,129.943c0,1.835-0.308,3.179-0.923,4.032c-0.614,0.854-1.555,1.28-2.823,1.28
	c-1.238,0-2.173-0.445-2.802-1.336c-0.629-0.892-0.943-2.217-0.943-3.976c0-1.845,0.309-3.197,0.922-4.058
	c0.615-0.861,1.555-1.291,2.823-1.291c1.233,0,2.167,0.449,2.799,1.344C275.513,126.835,275.829,128.17,275.829,129.943
	 M271.126,129.943c0,1.173,0.073,1.979,0.22,2.419c0.146,0.439,0.393,0.659,0.737,0.659c0.351,0,0.599-0.226,0.741-0.681
	c0.145-0.454,0.217-1.252,0.217-2.397c0-1.149-0.073-1.955-0.221-2.416c-0.146-0.461-0.392-0.691-0.737-0.691
	c-0.345,0-0.591,0.222-0.737,0.667C271.199,127.947,271.126,128.76,271.126,129.943"/>
</svg>
