<?xml version="1.0" encoding="utf-8"?>
<!-- Generator: Adobe Illustrator 16.0.0, SVG Export Plug-In . SVG Version: 6.00 Build 0)  -->
<!DOCTYPE svg PUBLIC "-//W3C//DTD SVG 1.1//EN" "http://www.w3.org/Graphics/SVG/1.1/DTD/svg11.dtd">
<svg version="1.1" id="Слой_1" xmlns="http://www.w3.org/2000/svg" xmlns:xlink="http://www.w3.org/1999/xlink" x="0px" y="0px"
	 width="233.219px" height="297.388px" viewBox="0 0 233.219 297.388" enable-background="new 0 0 233.219 297.388"
	 xml:space="preserve">
<rect x="45.905" y="57.403" fill="#D0EAF0" width="9.513" height="10.417"/>
<path fill="#FFFFFF" d="M55.304,67.694h-9.285V57.527h9.285V67.694z M55.532,57.278H45.79v10.667h9.742V57.278z"/>
<rect x="45.905" y="68.069" fill="#D0EAF0" width="9.513" height="10.417"/>
<path fill="#FFFFFF" d="M55.304,78.361h-9.285V68.194h9.285V78.361z M55.532,67.944H45.79v10.667h9.742V67.944z"/>
<rect x="45.905" y="78.736" fill="#D0EAF0" width="9.513" height="10.417"/>
<path fill="#FFFFFF" d="M55.304,89.028h-9.285V78.861h9.285V89.028z M55.532,78.611H45.79v10.667h9.742V78.611z"/>
<rect x="45.905" y="89.456" fill="#D0EAF0" width="9.513" height="10.417"/>
<path fill="#FFFFFF" d="M55.304,99.747h-9.285V89.58h9.285V99.747z M55.532,89.331H45.79v10.667h9.742V89.331z"/>
<rect x="45.905" y="100.123" fill="#D0EAF0" width="9.513" height="10.417"/>
<path fill="#FFFFFF" d="M55.304,110.414h-9.285v-10.167h9.285V110.414z M55.532,99.997H45.79v10.667h9.742V99.997z"/>
<rect x="45.905" y="110.789" fill="#D0EAF0" width="9.513" height="10.417"/>
<path fill="#FFFFFF" d="M55.304,121.081h-9.285v-10.167h9.285V121.081z M55.532,110.664H45.79v10.667h9.742V110.664z"/>
<rect x="36.163" y="57.403" fill="#D0EAF0" width="9.513" height="10.417"/>
<path fill="#FFFFFF" d="M45.562,67.694h-9.284V57.527h9.284V67.694z M45.79,57.278h-9.742v10.667h9.742V57.278z"/>
<rect x="36.163" y="68.069" fill="#D0EAF0" width="9.513" height="10.417"/>
<path fill="#FFFFFF" d="M45.562,78.361h-9.284V68.194h9.284V78.361z M45.79,67.944h-9.742v10.667h9.742V67.944z"/>
<rect x="36.163" y="78.736" fill="#D0EAF0" width="9.513" height="10.417"/>
<path fill="#FFFFFF" d="M45.562,89.028h-9.284V78.861h9.284V89.028z M45.79,78.611h-9.742v10.667h9.742V78.611z"/>
<rect x="36.163" y="89.456" fill="#D0EAF0" width="9.513" height="10.417"/>
<path fill="#FFFFFF" d="M45.562,99.747h-9.284V89.58h9.284V99.747z M45.79,89.331h-9.742v10.667h9.742V89.331z"/>
<rect x="36.163" y="100.123" fill="#D0EAF0" width="9.513" height="10.417"/>
<path fill="#FFFFFF" d="M45.562,110.414h-9.284v-10.167h9.284V110.414z M45.79,99.997h-9.742v10.667h9.742V99.997z"/>
<rect x="36.163" y="110.789" fill="#D0EAF0" width="9.513" height="10.417"/>
<path fill="#FFFFFF" d="M45.562,121.081h-9.284v-10.167h9.284V121.081z M45.79,110.664h-9.742v10.667h9.742V110.664z"/>
<rect x="26.431" y="57.403" fill="#D0EAF0" width="9.515" height="10.417"/>
<path fill="#FFFFFF" d="M35.83,67.694h-9.285V57.527h9.285V67.694z M36.058,57.278h-9.74v10.667h9.74V57.278z"/>
<rect x="26.431" y="68.069" fill="#D0EAF0" width="9.515" height="10.417"/>
<path fill="#FFFFFF" d="M35.83,78.361h-9.285V68.194h9.285V78.361z M36.058,67.944h-9.74v10.667h9.74V67.944z"/>
<rect x="26.431" y="78.736" fill="#D0EAF0" width="9.515" height="10.417"/>
<path fill="#FFFFFF" d="M35.83,89.028h-9.285V78.861h9.285V89.028z M36.058,78.611h-9.74v10.667h9.74V78.611z"/>
<rect x="26.431" y="89.456" fill="#D0EAF0" width="9.515" height="10.417"/>
<path fill="#FFFFFF" d="M35.83,99.747h-9.285V89.58h9.285V99.747z M36.058,89.331h-9.74v10.667h9.74V89.331z"/>
<rect x="26.431" y="100.123" fill="#D0EAF0" width="9.515" height="10.417"/>
<path fill="#FFFFFF" d="M35.83,110.414h-9.285v-10.167h9.285V110.414z M36.058,99.997h-9.74v10.667h9.74V99.997z"/>
<rect x="26.431" y="110.789" fill="#D0EAF0" width="9.515" height="10.417"/>
<path fill="#FFFFFF" d="M35.83,121.081h-9.285v-10.167h9.285V121.081z M36.058,110.664h-9.74v10.667h9.74V110.664z"/>
<rect x="16.688" y="57.403" fill="#D0EAF0" width="9.515" height="10.417"/>
<path fill="#FFFFFF" d="M26.088,67.694h-9.285V57.527h9.285V67.694z M26.316,57.278h-9.742v10.667h9.742V57.278z"/>
<rect x="16.688" y="68.069" fill="#D0EAF0" width="9.515" height="10.417"/>
<path fill="#FFFFFF" d="M26.088,78.361h-9.285V68.194h9.285V78.361z M26.316,67.944h-9.742v10.667h9.742V67.944z"/>
<rect x="16.688" y="78.736" fill="#D0EAF0" width="9.515" height="10.417"/>
<path fill="#FFFFFF" d="M26.088,89.028h-9.285V78.861h9.285V89.028z M26.316,78.611h-9.742v10.667h9.742V78.611z"/>
<rect x="16.688" y="89.456" fill="#D0EAF0" width="9.515" height="10.417"/>
<path fill="#FFFFFF" d="M26.088,99.747h-9.285V89.58h9.285V99.747z M26.316,89.331h-9.742v10.667h9.742V89.331z"/>
<rect x="16.688" y="100.123" fill="#D0EAF0" width="9.515" height="10.417"/>
<path fill="#FFFFFF" d="M26.088,110.414h-9.285v-10.167h9.285V110.414z M26.316,99.997h-9.742v10.667h9.742V99.997z"/>
<rect x="16.688" y="110.789" fill="#D0EAF0" width="9.515" height="10.417"/>
<path fill="#FFFFFF" d="M26.088,121.081h-9.285v-10.167h9.285V121.081z M26.316,110.664h-9.742v10.667h9.742V110.664z"/>
<rect x="7.47" y="57.403" fill="#D0EAF0" width="9.049" height="10.417"/>
<path fill="#FFFFFF" d="M16.404,67.694h-8.82V57.527h8.82V67.694z M16.632,57.278H7.356v10.667h9.275V57.278z"/>
<rect x="7.47" y="68.069" fill="#D0EAF0" width="9.049" height="10.417"/>
<path fill="#FFFFFF" d="M16.404,78.361h-8.82V68.194h8.82V78.361z M16.632,67.944H7.356v10.667h9.275V67.944z"/>
<rect x="7.47" y="78.736" fill="#D0EAF0" width="9.049" height="10.417"/>
<path fill="#FFFFFF" d="M16.404,89.028h-8.82V78.861h8.82V89.028z M16.632,78.611H7.356v10.667h9.275V78.611z"/>
<rect x="7.47" y="89.456" fill="#D0EAF0" width="9.049" height="10.417"/>
<path fill="#FFFFFF" d="M16.404,99.747h-8.82V89.58h8.82V99.747z M16.632,89.331H7.356v10.667h9.275V89.331z"/>
<rect x="7.47" y="100.123" fill="#D0EAF0" width="9.049" height="10.417"/>
<path fill="#FFFFFF" d="M16.404,110.414h-8.82v-10.167h8.82V110.414z M16.632,99.997H7.356v10.667h9.275V99.997z"/>
<rect x="7.47" y="110.789" fill="#D0EAF0" width="9.049" height="10.417"/>
<path fill="#FFFFFF" d="M16.404,121.081h-8.82v-10.167h8.82V121.081z M16.632,110.664H7.356v10.667h9.275V110.664z"/>
<rect x="45.905" y="121.331" fill="#D0EAF0" width="9.513" height="10.417"/>
<path fill="#FFFFFF" d="M55.304,131.622h-9.285v-10.167h9.285V131.622z M55.532,121.206H45.79v10.667h9.742V121.206z"/>
<rect x="45.905" y="131.964" fill="#D0EAF0" width="9.513" height="7.746"/>
<path fill="#FFFFFF" d="M55.304,139.619h-9.285v-7.561h9.285V139.619z M55.532,131.872H45.79v7.932h9.742V131.872z"/>
<rect x="36.163" y="121.331" fill="#D0EAF0" width="9.513" height="10.417"/>
<path fill="#FFFFFF" d="M45.562,131.622h-9.284v-10.167h9.284V131.622z M45.79,121.206h-9.742v10.667h9.742V121.206z"/>
<rect x="36.163" y="131.96" fill="#D0EAF0" width="9.513" height="7.438"/>
<path fill="#FFFFFF" d="M45.562,139.311h-9.284v-7.26h9.284V139.311z M45.79,131.872h-9.742v7.617h9.742V131.872z"/>
<rect x="26.431" y="121.331" fill="#D0EAF0" width="9.515" height="10.417"/>
<path fill="#FFFFFF" d="M35.83,131.622h-9.285v-10.167h9.285V131.622z M36.058,121.206h-9.74v10.667h9.74V121.206z"/>
<rect x="26.431" y="131.963" fill="#D0EAF0" width="9.515" height="7.682"/>
<path fill="#FFFFFF" d="M35.83,139.555h-9.285v-7.498h9.285V139.555z M36.058,131.872h-9.74v7.867h9.74V131.872z"/>
<rect x="16.688" y="121.331" fill="#D0EAF0" width="9.515" height="10.417"/>
<path fill="#FFFFFF" d="M26.088,131.622h-9.285v-10.167h9.285V131.622z M26.316,121.206h-9.742v10.667h9.742V121.206z"/>
<rect x="16.688" y="131.997" fill="#D0EAF0" width="9.515" height="10.417"/>
<path fill="#FFFFFF" d="M26.088,142.289h-9.285v-10.167h9.285V142.289z M26.316,131.872h-9.742v10.667h9.742V131.872z"/>
<rect x="16.688" y="142.664" fill="#D0EAF0" width="9.515" height="10.417"/>
<path fill="#FFFFFF" d="M26.088,152.956h-9.285v-10.167h9.285V152.956z M26.316,142.539h-9.742v10.667h9.742V142.539z"/>
<rect x="7.47" y="121.331" fill="#D0EAF0" width="9.049" height="10.417"/>
<path fill="#FFFFFF" d="M16.404,131.622h-8.82v-10.167h8.82V131.622z M16.632,121.206H7.356v10.667h9.275V121.206z"/>
<rect x="7.47" y="131.997" fill="#D0EAF0" width="9.049" height="10.417"/>
<path fill="#FFFFFF" d="M16.404,142.289h-8.82v-10.167h8.82V142.289z M16.632,131.872H7.356v10.667h9.275V131.872z"/>
<rect x="7.47" y="142.664" fill="#D0EAF0" width="9.049" height="10.417"/>
<path fill="#FFFFFF" d="M16.404,152.956h-8.82v-10.167h8.82V152.956z M16.632,142.539H7.356v10.667h9.275V142.539z"/>
<rect x="7.47" y="153.381" fill="#D0EAF0" width="9.049" height="10.417"/>
<path fill="#FFFFFF" d="M16.404,163.673h-8.82v-10.167h8.82V163.673z M16.632,153.257H7.356v10.667h9.275V153.257z"/>
<rect x="7.47" y="164.048" fill="#D0EAF0" width="9.049" height="10.417"/>
<path fill="#FFFFFF" d="M16.404,174.34h-8.82v-10.167h8.82V174.34z M16.632,163.923H7.356v10.667h9.275V163.923z"/>
<rect x="7.47" y="174.715" fill="#D0EAF0" width="9.049" height="10.417"/>
<path fill="#FFFFFF" d="M16.404,185.007h-8.82V174.84h8.82V185.007z M16.632,174.59H7.356v10.667h9.275V174.59z"/>
<rect x="91.97" y="223.179" fill="#2E2D4B" width="64.25" height="14.875"/>
<polyline fill="#2E2D4B" points="0.001,248.679 19.803,248.679 19.803,263.554 0.001,263.554 "/>
<rect x="60.636" y="248.679" fill="#2E2D4B" width="46.25" height="14.875"/>
<rect x="0.001" y="44.805" fill="#2E2D4B" width="7.438" height="205.917"/>
<polyline fill="#2E2D4B" points="7.438,0.97 7.438,16.303 0.001,16.303 0.001,0.97 "/>
<rect x="2.803" y="0.97" fill="#2E2D4B" width="222.958" height="5.958"/>
<rect x="92.303" y="105.179" fill="#2E2D4B" width="24.708" height="6.062"/>
<rect x="201.178" y="105.179" fill="#2E2D4B" width="24.708" height="6.062"/>
<rect x="92.303" y="105.18" fill="#2E2D4B" width="130.125" height="6.875"/>
<rect x="0.001" y="108.555" fill="#2E2D4B" width="58.885" height="3.5"/>
<rect x="0.636" y="53.741" fill="#2E2D4B" width="58.25" height="3.5"/>
<rect x="88.303" y="136.805" fill="#2E2D4B" width="7.167" height="3.5"/>
<rect x="5.47" y="136.805" fill="#2E2D4B" width="57" height="3.5"/>
<rect x="5.47" y="157.055" fill="#2E2D4B" width="28.5" height="3.5"/>
<rect x="91.97" y="136.805" fill="#2E2D4B" width="3.5" height="88.25"/>
<rect x="91.886" y="89.305" fill="#2E2D4B" width="3.583" height="22.75"/>
<rect x="91.886" y="0.97" fill="#2E2D4B" width="3.583" height="63.083"/>
<rect x="55.303" y="87.866" fill="#2E2D4B" width="3.583" height="26.188"/>
<rect x="55.303" y="53.741" fill="#2E2D4B" width="3.583" height="12.188"/>
<rect x="1.97" y="221.763" fill="#2E2D4B" width="3.5" height="75.625"/>
<polyline fill="#2E2D4B" points="1.97,293.888 100.178,293.888 100.178,297.388 1.97,297.388 "/>
<rect x="210.637" y="223.179" fill="#2E2D4B" width="22.583" height="14.875"/>
<rect x="216.887" y="194.387" fill="#2E2D4B" width="16.333" height="36.229"/>
<rect x="216.887" y="92.054" fill="#2E2D4B" width="16.333" height="47.333"/>
<rect x="216.887" y="0.971" fill="#2E2D4B" width="16.333" height="35.584"/>
<rect x="91.969" y="235.741" fill="#2E2D4B" width="14.917" height="14.875"/>
<rect x="96.178" y="262.304" fill="#2E2D4B" width="4" height="35.084"/>
<rect x="30.512" y="137.68" fill="#2E2D4B" width="3.458" height="22.875"/>
<rect x="24.704" y="137.68" fill="#2E2D4B" width="2.604" height="22.875"/>
<rect x="18.417" y="137.68" fill="#2E2D4B" width="2.604" height="22.875"/>
<rect x="19.537" y="146.827" fill="#2E2D4B" width="12.938" height="2.603"/>
<rect x="11.949" y="144.224" fill="#2E2D4B" width="7.588" height="2.603"/>
<rect x="11.949" y="139.238" fill="#2E2D4B" width="2.603" height="7.588"/>
<rect x="213.532" y="217.304" fill="#2E2D4B" width="9.854" height="13.313"/>
<rect x="7.438" y="112.055" fill="#9E9D9B" width="12.1" height="24.75"/>
<rect x="7.438" y="140.305" fill="#9E9D9B" width="4.512" height="16.75"/>
<rect x="11.636" y="146.827" fill="#9E9D9B" width="6.782" height="10.228"/>
<rect x="27.308" y="149.43" fill="#9E9D9B" width="3.203" height="7.625"/>
<rect x="21.021" y="149.43" fill="#9E9D9B" width="3.685" height="7.625"/>
<rect x="27.308" y="140.304" fill="#9E9D9B" width="3.203" height="6.541"/>
<rect x="21.021" y="140.304" fill="#9E9D9B" width="3.685" height="6.541"/>
<polygon fill="#D7D7D5" points="24.705,140.304 22.178,142.096 21.021,146.845 24.705,146.845 "/>
<polygon fill="#D7D7D5" points="24.705,149.425 22.178,151.515 21.021,157.054 24.705,157.054 "/>
<rect x="14.552" y="140.305" fill="#9E9D9B" width="3.866" height="3.919"/>
<polygon fill="#D7D7D5" points="16.157,141.658 18.418,140.304 18.418,144.223 14.552,144.223 "/>
<rect x="216.886" y="139.387" fill="#A5DAEC" width="16.333" height="55"/>
<rect x="222.628" y="139.387" fill="#61A9C4" width="4.85" height="55"/>
<rect x="216.886" y="36.555" fill="#A5DAEC" width="16.333" height="55.667"/>
<rect x="222.628" y="36.555" fill="#61A9C4" width="4.85" height="55.667"/>
<rect x="19.803" y="248.679" fill="#A5DAEC" width="41" height="14.875"/>
<rect x="19.803" y="253.909" fill="#61A9C4" width="41" height="4.417"/>
<rect x="156.219" y="223.179" fill="#A5DAEC" width="54.417" height="14.875"/>
<rect x="156.219" y="228.409" fill="#61A9C4" width="54.417" height="4.417"/>
<rect x="86.053" y="136.805" fill="#E3004F" width="2.25" height="3.125"/>
<rect x="77.171" y="134.054" transform="matrix(-0.707 -0.7072 0.7072 -0.707 30.286 304.8654)" fill="#E3004F" width="2.25" height="24.21"/>
<rect x="55.303" y="85.616" fill="#E3004F" width="3.125" height="2.25"/>
<rect x="63.533" y="65.755" transform="matrix(-0.7071 -0.7071 0.7071 -0.7071 55.322 178.6358)" fill="#E3004F" width="2.25" height="24.21"/>
<rect x="55.303" y="134.555" fill="#E3004F" width="3.125" height="2.25"/>
<rect x="63.533" y="114.693" transform="matrix(-0.7071 -0.7071 0.7071 -0.7071 20.718 262.1774)" fill="#E3004F" width="2.25" height="24.21"/>
<rect x="0.001" y="16.305" fill="#E3004F" width="3.125" height="2.25"/>
<rect x="8.231" y="14.206" transform="matrix(-0.7071 0.7071 -0.7071 -0.7071 34.5751 38.2996)" fill="#E3004F" width="2.25" height="24.209"/>
<rect x="91.886" y="86.18" fill="#E3004F" width="2.25" height="3.125"/>
<rect x="100.767" y="67.845" transform="matrix(0.7071 0.7071 -0.7071 0.7071 86.3763 -48.6319)" fill="#E3004F" width="2.25" height="24.21"/>
<rect x="91.886" y="112.055" fill="#E3004F" width="2.25" height="3.125"/>
<rect x="100.767" y="109.304" transform="matrix(0.707 -0.7072 0.7072 0.707 -56.0077 107.6327)" fill="#E3004F" width="2.25" height="24.21"/>
<rect x="19.803" y="260.429" fill="#E3004F" width="2.25" height="3.125"/>
<rect x="28.684" y="242.095" transform="matrix(0.7071 0.7071 -0.7071 0.7071 188.4772 53.3752)" fill="#E3004F" width="2.25" height="24.21"/>
<rect x="7.437" y="60.22" fill="#61A9C4" width="21.5" height="48.333"/>
<path fill="#FFFFFF" d="M20.205,101.71h-0.494c-0.101,0.454-0.444,0.797-0.897,0.897v0.494
	C19.531,102.993,20.096,102.43,20.205,101.71"/>
<path fill="#FFFFFF" d="M19.211,101.71h-0.397v0.397C18.996,102.038,19.14,101.894,19.211,101.71"/>
<path fill="#FFFFFF" d="M19.711,101.21h0.493c-0.108-0.719-0.673-1.282-1.391-1.391v0.494
	C19.267,100.414,19.61,100.756,19.711,101.21"/>
<path fill="#FFFFFF" d="M18.813,100.813v0.397h0.396C19.141,101.027,18.996,100.884,18.813,100.813"/>
<path fill="#FFFFFF" d="M18.313,102.108v-0.397h-0.397C17.986,101.894,18.13,102.037,18.313,102.108"/>
<path fill="#FFFFFF" d="M17.916,101.21h0.396v-0.397C18.13,100.883,17.986,101.027,17.916,101.21"/>
<path fill="#FFFFFF" d="M9.563,102.918c0,1.3,1.063,2.364,2.364,2.364h12.521c1.3,0,2.364-1.064,2.364-2.364V72.751
	c0-0.166-0.02-0.329-0.052-0.486c0.032-0.306,0.052-0.616,0.052-0.93c0-4.764-3.862-8.625-8.625-8.625
	c-4.764,0-8.625,3.861-8.625,8.625c0,0.314,0.019,0.624,0.052,0.93c-0.034,0.157-0.052,0.32-0.052,0.486V102.918z M15.542,101.21
	h0.879c0.116-0.993,0.899-1.775,1.893-1.891v-0.88h0.5v0.88c0.993,0.116,1.774,0.898,1.891,1.891h0.88v0.5h-0.88
	c-0.116,0.993-0.897,1.775-1.891,1.891v0.88h-0.5v-0.88c-0.993-0.116-1.776-0.898-1.893-1.891h-0.879V101.21z"/>
<path fill="#FFFFFF" d="M18.313,103.102v-0.494c-0.454-0.1-0.797-0.444-0.897-0.897h-0.495
	C17.031,102.429,17.594,102.993,18.313,103.102"/>
<path fill="#FFFFFF" d="M18.313,100.313v-0.494c-0.72,0.109-1.282,0.673-1.393,1.391h0.495
	C17.517,100.757,17.859,100.413,18.313,100.313"/>
<path fill="#61A9C4" d="M45.428,108.554v-5.771v-1.323v-0.843c0-1.983-1.622-3.605-3.604-3.605h-7.125
	c-1.981,0-3.604,1.622-3.604,3.605v0.843v1.323v5.771H45.428z"/>
<path fill="#FFFFFF" d="M34.688,97.887h7.146c1.529,0,2.78,1.252,2.78,2.781v1.833c0,1.53-1.251,2.781-2.78,2.781h-7.146
	c-1.53,0-2.781-1.251-2.781-2.781v-1.833C31.907,99.139,33.158,97.887,34.688,97.887"/>
<path fill="#61A9C4" d="M39.471,101.645h-0.364c-0.074,0.334-0.327,0.587-0.661,0.661v0.364
	C38.975,102.589,39.391,102.173,39.471,101.645"/>
<path fill="#61A9C4" d="M38.738,101.645h-0.293v0.293C38.58,101.886,38.687,101.78,38.738,101.645"/>
<path fill="#61A9C4" d="M39.106,101.276h0.364c-0.08-0.53-0.496-0.945-1.025-1.025v0.364
	C38.779,100.689,39.032,100.942,39.106,101.276"/>
<path fill="#61A9C4" d="M38.445,100.983v0.293h0.293C38.687,101.142,38.58,101.036,38.445,100.983"/>
<path fill="#61A9C4" d="M38.077,101.938v-0.293h-0.293C37.836,101.78,37.942,101.886,38.077,101.938"/>
<path fill="#61A9C4" d="M37.784,101.276h0.293v-0.293C37.942,101.036,37.836,101.142,37.784,101.276"/>
<path fill="#61A9C4" d="M38.077,102.669v-0.364c-0.334-0.074-0.587-0.327-0.661-0.661h-0.364
	C37.132,102.173,37.548,102.589,38.077,102.669"/>
<path fill="#61A9C4" d="M38.077,100.615v-0.364c-0.53,0.08-0.945,0.496-1.025,1.025h0.364
	C37.49,100.942,37.743,100.689,38.077,100.615"/>
<path fill="#61A9C4" d="M39.609,123.242v2.375c0,2.475-2.025,4.5-4.5,4.5h-4.625c-2.476,0-4.5-2.025-4.5-4.5v-2.375
	c0-2.475,2.024-4.5,4.5-4.5h4.625C37.584,118.742,39.609,120.767,39.609,123.242"/>
<path fill="#FFFFFF" d="M38.536,123.631v1.596c0,2.156-1.754,3.911-3.91,3.911h-5.23c-2.156,0-3.911-1.755-3.911-3.911v-1.596
	c0-2.156,1.755-3.91,3.911-3.91h5.23C36.782,119.721,38.536,121.475,38.536,123.631 M26.484,125.227
	c0,1.605,1.306,2.911,2.911,2.911h5.23c1.604,0,2.91-1.306,2.91-2.911v-1.596c0-1.605-1.306-2.91-2.91-2.91h-5.23
	c-1.605,0-2.911,1.305-2.911,2.91V125.227z"/>
<path fill="#61A9C4" d="M26.287,119.179v10.5c0,0.619-0.506,1.125-1.125,1.125h-4.5c-0.619,0-1.125-0.506-1.125-1.125v-10.5
	c0-0.619,0.506-1.125,1.125-1.125h4.5C25.781,118.054,26.287,118.56,26.287,119.179"/>
<path fill="#61A9C4" d="M28.026,122.679v3.5c0,0.269-0.22,0.49-0.489,0.49h-2.5c-0.27,0-0.489-0.221-0.489-0.49v-3.5
	c0-0.269,0.22-0.49,0.489-0.49h2.5C27.807,122.189,28.026,122.41,28.026,122.679"/>
<path fill="#FFFFFF" d="M22.912,123.483c0.522,0,0.946,0.424,0.946,0.946c0,0.523-0.424,0.947-0.946,0.947s-0.946-0.424-0.946-0.947
	C21.966,123.907,22.39,123.483,22.912,123.483"/>
<rect x="7.438" y="171.15" fill="#B2D4DC" width="17.106" height="21.387"/>
<path fill="#FFFFFF" d="M10.344,175.468v6.103v0.772v8.604h0.49v-7.052c0.219,0.311,0.5,0.57,0.825,0.769v6.283h0.491V184.9
	c0.259,0.094,0.536,0.152,0.825,0.162v5.885h0.491v-5.875h0.823v5.875h0.492v-5.875h0.824v5.875h0.492v-5.875h0.824v5.875h0.49
	v-5.875h0.825v5.875h0.491v-5.875h0.824v5.875h0.492v-5.885c0.288-0.01,0.563-0.068,0.822-0.162v6.047h0.493v-6.283
	c0.324-0.199,0.607-0.458,0.824-0.769v7.052h0.491v-8.604v-0.772v-6.103c0-1.501-1.229-2.729-2.729-2.729h-6.875
	C11.571,172.739,10.344,173.967,10.344,175.468"/>
<path fill="#61A9C4" d="M7.438,176.869v4.333h2.904v-1.666h2.843c0.153,0,0.28-0.127,0.28-0.282v-0.437
	c0-0.155-0.127-0.281-0.28-0.281h-2.843v-1.667H7.438z"/>
<path fill="#FFFFFF" d="M8.893,179.638c0.269,0,0.483,0.217,0.483,0.484c0,0.268-0.215,0.485-0.483,0.485s-0.483-0.217-0.483-0.485
	C8.409,179.855,8.624,179.638,8.893,179.638"/>
<path fill="#FFFFFF" d="M8.893,177.466c0.269,0,0.483,0.217,0.483,0.484c0,0.268-0.215,0.485-0.483,0.485s-0.483-0.217-0.483-0.485
	C8.409,177.683,8.624,177.466,8.893,177.466"/>
<rect x="7.437" y="202.324" fill="#B2D4DC" width="2.905" height="15.25"/>
<rect x="10.343" y="202.324" fill="#61A9C4" width="14.202" height="15.25"/>
<rect x="25.206" y="203.824" fill="#61A9C4" width="0.927" height="12.25"/>
<path fill="#FFFFFF" d="M16.22,206.615c0,1.327-1.08,2.405-2.405,2.405c-1.327,0-2.406-1.078-2.406-2.405
	c0-1.326,1.079-2.405,2.406-2.405C15.14,204.21,16.22,205.29,16.22,206.615 M12.158,206.615c0,0.913,0.743,1.655,1.656,1.655
	s1.657-0.742,1.657-1.655s-0.744-1.655-1.657-1.655S12.158,205.702,12.158,206.615"/>
<path fill="#FFFFFF" d="M15.064,206.615c0,0.689-0.562,1.25-1.25,1.25c-0.689,0-1.25-0.561-1.25-1.25s0.561-1.25,1.25-1.25
	C14.503,205.365,15.064,205.926,15.064,206.615 M13.314,206.615c0,0.275,0.224,0.5,0.5,0.5c0.274,0,0.5-0.225,0.5-0.5
	s-0.226-0.5-0.5-0.5C13.538,206.115,13.314,206.34,13.314,206.615"/>
<path fill="#FFFFFF" d="M21.794,206.615c0,0.908-0.739,1.646-1.646,1.646c-0.908,0-1.646-0.737-1.646-1.646
	c0-0.907,0.737-1.646,1.646-1.646C21.055,204.969,21.794,205.708,21.794,206.615 M19.252,206.615c0,0.494,0.401,0.896,0.896,0.896
	s0.896-0.402,0.896-0.896c0-0.494-0.402-0.896-0.896-0.896S19.252,206.122,19.252,206.615"/>
<path fill="#FFFFFF" d="M23.481,206.615c0,1.838-1.496,3.334-3.334,3.334s-3.333-1.496-3.333-3.334s1.495-3.333,3.333-3.333
	S23.481,204.777,23.481,206.615 M17.564,206.615c0,1.425,1.158,2.584,2.583,2.584s2.584-1.159,2.584-2.584
	c0-1.424-1.159-2.583-2.584-2.583S17.564,205.191,17.564,206.615"/>
<path fill="#FFFFFF" d="M18.669,213.283c0-1.327,1.08-2.405,2.405-2.405c1.327,0,2.406,1.078,2.406,2.405
	c0,1.326-1.079,2.405-2.406,2.405C19.749,215.688,18.669,214.609,18.669,213.283 M22.73,213.283c0-0.913-0.743-1.655-1.656-1.655
	s-1.655,0.742-1.655,1.655s0.742,1.655,1.655,1.655S22.73,214.196,22.73,213.283"/>
<path fill="#FFFFFF" d="M19.825,213.283c0-0.688,0.561-1.25,1.25-1.25c0.688,0,1.25,0.562,1.25,1.25s-0.563,1.25-1.25,1.25
	C20.386,214.533,19.825,213.972,19.825,213.283 M21.575,213.283c0-0.274-0.225-0.5-0.5-0.5c-0.276,0-0.5,0.226-0.5,0.5
	s0.224,0.5,0.5,0.5C21.351,213.783,21.575,213.558,21.575,213.283"/>
<path fill="#FFFFFF" d="M13.096,213.283c0-0.907,0.738-1.646,1.646-1.646c0.908,0,1.646,0.738,1.646,1.646s-0.738,1.646-1.646,1.646
	C13.834,214.929,13.096,214.19,13.096,213.283 M15.638,213.283c0-0.493-0.402-0.896-0.896-0.896s-0.896,0.402-0.896,0.896
	c0,0.494,0.401,0.896,0.896,0.896S15.638,213.777,15.638,213.283"/>
<path fill="#FFFFFF" d="M11.408,213.283c0-1.838,1.496-3.334,3.334-3.334c1.837,0,3.333,1.496,3.333,3.334s-1.496,3.333-3.333,3.333
	C12.904,216.616,11.408,215.121,11.408,213.283 M17.325,213.283c0-1.425-1.159-2.584-2.583-2.584c-1.426,0-2.584,1.159-2.584,2.584
	s1.158,2.583,2.584,2.583C16.166,215.866,17.325,214.708,17.325,213.283"/>
<rect x="24.546" y="211.72" fill="#B2D4DC" width="0.66" height="1.481"/>
<rect x="24.546" y="206.698" fill="#B2D4DC" width="0.66" height="1.481"/>
<rect x="7.438" y="226.241" fill="#B2D4DC" width="17.106" height="16.938"/>
<path fill="#61A9C4" d="M25.018,243.174c0.615-0.015,1.115-0.397,1.115-0.87v-15.188c0-0.471-0.5-0.854-1.115-0.869V243.174z"/>
<path fill="#FFFFFF" d="M109.764-0.484c0-0.268,0.218-0.484,0.483-0.484c0.269,0,0.486,0.216,0.486,0.484
	c0,0.267-0.218,0.484-0.486,0.484C109.981,0,109.764-0.217,109.764-0.484"/>
<path fill="#FFFFFF" d="M107.592-0.484c0-0.268,0.218-0.484,0.483-0.484c0.269,0,0.486,0.216,0.486,0.484
	c0,0.267-0.218,0.484-0.486,0.484C107.81,0,107.592-0.217,107.592-0.484"/>
<rect x="7.438" y="160.554" fill="#D0EAF0" width="17.106" height="10.595"/>
<rect x="7.438" y="192.581" fill="#D0EAF0" width="17.106" height="9.743"/>
<rect x="7.438" y="217.573" fill="#D0EAF0" width="17.106" height="8.668"/>
<rect x="7.438" y="243.174" fill="#D0EAF0" width="17.106" height="5.505"/>
<path fill="#E3004F" d="M146.27,191.764h-34.249v-8.393l11.523-11.653c3.293-3.442,5.444-5.794,6.455-7.053
	c1.013-1.258,1.717-2.339,2.115-3.244c0.398-0.903,0.598-1.85,0.598-2.841c0-1.226-0.398-2.194-1.194-2.904
	c-0.797-0.711-1.916-1.065-3.357-1.065c-1.484,0-2.985,0.424-4.503,1.274c-1.517,0.851-3.233,2.105-5.148,3.761l-7.006-8.199
	c2.433-2.173,4.477-3.728,6.134-4.664s3.459-1.652,5.407-2.147c1.947-0.495,4.137-0.742,6.569-0.742
	c3.054,0,5.782,0.538,8.183,1.613c2.399,1.077,4.261,2.611,5.584,4.601c1.324,1.99,1.985,4.223,1.985,6.697
	c0,1.852-0.231,3.563-0.693,5.133c-0.464,1.571-1.179,3.115-2.147,4.632c-0.968,1.517-2.254,3.115-3.857,4.794
	c-1.604,1.678-5.02,4.863-10.248,9.554v0.323h17.851V191.764z"/>
<path fill="#2E2D4B" d="M159.537,149.51c0,0.987-0.302,1.834-0.904,2.542c-0.603,0.707-1.473,1.221-2.612,1.54v0.065
	c2.656,0.334,3.984,1.589,3.984,3.767c0,1.481-0.586,2.645-1.758,3.494c-1.173,0.849-2.8,1.274-4.883,1.274
	c-0.856,0-1.648-0.062-2.378-0.186c-0.729-0.123-1.519-0.348-2.368-0.675v-3.57c0.697,0.355,1.406,0.619,2.128,0.789
	c0.723,0.171,1.389,0.256,1.998,0.256c0.942,0,1.631-0.132,2.063-0.398c0.432-0.264,0.647-0.679,0.647-1.246
	c0-0.436-0.112-0.771-0.337-1.006c-0.227-0.236-0.588-0.415-1.089-0.534c-0.501-0.12-1.153-0.179-1.959-0.179h-0.979v-3.234h1.001
	c2.185,0,3.276-0.558,3.276-1.676c0-0.42-0.161-0.733-0.484-0.936s-0.756-0.305-1.301-0.305c-1.016,0-2.068,0.341-3.156,1.024
	l-1.785-2.874c0.842-0.58,1.703-0.995,2.585-1.242c0.882-0.246,1.893-0.37,3.031-0.37c1.647,0,2.939,0.327,3.876,0.979
	C159.068,147.463,159.537,148.364,159.537,149.51"/>
<path fill="#2E2D4B" d="M173.133,161.974h-11.55v-2.83l3.886-3.93c1.11-1.161,1.836-1.954,2.178-2.379
	c0.34-0.424,0.578-0.789,0.713-1.093c0.134-0.305,0.201-0.624,0.201-0.958c0-0.414-0.135-0.741-0.403-0.98
	c-0.268-0.239-0.646-0.359-1.132-0.359c-0.5,0-1.007,0.143-1.519,0.429c-0.512,0.287-1.09,0.71-1.736,1.269l-2.361-2.765
	c0.819-0.733,1.509-1.258,2.068-1.573c0.559-0.315,1.166-0.557,1.823-0.724c0.656-0.167,1.396-0.251,2.215-0.251
	c1.03,0,1.95,0.182,2.76,0.545c0.809,0.363,1.437,0.88,1.882,1.551c0.447,0.671,0.671,1.425,0.671,2.259
	c0,0.624-0.078,1.201-0.234,1.73c-0.156,0.531-0.397,1.051-0.724,1.563c-0.327,0.512-0.761,1.051-1.301,1.616
	c-0.541,0.567-1.693,1.641-3.457,3.223v0.108h6.021V161.974z"/>
<path fill="#2E2D4B" d="M179.402,158.719l0.152,0.25c-0.704,2.766-1.343,4.801-1.916,6.107h-3.037
	c0.211-1.002,0.423-2.125,0.637-3.369c0.215-1.244,0.361-2.24,0.441-2.988H179.402z"/>
<path fill="#2E2D4B" d="M188.1,151.545c0.915,0,1.74,0.213,2.477,0.637c0.737,0.425,1.311,1.025,1.721,1.801
	c0.409,0.777,0.614,1.673,0.614,2.69c0,1.777-0.535,3.142-1.605,4.093c-1.07,0.95-2.69,1.425-4.86,1.425
	c-1.857,0-3.374-0.287-4.55-0.86v-3.526c0.631,0.29,1.344,0.529,2.139,0.718c0.794,0.189,1.479,0.283,2.052,0.283
	c0.799,0,1.411-0.168,1.84-0.506s0.643-0.836,0.643-1.497c0-0.61-0.218-1.085-0.653-1.426s-1.096-0.512-1.981-0.512
	c-0.675,0-1.404,0.127-2.188,0.381l-1.578-0.783l0.6-8.404h9.078v3.582h-5.421l-0.196,2.1c0.566-0.108,0.969-0.169,1.209-0.179
	C187.676,151.551,187.896,151.545,188.1,151.545"/>
<path fill="#2E2D4B" d="M206.214,154.039c0,2.815-0.473,4.879-1.415,6.188c-0.944,1.31-2.388,1.965-4.333,1.965
	c-1.901,0-3.335-0.683-4.3-2.051c-0.965-1.369-1.447-3.403-1.447-6.102c0-2.83,0.472-4.905,1.415-6.227
	c0.943-1.32,2.387-1.981,4.332-1.981c1.895,0,3.325,0.687,4.295,2.063C205.729,149.269,206.214,151.317,206.214,154.039
	 M198.996,154.039c0,1.8,0.112,3.037,0.338,3.712c0.224,0.675,0.603,1.013,1.132,1.013c0.537,0,0.916-0.349,1.137-1.045
	c0.223-0.698,0.332-1.924,0.332-3.68c0-1.764-0.111-2.999-0.337-3.707c-0.225-0.707-0.603-1.061-1.132-1.061
	s-0.908,0.341-1.132,1.023C199.108,150.976,198.996,152.225,198.996,154.039"/>
<path fill="#2E2D4B" d="M156.375,178.278c0.915,0,1.74,0.213,2.477,0.637c0.737,0.425,1.311,1.025,1.721,1.801
	c0.409,0.777,0.614,1.673,0.614,2.69c0,1.777-0.535,3.142-1.605,4.093c-1.07,0.95-2.69,1.425-4.86,1.425
	c-1.857,0-3.374-0.287-4.55-0.86v-3.526c0.631,0.29,1.344,0.529,2.139,0.718c0.794,0.189,1.479,0.283,2.052,0.283
	c0.799,0,1.411-0.168,1.84-0.506s0.643-0.836,0.643-1.497c0-0.61-0.218-1.085-0.653-1.426s-1.096-0.512-1.981-0.512
	c-0.675,0-1.404,0.127-2.188,0.381l-1.578-0.783l0.6-8.404h9.078v3.582h-5.421l-0.196,2.1c0.566-0.108,0.969-0.169,1.209-0.179
	C155.951,178.284,156.172,178.278,156.375,178.278"/>
<polygon fill="#2E2D4B" points="164.485,188.707 169.949,176.374 163.059,176.374 163.059,172.813 174.543,172.813 174.543,175.351 
	168.938,188.707 "/>
<path fill="#2E2D4B" d="M180.693,185.452l0.152,0.25c-0.704,2.766-1.343,4.801-1.916,6.107h-3.037
	c0.211-1.002,0.423-2.125,0.637-3.369c0.215-1.244,0.361-2.24,0.441-2.988H180.693z"/>
<path fill="#2E2D4B" d="M188.737,172.563c1.677,0,2.981,0.338,3.914,1.013s1.398,1.633,1.398,2.874c0,0.842-0.22,1.58-0.658,2.215
	c-0.439,0.635-1.134,1.188-2.085,1.66c1.176,0.668,2.005,1.333,2.487,1.997s0.725,1.381,0.725,2.151c0,1.415-0.512,2.51-1.535,3.287
	c-1.023,0.776-2.453,1.165-4.289,1.165c-1.873,0-3.306-0.379-4.3-1.138c-0.994-0.758-1.491-1.849-1.491-3.271
	c0-0.921,0.222-1.707,0.664-2.357c0.442-0.649,1.187-1.239,2.231-1.768c-0.842-0.567-1.457-1.174-1.845-1.824
	c-0.389-0.649-0.583-1.362-0.583-2.139c0-1.219,0.476-2.168,1.427-2.846C185.748,172.903,187.062,172.563,188.737,172.563
	 M186.844,184.341c0,0.45,0.159,0.812,0.479,1.083c0.319,0.272,0.762,0.408,1.327,0.408c1.277,0,1.916-0.468,1.916-1.404
	c0-0.356-0.14-0.705-0.419-1.05c-0.279-0.345-0.778-0.732-1.497-1.159c-0.646,0.341-1.108,0.683-1.388,1.028
	S186.844,183.957,186.844,184.341 M188.716,175.666c-0.37,0-0.682,0.107-0.936,0.321c-0.254,0.214-0.381,0.491-0.381,0.833
	c0,0.624,0.424,1.176,1.273,1.655c0.515-0.298,0.867-0.57,1.056-0.817s0.283-0.526,0.283-0.838c0-0.348-0.127-0.628-0.381-0.839
	C189.377,175.771,189.071,175.666,188.716,175.666"/>
<path fill="#2E2D4B" d="M207.505,180.771c0,2.815-0.473,4.879-1.415,6.188c-0.944,1.31-2.388,1.965-4.333,1.965
	c-1.901,0-3.335-0.683-4.3-2.051c-0.965-1.369-1.447-3.403-1.447-6.102c0-2.83,0.472-4.905,1.415-6.227
	c0.943-1.32,2.387-1.981,4.332-1.981c1.895,0,3.325,0.687,4.295,2.063C207.021,176.001,207.505,178.049,207.505,180.771
	 M200.287,180.771c0,1.8,0.112,3.037,0.338,3.712c0.224,0.675,0.603,1.013,1.132,1.013c0.537,0,0.916-0.349,1.137-1.045
	c0.223-0.698,0.332-1.924,0.332-3.68c0-1.764-0.111-2.999-0.337-3.707c-0.225-0.707-0.603-1.061-1.132-1.061
	s-0.908,0.341-1.132,1.023C200.399,177.708,200.287,178.957,200.287,180.771"/>
<rect x="149.148" y="167.367" fill="#2E2D4B" width="58.897" height="1.775"/>
<path fill="#2E2D4B" d="M61.379,10.3c1.093,0,1.942,0.219,2.55,0.659c0.608,0.44,0.912,1.064,0.912,1.873
	c0,0.549-0.143,1.029-0.429,1.443s-0.739,0.775-1.358,1.082c0.766,0.435,1.306,0.869,1.62,1.302s0.472,0.899,0.472,1.4
	c0,0.923-0.333,1.637-1,2.144c-0.667,0.506-1.599,0.759-2.795,0.759c-1.22,0-2.154-0.247-2.802-0.742
	c-0.647-0.494-0.972-1.204-0.972-2.131c0-0.601,0.145-1.113,0.433-1.536s0.773-0.807,1.454-1.153
	c-0.549-0.368-0.949-0.765-1.203-1.187c-0.252-0.424-0.379-0.888-0.379-1.395c0-0.794,0.31-1.412,0.93-1.854
	C59.431,10.521,60.287,10.3,61.379,10.3 M60.145,17.974c0,0.294,0.104,0.529,0.313,0.706c0.208,0.178,0.497,0.266,0.865,0.266
	c0.833,0,1.249-0.305,1.249-0.915c0-0.231-0.092-0.46-0.273-0.685c-0.182-0.224-0.507-0.475-0.976-0.754
	c-0.421,0.221-0.724,0.445-0.904,0.669C60.236,17.486,60.145,17.724,60.145,17.974 M61.365,12.321c-0.241,0-0.444,0.069-0.61,0.209
	c-0.165,0.14-0.248,0.32-0.248,0.543c0,0.406,0.276,0.766,0.83,1.078c0.336-0.194,0.564-0.371,0.688-0.532
	c0.123-0.16,0.185-0.343,0.185-0.546c0-0.228-0.083-0.409-0.248-0.546C61.795,12.389,61.597,12.321,61.365,12.321"/>
<path fill="#2E2D4B" d="M69.14,18.698l0.1,0.163c-0.459,1.802-0.875,3.129-1.248,3.98h-1.979c0.137-0.653,0.274-1.384,0.415-2.196
	c0.14-0.81,0.234-1.46,0.287-1.947H69.14z"/>
<path fill="#2E2D4B" d="M70.594,16.435c0-1.447,0.207-2.619,0.62-3.514c0.414-0.897,1.024-1.558,1.83-1.984
	c0.808-0.425,1.802-0.637,2.984-0.637c0.421,0,0.912,0.04,1.475,0.12v2.192c-0.473-0.09-0.985-0.135-1.539-0.135
	c-0.937,0-1.634,0.205-2.093,0.618c-0.458,0.411-0.709,1.083-0.752,2.014h0.086c0.425-0.805,1.108-1.206,2.05-1.206
	c0.922,0,1.638,0.297,2.146,0.89c0.509,0.594,0.763,1.42,0.763,2.479c0,1.14-0.321,2.039-0.965,2.699
	c-0.643,0.661-1.542,0.99-2.695,0.99c-1.225,0-2.183-0.397-2.873-1.192C70.939,18.974,70.594,17.863,70.594,16.435 M74.438,18.741
	c0.299,0,0.541-0.112,0.728-0.337s0.28-0.583,0.28-1.075c0-0.842-0.326-1.263-0.979-1.263c-0.322,0-0.583,0.11-0.784,0.326
	c-0.201,0.218-0.302,0.483-0.302,0.795c0,0.454,0.097,0.826,0.291,1.117S74.122,18.741,74.438,18.741"/>
<path fill="#2E2D4B" d="M86.612,15.648c0,1.835-0.307,3.179-0.923,4.032c-0.614,0.854-1.556,1.28-2.823,1.28
	c-1.238,0-2.173-0.445-2.802-1.336c-0.63-0.892-0.943-2.217-0.943-3.976c0-1.845,0.308-3.197,0.922-4.058
	c0.615-0.861,1.556-1.291,2.823-1.291c1.234,0,2.167,0.449,2.799,1.344C86.296,12.541,86.612,13.875,86.612,15.648 M81.909,15.648
	c0,1.173,0.073,1.979,0.22,2.419c0.146,0.439,0.393,0.659,0.737,0.659c0.351,0,0.598-0.226,0.741-0.681
	c0.145-0.454,0.217-1.252,0.217-2.397c0-1.149-0.073-1.955-0.22-2.416s-0.393-0.691-0.738-0.691c-0.345,0-0.591,0.222-0.737,0.667
	C81.982,13.652,81.909,14.465,81.909,15.648"/>
<path fill="#2E2D4B" d="M59.316,245.927h-2.845v-5.49c0-0.666,0.014-1.277,0.042-1.83c-0.175,0.213-0.393,0.434-0.652,0.666
	l-1.178,0.973l-1.454-1.789l3.562-2.9h2.525V245.927z"/>
<path fill="#2E2D4B" d="M69.148,240.756c0,1.835-0.308,3.179-0.923,4.032c-0.614,0.854-1.556,1.279-2.823,1.279
	c-1.238,0-2.173-0.444-2.802-1.336s-0.943-2.217-0.943-3.976c0-1.845,0.308-3.196,0.922-4.058c0.615-0.861,1.555-1.291,2.823-1.291
	c1.233,0,2.167,0.449,2.799,1.344C68.832,237.647,69.148,238.983,69.148,240.756 M64.445,240.756c0,1.173,0.073,1.979,0.22,2.419
	s0.393,0.659,0.737,0.659c0.351,0,0.598-0.226,0.741-0.681c0.145-0.455,0.217-1.252,0.217-2.397c0-1.149-0.073-1.955-0.22-2.416
	s-0.393-0.69-0.738-0.69c-0.345,0-0.591,0.222-0.737,0.666S64.445,239.573,64.445,240.756"/>
<path fill="#2E2D4B" d="M73.191,243.806l0.1,0.163c-0.459,1.802-0.875,3.129-1.248,3.979h-1.979
	c0.137-0.652,0.275-1.383,0.415-2.195c0.14-0.811,0.235-1.461,0.287-1.947H73.191z"/>
<path fill="#2E2D4B" d="M78.434,235.407c1.093,0,1.942,0.22,2.55,0.66c0.608,0.439,0.912,1.063,0.912,1.873
	c0,0.549-0.143,1.028-0.429,1.442s-0.739,0.774-1.358,1.082c0.766,0.435,1.306,0.868,1.62,1.302s0.472,0.898,0.472,1.4
	c0,0.923-0.333,1.637-1,2.143s-1.599,0.76-2.795,0.76c-1.22,0-2.154-0.248-2.802-0.742s-0.972-1.205-0.972-2.131
	c0-0.602,0.145-1.113,0.433-1.537c0.288-0.422,0.773-0.807,1.454-1.152c-0.549-0.368-0.949-0.766-1.203-1.188
	c-0.252-0.424-0.379-0.888-0.379-1.395c0-0.794,0.31-1.412,0.93-1.854C76.485,235.628,77.342,235.407,78.434,235.407
	 M77.199,243.081c0,0.295,0.104,0.529,0.313,0.707s0.497,0.266,0.865,0.266c0.833,0,1.249-0.305,1.249-0.915
	c0-0.231-0.092-0.46-0.273-0.685s-0.507-0.475-0.976-0.754c-0.421,0.221-0.724,0.445-0.904,0.668
	C77.291,242.594,77.199,242.831,77.199,243.081 M78.42,237.429c-0.241,0-0.444,0.068-0.61,0.209
	c-0.165,0.141-0.248,0.32-0.248,0.543c0,0.406,0.276,0.766,0.83,1.078c0.336-0.193,0.564-0.371,0.688-0.531s0.185-0.344,0.185-0.547
	c0-0.229-0.083-0.408-0.248-0.546C78.85,237.497,78.651,237.429,78.42,237.429"/>
<path fill="#2E2D4B" d="M90.664,240.756c0,1.835-0.308,3.179-0.923,4.032c-0.614,0.854-1.556,1.279-2.823,1.279
	c-1.238,0-2.173-0.444-2.802-1.336s-0.943-2.217-0.943-3.976c0-1.845,0.308-3.196,0.922-4.058c0.615-0.861,1.555-1.291,2.823-1.291
	c1.233,0,2.167,0.449,2.799,1.344C90.348,237.647,90.664,238.983,90.664,240.756 M85.961,240.756c0,1.173,0.073,1.979,0.22,2.419
	s0.393,0.659,0.737,0.659c0.351,0,0.598-0.226,0.741-0.681c0.145-0.455,0.217-1.252,0.217-2.397c0-1.149-0.073-1.955-0.22-2.416
	s-0.393-0.69-0.738-0.69c-0.345,0-0.591,0.222-0.737,0.666S85.961,239.573,85.961,240.756"/>
<path fill="#2E2D4B" d="M102.86,219.422h-2.845v-5.489c0-0.668,0.014-1.279,0.042-1.83c-0.176,0.213-0.393,0.434-0.652,0.666
	l-1.178,0.971l-1.454-1.787l3.562-2.901h2.525V219.422z"/>
<polygon fill="#2E2D4B" points="106.173,219.422 109.734,211.385 105.244,211.385 105.244,209.065 112.728,209.065 112.728,210.718 
	109.073,219.422 "/>
<path fill="#2E2D4B" d="M116.735,217.301l0.1,0.163c-0.459,1.803-0.875,3.129-1.248,3.98h-1.979
	c0.137-0.653,0.274-1.385,0.415-2.197c0.14-0.809,0.234-1.459,0.287-1.946H116.735z"/>
<path fill="#2E2D4B" d="M125.695,214.251c0,1.835-0.308,3.18-0.923,4.032c-0.614,0.854-1.556,1.28-2.823,1.28
	c-1.238,0-2.173-0.445-2.802-1.336c-0.629-0.893-0.943-2.217-0.943-3.977c0-1.846,0.308-3.197,0.922-4.059
	c0.615-0.86,1.555-1.291,2.823-1.291c1.233,0,2.167,0.449,2.799,1.345C125.379,211.144,125.695,212.478,125.695,214.251
	 M120.992,214.251c0,1.174,0.073,1.979,0.22,2.419c0.146,0.438,0.393,0.659,0.737,0.659c0.351,0,0.598-0.227,0.741-0.682
	c0.145-0.453,0.217-1.252,0.217-2.396c0-1.148-0.073-1.955-0.22-2.416s-0.393-0.691-0.738-0.691c-0.345,0-0.591,0.223-0.737,0.668
	C121.065,212.255,120.992,213.067,120.992,214.251"/>
<path fill="#2E2D4B" d="M134.208,214.251c0,1.835-0.307,3.18-0.923,4.032c-0.614,0.854-1.556,1.28-2.823,1.28
	c-1.238,0-2.173-0.445-2.802-1.336c-0.63-0.893-0.943-2.217-0.943-3.977c0-1.846,0.308-3.197,0.922-4.059
	c0.615-0.86,1.556-1.291,2.823-1.291c1.234,0,2.167,0.449,2.799,1.345C133.892,211.144,134.208,212.478,134.208,214.251
	 M129.505,214.251c0,1.174,0.073,1.979,0.22,2.419c0.146,0.438,0.393,0.659,0.737,0.659c0.351,0,0.598-0.227,0.741-0.682
	c0.145-0.453,0.217-1.252,0.217-2.396c0-1.148-0.073-1.955-0.22-2.416s-0.393-0.691-0.738-0.691c-0.345,0-0.591,0.223-0.737,0.668
	C129.578,212.255,129.505,213.067,129.505,214.251"/>
<path fill="#2E2D4B" d="M31.306,72.84c0,0.643-0.196,1.195-0.589,1.656s-0.96,0.796-1.702,1.004v0.042
	c1.73,0.218,2.596,1.036,2.596,2.455c0,0.965-0.382,1.724-1.146,2.277c-0.763,0.553-1.824,0.83-3.181,0.83
	c-0.559,0-1.075-0.04-1.551-0.12c-0.475-0.081-0.99-0.228-1.543-0.441v-2.326c0.454,0.231,0.917,0.403,1.387,0.515
	c0.471,0.11,0.905,0.166,1.302,0.166c0.614,0,1.063-0.086,1.345-0.259c0.281-0.173,0.422-0.444,0.422-0.813
	c0-0.283-0.073-0.502-0.22-0.656c-0.146-0.153-0.383-0.269-0.709-0.347c-0.327-0.078-0.752-0.117-1.277-0.117h-0.639v-2.107h0.653
	c1.423,0,2.135-0.364,2.135-1.092c0-0.274-0.105-0.478-0.315-0.61c-0.211-0.133-0.493-0.199-0.848-0.199
	c-0.662,0-1.349,0.222-2.058,0.666l-1.164-1.872c0.55-0.379,1.111-0.648,1.686-0.808c0.575-0.161,1.232-0.241,1.976-0.241
	c1.073,0,1.915,0.212,2.525,0.637C31.001,71.506,31.306,72.093,31.306,72.84"/>
<path fill="#2E2D4B" d="M35.739,78.841l0.1,0.163c-0.459,1.802-0.875,3.129-1.248,3.98h-1.979c0.137-0.653,0.274-1.384,0.415-2.196
	c0.14-0.81,0.234-1.46,0.287-1.947H35.739z"/>
<path fill="#2E2D4B" d="M44.656,80.962H37.13v-1.845l2.532-2.56c0.723-0.757,1.196-1.274,1.419-1.55
	c0.223-0.276,0.377-0.515,0.465-0.713c0.087-0.198,0.131-0.406,0.131-0.624c0-0.27-0.087-0.482-0.263-0.639
	c-0.175-0.156-0.421-0.234-0.737-0.234c-0.326,0-0.656,0.094-0.989,0.28c-0.334,0.188-0.711,0.463-1.132,0.826l-1.539-1.801
	c0.534-0.478,0.983-0.82,1.348-1.025c0.364-0.206,0.76-0.363,1.188-0.471c0.429-0.11,0.91-0.164,1.444-0.164
	c0.671,0,1.271,0.119,1.798,0.355c0.527,0.236,0.937,0.573,1.228,1.011c0.291,0.437,0.437,0.927,0.437,1.471
	c0,0.408-0.051,0.784-0.152,1.128c-0.103,0.346-0.26,0.685-0.473,1.019c-0.212,0.333-0.495,0.684-0.848,1.053
	c-0.352,0.369-1.103,1.069-2.252,2.099v0.071h3.923V80.962z"/>
<path fill="#2E2D4B" d="M53.212,75.792c0,1.835-0.307,3.179-0.923,4.032c-0.614,0.854-1.556,1.28-2.823,1.28
	c-1.238,0-2.173-0.445-2.802-1.336c-0.63-0.892-0.943-2.217-0.943-3.976c0-1.845,0.308-3.197,0.922-4.058
	c0.615-0.861,1.556-1.291,2.823-1.291c1.234,0,2.167,0.449,2.799,1.344C52.896,72.684,53.212,74.019,53.212,75.792 M48.509,75.792
	c0,1.173,0.073,1.979,0.22,2.419c0.146,0.439,0.393,0.659,0.737,0.659c0.351,0,0.598-0.226,0.741-0.681
	c0.145-0.454,0.217-1.252,0.217-2.397c0-1.149-0.073-1.955-0.22-2.416s-0.393-0.691-0.738-0.691c-0.345,0-0.591,0.222-0.737,0.667
	C48.582,73.795,48.509,74.608,48.509,75.792"/>
<path fill="#2E2D4B" d="M180.895,20.819h-2.845v-5.49c0-0.667,0.014-1.278,0.042-1.83c-0.175,0.213-0.393,0.434-0.652,0.666
	l-1.178,0.972l-1.454-1.788l3.562-2.901h2.525V20.819z"/>
<path fill="#2E2D4B" d="M187.435,14.023c0.596,0,1.134,0.139,1.614,0.415c0.479,0.276,0.854,0.668,1.12,1.174
	c0.268,0.507,0.401,1.091,0.401,1.752c0,1.159-0.349,2.048-1.047,2.668c-0.697,0.619-1.753,0.928-3.167,0.928
	c-1.211,0-2.199-0.186-2.965-0.56v-2.298c0.411,0.19,0.876,0.345,1.394,0.468c0.518,0.123,0.964,0.184,1.337,0.184
	c0.521,0,0.92-0.109,1.199-0.33c0.279-0.219,0.419-0.545,0.419-0.974c0-0.398-0.143-0.707-0.426-0.93
	c-0.284-0.222-0.715-0.333-1.291-0.333c-0.44,0-0.915,0.082-1.426,0.248l-1.029-0.511l0.39-5.476h5.916v2.334h-3.531l-0.128,1.369
	c0.368-0.071,0.631-0.11,0.786-0.117C187.158,14.027,187.303,14.023,187.435,14.023"/>
<path fill="#2E2D4B" d="M194.77,18.698l0.1,0.163c-0.459,1.802-0.875,3.129-1.248,3.98h-1.979c0.137-0.653,0.275-1.384,0.415-2.196
	c0.14-0.81,0.235-1.46,0.287-1.947H194.77z"/>
<path fill="#2E2D4B" d="M200.438,14.023c0.596,0,1.134,0.139,1.614,0.415c0.479,0.276,0.854,0.668,1.119,1.174
	c0.269,0.507,0.402,1.091,0.402,1.752c0,1.159-0.349,2.048-1.047,2.668c-0.697,0.619-1.753,0.928-3.167,0.928
	c-1.211,0-2.199-0.186-2.965-0.56v-2.298c0.411,0.19,0.876,0.345,1.394,0.468c0.518,0.123,0.963,0.184,1.338,0.184
	c0.52,0,0.918-0.109,1.198-0.33c0.279-0.219,0.419-0.545,0.419-0.974c0-0.398-0.143-0.707-0.426-0.93
	c-0.284-0.222-0.715-0.333-1.291-0.333c-0.441,0-0.915,0.082-1.426,0.248l-1.029-0.511l0.391-5.476h5.916v2.334h-3.532l-0.128,1.369
	c0.369-0.071,0.631-0.11,0.787-0.117C200.161,14.027,200.306,14.023,200.438,14.023"/>
<path fill="#2E2D4B" d="M212.242,15.648c0,1.835-0.308,3.179-0.923,4.032c-0.614,0.854-1.556,1.28-2.823,1.28
	c-1.238,0-2.173-0.445-2.802-1.336c-0.629-0.892-0.943-2.217-0.943-3.976c0-1.845,0.308-3.197,0.922-4.058
	c0.615-0.861,1.555-1.291,2.823-1.291c1.233,0,2.167,0.449,2.799,1.344C211.926,12.541,212.242,13.875,212.242,15.648
	 M207.539,15.648c0,1.173,0.073,1.979,0.22,2.419c0.146,0.439,0.393,0.659,0.737,0.659c0.351,0,0.598-0.226,0.741-0.681
	c0.145-0.454,0.217-1.252,0.217-2.397c0-1.149-0.073-1.955-0.22-2.416s-0.393-0.691-0.738-0.691c-0.345,0-0.591,0.222-0.737,0.667
	C207.612,13.652,207.539,14.465,207.539,15.648"/>
<path fill="#2E2D4B" d="M71.34,275.681h-2.845v-5.49c0-0.666,0.014-1.277,0.042-1.83c-0.175,0.213-0.393,0.434-0.652,0.666
	l-1.178,0.973l-1.454-1.789l3.562-2.9h2.525V275.681z"/>
<path fill="#2E2D4B" d="M76.702,273.56l0.1,0.163c-0.459,1.802-0.875,3.129-1.248,3.979h-1.979c0.137-0.652,0.274-1.383,0.415-2.195
	c0.14-0.811,0.234-1.461,0.287-1.947H76.702z"/>
<path fill="#2E2D4B" d="M85.662,270.51c0,1.835-0.308,3.179-0.923,4.032c-0.614,0.854-1.556,1.279-2.823,1.279
	c-1.238,0-2.173-0.444-2.802-1.336s-0.943-2.217-0.943-3.976c0-1.845,0.308-3.196,0.922-4.058c0.615-0.861,1.555-1.291,2.823-1.291
	c1.233,0,2.167,0.449,2.799,1.344C85.346,267.401,85.662,268.737,85.662,270.51 M80.959,270.51c0,1.173,0.073,1.979,0.22,2.419
	s0.393,0.659,0.737,0.659c0.351,0,0.598-0.226,0.741-0.681c0.145-0.455,0.217-1.252,0.217-2.397c0-1.149-0.073-1.955-0.22-2.416
	s-0.393-0.69-0.738-0.69c-0.345,0-0.591,0.222-0.737,0.666S80.959,269.327,80.959,270.51"/>
<path fill="#2E2D4B" d="M94.175,270.51c0,1.835-0.307,3.179-0.923,4.032c-0.614,0.854-1.556,1.279-2.823,1.279
	c-1.238,0-2.173-0.444-2.802-1.336c-0.63-0.892-0.943-2.217-0.943-3.976c0-1.845,0.308-3.196,0.922-4.058
	c0.615-0.861,1.556-1.291,2.823-1.291c1.234,0,2.167,0.449,2.799,1.344C93.858,267.401,94.175,268.737,94.175,270.51 M89.472,270.51
	c0,1.173,0.073,1.979,0.22,2.419s0.393,0.659,0.737,0.659c0.351,0,0.598-0.226,0.741-0.681c0.145-0.455,0.217-1.252,0.217-2.397
	c0-1.149-0.073-1.955-0.22-2.416s-0.393-0.69-0.738-0.69c-0.345,0-0.591,0.222-0.737,0.666S89.472,269.327,89.472,270.51"/>
<path fill="#2E2D4B" d="M28.649,128.764h-2.845v-5.49c0-0.667,0.014-1.278,0.042-1.83c-0.176,0.213-0.393,0.434-0.652,0.666
	l-1.178,0.972l-1.454-1.788l3.562-2.901h2.525V128.764z"/>
<path fill="#2E2D4B" d="M34.012,126.643l0.1,0.163c-0.459,1.802-0.875,3.129-1.248,3.98h-1.979c0.137-0.653,0.275-1.384,0.415-2.196
	c0.14-0.81,0.235-1.46,0.287-1.947H34.012z"/>
<polygon fill="#2E2D4B" points="36.452,128.764 40.014,120.727 35.523,120.727 35.523,118.408 43.007,118.408 43.007,120.06 
	39.353,128.764 "/>
<path fill="#2E2D4B" d="M51.484,123.593c0,1.835-0.308,3.179-0.923,4.032c-0.614,0.854-1.556,1.28-2.823,1.28
	c-1.238,0-2.173-0.445-2.802-1.336c-0.629-0.892-0.943-2.217-0.943-3.976c0-1.845,0.308-3.197,0.922-4.058
	c0.615-0.861,1.555-1.291,2.823-1.291c1.233,0,2.167,0.449,2.799,1.344C51.168,120.485,51.484,121.82,51.484,123.593
	 M46.781,123.593c0,1.173,0.073,1.979,0.22,2.419c0.146,0.439,0.393,0.659,0.737,0.659c0.351,0,0.598-0.226,0.741-0.681
	c0.145-0.454,0.217-1.252,0.217-2.397c0-1.149-0.073-1.955-0.22-2.416s-0.393-0.691-0.738-0.691c-0.345,0-0.591,0.222-0.737,0.667
	C46.854,121.597,46.781,122.41,46.781,123.593"/>
</svg>
