<?xml version="1.0" encoding="utf-8"?>
<!-- Generator: Adobe Illustrator 16.0.0, SVG Export Plug-In . SVG Version: 6.00 Build 0)  -->
<!DOCTYPE svg PUBLIC "-//W3C//DTD SVG 1.1//EN" "http://www.w3.org/Graphics/SVG/1.1/DTD/svg11.dtd">
<svg version="1.1" id="Слой_1" xmlns="http://www.w3.org/2000/svg" xmlns:xlink="http://www.w3.org/1999/xlink" x="0px" y="0px"
	 width="434.667px" height="212.333px" viewBox="0 0 434.667 212.333" enable-background="new 0 0 434.667 212.333"
	 xml:space="preserve">
<rect x="228.007" y="155.041" fill="#D0EAF0" width="10.417" height="10.417"/>
<path fill="#FFFFFF" d="M238.298,165.333h-10.167v-10.167h10.167V165.333z M238.548,154.916h-10.667v10.667h10.667V154.916z"/>
<rect x="238.673" y="155.041" fill="#D0EAF0" width="10.417" height="10.417"/>
<path fill="#FFFFFF" d="M248.965,165.333h-10.167v-10.167h10.167V165.333z M249.215,154.916h-10.667v10.667h10.667V154.916z"/>
<rect x="249.34" y="155.041" fill="#D0EAF0" width="10.417" height="10.417"/>
<path fill="#FFFFFF" d="M259.631,165.333h-10.167v-10.167h10.167V165.333z M259.881,154.916h-10.667v10.667h10.667V154.916z"/>
<rect x="260.057" y="155.041" fill="#D0EAF0" width="10.417" height="10.417"/>
<path fill="#FFFFFF" d="M270.349,165.333h-10.167v-10.167h10.167V165.333z M270.599,154.916h-10.667v10.667h10.667V154.916z"/>
<rect x="270.724" y="155.041" fill="#D0EAF0" width="10.417" height="10.417"/>
<path fill="#FFFFFF" d="M281.016,165.333h-10.167v-10.167h10.167V165.333z M281.266,154.916h-10.667v10.667h10.667V154.916z"/>
<rect x="281.391" y="155.041" fill="#D0EAF0" width="10.417" height="10.417"/>
<path fill="#FFFFFF" d="M291.683,165.333h-10.167v-10.167h10.167V165.333z M291.933,154.916h-10.667v10.667h10.667V154.916z"/>
<rect x="228.007" y="144.375" fill="#D0EAF0" width="10.417" height="10.417"/>
<path fill="#FFFFFF" d="M238.298,154.666h-10.167v-10.167h10.167V154.666z M238.548,144.25h-10.667v10.667h10.667V144.25z"/>
<rect x="238.673" y="144.375" fill="#D0EAF0" width="10.417" height="10.417"/>
<path fill="#FFFFFF" d="M248.965,154.666h-10.167v-10.167h10.167V154.666z M249.215,144.25h-10.667v10.667h10.667V144.25z"/>
<rect x="249.34" y="144.375" fill="#D0EAF0" width="10.417" height="10.417"/>
<path fill="#FFFFFF" d="M259.631,154.666h-10.167v-10.167h10.167V154.666z M259.881,144.25h-10.667v10.667h10.667V144.25z"/>
<rect x="260.057" y="144.375" fill="#D0EAF0" width="10.417" height="10.417"/>
<path fill="#FFFFFF" d="M270.349,154.666h-10.167v-10.167h10.167V154.666z M270.599,144.25h-10.667v10.667h10.667V144.25z"/>
<rect x="270.724" y="144.375" fill="#D0EAF0" width="10.417" height="10.417"/>
<path fill="#FFFFFF" d="M281.016,154.666h-10.167v-10.167h10.167V154.666z M281.266,144.25h-10.667v10.667h10.667V144.25z"/>
<rect x="281.391" y="144.375" fill="#D0EAF0" width="10.417" height="10.417"/>
<path fill="#FFFFFF" d="M291.683,154.666h-10.167v-10.167h10.167V154.666z M291.933,144.25h-10.667v10.667h10.667V144.25z"/>
<rect x="228.007" y="165.708" fill="#D0EAF0" width="10.417" height="10.417"/>
<path fill="#FFFFFF" d="M238.298,176h-10.167v-10.167h10.167V176z M238.548,165.583h-10.667v10.667h10.667V165.583z"/>
<rect x="238.673" y="165.708" fill="#D0EAF0" width="10.417" height="10.417"/>
<path fill="#FFFFFF" d="M248.965,176h-10.167v-10.167h10.167V176z M249.215,165.583h-10.667v10.667h10.667V165.583z"/>
<rect x="249.34" y="165.708" fill="#D0EAF0" width="10.417" height="10.417"/>
<path fill="#FFFFFF" d="M259.631,176h-10.167v-10.167h10.167V176z M259.881,165.583h-10.667v10.667h10.667V165.583z"/>
<rect x="260.057" y="165.708" fill="#D0EAF0" width="10.417" height="10.417"/>
<path fill="#FFFFFF" d="M270.349,176h-10.167v-10.167h10.167V176z M270.599,165.583h-10.667v10.667h10.667V165.583z"/>
<rect x="270.724" y="165.708" fill="#D0EAF0" width="10.417" height="10.417"/>
<path fill="#FFFFFF" d="M281.016,176h-10.167v-10.167h10.167V176z M281.266,165.583h-10.667v10.667h10.667V165.583z"/>
<rect x="281.391" y="165.708" fill="#D0EAF0" width="10.417" height="10.417"/>
<path fill="#FFFFFF" d="M291.683,176h-10.167v-10.167h10.167V176z M291.933,165.583h-10.667v10.667h10.667V165.583z"/>
<rect x="228.007" y="176.365" fill="#D0EAF0" width="10.417" height="10.416"/>
<path fill="#FFFFFF" d="M238.298,186.656h-10.167v-10.167h10.167V186.656z M238.548,176.239h-10.667v10.667h10.667V176.239z"/>
<rect x="238.673" y="176.365" fill="#D0EAF0" width="10.417" height="10.416"/>
<path fill="#FFFFFF" d="M248.965,186.656h-10.167v-10.167h10.167V186.656z M249.215,176.239h-10.667v10.667h10.667V176.239z"/>
<rect x="249.34" y="176.365" fill="#D0EAF0" width="10.417" height="10.416"/>
<path fill="#FFFFFF" d="M259.631,186.656h-10.167v-10.167h10.167V186.656z M259.881,176.239h-10.667v10.667h10.667V176.239z"/>
<rect x="260.057" y="176.365" fill="#D0EAF0" width="10.417" height="10.416"/>
<path fill="#FFFFFF" d="M270.349,186.656h-10.167v-10.167h10.167V186.656z M270.599,176.239h-10.667v10.667h10.667V176.239z"/>
<rect x="270.724" y="176.365" fill="#D0EAF0" width="10.417" height="10.416"/>
<path fill="#FFFFFF" d="M281.016,186.656h-10.167v-10.167h10.167V186.656z M281.266,176.239h-10.667v10.667h10.667V176.239z"/>
<rect x="281.391" y="176.365" fill="#D0EAF0" width="10.417" height="10.416"/>
<path fill="#FFFFFF" d="M291.683,186.656h-10.167v-10.167h10.167V186.656z M291.933,176.239h-10.667v10.667h10.667V176.239z"/>
<rect x="228.007" y="187.031" fill="#D0EAF0" width="10.417" height="10.417"/>
<path fill="#FFFFFF" d="M238.298,197.323h-10.167v-10.167h10.167V197.323z M238.548,186.906h-10.667v10.667h10.667V186.906z"/>
<rect x="238.673" y="187.031" fill="#D0EAF0" width="10.417" height="10.417"/>
<path fill="#FFFFFF" d="M248.965,197.323h-10.167v-10.167h10.167V197.323z M249.215,186.906h-10.667v10.667h10.667V186.906z"/>
<rect x="249.34" y="187.031" fill="#D0EAF0" width="10.417" height="10.417"/>
<path fill="#FFFFFF" d="M259.631,197.323h-10.167v-10.167h10.167V197.323z M259.881,186.906h-10.667v10.667h10.667V186.906z"/>
<rect x="260.057" y="187.031" fill="#D0EAF0" width="10.417" height="10.417"/>
<path fill="#FFFFFF" d="M270.349,197.323h-10.167v-10.167h10.167V197.323z M270.599,186.906h-10.667v10.667h10.667V186.906z"/>
<rect x="270.724" y="187.031" fill="#D0EAF0" width="10.417" height="10.417"/>
<path fill="#FFFFFF" d="M281.016,197.323h-10.167v-10.167h10.167V197.323z M281.266,186.906h-10.667v10.667h10.667V186.906z"/>
<rect x="281.391" y="187.031" fill="#D0EAF0" width="10.417" height="10.417"/>
<path fill="#FFFFFF" d="M291.683,197.323h-10.167v-10.167h10.167V197.323z M291.933,186.906h-10.667v10.667h10.667V186.906z"/>
<rect x="228.007" y="197.634" fill="#D0EAF0" width="10.417" height="9.907"/>
<path fill="#FFFFFF" d="M238.298,207.416h-10.167v-9.657h10.167V207.416z M238.548,197.509h-10.667v10.157h10.667V197.509z"/>
<rect x="238.673" y="197.634" fill="#D0EAF0" width="10.417" height="9.907"/>
<path fill="#FFFFFF" d="M248.965,207.416h-10.167v-9.657h10.167V207.416z M249.215,197.509h-10.667v10.157h10.667V197.509z"/>
<rect x="249.34" y="197.634" fill="#D0EAF0" width="10.417" height="9.907"/>
<path fill="#FFFFFF" d="M259.631,207.416h-10.167v-9.657h10.167V207.416z M259.881,197.509h-10.667v10.157h10.667V197.509z"/>
<rect x="260.057" y="197.634" fill="#D0EAF0" width="10.417" height="9.907"/>
<path fill="#FFFFFF" d="M270.349,207.416h-10.167v-9.657h10.167V207.416z M270.599,197.509h-10.667v10.157h10.667V197.509z"/>
<rect x="270.724" y="197.634" fill="#D0EAF0" width="10.417" height="9.907"/>
<path fill="#FFFFFF" d="M281.016,207.416h-10.167v-9.657h10.167V207.416z M281.266,197.509h-10.667v10.157h10.667V197.509z"/>
<rect x="281.391" y="197.634" fill="#D0EAF0" width="10.417" height="9.907"/>
<path fill="#FFFFFF" d="M291.683,207.416h-10.167v-9.657h10.167V207.416z M291.933,197.509h-10.667v10.157h10.667V197.509z"/>
<rect x="198.053" y="197.76" fill="#D0EAF0" width="10.416" height="10.417"/>
<path fill="#FFFFFF" d="M198.177,197.885h10.167v10.167h-10.167V197.885z M197.927,208.302h10.667v-10.667h-10.667V208.302z"/>
<rect x="198.053" y="187.093" fill="#D0EAF0" width="10.416" height="10.417"/>
<path fill="#FFFFFF" d="M198.177,187.218h10.167v10.167h-10.167V187.218z M197.927,197.635h10.667v-10.667h-10.667V197.635z"/>
<rect x="198.053" y="176.427" fill="#D0EAF0" width="10.416" height="10.417"/>
<path fill="#FFFFFF" d="M198.177,176.552h10.167v10.167h-10.167V176.552z M197.927,186.968h10.667v-10.667h-10.667V186.968z"/>
<rect x="198.053" y="165.708" fill="#D0EAF0" width="10.416" height="10.417"/>
<path fill="#FFFFFF" d="M198.177,165.833h10.167V176h-10.167V165.833z M197.927,176.25h10.667v-10.667h-10.667V176.25z"/>
<rect x="198.053" y="155.041" fill="#D0EAF0" width="10.416" height="10.417"/>
<path fill="#FFFFFF" d="M198.177,155.166h10.167v10.167h-10.167V155.166z M197.927,165.583h10.667v-10.667h-10.667V165.583z"/>
<rect x="198.053" y="144.374" fill="#D0EAF0" width="10.416" height="10.417"/>
<path fill="#FFFFFF" d="M198.177,144.5h10.167v10.167h-10.167V144.5z M197.927,154.916h10.667v-10.667h-10.667V154.916z"/>
<rect x="208.719" y="197.76" fill="#D0EAF0" width="10.417" height="10.417"/>
<path fill="#FFFFFF" d="M208.844,197.885h10.167v10.167h-10.167V197.885z M208.594,208.302h10.667v-10.667h-10.667V208.302z"/>
<rect x="208.719" y="187.093" fill="#D0EAF0" width="10.417" height="10.417"/>
<path fill="#FFFFFF" d="M208.844,187.218h10.167v10.167h-10.167V187.218z M208.594,197.635h10.667v-10.667h-10.667V197.635z"/>
<rect x="208.719" y="176.427" fill="#D0EAF0" width="10.417" height="10.417"/>
<path fill="#FFFFFF" d="M208.844,176.552h10.167v10.167h-10.167V176.552z M208.594,186.968h10.667v-10.667h-10.667V186.968z"/>
<rect x="208.719" y="165.708" fill="#D0EAF0" width="10.417" height="10.417"/>
<path fill="#FFFFFF" d="M208.844,165.833h10.167V176h-10.167V165.833z M208.594,176.25h10.667v-10.667h-10.667V176.25z"/>
<rect x="208.719" y="155.041" fill="#D0EAF0" width="10.417" height="10.417"/>
<path fill="#FFFFFF" d="M208.844,155.166h10.167v10.167h-10.167V155.166z M208.594,165.583h10.667v-10.667h-10.667V165.583z"/>
<rect x="208.719" y="144.374" fill="#D0EAF0" width="10.417" height="10.417"/>
<path fill="#FFFFFF" d="M208.844,144.5h10.167v10.167h-10.167V144.5z M208.594,154.916h10.667v-10.667h-10.667V154.916z"/>
<rect x="219.322" y="197.76" fill="#D0EAF0" width="9.907" height="10.417"/>
<path fill="#FFFFFF" d="M219.448,197.885h9.657v10.167h-9.657V197.885z M219.198,208.302h10.157v-10.667h-10.157V208.302z"/>
<rect x="219.322" y="187.093" fill="#D0EAF0" width="9.907" height="10.417"/>
<path fill="#FFFFFF" d="M219.448,187.218h9.657v10.167h-9.657V187.218z M219.198,197.635h10.157v-10.667h-10.157V197.635z"/>
<rect x="219.322" y="176.427" fill="#D0EAF0" width="9.907" height="10.417"/>
<path fill="#FFFFFF" d="M219.448,176.552h9.657v10.167h-9.657V176.552z M219.198,186.968h10.157v-10.667h-10.157V186.968z"/>
<rect x="219.322" y="165.708" fill="#D0EAF0" width="9.907" height="10.417"/>
<path fill="#FFFFFF" d="M219.448,165.833h9.657V176h-9.657V165.833z M219.198,176.25h10.157v-10.667h-10.157V176.25z"/>
<rect x="219.322" y="155.041" fill="#D0EAF0" width="9.907" height="10.417"/>
<path fill="#FFFFFF" d="M219.448,155.166h9.657v10.167h-9.657V155.166z M219.198,165.583h10.157v-10.667h-10.157V165.583z"/>
<rect x="219.322" y="144.374" fill="#D0EAF0" width="9.907" height="10.417"/>
<path fill="#FFFFFF" d="M219.448,144.5h9.657v10.167h-9.657V144.5z M219.198,154.916h10.157v-10.667h-10.157V154.916z"/>
<rect x="232.458" y="96.813" fill="#2E2D4B" width="191.042" height="7.437"/>
<rect x="38.631" fill="#2E2D4B" width="145.286" height="7.438"/>
<rect x="232.458" y="25.313" fill="#2E2D4B" width="7.438" height="78.937"/>
<rect y="204.617" fill="#2E2D4B" width="378.083" height="7.716"/>
<rect y="195.836" fill="#2E2D4B" width="425.333" height="12.41"/>
<rect x="160.751" y="98.188" fill="#2E2D4B" width="23.167" height="6.062"/>
<rect x="223.84" y="25.313" fill="#2E2D4B" width="15.328" height="6.062"/>
<rect x="180.255" y="25.313" fill="#2E2D4B" width="15.328" height="6.062"/>
<rect x="49.335" y="100.75" fill="#2E2D4B" width="134.583" height="3.5"/>
<rect x="194.923" y="140.917" fill="#2E2D4B" width="3.583" height="57.066"/>
<rect x="226.09" y="140.917" fill="#2E2D4B" width="3.583" height="57.066"/>
<rect x="291.083" y="140.917" fill="#2E2D4B" width="3.583" height="57.066"/>
<rect x="223.009" y="140.917" fill="#2E2D4B" width="31.491" height="3.583"/>
<rect x="277.13" y="140.917" fill="#2E2D4B" width="17.537" height="3.583"/>
<rect x="180.333" y="133.916" fill="#2E2D4B" width="3.583" height="8.792"/>
<rect x="180.333" y="99.854" fill="#2E2D4B" width="3.583" height="8.792"/>
<rect x="177.958" y="6.125" fill="#2E2D4B" width="3.583" height="63.885"/>
<polyline fill="#2E2D4B" points="183.916,0 183.916,27.411 177.958,27.411 177.958,0 "/>
<rect x="163.6" y="6.125" fill="#2E2D4B" width="2.445" height="16"/>
<rect x="163.6" y="19.68" fill="#2E2D4B" width="16" height="2.445"/>
<rect x="167.918" y="38.867" fill="#2E2D4B" width="13.167" height="2.445"/>
<rect x="167.918" y="32.375" fill="#2E2D4B" width="13.167" height="2.445"/>
<rect x="167.918" y="26.188" fill="#2E2D4B" width="13.167" height="2.445"/>
<rect x="167.917" y="20.375" fill="#2E2D4B" width="2.445" height="20.938"/>
<rect x="280.333" y="99.854" fill="#2E2D4B" width="3.583" height="10.771"/>
<rect x="280.333" y="136.229" fill="#2E2D4B" width="3.583" height="26.771"/>
<rect x="180.333" y="140.917" fill="#2E2D4B" width="21.5" height="3.583"/>
<rect fill="#2E2D4B" width="3.5" height="98.188"/>
<rect x="418.167" y="177.25" fill="#2E2D4B" width="16.5" height="35.083"/>
<rect x="418.167" y="96.813" fill="#2E2D4B" width="16.5" height="25.969"/>
<rect x="367.333" y="195.75" fill="#2E2D4B" width="67.333" height="16.583"/>
<rect x="5.119" y="87.75" fill="#2E2D4B" width="47.714" height="16.5"/>
<rect x="1.75" fill="#2E2D4B" width="51.083" height="16.5"/>
<rect y="177" fill="#2E2D4B" width="16.333" height="33.083"/>
<rect y="87.75" fill="#2E2D4B" width="16.333" height="34.625"/>
<rect x="36.5" y="15.063" fill="#2E2D4B" width="16.333" height="34.625"/>
<rect x="280.333" y="160.25" fill="#2E2D4B" width="13.417" height="2.75"/>
<rect x="280.333" y="147.75" fill="#2E2D4B" width="13.417" height="2.75"/>
<rect x="280.333" y="154.25" fill="#2E2D4B" width="13.417" height="2.75"/>
<rect x="199.896" y="184.438" fill="#9E9D9B" width="24.562" height="11.399"/>
<rect x="283.916" y="144.5" fill="#9E9D9B" width="7.167" height="3.25"/>
<rect x="283.916" y="150.5" fill="#9E9D9B" width="7.167" height="3.75"/>
<rect x="283.916" y="157" fill="#9E9D9B" width="7.167" height="3.75"/>
<polygon fill="#D7D7D5" points="285.417,145.583 291.084,144.5 291.084,147.75 283.917,147.75 "/>
<polygon fill="#D7D7D5" points="285.417,151.806 291.084,150.584 291.084,154.25 283.917,154.25 "/>
<rect x="170.361" y="34.819" fill="#9E9D9B" width="7.597" height="4.048"/>
<rect x="170.361" y="28.343" fill="#9E9D9B" width="7.597" height="4.048"/>
<rect x="170.361" y="22.125" fill="#9E9D9B" width="7.597" height="4.048"/>
<path fill="#D7D7D5" d="M172.615,23.657c0,0-2.475,2.439-2.253,2.517c0.222,0.077,7.597,0,7.597,0v-4.048L172.615,23.657z"/>
<path fill="#D7D7D5" d="M172.615,29.859c0,0-2.475,2.439-2.253,2.516c0.222,0.078,7.597,0,7.597,0v-4.047L172.615,29.859z"/>
<rect x="166.045" y="7.438" fill="#9E9D9B" width="11.913" height="12.243"/>
<polygon fill="#D7D7D5" points="170,12.292 166.045,19.68 177.958,19.68 177.958,7.438 "/>
<rect y="122.375" fill="#A5DAEC" width="16.333" height="54.625"/>
<rect x="5.742" y="122.375" fill="#61A9C4" width="4.85" height="54.625"/>
<rect x="36.5" y="49.688" fill="#A5DAEC" width="16.333" height="38.063"/>
<rect x="42.242" y="49.688" fill="#61A9C4" width="4.85" height="38.063"/>
<rect x="418.167" y="122.688" fill="#A5DAEC" width="16.5" height="54.563"/>
<rect x="423.968" y="122.688" fill="#61A9C4" width="4.898" height="54.563"/>
<rect x="201.833" y="141.375" fill="#E3004F" width="2.25" height="3.125"/>
<rect x="210.715" y="123.041" transform="matrix(0.7071 0.7071 -0.7071 0.7071 157.6091 -110.21)" fill="#E3004F" width="2.25" height="24.21"/>
<rect x="254.5" y="141.375" fill="#E3004F" width="2.25" height="3.125"/>
<rect x="263.381" y="123.041" transform="matrix(0.7071 0.7071 -0.7071 0.7071 173.0348 -147.4509)" fill="#E3004F" width="2.25" height="24.21"/>
<rect x="280.333" y="133.104" fill="#E3004F" width="2.25" height="3.125"/>
<rect x="289.215" y="114.77" transform="matrix(0.7071 0.7071 -0.7071 0.7071 174.7526 -168.1405)" fill="#E3004F" width="2.25" height="24.21"/>
<rect x="181.668" y="108.646" fill="#E3004F" width="2.25" height="3.125"/>
<rect x="172.785" y="105.896" transform="matrix(-0.7071 -0.7071 0.7071 -0.7071 213.4441 324.4129)" fill="#E3004F" width="2.25" height="24.21"/>
<rect x="179.293" y="70.01" fill="#E3004F" width="2.25" height="3.125"/>
<rect x="170.41" y="67.261" transform="matrix(-0.7071 -0.7071 0.7071 -0.7071 236.7086 256.7798)" fill="#E3004F" width="2.25" height="24.21"/>
<rect x="36.5" y="84.625" fill="#E3004F" width="2.25" height="3.125"/>
<rect x="45.381" y="66.291" transform="matrix(0.7071 0.7071 -0.7071 0.7071 69.0557 -9.9233)" fill="#E3004F" width="2.25" height="24.21"/>
<rect x="221.59" y="25.313" fill="#E3004F" width="2.25" height="3.125"/>
<rect x="212.708" y="22.563" transform="matrix(-0.7071 -0.7071 0.7071 -0.7071 340.5212 210.3839)" fill="#E3004F" width="2.25" height="24.21"/>
<rect x="229.673" y="146.67" fill="#61A9C4" width="21.871" height="49.167"/>
<path fill="#FFFFFF" d="M242.659,188.875h-0.503c-0.101,0.461-0.451,0.811-0.912,0.913v0.502
	C241.975,190.18,242.548,189.606,242.659,188.875"/>
<path fill="#FFFFFF" d="M241.648,188.875h-0.404v0.404C241.43,189.207,241.576,189.061,241.648,188.875"/>
<path fill="#FFFFFF" d="M242.156,188.366h0.503c-0.111-0.731-0.685-1.305-1.416-1.415v0.502
	C241.705,187.555,242.054,187.905,242.156,188.366"/>
<path fill="#FFFFFF" d="M241.244,187.962v0.404h0.404C241.576,188.181,241.43,188.034,241.244,187.962"/>
<path fill="#FFFFFF" d="M240.735,189.279v-0.404h-0.404C240.403,189.062,240.549,189.208,240.735,189.279"/>
<path fill="#FFFFFF" d="M240.331,188.366h0.404v-0.404C240.548,188.034,240.402,188.18,240.331,188.366"/>
<path fill="#FFFFFF" d="M231.834,190.104c0,1.323,1.082,2.405,2.405,2.405h12.737c1.323,0,2.405-1.082,2.405-2.405v-30.687
	c0-0.17-0.019-0.335-0.053-0.495c0.034-0.311,0.053-0.626,0.053-0.946c0-4.845-3.928-8.774-8.774-8.774
	c-4.845,0-8.773,3.929-8.773,8.774c0,0.32,0.019,0.635,0.053,0.946c-0.034,0.16-0.053,0.325-0.053,0.495V190.104z M237.916,188.366
	h0.895c0.118-1.01,0.914-1.806,1.924-1.924v-0.895h0.508v0.895c1.01,0.118,1.806,0.914,1.924,1.924h0.895v0.509h-0.895
	c-0.118,1.01-0.914,1.806-1.924,1.924v0.894h-0.508v-0.894c-1.01-0.118-1.806-0.914-1.924-1.924h-0.895V188.366z"/>
<path fill="#FFFFFF" d="M240.735,190.291v-0.503c-0.462-0.101-0.811-0.451-0.913-0.912h-0.502
	C239.43,189.606,240.004,190.18,240.735,190.291"/>
<path fill="#FFFFFF" d="M240.735,187.454v-0.503c-0.731,0.111-1.305,0.685-1.415,1.416h0.502
	C239.924,187.905,240.273,187.556,240.735,187.454"/>
<path fill="#61A9C4" d="M277.349,195.837v-5.771v-1.323V187.9c0-1.983-1.622-3.605-3.604-3.605h-7.125
	c-1.982,0-3.604,1.622-3.604,3.605v0.843v1.323v5.771H277.349z"/>
<path fill="#FFFFFF" d="M266.609,185.17h7.146c1.53,0,2.781,1.252,2.781,2.781v1.833c0,1.53-1.251,2.781-2.781,2.781h-7.146
	c-1.53,0-2.781-1.251-2.781-2.781v-1.833C263.828,186.422,265.079,185.17,266.609,185.17"/>
<path fill="#61A9C4" d="M271.391,188.927h-0.364c-0.074,0.334-0.327,0.587-0.661,0.661v0.364
	C270.895,189.872,271.311,189.456,271.391,188.927"/>
<path fill="#61A9C4" d="M270.659,188.927h-0.293v0.293C270.5,189.168,270.606,189.063,270.659,188.927"/>
<path fill="#61A9C4" d="M271.027,188.559h0.364c-0.08-0.529-0.496-0.945-1.025-1.025v0.364
	C270.7,187.972,270.954,188.225,271.027,188.559"/>
<path fill="#61A9C4" d="M270.366,188.266v0.293h0.293C270.607,188.424,270.501,188.318,270.366,188.266"/>
<path fill="#61A9C4" d="M269.998,189.22v-0.293h-0.293C269.756,189.062,269.863,189.168,269.998,189.22"/>
<path fill="#61A9C4" d="M269.705,188.559h0.293v-0.293C269.863,188.317,269.757,188.424,269.705,188.559"/>
<path fill="#61A9C4" d="M269.998,189.952v-0.364c-0.334-0.074-0.587-0.327-0.661-0.661h-0.364
	C269.053,189.456,269.469,189.872,269.998,189.952"/>
<path fill="#61A9C4" d="M269.998,187.898v-0.364c-0.53,0.08-0.945,0.496-1.025,1.025h0.364
	C269.411,188.225,269.664,187.972,269.998,187.898"/>
<path fill="#61A9C4" d="M210.99,164.366h2.375c2.475,0,4.5,2.025,4.5,4.5v4.625c0,2.475-2.025,4.5-4.5,4.5h-2.375
	c-2.475,0-4.5-2.025-4.5-4.5v-4.625C206.49,166.391,208.515,164.366,210.99,164.366"/>
<path fill="#FFFFFF" d="M211.379,165.439h1.596c2.156,0,3.911,1.754,3.911,3.91v5.231c0,2.156-1.755,3.911-3.911,3.911h-1.596
	c-2.156,0-3.91-1.755-3.91-3.911v-5.231C207.469,167.193,209.223,165.439,211.379,165.439 M212.975,177.491
	c1.605,0,2.911-1.306,2.911-2.911v-5.231c0-1.604-1.306-2.91-2.911-2.91h-1.596c-1.605,0-2.91,1.306-2.91,2.91v5.231
	c0,1.604,1.305,2.911,2.91,2.911H212.975z"/>
<path fill="#61A9C4" d="M206.927,177.688h10.5c0.619,0,1.125,0.506,1.125,1.125v4.5c0,0.619-0.506,1.125-1.125,1.125h-10.5
	c-0.619,0-1.125-0.506-1.125-1.125v-4.5C205.802,178.194,206.308,177.688,206.927,177.688"/>
<path fill="#61A9C4" d="M210.427,175.948h3.5c0.269,0,0.49,0.22,0.49,0.49v2.5c0,0.269-0.221,0.489-0.49,0.489h-3.5
	c-0.269,0-0.49-0.22-0.49-0.489v-2.5C209.937,176.168,210.158,175.948,210.427,175.948"/>
<path fill="#FFFFFF" d="M211.231,181.063c0-0.523,0.424-0.946,0.946-0.946c0.523,0,0.947,0.423,0.947,0.946
	s-0.424,0.946-0.947,0.946C211.655,182.009,211.231,181.586,211.231,181.063"/>
<rect x="135.657" y="7.438" fill="#B2D4DC" width="21.387" height="17.107"/>
<path fill="#FFFFFF" d="M152.724,10.343h-6.103h-0.772h-8.604v0.491h7.052c-0.311,0.218-0.57,0.5-0.769,0.825h-6.283v0.491h6.047
	c-0.094,0.26-0.152,0.536-0.162,0.824h-5.885v0.492h5.875v0.824h-5.875v0.492h5.875v0.824h-5.875v0.492h5.875v0.824h-5.875v0.491
	h5.875v0.825h-5.875v0.491h5.875v0.824h-5.875v0.492h5.885c0.01,0.289,0.068,0.564,0.162,0.824h-6.047v0.492h6.283
	c0.199,0.324,0.458,0.607,0.769,0.824h-7.052v0.491h8.604h0.772h6.103c1.501,0,2.729-1.228,2.729-2.729v-6.875
	C155.453,11.571,154.225,10.343,152.724,10.343"/>
<path fill="#61A9C4" d="M151.323,7.438h-4.333v2.905h1.666v2.842c0,0.154,0.127,0.281,0.282,0.281h0.437
	c0.155,0,0.281-0.127,0.281-0.281v-2.842h1.667V7.438z"/>
<path fill="#FFFFFF" d="M148.554,8.893c0,0.267-0.217,0.484-0.484,0.484c-0.268,0-0.485-0.217-0.485-0.484s0.217-0.484,0.485-0.484
	C148.337,8.409,148.554,8.625,148.554,8.893"/>
<path fill="#FFFFFF" d="M150.726,8.893c0,0.267-0.217,0.484-0.484,0.484c-0.268,0-0.485-0.217-0.485-0.484s0.217-0.484,0.485-0.484
	C150.509,8.409,150.726,8.625,150.726,8.893"/>
<rect x="103.65" y="7.438" fill="#B2D4DC" width="15.25" height="2.905"/>
<rect x="103.65" y="10.342" fill="#61A9C4" width="15.25" height="14.202"/>
<rect x="105.15" y="25.204" fill="#61A9C4" width="12.25" height="0.927"/>
<path fill="#FFFFFF" d="M114.608,16.22c-1.327,0-2.406-1.08-2.406-2.406c0-1.327,1.079-2.406,2.406-2.406
	c1.326,0,2.405,1.079,2.405,2.406C117.013,15.14,115.934,16.22,114.608,16.22 M114.608,12.158c-0.913,0-1.656,0.743-1.656,1.656
	c0,0.913,0.743,1.656,1.656,1.656s1.655-0.743,1.655-1.656C116.263,12.901,115.521,12.158,114.608,12.158"/>
<path fill="#FFFFFF" d="M114.608,15.063c-0.689,0-1.25-0.561-1.25-1.25s0.561-1.25,1.25-1.25s1.25,0.561,1.25,1.25
	S115.297,15.063,114.608,15.063 M114.608,13.313c-0.275,0-0.5,0.224-0.5,0.5s0.225,0.5,0.5,0.5s0.5-0.224,0.5-0.5
	S114.883,13.313,114.608,13.313"/>
<path fill="#FFFFFF" d="M114.608,21.792c-0.908,0-1.646-0.738-1.646-1.646c0-0.907,0.738-1.646,1.646-1.646
	c0.907,0,1.646,0.739,1.646,1.646C116.254,21.055,115.515,21.792,114.608,21.792 M114.608,19.25c-0.494,0-0.896,0.403-0.896,0.896
	c0,0.495,0.402,0.896,0.896,0.896s0.896-0.401,0.896-0.896C115.504,19.653,115.102,19.25,114.608,19.25"/>
<path fill="#FFFFFF" d="M114.608,23.48c-1.838,0-3.334-1.496-3.334-3.334c0-1.837,1.496-3.333,3.334-3.333s3.333,1.496,3.333,3.333
	C117.941,21.984,116.446,23.48,114.608,23.48 M114.608,17.563c-1.425,0-2.584,1.159-2.584,2.583c0,1.425,1.159,2.584,2.584,2.584
	c1.424,0,2.583-1.159,2.583-2.584C117.191,18.723,116.032,17.563,114.608,17.563"/>
<path fill="#FFFFFF" d="M107.94,18.668c1.327,0,2.406,1.08,2.406,2.406c0,1.327-1.079,2.406-2.406,2.406
	c-1.326,0-2.405-1.079-2.405-2.406C105.535,19.749,106.614,18.668,107.94,18.668 M107.94,22.73c0.913,0,1.656-0.743,1.656-1.656
	c0-0.913-0.743-1.656-1.656-1.656s-1.655,0.743-1.655,1.656C106.285,21.987,107.027,22.73,107.94,22.73"/>
<path fill="#FFFFFF" d="M107.94,19.825c0.689,0,1.25,0.561,1.25,1.25s-0.561,1.25-1.25,1.25s-1.25-0.561-1.25-1.25
	S107.251,19.825,107.94,19.825 M107.94,21.575c0.275,0,0.5-0.224,0.5-0.5s-0.225-0.5-0.5-0.5s-0.5,0.224-0.5,0.5
	S107.665,21.575,107.94,21.575"/>
<path fill="#FFFFFF" d="M107.94,13.095c0.908,0,1.646,0.739,1.646,1.646c0,0.908-0.738,1.646-1.646,1.646
	c-0.907,0-1.646-0.738-1.646-1.646C106.294,13.834,107.033,13.095,107.94,13.095 M107.94,15.637c0.494,0,0.896-0.402,0.896-0.896
	c0-0.494-0.402-0.896-0.896-0.896s-0.896,0.402-0.896,0.896C107.044,15.235,107.446,15.637,107.94,15.637"/>
<path fill="#FFFFFF" d="M107.94,11.408c1.838,0,3.334,1.496,3.334,3.334c0,1.837-1.496,3.333-3.334,3.333s-3.333-1.496-3.333-3.333
	C104.607,12.904,106.102,11.408,107.94,11.408 M107.94,17.325c1.425,0,2.584-1.159,2.584-2.583c0-1.425-1.159-2.584-2.584-2.584
	c-1.424,0-2.583,1.159-2.583,2.584C105.357,16.166,106.516,17.325,107.94,17.325"/>
<rect x="108.023" y="24.544" fill="#B2D4DC" width="1.481" height="0.66"/>
<rect x="113.044" y="24.544" fill="#B2D4DC" width="1.481" height="0.66"/>
<rect x="70.583" y="7.438" fill="#B2D4DC" width="16.937" height="17.107"/>
<path fill="#61A9C4" d="M70.588,25.018c0.015,0.615,0.398,1.115,0.87,1.115h15.187c0.472,0,0.855-0.5,0.87-1.115H70.588z"/>
<rect x="52.833" y="7.438" fill="#D0EAF0" width="17.75" height="17.107"/>
<rect x="87.517" y="7.438" fill="#D0EAF0" width="16.133" height="17.107"/>
<rect x="118.795" y="7.438" fill="#D0EAF0" width="16.861" height="17.107"/>
<polygon fill="#D0EAF0" points="163.601,22.125 163.601,7.438 157.042,7.438 157.042,24.545 161.358,24.545 163.601,24.545 
	167.917,24.545 167.917,22.125 "/>
<path fill="#E3004F" d="M90.528,177.971H56.279v-8.393l11.523-11.653c3.293-3.442,5.445-5.794,6.456-7.053
	c1.012-1.258,1.716-2.339,2.115-3.244c0.398-0.903,0.597-1.85,0.597-2.841c0-1.226-0.398-2.194-1.194-2.904
	c-0.797-0.711-1.916-1.065-3.357-1.065c-1.485,0-2.986,0.424-4.503,1.274c-1.517,0.851-3.234,2.105-5.149,3.761l-7.005-8.199
	c2.432-2.173,4.476-3.728,6.133-4.664c1.657-0.936,3.459-1.652,5.407-2.147c1.948-0.495,4.137-0.742,6.57-0.742
	c3.054,0,5.782,0.538,8.182,1.613c2.4,1.077,4.261,2.611,5.584,4.601c1.325,1.99,1.986,4.223,1.986,6.697
	c0,1.852-0.232,3.563-0.694,5.133c-0.464,1.571-1.178,3.115-2.147,4.632c-0.968,1.517-2.254,3.115-3.858,4.794
	c-1.603,1.678-5.019,4.863-10.248,9.554v0.323h17.851V177.971z"/>
<path fill="#2E2D4B" d="M109.436,135.717c0,0.987-0.302,1.834-0.904,2.542c-0.603,0.707-1.473,1.221-2.613,1.54v0.065
	c2.657,0.334,3.985,1.589,3.985,3.767c0,1.481-0.586,2.645-1.758,3.494c-1.173,0.849-2.8,1.274-4.883,1.274
	c-0.856,0-1.648-0.062-2.378-0.186c-0.729-0.123-1.518-0.348-2.368-0.675v-3.57c0.697,0.355,1.406,0.619,2.128,0.789
	c0.723,0.171,1.389,0.256,1.998,0.256c0.943,0,1.631-0.132,2.063-0.398c0.431-0.264,0.647-0.679,0.647-1.246
	c0-0.436-0.112-0.771-0.337-1.006c-0.226-0.236-0.588-0.415-1.089-0.534c-0.501-0.12-1.153-0.179-1.959-0.179h-0.979v-3.234h1.001
	c2.184,0,3.276-0.558,3.276-1.676c0-0.42-0.161-0.733-0.484-0.936c-0.323-0.203-0.756-0.305-1.301-0.305
	c-1.016,0-2.068,0.341-3.156,1.024l-1.785-2.874c0.841-0.58,1.703-0.995,2.584-1.242c0.882-0.246,1.893-0.37,3.032-0.37
	c1.647,0,2.939,0.327,3.876,0.979C108.967,133.67,109.436,134.571,109.436,135.717"/>
<path fill="#2E2D4B" d="M118.045,137.752c0.915,0,1.74,0.213,2.477,0.637c0.737,0.425,1.31,1.025,1.72,1.801
	c0.409,0.777,0.615,1.673,0.615,2.69c0,1.777-0.536,3.142-1.606,4.093c-1.07,0.95-2.69,1.425-4.86,1.425
	c-1.858,0-3.374-0.287-4.55-0.86v-3.526c0.631,0.29,1.344,0.529,2.139,0.718c0.794,0.189,1.478,0.283,2.051,0.283
	c0.799,0,1.412-0.168,1.84-0.506c0.429-0.338,0.643-0.836,0.643-1.497c0-0.61-0.218-1.085-0.654-1.426
	c-0.435-0.341-1.095-0.512-1.981-0.512c-0.675,0-1.404,0.127-2.188,0.381l-1.579-0.783l0.6-8.404h9.078v3.582h-5.421l-0.196,2.1
	c0.566-0.108,0.969-0.169,1.209-0.179C117.622,137.758,117.842,137.752,118.045,137.752"/>
<path fill="#2E2D4B" d="M129.301,144.926l0.152,0.25c-0.704,2.766-1.342,4.801-1.916,6.107H124.5
	c0.211-1.002,0.423-2.125,0.637-3.369c0.215-1.244,0.361-2.24,0.441-2.988H129.301z"/>
<polygon fill="#2E2D4B" points="133.046,148.181 138.51,135.848 131.619,135.848 131.619,132.288 143.104,132.288 143.104,134.825 
	137.499,148.181 "/>
<path fill="#2E2D4B" d="M154.087,148.181h-4.365v-8.426c0-1.022,0.022-1.959,0.065-2.808c-0.268,0.327-0.602,0.668-1.001,1.023
	l-1.807,1.491l-2.232-2.743l5.465-4.452h3.875V148.181z"/>
<path fill="#2E2D4B" d="M98.809,168.186c0-2.221,0.317-4.019,0.953-5.394c0.635-1.375,1.57-2.389,2.807-3.043
	c1.238-0.652,2.764-0.979,4.578-0.979c0.646,0,1.401,0.062,2.264,0.185v3.364c-0.725-0.138-1.513-0.207-2.362-0.207
	c-1.437,0-2.507,0.316-3.211,0.947c-0.704,0.632-1.089,1.662-1.153,3.092h0.129c0.654-1.233,1.703-1.851,3.147-1.851
	c1.415,0,2.513,0.455,3.293,1.366c0.779,0.911,1.17,2.179,1.17,3.805c0,1.749-0.494,3.129-1.481,4.142
	c-0.987,1.012-2.366,1.518-4.136,1.518c-1.88,0-3.349-0.609-4.409-1.829C99.338,172.083,98.809,170.378,98.809,168.186
	 M104.708,171.724c0.457,0,0.829-0.172,1.115-0.517c0.287-0.344,0.431-0.894,0.431-1.649c0-1.292-0.501-1.938-1.503-1.938
	c-0.493,0-0.895,0.167-1.202,0.5c-0.309,0.334-0.463,0.741-0.463,1.22c0,0.697,0.148,1.268,0.446,1.714
	C103.831,171.5,104.223,171.724,104.708,171.724"/>
<path fill="#2E2D4B" d="M111.871,168.186c0-2.221,0.317-4.019,0.953-5.394c0.635-1.375,1.57-2.389,2.807-3.043
	c1.238-0.652,2.764-0.979,4.578-0.979c0.646,0,1.401,0.062,2.264,0.185v3.364c-0.725-0.138-1.513-0.207-2.362-0.207
	c-1.437,0-2.507,0.316-3.211,0.947c-0.704,0.632-1.089,1.662-1.153,3.092h0.129c0.654-1.233,1.703-1.851,3.147-1.851
	c1.415,0,2.513,0.455,3.293,1.366c0.779,0.911,1.17,2.179,1.17,3.805c0,1.749-0.494,3.129-1.481,4.142
	c-0.987,1.012-2.366,1.518-4.136,1.518c-1.88,0-3.349-0.609-4.409-1.829C112.401,172.083,111.871,170.378,111.871,168.186
	 M117.771,171.724c0.457,0,0.829-0.172,1.115-0.517c0.287-0.344,0.431-0.894,0.431-1.649c0-1.292-0.501-1.938-1.503-1.938
	c-0.493,0-0.895,0.167-1.202,0.5c-0.309,0.334-0.463,0.741-0.463,1.22c0,0.697,0.148,1.268,0.446,1.714
	C116.893,171.5,117.285,171.724,117.771,171.724"/>
<path fill="#2E2D4B" d="M129.592,171.658l0.152,0.25c-0.704,2.766-1.342,4.801-1.916,6.107h-3.037
	c0.211-1.002,0.423-2.125,0.637-3.369c0.215-1.244,0.361-2.24,0.441-2.988H129.592z"/>
<path fill="#2E2D4B" d="M143.788,171.832h-1.753v3.081h-4.245v-3.081h-6.347v-3.156l6.618-9.678h3.974v9.623h1.753V171.832z
	 M137.79,168.621v-1.851c0-0.348,0.013-0.818,0.038-1.409c0.025-0.592,0.045-0.902,0.06-0.93h-0.12
	c-0.247,0.558-0.526,1.081-0.838,1.567l-1.764,2.623H137.79z"/>
<path fill="#2E2D4B" d="M156.338,174.913h-11.55v-2.83l3.886-3.93c1.11-1.161,1.836-1.954,2.178-2.379
	c0.34-0.424,0.578-0.789,0.713-1.093c0.133-0.305,0.201-0.624,0.201-0.958c0-0.414-0.135-0.741-0.403-0.98s-0.646-0.359-1.132-0.359
	c-0.5,0-1.007,0.143-1.519,0.429c-0.512,0.287-1.09,0.71-1.736,1.269l-2.362-2.765c0.82-0.733,1.509-1.258,2.069-1.573
	c0.558-0.315,1.166-0.557,1.823-0.724c0.656-0.167,1.395-0.251,2.215-0.251c1.03,0,1.95,0.182,2.76,0.545
	c0.808,0.363,1.436,0.88,1.882,1.551c0.447,0.671,0.67,1.425,0.67,2.259c0,0.624-0.078,1.201-0.234,1.73
	c-0.156,0.531-0.398,1.051-0.724,1.563c-0.327,0.512-0.76,1.051-1.3,1.616c-0.541,0.567-1.694,1.641-3.457,3.223v0.108h6.02V174.913
	z"/>
<rect x="98.048" y="153.573" fill="#2E2D4B" width="58.898" height="1.775"/>
<path fill="#2E2D4B" d="M381.205,117.52h-2.845v-5.49c0-0.667,0.014-1.278,0.041-1.83c-0.174,0.213-0.391,0.434-0.651,0.666
	l-1.179,0.972l-1.453-1.788l3.563-2.901h2.524V117.52z"/>
<path fill="#2E2D4B" d="M387.745,110.724c0.596,0,1.134,0.139,1.613,0.415c0.48,0.276,0.855,0.668,1.121,1.174
	c0.268,0.507,0.402,1.091,0.402,1.752c0,1.159-0.35,2.048-1.048,2.668c-0.696,0.619-1.753,0.928-3.167,0.928
	c-1.211,0-2.199-0.186-2.965-0.56v-2.298c0.411,0.19,0.876,0.345,1.395,0.468c0.517,0.123,0.963,0.184,1.336,0.184
	c0.521,0,0.92-0.109,1.199-0.33c0.279-0.219,0.42-0.545,0.42-0.974c0-0.398-0.144-0.707-0.427-0.93
	c-0.284-0.222-0.715-0.333-1.291-0.333c-0.44,0-0.915,0.082-1.426,0.248l-1.029-0.511l0.39-5.476h5.916v2.334h-3.531l-0.129,1.369
	c0.369-0.071,0.632-0.11,0.787-0.117C387.47,110.728,387.613,110.724,387.745,110.724"/>
<path fill="#2E2D4B" d="M395.08,115.399l0.101,0.163c-0.459,1.802-0.875,3.129-1.248,3.98h-1.98
	c0.137-0.653,0.275-1.384,0.415-2.196c0.14-0.81,0.235-1.46,0.286-1.947H395.08z"/>
<path fill="#2E2D4B" d="M403.649,109.398c0,0.643-0.195,1.195-0.589,1.656c-0.392,0.461-0.96,0.796-1.702,1.004v0.042
	c1.73,0.218,2.596,1.036,2.596,2.455c0,0.965-0.382,1.724-1.146,2.277c-0.763,0.553-1.824,0.83-3.181,0.83
	c-0.559,0-1.076-0.04-1.551-0.12c-0.475-0.081-0.99-0.228-1.543-0.441v-2.326c0.454,0.231,0.918,0.403,1.387,0.515
	c0.471,0.11,0.906,0.166,1.302,0.166c0.614,0,1.063-0.086,1.345-0.259c0.281-0.173,0.422-0.444,0.422-0.813
	c0-0.283-0.072-0.502-0.22-0.656c-0.146-0.153-0.384-0.269-0.709-0.347c-0.327-0.078-0.752-0.117-1.276-0.117h-0.64v-2.107h0.653
	c1.422,0,2.135-0.364,2.135-1.092c0-0.274-0.105-0.478-0.314-0.61c-0.212-0.133-0.494-0.199-0.849-0.199
	c-0.662,0-1.349,0.222-2.058,0.666l-1.164-1.872c0.55-0.379,1.111-0.648,1.686-0.808c0.575-0.161,1.232-0.241,1.977-0.241
	c1.072,0,1.914,0.212,2.524,0.637C403.345,108.064,403.649,108.651,403.649,109.398"/>
<path fill="#2E2D4B" d="M412.51,117.52h-7.526v-1.845l2.532-2.56c0.724-0.757,1.196-1.274,1.419-1.55s0.377-0.515,0.465-0.713
	s0.131-0.406,0.131-0.624c0-0.27-0.086-0.482-0.263-0.639c-0.175-0.156-0.421-0.234-0.737-0.234c-0.326,0-0.656,0.094-0.99,0.28
	c-0.334,0.188-0.711,0.463-1.131,0.826l-1.539-1.801c0.535-0.478,0.984-0.82,1.348-1.025c0.363-0.206,0.76-0.363,1.188-0.471
	c0.428-0.11,0.91-0.164,1.444-0.164c0.671,0,1.271,0.119,1.798,0.355s0.936,0.573,1.227,1.011c0.291,0.437,0.438,0.927,0.438,1.471
	c0,0.408-0.051,0.784-0.152,1.128c-0.103,0.346-0.26,0.685-0.473,1.02c-0.212,0.333-0.494,0.684-0.848,1.053
	c-0.352,0.369-1.102,1.069-2.252,2.099v0.071h3.923V117.52z"/>
<path fill="#2E2D4B" d="M30.003,118h-7.526v-1.845l2.532-2.56c0.723-0.757,1.196-1.274,1.419-1.55
	c0.222-0.276,0.377-0.515,0.465-0.713c0.087-0.198,0.131-0.406,0.131-0.624c0-0.27-0.087-0.482-0.263-0.639
	c-0.175-0.156-0.421-0.234-0.737-0.234c-0.327,0-0.657,0.094-0.99,0.28c-0.334,0.188-0.711,0.463-1.132,0.826l-1.539-1.801
	c0.535-0.478,0.984-0.82,1.348-1.025c0.364-0.206,0.76-0.363,1.188-0.471c0.428-0.11,0.91-0.164,1.444-0.164
	c0.671,0,1.27,0.119,1.798,0.355c0.527,0.236,0.936,0.573,1.227,1.011c0.291,0.437,0.437,0.927,0.437,1.471
	c0,0.408-0.051,0.784-0.153,1.128c-0.102,0.346-0.259,0.685-0.472,1.02c-0.212,0.333-0.495,0.684-0.848,1.053
	c-0.351,0.369-1.102,1.069-2.252,2.099v0.071h3.923V118z"/>
<path fill="#2E2D4B" d="M38.559,112.83c0,1.835-0.307,3.179-0.923,4.032c-0.614,0.854-1.555,1.28-2.823,1.28
	c-1.238,0-2.173-0.445-2.802-1.336c-0.629-0.892-0.943-2.217-0.943-3.976c0-1.845,0.308-3.197,0.922-4.058
	c0.615-0.861,1.555-1.291,2.823-1.291c1.234,0,2.167,0.449,2.799,1.344C38.243,109.722,38.559,111.057,38.559,112.83 M33.856,112.83
	c0,1.173,0.073,1.979,0.22,2.419c0.146,0.439,0.392,0.659,0.737,0.659c0.351,0,0.598-0.226,0.741-0.681
	c0.145-0.454,0.217-1.252,0.217-2.397c0-1.149-0.073-1.955-0.22-2.416c-0.146-0.461-0.392-0.691-0.738-0.691
	c-0.345,0-0.591,0.222-0.737,0.667C33.929,110.833,33.856,111.646,33.856,112.83"/>
<path fill="#2E2D4B" d="M42.602,115.879l0.1,0.163c-0.459,1.802-0.875,3.129-1.248,3.98h-1.98c0.137-0.653,0.275-1.384,0.415-2.196
	c0.14-0.81,0.235-1.46,0.287-1.947H42.602z"/>
<path fill="#2E2D4B" d="M51.171,109.878c0,0.643-0.196,1.195-0.589,1.656c-0.392,0.461-0.96,0.796-1.702,1.004v0.042
	c1.73,0.218,2.596,1.036,2.596,2.455c0,0.965-0.382,1.724-1.146,2.277c-0.763,0.553-1.824,0.83-3.18,0.83
	c-0.559,0-1.076-0.04-1.551-0.12c-0.475-0.081-0.99-0.228-1.543-0.441v-2.326c0.454,0.231,0.917,0.403,1.387,0.515
	c0.47,0.11,0.905,0.166,1.301,0.166c0.615,0,1.064-0.086,1.345-0.259c0.281-0.173,0.422-0.444,0.422-0.813
	c0-0.283-0.073-0.502-0.22-0.656c-0.146-0.153-0.383-0.269-0.709-0.347c-0.327-0.078-0.752-0.117-1.277-0.117h-0.639v-2.107h0.653
	c1.423,0,2.135-0.364,2.135-1.092c0-0.274-0.105-0.478-0.315-0.61c-0.211-0.133-0.493-0.199-0.848-0.199
	c-0.662,0-1.348,0.222-2.057,0.666l-1.164-1.872c0.549-0.379,1.111-0.648,1.685-0.808c0.575-0.161,1.233-0.241,1.976-0.241
	c1.073,0,1.915,0.212,2.525,0.637C50.866,108.544,51.171,109.131,51.171,109.878"/>
<path fill="#2E2D4B" d="M60.11,112.375c0,2.029-0.437,3.497-1.312,4.406c-0.875,0.907-2.275,1.361-4.2,1.361
	c-0.633,0-1.116-0.023-1.447-0.07v-2.221c0.407,0.076,0.814,0.113,1.22,0.113c1.003,0,1.776-0.207,2.32-0.62
	c0.544-0.414,0.839-1.068,0.887-1.962h-0.085c-0.185,0.341-0.367,0.587-0.547,0.738c-0.18,0.152-0.399,0.267-0.659,0.348
	c-0.261,0.08-0.584,0.12-0.972,0.12c-0.899,0-1.601-0.3-2.107-0.9c-0.506-0.602-0.759-1.429-0.759-2.484
	c0-1.149,0.327-2.049,0.982-2.702c0.656-0.653,1.553-0.979,2.693-0.979c1.266,0,2.248,0.421,2.943,1.263
	C59.763,109.627,60.11,110.824,60.11,112.375 M56.202,109.765c-0.308,0-0.558,0.11-0.749,0.333s-0.287,0.579-0.287,1.071
	c0,0.388,0.083,0.697,0.248,0.926c0.166,0.23,0.419,0.344,0.76,0.344c0.306,0,0.574-0.111,0.8-0.333
	c0.228-0.223,0.341-0.489,0.341-0.802c0-0.421-0.105-0.783-0.315-1.085C56.789,109.916,56.522,109.765,56.202,109.765"/>
<path fill="#2E2D4B" d="M199.12,88.856c0,2.029-0.437,3.497-1.312,4.406c-0.875,0.907-2.275,1.361-4.2,1.361
	c-0.633,0-1.116-0.023-1.447-0.07v-2.221c0.407,0.076,0.814,0.113,1.22,0.113c1.003,0,1.776-0.207,2.32-0.62
	c0.544-0.414,0.839-1.068,0.887-1.962h-0.085c-0.185,0.341-0.367,0.587-0.547,0.738c-0.18,0.152-0.399,0.267-0.659,0.348
	c-0.261,0.08-0.584,0.12-0.972,0.12c-0.899,0-1.601-0.3-2.107-0.9c-0.506-0.601-0.759-1.429-0.759-2.484
	c0-1.149,0.327-2.049,0.982-2.702c0.656-0.653,1.553-0.979,2.693-0.979c1.266,0,2.248,0.421,2.943,1.263
	C198.773,86.108,199.12,87.305,199.12,88.856 M195.212,86.246c-0.308,0-0.558,0.11-0.749,0.333
	c-0.191,0.223-0.287,0.579-0.287,1.071c0,0.388,0.083,0.697,0.248,0.926c0.166,0.23,0.419,0.344,0.76,0.344
	c0.306,0,0.574-0.111,0.8-0.333c0.228-0.223,0.341-0.489,0.341-0.802c0-0.421-0.105-0.783-0.315-1.085
	C195.799,86.397,195.533,86.246,195.212,86.246"/>
<path fill="#2E2D4B" d="M203.128,92.36l0.1,0.163c-0.459,1.802-0.875,3.129-1.248,3.98H200c0.137-0.653,0.275-1.384,0.415-2.196
	c0.14-0.81,0.235-1.46,0.287-1.947H203.128z"/>
<path fill="#2E2D4B" d="M210.769,94.481h-2.845v-5.49c0-0.667,0.014-1.278,0.042-1.83c-0.175,0.213-0.392,0.434-0.652,0.666
	l-1.178,0.972l-1.454-1.788l3.562-2.901h2.525V94.481z"/>
<path fill="#2E2D4B" d="M216.883,83.962c1.092,0,1.942,0.219,2.55,0.659s0.912,1.064,0.912,1.873c0,0.549-0.143,1.029-0.429,1.443
	c-0.286,0.414-0.739,0.775-1.359,1.082c0.766,0.435,1.306,0.869,1.621,1.302c0.314,0.433,0.471,0.899,0.471,1.4
	c0,0.923-0.333,1.637-1,2.143c-0.667,0.506-1.598,0.759-2.795,0.759c-1.219,0-2.154-0.247-2.801-0.742
	c-0.648-0.494-0.972-1.204-0.972-2.131c0-0.601,0.144-1.113,0.433-1.536c0.288-0.423,0.773-0.807,1.454-1.153
	c-0.549-0.368-0.95-0.765-1.203-1.187c-0.252-0.424-0.379-0.888-0.379-1.395c0-0.794,0.309-1.412,0.929-1.854
	C214.934,84.183,215.791,83.962,216.883,83.962 M215.648,91.637c0,0.294,0.105,0.529,0.313,0.706
	c0.208,0.178,0.497,0.266,0.865,0.266c0.833,0,1.249-0.305,1.249-0.915c0-0.231-0.092-0.46-0.273-0.685
	c-0.182-0.224-0.507-0.475-0.976-0.754c-0.421,0.221-0.723,0.445-0.904,0.669C215.74,91.148,215.648,91.387,215.648,91.637
	 M216.869,85.983c-0.241,0-0.444,0.069-0.61,0.209c-0.165,0.14-0.248,0.32-0.248,0.543c0,0.406,0.276,0.766,0.83,1.078
	c0.336-0.194,0.564-0.371,0.687-0.532c0.123-0.16,0.185-0.343,0.185-0.546c0-0.228-0.083-0.409-0.248-0.546
	C217.299,86.052,217.1,85.983,216.869,85.983"/>
<path fill="#2E2D4B" d="M206.797,160.75h-2.113v-4.079c0-0.495,0.01-0.948,0.032-1.359c-0.131,0.158-0.292,0.323-0.485,0.495
	l-0.875,0.722l-1.08-1.328l2.645-2.155h1.876V160.75z"/>
<path fill="#2E2D4B" d="M210.781,159.175l0.074,0.121c-0.341,1.339-0.65,2.324-0.928,2.957h-1.469
	c0.101-0.485,0.204-1.029,0.307-1.631c0.104-0.603,0.175-1.085,0.214-1.447H210.781z"/>
<path fill="#2E2D4B" d="M217.463,156.572c0,1.507-0.325,2.598-0.975,3.272c-0.65,0.675-1.69,1.012-3.119,1.012
	c-0.471,0-0.83-0.017-1.076-0.053v-1.649c0.303,0.056,0.605,0.084,0.907,0.084c0.745,0,1.319-0.153,1.723-0.461
	c0.404-0.307,0.623-0.793,0.658-1.456h-0.063c-0.137,0.252-0.272,0.435-0.405,0.547c-0.134,0.113-0.297,0.199-0.491,0.259
	c-0.193,0.059-0.433,0.089-0.721,0.089c-0.668,0-1.19-0.223-1.566-0.669s-0.563-1.061-0.563-1.845c0-0.854,0.243-1.522,0.729-2.007
	c0.488-0.485,1.154-0.727,2-0.727c0.942,0,1.671,0.312,2.187,0.938C217.205,154.531,217.463,155.42,217.463,156.572
	 M214.559,154.633c-0.228,0-0.413,0.083-0.556,0.248c-0.142,0.165-0.213,0.43-0.213,0.795c0,0.289,0.061,0.518,0.184,0.688
	s0.312,0.255,0.564,0.255c0.229,0,0.427-0.082,0.596-0.247c0.168-0.165,0.253-0.364,0.253-0.595c0-0.313-0.079-0.582-0.235-0.807
	C214.996,154.745,214.798,154.633,214.559,154.633"/>
<path fill="#2E2D4B" d="M223.728,160.75h-5.591v-1.37l1.881-1.902c0.538-0.562,0.89-0.946,1.055-1.152
	c0.165-0.205,0.279-0.382,0.344-0.529c0.066-0.148,0.098-0.302,0.098-0.464c0-0.2-0.065-0.358-0.195-0.474
	c-0.13-0.116-0.313-0.174-0.548-0.174c-0.242,0-0.487,0.069-0.735,0.208c-0.247,0.139-0.528,0.343-0.84,0.614l-1.144-1.339
	c0.397-0.354,0.731-0.608,1.001-0.761c0.271-0.153,0.565-0.269,0.883-0.35c0.317-0.081,0.675-0.121,1.072-0.121
	c0.499,0,0.945,0.087,1.336,0.263c0.392,0.176,0.696,0.426,0.911,0.751c0.216,0.325,0.325,0.689,0.325,1.093
	c0,0.302-0.039,0.582-0.114,0.838c-0.075,0.257-0.192,0.509-0.35,0.756c-0.159,0.248-0.368,0.509-0.63,0.783
	c-0.262,0.274-0.82,0.794-1.673,1.559v0.053h2.914V160.75z"/>
<path fill="#2E2D4B" d="M62.782,96.813h-2.845v-5.49c0-0.667,0.014-1.278,0.042-1.83c-0.175,0.213-0.392,0.434-0.652,0.666
	l-1.178,0.972l-1.454-1.788l3.562-2.901h2.525V96.813z"/>
<path fill="#2E2D4B" d="M72.903,94.805h-1.141v2.008h-2.767v-2.008h-4.136v-2.057l4.314-6.307h2.589v6.271h1.141V94.805z
	 M68.996,92.712v-1.205c0-0.228,0.008-0.533,0.024-0.919c0.017-0.386,0.031-0.588,0.039-0.606h-0.077
	c-0.161,0.364-0.343,0.705-0.547,1.021l-1.149,1.709H68.996z"/>
<path fill="#2E2D4B" d="M76.657,94.691l0.1,0.163c-0.459,1.802-0.875,3.129-1.248,3.98h-1.98c0.137-0.653,0.275-1.384,0.415-2.196
	c0.14-0.81,0.235-1.46,0.287-1.947H76.657z"/>
<path fill="#2E2D4B" d="M85.574,96.813h-7.526v-1.845l2.532-2.56c0.723-0.757,1.196-1.274,1.419-1.55
	c0.222-0.276,0.377-0.515,0.465-0.713c0.087-0.198,0.131-0.406,0.131-0.624c0-0.27-0.087-0.482-0.263-0.639
	c-0.175-0.156-0.421-0.234-0.737-0.234c-0.327,0-0.657,0.094-0.99,0.28c-0.334,0.188-0.711,0.463-1.132,0.826l-1.539-1.801
	c0.535-0.478,0.984-0.82,1.348-1.025c0.364-0.206,0.76-0.363,1.188-0.471c0.428-0.11,0.91-0.164,1.444-0.164
	c0.671,0,1.27,0.119,1.798,0.355c0.527,0.236,0.936,0.573,1.227,1.011c0.291,0.437,0.437,0.927,0.437,1.471
	c0,0.408-0.051,0.784-0.153,1.128c-0.102,0.346-0.259,0.685-0.472,1.019c-0.212,0.333-0.495,0.684-0.848,1.053
	c-0.351,0.369-1.102,1.069-2.252,2.099V94.5h3.923V96.813z"/>
<polygon fill="#2E2D4B" points="87.61,96.813 91.172,88.775 86.681,88.775 86.681,86.457 94.165,86.457 94.165,88.108 
	90.511,96.813 "/>
<path fill="#2E2D4B" d="M260.806,154.717c0,0.479-0.146,0.889-0.437,1.23c-0.292,0.343-0.713,0.592-1.265,0.747v0.031
	c1.286,0.162,1.929,0.77,1.929,1.823c0,0.717-0.285,1.28-0.852,1.691c-0.567,0.412-1.354,0.618-2.363,0.618
	c-0.414,0-0.798-0.031-1.152-0.09c-0.352-0.06-0.734-0.169-1.145-0.327v-1.728c0.337,0.172,0.681,0.299,1.03,0.382
	c0.35,0.082,0.672,0.124,0.967,0.124c0.456,0,0.789-0.064,0.998-0.192c0.209-0.129,0.313-0.33,0.313-0.604
	c0-0.211-0.053-0.373-0.163-0.487c-0.108-0.114-0.284-0.2-0.527-0.259c-0.242-0.058-0.558-0.087-0.948-0.087h-0.474v-1.564h0.485
	c1.057,0,1.585-0.271,1.585-0.812c0-0.204-0.078-0.355-0.234-0.453c-0.156-0.099-0.366-0.147-0.63-0.147
	c-0.491,0-1.001,0.165-1.528,0.495l-0.863-1.392c0.407-0.281,0.824-0.481,1.251-0.601c0.426-0.119,0.916-0.178,1.467-0.178
	c0.797,0,1.423,0.158,1.876,0.473C260.579,153.727,260.806,154.162,260.806,154.717"/>
<path fill="#2E2D4B" d="M264.099,159.175l0.074,0.121c-0.341,1.339-0.65,2.324-0.928,2.957h-1.469
	c0.101-0.485,0.204-1.029,0.307-1.631c0.104-0.602,0.175-1.085,0.214-1.447H264.099z"/>
<path fill="#2E2D4B" d="M267.994,152.937c0.811,0,1.443,0.163,1.894,0.489c0.451,0.327,0.677,0.791,0.677,1.392
	c0,0.407-0.106,0.765-0.318,1.072c-0.213,0.308-0.549,0.575-1.009,0.804c0.568,0.323,0.97,0.645,1.203,0.967
	c0.234,0.321,0.351,0.669,0.351,1.041c0,0.684-0.247,1.215-0.743,1.59c-0.496,0.376-1.187,0.565-2.076,0.565
	c-0.907,0-1.6-0.184-2.082-0.551c-0.481-0.367-0.721-0.895-0.721-1.584c0-0.445,0.107-0.826,0.321-1.14
	c0.214-0.315,0.574-0.6,1.08-0.857c-0.407-0.273-0.705-0.568-0.893-0.883c-0.188-0.313-0.282-0.659-0.282-1.035
	c0-0.59,0.231-1.049,0.691-1.378C266.546,153.101,267.182,152.937,267.994,152.937 M267.077,158.638
	c0,0.218,0.077,0.393,0.232,0.525c0.154,0.131,0.368,0.197,0.643,0.197c0.618,0,0.927-0.227,0.927-0.68
	c0-0.172-0.068-0.342-0.203-0.509c-0.135-0.166-0.377-0.353-0.724-0.56c-0.313,0.165-0.537,0.331-0.672,0.498
	C267.144,158.275,267.077,158.452,267.077,158.638 M267.983,154.438c-0.179,0-0.33,0.053-0.453,0.156
	c-0.123,0.104-0.185,0.238-0.185,0.403c0,0.302,0.206,0.569,0.617,0.801c0.25-0.145,0.42-0.276,0.511-0.396
	c0.092-0.119,0.137-0.255,0.137-0.406c0-0.168-0.062-0.304-0.184-0.406C268.303,154.489,268.156,154.438,267.983,154.438"/>
<path fill="#2E2D4B" d="M274.317,152.937c0.811,0,1.443,0.163,1.894,0.489c0.451,0.327,0.677,0.791,0.677,1.392
	c0,0.407-0.106,0.765-0.318,1.072c-0.213,0.308-0.549,0.575-1.009,0.804c0.568,0.323,0.97,0.645,1.203,0.967
	c0.234,0.321,0.351,0.669,0.351,1.041c0,0.684-0.247,1.215-0.743,1.59c-0.496,0.376-1.187,0.565-2.076,0.565
	c-0.907,0-1.6-0.184-2.082-0.551c-0.481-0.367-0.721-0.895-0.721-1.584c0-0.445,0.107-0.826,0.321-1.14
	c0.214-0.315,0.574-0.6,1.08-0.857c-0.407-0.273-0.705-0.568-0.893-0.883c-0.188-0.313-0.282-0.659-0.282-1.035
	c0-0.59,0.231-1.049,0.691-1.378C272.869,153.101,273.505,152.937,274.317,152.937 M273.4,158.638c0,0.218,0.077,0.393,0.232,0.525
	c0.154,0.131,0.368,0.197,0.643,0.197c0.618,0,0.927-0.227,0.927-0.68c0-0.172-0.068-0.342-0.203-0.509
	c-0.135-0.166-0.377-0.353-0.724-0.56c-0.313,0.165-0.537,0.331-0.672,0.498C273.467,158.275,273.4,158.452,273.4,158.638
	 M274.306,154.438c-0.179,0-0.33,0.053-0.453,0.156c-0.123,0.104-0.185,0.238-0.185,0.403c0,0.302,0.206,0.569,0.617,0.801
	c0.25-0.145,0.42-0.276,0.511-0.396c0.092-0.119,0.137-0.255,0.137-0.406c0-0.168-0.062-0.304-0.184-0.406
	C274.626,154.489,274.479,154.438,274.306,154.438"/>
<path fill="#2E2D4B" d="M13.079,82.695H5.553v-1.845l2.532-2.56c0.723-0.757,1.196-1.274,1.419-1.55
	c0.222-0.276,0.377-0.515,0.465-0.713c0.087-0.198,0.131-0.406,0.131-0.624c0-0.27-0.087-0.482-0.263-0.639
	C9.662,74.608,9.416,74.53,9.1,74.53c-0.327,0-0.657,0.094-0.99,0.28c-0.334,0.188-0.711,0.463-1.132,0.826l-1.539-1.801
	c0.535-0.478,0.984-0.82,1.348-1.025c0.364-0.206,0.76-0.363,1.188-0.471c0.428-0.11,0.91-0.164,1.444-0.164
	c0.671,0,1.27,0.119,1.798,0.355c0.527,0.236,0.936,0.573,1.227,1.011c0.291,0.437,0.437,0.927,0.437,1.471
	c0,0.408-0.051,0.784-0.153,1.128c-0.102,0.346-0.259,0.685-0.472,1.019c-0.212,0.333-0.495,0.684-0.848,1.053
	c-0.351,0.369-1.102,1.069-2.252,2.099v0.071h3.923V82.695z"/>
<path fill="#2E2D4B" d="M17.165,80.574l0.1,0.163c-0.459,1.802-0.875,3.129-1.248,3.98h-1.98c0.137-0.653,0.275-1.384,0.415-2.196
	c0.14-0.81,0.235-1.46,0.287-1.947H17.165z"/>
<path fill="#2E2D4B" d="M26.16,77.07c0,2.029-0.437,3.497-1.312,4.406c-0.875,0.907-2.275,1.361-4.2,1.361
	c-0.633,0-1.116-0.023-1.447-0.07v-2.221c0.407,0.076,0.814,0.113,1.22,0.113c1.003,0,1.776-0.207,2.32-0.62
	c0.544-0.414,0.839-1.068,0.887-1.962h-0.085c-0.185,0.341-0.367,0.587-0.547,0.738c-0.18,0.152-0.399,0.267-0.659,0.348
	c-0.261,0.08-0.584,0.12-0.972,0.12c-0.899,0-1.601-0.3-2.107-0.9c-0.506-0.601-0.759-1.429-0.759-2.484
	c0-1.149,0.327-2.049,0.982-2.702c0.656-0.653,1.553-0.979,2.693-0.979c1.266,0,2.248,0.421,2.943,1.263
	C25.813,74.322,26.16,75.519,26.16,77.07 M22.251,74.46c-0.308,0-0.558,0.11-0.749,0.333c-0.191,0.223-0.287,0.579-0.287,1.071
	c0,0.388,0.083,0.697,0.248,0.926c0.166,0.23,0.419,0.344,0.76,0.344c0.306,0,0.574-0.111,0.8-0.333
	c0.228-0.223,0.341-0.489,0.341-0.802c0-0.421-0.105-0.783-0.315-1.085C22.838,74.611,22.572,74.46,22.251,74.46"/>
<path fill="#2E2D4B" d="M34.247,74.573c0,0.643-0.196,1.195-0.589,1.656c-0.392,0.461-0.96,0.796-1.702,1.004v0.042
	c1.73,0.218,2.596,1.036,2.596,2.455c0,0.965-0.382,1.724-1.146,2.277c-0.763,0.553-1.824,0.83-3.18,0.83
	c-0.559,0-1.076-0.04-1.551-0.12c-0.475-0.081-0.99-0.228-1.543-0.441V79.95c0.454,0.231,0.917,0.403,1.387,0.515
	c0.47,0.11,0.905,0.166,1.301,0.166c0.615,0,1.064-0.086,1.345-0.259c0.281-0.173,0.422-0.444,0.422-0.813
	c0-0.283-0.073-0.502-0.22-0.656c-0.146-0.153-0.383-0.269-0.709-0.347c-0.327-0.078-0.752-0.117-1.277-0.117h-0.639v-2.107h0.653
	c1.423,0,2.135-0.364,2.135-1.092c0-0.274-0.105-0.478-0.315-0.61c-0.211-0.133-0.493-0.199-0.848-0.199
	c-0.662,0-1.348,0.222-2.057,0.666l-1.164-1.872c0.549-0.379,1.111-0.648,1.685-0.808c0.575-0.161,1.233-0.241,1.976-0.241
	c1.073,0,1.915,0.212,2.525,0.637C33.941,73.239,34.247,73.826,34.247,74.573"/>
</svg>
