<?xml version="1.0" encoding="utf-8"?>
<!-- Generator: Adobe Illustrator 16.0.0, SVG Export Plug-In . SVG Version: 6.00 Build 0)  -->
<!DOCTYPE svg PUBLIC "-//W3C//DTD SVG 1.1//EN" "http://www.w3.org/Graphics/SVG/1.1/DTD/svg11.dtd">
<svg version="1.1" id="Слой_1" xmlns="http://www.w3.org/2000/svg" xmlns:xlink="http://www.w3.org/1999/xlink" x="0px" y="0px"
	 width="439.334px" height="246.166px" viewBox="0 0 439.334 246.166" enable-background="new 0 0 439.334 246.166"
	 xml:space="preserve">
<g>
	<defs>
		<rect id="SVGID_1_" x="170.207" y="15.75" width="95.478" height="59.75"/>
	</defs>
	<clipPath id="SVGID_2_">
		<use xlink:href="#SVGID_1_"  overflow="visible"/>
	</clipPath>
	<rect x="212.818" y="11.573" clip-path="url(#SVGID_2_)" fill="#CFE9EF" width="10.417" height="10.417"/>
	<path clip-path="url(#SVGID_2_)" fill="#FFFFFF" d="M223.109,21.864h-10.167V11.697h10.167V21.864z M223.359,11.448h-10.667v10.667
		h10.667V11.448z"/>
	<rect x="212.818" y="22.239" clip-path="url(#SVGID_2_)" fill="#CFE9EF" width="10.417" height="10.417"/>
	<path clip-path="url(#SVGID_2_)" fill="#FFFFFF" d="M223.109,32.531h-10.167V22.364h10.167V32.531z M223.359,22.114h-10.667v10.667
		h10.667V22.114z"/>
	<rect x="212.818" y="32.906" clip-path="url(#SVGID_2_)" fill="#CFE9EF" width="10.417" height="10.417"/>
	<path clip-path="url(#SVGID_2_)" fill="#FFFFFF" d="M223.109,43.198h-10.167V33.031h10.167V43.198z M223.359,32.781h-10.667v10.667
		h10.667V32.781z"/>
	<rect x="212.818" y="43.625" clip-path="url(#SVGID_2_)" fill="#CFE9EF" width="10.417" height="10.417"/>
	<path clip-path="url(#SVGID_2_)" fill="#FFFFFF" d="M223.109,53.916h-10.167V43.749h10.167V53.916z M223.359,43.5h-10.667v10.667
		h10.667V43.5z"/>
	<rect x="212.818" y="54.291" clip-path="url(#SVGID_2_)" fill="#CFE9EF" width="10.417" height="10.417"/>
	<path clip-path="url(#SVGID_2_)" fill="#FFFFFF" d="M223.109,64.583h-10.167V54.416h10.167V64.583z M223.359,54.166h-10.667v10.667
		h10.667V54.166z"/>
	<rect x="212.818" y="64.958" clip-path="url(#SVGID_2_)" fill="#CFE9EF" width="10.417" height="10.417"/>
	<path clip-path="url(#SVGID_2_)" fill="#FFFFFF" d="M223.109,75.25h-10.167V65.083h10.167V75.25z M223.359,64.833h-10.667V75.5
		h10.667V64.833z"/>
	<rect x="202.151" y="11.573" clip-path="url(#SVGID_2_)" fill="#CFE9EF" width="10.417" height="10.417"/>
	<path clip-path="url(#SVGID_2_)" fill="#FFFFFF" d="M212.443,21.864h-10.167V11.697h10.167V21.864z M212.693,11.448h-10.667v10.667
		h10.667V11.448z"/>
	<rect x="202.151" y="22.239" clip-path="url(#SVGID_2_)" fill="#CFE9EF" width="10.417" height="10.417"/>
	<path clip-path="url(#SVGID_2_)" fill="#FFFFFF" d="M212.443,32.531h-10.167V22.364h10.167V32.531z M212.693,22.114h-10.667v10.667
		h10.667V22.114z"/>
	<rect x="202.151" y="32.906" clip-path="url(#SVGID_2_)" fill="#CFE9EF" width="10.417" height="10.417"/>
	<path clip-path="url(#SVGID_2_)" fill="#FFFFFF" d="M212.443,43.198h-10.167V33.031h10.167V43.198z M212.693,32.781h-10.667v10.667
		h10.667V32.781z"/>
	<rect x="202.151" y="43.625" clip-path="url(#SVGID_2_)" fill="#CFE9EF" width="10.417" height="10.417"/>
	<path clip-path="url(#SVGID_2_)" fill="#FFFFFF" d="M212.443,53.916h-10.167V43.749h10.167V53.916z M212.693,43.5h-10.667v10.667
		h10.667V43.5z"/>
	<rect x="202.151" y="54.291" clip-path="url(#SVGID_2_)" fill="#CFE9EF" width="10.417" height="10.417"/>
	<path clip-path="url(#SVGID_2_)" fill="#FFFFFF" d="M212.443,64.583h-10.167V54.416h10.167V64.583z M212.693,54.166h-10.667v10.667
		h10.667V54.166z"/>
	<rect x="202.151" y="64.958" clip-path="url(#SVGID_2_)" fill="#CFE9EF" width="10.417" height="10.417"/>
	<path clip-path="url(#SVGID_2_)" fill="#FFFFFF" d="M212.443,75.25h-10.167V65.083h10.167V75.25z M212.693,64.833h-10.667V75.5
		h10.667V64.833z"/>
	<rect x="191.495" y="11.573" clip-path="url(#SVGID_2_)" fill="#CFE9EF" width="10.416" height="10.417"/>
	<path clip-path="url(#SVGID_2_)" fill="#FFFFFF" d="M201.786,21.864h-10.167V11.697h10.167V21.864z M202.036,11.448h-10.667v10.667
		h10.667V11.448z"/>
	<rect x="191.495" y="22.239" clip-path="url(#SVGID_2_)" fill="#CFE9EF" width="10.416" height="10.417"/>
	<path clip-path="url(#SVGID_2_)" fill="#FFFFFF" d="M201.786,32.531h-10.167V22.364h10.167V32.531z M202.036,22.114h-10.667v10.667
		h10.667V22.114z"/>
	<rect x="191.495" y="32.906" clip-path="url(#SVGID_2_)" fill="#CFE9EF" width="10.416" height="10.417"/>
	<path clip-path="url(#SVGID_2_)" fill="#FFFFFF" d="M201.786,43.198h-10.167V33.031h10.167V43.198z M202.036,32.781h-10.667v10.667
		h10.667V32.781z"/>
	<rect x="191.495" y="43.625" clip-path="url(#SVGID_2_)" fill="#CFE9EF" width="10.416" height="10.417"/>
	<path clip-path="url(#SVGID_2_)" fill="#FFFFFF" d="M201.786,53.916h-10.167V43.749h10.167V53.916z M202.036,43.5h-10.667v10.667
		h10.667V43.5z"/>
	<rect x="191.495" y="54.291" clip-path="url(#SVGID_2_)" fill="#CFE9EF" width="10.416" height="10.417"/>
	<path clip-path="url(#SVGID_2_)" fill="#FFFFFF" d="M201.786,64.583h-10.167V54.416h10.167V64.583z M202.036,54.166h-10.667v10.667
		h10.667V54.166z"/>
	<rect x="191.495" y="64.958" clip-path="url(#SVGID_2_)" fill="#CFE9EF" width="10.416" height="10.417"/>
	<path clip-path="url(#SVGID_2_)" fill="#FFFFFF" d="M201.786,75.25h-10.167V65.083h10.167V75.25z M202.036,64.833h-10.667V75.5
		h10.667V64.833z"/>
	<rect x="180.828" y="11.573" clip-path="url(#SVGID_2_)" fill="#CFE9EF" width="10.417" height="10.417"/>
	<path clip-path="url(#SVGID_2_)" fill="#FFFFFF" d="M191.12,21.864h-10.167V11.697h10.167V21.864z M191.37,11.448h-10.667v10.667
		h10.667V11.448z"/>
	<rect x="180.828" y="22.239" clip-path="url(#SVGID_2_)" fill="#CFE9EF" width="10.417" height="10.417"/>
	<path clip-path="url(#SVGID_2_)" fill="#FFFFFF" d="M191.12,32.531h-10.167V22.364h10.167V32.531z M191.37,22.114h-10.667v10.667
		h10.667V22.114z"/>
	<rect x="180.828" y="32.906" clip-path="url(#SVGID_2_)" fill="#CFE9EF" width="10.417" height="10.417"/>
	<path clip-path="url(#SVGID_2_)" fill="#FFFFFF" d="M191.12,43.198h-10.167V33.031h10.167V43.198z M191.37,32.781h-10.667v10.667
		h10.667V32.781z"/>
	<rect x="180.828" y="43.625" clip-path="url(#SVGID_2_)" fill="#CFE9EF" width="10.417" height="10.417"/>
	<path clip-path="url(#SVGID_2_)" fill="#FFFFFF" d="M191.12,53.916h-10.167V43.749h10.167V53.916z M191.37,43.5h-10.667v10.667
		h10.667V43.5z"/>
	<rect x="180.828" y="54.291" clip-path="url(#SVGID_2_)" fill="#CFE9EF" width="10.417" height="10.417"/>
	<path clip-path="url(#SVGID_2_)" fill="#FFFFFF" d="M191.12,64.583h-10.167V54.416h10.167V64.583z M191.37,54.166h-10.667v10.667
		h10.667V54.166z"/>
	<rect x="180.828" y="64.958" clip-path="url(#SVGID_2_)" fill="#CFE9EF" width="10.417" height="10.417"/>
	<path clip-path="url(#SVGID_2_)" fill="#FFFFFF" d="M191.12,75.25h-10.167V65.083h10.167V75.25z M191.37,64.833h-10.667V75.5
		h10.667V64.833z"/>
	<rect x="170.734" y="11.573" clip-path="url(#SVGID_2_)" fill="#CFE9EF" width="9.906" height="10.417"/>
	<path clip-path="url(#SVGID_2_)" fill="#FFFFFF" d="M180.516,21.864h-9.656V11.697h9.656V21.864z M180.766,11.448h-10.156v10.667
		h10.156V11.448z"/>
	<rect x="170.734" y="22.239" clip-path="url(#SVGID_2_)" fill="#CFE9EF" width="9.906" height="10.417"/>
	<path clip-path="url(#SVGID_2_)" fill="#FFFFFF" d="M180.516,32.531h-9.656V22.364h9.656V32.531z M180.766,22.114h-10.156v10.667
		h10.156V22.114z"/>
	<rect x="170.734" y="32.906" clip-path="url(#SVGID_2_)" fill="#CFE9EF" width="9.906" height="10.417"/>
	<path clip-path="url(#SVGID_2_)" fill="#FFFFFF" d="M180.516,43.198h-9.656V33.031h9.656V43.198z M180.766,32.781h-10.156v10.667
		h10.156V32.781z"/>
	<rect x="170.734" y="43.625" clip-path="url(#SVGID_2_)" fill="#CFE9EF" width="9.906" height="10.417"/>
	<path clip-path="url(#SVGID_2_)" fill="#FFFFFF" d="M180.516,53.916h-9.656V43.749h9.656V53.916z M180.766,43.5h-10.156v10.667
		h10.156V43.5z"/>
	<rect x="170.734" y="54.291" clip-path="url(#SVGID_2_)" fill="#CFE9EF" width="9.906" height="10.417"/>
	<path clip-path="url(#SVGID_2_)" fill="#FFFFFF" d="M180.516,64.583h-9.656V54.416h9.656V64.583z M180.766,54.166h-10.156v10.667
		h10.156V54.166z"/>
	<rect x="170.734" y="64.958" clip-path="url(#SVGID_2_)" fill="#CFE9EF" width="9.906" height="10.417"/>
	<path clip-path="url(#SVGID_2_)" fill="#FFFFFF" d="M180.516,75.25h-9.656V65.083h9.656V75.25z M180.766,64.833h-10.156V75.5
		h10.156V64.833z"/>
	<rect x="260.479" y="11.573" clip-path="url(#SVGID_2_)" fill="#CFE9EF" width="10.417" height="10.417"/>
	<path clip-path="url(#SVGID_2_)" fill="#FFFFFF" d="M270.771,21.864h-10.167V11.697h10.167V21.864z M271.021,11.448h-10.667v10.667
		h10.667V11.448z"/>
	<rect x="260.479" y="22.239" clip-path="url(#SVGID_2_)" fill="#CFE9EF" width="10.417" height="10.417"/>
	<path clip-path="url(#SVGID_2_)" fill="#FFFFFF" d="M270.771,32.531h-10.167V22.364h10.167V32.531z M271.021,22.114h-10.667v10.667
		h10.667V22.114z"/>
	<rect x="260.479" y="32.906" clip-path="url(#SVGID_2_)" fill="#CFE9EF" width="10.417" height="10.417"/>
	<path clip-path="url(#SVGID_2_)" fill="#FFFFFF" d="M270.771,43.198h-10.167V33.031h10.167V43.198z M271.021,32.781h-10.667v10.667
		h10.667V32.781z"/>
	<rect x="260.479" y="43.625" clip-path="url(#SVGID_2_)" fill="#CFE9EF" width="10.417" height="10.417"/>
	<path clip-path="url(#SVGID_2_)" fill="#FFFFFF" d="M270.771,53.916h-10.167V43.749h10.167V53.916z M271.021,43.5h-10.667v10.667
		h10.667V43.5z"/>
	<rect x="260.479" y="54.291" clip-path="url(#SVGID_2_)" fill="#CFE9EF" width="10.417" height="10.417"/>
	<path clip-path="url(#SVGID_2_)" fill="#FFFFFF" d="M270.771,64.583h-10.167V54.416h10.167V64.583z M271.021,54.166h-10.667v10.667
		h10.667V54.166z"/>
	<rect x="260.479" y="64.958" clip-path="url(#SVGID_2_)" fill="#CFE9EF" width="10.417" height="10.417"/>
	<path clip-path="url(#SVGID_2_)" fill="#FFFFFF" d="M270.771,75.25h-10.167V65.083h10.167V75.25z M271.021,64.833h-10.667V75.5
		h10.667V64.833z"/>
	<rect x="249.812" y="11.573" clip-path="url(#SVGID_2_)" fill="#CFE9EF" width="10.417" height="10.417"/>
	<path clip-path="url(#SVGID_2_)" fill="#FFFFFF" d="M260.104,21.864h-10.167V11.697h10.167V21.864z M260.354,11.448h-10.667v10.667
		h10.667V11.448z"/>
	<rect x="249.812" y="22.239" clip-path="url(#SVGID_2_)" fill="#CFE9EF" width="10.417" height="10.417"/>
	<path clip-path="url(#SVGID_2_)" fill="#FFFFFF" d="M260.104,32.531h-10.167V22.364h10.167V32.531z M260.354,22.114h-10.667v10.667
		h10.667V22.114z"/>
	<rect x="249.812" y="32.906" clip-path="url(#SVGID_2_)" fill="#CFE9EF" width="10.417" height="10.417"/>
	<path clip-path="url(#SVGID_2_)" fill="#FFFFFF" d="M260.104,43.198h-10.167V33.031h10.167V43.198z M260.354,32.781h-10.667v10.667
		h10.667V32.781z"/>
	<rect x="249.812" y="43.625" clip-path="url(#SVGID_2_)" fill="#CFE9EF" width="10.417" height="10.417"/>
	<path clip-path="url(#SVGID_2_)" fill="#FFFFFF" d="M260.104,53.916h-10.167V43.749h10.167V53.916z M260.354,43.5h-10.667v10.667
		h10.667V43.5z"/>
	<rect x="249.812" y="54.291" clip-path="url(#SVGID_2_)" fill="#CFE9EF" width="10.417" height="10.417"/>
	<path clip-path="url(#SVGID_2_)" fill="#FFFFFF" d="M260.104,64.583h-10.167V54.416h10.167V64.583z M260.354,54.166h-10.667v10.667
		h10.667V54.166z"/>
	<rect x="249.812" y="64.958" clip-path="url(#SVGID_2_)" fill="#CFE9EF" width="10.417" height="10.417"/>
	<path clip-path="url(#SVGID_2_)" fill="#FFFFFF" d="M260.104,75.25h-10.167V65.083h10.167V75.25z M260.354,64.833h-10.667V75.5
		h10.667V64.833z"/>
	<rect x="239.156" y="11.573" clip-path="url(#SVGID_2_)" fill="#CFE9EF" width="10.416" height="10.417"/>
	<path clip-path="url(#SVGID_2_)" fill="#FFFFFF" d="M249.448,21.864h-10.167V11.697h10.167V21.864z M249.698,11.448h-10.667v10.667
		h10.667V11.448z"/>
	<rect x="239.156" y="22.239" clip-path="url(#SVGID_2_)" fill="#CFE9EF" width="10.416" height="10.417"/>
	<path clip-path="url(#SVGID_2_)" fill="#FFFFFF" d="M249.448,32.531h-10.167V22.364h10.167V32.531z M249.698,22.114h-10.667v10.667
		h10.667V22.114z"/>
	<rect x="239.156" y="32.906" clip-path="url(#SVGID_2_)" fill="#CFE9EF" width="10.416" height="10.417"/>
	<path clip-path="url(#SVGID_2_)" fill="#FFFFFF" d="M249.448,43.198h-10.167V33.031h10.167V43.198z M249.698,32.781h-10.667v10.667
		h10.667V32.781z"/>
	<rect x="239.156" y="43.625" clip-path="url(#SVGID_2_)" fill="#CFE9EF" width="10.416" height="10.417"/>
	<path clip-path="url(#SVGID_2_)" fill="#FFFFFF" d="M249.448,53.916h-10.167V43.749h10.167V53.916z M249.698,43.5h-10.667v10.667
		h10.667V43.5z"/>
	<rect x="239.156" y="54.291" clip-path="url(#SVGID_2_)" fill="#CFE9EF" width="10.416" height="10.417"/>
	<path clip-path="url(#SVGID_2_)" fill="#FFFFFF" d="M249.448,64.583h-10.167V54.416h10.167V64.583z M249.698,54.166h-10.667v10.667
		h10.667V54.166z"/>
	<rect x="239.156" y="64.958" clip-path="url(#SVGID_2_)" fill="#CFE9EF" width="10.416" height="10.417"/>
	<path clip-path="url(#SVGID_2_)" fill="#FFFFFF" d="M249.448,75.25h-10.167V65.083h10.167V75.25z M249.698,64.833h-10.667V75.5
		h10.667V64.833z"/>
	<rect x="228.489" y="11.573" clip-path="url(#SVGID_2_)" fill="#CFE9EF" width="10.417" height="10.417"/>
	<path clip-path="url(#SVGID_2_)" fill="#FFFFFF" d="M238.781,21.864h-10.167V11.697h10.167V21.864z M239.031,11.448h-10.667v10.667
		h10.667V11.448z"/>
	<rect x="228.489" y="22.239" clip-path="url(#SVGID_2_)" fill="#CFE9EF" width="10.417" height="10.417"/>
	<path clip-path="url(#SVGID_2_)" fill="#FFFFFF" d="M238.781,32.531h-10.167V22.364h10.167V32.531z M239.031,22.114h-10.667v10.667
		h10.667V22.114z"/>
	<rect x="228.489" y="32.906" clip-path="url(#SVGID_2_)" fill="#CFE9EF" width="10.417" height="10.417"/>
	<path clip-path="url(#SVGID_2_)" fill="#FFFFFF" d="M238.781,43.198h-10.167V33.031h10.167V43.198z M239.031,32.781h-10.667v10.667
		h10.667V32.781z"/>
	<rect x="228.489" y="43.625" clip-path="url(#SVGID_2_)" fill="#CFE9EF" width="10.417" height="10.417"/>
	<path clip-path="url(#SVGID_2_)" fill="#FFFFFF" d="M238.781,53.916h-10.167V43.749h10.167V53.916z M239.031,43.5h-10.667v10.667
		h10.667V43.5z"/>
	<rect x="228.489" y="54.291" clip-path="url(#SVGID_2_)" fill="#CFE9EF" width="10.417" height="10.417"/>
	<path clip-path="url(#SVGID_2_)" fill="#FFFFFF" d="M238.781,64.583h-10.167V54.416h10.167V64.583z M239.031,54.166h-10.667v10.667
		h10.667V54.166z"/>
	<rect x="228.489" y="64.958" clip-path="url(#SVGID_2_)" fill="#CFE9EF" width="10.417" height="10.417"/>
	<path clip-path="url(#SVGID_2_)" fill="#FFFFFF" d="M238.781,75.25h-10.167V65.083h10.167V75.25z M239.031,64.833h-10.667V75.5
		h10.667V64.833z"/>
	<rect x="218.396" y="11.573" clip-path="url(#SVGID_2_)" fill="#CFE9EF" width="9.907" height="10.417"/>
	<path clip-path="url(#SVGID_2_)" fill="#FFFFFF" d="M228.177,21.864h-9.657V11.697h9.657V21.864z M228.427,11.448H218.27v10.667
		h10.157V11.448z"/>
	<rect x="218.396" y="22.239" clip-path="url(#SVGID_2_)" fill="#CFE9EF" width="9.907" height="10.417"/>
	<path clip-path="url(#SVGID_2_)" fill="#FFFFFF" d="M228.177,32.531h-9.657V22.364h9.657V32.531z M228.427,22.114H218.27v10.667
		h10.157V22.114z"/>
	<rect x="218.396" y="32.906" clip-path="url(#SVGID_2_)" fill="#CFE9EF" width="9.907" height="10.417"/>
	<path clip-path="url(#SVGID_2_)" fill="#FFFFFF" d="M228.177,43.198h-9.657V33.031h9.657V43.198z M228.427,32.781H218.27v10.667
		h10.157V32.781z"/>
	<rect x="218.396" y="43.625" clip-path="url(#SVGID_2_)" fill="#CFE9EF" width="9.907" height="10.417"/>
	<path clip-path="url(#SVGID_2_)" fill="#FFFFFF" d="M228.177,53.916h-9.657V43.749h9.657V53.916z M228.427,43.5H218.27v10.667
		h10.157V43.5z"/>
	<rect x="218.396" y="54.291" clip-path="url(#SVGID_2_)" fill="#CFE9EF" width="9.907" height="10.417"/>
	<path clip-path="url(#SVGID_2_)" fill="#FFFFFF" d="M228.177,64.583h-9.657V54.416h9.657V64.583z M228.427,54.166H218.27v10.667
		h10.157V54.166z"/>
	<rect x="218.396" y="64.958" clip-path="url(#SVGID_2_)" fill="#CFE9EF" width="9.907" height="10.417"/>
	<path clip-path="url(#SVGID_2_)" fill="#FFFFFF" d="M228.177,75.25h-9.657V65.083h9.657V75.25z M228.427,64.833H218.27V75.5h10.157
		V64.833z"/>
</g>
<rect x="33.782" y="191.739" fill="#2E2D4B" width="16.5" height="54.428"/>
<rect x="33.782" y="111.624" fill="#2E2D4B" width="16.5" height="28.104"/>
<rect y="94.416" fill="#2E2D4B" width="16.5" height="28.104"/>
<rect y="-0.001" fill="#2E2D4B" width="16.5" height="40.771"/>
<rect y="110.75" fill="#2E2D4B" width="42" height="17.25"/>
<polyline fill="#2E2D4B" points="439.417,17.25 0,17.25 0,0 439.417,0 "/>
<rect x="423" y="94.749" fill="#2E2D4B" width="16.334" height="37.251"/>
<rect x="423" y="2.166" fill="#2E2D4B" width="16.334" height="38.354"/>
<rect x="34.97" y="239.166" fill="#2E2D4B" width="125.948" height="7"/>
<rect x="208.584" y="126.75" fill="#2E2D4B" width="222.582" height="5.25"/>
<rect x="139.803" y="161.893" fill="#2E2D4B" width="28.031" height="5.5"/>
<rect x="139.5" y="111.625" fill="#2E2D4B" width="22.334" height="5.5"/>
<rect x="193.834" y="165.166" fill="#2E2D4B" width="14.75" height="5.5"/>
<rect x="160.021" y="151.437" fill="#2E2D4B" width="3.625" height="17.5"/>
<rect x="16.5" y="110.75" fill="#2E2D4B" width="145.334" height="3.625"/>
<rect x="160.021" y="104.166" fill="#2E2D4B" width="3.625" height="22.583"/>
<rect x="264.771" y="113.604" fill="#2E2D4B" width="3.625" height="17.5"/>
<polyline fill="#2E2D4B" points="155.417,246.166 155.417,165.166 160.917,165.166 160.917,246.166 "/>
<rect x="205.834" y="126.75" fill="#2E2D4B" width="5.5" height="43.916"/>
<rect x="139.018" y="161.893" fill="#2E2D4B" width="7" height="81"/>
<rect x="168.709" y="15.75" fill="#2E2D4B" width="3" height="59.75"/>
<rect x="200.084" y="15.75" fill="#2E2D4B" width="3" height="59.75"/>
<rect x="264.334" y="15.75" fill="#2E2D4B" width="3" height="73.375"/>
<rect x="197.334" y="72.125" fill="#2E2D4B" width="32" height="3.375"/>
<rect x="251.334" y="72.125" fill="#2E2D4B" width="16" height="3.375"/>
<rect x="168.707" y="72.125" fill="#2E2D4B" width="5.012" height="3.375"/>
<rect x="254.396" y="66" fill="#2E2D4B" width="3.25" height="7.25"/>
<rect x="254.396" y="66" fill="#2E2D4B" width="12.5" height="3.25"/>
<rect x="422.918" y="39.458" fill="#A5D5E7" width="16.5" height="55.292"/>
<rect x="428.6" y="39.458" fill="#62AAC3" width="5.134" height="55.292"/>
<rect x="33.782" y="139.745" fill="#A5D5E7" width="16.5" height="52.146"/>
<rect x="39.466" y="139.745" fill="#62AAC3" width="5.133" height="52.146"/>
<rect y="40.771" fill="#A5D5E7" width="16.5" height="53.646"/>
<rect x="5.683" y="40.771" fill="#62AAC3" width="5.134" height="53.646"/>
<rect x="144.309" y="167.371" fill="#9C9D9A" width="11.109" height="33.728"/>
<rect x="141.359" y="201.098" fill="#2E2D4B" width="15.725" height="3.74"/>
<rect x="144.309" y="204.839" fill="#9C9D9A" width="11.109" height="34.547"/>
<polygon fill="#EEEDEC" points="144.308,239.385 148.431,209.703 155.416,204.839 155.416,239.385 "/>
<polygon fill="#EEEDEC" points="155.417,201.099 144.308,201.099 148.314,171.497 155.417,167.371 "/>
<rect x="257.646" y="69.25" fill="#D7D8D5" width="6.688" height="2.875"/>
<rect x="171.709" y="17.25" fill="#9C9D9A" width="28.375" height="12.875"/>
<rect x="167.834" y="165.166" fill="#E3004F" width="3.125" height="2.25"/>
<rect x="176.063" y="163.067" transform="matrix(-0.7071 0.7071 -0.7071 -0.7071 426.3444 173.7471)" fill="#E3004F" width="2.25" height="24.21"/>
<rect x="229.334" y="72.125" fill="#E3004F" width="3.125" height="2.25"/>
<rect x="237.563" y="70.026" transform="matrix(-0.7071 0.7071 -0.7071 -0.7071 465.5415 -28.5709)" fill="#E3004F" width="2.25" height="24.21"/>
<rect x="264.334" y="89.125" fill="#E3004F" width="3.125" height="2.25"/>
<rect x="272.563" y="87.026" transform="matrix(-0.7071 0.7071 -0.7071 -0.7071 537.311 -24.2988)" fill="#E3004F" width="2.25" height="24.21"/>
<rect x="194.209" y="72.125" fill="#E3004F" width="3.125" height="2.25"/>
<rect x="186.854" y="70.027" transform="matrix(0.7071 0.7071 -0.7071 0.7071 113.1333 -108.8652)" fill="#E3004F" width="2.25" height="24.209"/>
<rect x="161.396" y="126.75" fill="#E3004F" width="2.25" height="3.125"/>
<rect x="152.514" y="123.999" transform="matrix(-0.7071 -0.7071 0.7071 -0.7071 166.0384 340.9833)" fill="#E3004F" width="2.25" height="24.21"/>
<rect x="161.396" y="101.041" fill="#E3004F" width="2.25" height="3.125"/>
<rect x="152.514" y="82.707" transform="matrix(-0.7071 0.7071 -0.7071 -0.7071 329.3203 53.2141)" fill="#E3004F" width="2.25" height="24.209"/>
<rect x="104.832" y="222.03" fill="#B2D3DC" width="21.388" height="17.106"/>
<path fill="#FFFFFF" d="M109.15,236.232h6.104h0.771h8.604v-0.491h-7.051c0.311-0.218,0.569-0.5,0.769-0.825h6.282v-0.491h-6.046
	c0.093-0.26,0.151-0.535,0.162-0.824h5.884v-0.491h-5.875v-0.824h5.875v-0.492h-5.875v-0.824h5.875v-0.491h-5.875v-0.824h5.875
	v-0.491h-5.875v-0.826h5.875v-0.49h-5.875v-0.823h5.875v-0.492h-5.884c-0.011-0.289-0.069-0.564-0.162-0.824h6.046v-0.492h-6.282
	c-0.199-0.323-0.458-0.606-0.769-0.823h7.051v-0.491h-8.604h-0.771h-6.104c-1.501,0-2.729,1.228-2.729,2.729v6.875
	C106.422,235.004,107.649,236.232,109.15,236.232"/>
<path fill="#62A9C4" d="M110.553,239.138h4.333v-2.905h-1.666v-2.842c0-0.155-0.127-0.281-0.282-0.281H112.5
	c-0.154,0-0.28,0.126-0.28,0.281v2.842h-1.667V239.138z"/>
<path fill="#FFFFFF" d="M113.32,237.683c0-0.268,0.218-0.484,0.484-0.484c0.268,0,0.485,0.217,0.485,0.484s-0.218,0.484-0.485,0.484
	C113.538,238.167,113.32,237.95,113.32,237.683"/>
<path fill="#FFFFFF" d="M111.148,237.683c0-0.268,0.218-0.484,0.484-0.484c0.268,0,0.485,0.217,0.485,0.484
	s-0.218,0.484-0.485,0.484C111.366,238.167,111.148,237.95,111.148,237.683"/>
<rect x="76.802" y="236.232" fill="#B2D3DC" width="15.25" height="2.904"/>
<rect x="76.802" y="222.03" fill="#62A9C4" width="15.25" height="14.202"/>
<rect x="78.302" y="220.443" fill="#62A9C4" width="12.25" height="0.927"/>
<path fill="#FFFFFF" d="M81.093,230.355c1.327,0,2.406,1.08,2.406,2.406s-1.079,2.405-2.406,2.405c-1.326,0-2.405-1.079-2.405-2.405
	S79.767,230.355,81.093,230.355 M81.093,234.417c0.913,0,1.656-0.742,1.656-1.655s-0.743-1.656-1.656-1.656
	s-1.655,0.743-1.655,1.656S80.18,234.417,81.093,234.417"/>
<path fill="#FFFFFF" d="M81.093,231.512c0.688,0,1.25,0.561,1.25,1.25c0,0.688-0.562,1.25-1.25,1.25c-0.689,0-1.25-0.563-1.25-1.25
	C79.843,232.072,80.403,231.512,81.093,231.512 M81.093,233.262c0.274,0,0.5-0.225,0.5-0.5c0-0.276-0.226-0.5-0.5-0.5
	c-0.275,0-0.5,0.224-0.5,0.5C80.593,233.037,80.817,233.262,81.093,233.262"/>
<path fill="#FFFFFF" d="M81.093,224.782c0.908,0,1.646,0.739,1.646,1.646c0,0.908-0.737,1.646-1.646,1.646
	c-0.907,0-1.646-0.738-1.646-1.646C79.446,225.521,80.186,224.782,81.093,224.782 M81.093,227.324c0.494,0,0.896-0.402,0.896-0.896
	s-0.401-0.896-0.896-0.896s-0.896,0.401-0.896,0.896S80.599,227.324,81.093,227.324"/>
<path fill="#FFFFFF" d="M81.093,223.095c1.838,0,3.334,1.496,3.334,3.334c0,1.837-1.496,3.333-3.334,3.333s-3.333-1.496-3.333-3.333
	C77.76,224.591,79.255,223.095,81.093,223.095 M81.093,229.012c1.425,0,2.584-1.159,2.584-2.583c0-1.425-1.159-2.584-2.584-2.584
	c-1.424,0-2.583,1.159-2.583,2.584C78.51,227.853,79.669,229.012,81.093,229.012"/>
<path fill="#FFFFFF" d="M87.761,227.906c-1.327,0-2.406-1.079-2.406-2.405c0-1.327,1.079-2.406,2.406-2.406
	c1.326,0,2.404,1.079,2.404,2.406C90.165,226.827,89.087,227.906,87.761,227.906 M87.761,223.845c-0.913,0-1.656,0.743-1.656,1.656
	s0.743,1.657,1.656,1.657s1.654-0.744,1.654-1.657S88.674,223.845,87.761,223.845"/>
<path fill="#FFFFFF" d="M87.761,226.751c-0.689,0-1.25-0.562-1.25-1.25s0.561-1.25,1.25-1.25c0.688,0,1.25,0.562,1.25,1.25
	S88.449,226.751,87.761,226.751 M87.761,225.001c-0.275,0-0.5,0.224-0.5,0.5c0,0.275,0.225,0.5,0.5,0.5c0.274,0,0.5-0.225,0.5-0.5
	C88.261,225.225,88.035,225.001,87.761,225.001"/>
<path fill="#FFFFFF" d="M87.761,233.48c-0.908,0-1.646-0.739-1.646-1.646c0-0.908,0.738-1.646,1.646-1.646
	c0.907,0,1.646,0.738,1.646,1.646C89.406,232.741,88.668,233.48,87.761,233.48 M87.761,230.938c-0.494,0-0.896,0.401-0.896,0.896
	c0,0.493,0.402,0.896,0.896,0.896s0.896-0.402,0.896-0.896C88.656,231.34,88.255,230.938,87.761,230.938"/>
<path fill="#FFFFFF" d="M87.761,235.168c-1.838,0-3.334-1.496-3.334-3.334c0-1.837,1.496-3.333,3.334-3.333s3.333,1.496,3.333,3.333
	C91.094,233.672,89.599,235.168,87.761,235.168 M87.761,229.251c-1.425,0-2.584,1.159-2.584,2.583c0,1.425,1.159,2.584,2.584,2.584
	c1.424,0,2.583-1.159,2.583-2.584C90.344,230.41,89.185,229.251,87.761,229.251"/>
<rect x="86.197" y="221.37" fill="#B2D3DC" width="1.48" height="0.66"/>
<rect x="81.176" y="221.37" fill="#B2D3DC" width="1.48" height="0.66"/>
<rect x="50.282" y="222.03" fill="#B2D3DC" width="16.938" height="17.106"/>
<path fill="#62A9C4" d="M67.215,221.558c-0.016-0.615-0.398-1.115-0.87-1.115H51.156c-0.471,0-0.854,0.5-0.869,1.115H67.215z"/>
<path fill="#FFFFFF" d="M308.065,133.454c0,0.269-0.218,0.484-0.484,0.484c-0.268,0-0.485-0.216-0.485-0.484
	c0-0.268,0.218-0.483,0.485-0.483C307.848,132.971,308.065,133.187,308.065,133.454"/>
<path fill="#FFFFFF" d="M310.237,133.454c0,0.269-0.218,0.484-0.484,0.484c-0.268,0-0.485-0.216-0.485-0.484
	c0-0.268,0.218-0.483,0.485-0.483C310.02,132.971,310.237,133.187,310.237,133.454"/>
<path fill="#FFFFFF" d="M222.113,135.375c0,0.522-0.424,0.945-0.946,0.945c-0.523,0-0.948-0.423-0.948-0.945
	c0-0.523,0.425-0.946,0.948-0.946C221.689,134.429,222.113,134.852,222.113,135.375"/>
<rect x="203.084" y="17.18" fill="#62A9C4" width="22.611" height="50.833"/>
<path fill="#FFFFFF" d="M212.269,24.377h0.52c0.105-0.478,0.467-0.838,0.943-0.944v-0.519
	C212.977,23.028,212.384,23.621,212.269,24.377"/>
<path fill="#FFFFFF" d="M213.314,24.377h0.418v-0.418C213.539,24.034,213.388,24.184,213.314,24.377"/>
<path fill="#FFFFFF" d="M212.788,24.903h-0.521c0.115,0.756,0.709,1.349,1.465,1.463v-0.52
	C213.255,25.742,212.893,25.381,212.788,24.903"/>
<path fill="#FFFFFF" d="M213.731,25.32v-0.418h-0.418C213.388,25.096,213.539,25.247,213.731,25.32"/>
<path fill="#FFFFFF" d="M214.258,23.959v0.418h0.418C214.601,24.184,214.451,24.033,214.258,23.959"/>
<path fill="#FFFFFF" d="M214.676,24.903h-0.418v0.418C214.451,25.246,214.602,25.096,214.676,24.903"/>
<path fill="#FFFFFF" d="M223.46,23.106c0-1.367-1.119-2.486-2.486-2.486h-13.169c-1.368,0-2.486,1.119-2.486,2.486v31.728
	c0,0.175,0.02,0.346,0.055,0.511c-0.035,0.322-0.055,0.648-0.055,0.979c0,5.009,4.061,9.07,9.07,9.07
	c5.011,0,9.071-4.062,9.071-9.07c0-0.331-0.02-0.657-0.054-0.979c0.035-0.165,0.054-0.336,0.054-0.511V23.106z M217.172,24.903
	h-0.925c-0.122,1.044-0.945,1.866-1.989,1.988v0.925h-0.525v-0.925c-1.045-0.122-1.867-0.944-1.989-1.988h-0.925v-0.526h0.925
	c0.122-1.044,0.944-1.867,1.989-1.989v-0.925h0.525v0.925c1.044,0.122,1.867,0.945,1.989,1.989h0.925V24.903z"/>
<path fill="#FFFFFF" d="M214.258,22.914v0.521c0.478,0.104,0.838,0.465,0.944,0.942h0.519
	C215.606,23.621,215.014,23.028,214.258,22.914"/>
<path fill="#FFFFFF" d="M214.258,25.847v0.521c0.756-0.115,1.349-0.709,1.463-1.465h-0.519
	C215.096,25.38,214.735,25.742,214.258,25.847"/>
<path fill="#62A9C4" d="M238.688,17.143v5.771v1.322v0.844c0,1.982,1.622,3.604,3.604,3.604h7.125c1.982,0,3.604-1.622,3.604-3.604
	v-0.844v-1.322v-5.771H238.688z"/>
<path fill="#FFFFFF" d="M249.428,27.81h-7.146c-1.529,0-2.78-1.252-2.78-2.781v-1.833c0-1.53,1.251-2.781,2.78-2.781h7.146
	c1.53,0,2.781,1.251,2.781,2.781v1.833C252.209,26.558,250.958,27.81,249.428,27.81"/>
<path fill="#62A9C4" d="M244.646,24.053h0.364c0.072-0.334,0.326-0.588,0.66-0.661v-0.364
	C245.142,23.107,244.726,23.523,244.646,24.053"/>
<path fill="#62A9C4" d="M245.378,24.053h0.293v-0.294C245.536,23.812,245.43,23.917,245.378,24.053"/>
<path fill="#62A9C4" d="M245.01,24.421h-0.364c0.08,0.529,0.496,0.944,1.025,1.024v-0.363
	C245.337,25.008,245.084,24.755,245.01,24.421"/>
<path fill="#62A9C4" d="M245.671,24.713V24.42h-0.293C245.43,24.556,245.535,24.661,245.671,24.713"/>
<path fill="#62A9C4" d="M246.039,23.76v0.293h0.293C246.28,23.918,246.174,23.812,246.039,23.76"/>
<path fill="#62A9C4" d="M246.332,24.421h-0.293v0.293C246.174,24.662,246.28,24.556,246.332,24.421"/>
<path fill="#62A9C4" d="M246.039,23.027v0.364c0.334,0.072,0.587,0.325,0.661,0.66h0.364
	C246.984,23.523,246.568,23.107,246.039,23.027"/>
<path fill="#62A9C4" d="M246.039,25.082v0.363c0.53-0.079,0.945-0.495,1.025-1.024H246.7
	C246.626,24.755,246.373,25.008,246.039,25.082"/>
<path fill="#62A9C4" d="M187.083,50.195h-2.375c-2.476,0-4.5-2.025-4.5-4.5V41.07c0-2.475,2.024-4.5,4.5-4.5h2.375
	c2.476,0,4.5,2.025,4.5,4.5v4.625C191.583,48.17,189.559,50.195,187.083,50.195"/>
<path fill="#FFFFFF" d="M186.694,49.122h-1.597c-2.155,0-3.911-1.754-3.911-3.91v-5.23c0-2.156,1.756-3.911,3.911-3.911h1.597
	c2.155,0,3.909,1.755,3.909,3.911v5.23C190.604,47.368,188.85,49.122,186.694,49.122 M185.098,37.07
	c-1.604,0-2.911,1.306-2.911,2.911v5.23c0,1.604,1.308,2.91,2.911,2.91h1.597c1.604,0,2.909-1.306,2.909-2.91v-5.23
	c0-1.605-1.305-2.911-2.909-2.911H185.098z"/>
<path fill="#62A9C4" d="M191.146,36.873h-10.5c-0.619,0-1.125-0.506-1.125-1.125v-4.5c0-0.619,0.506-1.125,1.125-1.125h10.5
	c0.619,0,1.125,0.506,1.125,1.125v4.5C192.271,36.367,191.765,36.873,191.146,36.873"/>
<path fill="#62A9C4" d="M187.646,38.612h-3.5c-0.269,0-0.489-0.22-0.489-0.489v-2.5c0-0.27,0.221-0.489,0.489-0.489h3.5
	c0.27,0,0.49,0.22,0.49,0.489v2.5C188.136,38.393,187.915,38.612,187.646,38.612"/>
<path fill="#FFFFFF" d="M186.842,33.498c0,0.523-0.424,0.946-0.945,0.946c-0.523,0-0.947-0.423-0.947-0.946
	c0-0.521,0.424-0.946,0.947-0.946C186.418,32.552,186.842,32.977,186.842,33.498"/>
<rect x="132.722" y="210.295" fill="#2E2D4B" width="8.638" height="2.837"/>
<rect x="132.722" y="211.281" fill="#2E2D4B" width="2.837" height="10.732"/>
<rect x="126.219" y="221.557" fill="#2E2D4B" width="2.837" height="19.016"/>
<rect x="126.219" y="220.595" fill="#2E2D4B" width="15.141" height="2.837"/>
<rect x="129.056" y="223.371" fill="#9C9D9A" width="9.905" height="15.766"/>
<polygon fill="#EEEDEC" points="132.386,226.226 129.056,239.137 138.963,239.137 138.963,223.372 "/>
<rect x="135.559" y="213.131" fill="#EEEDEC" width="4.141" height="7.464"/>
<rect x="67.202" y="222.03" fill="#CFE9EF" width="9.6" height="17.136"/>
<rect x="92.052" y="222.03" fill="#CFE9EF" width="12.78" height="17.136"/>
<path fill="#E3004F" d="M332.127,97.026h-34.248v-8.393l11.523-11.653c3.291-3.442,5.444-5.794,6.455-7.053
	c1.012-1.259,1.717-2.34,2.115-3.244c0.397-0.903,0.596-1.851,0.596-2.841c0-1.227-0.397-2.194-1.193-2.904
	c-0.796-0.711-1.915-1.065-3.356-1.065c-1.485,0-2.986,0.425-4.503,1.274c-1.518,0.851-3.234,2.104-5.149,3.761l-7.004-8.199
	c2.432-2.173,4.476-3.728,6.133-4.664c1.657-0.936,3.459-1.651,5.407-2.146c1.947-0.495,4.137-0.742,6.568-0.742
	c3.055,0,5.783,0.538,8.182,1.613c2.4,1.077,4.262,2.611,5.585,4.601c1.324,1.99,1.985,4.224,1.985,6.697
	c0,1.852-0.231,3.563-0.693,5.133c-0.465,1.571-1.179,3.115-2.147,4.632c-0.968,1.518-2.254,3.115-3.858,4.794
	c-1.602,1.679-5.018,4.863-10.248,9.555v0.323h17.852V97.026z"/>
<path fill="#2E2D4B" d="M346.686,54.772c0,0.987-0.301,1.834-0.904,2.542c-0.602,0.707-1.473,1.221-2.611,1.54v0.065
	c2.656,0.334,3.984,1.589,3.984,3.767c0,1.481-0.586,2.646-1.758,3.494c-1.174,0.849-2.801,1.273-4.883,1.273
	c-0.857,0-1.648-0.062-2.379-0.186c-0.729-0.123-1.518-0.348-2.367-0.675v-3.57c0.697,0.355,1.406,0.619,2.127,0.789
	c0.723,0.171,1.389,0.256,1.998,0.256c0.943,0,1.631-0.132,2.063-0.397c0.432-0.265,0.648-0.68,0.648-1.246
	c0-0.436-0.113-0.771-0.338-1.006c-0.225-0.236-0.588-0.415-1.088-0.534c-0.502-0.12-1.154-0.18-1.959-0.18h-0.98v-3.233h1.002
	c2.184,0,3.275-0.558,3.275-1.676c0-0.42-0.16-0.733-0.484-0.937c-0.322-0.203-0.756-0.305-1.301-0.305
	c-1.016,0-2.068,0.341-3.156,1.023l-1.785-2.874c0.842-0.579,1.703-0.994,2.586-1.241c0.881-0.246,1.893-0.37,3.031-0.37
	c1.646,0,2.939,0.327,3.875,0.979C346.217,52.726,346.686,53.627,346.686,54.772"/>
<path fill="#2E2D4B" d="M360.4,58.604c0,3.113-0.67,5.366-2.014,6.76c-1.342,1.394-3.49,2.089-6.443,2.089
	c-0.973,0-1.713-0.035-2.221-0.108v-3.406c0.623,0.115,1.248,0.174,1.873,0.174c1.537,0,2.725-0.317,3.559-0.952
	c0.834-0.636,1.289-1.639,1.361-3.011h-0.131c-0.283,0.522-0.563,0.9-0.838,1.133c-0.277,0.232-0.613,0.41-1.014,0.533
	c-0.398,0.123-0.896,0.185-1.49,0.185c-1.379,0-2.457-0.46-3.234-1.382c-0.775-0.922-1.164-2.191-1.164-3.811
	c0-1.763,0.502-3.146,1.508-4.147c1.006-1.001,2.383-1.502,4.131-1.502c1.945,0,3.451,0.646,4.518,1.938
	C359.867,54.388,360.4,56.224,360.4,58.604 M354.402,54.599c-0.471,0-0.854,0.17-1.148,0.511c-0.293,0.342-0.439,0.89-0.439,1.645
	c0,0.595,0.127,1.068,0.381,1.42c0.254,0.353,0.643,0.528,1.164,0.528c0.473,0,0.883-0.171,1.229-0.512
	c0.349-0.341,0.522-0.751,0.522-1.23c0-0.646-0.16-1.2-0.484-1.665C355.305,54.83,354.896,54.599,354.402,54.599"/>
<path fill="#2E2D4B" d="M366.551,63.981l0.152,0.25c-0.703,2.766-1.342,4.801-1.916,6.107h-3.037
	c0.211-1.003,0.424-2.125,0.637-3.369c0.215-1.244,0.361-2.24,0.441-2.988H366.551z"/>
<path fill="#2E2D4B" d="M380.746,64.155h-1.752v3.081h-4.246v-3.081h-6.346v-3.156l6.617-9.678h3.975v9.623h1.752V64.155z
	 M374.748,60.944v-1.851c0-0.349,0.014-0.818,0.039-1.409c0.025-0.593,0.045-0.902,0.059-0.931h-0.119
	c-0.246,0.559-0.525,1.081-0.838,1.567l-1.764,2.623H374.748z"/>
<path fill="#2E2D4B" d="M393.363,59.301c0,2.815-0.473,4.879-1.416,6.188s-2.387,1.965-4.332,1.965
	c-1.902,0-3.336-0.684-4.301-2.052s-1.447-3.402-1.447-6.102c0-2.83,0.473-4.905,1.416-6.227c0.943-1.32,2.387-1.981,4.332-1.981
	c1.895,0,3.324,0.687,4.295,2.063C392.879,54.531,393.363,56.579,393.363,59.301 M386.145,59.301c0,1.8,0.113,3.037,0.338,3.712
	c0.224,0.675,0.604,1.013,1.133,1.013c0.537,0,0.916-0.349,1.137-1.045c0.223-0.697,0.332-1.924,0.332-3.68
	c0-1.764-0.111-2.999-0.338-3.707c-0.225-0.707-0.602-1.061-1.131-1.061s-0.909,0.341-1.133,1.022
	C386.258,56.238,386.145,57.486,386.145,59.301"/>
<path fill="#2E2D4B" d="M335.767,87.241c0-2.221,0.317-4.019,0.953-5.394s1.57-2.39,2.808-3.043
	c1.237-0.652,2.764-0.979,4.578-0.979c0.646,0,1.4,0.063,2.264,0.186v3.363c-0.726-0.138-1.514-0.207-2.362-0.207
	c-1.437,0-2.507,0.316-3.211,0.947c-0.704,0.632-1.089,1.662-1.153,3.092h0.129c0.654-1.233,1.703-1.851,3.147-1.851
	c1.415,0,2.513,0.455,3.293,1.366c0.779,0.911,1.17,2.179,1.17,3.805c0,1.749-0.494,3.129-1.481,4.142
	c-0.986,1.013-2.365,1.519-4.136,1.519c-1.88,0-3.349-0.609-4.409-1.829C336.297,91.139,335.767,89.434,335.767,87.241
	 M341.667,90.779c0.457,0,0.829-0.172,1.115-0.517c0.287-0.345,0.431-0.895,0.431-1.649c0-1.292-0.501-1.938-1.503-1.938
	c-0.493,0-0.896,0.167-1.202,0.5c-0.309,0.334-0.463,0.74-0.463,1.22c0,0.697,0.148,1.268,0.446,1.714
	S341.181,90.779,341.667,90.779"/>
<path fill="#2E2D4B" d="M354.643,77.824c1.676,0,2.98,0.339,3.913,1.014s1.398,1.633,1.398,2.874c0,0.842-0.22,1.58-0.658,2.215
	c-0.439,0.635-1.134,1.188-2.085,1.66c1.176,0.668,2.005,1.333,2.487,1.997s0.725,1.381,0.725,2.15c0,1.415-0.512,2.511-1.535,3.287
	s-2.454,1.165-4.289,1.165c-1.872,0-3.306-0.379-4.3-1.138c-0.994-0.758-1.49-1.85-1.49-3.271c0-0.921,0.221-1.707,0.663-2.356
	s1.187-1.239,2.231-1.769c-0.842-0.566-1.457-1.174-1.845-1.823c-0.389-0.649-0.583-1.362-0.583-2.14
	c0-1.219,0.476-2.168,1.427-2.846C351.652,78.165,352.966,77.824,354.643,77.824 M352.748,89.604c0,0.45,0.159,0.812,0.479,1.083
	c0.32,0.272,0.763,0.408,1.328,0.408c1.277,0,1.916-0.468,1.916-1.404c0-0.355-0.14-0.705-0.419-1.05s-0.778-0.732-1.497-1.159
	c-0.646,0.341-1.108,0.684-1.388,1.028S352.748,89.219,352.748,89.604 M354.62,80.928c-0.37,0-0.682,0.107-0.937,0.321
	c-0.253,0.214-0.38,0.49-0.38,0.833c0,0.624,0.423,1.176,1.273,1.654c0.515-0.298,0.867-0.569,1.056-0.816s0.283-0.526,0.283-0.838
	c0-0.349-0.127-0.628-0.381-0.84C355.281,81.033,354.975,80.928,354.62,80.928"/>
<path fill="#2E2D4B" d="M366.551,90.714l0.152,0.25c-0.704,2.766-1.343,4.801-1.916,6.107h-3.037
	c0.211-1.002,0.423-2.125,0.637-3.369c0.215-1.244,0.361-2.24,0.441-2.988H366.551z"/>
<path fill="#2E2D4B" d="M380.3,86.033c0,2.815-0.473,4.879-1.415,6.188c-0.945,1.31-2.388,1.965-4.333,1.965
	c-1.901,0-3.335-0.684-4.3-2.052s-1.447-3.402-1.447-6.102c0-2.83,0.472-4.905,1.415-6.227c0.943-1.32,2.386-1.981,4.332-1.981
	c1.895,0,3.325,0.687,4.295,2.063C379.814,81.264,380.3,83.312,380.3,86.033 M373.082,86.033c0,1.8,0.112,3.037,0.338,3.712
	c0.224,0.675,0.602,1.013,1.132,1.013c0.537,0,0.916-0.349,1.138-1.045c0.222-0.697,0.332-1.924,0.332-3.68
	c0-1.764-0.112-2.999-0.338-3.707c-0.225-0.707-0.603-1.061-1.132-1.061c-0.53,0-0.908,0.341-1.132,1.022
	C373.194,82.971,373.082,84.219,373.082,86.033"/>
<path fill="#2E2D4B" d="M393.362,86.033c0,2.815-0.473,4.879-1.415,6.188c-0.945,1.31-2.388,1.965-4.333,1.965
	c-1.901,0-3.335-0.684-4.3-2.052s-1.447-3.402-1.447-6.102c0-2.83,0.472-4.905,1.415-6.227c0.943-1.32,2.386-1.981,4.332-1.981
	c1.895,0,3.325,0.687,4.295,2.063C392.877,81.264,393.362,83.312,393.362,86.033 M386.145,86.033c0,1.8,0.112,3.037,0.338,3.712
	c0.224,0.675,0.602,1.013,1.132,1.013c0.537,0,0.916-0.349,1.138-1.045c0.222-0.697,0.332-1.924,0.332-3.68
	c0-1.764-0.112-2.999-0.338-3.707c-0.225-0.707-0.603-1.061-1.132-1.061c-0.53,0-0.908,0.341-1.132,1.022
	C386.257,82.971,386.145,84.219,386.145,86.033"/>
<rect x="335.006" y="72.628" fill="#2E2D4B" width="58.897" height="1.775"/>
<path fill="#2E2D4B" d="M27.683,33.499h-2.845v-5.49c0-0.667,0.014-1.277,0.042-1.83c-0.175,0.213-0.393,0.435-0.652,0.666
	l-1.178,0.973l-1.454-1.788l3.562-2.901h2.525V33.499z"/>
<polygon fill="#2E2D4B" points="30.995,33.499 34.557,25.462 30.066,25.462 30.066,23.143 37.55,23.143 37.55,24.795 33.896,33.499 
	"/>
<path fill="#2E2D4B" d="M41.558,31.378l0.1,0.163c-0.459,1.802-0.875,3.129-1.248,3.979H38.43c0.137-0.652,0.275-1.384,0.415-2.195
	c0.14-0.811,0.235-1.46,0.287-1.947H41.558z"/>
<polygon fill="#2E2D4B" points="43.998,33.499 47.56,25.462 43.069,25.462 43.069,23.143 50.553,23.143 50.553,24.795 
	46.898,33.499 "/>
<path fill="#2E2D4B" d="M59.03,28.328c0,1.835-0.308,3.179-0.923,4.032c-0.614,0.854-1.556,1.28-2.823,1.28
	c-1.238,0-2.173-0.445-2.802-1.337s-0.943-2.217-0.943-3.976c0-1.845,0.308-3.197,0.922-4.058c0.615-0.861,1.555-1.291,2.823-1.291
	c1.233,0,2.167,0.448,2.799,1.344C58.714,25.22,59.03,26.555,59.03,28.328 M54.327,28.328c0,1.173,0.073,1.979,0.22,2.419
	c0.146,0.439,0.393,0.659,0.737,0.659c0.351,0,0.598-0.227,0.741-0.681c0.145-0.454,0.217-1.253,0.217-2.397
	c0-1.149-0.073-1.955-0.22-2.416s-0.393-0.691-0.738-0.691c-0.345,0-0.591,0.223-0.737,0.668
	C54.4,26.332,54.327,27.146,54.327,28.328"/>
<path fill="#2E2D4B" d="M281.646,33.499h-7.526v-1.845l2.532-2.561c0.723-0.757,1.196-1.273,1.419-1.55
	c0.222-0.276,0.377-0.515,0.465-0.713c0.087-0.198,0.132-0.406,0.132-0.624c0-0.27-0.088-0.482-0.264-0.639
	c-0.175-0.156-0.421-0.234-0.736-0.234c-0.327,0-0.657,0.094-0.99,0.28c-0.334,0.188-0.711,0.463-1.133,0.826l-1.538-1.802
	c0.534-0.478,0.983-0.819,1.348-1.024c0.364-0.206,0.76-0.363,1.188-0.472c0.428-0.109,0.909-0.163,1.443-0.163
	c0.671,0,1.271,0.118,1.798,0.354s0.937,0.573,1.228,1.011s0.437,0.928,0.437,1.472c0,0.407-0.051,0.783-0.153,1.128
	c-0.102,0.346-0.259,0.685-0.472,1.019c-0.212,0.333-0.495,0.685-0.848,1.053c-0.352,0.369-1.103,1.069-2.252,2.1v0.07h3.923V33.499
	z"/>
<path fill="#2E2D4B" d="M288.883,33.499h-2.845v-5.49c0-0.667,0.014-1.277,0.042-1.83c-0.176,0.213-0.393,0.435-0.652,0.666
	l-1.178,0.973l-1.454-1.788l3.562-2.901h2.525V33.499z"/>
<path fill="#2E2D4B" d="M294.245,31.378l0.1,0.163c-0.459,1.802-0.875,3.129-1.248,3.979h-1.979
	c0.137-0.652,0.275-1.384,0.415-2.195c0.14-0.811,0.235-1.46,0.287-1.947H294.245z"/>
<polygon fill="#2E2D4B" points="296.686,33.499 300.247,25.462 295.757,25.462 295.757,23.143 303.24,23.143 303.24,24.795 
	299.586,33.499 "/>
<path fill="#2E2D4B" d="M311.718,28.328c0,1.835-0.308,3.179-0.923,4.032c-0.614,0.854-1.556,1.28-2.823,1.28
	c-1.238,0-2.173-0.445-2.802-1.337s-0.943-2.217-0.943-3.976c0-1.845,0.308-3.197,0.922-4.058c0.615-0.861,1.555-1.291,2.823-1.291
	c1.233,0,2.167,0.448,2.799,1.344C311.401,25.22,311.718,26.555,311.718,28.328 M307.015,28.328c0,1.173,0.073,1.979,0.22,2.419
	c0.146,0.439,0.393,0.659,0.737,0.659c0.351,0,0.598-0.227,0.741-0.681c0.145-0.454,0.217-1.253,0.217-2.397
	c0-1.149-0.073-1.955-0.22-2.416s-0.393-0.691-0.738-0.691c-0.345,0-0.591,0.223-0.737,0.668
	C307.088,26.332,307.015,27.146,307.015,28.328"/>
<path fill="#2E2D4B" d="M63.433,131.104h-2.845v-5.49c0-0.667,0.014-1.277,0.042-1.83c-0.175,0.213-0.393,0.435-0.652,0.666
	l-1.178,0.973l-1.454-1.788l3.562-2.901h2.525V131.104z"/>
<path fill="#2E2D4B" d="M73.555,129.097h-1.142v2.008h-2.767v-2.008h-4.136v-2.057l4.313-6.308h2.589v6.271h1.142V129.097z
	 M69.646,127.004v-1.205c0-0.228,0.008-0.533,0.023-0.919c0.018-0.386,0.031-0.588,0.039-0.606h-0.076
	c-0.161,0.364-0.344,0.705-0.547,1.021l-1.149,1.709H69.646z"/>
<path fill="#2E2D4B" d="M77.308,128.983l0.1,0.163c-0.459,1.802-0.875,3.129-1.248,3.979H74.18c0.137-0.652,0.275-1.384,0.415-2.195
	c0.14-0.811,0.235-1.46,0.287-1.947H77.308z"/>
<path fill="#2E2D4B" d="M82.976,124.309c0.596,0,1.134,0.139,1.614,0.415c0.479,0.276,0.854,0.668,1.119,1.174
	c0.269,0.507,0.402,1.091,0.402,1.752c0,1.159-0.349,2.048-1.047,2.668c-0.697,0.619-1.753,0.929-3.167,0.929
	c-1.211,0-2.199-0.187-2.965-0.561v-2.298c0.411,0.19,0.876,0.345,1.394,0.468s0.963,0.185,1.338,0.185
	c0.52,0,0.918-0.109,1.198-0.33c0.279-0.22,0.419-0.545,0.419-0.975c0-0.397-0.143-0.707-0.426-0.93
	c-0.284-0.222-0.715-0.333-1.291-0.333c-0.441,0-0.915,0.082-1.426,0.248l-1.029-0.511l0.391-5.477h5.916v2.334h-3.532l-0.128,1.369
	c0.369-0.071,0.631-0.11,0.787-0.117S82.844,124.309,82.976,124.309"/>
<path fill="#2E2D4B" d="M94.78,125.934c0,1.835-0.308,3.179-0.923,4.032c-0.614,0.854-1.556,1.28-2.823,1.28
	c-1.238,0-2.173-0.445-2.802-1.337s-0.943-2.217-0.943-3.976c0-1.845,0.308-3.197,0.922-4.058c0.615-0.861,1.555-1.291,2.823-1.291
	c1.233,0,2.167,0.448,2.799,1.344C94.464,122.825,94.78,124.16,94.78,125.934 M90.077,125.934c0,1.173,0.073,1.979,0.22,2.419
	c0.146,0.439,0.393,0.659,0.737,0.659c0.351,0,0.598-0.227,0.741-0.681c0.145-0.454,0.217-1.253,0.217-2.397
	c0-1.149-0.073-1.955-0.22-2.416s-0.393-0.691-0.738-0.691c-0.345,0-0.591,0.223-0.737,0.668
	C90.15,123.938,90.077,124.751,90.077,125.934"/>
<path fill="#2E2D4B" d="M238.663,59.827h-1.069v1.881h-2.592v-1.881h-3.874V57.9l4.04-5.907h2.426v5.874h1.069V59.827z
	 M235.002,57.867v-1.129c0-0.213,0.008-0.5,0.023-0.861c0.016-0.36,0.027-0.55,0.036-0.567h-0.073
	c-0.15,0.341-0.321,0.661-0.512,0.956l-1.076,1.602H235.002z"/>
<path fill="#2E2D4B" d="M242.178,59.722l0.094,0.152c-0.43,1.688-0.82,2.931-1.17,3.728h-1.854c0.128-0.611,0.258-1.297,0.389-2.057
	s0.22-1.367,0.269-1.823H242.178z"/>
<path fill="#2E2D4B" d="M250.53,61.708h-7.05V59.98l2.372-2.398c0.678-0.709,1.121-1.193,1.329-1.452
	c0.207-0.259,0.354-0.481,0.436-0.668c0.081-0.186,0.122-0.381,0.122-0.585c0-0.252-0.082-0.451-0.245-0.598
	c-0.164-0.146-0.395-0.219-0.691-0.219c-0.306,0-0.614,0.087-0.927,0.262s-0.666,0.434-1.06,0.774l-1.442-1.688
	c0.501-0.447,0.922-0.768,1.263-0.96c0.341-0.193,0.712-0.341,1.113-0.442c0.4-0.102,0.852-0.152,1.352-0.152
	c0.629,0,1.19,0.11,1.685,0.333c0.494,0.221,0.877,0.536,1.149,0.945c0.272,0.41,0.408,0.87,0.408,1.379
	c0,0.381-0.047,0.733-0.143,1.057c-0.095,0.323-0.242,0.642-0.442,0.953c-0.198,0.313-0.463,0.642-0.793,0.987
	c-0.331,0.346-1.033,1.001-2.109,1.967v0.066h3.674V61.708z"/>
<path fill="#2E2D4B" d="M258.544,56.864c0,1.719-0.288,2.979-0.864,3.777c-0.575,0.8-1.457,1.2-2.645,1.2
	c-1.16,0-2.035-0.417-2.625-1.252c-0.588-0.836-0.883-2.078-0.883-3.726c0-1.728,0.288-2.994,0.863-3.801
	c0.576-0.806,1.458-1.209,2.645-1.209c1.156,0,2.03,0.419,2.622,1.259C258.248,53.953,258.544,55.203,258.544,56.864
	 M254.139,56.864c0,1.099,0.068,1.854,0.206,2.267c0.137,0.411,0.367,0.617,0.69,0.617c0.328,0,0.56-0.213,0.694-0.638
	c0.136-0.426,0.203-1.174,0.203-2.246c0-1.076-0.068-1.831-0.206-2.263s-0.367-0.647-0.691-0.647c-0.323,0-0.554,0.208-0.69,0.624
	C254.207,54.995,254.139,55.758,254.139,56.864"/>
<path fill="#2E2D4B" d="M210.117,108.856c1.092,0,1.942,0.219,2.551,0.658c0.607,0.44,0.911,1.064,0.911,1.873
	c0,0.55-0.143,1.029-0.429,1.443s-0.739,0.775-1.359,1.082c0.767,0.435,1.307,0.869,1.621,1.302c0.314,0.434,0.472,0.899,0.472,1.4
	c0,0.923-0.333,1.637-1,2.143s-1.599,0.759-2.795,0.759c-1.22,0-2.154-0.247-2.802-0.741s-0.972-1.204-0.972-2.131
	c0-0.602,0.144-1.113,0.433-1.536c0.288-0.423,0.773-0.808,1.454-1.153c-0.549-0.368-0.95-0.765-1.202-1.188
	c-0.253-0.424-0.38-0.888-0.38-1.395c0-0.794,0.31-1.412,0.93-1.854C208.168,109.076,209.025,108.856,210.117,108.856
	 M208.883,116.53c0,0.294,0.104,0.528,0.313,0.706s0.497,0.266,0.865,0.266c0.833,0,1.249-0.305,1.249-0.915
	c0-0.23-0.092-0.46-0.273-0.685s-0.507-0.476-0.976-0.754c-0.421,0.221-0.723,0.444-0.904,0.669S208.883,116.28,208.883,116.53
	 M210.104,110.877c-0.241,0-0.444,0.069-0.61,0.209c-0.165,0.141-0.248,0.32-0.248,0.543c0,0.406,0.276,0.766,0.83,1.078
	c0.336-0.194,0.564-0.371,0.688-0.532c0.123-0.16,0.185-0.343,0.185-0.546c0-0.228-0.083-0.409-0.248-0.546
	C210.533,110.945,210.334,110.877,210.104,110.877"/>
<path fill="#2E2D4B" d="M217.878,117.254l0.1,0.163c-0.459,1.802-0.875,3.129-1.248,3.979h-1.979
	c0.137-0.652,0.275-1.384,0.415-2.195c0.14-0.811,0.235-1.46,0.287-1.947H217.878z"/>
<path fill="#2E2D4B" d="M226.795,119.375h-7.526v-1.845l2.532-2.561c0.723-0.757,1.196-1.273,1.419-1.55
	c0.222-0.275,0.377-0.515,0.465-0.713c0.087-0.198,0.132-0.406,0.132-0.624c0-0.27-0.088-0.482-0.264-0.639
	c-0.175-0.156-0.421-0.234-0.736-0.234c-0.327,0-0.657,0.094-0.99,0.28c-0.334,0.188-0.711,0.463-1.133,0.826l-1.538-1.802
	c0.534-0.478,0.983-0.819,1.348-1.024c0.364-0.206,0.76-0.363,1.188-0.471c0.428-0.11,0.909-0.164,1.443-0.164
	c0.671,0,1.271,0.118,1.798,0.354s0.937,0.573,1.228,1.011s0.437,0.928,0.437,1.472c0,0.407-0.051,0.783-0.153,1.128
	c-0.102,0.346-0.259,0.685-0.472,1.019c-0.212,0.333-0.495,0.685-0.848,1.053c-0.352,0.369-1.103,1.069-2.252,2.1v0.071h3.923
	V119.375z"/>
<path fill="#2E2D4B" d="M235.351,114.204c0,1.835-0.308,3.179-0.923,4.032c-0.614,0.854-1.556,1.279-2.823,1.279
	c-1.238,0-2.173-0.444-2.802-1.336s-0.943-2.217-0.943-3.976c0-1.845,0.308-3.197,0.922-4.058c0.615-0.861,1.555-1.291,2.823-1.291
	c1.233,0,2.167,0.448,2.799,1.344C235.034,111.096,235.351,112.432,235.351,114.204 M230.647,114.204
	c0,1.173,0.073,1.979,0.22,2.419s0.393,0.659,0.737,0.659c0.351,0,0.598-0.226,0.741-0.681c0.145-0.454,0.217-1.252,0.217-2.397
	c0-1.149-0.073-1.955-0.22-2.416s-0.393-0.691-0.738-0.691c-0.345,0-0.591,0.223-0.737,0.667S230.647,113.021,230.647,114.204"/>
<path fill="#2E2D4B" d="M177.967,62.274h-2.664v-5.143c0-0.625,0.014-1.196,0.04-1.715c-0.164,0.199-0.368,0.408-0.611,0.625
	l-1.104,0.91l-1.361-1.675l3.335-2.718h2.365V62.274z"/>
<path fill="#2E2D4B" d="M182.99,60.288l0.094,0.152c-0.43,1.688-0.82,2.931-1.17,3.728h-1.854c0.128-0.611,0.258-1.297,0.389-2.057
	s0.22-1.367,0.269-1.823H182.99z"/>
<polygon fill="#2E2D4B" points="185.276,62.274 188.612,54.746 184.406,54.746 184.406,52.573 191.416,52.573 191.416,54.121 
	187.994,62.274 "/>
<path fill="#2E2D4B" d="M199.356,57.431c0,1.719-0.288,2.979-0.864,3.777c-0.575,0.8-1.457,1.2-2.645,1.2
	c-1.16,0-2.035-0.417-2.625-1.252c-0.588-0.836-0.883-2.078-0.883-3.726c0-1.728,0.288-2.994,0.863-3.801
	c0.576-0.806,1.458-1.209,2.645-1.209c1.156,0,2.03,0.419,2.622,1.259C199.061,54.52,199.356,55.77,199.356,57.431 M194.951,57.431
	c0,1.099,0.068,1.854,0.206,2.267c0.137,0.411,0.367,0.617,0.69,0.617c0.328,0,0.56-0.213,0.694-0.638
	c0.136-0.426,0.203-1.174,0.203-2.246c0-1.076-0.068-1.831-0.206-2.263s-0.367-0.647-0.691-0.647c-0.323,0-0.554,0.208-0.69,0.624
	C195.02,55.562,194.951,56.324,194.951,57.431"/>
</svg>
