<?xml version="1.0" encoding="utf-8"?>
<!-- Generator: Adobe Illustrator 16.0.0, SVG Export Plug-In . SVG Version: 6.00 Build 0)  -->
<!DOCTYPE svg PUBLIC "-//W3C//DTD SVG 1.1//EN" "http://www.w3.org/Graphics/SVG/1.1/DTD/svg11.dtd">
<svg version="1.1" id="Слой_1" xmlns="http://www.w3.org/2000/svg" xmlns:xlink="http://www.w3.org/1999/xlink" x="0px" y="0px"
	 width="403.47px" height="219.897px" viewBox="0 0 403.47 219.897" enable-background="new 0 0 403.47 219.897"
	 xml:space="preserve">
<path fill="#E3004F" d="M175.44,105.329h-34.248v-8.393l11.523-11.653c3.292-3.442,5.444-5.794,6.456-7.053
	c1.011-1.259,1.716-2.339,2.114-3.244c0.397-0.903,0.597-1.851,0.597-2.841c0-1.227-0.398-2.194-1.194-2.904
	c-0.796-0.711-1.915-1.065-3.356-1.065c-1.485,0-2.986,0.425-4.503,1.274c-1.518,0.851-3.234,2.104-5.149,3.761l-7.004-8.199
	c2.432-2.173,4.476-3.728,6.133-4.663c1.657-0.937,3.459-1.652,5.407-2.147c1.947-0.495,4.137-0.742,6.568-0.742
	c3.056,0,5.783,0.538,8.183,1.613c2.399,1.077,4.261,2.61,5.584,4.601c1.324,1.99,1.985,4.224,1.985,6.697
	c0,1.852-0.231,3.563-0.693,5.133c-0.464,1.571-1.179,3.115-2.147,4.632c-0.968,1.518-2.254,3.115-3.857,4.794
	c-1.603,1.679-5.019,4.863-10.248,9.555v0.322h17.851V105.329z"/>
<path fill="#2E2D4B" d="M190.708,63.075c0,0.987-0.302,1.834-0.904,2.542c-0.603,0.707-1.473,1.221-2.612,1.54v0.065
	c2.656,0.334,3.984,1.589,3.984,3.767c0,1.48-0.586,2.645-1.758,3.494c-1.173,0.849-2.8,1.273-4.883,1.273
	c-0.856,0-1.648-0.062-2.378-0.186c-0.729-0.123-1.519-0.348-2.368-0.675v-3.57c0.697,0.355,1.406,0.619,2.128,0.789
	c0.723,0.171,1.389,0.256,1.998,0.256c0.943,0,1.631-0.132,2.063-0.397c0.432-0.265,0.647-0.68,0.647-1.246
	c0-0.436-0.112-0.771-0.337-1.006c-0.227-0.236-0.588-0.415-1.089-0.534c-0.501-0.12-1.153-0.18-1.959-0.18h-0.979v-3.233h1.001
	c2.185,0,3.276-0.559,3.276-1.676c0-0.42-0.161-0.733-0.484-0.937s-0.756-0.305-1.301-0.305c-1.016,0-2.068,0.341-3.156,1.023
	l-1.785-2.874c0.842-0.58,1.703-0.994,2.585-1.241c0.882-0.246,1.893-0.37,3.031-0.37c1.647,0,2.939,0.327,3.876,0.979
	C190.239,61.028,190.708,61.929,190.708,63.075"/>
<path fill="#2E2D4B" d="M199.317,65.11c0.915,0,1.74,0.213,2.477,0.637c0.737,0.426,1.311,1.025,1.721,1.802
	c0.409,0.776,0.614,1.673,0.614,2.689c0,1.777-0.535,3.142-1.605,4.093c-1.07,0.95-2.69,1.426-4.86,1.426
	c-1.857,0-3.374-0.287-4.55-0.86V71.37c0.631,0.29,1.344,0.529,2.139,0.719c0.794,0.188,1.479,0.282,2.052,0.282
	c0.799,0,1.411-0.168,1.84-0.506s0.643-0.836,0.643-1.497c0-0.609-0.218-1.085-0.653-1.426s-1.096-0.512-1.981-0.512
	c-0.675,0-1.404,0.127-2.188,0.381l-1.578-0.783l0.6-8.404h9.078v3.582h-5.421l-0.196,2.101c0.566-0.108,0.969-0.169,1.209-0.18
	C198.894,65.116,199.114,65.11,199.317,65.11"/>
<path fill="#2E2D4B" d="M210.573,72.284l0.152,0.25c-0.704,2.766-1.343,4.801-1.916,6.107h-3.037
	c0.211-1.002,0.423-2.125,0.637-3.369c0.215-1.244,0.361-2.24,0.441-2.988H210.573z"/>
<path fill="#2E2D4B" d="M224.769,72.458h-1.753v3.081h-4.245v-3.081h-6.347v-3.156l6.617-9.678h3.975v9.623h1.753V72.458z
	 M218.771,69.247v-1.851c0-0.349,0.013-0.818,0.038-1.409c0.025-0.592,0.045-0.902,0.06-0.93h-0.12
	c-0.246,0.558-0.525,1.08-0.838,1.566l-1.764,2.623H218.771z"/>
<path fill="#2E2D4B" d="M237.385,67.604c0,2.815-0.473,4.879-1.415,6.188c-0.944,1.31-2.388,1.965-4.333,1.965
	c-1.901,0-3.335-0.684-4.3-2.052s-1.447-3.402-1.447-6.102c0-2.83,0.472-4.905,1.415-6.228c0.943-1.319,2.387-1.98,4.332-1.98
	c1.895,0,3.325,0.687,4.295,2.063C236.9,62.833,237.385,64.882,237.385,67.604 M230.167,67.604c0,1.8,0.112,3.037,0.338,3.712
	c0.224,0.675,0.603,1.013,1.132,1.013c0.537,0,0.916-0.349,1.137-1.045c0.223-0.697,0.332-1.924,0.332-3.68
	c0-1.764-0.111-2.999-0.337-3.707c-0.225-0.707-0.603-1.061-1.132-1.061s-0.908,0.341-1.132,1.022
	C230.279,64.54,230.167,65.789,230.167,67.604"/>
<path fill="#2E2D4B" d="M179.08,95.544c0-2.221,0.317-4.019,0.953-5.394c0.635-1.375,1.57-2.39,2.808-3.043
	c1.237-0.652,2.764-0.979,4.577-0.979c0.646,0,1.401,0.063,2.265,0.186v3.363c-0.726-0.138-1.513-0.207-2.362-0.207
	c-1.437,0-2.507,0.316-3.211,0.947c-0.704,0.632-1.089,1.662-1.153,3.092h0.13c0.653-1.233,1.702-1.851,3.146-1.851
	c1.415,0,2.513,0.455,3.293,1.366c0.779,0.911,1.17,2.179,1.17,3.805c0,1.749-0.494,3.129-1.48,4.142
	c-0.987,1.013-2.366,1.519-4.137,1.519c-1.88,0-3.349-0.609-4.408-1.829C179.61,99.441,179.08,97.736,179.08,95.544 M184.98,99.082
	c0.457,0,0.829-0.172,1.115-0.517c0.287-0.345,0.431-0.895,0.431-1.649c0-1.292-0.501-1.938-1.503-1.938
	c-0.493,0-0.895,0.167-1.202,0.5c-0.309,0.334-0.463,0.74-0.463,1.22c0,0.697,0.148,1.268,0.446,1.714S184.494,99.082,184.98,99.082
	"/>
<path fill="#2E2D4B" d="M197.955,86.128c1.677,0,2.981,0.338,3.914,1.013s1.398,1.633,1.398,2.874c0,0.842-0.22,1.58-0.658,2.215
	c-0.439,0.635-1.134,1.188-2.085,1.66c1.176,0.668,2.005,1.333,2.487,1.997s0.725,1.381,0.725,2.15c0,1.415-0.512,2.511-1.535,3.287
	s-2.453,1.165-4.289,1.165c-1.873,0-3.306-0.379-4.3-1.138c-0.994-0.758-1.491-1.849-1.491-3.271c0-0.921,0.222-1.707,0.664-2.356
	s1.187-1.239,2.231-1.769c-0.842-0.566-1.457-1.174-1.845-1.823c-0.389-0.649-0.583-1.362-0.583-2.14
	c0-1.219,0.476-2.168,1.427-2.846C194.966,86.468,196.279,86.128,197.955,86.128 M196.062,97.906c0,0.45,0.159,0.812,0.479,1.083
	c0.319,0.272,0.762,0.408,1.327,0.408c1.277,0,1.916-0.468,1.916-1.404c0-0.355-0.14-0.705-0.419-1.05s-0.778-0.731-1.497-1.159
	c-0.646,0.342-1.108,0.684-1.388,1.028S196.062,97.521,196.062,97.906 M197.934,89.23c-0.37,0-0.682,0.107-0.936,0.321
	s-0.381,0.49-0.381,0.833c0,0.624,0.424,1.176,1.273,1.654c0.515-0.298,0.867-0.569,1.056-0.816s0.283-0.526,0.283-0.838
	c0-0.349-0.127-0.628-0.381-0.839C198.595,89.336,198.289,89.23,197.934,89.23"/>
<path fill="#2E2D4B" d="M209.864,99.017l0.152,0.25c-0.704,2.766-1.343,4.801-1.916,6.107h-3.037
	c0.211-1.002,0.423-2.125,0.637-3.369c0.215-1.244,0.361-2.24,0.441-2.988H209.864z"/>
<path fill="#2E2D4B" d="M223.015,89.808c0,0.987-0.302,1.834-0.904,2.542c-0.603,0.707-1.473,1.221-2.612,1.54v0.064
	c2.656,0.334,3.984,1.59,3.984,3.768c0,1.48-0.586,2.645-1.758,3.494c-1.173,0.849-2.8,1.273-4.883,1.273
	c-0.856,0-1.648-0.062-2.378-0.186c-0.729-0.123-1.519-0.348-2.368-0.675v-3.57c0.697,0.354,1.406,0.619,2.128,0.789
	c0.723,0.171,1.389,0.256,1.998,0.256c0.942,0,1.631-0.132,2.063-0.397c0.432-0.265,0.647-0.68,0.647-1.246
	c0-0.436-0.112-0.771-0.337-1.006c-0.227-0.236-0.588-0.416-1.089-0.534c-0.501-0.12-1.153-0.18-1.959-0.18h-0.979v-3.233h1.001
	c2.185,0,3.276-0.559,3.276-1.676c0-0.421-0.161-0.733-0.484-0.937s-0.756-0.305-1.301-0.305c-1.016,0-2.068,0.341-3.156,1.023
	l-1.785-2.874c0.842-0.58,1.703-0.995,2.585-1.242c0.882-0.245,1.893-0.369,3.031-0.369c1.647,0,2.939,0.326,3.876,0.979
	C222.546,87.761,223.015,88.661,223.015,89.808"/>
<path fill="#2E2D4B" d="M236.676,94.336c0,2.815-0.473,4.879-1.415,6.188c-0.944,1.31-2.388,1.965-4.333,1.965
	c-1.901,0-3.335-0.684-4.3-2.051c-0.965-1.369-1.447-3.403-1.447-6.103c0-2.83,0.472-4.905,1.415-6.227
	c0.943-1.32,2.387-1.981,4.332-1.981c1.895,0,3.325,0.688,4.295,2.063C236.191,89.566,236.676,91.614,236.676,94.336
	 M229.458,94.336c0,1.8,0.112,3.037,0.338,3.712c0.224,0.675,0.603,1.014,1.132,1.014c0.537,0,0.916-0.35,1.137-1.046
	c0.223-0.697,0.332-1.924,0.332-3.68c0-1.764-0.111-2.999-0.337-3.707c-0.225-0.707-0.603-1.061-1.132-1.061
	s-0.908,0.341-1.132,1.022C229.57,91.273,229.458,92.522,229.458,94.336"/>
<rect x="178.32" y="80.933" fill="#2E2D4B" width="58.897" height="1.774"/>
<path fill="#2E2D4B" d="M262.379,84.813h-2.845v-5.49c0-0.667,0.014-1.277,0.042-1.83c-0.176,0.213-0.393,0.435-0.652,0.666
	l-1.178,0.973l-1.454-1.788l3.562-2.901h2.525V84.813z"/>
<polygon fill="#2E2D4B" points="265.691,84.813 269.253,76.775 264.763,76.775 264.763,74.456 272.246,74.456 272.246,76.108 
	268.592,84.813 "/>
<path fill="#2E2D4B" d="M276.254,82.691l0.1,0.163c-0.459,1.802-0.875,3.129-1.248,3.979h-1.979
	c0.137-0.652,0.274-1.384,0.415-2.195c0.14-0.811,0.234-1.46,0.287-1.947H276.254z"/>
<path fill="#2E2D4B" d="M281.922,78.017c0.596,0,1.134,0.139,1.614,0.415c0.479,0.276,0.854,0.668,1.12,1.174
	c0.268,0.507,0.401,1.091,0.401,1.752c0,1.159-0.349,2.048-1.047,2.668c-0.697,0.619-1.753,0.929-3.167,0.929
	c-1.211,0-2.199-0.187-2.965-0.561v-2.298c0.411,0.19,0.876,0.345,1.394,0.468s0.964,0.185,1.337,0.185
	c0.521,0,0.92-0.109,1.199-0.33c0.279-0.22,0.419-0.545,0.419-0.975c0-0.397-0.143-0.707-0.426-0.93
	c-0.284-0.222-0.715-0.333-1.291-0.333c-0.44,0-0.915,0.082-1.426,0.248l-1.029-0.511l0.39-5.477h5.916v2.334h-3.531l-0.128,1.369
	c0.368-0.071,0.631-0.11,0.786-0.117C281.646,78.021,281.79,78.017,281.922,78.017"/>
<path fill="#2E2D4B" d="M293.727,79.642c0,1.835-0.307,3.179-0.923,4.032c-0.614,0.854-1.556,1.28-2.823,1.28
	c-1.238,0-2.173-0.445-2.802-1.337c-0.63-0.892-0.943-2.217-0.943-3.976c0-1.845,0.308-3.197,0.922-4.058
	c0.615-0.861,1.556-1.291,2.823-1.291c1.234,0,2.167,0.448,2.799,1.344C293.41,76.533,293.727,77.868,293.727,79.642
	 M289.023,79.642c0,1.173,0.073,1.979,0.22,2.419c0.146,0.439,0.393,0.659,0.737,0.659c0.351,0,0.598-0.227,0.741-0.681
	c0.145-0.454,0.217-1.253,0.217-2.397c0-1.149-0.073-1.955-0.22-2.416s-0.393-0.691-0.738-0.691c-0.345,0-0.591,0.223-0.737,0.668
	C289.097,77.646,289.023,78.459,289.023,79.642"/>
<path fill="#2E2D4B" d="M143.14,32.94h-2.845v-5.49c0-0.667,0.014-1.277,0.042-1.83c-0.175,0.213-0.393,0.435-0.652,0.666
	l-1.178,0.973l-1.454-1.788l3.562-2.901h2.525V32.94z"/>
<polygon fill="#2E2D4B" points="146.452,32.94 150.014,24.903 145.523,24.903 145.523,22.585 153.007,22.585 153.007,24.236 
	149.354,32.94 "/>
<path fill="#2E2D4B" d="M157.015,30.819l0.1,0.163c-0.459,1.802-0.875,3.129-1.248,3.979h-1.979
	c0.137-0.652,0.275-1.384,0.415-2.195c0.14-0.811,0.235-1.46,0.287-1.947H157.015z"/>
<path fill="#2E2D4B" d="M166.01,27.315c0,2.028-0.438,3.497-1.313,4.405c-0.875,0.907-2.274,1.361-4.199,1.361
	c-0.634,0-1.116-0.022-1.447-0.07v-2.221c0.406,0.076,0.813,0.113,1.22,0.113c1.003,0,1.776-0.207,2.32-0.62
	c0.544-0.414,0.839-1.068,0.887-1.962h-0.085c-0.186,0.341-0.367,0.587-0.547,0.738s-0.399,0.267-0.659,0.348
	c-0.261,0.08-0.584,0.12-0.972,0.12c-0.899,0-1.602-0.3-2.107-0.9s-0.759-1.429-0.759-2.483c0-1.149,0.327-2.05,0.981-2.702
	c0.656-0.653,1.554-0.979,2.693-0.979c1.266,0,2.248,0.421,2.943,1.264C165.662,24.567,166.01,25.764,166.01,27.315 M162.102,24.705
	c-0.308,0-0.558,0.11-0.749,0.333s-0.287,0.579-0.287,1.071c0,0.388,0.083,0.696,0.248,0.926c0.166,0.229,0.419,0.344,0.76,0.344
	c0.307,0,0.574-0.11,0.8-0.333c0.229-0.223,0.342-0.488,0.342-0.802c0-0.421-0.105-0.783-0.315-1.085
	C162.688,24.856,162.423,24.705,162.102,24.705"/>
<path fill="#2E2D4B" d="M174.487,27.77c0,1.835-0.308,3.179-0.923,4.032c-0.614,0.854-1.556,1.28-2.823,1.28
	c-1.238,0-2.173-0.445-2.802-1.337s-0.943-2.217-0.943-3.976c0-1.845,0.308-3.197,0.922-4.058c0.615-0.861,1.555-1.291,2.823-1.291
	c1.234,0,2.167,0.449,2.799,1.344C174.171,24.661,174.487,25.997,174.487,27.77 M169.784,27.77c0,1.173,0.073,1.979,0.22,2.419
	s0.393,0.659,0.737,0.659c0.351,0,0.598-0.226,0.741-0.681c0.145-0.454,0.217-1.252,0.217-2.397c0-1.149-0.073-1.955-0.22-2.416
	s-0.393-0.69-0.738-0.69c-0.345,0-0.591,0.222-0.737,0.667C169.857,25.773,169.784,26.587,169.784,27.77"/>
<path fill="#2E2D4B" d="M155.428,196.139c0,2.028-0.438,3.497-1.313,4.405c-0.875,0.907-2.275,1.361-4.199,1.361
	c-0.635,0-1.117-0.023-1.447-0.07v-2.221c0.406,0.076,0.813,0.113,1.219,0.113c1.004,0,1.777-0.207,2.32-0.62
	c0.545-0.414,0.84-1.068,0.887-1.962h-0.084c-0.186,0.341-0.367,0.587-0.547,0.738s-0.4,0.267-0.66,0.348
	c-0.26,0.08-0.584,0.12-0.971,0.12c-0.9,0-1.602-0.3-2.107-0.9s-0.76-1.429-0.76-2.483c0-1.149,0.328-2.05,0.982-2.702
	c0.656-0.653,1.553-0.979,2.693-0.979c1.266,0,2.248,0.421,2.943,1.264C155.08,193.391,155.428,194.587,155.428,196.139
	 M151.52,193.528c-0.309,0-0.559,0.11-0.75,0.333s-0.287,0.579-0.287,1.071c0,0.388,0.084,0.696,0.248,0.926
	c0.166,0.229,0.42,0.344,0.76,0.344c0.307,0,0.574-0.111,0.801-0.333c0.229-0.223,0.342-0.489,0.342-0.802
	c0-0.421-0.105-0.783-0.316-1.085C152.105,193.68,151.84,193.528,151.52,193.528"/>
<path fill="#2E2D4B" d="M159.436,199.643l0.1,0.163c-0.459,1.802-0.875,3.129-1.248,3.979h-1.98
	c0.137-0.652,0.275-1.384,0.416-2.195c0.139-0.811,0.234-1.46,0.287-1.947H159.436z"/>
<path fill="#2E2D4B" d="M168.004,193.642c0,0.643-0.195,1.195-0.588,1.656s-0.961,0.796-1.703,1.004v0.042
	c1.73,0.218,2.596,1.036,2.596,2.455c0,0.965-0.381,1.724-1.145,2.276c-0.764,0.554-1.824,0.83-3.182,0.83
	c-0.559,0-1.074-0.04-1.551-0.119c-0.475-0.081-0.988-0.229-1.543-0.441v-2.326c0.455,0.231,0.918,0.403,1.389,0.515
	c0.469,0.11,0.904,0.166,1.301,0.166c0.615,0,1.063-0.086,1.344-0.259s0.422-0.443,0.422-0.813c0-0.283-0.072-0.502-0.219-0.656
	c-0.146-0.153-0.383-0.27-0.709-0.347c-0.328-0.078-0.752-0.117-1.277-0.117H162.5V195.4h0.652c1.424,0,2.135-0.364,2.135-1.092
	c0-0.274-0.105-0.478-0.314-0.61c-0.211-0.133-0.494-0.198-0.848-0.198c-0.662,0-1.348,0.222-2.059,0.666l-1.162-1.872
	c0.549-0.379,1.109-0.648,1.684-0.809c0.576-0.161,1.234-0.24,1.977-0.24c1.072,0,1.914,0.212,2.525,0.637
	C167.699,192.308,168.004,192.895,168.004,193.642"/>
<path fill="#2E2D4B" d="M176.908,196.593c0,1.835-0.309,3.179-0.924,4.032c-0.613,0.854-1.555,1.28-2.822,1.28
	c-1.238,0-2.174-0.445-2.803-1.337s-0.943-2.217-0.943-3.976c0-1.845,0.309-3.197,0.922-4.058c0.615-0.861,1.557-1.291,2.824-1.291
	c1.234,0,2.166,0.448,2.799,1.344C176.592,193.484,176.908,194.819,176.908,196.593 M172.205,196.593
	c0,1.173,0.072,1.979,0.219,2.419c0.146,0.439,0.393,0.659,0.738,0.659c0.35,0,0.598-0.227,0.74-0.681
	c0.145-0.454,0.217-1.253,0.217-2.397c0-1.149-0.072-1.955-0.219-2.416s-0.393-0.691-0.738-0.691s-0.592,0.223-0.738,0.668
	C172.277,194.597,172.205,195.41,172.205,196.593"/>
<path fill="#2E2D4B" d="M32.306,67.112h-2.845v-5.49c0-0.667,0.014-1.277,0.042-1.83c-0.175,0.213-0.392,0.435-0.652,0.666
	l-1.178,0.973l-1.454-1.788l3.562-2.901h2.525V67.112z"/>
<path fill="#2E2D4B" d="M42.095,67.112h-7.526v-1.845l2.532-2.561c0.723-0.757,1.196-1.273,1.419-1.55
	c0.222-0.275,0.377-0.515,0.465-0.713c0.087-0.198,0.131-0.406,0.131-0.624c0-0.27-0.087-0.482-0.263-0.639
	c-0.175-0.156-0.421-0.234-0.737-0.234c-0.327,0-0.657,0.094-0.99,0.28c-0.334,0.188-0.711,0.463-1.132,0.826l-1.539-1.802
	c0.535-0.478,0.984-0.819,1.348-1.024c0.364-0.206,0.76-0.363,1.188-0.471c0.428-0.11,0.91-0.164,1.444-0.164
	c0.671,0,1.27,0.118,1.798,0.354c0.527,0.236,0.936,0.573,1.227,1.011s0.437,0.928,0.437,1.472c0,0.407-0.051,0.783-0.153,1.128
	c-0.102,0.346-0.259,0.685-0.472,1.019c-0.212,0.333-0.495,0.685-0.848,1.053c-0.351,0.369-1.102,1.069-2.252,2.1V64.8h3.923V67.112
	z"/>
<path fill="#2E2D4B" d="M46.181,64.991l0.1,0.163c-0.459,1.802-0.875,3.129-1.248,3.979h-1.98c0.137-0.652,0.275-1.384,0.415-2.195
	c0.14-0.811,0.235-1.46,0.287-1.947H46.181z"/>
<path fill="#2E2D4B" d="M53.822,67.112h-2.846v-5.49c0-0.667,0.014-1.277,0.043-1.83c-0.176,0.213-0.393,0.435-0.652,0.666
	l-1.178,0.973l-1.455-1.788l3.563-2.901h2.525V67.112z"/>
<path fill="#2E2D4B" d="M63.654,61.941c0,1.835-0.309,3.179-0.924,4.032c-0.613,0.854-1.555,1.279-2.822,1.279
	c-1.238,0-2.174-0.444-2.803-1.336s-0.943-2.217-0.943-3.976c0-1.845,0.309-3.197,0.922-4.058c0.615-0.861,1.557-1.291,2.824-1.291
	c1.234,0,2.166,0.448,2.799,1.344C63.338,58.833,63.654,60.169,63.654,61.941 M58.951,61.941c0,1.173,0.072,1.979,0.219,2.419
	s0.393,0.659,0.738,0.659c0.35,0,0.598-0.226,0.74-0.681c0.145-0.454,0.217-1.252,0.217-2.397c0-1.149-0.072-1.955-0.219-2.416
	s-0.393-0.691-0.738-0.691s-0.592,0.223-0.738,0.667S58.951,60.759,58.951,61.941"/>
<rect x="65.39" y="140.25" fill="#D0EAF0" width="15.051" height="12.004"/>
<polygon fill="#FFFFFF" points="80.259,140.25 80.259,152.104 65.568,152.104 65.568,140.25 65.209,140.25 65.209,152.404 
	80.621,152.404 80.621,140.25 "/>
<rect x="65.389" y="152.553" fill="#D0EAF0" width="15.051" height="12.486"/>
<path fill="#FFFFFF" d="M80.259,164.89H65.57v-12.188h14.688V164.89z M80.619,152.404H65.208v12.785h15.411V152.404z"/>
<rect x="65.389" y="165.339" fill="#D0EAF0" width="15.051" height="12.486"/>
<path fill="#FFFFFF" d="M80.259,177.676H65.57v-12.187h14.688V177.676z M80.619,165.188H65.208v12.786h15.411V165.188z"/>
<rect x="65.389" y="178.187" fill="#D0EAF0" width="15.051" height="12.485"/>
<path fill="#FFFFFF" d="M80.259,190.523H65.57v-12.187h14.688V190.523z M80.619,178.038H65.208v12.786h15.411V178.038z"/>
<rect x="65.389" y="190.972" fill="#D0EAF0" width="15.051" height="12.486"/>
<path fill="#FFFFFF" d="M80.259,203.31H65.57v-12.188h14.688V203.31z M80.619,190.823H65.208v12.786h15.411V190.823z"/>
<rect x="65.39" y="203.758" fill="#D0EAF0" width="15.051" height="9.144"/>
<polygon fill="#FFFFFF" points="65.209,203.609 65.209,212.901 65.569,212.901 65.569,203.909 80.259,203.909 80.259,212.901 
	80.621,212.901 80.621,203.609 "/>
<rect x="80.801" y="140.25" fill="#D0EAF0" width="14.408" height="12.004"/>
<polygon fill="#FFFFFF" points="80.619,140.25 80.619,152.404 95.209,152.404 95.209,152.104 80.98,152.104 80.98,140.25 "/>
<rect x="80.801" y="152.553" fill="#D0EAF0" width="14.408" height="12.486"/>
<polygon fill="#FFFFFF" points="80.619,152.403 80.619,165.188 95.209,165.188 95.209,164.891 80.98,164.891 80.98,152.703 
	95.209,152.703 95.209,152.403 "/>
<rect x="80.801" y="165.339" fill="#D0EAF0" width="14.408" height="12.487"/>
<polygon fill="#FFFFFF" points="80.619,165.189 80.619,177.975 95.209,177.975 95.209,177.676 80.98,177.676 80.98,165.49 
	95.209,165.49 95.209,165.189 "/>
<rect x="80.801" y="178.188" fill="#D0EAF0" width="14.408" height="12.486"/>
<polygon fill="#FFFFFF" points="80.619,178.038 80.619,190.823 95.209,190.823 95.209,190.523 80.98,190.523 80.98,178.338 
	95.209,178.338 95.209,178.038 "/>
<rect x="80.801" y="190.975" fill="#D0EAF0" width="14.408" height="12.485"/>
<polygon fill="#FFFFFF" points="80.619,190.824 80.619,203.609 95.209,203.609 95.209,203.31 80.98,203.31 80.98,191.123 
	95.209,191.123 95.209,190.824 "/>
<rect x="80.801" y="203.758" fill="#D0EAF0" width="14.408" height="9.144"/>
<polygon fill="#FFFFFF" points="80.619,203.609 80.619,212.901 80.98,212.901 80.98,203.909 95.209,203.909 95.209,203.609 "/>
<rect x="49.977" y="140.25" fill="#D0EAF0" width="15.051" height="12.004"/>
<polygon fill="#FFFFFF" points="64.847,140.25 64.847,152.104 50.158,152.104 50.158,140.25 49.797,140.25 49.797,152.404 
	65.209,152.404 65.209,140.25 "/>
<rect x="49.977" y="152.553" fill="#D0EAF0" width="15.051" height="12.486"/>
<path fill="#FFFFFF" d="M64.847,164.89H50.159v-12.188h14.688V164.89z M65.208,152.404H49.797v12.785h15.411V152.404z"/>
<rect x="49.977" y="165.339" fill="#D0EAF0" width="15.051" height="12.486"/>
<path fill="#FFFFFF" d="M64.847,177.676H50.159v-12.187h14.688V177.676z M65.208,165.188H49.797v12.786h15.411V165.188z"/>
<rect x="49.977" y="178.187" fill="#D0EAF0" width="15.051" height="12.485"/>
<path fill="#FFFFFF" d="M64.847,190.523H50.159v-12.187h14.688V190.523z M65.208,178.038H49.797v12.786h15.411V178.038z"/>
<rect x="49.977" y="190.972" fill="#D0EAF0" width="15.051" height="12.486"/>
<path fill="#FFFFFF" d="M64.847,203.31H50.159v-12.188h14.688V203.31z M65.208,190.823H49.797v12.786h15.411V190.823z"/>
<rect x="49.977" y="203.758" fill="#D0EAF0" width="15.051" height="9.144"/>
<polygon fill="#FFFFFF" points="49.797,203.609 49.797,212.901 50.158,212.901 50.158,203.909 64.847,203.909 64.847,212.901 
	65.209,212.901 65.209,203.609 "/>
<rect x="34.581" y="140.25" fill="#D0EAF0" width="15.049" height="12.004"/>
<polygon fill="#FFFFFF" points="49.451,140.25 49.451,152.104 34.761,152.104 34.761,140.25 34.4,140.25 34.4,152.404 
	49.812,152.404 49.812,140.25 "/>
<rect x="34.581" y="152.553" fill="#D0EAF0" width="15.049" height="12.486"/>
<path fill="#FFFFFF" d="M49.451,164.89H34.762v-12.188h14.689V164.89z M49.812,152.404H34.4v12.785h15.412V152.404z"/>
<rect x="34.581" y="165.339" fill="#D0EAF0" width="15.049" height="12.486"/>
<path fill="#FFFFFF" d="M49.451,177.676H34.762v-12.187h14.689V177.676z M49.812,165.188H34.4v12.786h15.412V165.188z"/>
<rect x="34.581" y="178.187" fill="#D0EAF0" width="15.049" height="12.485"/>
<path fill="#FFFFFF" d="M49.451,190.523H34.762v-12.187h14.689V190.523z M49.812,178.038H34.4v12.786h15.412V178.038z"/>
<rect x="34.581" y="190.972" fill="#D0EAF0" width="15.049" height="12.486"/>
<path fill="#FFFFFF" d="M49.451,203.31H34.762v-12.188h14.689V203.31z M49.812,190.823H34.4v12.786h15.412V190.823z"/>
<rect x="34.581" y="203.758" fill="#D0EAF0" width="15.049" height="9.144"/>
<polygon fill="#FFFFFF" points="34.4,203.609 34.4,212.901 34.761,212.901 34.761,203.909 49.451,203.909 49.451,212.901 
	49.812,212.901 49.812,203.609 "/>
<rect x="19.169" y="140.25" fill="#D0EAF0" width="15.051" height="12.004"/>
<polygon fill="#FFFFFF" points="34.039,140.25 34.039,152.104 19.35,152.104 19.35,140.25 18.988,140.25 18.988,152.404 
	34.4,152.404 34.4,140.25 "/>
<rect x="19.17" y="152.553" fill="#D0EAF0" width="15.051" height="12.486"/>
<path fill="#FFFFFF" d="M34.038,164.89H19.349v-12.188h14.689V164.89z M34.399,152.404H18.988v12.785h15.411V152.404z"/>
<rect x="19.17" y="165.339" fill="#D0EAF0" width="15.051" height="12.486"/>
<path fill="#FFFFFF" d="M34.038,177.676H19.349v-12.187h14.689V177.676z M34.399,165.188H18.988v12.786h15.411V165.188z"/>
<rect x="19.17" y="178.187" fill="#D0EAF0" width="15.051" height="12.485"/>
<path fill="#FFFFFF" d="M34.038,190.523H19.349v-12.187h14.689V190.523z M34.399,178.038H18.988v12.786h15.411V178.038z"/>
<rect x="19.17" y="190.972" fill="#D0EAF0" width="15.051" height="12.486"/>
<path fill="#FFFFFF" d="M34.038,203.31H19.349v-12.188h14.689V203.31z M34.399,190.823H18.988v12.786h15.411V190.823z"/>
<rect x="19.169" y="203.758" fill="#D0EAF0" width="15.051" height="9.144"/>
<polygon fill="#FFFFFF" points="18.989,203.609 18.989,212.901 19.35,212.901 19.35,203.909 34.039,203.909 34.039,212.901 
	34.4,212.901 34.4,203.609 "/>
<rect x="4.586" y="140.25" fill="#D0EAF0" width="14.314" height="12.004"/>
<polygon fill="#FFFFFF" points="18.719,140.25 18.719,152.104 4.766,152.104 4.766,140.25 4.404,140.25 4.404,152.404 
	19.08,152.404 19.08,140.25 "/>
<rect x="4.586" y="152.553" fill="#D0EAF0" width="14.313" height="12.486"/>
<path fill="#FFFFFF" d="M18.719,164.89H4.766v-12.188h13.953V164.89z M19.08,152.404H4.405v12.785H19.08V152.404z"/>
<rect x="4.586" y="165.339" fill="#D0EAF0" width="14.313" height="12.486"/>
<path fill="#FFFFFF" d="M18.719,177.676H4.766v-12.187h13.953V177.676z M19.08,165.188H4.405v12.786H19.08V165.188z"/>
<rect x="4.586" y="178.187" fill="#D0EAF0" width="14.313" height="12.485"/>
<path fill="#FFFFFF" d="M18.719,190.523H4.766v-12.187h13.953V190.523z M19.08,178.038H4.405v12.786H19.08V178.038z"/>
<rect x="4.586" y="190.972" fill="#D0EAF0" width="14.313" height="12.486"/>
<path fill="#FFFFFF" d="M18.719,203.31H4.766v-12.188h13.953V203.31z M19.08,190.823H4.405v12.786H19.08V190.823z"/>
<polygon fill="#FFFFFF" points="4.405,203.609 4.405,212.901 4.767,212.901 4.767,203.909 18.72,203.909 18.72,212.901 
	19.08,212.901 19.08,203.609 "/>
<rect x="387.721" y="143.31" fill="#2E2D4B" width="16.333" height="33.807"/>
<rect x="0.001" y="26.246" fill="#2E2D4B" width="12.219" height="13.389"/>
<rect x="0.001" y="37" fill="#2E2D4B" width="53.219" height="16.583"/>
<rect x="94.696" y="37" fill="#2E2D4B" width="36.523" height="16.583"/>
<rect x="114.696" fill="#2E2D4B" width="48.023" height="16.583"/>
<rect x="217.196" fill="#2E2D4B" width="43.523" height="16.583"/>
<rect x="248.72" y="52.833" fill="#2E2D4B" width="48.25" height="16.583"/>
<rect x="337.72" y="52.833" fill="#2E2D4B" width="65.75" height="16.583"/>
<rect x="245.22" y="12.249" fill="#2E2D4B" width="15.5" height="57.167"/>
<rect x="114.696" y="14.332" fill="#2E2D4B" width="16.523" height="26.145"/>
<rect x="124.22" y="116.904" fill="#2E2D4B" width="7" height="24.471"/>
<rect x="245.22" y="57.038" fill="#2E2D4B" width="7" height="84.337"/>
<rect x="181.041" y="170.116" fill="#2E2D4B" width="215.513" height="7"/>
<rect x="124.22" y="27.168" fill="#2E2D4B" width="7" height="96.374"/>
<rect x="245.221" y="27.168" fill="#2E2D4B" width="4.859" height="96.374"/>
<rect x="56.71" y="208.883" fill="#2E2D4B" width="51.344" height="4.859"/>
<rect x="136.457" y="208.883" fill="#2E2D4B" width="49.298" height="4.859"/>
<rect y="45.046" fill="#2E2D4B" width="4.859" height="159.426"/>
<rect x="53.604" y="200.431" fill="#2E2D4B" width="5.521" height="19.467"/>
<rect x="95.238" y="189.81" fill="#2E2D4B" width="4.047" height="19.917"/>
<rect x="180.576" y="170.116" fill="#2E2D4B" width="5.18" height="43.602"/>
<rect x="95.238" y="137.329" fill="#2E2D4B" width="4.047" height="30.594"/>
<rect x="3.626" y="137.329" fill="#2E2D4B" width="95.011" height="4.047"/>
<rect x="124.22" y="137.329" fill="#2E2D4B" width="35.5" height="4.047"/>
<rect x="184.887" y="137.329" fill="#2E2D4B" width="67.333" height="4.047"/>
<rect x="8.697" y="-0.001" fill="#2E2D4B" width="122.848" height="4.047"/>
<rect x="3.908" y="119.495" fill="#2E2D4B" width="31.845" height="4.047"/>
<rect x="14.086" y="131.287" fill="#2E2D4B" width="21.667" height="2.439"/>
<rect x="13.086" y="119.495" fill="#2E2D4B" width="2.417" height="21.667"/>
<rect x="19.836" y="119.495" fill="#2E2D4B" width="2.417" height="21.667"/>
<rect x="26.003" y="119.495" fill="#2E2D4B" width="2.417" height="21.667"/>
<rect x="33.336" y="119.495" fill="#2E2D4B" width="2.417" height="21.667"/>
<rect x="48.4" y="216.236" fill="#2E2D4B" width="10.726" height="3.661"/>
<rect y="216.236" fill="#2E2D4B" width="53.667" height="3.661"/>
<rect y="201.763" fill="#2E2D4B" width="4.379" height="16.289"/>
<rect x="8.696" y="-0.001" fill="#2E2D4B" width="3.524" height="40.478"/>
<rect x="4.843" y="141.375" fill="#9E9D9B" width="22.781" height="14.333"/>
<rect x="4.379" y="205.289" fill="#9E9D9B" width="49.288" height="10.947"/>
<polygon fill="#D7D7D5" points="53.667,216.236 46.776,208.94 4.405,205.289 4.405,216.236 "/>
<rect x="4.843" y="123.542" fill="#9E9D9B" width="8.243" height="13.787"/>
<rect x="15.503" y="123.542" fill="#9E9D9B" width="4.333" height="7.745"/>
<polygon fill="#D7D7D5" points="16.878,125.602 19.836,123.542 19.836,131.288 15.503,131.288 "/>
<rect x="21.67" y="123.542" fill="#9E9D9B" width="4.333" height="7.745"/>
<rect x="15.503" y="133.728" fill="#9E9D9B" width="4.333" height="3.697"/>
<rect x="21.67" y="133.728" fill="#9E9D9B" width="4.333" height="3.697"/>
<rect x="28.419" y="123.542" fill="#9E9D9B" width="4.917" height="7.745"/>
<rect x="28.419" y="133.728" fill="#9E9D9B" width="4.917" height="3.697"/>
<polygon fill="#D7D7D5" points="23.045,125.602 26.003,123.542 26.003,131.288 21.67,131.288 "/>
<polygon fill="#D7D7D5" points="15.503,137.425 16.836,134.935 19.836,133.727 19.836,137.425 "/>
<polygon fill="#D7D7D5" points="21.67,137.425 23.003,134.935 26.003,133.727 26.003,137.425 "/>
<rect x="387.721" y="52.833" fill="#2E2D4B" width="16.333" height="34.895"/>
<rect x="387.723" y="87.727" fill="#A5DAEC" width="16.333" height="55.583"/>
<rect x="393.463" y="87.727" fill="#61A9C4" width="4.851" height="55.583"/>
<rect x="296.97" y="52.833" fill="#A5DAEC" width="41.167" height="16.583"/>
<rect x="296.97" y="58.662" fill="#61A9C4" width="41.167" height="4.924"/>
<rect x="162.72" fill="#A5DAEC" width="54.477" height="16.583"/>
<rect x="162.72" y="5.829" fill="#61A9C4" width="54.477" height="4.924"/>
<rect x="53.22" y="37" fill="#A5DAEC" width="41.477" height="16.583"/>
<rect x="53.22" y="42.829" fill="#61A9C4" width="41.477" height="4.924"/>
<rect x="95.238" y="187.56" fill="#E3004F" width="3.125" height="2.25"/>
<rect x="103.469" y="167.699" transform="matrix(-0.7071 -0.7071 0.7071 -0.7071 51.4119 380.9039)" fill="#E3004F" width="2.25" height="24.209"/>
<rect x="108.054" y="211.492" fill="#E3004F" width="3.125" height="2.25"/>
<rect x="116.284" y="191.631" transform="matrix(-0.7069 -0.7073 0.7073 -0.7069 56.2965 430.8006)" fill="#E3004F" width="2.249" height="24.209"/>
<rect x="159.72" y="139.125" fill="#E3004F" width="3.125" height="2.25"/>
<rect x="167.95" y="119.264" transform="matrix(-0.7071 -0.7071 0.7071 -0.7071 195.7369 343.8142)" fill="#E3004F" width="2.25" height="24.21"/>
<rect x="249.08" y="167.866" fill="#E3004F" width="3.125" height="2.25"/>
<rect x="257.31" y="148.004" transform="matrix(-0.7071 -0.7071 0.7071 -0.7071 327.9613 456.0638)" fill="#E3004F" width="2.25" height="24.209"/>
<rect x="91.571" y="37" fill="#E3004F" width="3.125" height="2.25"/>
<rect x="84.216" y="34.902" transform="matrix(0.7071 0.7071 -0.7071 0.7071 58.2345 -46.5779)" fill="#E3004F" width="2.251" height="24.209"/>
<rect x="47.499" y="141.375" fill="#61A9C4" width="47.739" height="21.236"/>
<path fill="#FFFFFF" d="M54.26,153.985v-0.488c-0.449-0.1-0.788-0.438-0.886-0.886h-0.489
	C52.992,153.321,53.549,153.877,54.26,153.985"/>
<path fill="#FFFFFF" d="M54.26,153.003v-0.392h-0.393C53.936,152.791,54.078,152.933,54.26,153.003"/>
<path fill="#FFFFFF" d="M54.753,153.497v0.488c0.71-0.108,1.267-0.664,1.374-1.374h-0.488
	C55.54,153.06,55.201,153.397,54.753,153.497"/>
<path fill="#FFFFFF" d="M55.146,152.61h-0.392v0.392C54.934,152.933,55.076,152.791,55.146,152.61"/>
<path fill="#FFFFFF" d="M53.867,152.116h0.392v-0.393C54.078,151.793,53.937,151.935,53.867,152.116"/>
<path fill="#FFFFFF" d="M54.753,151.724v0.395h0.392C55.076,151.936,54.934,151.794,54.753,151.724"/>
<path fill="#FFFFFF" d="M53.066,143.474c-1.285,0-2.336,1.053-2.336,2.335v12.368c0,1.285,1.051,2.335,2.336,2.335h29.795
	c0.165,0,0.325-0.018,0.481-0.051c0.302,0.032,0.608,0.051,0.918,0.051c4.705,0,8.519-3.813,8.519-8.519s-3.813-8.52-8.519-8.52
	c-0.31,0-0.616,0.02-0.918,0.053c-0.156-0.033-0.316-0.053-0.481-0.053H53.066z M54.753,149.38v0.869
	c0.979,0.114,1.754,0.887,1.868,1.868h0.868v0.494h-0.868c-0.114,0.979-0.889,1.753-1.868,1.867v0.868h-0.494v-0.868
	c-0.981-0.114-1.753-0.888-1.868-1.867h-0.869v-0.494h0.869c0.115-0.981,0.887-1.754,1.868-1.868v-0.869H54.753z"/>
<path fill="#FFFFFF" d="M52.885,152.116h0.488c0.099-0.448,0.438-0.787,0.886-0.887v-0.487
	C53.549,150.849,52.992,151.406,52.885,152.116"/>
<path fill="#FFFFFF" d="M55.64,152.116h0.488c-0.108-0.71-0.664-1.268-1.374-1.374v0.487
	C55.201,151.329,55.541,151.668,55.64,152.116"/>
<path fill="#61A9C4" d="M48.401,200.43v-5.771v-1.323v-0.843c0-1.983-1.623-3.605-3.604-3.605h-7.125
	c-1.982,0-3.605,1.622-3.605,3.605v0.843v1.323v5.771H48.401z"/>
<path fill="#FFFFFF" d="M37.662,189.763h7.146c1.53,0,2.781,1.251,2.781,2.781v1.833c0,1.53-1.251,2.782-2.781,2.782h-7.146
	c-1.53,0-2.781-1.252-2.781-2.782v-1.833C34.88,191.014,36.131,189.763,37.662,189.763"/>
<path fill="#61A9C4" d="M42.444,193.52H42.08c-0.074,0.334-0.327,0.587-0.661,0.661v0.364
	C41.948,194.465,42.364,194.049,42.444,193.52"/>
<path fill="#61A9C4" d="M41.712,193.52h-0.293v0.293C41.554,193.761,41.66,193.655,41.712,193.52"/>
<path fill="#61A9C4" d="M42.08,193.152h0.364c-0.08-0.53-0.495-0.945-1.025-1.024v0.363
	C41.752,192.564,42.005,192.818,42.08,193.152"/>
<path fill="#61A9C4" d="M41.419,192.859v0.293h0.293C41.66,193.017,41.554,192.911,41.419,192.859"/>
<path fill="#61A9C4" d="M41.051,193.813v-0.293h-0.293C40.811,193.655,40.916,193.761,41.051,193.813"/>
<path fill="#61A9C4" d="M40.758,193.152h0.293v-0.293C40.916,192.911,40.81,193.017,40.758,193.152"/>
<path fill="#61A9C4" d="M41.051,194.545v-0.364c-0.334-0.074-0.587-0.327-0.661-0.661h-0.364
	C40.106,194.049,40.521,194.465,41.051,194.545"/>
<path fill="#61A9C4" d="M41.051,192.491v-0.364c-0.529,0.08-0.945,0.495-1.025,1.025h0.364
	C40.464,192.818,40.717,192.564,41.051,192.491"/>
<path fill="#61A9C4" d="M16.628,175.629h-2.375c-2.475,0-4.5-2.025-4.5-4.5v-4.625c0-2.475,2.025-4.5,4.5-4.5h2.375
	c2.475,0,4.5,2.025,4.5,4.5v4.625C21.128,173.604,19.103,175.629,16.628,175.629"/>
<path fill="#FFFFFF" d="M16.237,174.555h-1.596c-2.156,0-3.911-1.754-3.911-3.909v-5.231c0-2.156,1.755-3.911,3.911-3.911h1.596
	c2.156,0,3.91,1.755,3.91,3.911v5.231C20.147,172.801,18.394,174.555,16.237,174.555 M14.642,162.503
	c-1.605,0-2.911,1.306-2.911,2.911v5.231c0,1.604,1.306,2.909,2.911,2.909h1.596c1.605,0,2.91-1.306,2.91-2.909v-5.231
	c0-1.605-1.305-2.911-2.91-2.911H14.642z"/>
<path fill="#61A9C4" d="M20.689,162.306h-10.5c-0.619,0-1.125-0.506-1.125-1.125v-4.5c0-0.619,0.506-1.125,1.125-1.125h10.5
	c0.619,0,1.125,0.506,1.125,1.125v4.5C21.814,161.8,21.309,162.306,20.689,162.306"/>
<path fill="#61A9C4" d="M17.189,164.046h-3.5c-0.269,0-0.49-0.22-0.49-0.49v-2.5c0-0.269,0.221-0.488,0.49-0.488h3.5
	c0.269,0,0.49,0.22,0.49,0.488v2.5C17.68,163.826,17.458,164.046,17.189,164.046"/>
<path fill="#FFFFFF" d="M16.386,158.931c0,0.523-0.424,0.946-0.946,0.946c-0.523,0-0.947-0.423-0.947-0.946
	c0-0.521,0.424-0.945,0.947-0.945C15.962,157.985,16.386,158.409,16.386,158.931"/>
<rect x="4.843" y="98.107" fill="#B2D4DC" width="17.107" height="21.388"/>
<path fill="#FFFFFF" d="M7.748,102.427v6.104v0.771v8.604h0.491v-7.052c0.218,0.312,0.5,0.57,0.825,0.77v6.282h0.491v-6.046
	c0.26,0.094,0.536,0.151,0.824,0.161v5.885h0.492v-5.875h0.824v5.875h0.492v-5.875h0.824v5.875h0.492v-5.875h0.824v5.875h0.491
	v-5.875h0.825v5.875h0.491v-5.875h0.824v5.875h0.492v-5.885c0.289-0.01,0.564-0.067,0.824-0.161v6.046h0.492v-6.282
	c0.324-0.199,0.607-0.458,0.824-0.77v7.052h0.491v-8.604v-0.771v-6.104c0-1.501-1.228-2.729-2.729-2.729h-6.875
	C8.976,99.698,7.748,100.926,7.748,102.427"/>
<path fill="#61A9C4" d="M4.843,103.828v4.333h2.905v-1.666h2.842c0.154,0,0.281-0.127,0.281-0.282v-0.437
	c0-0.155-0.127-0.281-0.281-0.281H7.748v-1.667H4.843z"/>
<path fill="#FFFFFF" d="M6.298,106.597c0.268,0,0.484,0.217,0.484,0.484s-0.216,0.484-0.484,0.484c-0.267,0-0.484-0.217-0.484-0.484
	S6.031,106.597,6.298,106.597"/>
<path fill="#FFFFFF" d="M6.298,104.425c0.268,0,0.484,0.217,0.484,0.484s-0.216,0.484-0.484,0.484c-0.267,0-0.484-0.217-0.484-0.484
	S6.031,104.425,6.298,104.425"/>
<rect x="4.843" y="72.603" fill="#B2D4DC" width="2.905" height="15.25"/>
<rect x="7.747" y="72.603" fill="#61A9C4" width="14.202" height="15.25"/>
<rect x="22.609" y="74.103" fill="#61A9C4" width="0.927" height="12.25"/>
<path fill="#FFFFFF" d="M13.625,76.894c0,1.327-1.08,2.406-2.406,2.406c-1.327,0-2.406-1.079-2.406-2.406
	c0-1.325,1.079-2.404,2.406-2.404C12.544,74.489,13.625,75.568,13.625,76.894 M9.563,76.894c0,0.913,0.743,1.656,1.656,1.656
	c0.913,0,1.656-0.743,1.656-1.656s-0.743-1.654-1.656-1.654C10.306,75.239,9.563,75.98,9.563,76.894"/>
<path fill="#FFFFFF" d="M12.469,76.894c0,0.689-0.561,1.25-1.25,1.25s-1.25-0.561-1.25-1.25c0-0.688,0.561-1.25,1.25-1.25
	S12.469,76.206,12.469,76.894 M10.719,76.894c0,0.275,0.224,0.5,0.5,0.5s0.5-0.225,0.5-0.5c0-0.274-0.224-0.5-0.5-0.5
	S10.719,76.619,10.719,76.894"/>
<path fill="#FFFFFF" d="M19.199,76.894c0,0.908-0.739,1.646-1.646,1.646c-0.908,0-1.646-0.738-1.646-1.646
	c0-0.906,0.738-1.646,1.646-1.646C18.46,75.247,19.199,75.987,19.199,76.894 M16.657,76.894c0,0.494,0.402,0.896,0.896,0.896
	s0.896-0.402,0.896-0.896c0-0.493-0.402-0.896-0.896-0.896S16.657,76.4,16.657,76.894"/>
<path fill="#FFFFFF" d="M20.886,76.894c0,1.838-1.496,3.334-3.334,3.334c-1.837,0-3.333-1.496-3.333-3.334s1.496-3.333,3.333-3.333
	C19.39,73.561,20.886,75.056,20.886,76.894 M14.969,76.894c0,1.426,1.159,2.584,2.583,2.584c1.425,0,2.584-1.158,2.584-2.584
	c0-1.424-1.159-2.583-2.584-2.583C16.128,74.311,14.969,75.47,14.969,76.894"/>
<path fill="#FFFFFF" d="M16.074,83.562c0-1.326,1.08-2.405,2.406-2.405c1.327,0,2.405,1.079,2.405,2.405s-1.078,2.405-2.405,2.405
	C17.154,85.967,16.074,84.888,16.074,83.562 M20.135,83.562c0-0.913-0.742-1.655-1.655-1.655c-0.913,0-1.656,0.742-1.656,1.655
	s0.743,1.655,1.656,1.655C19.393,85.217,20.135,84.475,20.135,83.562"/>
<path fill="#FFFFFF" d="M17.229,83.562c0-0.688,0.561-1.25,1.25-1.25s1.25,0.562,1.25,1.25c0,0.689-0.561,1.25-1.25,1.25
	S17.229,84.251,17.229,83.562 M18.979,83.562c0-0.274-0.224-0.5-0.5-0.5s-0.5,0.226-0.5,0.5c0,0.275,0.224,0.5,0.5,0.5
	S18.979,83.837,18.979,83.562"/>
<path fill="#FFFFFF" d="M10.5,83.562c0-0.907,0.739-1.646,1.646-1.646c0.908,0,1.646,0.739,1.646,1.646s-0.738,1.646-1.646,1.646
	C11.238,85.208,10.5,84.469,10.5,83.562 M13.042,83.562c0-0.493-0.402-0.896-0.896-0.896s-0.896,0.403-0.896,0.896
	c0,0.494,0.402,0.896,0.896,0.896S13.042,84.056,13.042,83.562"/>
<path fill="#FFFFFF" d="M8.813,83.562c0-1.838,1.496-3.334,3.334-3.334c1.837,0,3.333,1.496,3.333,3.334
	c0,1.839-1.496,3.333-3.333,3.333C10.309,86.895,8.813,85.4,8.813,83.562 M14.729,83.562c0-1.425-1.159-2.584-2.583-2.584
	c-1.425,0-2.584,1.159-2.584,2.584s1.159,2.583,2.584,2.583C13.57,86.145,14.729,84.986,14.729,83.562"/>
<rect x="21.949" y="81.998" fill="#B2D4DC" width="0.66" height="1.48"/>
<rect x="21.949" y="76.978" fill="#B2D4DC" width="0.66" height="1.48"/>
<rect x="4.843" y="53.582" fill="#B2D4DC" width="17.107" height="16.938"/>
<path fill="#61A9C4" d="M22.423,70.515c0.615-0.015,1.115-0.396,1.115-0.87V54.458c0-0.472-0.5-0.855-1.115-0.87V70.515z"/>
<rect x="4.843" y="87.853" fill="#D0EAF0" width="17.107" height="10.255"/>
<rect x="4.843" y="70.52" fill="#D0EAF0" width="17.107" height="2.083"/>
<rect x="0.001" y="200.431" fill="#2E2D4B" width="59.125" height="4.858"/>
<path fill="#2E2D4B" d="M23.398,16.583h-7.526v-1.845l2.532-2.561c0.723-0.757,1.196-1.273,1.419-1.55
	c0.222-0.275,0.377-0.515,0.465-0.713c0.087-0.198,0.131-0.406,0.131-0.624c0-0.27-0.087-0.482-0.263-0.639
	c-0.175-0.156-0.421-0.234-0.737-0.234c-0.327,0-0.657,0.094-0.99,0.28c-0.334,0.188-0.711,0.463-1.132,0.826l-1.539-1.802
	c0.535-0.478,0.984-0.819,1.348-1.024c0.364-0.206,0.76-0.363,1.188-0.471c0.428-0.11,0.91-0.164,1.444-0.164
	c0.671,0,1.27,0.118,1.798,0.354c0.527,0.236,0.936,0.573,1.227,1.011S23.2,8.356,23.2,8.9c0,0.407-0.051,0.783-0.153,1.128
	c-0.102,0.346-0.259,0.685-0.472,1.019c-0.212,0.333-0.495,0.685-0.848,1.053c-0.351,0.369-1.102,1.069-2.252,2.1v0.071h3.923
	V16.583z"/>
<path fill="#2E2D4B" d="M27.484,14.462l0.1,0.163c-0.459,1.802-0.875,3.129-1.248,3.979h-1.98c0.137-0.652,0.275-1.384,0.415-2.195
	c0.14-0.811,0.235-1.46,0.287-1.947H27.484z"/>
<path fill="#2E2D4B" d="M35.125,16.583h-2.845v-5.49c0-0.667,0.014-1.277,0.042-1.83c-0.175,0.213-0.392,0.435-0.652,0.666
	l-1.178,0.973l-1.454-1.788L32.6,6.212h2.525V16.583z"/>
<path fill="#2E2D4B" d="M44.956,11.412c0,1.835-0.307,3.179-0.923,4.032c-0.614,0.854-1.555,1.279-2.823,1.279
	c-1.238,0-2.173-0.444-2.802-1.336s-0.943-2.217-0.943-3.976c0-1.845,0.308-3.197,0.922-4.058c0.615-0.861,1.555-1.291,2.823-1.291
	c1.234,0,2.167,0.448,2.799,1.344C44.64,8.304,44.956,9.64,44.956,11.412 M40.253,11.412c0,1.173,0.073,1.979,0.22,2.419
	c0.146,0.439,0.392,0.659,0.737,0.659c0.351,0,0.598-0.226,0.741-0.681c0.145-0.454,0.217-1.252,0.217-2.397
	c0-1.149-0.073-1.955-0.22-2.416c-0.146-0.461-0.392-0.691-0.738-0.691c-0.345,0-0.591,0.223-0.737,0.667
	C40.326,9.416,40.253,10.229,40.253,11.412"/>
<path fill="#2E2D4B" d="M57.205,180.047c0-1.447,0.207-2.619,0.621-3.515c0.414-0.896,1.023-1.558,1.83-1.983
	c0.807-0.425,1.801-0.638,2.984-0.638c0.42,0,0.912,0.041,1.475,0.12v2.192c-0.473-0.09-0.986-0.135-1.539-0.135
	c-0.938,0-1.635,0.205-2.094,0.618c-0.457,0.41-0.709,1.083-0.752,2.014h0.086c0.426-0.805,1.109-1.206,2.051-1.206
	c0.922,0,1.637,0.297,2.145,0.89c0.51,0.595,0.764,1.42,0.764,2.479c0,1.14-0.322,2.039-0.965,2.699s-1.543,0.989-2.695,0.989
	c-1.225,0-2.184-0.396-2.873-1.191C57.551,182.586,57.205,181.475,57.205,180.047 M61.051,182.353c0.299,0,0.541-0.112,0.727-0.337
	c0.188-0.225,0.281-0.583,0.281-1.075c0-0.842-0.326-1.263-0.979-1.263c-0.322,0-0.584,0.11-0.785,0.326
	c-0.201,0.218-0.301,0.482-0.301,0.795c0,0.454,0.096,0.826,0.291,1.117C60.479,182.207,60.734,182.353,61.051,182.353"/>
<path fill="#2E2D4B" d="M68.754,182.31l0.1,0.163c-0.459,1.802-0.875,3.129-1.248,3.979h-1.979c0.137-0.652,0.275-1.384,0.414-2.195
	c0.141-0.811,0.236-1.46,0.287-1.947H68.754z"/>
<path fill="#2E2D4B" d="M77.75,178.806c0,2.028-0.438,3.497-1.313,4.405c-0.875,0.907-2.275,1.361-4.199,1.361
	c-0.635,0-1.117-0.023-1.447-0.07v-2.221c0.406,0.076,0.813,0.113,1.219,0.113c1.004,0,1.777-0.207,2.32-0.62
	c0.545-0.414,0.84-1.068,0.887-1.962h-0.084c-0.186,0.341-0.367,0.587-0.547,0.737c-0.18,0.152-0.4,0.268-0.66,0.349
	c-0.26,0.08-0.584,0.12-0.971,0.12c-0.9,0-1.602-0.301-2.107-0.9c-0.506-0.601-0.76-1.429-0.76-2.484
	c0-1.148,0.328-2.049,0.982-2.701c0.656-0.653,1.553-0.979,2.693-0.979c1.265,0,2.248,0.421,2.943,1.263
	S77.75,177.254,77.75,178.806 M73.842,176.195c-0.309,0-0.559,0.11-0.75,0.333s-0.287,0.579-0.287,1.071
	c0,0.388,0.084,0.696,0.248,0.926c0.166,0.229,0.42,0.344,0.76,0.344c0.307,0,0.574-0.11,0.801-0.333
	c0.229-0.223,0.342-0.489,0.342-0.802c0-0.421-0.105-0.783-0.316-1.085C74.428,176.347,74.162,176.195,73.842,176.195"/>
<path fill="#2E2D4B" d="M86.227,179.26c0,1.835-0.307,3.179-0.922,4.032s-1.557,1.279-2.824,1.279c-1.238,0-2.172-0.444-2.801-1.336
	s-0.943-2.217-0.943-3.976c0-1.845,0.307-3.197,0.922-4.058c0.615-0.861,1.555-1.291,2.822-1.291c1.234,0,2.168,0.448,2.799,1.344
	C85.91,176.151,86.227,177.487,86.227,179.26 M81.523,179.26c0,1.173,0.074,1.979,0.221,2.419s0.393,0.659,0.736,0.659
	c0.352,0,0.598-0.226,0.742-0.681c0.145-0.454,0.217-1.252,0.217-2.397c0-1.149-0.074-1.955-0.221-2.416s-0.393-0.691-0.738-0.691
	c-0.344,0-0.59,0.223-0.736,0.667S81.523,178.077,81.523,179.26"/>
<rect x="99.285" y="137.37" fill="#E3004F" width="3.125" height="2.25"/>
<rect x="107.515" y="117.509" transform="matrix(-0.7073 -0.7069 0.7069 -0.7073 93.8621 298.0896)" fill="#E3004F" width="2.25" height="24.21"/>
<rect x="257.119" y="15.646" fill="#2E2D4B" width="132.365" height="4.047"/>
<rect x="387.723" y="15.646" fill="#2E2D4B" width="3.523" height="38.765"/>
<path fill="#2E2D4B" d="M271.82,32.94h-7.526v-1.845l2.532-2.561c0.723-0.757,1.196-1.273,1.419-1.55
	c0.222-0.275,0.377-0.515,0.465-0.713c0.087-0.198,0.132-0.406,0.132-0.624c0-0.27-0.088-0.481-0.264-0.639
	c-0.175-0.156-0.421-0.234-0.736-0.234c-0.327,0-0.657,0.094-0.99,0.28c-0.334,0.188-0.711,0.463-1.133,0.826l-1.538-1.802
	c0.534-0.478,0.983-0.819,1.348-1.024c0.364-0.206,0.76-0.363,1.188-0.471c0.428-0.11,0.909-0.164,1.443-0.164
	c0.671,0,1.271,0.119,1.798,0.354c0.527,0.236,0.937,0.573,1.228,1.011s0.437,0.928,0.437,1.472c0,0.407-0.051,0.784-0.153,1.128
	c-0.102,0.346-0.259,0.685-0.472,1.019c-0.212,0.333-0.495,0.685-0.848,1.054c-0.352,0.368-1.103,1.068-2.252,2.099v0.071h3.923
	V32.94z"/>
<path fill="#2E2D4B" d="M275.906,30.819l0.1,0.163c-0.459,1.802-0.875,3.129-1.248,3.979h-1.979
	c0.137-0.652,0.274-1.384,0.415-2.195c0.14-0.811,0.234-1.46,0.287-1.947H275.906z"/>
<path fill="#2E2D4B" d="M281.574,26.145c0.596,0,1.134,0.139,1.614,0.415c0.479,0.276,0.854,0.668,1.12,1.174
	c0.268,0.507,0.401,1.091,0.401,1.752c0,1.159-0.349,2.048-1.047,2.668c-0.697,0.619-1.753,0.929-3.167,0.929
	c-1.211,0-2.199-0.187-2.965-0.561v-2.298c0.411,0.19,0.876,0.345,1.394,0.468s0.964,0.185,1.337,0.185
	c0.521,0,0.92-0.109,1.199-0.33c0.279-0.22,0.419-0.545,0.419-0.975c0-0.397-0.143-0.707-0.426-0.93
	c-0.284-0.222-0.715-0.333-1.291-0.333c-0.44,0-0.915,0.082-1.426,0.248l-1.029-0.511l0.39-5.477h5.916v2.334h-3.531l-0.128,1.369
	c0.368-0.071,0.631-0.109,0.786-0.117C281.298,26.148,281.442,26.145,281.574,26.145"/>
<path fill="#2E2D4B" d="M293.379,27.77c0,1.835-0.307,3.179-0.923,4.032c-0.614,0.854-1.556,1.28-2.823,1.28
	c-1.238,0-2.173-0.445-2.802-1.337c-0.63-0.892-0.943-2.217-0.943-3.976c0-1.845,0.308-3.197,0.922-4.058
	c0.615-0.861,1.556-1.291,2.823-1.291c1.234,0,2.167,0.449,2.799,1.344C293.063,24.661,293.379,25.997,293.379,27.77 M288.676,27.77
	c0,1.173,0.073,1.979,0.22,2.419s0.393,0.659,0.737,0.659c0.351,0,0.598-0.226,0.741-0.681c0.145-0.454,0.217-1.252,0.217-2.397
	c0-1.149-0.073-1.955-0.22-2.416s-0.393-0.69-0.738-0.69c-0.345,0-0.591,0.222-0.737,0.667
	C288.749,25.773,288.676,26.587,288.676,27.77"/>
</svg>
