<?xml version="1.0" encoding="utf-8"?>
<!-- Generator: Adobe Illustrator 16.0.0, SVG Export Plug-In . SVG Version: 6.00 Build 0)  -->
<!DOCTYPE svg PUBLIC "-//W3C//DTD SVG 1.1//EN" "http://www.w3.org/Graphics/SVG/1.1/DTD/svg11.dtd">
<svg version="1.1" id="Слой_1" xmlns="http://www.w3.org/2000/svg" xmlns:xlink="http://www.w3.org/1999/xlink" x="0px" y="0px"
	 width="305.721px" height="363.945px" viewBox="0 0 305.721 363.945" enable-background="new 0 0 305.721 363.945"
	 xml:space="preserve">
<path fill="#E3004F" d="M84.079,234.652H49.831v-8.393l11.522-11.652c3.293-3.443,5.445-5.794,6.457-7.053
	c1.011-1.259,1.716-2.339,2.114-3.244c0.397-0.903,0.597-1.851,0.597-2.841c0-1.227-0.398-2.194-1.194-2.904
	c-0.796-0.711-1.915-1.065-3.356-1.065c-1.485,0-2.986,0.425-4.503,1.274c-1.518,0.851-3.234,2.104-5.149,3.761l-7.004-8.199
	c2.432-2.173,4.476-3.728,6.133-4.664c1.656-0.936,3.459-1.651,5.406-2.146c1.948-0.495,4.138-0.742,6.569-0.742
	c3.056,0,5.783,0.538,8.183,1.613c2.399,1.077,4.261,2.611,5.584,4.601c1.324,1.99,1.985,4.224,1.985,6.697
	c0,1.852-0.231,3.563-0.693,5.133c-0.464,1.571-1.179,3.115-2.147,4.632c-0.968,1.518-2.254,3.115-3.857,4.793
	c-1.603,1.68-5.019,4.863-10.248,9.555v0.322h17.851V234.652z"/>
<path fill="#2E2D4B" d="M99.392,201.781h-1.753v3.081h-4.245v-3.081h-6.347v-3.156l6.617-9.678h3.975v9.623h1.753V201.781z
	 M93.394,198.57v-1.851c0-0.349,0.013-0.818,0.038-1.409c0.025-0.592,0.045-0.902,0.06-0.931h-0.12
	c-0.246,0.559-0.525,1.081-0.838,1.567l-1.764,2.623H93.394z"/>
<path fill="#2E2D4B" d="M112.008,196.927c0,2.815-0.473,4.879-1.415,6.188c-0.944,1.31-2.388,1.965-4.333,1.965
	c-1.901,0-3.335-0.684-4.3-2.052s-1.447-3.402-1.447-6.102c0-2.83,0.472-4.905,1.415-6.227c0.943-1.32,2.387-1.981,4.332-1.981
	c1.895,0,3.325,0.687,4.295,2.063C111.523,192.157,112.008,194.205,112.008,196.927 M104.79,196.927c0,1.8,0.112,3.037,0.338,3.712
	c0.224,0.675,0.603,1.013,1.132,1.013c0.537,0,0.916-0.349,1.137-1.045c0.223-0.697,0.332-1.924,0.332-3.68
	c0-1.764-0.111-2.999-0.337-3.707c-0.225-0.707-0.603-1.061-1.132-1.061s-0.908,0.341-1.132,1.022
	C104.902,193.864,104.79,195.112,104.79,196.927"/>
<path fill="#2E2D4B" d="M118.212,201.607l0.152,0.25c-0.704,2.766-1.343,4.801-1.916,6.107h-3.037
	c0.211-1.002,0.423-2.125,0.637-3.369c0.215-1.244,0.361-2.24,0.441-2.988H118.212z"/>
<path fill="#2E2D4B" d="M132.407,201.781h-1.753v3.081h-4.245v-3.081h-6.347v-3.156l6.617-9.678h3.975v9.623h1.753V201.781z
	 M126.409,198.57v-1.851c0-0.349,0.013-0.818,0.038-1.409c0.025-0.592,0.045-0.902,0.06-0.931h-0.12
	c-0.246,0.559-0.525,1.081-0.838,1.567l-1.764,2.623H126.409z"/>
<path fill="#2E2D4B" d="M139.972,194.434c0.915,0,1.74,0.213,2.477,0.637c0.737,0.425,1.311,1.025,1.721,1.802
	c0.409,0.776,0.614,1.673,0.614,2.689c0,1.777-0.535,3.142-1.605,4.093c-1.07,0.95-2.69,1.425-4.86,1.425
	c-1.857,0-3.374-0.286-4.55-0.859v-3.526c0.631,0.29,1.344,0.529,2.139,0.718c0.794,0.189,1.479,0.283,2.052,0.283
	c0.799,0,1.411-0.168,1.84-0.506s0.643-0.836,0.643-1.497c0-0.609-0.218-1.085-0.653-1.426s-1.096-0.512-1.981-0.512
	c-0.675,0-1.404,0.127-2.188,0.381l-1.578-0.783l0.6-8.404h9.078v3.582h-5.421l-0.196,2.101c0.566-0.108,0.969-0.169,1.209-0.18
	C139.548,194.439,139.769,194.434,139.972,194.434"/>
<path fill="#2E2D4B" d="M87.719,224.867c0-2.221,0.317-4.018,0.953-5.393c0.635-1.375,1.57-2.391,2.808-3.043s2.764-0.98,4.577-0.98
	c0.646,0,1.401,0.063,2.265,0.186V219c-0.726-0.137-1.513-0.207-2.362-0.207c-1.437,0-2.507,0.316-3.211,0.947
	c-0.704,0.633-1.089,1.662-1.153,3.092h0.13c0.653-1.232,1.702-1.85,3.146-1.85c1.415,0,2.513,0.455,3.293,1.365
	c0.779,0.91,1.17,2.18,1.17,3.805c0,1.75-0.494,3.129-1.48,4.143c-0.987,1.012-2.366,1.518-4.137,1.518
	c-1.88,0-3.349-0.609-4.408-1.828S87.719,227.06,87.719,224.867 M93.619,228.406c0.457,0,0.829-0.172,1.115-0.518
	c0.287-0.344,0.431-0.895,0.431-1.648c0-1.293-0.501-1.938-1.503-1.938c-0.493,0-0.895,0.166-1.202,0.5
	c-0.309,0.334-0.463,0.74-0.463,1.219c0,0.697,0.147,1.268,0.446,1.715C92.741,228.181,93.133,228.406,93.619,228.406"/>
<path fill="#2E2D4B" d="M106.594,215.451c1.677,0,2.981,0.338,3.914,1.014c0.933,0.674,1.398,1.633,1.398,2.873
	c0,0.842-0.22,1.58-0.658,2.215c-0.439,0.635-1.134,1.189-2.085,1.66c1.176,0.668,2.005,1.334,2.487,1.998s0.725,1.381,0.725,2.15
	c0,1.414-0.512,2.51-1.535,3.287c-1.023,0.775-2.453,1.164-4.289,1.164c-1.873,0-3.306-0.379-4.3-1.137s-1.491-1.85-1.491-3.271
	c0-0.922,0.222-1.707,0.664-2.357c0.442-0.648,1.187-1.238,2.231-1.768c-0.842-0.566-1.457-1.174-1.845-1.824
	c-0.389-0.648-0.583-1.361-0.583-2.139c0-1.219,0.476-2.168,1.427-2.846C103.604,215.791,104.918,215.451,106.594,215.451
	 M104.7,227.23c0,0.449,0.159,0.811,0.479,1.082c0.319,0.273,0.762,0.408,1.327,0.408c1.277,0,1.916-0.467,1.916-1.404
	c0-0.355-0.14-0.705-0.419-1.049c-0.279-0.346-0.778-0.732-1.497-1.16c-0.646,0.342-1.108,0.684-1.388,1.029
	C104.84,226.48,104.7,226.845,104.7,227.23 M106.572,218.554c-0.37,0-0.682,0.107-0.936,0.32c-0.254,0.215-0.381,0.492-0.381,0.834
	c0,0.623,0.424,1.176,1.273,1.654c0.515-0.299,0.867-0.57,1.056-0.816c0.188-0.248,0.283-0.527,0.283-0.838
	c0-0.35-0.127-0.629-0.381-0.84C107.233,218.66,106.928,218.554,106.572,218.554"/>
<path fill="#2E2D4B" d="M118.503,228.339l0.152,0.25c-0.704,2.766-1.343,4.801-1.916,6.107h-3.037
	c0.211-1.002,0.423-2.125,0.637-3.369c0.215-1.244,0.361-2.24,0.441-2.988H118.503z"/>
<polygon fill="#2E2D4B" points="122.248,231.595 127.712,219.261 120.821,219.261 120.821,215.703 132.306,215.703 132.306,218.24 
	126.7,231.595 "/>
<path fill="#2E2D4B" d="M144.716,219.13c0,0.988-0.302,1.834-0.904,2.543c-0.603,0.707-1.473,1.221-2.612,1.539v0.066
	c2.656,0.334,3.984,1.588,3.984,3.766c0,1.48-0.586,2.645-1.758,3.494c-1.173,0.85-2.8,1.273-4.883,1.273
	c-0.856,0-1.648-0.061-2.378-0.186c-0.729-0.123-1.519-0.348-2.368-0.674v-3.57c0.697,0.355,1.406,0.619,2.128,0.789
	c0.723,0.17,1.389,0.256,1.998,0.256c0.942,0,1.631-0.133,2.063-0.398c0.432-0.264,0.647-0.68,0.647-1.246
	c0-0.436-0.112-0.77-0.337-1.006c-0.227-0.236-0.588-0.414-1.089-0.533c-0.501-0.121-1.153-0.18-1.959-0.18h-0.979v-3.234h1.001
	c2.185,0,3.276-0.559,3.276-1.676c0-0.42-0.161-0.732-0.484-0.936s-0.756-0.305-1.301-0.305c-1.016,0-2.068,0.34-3.156,1.023
	l-1.785-2.875c0.842-0.58,1.703-0.994,2.585-1.24s1.893-0.371,3.031-0.371c1.647,0,2.939,0.328,3.876,0.98
	C144.247,217.083,144.716,217.984,144.716,219.13"/>
<rect x="87.959" y="210.255" fill="#2E2D4B" width="58.897" height="1.775"/>
<path fill="#2E2D4B" d="M27.077,176.329h-2.845v-5.49c0-0.667,0.014-1.277,0.042-1.83c-0.175,0.213-0.393,0.435-0.652,0.666
	l-1.178,0.973l-1.454-1.788l3.562-2.901h2.525V176.329z"/>
<path fill="#2E2D4B" d="M36.944,170.704c0,2.028-0.438,3.497-1.313,4.405c-0.875,0.907-2.274,1.361-4.2,1.361
	c-0.633,0-1.115-0.022-1.446-0.07v-2.221c0.407,0.076,0.813,0.113,1.22,0.113c1.003,0,1.776-0.207,2.32-0.62
	c0.544-0.414,0.839-1.068,0.887-1.962h-0.085c-0.185,0.341-0.367,0.587-0.547,0.738c-0.181,0.151-0.399,0.267-0.659,0.348
	c-0.261,0.08-0.584,0.12-0.972,0.12c-0.899,0-1.602-0.3-2.107-0.9s-0.759-1.429-0.759-2.483c0-1.149,0.327-2.05,0.981-2.702
	c0.656-0.653,1.554-0.979,2.693-0.979c1.267,0,2.248,0.421,2.943,1.264C36.597,167.956,36.944,169.152,36.944,170.704
	 M33.036,168.094c-0.308,0-0.558,0.11-0.749,0.333S32,169.006,32,169.498c0,0.388,0.083,0.696,0.248,0.926
	c0.166,0.229,0.419,0.344,0.76,0.344c0.307,0,0.574-0.11,0.801-0.333c0.228-0.223,0.341-0.489,0.341-0.802
	c0-0.421-0.105-0.783-0.315-1.085C33.623,168.245,33.357,168.094,33.036,168.094"/>
<path fill="#2E2D4B" d="M40.952,174.208l0.1,0.163c-0.459,1.802-0.875,3.129-1.248,3.979h-1.979
	c0.137-0.652,0.275-1.384,0.415-2.195c0.14-0.811,0.235-1.46,0.287-1.947H40.952z"/>
<path fill="#2E2D4B" d="M46.194,165.81c1.093,0,1.942,0.22,2.55,0.659c0.608,0.44,0.912,1.064,0.912,1.873
	c0,0.549-0.143,1.029-0.429,1.443s-0.739,0.774-1.358,1.082c0.766,0.435,1.306,0.869,1.62,1.302c0.314,0.434,0.472,0.899,0.472,1.4
	c0,0.923-0.333,1.637-1,2.143s-1.599,0.759-2.795,0.759c-1.22,0-2.154-0.247-2.802-0.741s-0.972-1.204-0.972-2.132
	c0-0.601,0.145-1.112,0.433-1.535c0.288-0.424,0.773-0.808,1.454-1.153c-0.549-0.368-0.949-0.765-1.203-1.188
	c-0.252-0.424-0.379-0.888-0.379-1.395c0-0.794,0.31-1.412,0.93-1.854C44.246,166.03,45.103,165.81,46.194,165.81 M44.96,173.484
	c0,0.294,0.104,0.528,0.313,0.706s0.497,0.266,0.865,0.266c0.833,0,1.249-0.305,1.249-0.915c0-0.231-0.092-0.46-0.273-0.685
	s-0.507-0.476-0.976-0.754c-0.421,0.221-0.724,0.444-0.904,0.669C45.052,172.996,44.96,173.234,44.96,173.484 M46.181,167.831
	c-0.241,0-0.444,0.069-0.61,0.209c-0.165,0.14-0.248,0.32-0.248,0.543c0,0.406,0.276,0.766,0.83,1.078
	c0.336-0.194,0.564-0.371,0.688-0.532c0.123-0.16,0.185-0.343,0.185-0.546c0-0.228-0.083-0.409-0.248-0.546
	C46.61,167.899,46.412,167.831,46.181,167.831"/>
<path fill="#2E2D4B" d="M50.919,171.945c0-1.447,0.207-2.619,0.62-3.515c0.414-0.896,1.024-1.558,1.83-1.983
	c0.808-0.425,1.802-0.638,2.984-0.638c0.421,0,0.912,0.04,1.475,0.12v2.192c-0.473-0.09-0.985-0.135-1.539-0.135
	c-0.937,0-1.634,0.205-2.093,0.617c-0.458,0.411-0.709,1.083-0.752,2.015h0.086c0.425-0.806,1.108-1.206,2.05-1.206
	c0.922,0,1.638,0.297,2.146,0.89c0.509,0.595,0.763,1.42,0.763,2.479c0,1.14-0.321,2.039-0.965,2.699
	c-0.643,0.66-1.542,0.989-2.695,0.989c-1.225,0-2.183-0.396-2.873-1.191S50.919,173.373,50.919,171.945 M54.764,174.251
	c0.299,0,0.541-0.112,0.728-0.337c0.187-0.226,0.28-0.583,0.28-1.075c0-0.842-0.326-1.263-0.979-1.263
	c-0.322,0-0.583,0.109-0.784,0.326c-0.201,0.218-0.302,0.482-0.302,0.795c0,0.454,0.097,0.825,0.291,1.116
	S54.447,174.251,54.764,174.251"/>
<path fill="#2E2D4B" d="M209.479,47.35h-7.526v-1.845l2.532-2.561c0.723-0.757,1.196-1.273,1.419-1.55
	c0.222-0.276,0.377-0.515,0.465-0.713c0.087-0.198,0.132-0.406,0.132-0.624c0-0.27-0.088-0.482-0.264-0.639
	c-0.175-0.156-0.421-0.234-0.736-0.234c-0.327,0-0.657,0.094-0.99,0.28c-0.334,0.188-0.711,0.463-1.133,0.826l-1.538-1.802
	c0.534-0.478,0.983-0.819,1.348-1.024c0.364-0.206,0.76-0.363,1.188-0.472c0.428-0.109,0.909-0.163,1.443-0.163
	c0.671,0,1.271,0.118,1.798,0.354s0.937,0.573,1.228,1.011s0.437,0.928,0.437,1.472c0,0.407-0.051,0.783-0.153,1.128
	c-0.102,0.346-0.259,0.685-0.472,1.019c-0.212,0.333-0.495,0.685-0.848,1.053c-0.352,0.369-1.103,1.069-2.252,2.1v0.071h3.923V47.35
	z"/>
<path fill="#2E2D4B" d="M218.034,42.179c0,1.835-0.308,3.179-0.923,4.032c-0.614,0.854-1.556,1.28-2.823,1.28
	c-1.238,0-2.173-0.445-2.802-1.337s-0.943-2.217-0.943-3.976c0-1.845,0.308-3.197,0.922-4.058c0.615-0.861,1.555-1.291,2.823-1.291
	c1.233,0,2.167,0.448,2.799,1.344C217.718,39.07,218.034,40.405,218.034,42.179 M213.331,42.179c0,1.173,0.073,1.979,0.22,2.419
	s0.393,0.659,0.737,0.659c0.351,0,0.598-0.227,0.741-0.681c0.145-0.454,0.217-1.252,0.217-2.397c0-1.149-0.073-1.955-0.22-2.416
	s-0.393-0.691-0.738-0.691c-0.345,0-0.591,0.223-0.737,0.668C213.404,40.183,213.331,40.996,213.331,42.179"/>
<path fill="#2E2D4B" d="M222.077,45.229l0.1,0.163c-0.459,1.802-0.875,3.129-1.248,3.979h-1.979
	c0.137-0.652,0.275-1.384,0.415-2.195c0.14-0.811,0.235-1.46,0.287-1.947H222.077z"/>
<path fill="#2E2D4B" d="M227.745,40.554c0.596,0,1.134,0.139,1.614,0.415c0.479,0.276,0.854,0.668,1.119,1.174
	c0.269,0.507,0.402,1.091,0.402,1.752c0,1.159-0.349,2.048-1.047,2.668c-0.697,0.619-1.753,0.929-3.167,0.929
	c-1.211,0-2.199-0.187-2.965-0.561v-2.298c0.411,0.19,0.876,0.345,1.394,0.468s0.963,0.185,1.338,0.185
	c0.52,0,0.918-0.109,1.198-0.33c0.279-0.22,0.419-0.545,0.419-0.975c0-0.397-0.143-0.707-0.426-0.93
	c-0.284-0.222-0.715-0.333-1.291-0.333c-0.441,0-0.915,0.082-1.426,0.248l-1.029-0.511l0.391-5.477h5.916v2.334h-3.532l-0.128,1.369
	c0.369-0.071,0.631-0.11,0.787-0.117S227.613,40.554,227.745,40.554"/>
<path fill="#2E2D4B" d="M239.585,41.725c0,2.028-0.438,3.497-1.313,4.405c-0.875,0.907-2.274,1.361-4.2,1.361
	c-0.633,0-1.115-0.023-1.446-0.07V45.2c0.407,0.076,0.813,0.113,1.22,0.113c1.003,0,1.776-0.207,2.32-0.62
	c0.544-0.414,0.839-1.068,0.887-1.962h-0.085c-0.185,0.341-0.367,0.587-0.547,0.738c-0.181,0.151-0.399,0.267-0.659,0.348
	c-0.261,0.08-0.584,0.12-0.972,0.12c-0.899,0-1.602-0.3-2.107-0.9s-0.759-1.429-0.759-2.483c0-1.149,0.327-2.05,0.981-2.702
	c0.656-0.653,1.554-0.979,2.693-0.979c1.267,0,2.248,0.421,2.943,1.264C239.237,38.977,239.585,40.173,239.585,41.725
	 M235.677,39.114c-0.308,0-0.558,0.11-0.749,0.333s-0.287,0.579-0.287,1.071c0,0.388,0.083,0.696,0.248,0.926
	c0.166,0.229,0.419,0.344,0.76,0.344c0.307,0,0.574-0.11,0.801-0.333c0.228-0.223,0.341-0.489,0.341-0.802
	c0-0.421-0.105-0.783-0.315-1.085C236.264,39.266,235.998,39.114,235.677,39.114"/>
<path fill="#2E2D4B" d="M194.14,235.605c0,2.027-0.438,3.496-1.313,4.404s-2.274,1.361-4.2,1.361c-0.633,0-1.115-0.021-1.446-0.07
	v-2.221c0.407,0.076,0.813,0.113,1.22,0.113c1.003,0,1.776-0.207,2.32-0.619c0.544-0.414,0.839-1.068,0.887-1.963h-0.085
	c-0.185,0.342-0.367,0.588-0.547,0.738c-0.181,0.152-0.399,0.268-0.659,0.348c-0.261,0.08-0.584,0.121-0.972,0.121
	c-0.899,0-1.602-0.301-2.107-0.9c-0.506-0.602-0.759-1.43-0.759-2.484c0-1.148,0.327-2.049,0.981-2.701
	c0.656-0.654,1.554-0.98,2.693-0.98c1.267,0,2.248,0.422,2.943,1.264S194.14,234.052,194.14,235.605 M190.231,232.994
	c-0.308,0-0.558,0.111-0.749,0.334s-0.287,0.578-0.287,1.07c0,0.389,0.083,0.697,0.248,0.926c0.166,0.23,0.419,0.344,0.76,0.344
	c0.307,0,0.574-0.109,0.801-0.332c0.228-0.223,0.341-0.49,0.341-0.803c0-0.42-0.105-0.783-0.315-1.084
	C190.818,233.146,190.553,232.994,190.231,232.994"/>
<path fill="#2E2D4B" d="M198.147,239.109l0.1,0.162c-0.459,1.803-0.875,3.129-1.248,3.98h-1.979
	c0.137-0.652,0.275-1.385,0.415-2.195s0.235-1.461,0.287-1.947H198.147z"/>
<path fill="#2E2D4B" d="M203.815,234.433c0.596,0,1.134,0.139,1.614,0.416c0.479,0.275,0.854,0.668,1.119,1.174
	c0.269,0.506,0.402,1.09,0.402,1.752c0,1.158-0.349,2.047-1.047,2.668c-0.697,0.619-1.753,0.928-3.167,0.928
	c-1.211,0-2.199-0.186-2.965-0.561v-2.297c0.411,0.189,0.876,0.344,1.394,0.467s0.963,0.186,1.338,0.186
	c0.52,0,0.918-0.109,1.198-0.33c0.279-0.221,0.419-0.545,0.419-0.975c0-0.398-0.143-0.707-0.426-0.93
	c-0.284-0.223-0.715-0.334-1.291-0.334c-0.441,0-0.915,0.082-1.426,0.248l-1.029-0.51l0.391-5.477h5.916v2.334h-3.532l-0.128,1.369
	c0.369-0.072,0.631-0.111,0.787-0.117C203.539,234.437,203.684,234.433,203.815,234.433"/>
<path fill="#2E2D4B" d="M208.114,236.845c0-1.447,0.207-2.619,0.62-3.514c0.414-0.896,1.024-1.559,1.83-1.984
	c0.808-0.424,1.802-0.637,2.984-0.637c0.421,0,0.912,0.039,1.475,0.119v2.193c-0.473-0.09-0.985-0.135-1.539-0.135
	c-0.937,0-1.634,0.205-2.093,0.617c-0.458,0.41-0.709,1.082-0.752,2.014h0.086c0.425-0.805,1.108-1.205,2.05-1.205
	c0.922,0,1.638,0.297,2.146,0.889c0.509,0.596,0.763,1.42,0.763,2.48c0,1.139-0.321,2.039-0.965,2.699
	c-0.643,0.66-1.542,0.988-2.695,0.988c-1.225,0-2.183-0.396-2.873-1.191S208.114,238.273,208.114,236.845 M211.959,239.152
	c0.299,0,0.541-0.113,0.728-0.338s0.28-0.582,0.28-1.074c0-0.842-0.326-1.264-0.979-1.264c-0.322,0-0.583,0.109-0.784,0.326
	c-0.201,0.219-0.302,0.482-0.302,0.795c0,0.455,0.097,0.826,0.291,1.117S211.643,239.152,211.959,239.152"/>
<path fill="#2E2D4B" d="M66.76,277.195h-2.845v-5.49c0-0.668,0.014-1.277,0.042-1.83c-0.176,0.213-0.393,0.434-0.652,0.666
	l-1.178,0.973l-1.454-1.789l3.562-2.9h2.525V277.195z"/>
<path fill="#2E2D4B" d="M76.549,277.195h-7.526v-1.846l2.532-2.561c0.723-0.756,1.196-1.273,1.419-1.549
	c0.222-0.277,0.377-0.516,0.465-0.713c0.087-0.199,0.132-0.406,0.132-0.625c0-0.27-0.088-0.482-0.264-0.639
	c-0.175-0.156-0.421-0.234-0.736-0.234c-0.327,0-0.657,0.094-0.99,0.281c-0.334,0.188-0.711,0.463-1.133,0.826l-1.538-1.803
	c0.534-0.477,0.983-0.818,1.348-1.023c0.364-0.207,0.76-0.363,1.188-0.473c0.428-0.109,0.909-0.162,1.443-0.162
	c0.671,0,1.271,0.117,1.798,0.354s0.937,0.574,1.228,1.012s0.437,0.928,0.437,1.471c0,0.408-0.051,0.783-0.153,1.129
	c-0.102,0.346-0.259,0.684-0.472,1.018c-0.212,0.334-0.495,0.686-0.848,1.053c-0.352,0.369-1.103,1.07-2.252,2.1v0.072h3.923
	V277.195z"/>
<path fill="#2E2D4B" d="M80.635,275.074l0.1,0.162c-0.459,1.803-0.875,3.129-1.248,3.98h-1.979c0.137-0.652,0.274-1.385,0.415-2.195
	c0.14-0.811,0.234-1.461,0.287-1.947H80.635z"/>
<path fill="#2E2D4B" d="M85.877,266.675c1.092,0,1.942,0.219,2.551,0.658c0.607,0.441,0.911,1.064,0.911,1.873
	c0,0.549-0.143,1.029-0.429,1.443s-0.739,0.775-1.359,1.082c0.767,0.436,1.307,0.869,1.621,1.303c0.314,0.432,0.472,0.898,0.472,1.4
	c0,0.922-0.333,1.637-1,2.143s-1.599,0.758-2.795,0.758c-1.22,0-2.154-0.246-2.802-0.74s-0.972-1.205-0.972-2.133
	c0-0.6,0.144-1.111,0.433-1.535c0.288-0.424,0.773-0.807,1.454-1.152c-0.549-0.369-0.95-0.766-1.202-1.188
	c-0.253-0.424-0.38-0.889-0.38-1.395c0-0.795,0.31-1.412,0.93-1.855C83.928,266.896,84.785,266.675,85.877,266.675 M84.643,274.349
	c0,0.295,0.104,0.529,0.313,0.707s0.497,0.266,0.865,0.266c0.833,0,1.249-0.305,1.249-0.916c0-0.23-0.092-0.459-0.273-0.684
	s-0.507-0.477-0.976-0.756c-0.421,0.223-0.723,0.445-0.904,0.67S84.643,274.099,84.643,274.349 M85.863,268.697
	c-0.241,0-0.444,0.068-0.61,0.209c-0.165,0.139-0.248,0.32-0.248,0.543c0,0.406,0.276,0.766,0.83,1.078
	c0.336-0.195,0.564-0.371,0.688-0.533c0.123-0.16,0.185-0.342,0.185-0.545c0-0.229-0.083-0.41-0.248-0.547
	C86.293,268.765,86.094,268.697,85.863,268.697"/>
<path fill="#2E2D4B" d="M94.39,266.675c1.093,0,1.942,0.219,2.55,0.658c0.608,0.441,0.912,1.064,0.912,1.873
	c0,0.549-0.143,1.029-0.429,1.443s-0.739,0.775-1.358,1.082c0.766,0.436,1.306,0.869,1.62,1.303c0.314,0.432,0.472,0.898,0.472,1.4
	c0,0.922-0.333,1.637-1,2.143s-1.599,0.758-2.795,0.758c-1.22,0-2.154-0.246-2.802-0.74s-0.972-1.205-0.972-2.133
	c0-0.6,0.145-1.111,0.433-1.535s0.773-0.807,1.454-1.152c-0.549-0.369-0.949-0.766-1.203-1.188
	c-0.252-0.424-0.379-0.889-0.379-1.395c0-0.795,0.31-1.412,0.93-1.855C92.441,266.896,93.298,266.675,94.39,266.675 M93.155,274.349
	c0,0.295,0.104,0.529,0.313,0.707s0.497,0.266,0.865,0.266c0.833,0,1.249-0.305,1.249-0.916c0-0.23-0.092-0.459-0.273-0.684
	s-0.507-0.477-0.976-0.756c-0.421,0.223-0.724,0.445-0.904,0.67C93.247,273.861,93.155,274.099,93.155,274.349 M94.376,268.697
	c-0.241,0-0.444,0.068-0.61,0.209c-0.165,0.139-0.248,0.32-0.248,0.543c0,0.406,0.276,0.766,0.83,1.078
	c0.336-0.195,0.564-0.371,0.688-0.533c0.123-0.16,0.185-0.342,0.185-0.545c0-0.229-0.083-0.41-0.248-0.547
	C94.806,268.765,94.607,268.697,94.376,268.697"/>
<path fill="#E9F1D9" d="M221.541,382.175c0,0.811,1.125-22.189,1.125-22.189"/>
<path fill="#FFFFFF" d="M236.655,109.562h-11.131V98.431h11.131V109.562z M236.93,98.156h-11.681v11.679h11.681V98.156z"/>
<rect x="237.066" y="98.293" fill="#CFE9EF" width="11.405" height="11.405"/>
<path fill="#FFFFFF" d="M248.334,109.562h-11.131V98.431h11.131V109.562z M248.608,98.156H236.93v11.679h11.679V98.156z"/>
<rect x="248.744" y="98.293" fill="#CFE9EF" width="11.405" height="11.405"/>
<path fill="#FFFFFF" d="M260.013,109.562h-11.132V98.431h11.132V109.562z M260.286,98.156h-11.679v11.679h11.679V98.156z"/>
<rect x="260.48" y="98.293" fill="#CFE9EF" width="11.405" height="11.405"/>
<path fill="#FFFFFF" d="M271.748,109.562h-11.131V98.431h11.131V109.562z M272.022,98.156h-11.68v11.679h11.68V98.156z"/>
<rect x="272.159" y="98.293" fill="#CFE9EF" width="11.405" height="11.405"/>
<path fill="#FFFFFF" d="M283.428,109.562h-11.132V98.431h11.132V109.562z M283.701,98.156h-11.679v11.679h11.679V98.156z"/>
<path fill="#FFFFFF" d="M295.106,109.562h-11.131V98.431h11.131V109.562z M295.379,98.156h-11.68v11.679h11.68V98.156z"/>
<path fill="#FFFFFF" d="M236.655,121.24h-11.131v-11.131h11.131V121.24z M236.93,109.835h-11.681v11.681h11.681V109.835z"/>
<rect x="237.066" y="109.972" fill="#CFE9EF" width="11.405" height="11.403"/>
<path fill="#FFFFFF" d="M248.334,121.24h-11.131v-11.131h11.131V121.24z M248.608,109.835H236.93v11.681h11.679V109.835z"/>
<rect x="248.744" y="109.972" fill="#CFE9EF" width="11.405" height="11.403"/>
<path fill="#FFFFFF" d="M260.013,121.24h-11.132v-11.131h11.132V121.24z M260.286,109.835h-11.679v11.681h11.679V109.835z"/>
<rect x="260.48" y="109.972" fill="#CFE9EF" width="11.405" height="11.403"/>
<path fill="#FFFFFF" d="M271.748,121.24h-11.131v-11.131h11.131V121.24z M272.022,109.835h-11.68v11.681h11.68V109.835z"/>
<rect x="272.159" y="109.972" fill="#CFE9EF" width="11.405" height="11.403"/>
<path fill="#FFFFFF" d="M283.428,121.24h-11.132v-11.131h11.132V121.24z M283.701,109.835h-11.679v11.681h11.679V109.835z"/>
<path fill="#FFFFFF" d="M295.106,121.24h-11.131v-11.131h11.131V121.24z M295.379,109.835h-11.68v11.681h11.68V109.835z"/>
<rect x="237.066" y="121.64" fill="#CFE9EF" width="11.405" height="11.402"/>
<path fill="#FFFFFF" d="M248.334,132.907h-11.131v-11.131h11.131V132.907z M248.608,121.502H236.93v11.681h11.679V121.502z"/>
<rect x="248.744" y="121.64" fill="#CFE9EF" width="11.405" height="11.402"/>
<path fill="#FFFFFF" d="M260.013,132.907h-11.132v-11.131h11.132V132.907z M260.286,121.502h-11.679v11.681h11.679V121.502z"/>
<rect x="260.48" y="121.64" fill="#CFE9EF" width="11.405" height="11.402"/>
<path fill="#FFFFFF" d="M271.748,132.907h-11.131v-11.131h11.131V132.907z M272.022,121.502h-11.68v11.681h11.68V121.502z"/>
<rect x="272.159" y="121.64" fill="#CFE9EF" width="11.405" height="11.402"/>
<path fill="#FFFFFF" d="M283.428,132.907h-11.132v-11.131h11.132V132.907z M283.701,121.502h-11.679v11.681h11.679V121.502z"/>
<rect x="283.836" y="121.64" fill="#CFE9EF" width="11.405" height="11.402"/>
<path fill="#FFFFFF" d="M295.106,132.907h-11.131v-11.131h11.131V132.907z M295.379,121.502h-11.68v11.681h11.68V121.502z"/>
<path fill="#FFFFFF" d="M236.655,144.586h-11.131v-11.131h11.131V144.586z M236.93,133.182h-11.681v11.679h11.681V133.182z"/>
<path fill="#FFFFFF" d="M248.334,144.586h-11.131v-11.131h11.131V144.586z M236.93,144.86h11.679v-11.679H236.93"/>
<rect x="248.744" y="133.317" fill="#CFE9EF" width="11.405" height="11.405"/>
<path fill="#FFFFFF" d="M260.013,144.586h-11.132v-11.131h11.132V144.586z M260.286,133.182h-11.679v11.679h11.679V133.182z"/>
<rect x="260.48" y="133.317" fill="#CFE9EF" width="11.405" height="11.405"/>
<path fill="#FFFFFF" d="M271.748,144.586h-11.131v-11.131h11.131V144.586z M272.022,133.182h-11.68v11.679h11.68V133.182z"/>
<rect x="272.159" y="133.317" fill="#CFE9EF" width="11.405" height="11.405"/>
<path fill="#FFFFFF" d="M283.428,144.586h-11.132v-11.131h11.132V144.586z M283.701,133.182h-11.679v11.679h11.679V133.182z"/>
<rect x="283.836" y="133.317" fill="#CFE9EF" width="6.977" height="7.7"/>
<path fill="#FFFFFF" d="M291.49,141.206h-7.603v-7.832h7.603V141.206z M291.677,133.182h-7.978v8.217h7.978V133.182z"/>
<path fill="#FFFFFF" d="M236.655,155.638h-11.131v-10.573h11.131V155.638z M236.93,144.79h-11.681v11.121h11.681V144.79z"/>
<rect x="248.744" y="144.928" fill="#CFE9EF" width="11.405" height="10.847"/>
<path fill="#FFFFFF" d="M260.013,155.638h-11.132v-10.573h11.132V155.638z M260.286,144.79h-11.679v11.121h11.679V144.79z"/>
<rect x="260.48" y="144.928" fill="#CFE9EF" width="11.132" height="6.26"/>
<path fill="#FFFFFF" d="M271.748,155.638h-11.131v-10.573h11.131V155.638z M272.022,144.79h-11.68v11.121h11.68V144.79z"/>
<path fill="#FFFFFF" d="M283.428,155.638h-11.132v-10.573h11.132V155.638z M283.701,144.79h-11.679v11.121h11.679V144.79z"/>
<g>
	<defs>
		<rect id="SVGID_1_" x="171.664" y="310.111" width="51" height="49.875"/>
	</defs>
	<clipPath id="SVGID_2_">
		<use xlink:href="#SVGID_1_"  overflow="visible"/>
	</clipPath>
	<rect x="170.259" y="310.236" clip-path="url(#SVGID_2_)" fill="#CFE9EF" width="10.417" height="10.418"/>
	<path clip-path="url(#SVGID_2_)" fill="#FFFFFF" d="M180.551,320.527h-10.167v-10.166h10.167V320.527z M180.801,310.111h-10.667
		v10.668h10.667V310.111z"/>
	<rect x="180.926" y="310.236" clip-path="url(#SVGID_2_)" fill="#CFE9EF" width="10.417" height="10.418"/>
	<path clip-path="url(#SVGID_2_)" fill="#FFFFFF" d="M191.217,320.527H181.05v-10.166h10.167V320.527z M191.467,310.111H180.8
		v10.668h10.667V310.111z"/>
	<rect x="191.592" y="310.236" clip-path="url(#SVGID_2_)" fill="#CFE9EF" width="10.417" height="10.418"/>
	<path clip-path="url(#SVGID_2_)" fill="#FFFFFF" d="M201.884,320.527h-10.167v-10.166h10.167V320.527z M202.134,310.111h-10.667
		v10.668h10.667V310.111z"/>
	<rect x="202.312" y="310.236" clip-path="url(#SVGID_2_)" fill="#CFE9EF" width="10.417" height="10.418"/>
	<path clip-path="url(#SVGID_2_)" fill="#FFFFFF" d="M212.604,320.527h-10.167v-10.166h10.167V320.527z M212.854,310.111h-10.667
		v10.668h10.667V310.111z"/>
	<rect x="212.979" y="310.236" clip-path="url(#SVGID_2_)" fill="#CFE9EF" width="10.417" height="10.418"/>
	<path clip-path="url(#SVGID_2_)" fill="#FFFFFF" d="M223.27,320.527h-10.167v-10.166h10.167V320.527z M223.52,310.111h-10.667
		v10.668h10.667V310.111z"/>
	<rect x="223.645" y="310.236" clip-path="url(#SVGID_2_)" fill="#CFE9EF" width="10.417" height="10.418"/>
	<path clip-path="url(#SVGID_2_)" fill="#FFFFFF" d="M233.937,320.527H223.77v-10.166h10.167V320.527z M234.187,310.111H223.52
		v10.668h10.667V310.111z"/>
	<rect x="170.259" y="320.902" clip-path="url(#SVGID_2_)" fill="#CFE9EF" width="10.417" height="10.418"/>
	<path clip-path="url(#SVGID_2_)" fill="#FFFFFF" d="M180.551,331.195h-10.167v-10.168h10.167V331.195z M180.801,320.777h-10.667
		v10.668h10.667V320.777z"/>
	<rect x="180.926" y="320.902" clip-path="url(#SVGID_2_)" fill="#CFE9EF" width="10.417" height="10.418"/>
	<path clip-path="url(#SVGID_2_)" fill="#FFFFFF" d="M191.217,331.195H181.05v-10.168h10.167V331.195z M191.467,320.777H180.8
		v10.668h10.667V320.777z"/>
	<rect x="191.592" y="320.902" clip-path="url(#SVGID_2_)" fill="#CFE9EF" width="10.417" height="10.418"/>
	<path clip-path="url(#SVGID_2_)" fill="#FFFFFF" d="M201.884,331.195h-10.167v-10.168h10.167V331.195z M202.134,320.777h-10.667
		v10.668h10.667V320.777z"/>
	<rect x="202.312" y="320.902" clip-path="url(#SVGID_2_)" fill="#CFE9EF" width="10.417" height="10.418"/>
	<path clip-path="url(#SVGID_2_)" fill="#FFFFFF" d="M212.604,331.195h-10.167v-10.168h10.167V331.195z M212.854,320.777h-10.667
		v10.668h10.667V320.777z"/>
	<rect x="212.979" y="320.902" clip-path="url(#SVGID_2_)" fill="#CFE9EF" width="10.417" height="10.418"/>
	<path clip-path="url(#SVGID_2_)" fill="#FFFFFF" d="M223.27,331.195h-10.167v-10.168h10.167V331.195z M223.52,320.777h-10.667
		v10.668h10.667V320.777z"/>
	<rect x="223.645" y="320.902" clip-path="url(#SVGID_2_)" fill="#CFE9EF" width="10.417" height="10.418"/>
	<path clip-path="url(#SVGID_2_)" fill="#FFFFFF" d="M233.937,331.195H223.77v-10.168h10.167V331.195z M234.187,320.777H223.52
		v10.668h10.667V320.777z"/>
	<rect x="170.259" y="331.56" clip-path="url(#SVGID_2_)" fill="#CFE9EF" width="10.417" height="10.416"/>
	<path clip-path="url(#SVGID_2_)" fill="#FFFFFF" d="M180.551,341.851h-10.167v-10.168h10.167V341.851z M180.801,331.435h-10.667
		v10.666h10.667V331.435z"/>
	<rect x="180.926" y="331.56" clip-path="url(#SVGID_2_)" fill="#CFE9EF" width="10.417" height="10.416"/>
	<path clip-path="url(#SVGID_2_)" fill="#FFFFFF" d="M191.217,341.851H181.05v-10.168h10.167V341.851z M191.467,331.435H180.8
		v10.666h10.667V331.435z"/>
	<rect x="191.592" y="331.56" clip-path="url(#SVGID_2_)" fill="#CFE9EF" width="10.417" height="10.416"/>
	<path clip-path="url(#SVGID_2_)" fill="#FFFFFF" d="M201.884,341.851h-10.167v-10.168h10.167V341.851z M202.134,331.435h-10.667
		v10.666h10.667V331.435z"/>
	<rect x="202.312" y="331.56" clip-path="url(#SVGID_2_)" fill="#CFE9EF" width="10.417" height="10.416"/>
	<path clip-path="url(#SVGID_2_)" fill="#FFFFFF" d="M212.604,341.851h-10.167v-10.168h10.167V341.851z M212.854,331.435h-10.667
		v10.666h10.667V331.435z"/>
	<rect x="212.979" y="331.56" clip-path="url(#SVGID_2_)" fill="#CFE9EF" width="10.417" height="10.416"/>
	<path clip-path="url(#SVGID_2_)" fill="#FFFFFF" d="M223.27,341.851h-10.167v-10.168h10.167V341.851z M223.52,331.435h-10.667
		v10.666h10.667V331.435z"/>
	<rect x="223.645" y="331.56" clip-path="url(#SVGID_2_)" fill="#CFE9EF" width="10.417" height="10.416"/>
	<path clip-path="url(#SVGID_2_)" fill="#FFFFFF" d="M233.937,341.851H223.77v-10.168h10.167V341.851z M234.187,331.435H223.52
		v10.666h10.667V331.435z"/>
	<rect x="170.259" y="342.226" clip-path="url(#SVGID_2_)" fill="#CFE9EF" width="10.417" height="10.416"/>
	<path clip-path="url(#SVGID_2_)" fill="#FFFFFF" d="M180.551,352.517h-10.167v-10.166h10.167V352.517z M180.801,342.101h-10.667
		v10.666h10.667V342.101z"/>
	<rect x="180.926" y="342.226" clip-path="url(#SVGID_2_)" fill="#CFE9EF" width="10.417" height="10.416"/>
	<path clip-path="url(#SVGID_2_)" fill="#FFFFFF" d="M191.217,352.517H181.05v-10.166h10.167V352.517z M191.467,342.101H180.8
		v10.666h10.667V342.101z"/>
	<rect x="191.592" y="342.226" clip-path="url(#SVGID_2_)" fill="#CFE9EF" width="10.417" height="10.416"/>
	<path clip-path="url(#SVGID_2_)" fill="#FFFFFF" d="M201.884,352.517h-10.167v-10.166h10.167V352.517z M202.134,342.101h-10.667
		v10.666h10.667V342.101z"/>
	<rect x="202.312" y="342.226" clip-path="url(#SVGID_2_)" fill="#CFE9EF" width="10.417" height="10.416"/>
	<path clip-path="url(#SVGID_2_)" fill="#FFFFFF" d="M212.604,352.517h-10.167v-10.166h10.167V352.517z M212.854,342.101h-10.667
		v10.666h10.667V342.101z"/>
	<rect x="212.979" y="342.226" clip-path="url(#SVGID_2_)" fill="#CFE9EF" width="10.417" height="10.416"/>
	<path clip-path="url(#SVGID_2_)" fill="#FFFFFF" d="M223.27,352.517h-10.167v-10.166h10.167V352.517z M223.52,342.101h-10.667
		v10.666h10.667V342.101z"/>
	<rect x="223.645" y="342.226" clip-path="url(#SVGID_2_)" fill="#CFE9EF" width="10.417" height="10.416"/>
	<path clip-path="url(#SVGID_2_)" fill="#FFFFFF" d="M233.937,352.517H223.77v-10.166h10.167V352.517z M234.187,342.101H223.52
		v10.666h10.667V342.101z"/>
	<rect x="170.259" y="352.828" clip-path="url(#SVGID_2_)" fill="#CFE9EF" width="10.417" height="9.908"/>
	<path clip-path="url(#SVGID_2_)" fill="#FFFFFF" d="M180.551,362.611h-10.167v-9.656h10.167V362.611z M180.801,352.705h-10.667
		v10.156h10.667V352.705z"/>
	<rect x="180.926" y="352.828" clip-path="url(#SVGID_2_)" fill="#CFE9EF" width="10.417" height="9.908"/>
	<path clip-path="url(#SVGID_2_)" fill="#FFFFFF" d="M191.217,362.611H181.05v-9.656h10.167V362.611z M191.467,352.705H180.8v10.156
		h10.667V352.705z"/>
	<rect x="191.592" y="352.828" clip-path="url(#SVGID_2_)" fill="#CFE9EF" width="10.417" height="9.908"/>
	<path clip-path="url(#SVGID_2_)" fill="#FFFFFF" d="M201.884,362.611h-10.167v-9.656h10.167V362.611z M202.134,352.705h-10.667
		v10.156h10.667V352.705z"/>
	<rect x="202.312" y="352.828" clip-path="url(#SVGID_2_)" fill="#CFE9EF" width="10.417" height="9.908"/>
	<path clip-path="url(#SVGID_2_)" fill="#FFFFFF" d="M212.604,362.611h-10.167v-9.656h10.167V362.611z M212.854,352.705h-10.667
		v10.156h10.667V352.705z"/>
	<rect x="212.979" y="352.828" clip-path="url(#SVGID_2_)" fill="#CFE9EF" width="10.417" height="9.908"/>
	<path clip-path="url(#SVGID_2_)" fill="#FFFFFF" d="M223.27,362.611h-10.167v-9.656h10.167V362.611z M223.52,352.705h-10.667
		v10.156h10.667V352.705z"/>
	<rect x="223.645" y="352.828" clip-path="url(#SVGID_2_)" fill="#CFE9EF" width="10.417" height="9.908"/>
	<path clip-path="url(#SVGID_2_)" fill="#FFFFFF" d="M233.937,362.611H223.77v-9.656h10.167V362.611z M234.187,352.705H223.52
		v10.156h10.667V352.705z"/>
</g>
<polyline fill="#2E2D4B" points="40.832,363.945 40.832,332.152 57.165,332.152 57.165,363.945 "/>
<rect x="0.082" y="236.654" fill="#2E2D4B" width="16.333" height="37.957"/>
<rect x="40.832" y="107.611" fill="#2E2D4B" width="16.333" height="44.177"/>
<rect x="0.082" y="143.653" fill="#2E2D4B" width="16.333" height="37.958"/>
<rect x="40.832" y="258.611" fill="#2E2D4B" width="16.333" height="32.541"/>
<rect x="0.082" y="258.611" fill="#2E2D4B" width="45.75" height="16.271"/>
<rect x="0.082" y="143.652" fill="#2E2D4B" width="57.083" height="16.271"/>
<rect x="143.04" y="258.972" fill="#2E2D4B" width="23.75" height="6.529"/>
<polyline fill="#2E2D4B" points="218.165,363.945 218.165,280.32 224.915,280.32 224.915,363.945 "/>
<rect x="218.165" y="176.329" fill="#2E2D4B" width="6.75" height="76.573"/>
<rect x="213.402" y="151.702" transform="matrix(-0.8673 0.4978 -0.4978 -0.8673 566.3309 159.1618)" fill="#2E2D4B" width="97.092" height="6.749"/>
<rect x="219.787" y="93.989" transform="matrix(-0.8673 0.4978 -0.4978 -0.8673 507.3685 56.3654)" fill="#2E2D4B" width="52.767" height="3.658"/>
<rect x="87.172" y="37.315" transform="matrix(-0.8673 0.4978 -0.4978 -0.8673 329.1364 2.5958)" fill="#2E2D4B" width="154.1" height="15.717"/>
<rect x="40.78" y="91.571" transform="matrix(-0.8673 0.4978 -0.4978 -0.8673 181.4287 150.4881)" fill="#2E2D4B" width="59.747" height="15.718"/>
<rect x="41.79" y="357.195" fill="#2E2D4B" width="183.125" height="6.75"/>
<rect x="52.332" y="156.298" fill="#2E2D4B" width="134.833" height="3.625"/>
<rect x="52.332" y="258.611" fill="#2E2D4B" width="115.833" height="3.625"/>
<rect x="164.957" y="251.236" fill="#2E2D4B" width="3.208" height="23.166"/>
<rect x="183.957" y="156.658" fill="#2E2D4B" width="3.208" height="64.703"/>
<rect x="164.957" y="219.361" fill="#2E2D4B" width="3.208" height="7.5"/>
<rect x="184.782" y="151.957" transform="matrix(0.8699 -0.4933 0.4933 0.8699 -50.5823 115.383)" fill="#2E2D4B" width="17.229" height="3.209"/>
<rect x="221.21" y="131.001" transform="matrix(0.8699 -0.4933 0.4933 0.8699 -35.5044 130.6257)" fill="#2E2D4B" width="17.229" height="3.209"/>
<rect x="247.133" y="153.472" transform="matrix(0.4933 0.8699 -0.8699 0.4933 262.3452 -140.1987)" fill="#2E2D4B" width="8.749" height="3.208"/>
<rect x="164.957" y="218.154" fill="#2E2D4B" width="21.146" height="3.207"/>
<rect x="164.957" y="299.736" fill="#2E2D4B" width="3.208" height="13.584"/>
<rect x="154.291" y="341.654" fill="#2E2D4B" width="3.209" height="16.332"/>
<rect x="164.957" y="310.111" fill="#2E2D4B" width="27.208" height="3.209"/>
<rect x="154.562" y="341.654" fill="#2E2D4B" width="18.521" height="3.207"/>
<rect x="154.562" y="348.216" fill="#2E2D4B" width="18.521" height="3.205"/>
<rect x="164.974" y="341.652" fill="#2E2D4B" width="2.188" height="9.26"/>
<rect x="214.498" y="310.111" fill="#2E2D4B" width="9.667" height="3.209"/>
<rect x="170.541" y="312.152" fill="#2E2D4B" width="3.209" height="46.668"/>
<rect x="196.584" y="71.373" transform="matrix(0.5072 0.8618 -0.8618 0.5072 195.9546 -193.45)" fill="#2E2D4B" width="141.103" height="6.5"/>
<polyline fill="#2E2D4B" points="222.669,107.841 225.247,106.323 240.316,131.93 237.738,133.447 "/>
<rect x="289.978" y="128.091" transform="matrix(0.8717 -0.49 0.49 0.8717 -27.4363 159.6956)" fill="#2E2D4B" width="2.625" height="8.317"/>
<rect x="291.064" y="124.201" transform="matrix(0.49 0.8717 -0.8717 0.49 261.0071 -189.408)" fill="#2E2D4B" width="2.625" height="8.317"/>
<rect x="40.75" y="291.152" fill="#A5D5E7" width="16.5" height="41"/>
<rect x="46.433" y="291.152" fill="#62AAC3" width="5.133" height="41"/>
<rect y="181.611" fill="#A5D5E7" width="16.416" height="55.042"/>
<rect x="5.653" y="181.611" fill="#62AAC3" width="5.107" height="55.042"/>
<rect x="167.16" y="344.861" fill="#D7D8D5" width="3.38" height="3.355"/>
<rect x="157.498" y="344.861" fill="#D7D8D5" width="7.476" height="3.355"/>
<rect x="157.498" y="351.423" fill="#D7D8D5" width="13.042" height="5.771"/>
<polygon fill="#D7D8D5" points="295.006,128.388 291.677,130.259 293.342,133.22 296.646,131.268 "/>
<rect x="192.165" y="311.07" fill="#E3004F" width="3.125" height="2.25"/>
<rect x="200.395" y="291.209" transform="matrix(-0.7069 -0.7073 0.7073 -0.7069 129.432 660.2617)" fill="#E3004F" width="2.25" height="24.209"/>
<rect x="222.665" y="277.195" fill="#E3004F" width="2.25" height="3.125"/>
<rect x="213.784" y="258.859" transform="matrix(-0.7071 0.7071 -0.7071 -0.7071 558.4736 310.6013)" fill="#E3004F" width="2.251" height="24.21"/>
<rect x="165.04" y="274.402" fill="#E3004F" width="3.125" height="2.25"/>
<rect x="157.686" y="272.305" transform="matrix(0.7069 0.7073 -0.7073 0.7069 247.7188 -28.9674)" fill="#E3004F" width="2.25" height="24.21"/>
<rect x="165.04" y="248.986" fill="#E3004F" width="3.125" height="2.25"/>
<rect x="157.686" y="229.125" transform="matrix(0.7069 -0.7073 0.7073 0.7069 -124.0779 183.0375)" fill="#E3004F" width="2.25" height="24.209"/>
<rect x="247.674" y="149.05" transform="matrix(-0.6328 -0.7743 0.7743 -0.6328 289.6219 438.5698)" fill="#E3004F" width="2.25" height="3.127"/>
<rect x="236.02" y="136.565" transform="matrix(0.0998 -0.995 0.995 0.0998 65.5397 369.7846)" fill="#E3004F" width="2.25" height="24.209"/>
<rect x="132.896" y="340.064" fill="#B2D3DC" width="21.387" height="17.105"/>
<path fill="#FFFFFF" d="M137.215,354.267h6.103h0.772h8.604v-0.492h-7.052c0.311-0.217,0.57-0.5,0.769-0.824h6.283v-0.492h-6.047
	c0.094-0.26,0.152-0.535,0.162-0.824h5.885v-0.49h-5.875v-0.824h5.875v-0.492h-5.875v-0.824h5.875v-0.492h-5.875v-0.824h5.875v-0.49
	h-5.875v-0.826h5.875v-0.49h-5.875v-0.824h5.875v-0.492h-5.885c-0.01-0.289-0.068-0.564-0.162-0.824h6.047v-0.492h-6.283
	c-0.198-0.322-0.458-0.605-0.769-0.822h7.052v-0.492h-8.604h-0.772h-6.103c-1.501,0-2.729,1.229-2.729,2.729v6.875
	C134.486,353.037,135.714,354.267,137.215,354.267"/>
<path fill="#62A9C4" d="M138.616,357.171h4.333v-2.904h-1.666v-2.842c0-0.156-0.127-0.281-0.282-0.281h-0.437
	c-0.155,0-0.281,0.125-0.281,0.281v2.842h-1.667V357.171z"/>
<path fill="#FFFFFF" d="M141.385,355.716c0-0.268,0.217-0.484,0.482-0.484c0.27,0,0.486,0.217,0.486,0.484s-0.217,0.484-0.486,0.484
	C141.602,356.201,141.385,355.984,141.385,355.716"/>
<path fill="#FFFFFF" d="M139.213,355.716c0-0.268,0.217-0.484,0.482-0.484c0.27,0,0.486,0.217,0.486,0.484s-0.217,0.484-0.486,0.484
	C139.43,356.201,139.213,355.984,139.213,355.716"/>
<rect x="112.396" y="354.289" fill="#B2D3DC" width="15.25" height="2.906"/>
<rect x="112.396" y="340.087" fill="#62A9C4" width="15.25" height="14.201"/>
<rect x="113.896" y="338.5" fill="#62A9C4" width="12.25" height="0.928"/>
<path fill="#FFFFFF" d="M116.688,348.414c1.327,0,2.406,1.078,2.406,2.404c0,1.328-1.079,2.406-2.406,2.406
	c-1.326,0-2.405-1.078-2.405-2.406C114.282,349.492,115.361,348.414,116.688,348.414 M116.688,352.474
	c0.913,0,1.656-0.742,1.656-1.656c0-0.912-0.743-1.656-1.656-1.656s-1.655,0.744-1.655,1.656
	C115.032,351.732,115.774,352.474,116.688,352.474"/>
<path fill="#FFFFFF" d="M116.688,349.568c0.689,0,1.25,0.561,1.25,1.25s-0.561,1.25-1.25,1.25c-0.688,0-1.25-0.561-1.25-1.25
	S115.999,349.568,116.688,349.568 M116.688,351.318c0.275,0,0.5-0.223,0.5-0.5c0-0.275-0.225-0.5-0.5-0.5s-0.5,0.225-0.5,0.5
	C116.188,351.095,116.412,351.318,116.688,351.318"/>
<path fill="#FFFFFF" d="M116.688,342.839c0.908,0,1.646,0.738,1.646,1.645c0,0.91-0.738,1.646-1.646,1.646
	c-0.907,0-1.646-0.736-1.646-1.646C115.041,343.578,115.78,342.839,116.688,342.839 M116.688,345.38c0.494,0,0.896-0.4,0.896-0.896
	c0-0.492-0.402-0.895-0.896-0.895s-0.896,0.402-0.896,0.895C115.791,344.98,116.193,345.38,116.688,345.38"/>
<path fill="#FFFFFF" d="M116.688,341.152c1.838,0,3.334,1.496,3.334,3.334c0,1.836-1.496,3.332-3.334,3.332
	s-3.333-1.496-3.333-3.332C113.354,342.648,114.85,341.152,116.688,341.152 M116.688,347.068c1.425,0,2.584-1.158,2.584-2.582
	c0-1.426-1.159-2.584-2.584-2.584c-1.424,0-2.583,1.158-2.583,2.584C114.104,345.91,115.264,347.068,116.688,347.068"/>
<path fill="#FFFFFF" d="M123.355,345.964c-1.327,0-2.406-1.08-2.406-2.406s1.079-2.406,2.406-2.406c1.326,0,2.405,1.08,2.405,2.406
	S124.682,345.964,123.355,345.964 M123.355,341.902c-0.913,0-1.656,0.744-1.656,1.656c0,0.914,0.743,1.656,1.656,1.656
	s1.655-0.742,1.655-1.656C125.011,342.646,124.269,341.902,123.355,341.902"/>
<path fill="#FFFFFF" d="M123.355,344.808c-0.688,0-1.25-0.563-1.25-1.25c0-0.689,0.562-1.25,1.25-1.25c0.689,0,1.25,0.561,1.25,1.25
	C124.605,344.246,124.045,344.808,123.355,344.808 M123.355,343.058c-0.275,0-0.5,0.223-0.5,0.5c0,0.275,0.225,0.5,0.5,0.5
	s0.5-0.225,0.5-0.5C123.855,343.281,123.631,343.058,123.355,343.058"/>
<path fill="#FFFFFF" d="M123.355,351.537c-0.908,0-1.646-0.738-1.646-1.645c0-0.908,0.738-1.646,1.646-1.646
	c0.907,0,1.646,0.738,1.646,1.646C125.002,350.798,124.263,351.537,123.355,351.537 M123.355,348.996
	c-0.494,0-0.896,0.402-0.896,0.896s0.402,0.895,0.896,0.895s0.896-0.4,0.896-0.895S123.85,348.996,123.355,348.996"/>
<path fill="#FFFFFF" d="M123.355,353.224c-1.838,0-3.334-1.496-3.334-3.332c0-1.838,1.496-3.334,3.334-3.334
	s3.333,1.496,3.333,3.334C126.688,351.728,125.193,353.224,123.355,353.224 M123.355,347.308c-1.425,0-2.584,1.16-2.584,2.584
	s1.159,2.582,2.584,2.582c1.424,0,2.583-1.158,2.583-2.582S124.779,347.308,123.355,347.308"/>
<rect x="121.791" y="339.427" fill="#B2D3DC" width="1.481" height="0.658"/>
<rect x="116.771" y="339.427" fill="#B2D3DC" width="1.479" height="0.658"/>
<rect x="83.551" y="340.087" fill="#B2D3DC" width="16.937" height="17.107"/>
<path fill="#62A9C4" d="M100.483,339.615c-0.017-0.615-0.398-1.115-0.87-1.115H84.426c-0.472,0-0.854,0.5-0.869,1.115H100.483z"/>
<rect x="100.483" y="340.087" fill="#CFE9EF" width="11.913" height="17.107"/>
<rect x="57.165" y="340.087" fill="#CFE9EF" width="26.386" height="17.107"/>
<rect x="127.646" y="340.087" fill="#CFE9EF" width="5.25" height="17.107"/>
<path fill="#62A9C4" d="M215.682,357.171V351.4v-1.322v-0.844c0-1.982-1.622-3.605-3.604-3.605h-7.125
	c-1.983,0-3.604,1.623-3.604,3.605v0.844v1.322v5.771H215.682z"/>
<path fill="#FFFFFF" d="M204.941,346.503h7.146c1.529,0,2.78,1.252,2.78,2.781v1.834c0,1.531-1.251,2.781-2.78,2.781h-7.146
	c-1.53,0-2.781-1.25-2.781-2.781v-1.834C202.16,347.755,203.411,346.503,204.941,346.503"/>
<path fill="#62A9C4" d="M209.724,350.261h-0.364c-0.072,0.334-0.326,0.588-0.66,0.66v0.365
	C209.228,351.207,209.644,350.791,209.724,350.261"/>
<path fill="#62A9C4" d="M208.991,350.261h-0.293v0.293C208.833,350.501,208.939,350.396,208.991,350.261"/>
<path fill="#62A9C4" d="M209.359,349.894h0.364c-0.08-0.531-0.496-0.945-1.024-1.025v0.363
	C209.033,349.306,209.286,349.56,209.359,349.894"/>
<path fill="#62A9C4" d="M208.699,349.601v0.293h0.293C208.939,349.759,208.834,349.652,208.699,349.601"/>
<path fill="#62A9C4" d="M208.33,350.554v-0.293h-0.293C208.089,350.396,208.195,350.501,208.33,350.554"/>
<path fill="#62A9C4" d="M208.037,349.894h0.293v-0.293C208.195,349.652,208.09,349.759,208.037,349.894"/>
<path fill="#62A9C4" d="M208.33,351.287v-0.365c-0.334-0.072-0.587-0.326-0.661-0.66h-0.363
	C207.386,350.791,207.801,351.207,208.33,351.287"/>
<path fill="#62A9C4" d="M208.33,349.232v-0.363c-0.53,0.08-0.944,0.496-1.024,1.025h0.363
	C207.743,349.56,207.996,349.306,208.33,349.232"/>
<path fill="#62A9C4" d="M183.437,323.56h2.375c2.475,0,4.5,2.025,4.5,4.5v4.625c0,2.475-2.025,4.5-4.5,4.5h-2.375
	c-2.476,0-4.5-2.025-4.5-4.5v-4.625C178.937,325.585,180.961,323.56,183.437,323.56"/>
<path fill="#FFFFFF" d="M183.826,324.634h1.596c2.156,0,3.911,1.754,3.911,3.908v5.232c0,2.156-1.755,3.91-3.911,3.91h-1.596
	c-2.156,0-3.91-1.754-3.91-3.91v-5.232C179.916,326.388,181.67,324.634,183.826,324.634 M185.422,336.685
	c1.604,0,2.911-1.307,2.911-2.91v-5.232c0-1.604-1.308-2.908-2.911-2.908h-1.596c-1.605,0-2.91,1.305-2.91,2.908v5.232
	c0,1.604,1.305,2.91,2.91,2.91H185.422z"/>
<path fill="#62A9C4" d="M179.374,336.882h10.5c0.619,0,1.125,0.506,1.125,1.125v4.5c0,0.619-0.506,1.125-1.125,1.125h-10.5
	c-0.619,0-1.125-0.506-1.125-1.125v-4.5C178.249,337.388,178.755,336.882,179.374,336.882"/>
<path fill="#62A9C4" d="M182.874,335.142h3.5c0.269,0,0.49,0.221,0.49,0.49v2.5c0,0.27-0.222,0.488-0.49,0.488h-3.5
	c-0.271,0-0.49-0.219-0.49-0.488v-2.5C182.384,335.363,182.604,335.142,182.874,335.142"/>
<path fill="#FFFFFF" d="M183.678,340.257c0-0.523,0.424-0.945,0.946-0.945s0.946,0.422,0.946,0.945s-0.424,0.945-0.946,0.945
	S183.678,340.781,183.678,340.257"/>
<path fill="#62A9C4" d="M284.056,109.623l-4.981,2.912l-1.143,0.668l-0.729,0.425c-1.711,1.001-2.294,3.22-1.294,4.932l3.597,6.15
	c1,1.711,3.219,2.293,4.93,1.293l0.729-0.426l1.143-0.667l4.982-2.912L284.056,109.623z"/>
<path fill="#FFFFFF" d="M280.267,124.277l-3.606-6.169c-0.772-1.321-0.323-3.033,0.998-3.805l1.582-0.926
	c1.321-0.771,3.033-0.322,3.805,0.998l3.606,6.169c0.771,1.321,0.323,3.033-0.998,3.806l-1.582,0.925
	C282.75,126.048,281.037,125.599,280.267,124.277"/>
<path fill="#62A9C4" d="M281.097,118.253l0.184,0.314c0.325-0.105,0.673-0.014,0.904,0.238l0.314-0.185
	C282.162,118.204,281.595,118.056,281.097,118.253"/>
<path fill="#62A9C4" d="M281.466,118.886l0.147,0.253l0.252-0.149C281.753,118.9,281.609,118.862,281.466,118.886"/>
<path fill="#62A9C4" d="M280.962,118.753l-0.185-0.313c-0.416,0.335-0.564,0.903-0.366,1.401l0.314-0.185
	C280.62,119.331,280.711,118.985,280.962,118.753"/>
<path fill="#62A9C4" d="M281.043,119.472l0.253-0.148l-0.147-0.252C281.059,119.185,281.021,119.328,281.043,119.472"/>
<path fill="#62A9C4" d="M282.053,119.309l-0.253,0.147l0.147,0.253C282.037,119.596,282.074,119.451,282.053,119.309"/>
<path fill="#62A9C4" d="M281.63,119.895l-0.148-0.253l-0.252,0.148C281.343,119.879,281.486,119.917,281.63,119.895"/>
<path fill="#62A9C4" d="M282.685,118.939l-0.313,0.184c0.104,0.325,0.014,0.672-0.237,0.904l0.183,0.314
	C282.733,120.005,282.883,119.438,282.685,118.939"/>
<path fill="#62A9C4" d="M280.911,119.976l-0.314,0.184c0.335,0.416,0.904,0.565,1.402,0.367l-0.184-0.314
	C281.49,120.317,281.143,120.227,280.911,119.976"/>
<rect x="242.667" y="81.783" transform="matrix(0.4966 0.868 -0.868 0.4966 219.8924 -166.5859)" fill="#62A9C4" width="21.798" height="49.002"/>
<path fill="#FFFFFF" d="M267.795,95.788l0.249,0.436c0.449-0.142,0.925-0.012,1.241,0.338l0.435-0.249
	C269.262,95.734,268.481,95.522,267.795,95.788"/>
<path fill="#FFFFFF" d="M268.295,96.663l0.2,0.351l0.351-0.2C268.691,96.688,268.492,96.634,268.295,96.663"/>
<path fill="#FFFFFF" d="M267.604,96.476l-0.249-0.436c-0.577,0.457-0.79,1.238-0.523,1.926l0.435-0.249
	C267.125,97.268,267.254,96.791,267.604,96.476"/>
<path fill="#FFFFFF" d="M267.706,97.464l0.35-0.199l-0.2-0.351C267.729,97.069,267.676,97.268,267.706,97.464"/>
<path fill="#FFFFFF" d="M269.097,97.252l-0.351,0.2l0.201,0.351C269.073,97.648,269.127,97.449,269.097,97.252"/>
<path fill="#FFFFFF" d="M268.507,98.055l-0.199-0.351l-0.351,0.2C268.111,98.03,268.311,98.084,268.507,98.055"/>
<path fill="#FFFFFF" d="M274.215,104.544c1.146-0.653,1.545-2.126,0.892-3.27l-6.306-11.02c-0.653-1.144-2.126-1.546-3.271-0.891
	l-26.546,15.189c-0.147,0.083-0.28,0.182-0.402,0.29c-0.286,0.125-0.566,0.264-0.845,0.423c-4.191,2.396-5.646,7.739-3.247,11.932
	c2.397,4.192,7.741,5.646,11.932,3.248c0.277-0.159,0.54-0.332,0.793-0.515c0.155-0.051,0.308-0.115,0.454-0.199L274.215,104.544z
	 M269.702,100.143l-0.443-0.773c-0.932,0.397-2.014,0.103-2.616-0.713l-0.773,0.444l-0.252-0.44l0.773-0.442
	c-0.397-0.933-0.103-2.017,0.713-2.617l-0.443-0.775l0.439-0.251l0.443,0.774c0.932-0.398,2.016-0.104,2.617,0.712l0.773-0.443
	l0.252,0.44l-0.774,0.442c0.397,0.933,0.103,2.016-0.712,2.616l0.443,0.775L269.702,100.143z"/>
<path fill="#FFFFFF" d="M269.972,96.752l-0.435,0.249c0.141,0.449,0.011,0.926-0.339,1.241l0.249,0.436
	C270.025,98.22,270.237,97.438,269.972,96.752"/>
<path fill="#FFFFFF" d="M267.518,98.156l-0.436,0.249c0.459,0.577,1.238,0.79,1.926,0.524l-0.249-0.436
	C268.31,98.636,267.834,98.505,267.518,98.156"/>
<rect x="173.75" y="343.634" fill="#9C9D9A" width="21.75" height="13.537"/>
<polyline fill="#A5D5E7" points="160.924,56.424 97.71,92.703 89.718,78.861 152.933,42.581 "/>
<polyline fill="#62AAC3" points="158.172,51.655 94.957,87.936 92.471,83.629 155.686,47.35 "/>
<polygon fill="#CFE9EF" points="248.434,133.355 248.536,144.788 237,133.254 "/>
<rect x="220.398" y="135.714" transform="matrix(-0.8535 0.5211 -0.5211 -0.8535 482.1277 139.0012)" fill="#E3004F" width="2.251" height="3.125"/>
<rect x="208.758" y="123.15" transform="matrix(-0.2349 0.972 -0.972 -0.2349 390.6488 -36.9901)" fill="#E3004F" width="2.249" height="24.21"/>
<path fill="#2E2D4B" d="M195.124,331.16h-7.526v-1.844l2.532-2.561c0.723-0.758,1.196-1.273,1.419-1.551
	c0.223-0.275,0.377-0.514,0.465-0.713c0.087-0.197,0.131-0.406,0.131-0.623c0-0.27-0.087-0.482-0.263-0.639
	c-0.175-0.156-0.421-0.234-0.737-0.234c-0.326,0-0.656,0.094-0.989,0.279c-0.334,0.188-0.711,0.463-1.132,0.826l-1.539-1.801
	c0.534-0.479,0.983-0.82,1.348-1.025s0.76-0.363,1.188-0.471c0.429-0.109,0.91-0.164,1.444-0.164c0.671,0,1.271,0.119,1.798,0.355
	s0.937,0.572,1.228,1.01s0.437,0.928,0.437,1.473c0,0.406-0.051,0.783-0.152,1.127c-0.103,0.346-0.26,0.686-0.473,1.02
	c-0.212,0.332-0.495,0.684-0.848,1.053c-0.352,0.369-1.103,1.068-2.252,2.1v0.07h3.923V331.16z"/>
<path fill="#2E2D4B" d="M199.21,329.039l0.1,0.164c-0.459,1.801-0.875,3.129-1.248,3.979h-1.979
	c0.137-0.652,0.275-1.383,0.415-2.195c0.14-0.811,0.235-1.459,0.287-1.947H199.21z"/>
<path fill="#2E2D4B" d="M204.878,324.365c0.596,0,1.134,0.139,1.614,0.414c0.479,0.277,0.854,0.668,1.119,1.174
	c0.269,0.508,0.402,1.092,0.402,1.752c0,1.16-0.349,2.049-1.047,2.668c-0.697,0.619-1.753,0.928-3.167,0.928
	c-1.211,0-2.199-0.186-2.965-0.559v-2.299c0.411,0.189,0.876,0.346,1.394,0.469s0.963,0.184,1.338,0.184
	c0.52,0,0.918-0.109,1.198-0.33c0.279-0.219,0.419-0.545,0.419-0.975c0-0.396-0.143-0.707-0.426-0.93
	c-0.284-0.221-0.715-0.332-1.291-0.332c-0.441,0-0.915,0.082-1.426,0.248l-1.029-0.512l0.391-5.477h5.916v2.334h-3.532l-0.128,1.369
	c0.369-0.07,0.631-0.109,0.787-0.117C204.602,324.369,204.746,324.365,204.878,324.365"/>
<path fill="#2E2D4B" d="M215.363,331.16h-2.845v-5.49c0-0.666,0.014-1.277,0.042-1.83c-0.176,0.213-0.393,0.436-0.652,0.666
	l-1.178,0.973l-1.454-1.787l3.562-2.902h2.525V331.16z"/>
<path fill="#2E2D4B" d="M256.492,127.235c0,0.643-0.196,1.195-0.589,1.656s-0.96,0.796-1.702,1.004v0.042
	c1.73,0.218,2.596,1.036,2.596,2.455c0,0.965-0.382,1.724-1.146,2.276c-0.763,0.554-1.824,0.83-3.181,0.83
	c-0.559,0-1.075-0.04-1.551-0.12c-0.475-0.08-0.99-0.228-1.543-0.44v-2.326c0.454,0.231,0.917,0.403,1.387,0.515
	c0.471,0.11,0.905,0.166,1.302,0.166c0.614,0,1.063-0.086,1.345-0.259s0.422-0.443,0.422-0.813c0-0.283-0.073-0.502-0.22-0.656
	c-0.146-0.153-0.383-0.27-0.709-0.347c-0.327-0.078-0.752-0.117-1.277-0.117h-0.639v-2.107h0.653c1.423,0,2.135-0.364,2.135-1.092
	c0-0.274-0.105-0.478-0.315-0.61c-0.211-0.133-0.493-0.198-0.848-0.198c-0.662,0-1.349,0.222-2.058,0.666l-1.164-1.872
	c0.55-0.379,1.111-0.648,1.686-0.809c0.575-0.161,1.232-0.24,1.976-0.24c1.073,0,1.915,0.212,2.525,0.637
	C256.188,125.901,256.492,126.488,256.492,127.235"/>
<path fill="#2E2D4B" d="M260.926,133.236l0.1,0.163c-0.459,1.802-0.875,3.129-1.248,3.979h-1.979
	c0.137-0.652,0.274-1.384,0.415-2.195c0.14-0.811,0.234-1.46,0.287-1.947H260.926z"/>
<path fill="#2E2D4B" d="M269.495,127.235c0,0.643-0.196,1.195-0.589,1.656s-0.96,0.796-1.702,1.004v0.042
	c1.729,0.218,2.596,1.036,2.596,2.455c0,0.965-0.382,1.724-1.146,2.276c-0.764,0.554-1.824,0.83-3.181,0.83
	c-0.559,0-1.075-0.04-1.551-0.12c-0.475-0.08-0.989-0.228-1.543-0.44v-2.326c0.454,0.231,0.917,0.403,1.388,0.515
	c0.47,0.11,0.904,0.166,1.301,0.166c0.615,0,1.063-0.086,1.345-0.259s0.422-0.443,0.422-0.813c0-0.283-0.073-0.502-0.22-0.656
	c-0.146-0.153-0.383-0.27-0.709-0.347c-0.327-0.078-0.752-0.117-1.277-0.117h-0.639v-2.107h0.652c1.424,0,2.136-0.364,2.136-1.092
	c0-0.274-0.105-0.478-0.315-0.61c-0.211-0.133-0.493-0.198-0.848-0.198c-0.662,0-1.348,0.222-2.057,0.666l-1.164-1.872
	c0.549-0.379,1.11-0.648,1.685-0.809c0.575-0.161,1.233-0.24,1.976-0.24c1.073,0,1.915,0.212,2.525,0.637
	C269.19,125.901,269.495,126.488,269.495,127.235"/>
<path fill="#2E2D4B" d="M278.008,127.235c0,0.643-0.196,1.195-0.589,1.656s-0.96,0.796-1.702,1.004v0.042
	c1.73,0.218,2.596,1.036,2.596,2.455c0,0.965-0.382,1.724-1.146,2.276c-0.763,0.554-1.824,0.83-3.181,0.83
	c-0.559,0-1.075-0.04-1.551-0.12c-0.475-0.08-0.99-0.228-1.543-0.44v-2.326c0.454,0.231,0.917,0.403,1.387,0.515
	c0.471,0.11,0.905,0.166,1.302,0.166c0.614,0,1.063-0.086,1.345-0.259s0.422-0.443,0.422-0.813c0-0.283-0.073-0.502-0.22-0.656
	c-0.146-0.153-0.383-0.27-0.709-0.347c-0.327-0.078-0.752-0.117-1.277-0.117h-0.639v-2.107h0.653c1.423,0,2.135-0.364,2.135-1.092
	c0-0.274-0.105-0.478-0.315-0.61c-0.211-0.133-0.493-0.198-0.848-0.198c-0.662,0-1.349,0.222-2.058,0.666l-1.164-1.872
	c0.55-0.379,1.111-0.648,1.686-0.809c0.575-0.161,1.232-0.24,1.976-0.24c1.073,0,1.915,0.212,2.525,0.637
	C277.703,125.901,278.008,126.488,278.008,127.235"/>
</svg>
