<?xml version="1.0" encoding="utf-8"?>
<!-- Generator: Adobe Illustrator 16.0.0, SVG Export Plug-In . SVG Version: 6.00 Build 0)  -->
<!DOCTYPE svg PUBLIC "-//W3C//DTD SVG 1.1//EN" "http://www.w3.org/Graphics/SVG/1.1/DTD/svg11.dtd">
<svg version="1.1" id="Слой_1" xmlns="http://www.w3.org/2000/svg" xmlns:xlink="http://www.w3.org/1999/xlink" x="0px" y="0px"
	 width="439.333px" height="246.166px" viewBox="0 0 439.333 246.166" enable-background="new 0 0 439.333 246.166"
	 xml:space="preserve">
<g>
	<defs>
		<rect id="SVGID_1_" x="170.208" y="15.75" width="95.478" height="59.75"/>
	</defs>
	<clipPath id="SVGID_2_">
		<use xlink:href="#SVGID_1_"  overflow="visible"/>
	</clipPath>
	<rect x="212.817" y="11.574" clip-path="url(#SVGID_2_)" fill="#CFE9EF" width="10.417" height="10.417"/>
	<path clip-path="url(#SVGID_2_)" fill="#FFFFFF" d="M223.108,21.865h-10.167V11.698h10.167V21.865z M223.358,11.449h-10.667v10.667
		h10.667V11.449z"/>
	<rect x="212.817" y="22.24" clip-path="url(#SVGID_2_)" fill="#CFE9EF" width="10.417" height="10.417"/>
	<path clip-path="url(#SVGID_2_)" fill="#FFFFFF" d="M223.108,32.532h-10.167V22.365h10.167V32.532z M223.358,22.115h-10.667v10.667
		h10.667V22.115z"/>
	<rect x="212.817" y="32.907" clip-path="url(#SVGID_2_)" fill="#CFE9EF" width="10.417" height="10.417"/>
	<path clip-path="url(#SVGID_2_)" fill="#FFFFFF" d="M223.108,43.199h-10.167V33.032h10.167V43.199z M223.358,32.782h-10.667v10.667
		h10.667V32.782z"/>
	<rect x="212.817" y="43.625" clip-path="url(#SVGID_2_)" fill="#CFE9EF" width="10.417" height="10.417"/>
	<path clip-path="url(#SVGID_2_)" fill="#FFFFFF" d="M223.108,53.916h-10.167V43.749h10.167V53.916z M223.358,43.5h-10.667v10.667
		h10.667V43.5z"/>
	<rect x="212.817" y="54.291" clip-path="url(#SVGID_2_)" fill="#CFE9EF" width="10.417" height="10.417"/>
	<path clip-path="url(#SVGID_2_)" fill="#FFFFFF" d="M223.108,64.583h-10.167V54.416h10.167V64.583z M223.358,54.166h-10.667v10.667
		h10.667V54.166z"/>
	<rect x="212.817" y="64.958" clip-path="url(#SVGID_2_)" fill="#CFE9EF" width="10.417" height="10.417"/>
	<path clip-path="url(#SVGID_2_)" fill="#FFFFFF" d="M223.108,75.25h-10.167V65.083h10.167V75.25z M223.358,64.833h-10.667V75.5
		h10.667V64.833z"/>
	<rect x="202.15" y="11.574" clip-path="url(#SVGID_2_)" fill="#CFE9EF" width="10.417" height="10.417"/>
	<path clip-path="url(#SVGID_2_)" fill="#FFFFFF" d="M212.442,21.865h-10.167V11.698h10.167V21.865z M212.692,11.449h-10.667v10.667
		h10.667V11.449z"/>
	<rect x="202.15" y="22.24" clip-path="url(#SVGID_2_)" fill="#CFE9EF" width="10.417" height="10.417"/>
	<path clip-path="url(#SVGID_2_)" fill="#FFFFFF" d="M212.442,32.532h-10.167V22.365h10.167V32.532z M212.692,22.115h-10.667v10.667
		h10.667V22.115z"/>
	<rect x="202.15" y="32.907" clip-path="url(#SVGID_2_)" fill="#CFE9EF" width="10.417" height="10.417"/>
	<path clip-path="url(#SVGID_2_)" fill="#FFFFFF" d="M212.442,43.199h-10.167V33.032h10.167V43.199z M212.692,32.782h-10.667v10.667
		h10.667V32.782z"/>
	<rect x="202.15" y="43.625" clip-path="url(#SVGID_2_)" fill="#CFE9EF" width="10.417" height="10.417"/>
	<path clip-path="url(#SVGID_2_)" fill="#FFFFFF" d="M212.442,53.916h-10.167V43.749h10.167V53.916z M212.692,43.5h-10.667v10.667
		h10.667V43.5z"/>
	<rect x="202.15" y="54.291" clip-path="url(#SVGID_2_)" fill="#CFE9EF" width="10.417" height="10.417"/>
	<path clip-path="url(#SVGID_2_)" fill="#FFFFFF" d="M212.442,64.583h-10.167V54.416h10.167V64.583z M212.692,54.166h-10.667v10.667
		h10.667V54.166z"/>
	<rect x="202.15" y="64.958" clip-path="url(#SVGID_2_)" fill="#CFE9EF" width="10.417" height="10.417"/>
	<path clip-path="url(#SVGID_2_)" fill="#FFFFFF" d="M212.442,75.25h-10.167V65.083h10.167V75.25z M212.692,64.833h-10.667V75.5
		h10.667V64.833z"/>
	<rect x="191.495" y="11.574" clip-path="url(#SVGID_2_)" fill="#CFE9EF" width="10.416" height="10.417"/>
	<path clip-path="url(#SVGID_2_)" fill="#FFFFFF" d="M201.786,21.865h-10.167V11.698h10.167V21.865z M202.036,11.449h-10.667v10.667
		h10.667V11.449z"/>
	<rect x="191.495" y="22.24" clip-path="url(#SVGID_2_)" fill="#CFE9EF" width="10.416" height="10.417"/>
	<path clip-path="url(#SVGID_2_)" fill="#FFFFFF" d="M201.786,32.532h-10.167V22.365h10.167V32.532z M202.036,22.115h-10.667v10.667
		h10.667V22.115z"/>
	<rect x="191.495" y="32.907" clip-path="url(#SVGID_2_)" fill="#CFE9EF" width="10.416" height="10.417"/>
	<path clip-path="url(#SVGID_2_)" fill="#FFFFFF" d="M201.786,43.199h-10.167V33.032h10.167V43.199z M202.036,32.782h-10.667v10.667
		h10.667V32.782z"/>
	<rect x="191.495" y="43.625" clip-path="url(#SVGID_2_)" fill="#CFE9EF" width="10.416" height="10.417"/>
	<path clip-path="url(#SVGID_2_)" fill="#FFFFFF" d="M201.786,53.916h-10.167V43.749h10.167V53.916z M202.036,43.5h-10.667v10.667
		h10.667V43.5z"/>
	<rect x="191.495" y="54.291" clip-path="url(#SVGID_2_)" fill="#CFE9EF" width="10.416" height="10.417"/>
	<path clip-path="url(#SVGID_2_)" fill="#FFFFFF" d="M201.786,64.583h-10.167V54.416h10.167V64.583z M202.036,54.166h-10.667v10.667
		h10.667V54.166z"/>
	<rect x="191.495" y="64.958" clip-path="url(#SVGID_2_)" fill="#CFE9EF" width="10.416" height="10.417"/>
	<path clip-path="url(#SVGID_2_)" fill="#FFFFFF" d="M201.786,75.25h-10.167V65.083h10.167V75.25z M202.036,64.833h-10.667V75.5
		h10.667V64.833z"/>
	<rect x="180.828" y="11.574" clip-path="url(#SVGID_2_)" fill="#CFE9EF" width="10.417" height="10.417"/>
	<path clip-path="url(#SVGID_2_)" fill="#FFFFFF" d="M191.12,21.865h-10.167V11.698h10.167V21.865z M191.37,11.449h-10.667v10.667
		h10.667V11.449z"/>
	<rect x="180.828" y="22.24" clip-path="url(#SVGID_2_)" fill="#CFE9EF" width="10.417" height="10.417"/>
	<path clip-path="url(#SVGID_2_)" fill="#FFFFFF" d="M191.12,32.532h-10.167V22.365h10.167V32.532z M191.37,22.115h-10.667v10.667
		h10.667V22.115z"/>
	<rect x="180.828" y="32.907" clip-path="url(#SVGID_2_)" fill="#CFE9EF" width="10.417" height="10.417"/>
	<path clip-path="url(#SVGID_2_)" fill="#FFFFFF" d="M191.12,43.199h-10.167V33.032h10.167V43.199z M191.37,32.782h-10.667v10.667
		h10.667V32.782z"/>
	<rect x="180.828" y="43.625" clip-path="url(#SVGID_2_)" fill="#CFE9EF" width="10.417" height="10.417"/>
	<path clip-path="url(#SVGID_2_)" fill="#FFFFFF" d="M191.12,53.916h-10.167V43.749h10.167V53.916z M191.37,43.5h-10.667v10.667
		h10.667V43.5z"/>
	<rect x="180.828" y="54.291" clip-path="url(#SVGID_2_)" fill="#CFE9EF" width="10.417" height="10.417"/>
	<path clip-path="url(#SVGID_2_)" fill="#FFFFFF" d="M191.12,64.583h-10.167V54.416h10.167V64.583z M191.37,54.166h-10.667v10.667
		h10.667V54.166z"/>
	<rect x="180.828" y="64.958" clip-path="url(#SVGID_2_)" fill="#CFE9EF" width="10.417" height="10.417"/>
	<path clip-path="url(#SVGID_2_)" fill="#FFFFFF" d="M191.12,75.25h-10.167V65.083h10.167V75.25z M191.37,64.833h-10.667V75.5
		h10.667V64.833z"/>
	<rect x="170.733" y="11.574" clip-path="url(#SVGID_2_)" fill="#CFE9EF" width="9.907" height="10.417"/>
	<path clip-path="url(#SVGID_2_)" fill="#FFFFFF" d="M180.516,21.865h-9.657V11.698h9.657V21.865z M180.766,11.449h-10.157v10.667
		h10.157V11.449z"/>
	<rect x="170.733" y="22.24" clip-path="url(#SVGID_2_)" fill="#CFE9EF" width="9.907" height="10.417"/>
	<path clip-path="url(#SVGID_2_)" fill="#FFFFFF" d="M180.516,32.532h-9.657V22.365h9.657V32.532z M180.766,22.115h-10.157v10.667
		h10.157V22.115z"/>
	<rect x="170.733" y="32.907" clip-path="url(#SVGID_2_)" fill="#CFE9EF" width="9.907" height="10.417"/>
	<path clip-path="url(#SVGID_2_)" fill="#FFFFFF" d="M180.516,43.199h-9.657V33.032h9.657V43.199z M180.766,32.782h-10.157v10.667
		h10.157V32.782z"/>
	<rect x="170.733" y="43.625" clip-path="url(#SVGID_2_)" fill="#CFE9EF" width="9.907" height="10.417"/>
	<path clip-path="url(#SVGID_2_)" fill="#FFFFFF" d="M180.516,53.916h-9.657V43.749h9.657V53.916z M180.766,43.5h-10.157v10.667
		h10.157V43.5z"/>
	<rect x="170.733" y="54.291" clip-path="url(#SVGID_2_)" fill="#CFE9EF" width="9.907" height="10.417"/>
	<path clip-path="url(#SVGID_2_)" fill="#FFFFFF" d="M180.516,64.583h-9.657V54.416h9.657V64.583z M180.766,54.166h-10.157v10.667
		h10.157V54.166z"/>
	<rect x="170.733" y="64.958" clip-path="url(#SVGID_2_)" fill="#CFE9EF" width="9.907" height="10.417"/>
	<path clip-path="url(#SVGID_2_)" fill="#FFFFFF" d="M180.516,75.25h-9.657V65.083h9.657V75.25z M180.766,64.833h-10.157V75.5
		h10.157V64.833z"/>
	<rect x="260.479" y="11.574" clip-path="url(#SVGID_2_)" fill="#CFE9EF" width="10.417" height="10.417"/>
	<path clip-path="url(#SVGID_2_)" fill="#FFFFFF" d="M270.771,21.865h-10.167V11.698h10.167V21.865z M271.021,11.449h-10.667v10.667
		h10.667V11.449z"/>
	<rect x="260.479" y="22.24" clip-path="url(#SVGID_2_)" fill="#CFE9EF" width="10.417" height="10.417"/>
	<path clip-path="url(#SVGID_2_)" fill="#FFFFFF" d="M270.771,32.532h-10.167V22.365h10.167V32.532z M271.021,22.115h-10.667v10.667
		h10.667V22.115z"/>
	<rect x="260.479" y="32.907" clip-path="url(#SVGID_2_)" fill="#CFE9EF" width="10.417" height="10.417"/>
	<path clip-path="url(#SVGID_2_)" fill="#FFFFFF" d="M270.771,43.199h-10.167V33.032h10.167V43.199z M271.021,32.782h-10.667v10.667
		h10.667V32.782z"/>
	<rect x="260.479" y="43.625" clip-path="url(#SVGID_2_)" fill="#CFE9EF" width="10.417" height="10.417"/>
	<path clip-path="url(#SVGID_2_)" fill="#FFFFFF" d="M270.771,53.916h-10.167V43.749h10.167V53.916z M271.021,43.5h-10.667v10.667
		h10.667V43.5z"/>
	<rect x="260.479" y="54.291" clip-path="url(#SVGID_2_)" fill="#CFE9EF" width="10.417" height="10.417"/>
	<path clip-path="url(#SVGID_2_)" fill="#FFFFFF" d="M270.771,64.583h-10.167V54.416h10.167V64.583z M271.021,54.166h-10.667v10.667
		h10.667V54.166z"/>
	<rect x="260.479" y="64.958" clip-path="url(#SVGID_2_)" fill="#CFE9EF" width="10.417" height="10.417"/>
	<path clip-path="url(#SVGID_2_)" fill="#FFFFFF" d="M270.771,75.25h-10.167V65.083h10.167V75.25z M271.021,64.833h-10.667V75.5
		h10.667V64.833z"/>
	<rect x="249.812" y="11.574" clip-path="url(#SVGID_2_)" fill="#CFE9EF" width="10.417" height="10.417"/>
	<path clip-path="url(#SVGID_2_)" fill="#FFFFFF" d="M260.104,21.865h-10.167V11.698h10.167V21.865z M260.354,11.449h-10.667v10.667
		h10.667V11.449z"/>
	<rect x="249.812" y="22.24" clip-path="url(#SVGID_2_)" fill="#CFE9EF" width="10.417" height="10.417"/>
	<path clip-path="url(#SVGID_2_)" fill="#FFFFFF" d="M260.104,32.532h-10.167V22.365h10.167V32.532z M260.354,22.115h-10.667v10.667
		h10.667V22.115z"/>
	<rect x="249.812" y="32.907" clip-path="url(#SVGID_2_)" fill="#CFE9EF" width="10.417" height="10.417"/>
	<path clip-path="url(#SVGID_2_)" fill="#FFFFFF" d="M260.104,43.199h-10.167V33.032h10.167V43.199z M260.354,32.782h-10.667v10.667
		h10.667V32.782z"/>
	<rect x="249.812" y="43.625" clip-path="url(#SVGID_2_)" fill="#CFE9EF" width="10.417" height="10.417"/>
	<path clip-path="url(#SVGID_2_)" fill="#FFFFFF" d="M260.104,53.916h-10.167V43.749h10.167V53.916z M260.354,43.5h-10.667v10.667
		h10.667V43.5z"/>
	<rect x="249.812" y="54.291" clip-path="url(#SVGID_2_)" fill="#CFE9EF" width="10.417" height="10.417"/>
	<path clip-path="url(#SVGID_2_)" fill="#FFFFFF" d="M260.104,64.583h-10.167V54.416h10.167V64.583z M260.354,54.166h-10.667v10.667
		h10.667V54.166z"/>
	<rect x="249.812" y="64.958" clip-path="url(#SVGID_2_)" fill="#CFE9EF" width="10.417" height="10.417"/>
	<path clip-path="url(#SVGID_2_)" fill="#FFFFFF" d="M260.104,75.25h-10.167V65.083h10.167V75.25z M260.354,64.833h-10.667V75.5
		h10.667V64.833z"/>
	<rect x="239.155" y="11.574" clip-path="url(#SVGID_2_)" fill="#CFE9EF" width="10.416" height="10.417"/>
	<path clip-path="url(#SVGID_2_)" fill="#FFFFFF" d="M249.447,21.865H239.28V11.698h10.167V21.865z M249.697,11.449H239.03v10.667
		h10.667V11.449z"/>
	<rect x="239.155" y="22.24" clip-path="url(#SVGID_2_)" fill="#CFE9EF" width="10.416" height="10.417"/>
	<path clip-path="url(#SVGID_2_)" fill="#FFFFFF" d="M249.447,32.532H239.28V22.365h10.167V32.532z M249.697,22.115H239.03v10.667
		h10.667V22.115z"/>
	<rect x="239.155" y="32.907" clip-path="url(#SVGID_2_)" fill="#CFE9EF" width="10.416" height="10.417"/>
	<path clip-path="url(#SVGID_2_)" fill="#FFFFFF" d="M249.447,43.199H239.28V33.032h10.167V43.199z M249.697,32.782H239.03v10.667
		h10.667V32.782z"/>
	<rect x="239.155" y="43.625" clip-path="url(#SVGID_2_)" fill="#CFE9EF" width="10.416" height="10.417"/>
	<path clip-path="url(#SVGID_2_)" fill="#FFFFFF" d="M249.447,53.916H239.28V43.749h10.167V53.916z M249.697,43.5H239.03v10.667
		h10.667V43.5z"/>
	<rect x="239.155" y="54.291" clip-path="url(#SVGID_2_)" fill="#CFE9EF" width="10.416" height="10.417"/>
	<path clip-path="url(#SVGID_2_)" fill="#FFFFFF" d="M249.447,64.583H239.28V54.416h10.167V64.583z M249.697,54.166H239.03v10.667
		h10.667V54.166z"/>
	<rect x="239.155" y="64.958" clip-path="url(#SVGID_2_)" fill="#CFE9EF" width="10.416" height="10.417"/>
	<path clip-path="url(#SVGID_2_)" fill="#FFFFFF" d="M249.447,75.25H239.28V65.083h10.167V75.25z M249.697,64.833H239.03V75.5
		h10.667V64.833z"/>
	<rect x="228.488" y="11.574" clip-path="url(#SVGID_2_)" fill="#CFE9EF" width="10.417" height="10.417"/>
	<path clip-path="url(#SVGID_2_)" fill="#FFFFFF" d="M238.78,21.865h-10.167V11.698h10.167V21.865z M239.03,11.449h-10.667v10.667
		h10.667V11.449z"/>
	<rect x="228.488" y="22.24" clip-path="url(#SVGID_2_)" fill="#CFE9EF" width="10.417" height="10.417"/>
	<path clip-path="url(#SVGID_2_)" fill="#FFFFFF" d="M238.78,32.532h-10.167V22.365h10.167V32.532z M239.03,22.115h-10.667v10.667
		h10.667V22.115z"/>
	<rect x="228.488" y="32.907" clip-path="url(#SVGID_2_)" fill="#CFE9EF" width="10.417" height="10.417"/>
	<path clip-path="url(#SVGID_2_)" fill="#FFFFFF" d="M238.78,43.199h-10.167V33.032h10.167V43.199z M239.03,32.782h-10.667v10.667
		h10.667V32.782z"/>
	<rect x="228.488" y="43.625" clip-path="url(#SVGID_2_)" fill="#CFE9EF" width="10.417" height="10.417"/>
	<path clip-path="url(#SVGID_2_)" fill="#FFFFFF" d="M238.78,53.916h-10.167V43.749h10.167V53.916z M239.03,43.5h-10.667v10.667
		h10.667V43.5z"/>
	<rect x="228.488" y="54.291" clip-path="url(#SVGID_2_)" fill="#CFE9EF" width="10.417" height="10.417"/>
	<path clip-path="url(#SVGID_2_)" fill="#FFFFFF" d="M238.78,64.583h-10.167V54.416h10.167V64.583z M239.03,54.166h-10.667v10.667
		h10.667V54.166z"/>
	<rect x="228.488" y="64.958" clip-path="url(#SVGID_2_)" fill="#CFE9EF" width="10.417" height="10.417"/>
	<path clip-path="url(#SVGID_2_)" fill="#FFFFFF" d="M238.78,75.25h-10.167V65.083h10.167V75.25z M239.03,64.833h-10.667V75.5
		h10.667V64.833z"/>
	<rect x="218.396" y="11.574" clip-path="url(#SVGID_2_)" fill="#CFE9EF" width="9.907" height="10.417"/>
	<path clip-path="url(#SVGID_2_)" fill="#FFFFFF" d="M228.177,21.865h-9.657V11.698h9.657V21.865z M228.427,11.449H218.27v10.667
		h10.157V11.449z"/>
	<rect x="218.396" y="22.24" clip-path="url(#SVGID_2_)" fill="#CFE9EF" width="9.907" height="10.417"/>
	<path clip-path="url(#SVGID_2_)" fill="#FFFFFF" d="M228.177,32.532h-9.657V22.365h9.657V32.532z M228.427,22.115H218.27v10.667
		h10.157V22.115z"/>
	<rect x="218.396" y="32.907" clip-path="url(#SVGID_2_)" fill="#CFE9EF" width="9.907" height="10.417"/>
	<path clip-path="url(#SVGID_2_)" fill="#FFFFFF" d="M228.177,43.199h-9.657V33.032h9.657V43.199z M228.427,32.782H218.27v10.667
		h10.157V32.782z"/>
	<rect x="218.396" y="43.625" clip-path="url(#SVGID_2_)" fill="#CFE9EF" width="9.907" height="10.417"/>
	<path clip-path="url(#SVGID_2_)" fill="#FFFFFF" d="M228.177,53.916h-9.657V43.749h9.657V53.916z M228.427,43.5H218.27v10.667
		h10.157V43.5z"/>
	<rect x="218.396" y="54.291" clip-path="url(#SVGID_2_)" fill="#CFE9EF" width="9.907" height="10.417"/>
	<path clip-path="url(#SVGID_2_)" fill="#FFFFFF" d="M228.177,64.583h-9.657V54.416h9.657V64.583z M228.427,54.166H218.27v10.667
		h10.157V54.166z"/>
	<rect x="218.396" y="64.958" clip-path="url(#SVGID_2_)" fill="#CFE9EF" width="9.907" height="10.417"/>
	<path clip-path="url(#SVGID_2_)" fill="#FFFFFF" d="M228.177,75.25h-9.657V65.083h9.657V75.25z M228.427,64.833H218.27V75.5h10.157
		V64.833z"/>
</g>
<rect x="33.782" y="191.738" fill="#2E2D4B" width="16.5" height="54.428"/>
<rect x="33.782" y="111.625" fill="#2E2D4B" width="16.5" height="28.104"/>
<rect y="94.417" fill="#2E2D4B" width="16.5" height="28.104"/>
<rect y="0" fill="#2E2D4B" width="16.5" height="40.771"/>
<rect y="110.75" fill="#2E2D4B" width="42" height="17.25"/>
<polyline fill="#2E2D4B" points="439.417,17.25 0,17.25 0,0 439.417,0 "/>
<rect x="423" y="94.749" fill="#2E2D4B" width="16.333" height="37.251"/>
<rect x="423" y="2.167" fill="#2E2D4B" width="16.333" height="38.354"/>
<rect x="34.97" y="239.166" fill="#2E2D4B" width="125.947" height="7"/>
<rect x="208.583" y="126.75" fill="#2E2D4B" width="222.583" height="5.25"/>
<rect x="139.803" y="161.893" fill="#2E2D4B" width="28.03" height="5.5"/>
<rect x="139.5" y="111.625" fill="#2E2D4B" width="22.333" height="5.5"/>
<rect x="193.833" y="165.166" fill="#2E2D4B" width="14.75" height="5.5"/>
<rect x="160.021" y="151.437" fill="#2E2D4B" width="3.625" height="17.5"/>
<rect x="16.5" y="110.75" fill="#2E2D4B" width="145.333" height="3.625"/>
<rect x="160.021" y="104.166" fill="#2E2D4B" width="3.625" height="22.583"/>
<rect x="264.771" y="113.604" fill="#2E2D4B" width="3.625" height="17.5"/>
<polyline fill="#2E2D4B" points="155.417,246.166 155.417,165.166 160.917,165.166 160.917,246.166 "/>
<rect x="205.833" y="126.75" fill="#2E2D4B" width="5.5" height="43.916"/>
<rect x="139.018" y="161.893" fill="#2E2D4B" width="7" height="81"/>
<rect x="168.708" y="15.75" fill="#2E2D4B" width="3" height="59.75"/>
<rect x="200.083" y="15.75" fill="#2E2D4B" width="3" height="59.75"/>
<rect x="264.333" y="15.75" fill="#2E2D4B" width="3" height="73.375"/>
<rect x="197.333" y="72.125" fill="#2E2D4B" width="32" height="3.375"/>
<rect x="251.333" y="72.125" fill="#2E2D4B" width="16" height="3.375"/>
<rect x="168.707" y="72.125" fill="#2E2D4B" width="5.012" height="3.375"/>
<rect x="254.396" y="66" fill="#2E2D4B" width="3.25" height="7.25"/>
<rect x="254.396" y="66" fill="#2E2D4B" width="12.5" height="3.25"/>
<rect x="422.917" y="39.458" fill="#A5D5E7" width="16.5" height="55.292"/>
<rect x="428.6" y="39.458" fill="#62AAC3" width="5.133" height="55.292"/>
<rect x="33.782" y="139.744" fill="#A5D5E7" width="16.5" height="52.146"/>
<rect x="39.466" y="139.744" fill="#62AAC3" width="5.133" height="52.146"/>
<rect y="40.771" fill="#A5D5E7" width="16.5" height="53.646"/>
<rect x="5.683" y="40.771" fill="#62AAC3" width="5.133" height="53.646"/>
<rect x="144.309" y="167.371" fill="#9C9D9A" width="11.108" height="33.727"/>
<rect x="141.358" y="201.098" fill="#2E2D4B" width="15.725" height="3.741"/>
<rect x="144.309" y="204.84" fill="#9C9D9A" width="11.108" height="34.546"/>
<polygon fill="#EEEDEC" points="144.308,239.385 148.431,209.703 155.416,204.84 155.416,239.385 "/>
<polygon fill="#EEEDEC" points="155.416,201.099 144.308,201.099 148.314,171.498 155.416,167.371 "/>
<rect x="257.646" y="69.25" fill="#D7D8D5" width="6.687" height="2.875"/>
<rect x="171.708" y="17.25" fill="#9C9D9A" width="28.375" height="12.875"/>
<rect x="167.833" y="165.166" fill="#E3004F" width="3.125" height="2.25"/>
<rect x="176.063" y="163.068" transform="matrix(-0.7073 0.7069 -0.7069 -0.7073 426.3452 173.8244)" fill="#E3004F" width="2.249" height="24.21"/>
<rect x="229.333" y="72.125" fill="#E3004F" width="3.125" height="2.25"/>
<rect x="237.563" y="70.026" transform="matrix(-0.7071 0.7071 -0.7071 -0.7071 465.5415 -28.5709)" fill="#E3004F" width="2.25" height="24.21"/>
<rect x="264.333" y="89.125" fill="#E3004F" width="3.125" height="2.25"/>
<rect x="272.563" y="87.026" transform="matrix(-0.7071 0.7071 -0.7071 -0.7071 537.311 -24.2988)" fill="#E3004F" width="2.25" height="24.21"/>
<rect x="194.208" y="72.125" fill="#E3004F" width="3.125" height="2.25"/>
<rect x="186.853" y="70.026" transform="matrix(0.7071 0.7071 -0.7071 0.7071 113.1331 -108.8648)" fill="#E3004F" width="2.25" height="24.21"/>
<rect x="161.396" y="126.75" fill="#E3004F" width="2.25" height="3.125"/>
<rect x="152.514" y="124" transform="matrix(-0.7071 -0.7071 0.7071 -0.7071 166.0377 340.985)" fill="#E3004F" width="2.25" height="24.21"/>
<rect x="161.396" y="101.041" fill="#E3004F" width="2.25" height="3.125"/>
<rect x="152.514" y="82.707" transform="matrix(-0.7071 0.7071 -0.7071 -0.7071 329.3207 53.2149)" fill="#E3004F" width="2.25" height="24.21"/>
<rect x="104.832" y="222.031" fill="#B2D3DC" width="21.388" height="17.106"/>
<path fill="#FFFFFF" d="M109.15,236.232h6.104h0.771h8.604v-0.49h-7.052c0.312-0.219,0.57-0.5,0.77-0.826h6.282v-0.49h-6.046
	c0.093-0.26,0.151-0.536,0.161-0.825h5.885v-0.491h-5.875v-0.824h5.875v-0.492h-5.875v-0.823h5.875v-0.492h-5.875v-0.824h5.875
	v-0.491h-5.875v-0.824h5.875v-0.491h-5.875v-0.824h5.875v-0.492h-5.885c-0.01-0.288-0.068-0.563-0.161-0.823h6.046v-0.492h-6.282
	c-0.199-0.324-0.458-0.607-0.77-0.824h7.052v-0.491h-8.604h-0.771h-6.104c-1.501,0-2.729,1.228-2.729,2.729v6.875
	C106.422,235.004,107.649,236.232,109.15,236.232"/>
<path fill="#62A9C4" d="M110.552,239.138h4.333v-2.905h-1.666v-2.842c0-0.154-0.127-0.281-0.281-0.281H112.5
	c-0.155,0-0.281,0.127-0.281,0.281v2.842h-1.667V239.138z"/>
<path fill="#FFFFFF" d="M113.32,237.683c0-0.269,0.217-0.483,0.484-0.483s0.484,0.215,0.484,0.483s-0.217,0.483-0.484,0.483
	S113.32,237.951,113.32,237.683"/>
<path fill="#FFFFFF" d="M111.148,237.683c0-0.269,0.217-0.483,0.484-0.483s0.484,0.215,0.484,0.483s-0.217,0.483-0.484,0.483
	S111.148,237.951,111.148,237.683"/>
<rect x="76.802" y="236.232" fill="#B2D3DC" width="15.25" height="2.905"/>
<rect x="76.802" y="222.031" fill="#62A9C4" width="15.25" height="14.201"/>
<rect x="78.302" y="220.442" fill="#62A9C4" width="12.25" height="0.927"/>
<path fill="#FFFFFF" d="M81.093,230.355c1.326,0,2.405,1.08,2.405,2.406s-1.079,2.406-2.405,2.406s-2.405-1.08-2.405-2.406
	S79.767,230.355,81.093,230.355 M81.093,234.418c0.912,0,1.655-0.744,1.655-1.656c0-0.913-0.743-1.656-1.655-1.656
	c-0.913,0-1.655,0.743-1.655,1.656C79.438,233.674,80.18,234.418,81.093,234.418"/>
<path fill="#FFFFFF" d="M81.093,231.512c0.688,0,1.25,0.561,1.25,1.25s-0.562,1.25-1.25,1.25c-0.689,0-1.25-0.561-1.25-1.25
	S80.403,231.512,81.093,231.512 M81.093,233.262c0.274,0,0.5-0.225,0.5-0.5s-0.226-0.5-0.5-0.5c-0.275,0-0.5,0.225-0.5,0.5
	S80.817,233.262,81.093,233.262"/>
<path fill="#FFFFFF" d="M81.093,224.782c0.907,0,1.646,0.739,1.646,1.646c0,0.908-0.738,1.646-1.646,1.646s-1.646-0.738-1.646-1.646
	C79.446,225.521,80.186,224.782,81.093,224.782 M81.093,227.324c0.493,0,0.896-0.402,0.896-0.896c0-0.493-0.402-0.896-0.896-0.896
	c-0.494,0-0.896,0.402-0.896,0.896C80.196,226.922,80.599,227.324,81.093,227.324"/>
<path fill="#FFFFFF" d="M81.093,223.095c1.838,0,3.334,1.496,3.334,3.334c0,1.837-1.496,3.333-3.334,3.333
	c-1.839,0-3.333-1.496-3.333-3.333C77.76,224.591,79.254,223.095,81.093,223.095 M81.093,229.012c1.425,0,2.584-1.159,2.584-2.583
	c0-1.425-1.159-2.584-2.584-2.584s-2.583,1.159-2.583,2.584C78.51,227.853,79.668,229.012,81.093,229.012"/>
<path fill="#FFFFFF" d="M87.76,227.907c-1.326,0-2.405-1.08-2.405-2.405c0-1.328,1.079-2.406,2.405-2.406s2.405,1.078,2.405,2.406
	C90.165,226.827,89.086,227.907,87.76,227.907 M87.76,223.846c-0.912,0-1.655,0.742-1.655,1.656c0,0.912,0.743,1.655,1.655,1.655
	c0.913,0,1.655-0.743,1.655-1.655C89.415,224.588,88.673,223.846,87.76,223.846"/>
<path fill="#FFFFFF" d="M87.76,226.751c-0.688,0-1.25-0.562-1.25-1.25s0.562-1.25,1.25-1.25c0.689,0,1.25,0.562,1.25,1.25
	S88.449,226.751,87.76,226.751 M87.76,225.001c-0.274,0-0.5,0.224-0.5,0.5s0.226,0.5,0.5,0.5c0.275,0,0.5-0.224,0.5-0.5
	S88.035,225.001,87.76,225.001"/>
<path fill="#FFFFFF" d="M87.76,233.48c-0.907,0-1.646-0.738-1.646-1.646c0-0.907,0.739-1.646,1.646-1.646s1.646,0.738,1.646,1.646
	C89.406,232.742,88.667,233.48,87.76,233.48 M87.76,230.938c-0.493,0-0.896,0.401-0.896,0.896s0.403,0.896,0.896,0.896
	c0.494,0,0.896-0.402,0.896-0.896S88.254,230.938,87.76,230.938"/>
<path fill="#FFFFFF" d="M87.76,235.168c-1.838,0-3.334-1.496-3.334-3.334c0-1.837,1.496-3.333,3.334-3.333
	c1.839,0,3.333,1.496,3.333,3.333C91.093,233.672,89.599,235.168,87.76,235.168 M87.76,229.251c-1.425,0-2.584,1.159-2.584,2.583
	c0,1.425,1.159,2.584,2.584,2.584s2.583-1.159,2.583-2.584C90.343,230.41,89.185,229.251,87.76,229.251"/>
<rect x="86.196" y="221.369" fill="#B2D3DC" width="1.481" height="0.66"/>
<rect x="81.176" y="221.369" fill="#B2D3DC" width="1.48" height="0.66"/>
<rect x="50.282" y="222.031" fill="#B2D3DC" width="16.938" height="17.106"/>
<path fill="#62A9C4" d="M67.214,221.558c-0.015-0.614-0.397-1.114-0.869-1.114H51.157c-0.472,0-0.854,0.5-0.87,1.114H67.214z"/>
<path fill="#FFFFFF" d="M308.064,133.455c0,0.268-0.217,0.483-0.483,0.483c-0.269,0-0.485-0.216-0.485-0.483
	c0-0.269,0.217-0.484,0.485-0.484C307.848,132.971,308.064,133.187,308.064,133.455"/>
<path fill="#FFFFFF" d="M310.236,133.455c0,0.268-0.217,0.483-0.483,0.483c-0.269,0-0.485-0.216-0.485-0.483
	c0-0.269,0.217-0.484,0.485-0.484C310.02,132.971,310.236,133.187,310.236,133.455"/>
<path fill="#FFFFFF" d="M222.112,135.375c0,0.523-0.424,0.946-0.945,0.946c-0.523,0-0.948-0.423-0.948-0.946
	s0.425-0.945,0.948-0.945C221.688,134.43,222.112,134.852,222.112,135.375"/>
<rect x="203.083" y="17.181" fill="#62A9C4" width="22.611" height="50.833"/>
<path fill="#FFFFFF" d="M212.269,24.377h0.52c0.105-0.477,0.466-0.838,0.943-0.944v-0.519
	C212.977,23.028,212.383,23.621,212.269,24.377"/>
<path fill="#FFFFFF" d="M213.313,24.377h0.418v-0.418C213.539,24.034,213.388,24.184,213.313,24.377"/>
<path fill="#FFFFFF" d="M212.788,24.903h-0.521c0.116,0.756,0.708,1.349,1.466,1.463v-0.519
	C213.255,25.742,212.892,25.38,212.788,24.903"/>
<path fill="#FFFFFF" d="M213.731,25.321v-0.418h-0.418C213.388,25.096,213.539,25.247,213.731,25.321"/>
<path fill="#FFFFFF" d="M214.258,23.959v0.418h0.418C214.601,24.185,214.449,24.034,214.258,23.959"/>
<path fill="#FFFFFF" d="M214.676,24.903h-0.418v0.418C214.449,25.246,214.602,25.097,214.676,24.903"/>
<path fill="#FFFFFF" d="M223.46,23.107c0-1.368-1.119-2.487-2.486-2.487h-13.169c-1.368,0-2.486,1.119-2.486,2.487v31.727
	c0,0.175,0.02,0.346,0.055,0.511c-0.035,0.322-0.055,0.648-0.055,0.979c0,5.009,4.061,9.071,9.07,9.071s9.071-4.062,9.071-9.071
	c0-0.331-0.021-0.657-0.056-0.979c0.036-0.165,0.056-0.336,0.056-0.511V23.107z M217.172,24.903h-0.925
	c-0.122,1.044-0.945,1.867-1.989,1.989v0.925h-0.526v-0.925c-1.044-0.122-1.868-0.945-1.988-1.989h-0.925v-0.526h0.925
	c0.12-1.044,0.944-1.867,1.988-1.989v-0.925h0.526v0.925c1.044,0.122,1.867,0.945,1.989,1.989h0.925V24.903z"/>
<path fill="#FFFFFF" d="M214.258,22.914v0.52c0.477,0.105,0.838,0.466,0.943,0.943h0.52
	C215.606,23.622,215.014,23.029,214.258,22.914"/>
<path fill="#FFFFFF" d="M214.258,25.847v0.52c0.756-0.115,1.349-0.708,1.463-1.464h-0.52
	C215.096,25.38,214.734,25.742,214.258,25.847"/>
<path fill="#62A9C4" d="M238.688,17.143v5.771v1.323v0.843c0,1.983,1.622,3.605,3.604,3.605h7.125c1.982,0,3.604-1.622,3.604-3.605
	v-0.843v-1.323v-5.771H238.688z"/>
<path fill="#FFFFFF" d="M249.428,27.81h-7.146c-1.53,0-2.781-1.252-2.781-2.781v-1.833c0-1.53,1.251-2.781,2.781-2.781h7.146
	c1.529,0,2.78,1.251,2.78,2.781v1.833C252.208,26.558,250.957,27.81,249.428,27.81"/>
<path fill="#62A9C4" d="M244.646,24.053h0.363c0.073-0.334,0.327-0.587,0.661-0.661v-0.364
	C245.142,23.108,244.726,23.524,244.646,24.053"/>
<path fill="#62A9C4" d="M245.378,24.053h0.293V23.76C245.535,23.812,245.43,23.918,245.378,24.053"/>
<path fill="#62A9C4" d="M245.01,24.421h-0.364c0.08,0.53,0.496,0.945,1.024,1.025v-0.364
	C245.336,25.008,245.083,24.755,245.01,24.421"/>
<path fill="#62A9C4" d="M245.67,24.713V24.42h-0.293C245.43,24.556,245.535,24.662,245.67,24.713"/>
<path fill="#62A9C4" d="M246.039,23.76v0.293h0.293C246.279,23.918,246.174,23.812,246.039,23.76"/>
<path fill="#62A9C4" d="M246.331,24.421h-0.293v0.293C246.174,24.662,246.279,24.556,246.331,24.421"/>
<path fill="#62A9C4" d="M246.039,23.027v0.364c0.334,0.074,0.587,0.327,0.661,0.661h0.362
	C246.983,23.523,246.567,23.107,246.039,23.027"/>
<path fill="#62A9C4" d="M246.039,25.082v0.364c0.529-0.08,0.944-0.496,1.023-1.025H246.7
	C246.626,24.755,246.373,25.008,246.039,25.082"/>
<path fill="#62A9C4" d="M187.083,50.196h-2.375c-2.476,0-4.5-2.025-4.5-4.5v-4.625c0-2.475,2.024-4.5,4.5-4.5h2.375
	c2.475,0,4.5,2.025,4.5,4.5v4.625C191.583,48.171,189.558,50.196,187.083,50.196"/>
<path fill="#FFFFFF" d="M186.693,49.122h-1.596c-2.156,0-3.911-1.754-3.911-3.91v-5.231c0-2.156,1.755-3.911,3.911-3.911h1.596
	c2.156,0,3.91,1.755,3.91,3.911v5.231C190.604,47.368,188.85,49.122,186.693,49.122 M185.098,37.07
	c-1.604,0-2.911,1.306-2.911,2.911v5.231c0,1.604,1.308,2.91,2.911,2.91h1.596c1.605,0,2.91-1.306,2.91-2.91v-5.231
	c0-1.605-1.305-2.911-2.91-2.911H185.098z"/>
<path fill="#62A9C4" d="M191.146,36.874h-10.5c-0.619,0-1.125-0.506-1.125-1.125v-4.5c0-0.619,0.506-1.125,1.125-1.125h10.5
	c0.619,0,1.125,0.506,1.125,1.125v4.5C192.271,36.368,191.765,36.874,191.146,36.874"/>
<path fill="#62A9C4" d="M187.646,38.613h-3.5c-0.269,0-0.49-0.22-0.49-0.49v-2.5c0-0.269,0.222-0.489,0.49-0.489h3.5
	c0.269,0,0.49,0.22,0.49,0.489v2.5C188.136,38.393,187.914,38.613,187.646,38.613"/>
<path fill="#FFFFFF" d="M186.842,33.499c0,0.523-0.424,0.946-0.946,0.946s-0.946-0.423-0.946-0.946s0.424-0.946,0.946-0.946
	S186.842,32.976,186.842,33.499"/>
<rect x="132.722" y="210.296" fill="#2E2D4B" width="8.637" height="2.837"/>
<rect x="132.722" y="211.281" fill="#2E2D4B" width="2.837" height="10.733"/>
<rect x="126.219" y="221.558" fill="#2E2D4B" width="2.837" height="19.015"/>
<rect x="126.219" y="220.595" fill="#2E2D4B" width="15.14" height="2.837"/>
<rect x="129.057" y="223.373" fill="#9C9D9A" width="9.906" height="15.765"/>
<polygon fill="#EEEDEC" points="132.386,226.227 129.056,239.137 138.963,239.137 138.963,223.372 "/>
<rect x="135.559" y="213.133" fill="#EEEDEC" width="4.141" height="7.463"/>
<rect x="67.202" y="222.029" fill="#CFE9EF" width="9.6" height="17.137"/>
<rect x="92.052" y="222.029" fill="#CFE9EF" width="12.78" height="17.137"/>
<path fill="#E3004F" d="M332.127,97.026h-34.249v-8.393L309.4,76.98c3.293-3.442,5.445-5.794,6.457-7.053
	c1.012-1.258,1.716-2.339,2.114-3.244c0.398-0.903,0.597-1.85,0.597-2.841c0-1.226-0.397-2.194-1.193-2.904
	c-0.797-0.711-1.916-1.065-3.357-1.065c-1.484,0-2.985,0.424-4.503,1.274c-1.517,0.851-3.233,2.105-5.148,3.761l-7.005-8.199
	c2.432-2.173,4.476-3.728,6.133-4.664c1.656-0.936,3.459-1.652,5.406-2.147c1.948-0.495,4.138-0.742,6.57-0.742
	c3.055,0,5.782,0.538,8.182,1.613c2.4,1.077,4.262,2.611,5.585,4.601c1.324,1.99,1.985,4.223,1.985,6.697
	c0,1.852-0.231,3.563-0.693,5.133c-0.465,1.571-1.179,3.115-2.147,4.632c-0.968,1.517-2.254,3.115-3.858,4.794
	c-1.603,1.678-5.019,4.863-10.248,9.554v0.323h17.852V97.026z"/>
<path fill="#2E2D4B" d="M346.686,54.772c0,0.987-0.302,1.834-0.904,2.542c-0.603,0.707-1.473,1.221-2.613,1.54v0.065
	c2.657,0.334,3.985,1.589,3.985,3.767c0,1.481-0.586,2.645-1.758,3.494c-1.173,0.849-2.8,1.274-4.883,1.274
	c-0.856,0-1.648-0.062-2.378-0.186c-0.729-0.123-1.519-0.348-2.368-0.675v-3.57c0.697,0.355,1.406,0.619,2.128,0.789
	c0.723,0.171,1.389,0.256,1.998,0.256c0.943,0,1.631-0.132,2.063-0.398c0.432-0.264,0.647-0.679,0.647-1.246
	c0-0.436-0.112-0.771-0.337-1.006c-0.227-0.236-0.588-0.415-1.089-0.534c-0.501-0.12-1.153-0.179-1.959-0.179h-0.979v-3.234h1.001
	c2.185,0,3.276-0.558,3.276-1.676c0-0.42-0.161-0.733-0.484-0.936c-0.322-0.203-0.756-0.305-1.301-0.305
	c-1.016,0-2.068,0.341-3.156,1.024l-1.785-2.874c0.842-0.58,1.703-0.995,2.584-1.242c0.883-0.246,1.894-0.37,3.032-0.37
	c1.647,0,2.939,0.327,3.876,0.979C346.217,52.726,346.686,53.626,346.686,54.772"/>
<path fill="#2E2D4B" d="M360.4,58.604c0,3.113-0.671,5.366-2.014,6.76c-1.343,1.393-3.49,2.089-6.444,2.089
	c-0.974,0-1.713-0.036-2.221-0.109v-3.406c0.624,0.115,1.247,0.174,1.872,0.174c1.539,0,2.726-0.318,3.561-0.952
	c0.834-0.636,1.288-1.639,1.36-3.011h-0.132c-0.282,0.522-0.562,0.9-0.837,1.133c-0.276,0.232-0.613,0.41-1.013,0.533
	c-0.4,0.123-0.896,0.184-1.491,0.184c-1.379,0-2.456-0.46-3.233-1.381c-0.776-0.922-1.164-2.192-1.164-3.811
	c0-1.763,0.502-3.146,1.508-4.147c1.005-1.001,2.382-1.502,4.131-1.502c1.944,0,3.45,0.646,4.518,1.937
	C359.867,54.388,360.4,56.224,360.4,58.604 M354.402,54.599c-0.472,0-0.854,0.17-1.148,0.511c-0.294,0.342-0.44,0.889-0.44,1.644
	c0,0.595,0.127,1.069,0.381,1.42c0.254,0.353,0.643,0.529,1.165,0.529c0.472,0,0.882-0.171,1.229-0.512
	c0.349-0.341,0.522-0.751,0.522-1.23c0-0.646-0.161-1.2-0.484-1.665C355.305,54.83,354.896,54.599,354.402,54.599"/>
<path fill="#2E2D4B" d="M366.551,63.981l0.152,0.25c-0.704,2.766-1.343,4.801-1.916,6.107h-3.037
	c0.211-1.002,0.423-2.125,0.637-3.369c0.215-1.244,0.361-2.24,0.441-2.988H366.551z"/>
<path fill="#2E2D4B" d="M380.746,64.155h-1.753v3.081h-4.245v-3.081h-6.347V61l6.618-9.678h3.974v9.623h1.753V64.155z
	 M374.748,60.944v-1.851c0-0.348,0.013-0.818,0.038-1.409c0.024-0.592,0.045-0.902,0.06-0.93h-0.12
	c-0.247,0.558-0.525,1.081-0.838,1.567l-1.764,2.623H374.748z"/>
<path fill="#2E2D4B" d="M393.362,59.301c0,2.815-0.473,4.879-1.415,6.188c-0.945,1.31-2.388,1.965-4.333,1.965
	c-1.901,0-3.335-0.683-4.3-2.051c-0.965-1.369-1.447-3.403-1.447-6.102c0-2.83,0.472-4.905,1.415-6.227
	c0.943-1.32,2.386-1.981,4.332-1.981c1.895,0,3.325,0.687,4.295,2.063C392.877,54.531,393.362,56.579,393.362,59.301
	 M386.145,59.301c0,1.8,0.112,3.037,0.338,3.712c0.224,0.675,0.602,1.013,1.132,1.013c0.537,0,0.916-0.349,1.138-1.045
	c0.222-0.698,0.332-1.924,0.332-3.68c0-1.764-0.112-2.999-0.338-3.707c-0.225-0.707-0.603-1.061-1.132-1.061
	c-0.53,0-0.908,0.341-1.132,1.023C386.257,56.238,386.145,57.487,386.145,59.301"/>
<path fill="#2E2D4B" d="M335.767,87.241c0-2.221,0.317-4.019,0.953-5.394s1.57-2.389,2.808-3.043
	c1.237-0.652,2.764-0.979,4.578-0.979c0.646,0,1.4,0.062,2.264,0.185v3.364c-0.726-0.138-1.514-0.207-2.362-0.207
	c-1.437,0-2.507,0.316-3.211,0.947c-0.704,0.632-1.089,1.662-1.153,3.092h0.129c0.654-1.233,1.703-1.851,3.147-1.851
	c1.415,0,2.513,0.455,3.293,1.366c0.779,0.911,1.17,2.179,1.17,3.805c0,1.749-0.494,3.129-1.481,4.142
	c-0.986,1.012-2.365,1.518-4.136,1.518c-1.88,0-3.349-0.609-4.409-1.829C336.297,91.138,335.767,89.434,335.767,87.241
	 M341.667,90.779c0.457,0,0.829-0.172,1.115-0.517c0.287-0.344,0.431-0.894,0.431-1.649c0-1.292-0.501-1.938-1.503-1.938
	c-0.493,0-0.896,0.167-1.202,0.5c-0.309,0.334-0.463,0.741-0.463,1.22c0,0.697,0.148,1.268,0.446,1.714
	C340.789,90.555,341.181,90.779,341.667,90.779"/>
<path fill="#2E2D4B" d="M354.643,77.825c1.676,0,2.98,0.338,3.913,1.013s1.398,1.633,1.398,2.874c0,0.842-0.22,1.58-0.658,2.215
	c-0.439,0.635-1.134,1.188-2.085,1.66c1.176,0.668,2.005,1.333,2.487,1.997s0.725,1.381,0.725,2.151c0,1.415-0.512,2.51-1.535,3.287
	c-1.023,0.776-2.454,1.165-4.289,1.165c-1.872,0-3.306-0.379-4.3-1.138c-0.994-0.758-1.49-1.849-1.49-3.271
	c0-0.921,0.221-1.707,0.663-2.357c0.442-0.649,1.187-1.239,2.231-1.768c-0.842-0.567-1.457-1.174-1.845-1.824
	c-0.389-0.649-0.583-1.362-0.583-2.139c0-1.219,0.476-2.168,1.427-2.846C351.652,78.165,352.966,77.825,354.643,77.825
	 M352.748,89.604c0,0.45,0.159,0.812,0.479,1.083c0.32,0.272,0.763,0.408,1.328,0.408c1.277,0,1.916-0.468,1.916-1.404
	c0-0.356-0.14-0.705-0.419-1.05c-0.279-0.345-0.778-0.732-1.497-1.159c-0.646,0.341-1.108,0.683-1.388,1.028
	S352.748,89.219,352.748,89.604 M354.62,80.928c-0.37,0-0.682,0.107-0.937,0.321c-0.253,0.214-0.38,0.491-0.38,0.833
	c0,0.624,0.423,1.176,1.273,1.655c0.515-0.298,0.867-0.57,1.056-0.817s0.283-0.526,0.283-0.838c0-0.348-0.127-0.628-0.381-0.839
	C355.281,81.033,354.975,80.928,354.62,80.928"/>
<path fill="#2E2D4B" d="M366.551,90.714l0.152,0.25c-0.704,2.766-1.343,4.801-1.916,6.107h-3.037
	c0.211-1.002,0.423-2.125,0.637-3.369c0.215-1.244,0.361-2.24,0.441-2.988H366.551z"/>
<path fill="#2E2D4B" d="M380.3,86.033c0,2.815-0.473,4.879-1.415,6.188c-0.945,1.31-2.388,1.965-4.333,1.965
	c-1.901,0-3.335-0.683-4.3-2.051c-0.965-1.369-1.447-3.403-1.447-6.102c0-2.83,0.472-4.905,1.415-6.227
	c0.943-1.32,2.386-1.981,4.332-1.981c1.895,0,3.325,0.687,4.295,2.063C379.814,81.263,380.3,83.312,380.3,86.033 M373.082,86.033
	c0,1.8,0.112,3.037,0.338,3.712c0.224,0.675,0.602,1.013,1.132,1.013c0.537,0,0.916-0.349,1.138-1.045
	c0.222-0.698,0.332-1.924,0.332-3.68c0-1.764-0.112-2.999-0.338-3.707c-0.225-0.707-0.603-1.061-1.132-1.061
	c-0.53,0-0.908,0.341-1.132,1.023C373.194,82.97,373.082,84.219,373.082,86.033"/>
<path fill="#2E2D4B" d="M393.362,86.033c0,2.815-0.473,4.879-1.415,6.188c-0.945,1.31-2.388,1.965-4.333,1.965
	c-1.901,0-3.335-0.683-4.3-2.051c-0.965-1.369-1.447-3.403-1.447-6.102c0-2.83,0.472-4.905,1.415-6.227
	c0.943-1.32,2.386-1.981,4.332-1.981c1.895,0,3.325,0.687,4.295,2.063C392.877,81.263,393.362,83.312,393.362,86.033
	 M386.145,86.033c0,1.8,0.112,3.037,0.338,3.712c0.224,0.675,0.602,1.013,1.132,1.013c0.537,0,0.916-0.349,1.138-1.045
	c0.222-0.698,0.332-1.924,0.332-3.68c0-1.764-0.112-2.999-0.338-3.707c-0.225-0.707-0.603-1.061-1.132-1.061
	c-0.53,0-0.908,0.341-1.132,1.023C386.257,82.97,386.145,84.219,386.145,86.033"/>
<rect x="335.006" y="72.629" fill="#2E2D4B" width="58.897" height="1.775"/>
<path fill="#2E2D4B" d="M27.682,33.499h-2.845v-5.49c0-0.667,0.014-1.278,0.042-1.83c-0.176,0.213-0.393,0.434-0.652,0.666
	l-1.178,0.972l-1.454-1.788l3.562-2.901h2.525V33.499z"/>
<polygon fill="#2E2D4B" points="30.994,33.499 34.556,25.462 30.065,25.462 30.065,23.143 37.549,23.143 37.549,24.795 
	33.895,33.499 "/>
<path fill="#2E2D4B" d="M41.557,31.378l0.1,0.163c-0.459,1.802-0.875,3.129-1.248,3.98h-1.979c0.137-0.653,0.274-1.384,0.415-2.196
	c0.14-0.81,0.234-1.46,0.287-1.947H41.557z"/>
<polygon fill="#2E2D4B" points="43.997,33.499 47.559,25.462 43.068,25.462 43.068,23.143 50.552,23.143 50.552,24.795 
	46.898,33.499 "/>
<path fill="#2E2D4B" d="M59.029,28.328c0,1.835-0.307,3.179-0.923,4.032c-0.614,0.854-1.556,1.28-2.823,1.28
	c-1.238,0-2.173-0.445-2.802-1.336c-0.629-0.892-0.943-2.217-0.943-3.976c0-1.845,0.308-3.197,0.922-4.058
	c0.615-0.861,1.556-1.291,2.823-1.291c1.234,0,2.167,0.449,2.799,1.344C58.713,25.22,59.029,26.555,59.029,28.328 M54.326,28.328
	c0,1.173,0.073,1.979,0.22,2.419c0.146,0.439,0.393,0.659,0.737,0.659c0.351,0,0.598-0.226,0.741-0.681
	c0.145-0.454,0.217-1.252,0.217-2.397c0-1.149-0.073-1.955-0.22-2.416s-0.393-0.691-0.738-0.691c-0.345,0-0.591,0.222-0.737,0.667
	C54.399,26.332,54.326,27.145,54.326,28.328"/>
<path fill="#2E2D4B" d="M281.646,33.499h-7.526v-1.845l2.532-2.56c0.723-0.757,1.196-1.274,1.419-1.55
	c0.222-0.276,0.377-0.515,0.465-0.713c0.087-0.198,0.132-0.406,0.132-0.624c0-0.27-0.088-0.482-0.264-0.639
	c-0.175-0.156-0.421-0.234-0.736-0.234c-0.327,0-0.657,0.094-0.99,0.28c-0.334,0.188-0.711,0.463-1.133,0.826l-1.538-1.801
	c0.534-0.478,0.983-0.82,1.348-1.025c0.364-0.206,0.76-0.363,1.188-0.471c0.428-0.11,0.909-0.164,1.443-0.164
	c0.671,0,1.271,0.119,1.798,0.355c0.527,0.236,0.937,0.573,1.228,1.011c0.291,0.437,0.437,0.927,0.437,1.471
	c0,0.408-0.051,0.784-0.153,1.128c-0.102,0.346-0.259,0.685-0.472,1.019c-0.212,0.333-0.495,0.684-0.848,1.053
	c-0.352,0.369-1.103,1.069-2.252,2.099v0.071h3.923V33.499z"/>
<path fill="#2E2D4B" d="M288.883,33.499h-2.845v-5.49c0-0.667,0.014-1.278,0.042-1.83c-0.176,0.213-0.393,0.434-0.652,0.666
	l-1.178,0.972l-1.454-1.788l3.562-2.901h2.525V33.499z"/>
<path fill="#2E2D4B" d="M294.245,31.378l0.1,0.163c-0.459,1.802-0.875,3.129-1.248,3.98h-1.979c0.137-0.653,0.275-1.384,0.415-2.196
	c0.14-0.81,0.235-1.46,0.287-1.947H294.245z"/>
<path fill="#2E2D4B" d="M295.699,29.115c0-1.447,0.207-2.619,0.621-3.514c0.414-0.897,1.023-1.558,1.83-1.984
	c0.807-0.425,1.801-0.637,2.983-0.637c0.421,0,0.912,0.04,1.474,0.12v2.192c-0.472-0.09-0.984-0.135-1.539-0.135
	c-0.936,0-1.633,0.205-2.092,0.618c-0.458,0.411-0.709,1.083-0.752,2.014h0.086c0.424-0.805,1.108-1.206,2.049-1.206
	c0.923,0,1.639,0.297,2.146,0.89c0.509,0.594,0.763,1.42,0.763,2.479c0,1.14-0.321,2.039-0.965,2.699
	c-0.643,0.661-1.542,0.99-2.696,0.99c-1.224,0-2.182-0.397-2.873-1.192C296.045,31.654,295.699,30.543,295.699,29.115
	 M299.544,31.421c0.299,0,0.541-0.112,0.728-0.337s0.28-0.583,0.28-1.075c0-0.842-0.326-1.263-0.979-1.263
	c-0.322,0-0.583,0.11-0.784,0.326c-0.201,0.218-0.302,0.483-0.302,0.795c0,0.454,0.097,0.826,0.29,1.117
	C298.973,31.275,299.228,31.421,299.544,31.421"/>
<path fill="#2E2D4B" d="M311.718,28.328c0,1.835-0.308,3.179-0.923,4.032c-0.614,0.854-1.556,1.28-2.823,1.28
	c-1.238,0-2.173-0.445-2.802-1.336c-0.629-0.892-0.943-2.217-0.943-3.976c0-1.845,0.308-3.197,0.922-4.058
	c0.615-0.861,1.555-1.291,2.823-1.291c1.233,0,2.167,0.449,2.799,1.344C311.401,25.22,311.718,26.555,311.718,28.328
	 M307.015,28.328c0,1.173,0.073,1.979,0.22,2.419c0.146,0.439,0.393,0.659,0.737,0.659c0.351,0,0.598-0.226,0.741-0.681
	c0.145-0.454,0.217-1.252,0.217-2.397c0-1.149-0.073-1.955-0.22-2.416s-0.393-0.691-0.738-0.691c-0.345,0-0.591,0.222-0.737,0.667
	C307.088,26.332,307.015,27.145,307.015,28.328"/>
<path fill="#2E2D4B" d="M63.433,131.104h-2.845v-5.49c0-0.667,0.014-1.278,0.042-1.829c-0.175,0.213-0.393,0.434-0.652,0.666
	l-1.178,0.972l-1.454-1.788l3.562-2.901h2.525V131.104z"/>
<path fill="#2E2D4B" d="M73.555,129.097h-1.142v2.009h-2.767v-2.009h-4.136v-2.057l4.313-6.308h2.589v6.271h1.142V129.097z
	 M69.646,127.004v-1.205c0-0.229,0.008-0.533,0.024-0.919s0.03-0.588,0.038-0.606h-0.076c-0.161,0.364-0.344,0.705-0.547,1.021
	l-1.149,1.709H69.646z"/>
<path fill="#2E2D4B" d="M77.308,128.983l0.1,0.163c-0.459,1.802-0.875,3.129-1.248,3.98H74.18c0.137-0.653,0.275-1.385,0.415-2.196
	c0.14-0.81,0.235-1.46,0.287-1.947H77.308z"/>
<path fill="#2E2D4B" d="M85.877,122.982c0,0.643-0.196,1.195-0.589,1.656c-0.392,0.461-0.96,0.796-1.702,1.004v0.042
	c1.73,0.218,2.596,1.036,2.596,2.455c0,0.965-0.382,1.724-1.146,2.276c-0.763,0.554-1.824,0.83-3.181,0.83
	c-0.559,0-1.075-0.039-1.551-0.119c-0.475-0.082-0.989-0.229-1.543-0.441v-2.326c0.454,0.23,0.917,0.403,1.388,0.516
	c0.47,0.109,0.904,0.166,1.301,0.166c0.615,0,1.063-0.086,1.345-0.26c0.281-0.173,0.422-0.443,0.422-0.813
	c0-0.283-0.073-0.502-0.22-0.656c-0.146-0.153-0.383-0.27-0.709-0.348c-0.327-0.077-0.752-0.116-1.277-0.116h-0.639v-2.107h0.653
	c1.423,0,2.135-0.364,2.135-1.092c0-0.274-0.105-0.478-0.315-0.61c-0.211-0.133-0.493-0.199-0.848-0.199
	c-0.662,0-1.348,0.223-2.057,0.666l-1.164-1.871c0.549-0.379,1.11-0.648,1.685-0.809c0.575-0.16,1.233-0.24,1.977-0.24
	c1.072,0,1.914,0.211,2.524,0.637S85.877,122.235,85.877,122.982"/>
<path fill="#2E2D4B" d="M94.78,125.934c0,1.835-0.307,3.18-0.923,4.032c-0.614,0.854-1.556,1.28-2.823,1.28
	c-1.238,0-2.173-0.445-2.802-1.336c-0.629-0.893-0.943-2.218-0.943-3.977c0-1.845,0.309-3.197,0.922-4.059
	c0.615-0.86,1.556-1.291,2.823-1.291c1.234,0,2.167,0.449,2.799,1.345C94.464,122.826,94.78,124.16,94.78,125.934 M90.077,125.934
	c0,1.173,0.073,1.979,0.22,2.419c0.146,0.438,0.393,0.659,0.737,0.659c0.351,0,0.598-0.227,0.741-0.682
	c0.145-0.453,0.217-1.252,0.217-2.396c0-1.148-0.073-1.955-0.22-2.416s-0.393-0.691-0.738-0.691c-0.345,0-0.591,0.223-0.737,0.668
	C90.15,123.938,90.077,124.75,90.077,125.934"/>
<path fill="#2E2D4B" d="M238.025,54.1c0,0.603-0.184,1.12-0.552,1.552c-0.368,0.431-0.899,0.745-1.595,0.94v0.04
	c1.621,0.203,2.432,0.97,2.432,2.299c0,0.903-0.357,1.614-1.072,2.133c-0.716,0.518-1.709,0.777-2.98,0.777
	c-0.522,0-1.007-0.038-1.452-0.113c-0.445-0.075-0.927-0.212-1.445-0.411v-2.18c0.426,0.217,0.858,0.378,1.299,0.482
	c0.441,0.104,0.847,0.156,1.22,0.156c0.576,0,0.995-0.081,1.259-0.242c0.264-0.162,0.396-0.416,0.396-0.761
	c0-0.267-0.068-0.471-0.206-0.615c-0.137-0.144-0.358-0.252-0.664-0.326c-0.306-0.073-0.704-0.109-1.196-0.109h-0.598v-1.974h0.611
	c1.333,0,2-0.341,2-1.023c0-0.257-0.1-0.447-0.296-0.571c-0.197-0.124-0.462-0.187-0.794-0.187c-0.62,0-1.263,0.209-1.928,0.625
	l-1.089-1.754c0.514-0.354,1.04-0.607,1.578-0.758c0.538-0.15,1.155-0.225,1.851-0.225c1.005,0,1.794,0.199,2.365,0.598
	C237.739,52.851,238.025,53.4,238.025,54.1"/>
<path fill="#2E2D4B" d="M242.178,59.722l0.094,0.152c-0.43,1.688-0.82,2.931-1.17,3.728h-1.854c0.128-0.611,0.258-1.297,0.389-2.057
	c0.131-0.76,0.22-1.367,0.269-1.823H242.178z"/>
<path fill="#2E2D4B" d="M250.604,56.438c0,1.901-0.41,3.277-1.229,4.127c-0.819,0.851-2.131,1.276-3.934,1.276
	c-0.594,0-1.045-0.023-1.355-0.067v-2.08c0.38,0.071,0.762,0.107,1.144,0.107c0.938,0,1.663-0.194,2.172-0.581
	c0.51-0.388,0.787-1,0.831-1.837h-0.08c-0.173,0.318-0.343,0.548-0.512,0.69c-0.168,0.142-0.374,0.25-0.617,0.326
	c-0.244,0.075-0.548,0.113-0.911,0.113c-0.841,0-1.499-0.282-1.973-0.844c-0.475-0.563-0.711-1.338-0.711-2.325
	c0-1.078,0.307-1.921,0.92-2.533c0.613-0.611,1.453-0.917,2.521-0.917c1.188,0,2.106,0.395,2.758,1.183
	C250.278,53.865,250.604,54.986,250.604,56.438 M246.942,53.993c-0.288,0-0.521,0.104-0.701,0.312
	c-0.18,0.209-0.269,0.543-0.269,1.004c0,0.364,0.076,0.653,0.232,0.868c0.154,0.214,0.392,0.322,0.711,0.322
	c0.288,0,0.538-0.105,0.751-0.313c0.212-0.208,0.318-0.459,0.318-0.751c0-0.394-0.099-0.733-0.296-1.016
	C247.493,54.136,247.243,53.993,246.942,53.993"/>
<path fill="#2E2D4B" d="M258.544,56.864c0,1.719-0.288,2.978-0.864,3.777c-0.575,0.8-1.457,1.2-2.645,1.2
	c-1.16,0-2.035-0.417-2.625-1.252c-0.588-0.835-0.883-2.078-0.883-3.725c0-1.728,0.288-2.994,0.863-3.801
	c0.576-0.806,1.458-1.209,2.645-1.209c1.156,0,2.03,0.419,2.622,1.259C258.248,53.953,258.544,55.203,258.544,56.864
	 M254.139,56.864c0,1.099,0.068,1.854,0.206,2.266c0.137,0.412,0.367,0.618,0.69,0.618c0.328,0,0.56-0.213,0.694-0.638
	c0.136-0.426,0.203-1.174,0.203-2.246c0-1.076-0.068-1.831-0.206-2.263c-0.138-0.431-0.367-0.647-0.691-0.647
	c-0.323,0-0.554,0.208-0.69,0.624C254.207,54.995,254.139,55.757,254.139,56.864"/>
<path fill="#2E2D4B" d="M210.116,108.857c1.093,0,1.942,0.219,2.55,0.659c0.608,0.44,0.912,1.064,0.912,1.873
	c0,0.549-0.143,1.029-0.429,1.443s-0.739,0.775-1.358,1.082c0.766,0.436,1.306,0.869,1.62,1.302s0.472,0.899,0.472,1.4
	c0,0.923-0.333,1.637-1,2.143c-0.667,0.507-1.599,0.759-2.795,0.759c-1.22,0-2.154-0.246-2.802-0.742
	c-0.647-0.493-0.972-1.203-0.972-2.131c0-0.601,0.145-1.112,0.433-1.535c0.288-0.424,0.773-0.808,1.454-1.153
	c-0.549-0.368-0.949-0.765-1.203-1.187c-0.252-0.424-0.379-0.888-0.379-1.395c0-0.794,0.31-1.412,0.93-1.854
	C208.168,109.077,209.024,108.857,210.116,108.857 M208.882,116.531c0,0.294,0.104,0.529,0.313,0.705
	c0.208,0.179,0.497,0.267,0.865,0.267c0.833,0,1.249-0.305,1.249-0.915c0-0.23-0.092-0.46-0.273-0.686
	c-0.182-0.224-0.507-0.475-0.976-0.754c-0.421,0.222-0.724,0.445-0.904,0.67C208.974,116.043,208.882,116.281,208.882,116.531
	 M210.103,110.878c-0.241,0-0.444,0.069-0.61,0.209c-0.165,0.14-0.248,0.32-0.248,0.543c0,0.406,0.276,0.766,0.83,1.078
	c0.336-0.194,0.564-0.371,0.688-0.532c0.123-0.16,0.185-0.343,0.185-0.546c0-0.228-0.083-0.409-0.248-0.546
	C210.532,110.946,210.334,110.878,210.103,110.878"/>
<path fill="#2E2D4B" d="M217.877,117.255l0.1,0.163c-0.459,1.802-0.875,3.129-1.248,3.98h-1.979
	c0.137-0.653,0.274-1.385,0.415-2.196c0.14-0.81,0.234-1.46,0.287-1.947H217.877z"/>
<path fill="#2E2D4B" d="M227.127,117.368h-1.142v2.009h-2.767v-2.009h-4.136v-2.057l4.313-6.307h2.589v6.271h1.142V117.368z
	 M223.219,115.275v-1.205c0-0.229,0.008-0.533,0.023-0.919c0.018-0.386,0.031-0.588,0.039-0.606h-0.076
	c-0.161,0.364-0.344,0.705-0.547,1.021l-1.149,1.709H223.219z"/>
<path fill="#2E2D4B" d="M235.35,114.205c0,1.835-0.307,3.18-0.923,4.032c-0.614,0.854-1.556,1.28-2.823,1.28
	c-1.238,0-2.173-0.445-2.802-1.336c-0.63-0.893-0.943-2.218-0.943-3.977c0-1.845,0.308-3.197,0.922-4.058
	c0.615-0.861,1.556-1.291,2.823-1.291c1.234,0,2.167,0.449,2.799,1.344C235.033,111.097,235.35,112.432,235.35,114.205
	 M230.646,114.205c0,1.173,0.073,1.979,0.22,2.419c0.146,0.438,0.393,0.659,0.737,0.659c0.351,0,0.598-0.227,0.741-0.682
	c0.145-0.453,0.217-1.252,0.217-2.396c0-1.149-0.073-1.955-0.22-2.416s-0.393-0.691-0.738-0.691c-0.345,0-0.591,0.222-0.737,0.667
	C230.72,112.209,230.646,113.022,230.646,114.205"/>
<path fill="#2E2D4B" d="M179.163,62.274h-7.05v-1.728l2.372-2.398c0.678-0.709,1.121-1.193,1.329-1.452
	c0.207-0.259,0.354-0.482,0.436-0.668c0.081-0.186,0.122-0.381,0.122-0.585c0-0.252-0.082-0.451-0.245-0.598
	c-0.164-0.146-0.395-0.219-0.691-0.219c-0.306,0-0.614,0.087-0.927,0.262c-0.313,0.175-0.666,0.434-1.06,0.775l-1.442-1.688
	c0.501-0.447,0.922-0.767,1.263-0.96c0.341-0.193,0.712-0.341,1.113-0.442c0.4-0.102,0.852-0.153,1.352-0.153
	c0.629,0,1.19,0.111,1.685,0.333c0.494,0.221,0.877,0.537,1.149,0.946c0.272,0.41,0.408,0.87,0.408,1.379
	c0,0.381-0.047,0.733-0.143,1.056c-0.095,0.324-0.242,0.642-0.442,0.953c-0.198,0.313-0.463,0.642-0.793,0.988
	c-0.331,0.345-1.033,1.001-2.109,1.967v0.066h3.674V62.274z"/>
<path fill="#2E2D4B" d="M182.99,60.288l0.094,0.152c-0.43,1.688-0.82,2.931-1.17,3.728h-1.854c0.128-0.611,0.258-1.297,0.389-2.057
	c0.131-0.76,0.22-1.367,0.269-1.823H182.99z"/>
<path fill="#2E2D4B" d="M191.383,57.431c0,1.719-0.288,2.978-0.864,3.777c-0.575,0.8-1.457,1.2-2.646,1.2
	c-1.159,0-2.034-0.417-2.623-1.252s-0.884-2.078-0.884-3.725c0-1.728,0.288-2.994,0.863-3.801c0.576-0.806,1.458-1.209,2.644-1.209
	c1.157,0,2.031,0.419,2.623,1.259C191.086,54.52,191.383,55.77,191.383,57.431 M186.978,57.431c0,1.099,0.068,1.854,0.206,2.266
	c0.137,0.412,0.367,0.618,0.689,0.618c0.329,0,0.561-0.213,0.695-0.638c0.136-0.426,0.203-1.174,0.203-2.246
	c0-1.076-0.068-1.831-0.206-2.263c-0.138-0.431-0.367-0.647-0.692-0.647c-0.322,0-0.553,0.208-0.689,0.624
	C187.046,55.562,186.978,56.324,186.978,57.431"/>
<path fill="#2E2D4B" d="M199.356,57.431c0,1.719-0.288,2.978-0.864,3.777c-0.575,0.8-1.457,1.2-2.645,1.2
	c-1.16,0-2.035-0.417-2.625-1.252c-0.588-0.835-0.883-2.078-0.883-3.725c0-1.728,0.288-2.994,0.863-3.801
	c0.576-0.806,1.458-1.209,2.645-1.209c1.156,0,2.03,0.419,2.622,1.259C199.061,54.52,199.356,55.77,199.356,57.431 M194.951,57.431
	c0,1.099,0.068,1.854,0.206,2.266c0.137,0.412,0.367,0.618,0.69,0.618c0.328,0,0.56-0.213,0.694-0.638
	c0.136-0.426,0.203-1.174,0.203-2.246c0-1.076-0.068-1.831-0.206-2.263c-0.138-0.431-0.367-0.647-0.691-0.647
	c-0.323,0-0.554,0.208-0.69,0.624C195.02,55.562,194.951,56.324,194.951,57.431"/>
<rect y="118.273" fill="#2E2D4B" width="3.5" height="127.893"/>
<rect y="242.541" fill="#2E2D4B" width="44.583" height="3.625"/>
<path fill="#2E2D4B" d="M11.458,239.903H3.932v-1.845l2.532-2.561c0.723-0.757,1.196-1.273,1.419-1.55s0.377-0.515,0.465-0.713
	c0.087-0.198,0.131-0.405,0.131-0.624c0-0.27-0.087-0.482-0.263-0.639c-0.175-0.156-0.421-0.234-0.737-0.234
	c-0.326,0-0.656,0.094-0.989,0.28c-0.334,0.188-0.711,0.463-1.132,0.825l-1.539-1.801c0.534-0.478,0.983-0.819,1.348-1.024
	c0.364-0.206,0.76-0.363,1.188-0.472c0.429-0.109,0.91-0.164,1.444-0.164c0.671,0,1.271,0.119,1.798,0.355s0.937,0.573,1.228,1.012
	c0.291,0.437,0.437,0.926,0.437,1.471c0,0.408-0.051,0.783-0.152,1.128c-0.103,0.346-0.26,0.685-0.473,1.019
	c-0.212,0.333-0.495,0.684-0.848,1.053c-0.352,0.369-1.103,1.069-2.252,2.1v0.07h3.923V239.903z"/>
<path fill="#2E2D4B" d="M15.544,237.782l0.1,0.163c-0.459,1.802-0.875,3.129-1.247,3.98h-1.98c0.137-0.653,0.275-1.385,0.415-2.196
	c0.14-0.81,0.235-1.46,0.287-1.947H15.544z"/>
<path fill="#2E2D4B" d="M24.113,231.781c0,0.643-0.196,1.195-0.589,1.656s-0.96,0.796-1.702,1.004v0.042
	c1.73,0.218,2.596,1.036,2.596,2.455c0,0.965-0.382,1.724-1.146,2.276c-0.763,0.554-1.824,0.83-3.181,0.83
	c-0.559,0-1.075-0.039-1.551-0.119c-0.475-0.082-0.99-0.229-1.543-0.441v-2.326c0.454,0.23,0.917,0.403,1.387,0.516
	c0.471,0.109,0.905,0.166,1.302,0.166c0.614,0,1.063-0.086,1.345-0.26c0.281-0.173,0.422-0.443,0.422-0.813
	c0-0.283-0.073-0.502-0.22-0.656c-0.146-0.153-0.383-0.27-0.709-0.348c-0.327-0.077-0.752-0.116-1.277-0.116h-0.639v-2.107h0.653
	c1.423,0,2.135-0.364,2.135-1.092c0-0.274-0.105-0.478-0.315-0.61c-0.211-0.133-0.493-0.199-0.848-0.199
	c-0.662,0-1.349,0.223-2.058,0.666l-1.163-1.871c0.549-0.379,1.11-0.648,1.685-0.809c0.575-0.16,1.233-0.24,1.976-0.24
	c1.073,0,1.915,0.211,2.525,0.637S24.113,231.034,24.113,231.781"/>
<path fill="#2E2D4B" d="M33.017,234.732c0,1.835-0.308,3.18-0.923,4.032c-0.614,0.854-1.556,1.28-2.823,1.28
	c-1.238,0-2.173-0.445-2.802-1.336c-0.629-0.893-0.943-2.217-0.943-3.977c0-1.845,0.308-3.197,0.922-4.059
	c0.615-0.86,1.555-1.291,2.823-1.291c1.234,0,2.167,0.449,2.799,1.345C32.7,231.625,33.017,232.959,33.017,234.732 M28.313,234.732
	c0,1.173,0.073,1.979,0.22,2.419c0.146,0.438,0.393,0.659,0.737,0.659c0.351,0,0.598-0.227,0.741-0.682
	c0.145-0.453,0.217-1.252,0.217-2.396c0-1.148-0.073-1.955-0.22-2.416s-0.393-0.691-0.738-0.691c-0.345,0-0.591,0.223-0.737,0.668
	C28.387,232.736,28.313,233.549,28.313,234.732"/>
</svg>
