<?xml version="1.0" encoding="utf-8"?>
<!-- Generator: Adobe Illustrator 16.0.0, SVG Export Plug-In . SVG Version: 6.00 Build 0)  -->
<!DOCTYPE svg PUBLIC "-//W3C//DTD SVG 1.1//EN" "http://www.w3.org/Graphics/SVG/1.1/DTD/svg11.dtd">
<svg version="1.1" id="Слой_1" xmlns="http://www.w3.org/2000/svg" xmlns:xlink="http://www.w3.org/1999/xlink" x="0px" y="0px"
	 width="244.877px" height="406.751px" viewBox="0 0 244.877 406.751" enable-background="new 0 0 244.877 406.751"
	 xml:space="preserve">
<path fill="#E3004F" d="M52.387,341.364H18.138v-8.394l11.524-11.652c3.292-3.441,5.445-5.794,6.457-7.053
	c1.011-1.258,1.716-2.34,2.114-3.244c0.397-0.903,0.597-1.85,0.597-2.842c0-1.226-0.398-2.193-1.194-2.903
	c-0.796-0.711-1.915-1.065-3.356-1.065c-1.485,0-2.986,0.424-4.503,1.274c-1.518,0.851-3.234,2.104-5.149,3.761l-7.004-8.199
	c2.432-2.173,4.475-3.728,6.133-4.664c1.657-0.936,3.459-1.651,5.407-2.146s4.137-0.742,6.569-0.742
	c3.056,0,5.783,0.538,8.183,1.613c2.399,1.077,4.261,2.611,5.584,4.602c1.324,1.989,1.985,4.223,1.985,6.696
	c0,1.853-0.231,3.563-0.693,5.133c-0.464,1.571-1.179,3.115-2.147,4.632c-0.968,1.518-2.254,3.115-3.857,4.795
	c-1.603,1.678-5.019,4.862-10.248,9.554v0.323h17.851V341.364z"/>
<path fill="#2E2D4B" d="M65.654,299.11c0,0.987-0.302,1.834-0.904,2.542c-0.603,0.707-1.473,1.221-2.612,1.54v0.065
	c2.656,0.334,3.984,1.589,3.984,3.767c0,1.481-0.586,2.646-1.758,3.494c-1.173,0.849-2.8,1.274-4.883,1.274
	c-0.856,0-1.648-0.063-2.378-0.187c-0.729-0.123-1.519-0.349-2.368-0.675v-3.57c0.697,0.355,1.406,0.619,2.128,0.789
	c0.723,0.171,1.389,0.256,1.998,0.256c0.942,0,1.631-0.132,2.063-0.398c0.432-0.264,0.647-0.678,0.647-1.245
	c0-0.436-0.112-0.771-0.337-1.007c-0.227-0.235-0.588-0.414-1.089-0.533c-0.501-0.12-1.153-0.18-1.959-0.18h-0.979v-3.233h1.001
	c2.185,0,3.276-0.558,3.276-1.677c0-0.42-0.161-0.732-0.484-0.936s-0.756-0.305-1.301-0.305c-1.016,0-2.068,0.341-3.156,1.023
	l-1.785-2.873c0.842-0.58,1.703-0.996,2.584-1.242c0.883-0.246,1.894-0.37,3.032-0.37c1.647,0,2.939,0.327,3.876,0.979
	C65.186,297.063,65.654,297.964,65.654,299.11"/>
<path fill="#2E2D4B" d="M77.29,311.574h-4.365v-8.426c0-1.022,0.022-1.959,0.065-2.809c-0.269,0.327-0.603,0.668-1.001,1.023
	l-1.808,1.491l-2.231-2.743l5.465-4.452h3.875V311.574z"/>
<path fill="#2E2D4B" d="M85.52,308.319l0.152,0.25c-0.704,2.767-1.343,4.801-1.916,6.106h-3.037
	c0.211-1.002,0.423-2.125,0.637-3.368c0.215-1.244,0.361-2.24,0.441-2.988H85.52z"/>
<path fill="#2E2D4B" d="M97.243,311.574h-4.365v-8.426c0-1.022,0.022-1.959,0.065-2.809c-0.269,0.327-0.603,0.668-1.001,1.023
	l-1.808,1.491l-2.231-2.743l5.465-4.452h3.875V311.574z"/>
<path fill="#2E2D4B" d="M107.279,301.145c0.915,0,1.74,0.213,2.477,0.638c0.737,0.424,1.311,1.024,1.721,1.801
	c0.408,0.776,0.614,1.673,0.614,2.689c0,1.777-0.535,3.143-1.605,4.094c-1.07,0.949-2.69,1.424-4.86,1.424
	c-1.857,0-3.374-0.287-4.55-0.859v-3.526c0.631,0.29,1.344,0.529,2.139,0.718c0.794,0.189,1.479,0.283,2.052,0.283
	c0.799,0,1.411-0.168,1.84-0.506s0.643-0.836,0.643-1.497c0-0.61-0.218-1.085-0.654-1.426c-0.435-0.341-1.095-0.512-1.98-0.512
	c-0.675,0-1.404,0.127-2.188,0.381l-1.578-0.783l0.6-8.403h9.078v3.582h-5.421l-0.196,2.1c0.566-0.108,0.969-0.169,1.209-0.18
	C106.855,301.151,107.076,301.145,107.279,301.145"/>
<path fill="#2E2D4B" d="M56.026,331.579c0-2.221,0.317-4.019,0.953-5.394c0.635-1.375,1.57-2.389,2.808-3.043
	c1.237-0.652,2.764-0.979,4.577-0.979c0.646,0,1.401,0.062,2.265,0.185v3.365c-0.726-0.139-1.513-0.207-2.362-0.207
	c-1.437,0-2.507,0.315-3.211,0.946c-0.704,0.632-1.089,1.662-1.153,3.092h0.13c0.653-1.233,1.702-1.851,3.146-1.851
	c1.415,0,2.513,0.455,3.293,1.365c0.779,0.912,1.17,2.18,1.17,3.806c0,1.749-0.494,3.129-1.48,4.142
	c-0.987,1.012-2.366,1.519-4.137,1.519c-1.88,0-3.349-0.609-4.408-1.829C56.557,335.476,56.026,333.771,56.026,331.579
	 M61.927,335.117c0.457,0,0.829-0.172,1.115-0.518c0.287-0.344,0.431-0.894,0.431-1.648c0-1.292-0.501-1.938-1.503-1.938
	c-0.493,0-0.895,0.166-1.202,0.5c-0.309,0.334-0.463,0.74-0.463,1.22c0,0.696,0.148,1.268,0.446,1.714
	C61.049,334.892,61.44,335.117,61.927,335.117"/>
<path fill="#2E2D4B" d="M80.66,329.674c0,3.113-0.671,5.366-2.015,6.761c-1.342,1.393-3.489,2.088-6.443,2.088
	c-0.973,0-1.713-0.035-2.221-0.108v-3.406c0.624,0.115,1.248,0.175,1.873,0.175c1.537,0,2.725-0.318,3.56-0.953
	c0.834-0.636,1.288-1.639,1.36-3.011h-0.132c-0.282,0.522-0.562,0.9-0.837,1.134c-0.276,0.231-0.613,0.41-1.013,0.532
	c-0.4,0.123-0.897,0.185-1.491,0.185c-1.379,0-2.456-0.461-3.233-1.381c-0.776-0.922-1.164-2.192-1.164-3.812
	c0-1.763,0.502-3.146,1.508-4.147c1.005-1,2.382-1.502,4.131-1.502c1.944,0,3.45,0.646,4.517,1.938
	C80.127,325.458,80.66,327.293,80.66,329.674 M74.662,325.668c-0.472,0-0.854,0.17-1.148,0.511c-0.294,0.342-0.44,0.889-0.44,1.645
	c0,0.595,0.127,1.068,0.381,1.42c0.254,0.354,0.643,0.529,1.165,0.529c0.472,0,0.882-0.172,1.229-0.513
	c0.349-0.341,0.522-0.751,0.522-1.23c0-0.646-0.161-1.2-0.484-1.665C75.564,325.9,75.156,325.668,74.662,325.668"/>
<path fill="#2E2D4B" d="M86.811,335.051l0.152,0.25c-0.704,2.767-1.343,4.801-1.916,6.106H82.01
	c0.211-1.002,0.423-2.125,0.637-3.368c0.215-1.244,0.361-2.24,0.441-2.988H86.811z"/>
<path fill="#2E2D4B" d="M99.961,325.842c0,0.987-0.302,1.834-0.904,2.542c-0.603,0.707-1.473,1.221-2.612,1.54v0.065
	c2.656,0.334,3.984,1.589,3.984,3.767c0,1.481-0.586,2.646-1.758,3.494c-1.173,0.849-2.8,1.274-4.883,1.274
	c-0.856,0-1.648-0.063-2.378-0.187c-0.729-0.123-1.519-0.349-2.368-0.675v-3.57c0.697,0.355,1.406,0.619,2.128,0.789
	c0.723,0.171,1.389,0.256,1.998,0.256c0.943,0,1.631-0.132,2.063-0.398c0.432-0.264,0.647-0.678,0.647-1.245
	c0-0.436-0.112-0.771-0.337-1.007c-0.227-0.235-0.588-0.414-1.089-0.533c-0.501-0.12-1.153-0.18-1.959-0.18h-0.979v-3.233h1.001
	c2.185,0,3.276-0.558,3.276-1.677c0-0.42-0.161-0.732-0.484-0.936s-0.756-0.305-1.301-0.305c-1.016,0-2.068,0.341-3.156,1.023
	l-1.785-2.873c0.842-0.58,1.703-0.996,2.585-1.242s1.893-0.37,3.031-0.37c1.647,0,2.939,0.327,3.876,0.979
	C99.492,323.795,99.961,324.697,99.961,325.842"/>
<path fill="#2E2D4B" d="M113.622,330.371c0,2.814-0.473,4.879-1.415,6.188c-0.944,1.311-2.388,1.966-4.333,1.966
	c-1.901,0-3.335-0.683-4.3-2.052s-1.447-3.402-1.447-6.102c0-2.83,0.472-4.904,1.415-6.227c0.943-1.32,2.387-1.981,4.332-1.981
	c1.895,0,3.325,0.687,4.295,2.063C113.138,325.601,113.622,327.649,113.622,330.371 M106.404,330.371c0,1.8,0.112,3.037,0.338,3.712
	c0.224,0.675,0.602,1.013,1.132,1.013c0.537,0,0.916-0.349,1.137-1.045c0.223-0.697,0.332-1.924,0.332-3.68
	c0-1.764-0.111-2.999-0.337-3.707c-0.225-0.707-0.603-1.061-1.132-1.061c-0.53,0-0.908,0.341-1.132,1.022
	C106.517,327.308,106.404,328.556,106.404,330.371"/>
<rect x="55.266" y="316.966" fill="#2E2D4B" width="58.897" height="1.775"/>
<path fill="#2E2D4B" d="M138.324,30.827h-2.845v-5.49c0-0.667,0.014-1.278,0.042-1.83c-0.175,0.213-0.393,0.434-0.652,0.666
	l-1.178,0.972l-1.454-1.788l3.562-2.901h2.525V30.827z"/>
<path fill="#2E2D4B" d="M144.438,20.308c1.092,0,1.942,0.219,2.55,0.659c0.608,0.44,0.912,1.064,0.912,1.873
	c0,0.549-0.143,1.029-0.429,1.443s-0.739,0.775-1.359,1.082c0.767,0.435,1.307,0.869,1.621,1.302c0.314,0.433,0.472,0.899,0.472,1.4
	c0,0.923-0.333,1.637-1,2.143c-0.667,0.506-1.599,0.759-2.795,0.759c-1.22,0-2.154-0.247-2.802-0.742
	c-0.647-0.494-0.972-1.204-0.972-2.131c0-0.601,0.144-1.113,0.433-1.536c0.288-0.423,0.773-0.807,1.454-1.153
	c-0.549-0.368-0.95-0.765-1.203-1.187c-0.252-0.424-0.379-0.888-0.379-1.395c0-0.794,0.31-1.412,0.93-1.854
	C142.489,20.528,143.347,20.308,144.438,20.308 M143.204,27.982c0,0.294,0.104,0.529,0.313,0.706
	c0.208,0.178,0.497,0.266,0.865,0.266c0.833,0,1.249-0.305,1.249-0.915c0-0.231-0.092-0.46-0.273-0.685
	c-0.182-0.224-0.507-0.475-0.976-0.754c-0.421,0.221-0.723,0.445-0.904,0.669C143.296,27.494,143.204,27.732,143.204,27.982
	 M144.425,22.329c-0.241,0-0.444,0.069-0.61,0.209c-0.165,0.14-0.248,0.32-0.248,0.543c0,0.406,0.276,0.766,0.83,1.078
	c0.336-0.194,0.564-0.371,0.688-0.532c0.123-0.16,0.185-0.343,0.185-0.546c0-0.228-0.083-0.409-0.248-0.546
	C144.854,22.397,144.655,22.329,144.425,22.329"/>
<path fill="#2E2D4B" d="M152.199,28.706l0.1,0.163c-0.459,1.802-0.875,3.129-1.247,3.98h-1.98c0.137-0.653,0.275-1.384,0.415-2.196
	c0.14-0.81,0.235-1.46,0.287-1.947H152.199z"/>
<polygon fill="#2E2D4B" points="154.64,30.827 158.201,22.79 153.711,22.79 153.711,20.471 161.194,20.471 161.194,22.123 
	157.541,30.827 "/>
<path fill="#2E2D4B" d="M169.707,25.202c0,2.029-0.438,3.497-1.313,4.406c-0.875,0.907-2.274,1.361-4.199,1.361
	c-0.634,0-1.116-0.023-1.447-0.07v-2.221c0.407,0.076,0.813,0.113,1.22,0.113c1.003,0,1.776-0.207,2.32-0.62
	c0.544-0.414,0.839-1.068,0.887-1.962h-0.085c-0.185,0.341-0.367,0.587-0.547,0.738c-0.18,0.152-0.399,0.267-0.659,0.348
	c-0.261,0.08-0.584,0.12-0.972,0.12c-0.899,0-1.602-0.3-2.107-0.9c-0.506-0.601-0.759-1.429-0.759-2.484
	c0-1.149,0.327-2.049,0.982-2.702c0.655-0.653,1.553-0.979,2.692-0.979c1.267,0,2.248,0.421,2.943,1.263
	C169.36,22.454,169.707,23.65,169.707,25.202 M165.799,22.591c-0.308,0-0.558,0.11-0.749,0.333
	c-0.191,0.223-0.287,0.579-0.287,1.071c0,0.388,0.083,0.697,0.248,0.926c0.166,0.23,0.419,0.344,0.76,0.344
	c0.307,0,0.574-0.111,0.801-0.333c0.228-0.223,0.341-0.489,0.341-0.802c0-0.421-0.105-0.783-0.315-1.085
	C166.386,22.742,166.12,22.591,165.799,22.591"/>
<path fill="#2E2D4B" d="M27.12,80.455h-2.845v-5.49c0-0.667,0.014-1.278,0.042-1.83c-0.175,0.213-0.392,0.434-0.652,0.666
	l-1.178,0.972l-1.454-1.788l3.562-2.901h2.525V80.455z"/>
<path fill="#2E2D4B" d="M36.562,72.333c0,0.643-0.196,1.195-0.589,1.656c-0.392,0.461-0.96,0.796-1.702,1.004v0.042
	c1.73,0.218,2.596,1.036,2.596,2.455c0,0.965-0.382,1.724-1.146,2.277c-0.763,0.553-1.824,0.83-3.181,0.83
	c-0.559,0-1.075-0.04-1.551-0.12c-0.475-0.081-0.989-0.228-1.543-0.441v-2.326c0.454,0.231,0.917,0.403,1.388,0.515
	c0.47,0.11,0.904,0.166,1.301,0.166c0.615,0,1.063-0.086,1.345-0.259c0.281-0.173,0.422-0.444,0.422-0.813
	c0-0.283-0.073-0.502-0.22-0.656c-0.146-0.153-0.383-0.269-0.709-0.347c-0.327-0.078-0.752-0.117-1.277-0.117h-0.639v-2.107h0.653
	c1.423,0,2.135-0.364,2.135-1.092c0-0.274-0.105-0.478-0.315-0.61c-0.211-0.133-0.493-0.199-0.848-0.199
	c-0.662,0-1.348,0.222-2.057,0.666l-1.165-1.872c0.549-0.379,1.111-0.648,1.685-0.808c0.575-0.161,1.233-0.241,1.977-0.241
	c1.072,0,1.914,0.212,2.524,0.637C36.257,70.999,36.562,71.585,36.562,72.333"/>
<path fill="#2E2D4B" d="M40.995,78.333l0.1,0.163c-0.459,1.802-0.875,3.129-1.248,3.98h-1.979c0.137-0.653,0.275-1.384,0.415-2.196
	c0.14-0.81,0.235-1.46,0.287-1.947H40.995z"/>
<polygon fill="#2E2D4B" points="43.436,80.455 46.997,72.417 42.507,72.417 42.507,70.099 49.99,70.099 49.99,71.75 46.337,80.455 
	"/>
<path fill="#2E2D4B" d="M58.503,74.83c0,2.029-0.438,3.497-1.313,4.406c-0.875,0.907-2.274,1.361-4.199,1.361
	c-0.634,0-1.116-0.023-1.447-0.07v-2.221c0.407,0.076,0.813,0.113,1.22,0.113c1.003,0,1.776-0.207,2.32-0.62
	c0.544-0.414,0.839-1.068,0.887-1.962h-0.085c-0.185,0.341-0.367,0.587-0.547,0.738c-0.18,0.152-0.399,0.267-0.659,0.348
	c-0.261,0.08-0.584,0.12-0.972,0.12c-0.899,0-1.602-0.3-2.107-0.9c-0.506-0.601-0.759-1.429-0.759-2.484
	c0-1.149,0.327-2.049,0.981-2.702c0.656-0.653,1.554-0.979,2.693-0.979c1.267,0,2.248,0.421,2.943,1.263
	C58.155,72.082,58.503,73.278,58.503,74.83 M54.595,72.219c-0.308,0-0.558,0.11-0.749,0.333c-0.19,0.223-0.287,0.579-0.287,1.071
	c0,0.388,0.083,0.697,0.248,0.926c0.166,0.23,0.419,0.344,0.76,0.344c0.307,0,0.574-0.111,0.801-0.333
	c0.228-0.223,0.341-0.489,0.341-0.802c0-0.421-0.105-0.783-0.315-1.085C55.182,72.37,54.916,72.219,54.595,72.219"/>
<path fill="#2E2D4B" d="M28.297,383.131h-2.845v-5.49c0-0.667,0.014-1.278,0.042-1.829c-0.175,0.213-0.392,0.434-0.652,0.666
	l-1.178,0.972l-1.454-1.788l3.562-2.901h2.525V383.131z"/>
<polygon fill="#2E2D4B" points="31.61,383.131 35.172,375.094 30.682,375.094 30.682,372.775 38.165,372.775 38.165,374.427 
	34.512,383.131 "/>
<path fill="#2E2D4B" d="M42.173,381.01l0.1,0.163c-0.459,1.802-0.875,3.129-1.248,3.98h-1.979c0.137-0.653,0.274-1.385,0.415-2.196
	c0.14-0.81,0.234-1.46,0.287-1.947H42.173z"/>
<path fill="#2E2D4B" d="M50.742,375.009c0,0.643-0.196,1.195-0.589,1.656s-0.96,0.796-1.702,1.004v0.042
	c1.729,0.218,2.596,1.036,2.596,2.455c0,0.965-0.382,1.724-1.146,2.276c-0.764,0.554-1.824,0.83-3.181,0.83
	c-0.559,0-1.075-0.039-1.551-0.119c-0.475-0.082-0.989-0.229-1.543-0.441v-2.326c0.454,0.23,0.917,0.403,1.388,0.516
	c0.47,0.109,0.904,0.166,1.301,0.166c0.615,0,1.063-0.086,1.345-0.26c0.281-0.173,0.422-0.443,0.422-0.813
	c0-0.283-0.073-0.502-0.22-0.656c-0.146-0.153-0.383-0.27-0.709-0.348c-0.327-0.077-0.752-0.116-1.277-0.116h-0.639v-2.107h0.652
	c1.424,0,2.136-0.364,2.136-1.092c0-0.274-0.105-0.478-0.315-0.61c-0.211-0.133-0.493-0.199-0.848-0.199
	c-0.662,0-1.348,0.223-2.057,0.666l-1.164-1.871c0.549-0.379,1.11-0.648,1.685-0.809c0.575-0.16,1.233-0.24,1.976-0.24
	c1.073,0,1.915,0.211,2.525,0.637S50.742,374.262,50.742,375.009"/>
<path fill="#2E2D4B" d="M52.14,378.748c0-1.447,0.207-2.619,0.621-3.514c0.414-0.897,1.023-1.559,1.83-1.984
	s1.801-0.637,2.983-0.637c0.421,0,0.912,0.039,1.474,0.119v2.192c-0.472-0.09-0.984-0.135-1.538-0.135
	c-0.937,0-1.634,0.204-2.093,0.618c-0.458,0.41-0.709,1.082-0.752,2.014h0.086c0.425-0.805,1.108-1.206,2.05-1.206
	c0.922,0,1.638,0.297,2.146,0.89c0.509,0.594,0.763,1.42,0.763,2.479c0,1.14-0.321,2.039-0.965,2.698
	c-0.643,0.662-1.542,0.99-2.696,0.99c-1.224,0-2.182-0.396-2.872-1.191S52.14,380.175,52.14,378.748 M55.984,381.053
	c0.299,0,0.541-0.112,0.728-0.337s0.28-0.583,0.28-1.075c0-0.842-0.326-1.263-0.979-1.263c-0.322,0-0.583,0.109-0.784,0.326
	c-0.201,0.218-0.302,0.482-0.302,0.795c0,0.453,0.097,0.826,0.291,1.117S55.668,381.053,55.984,381.053"/>
<path fill="#2E2D4B" d="M24.128,18.906h-7.526v-1.845l2.532-2.56c0.723-0.757,1.196-1.274,1.419-1.55
	c0.222-0.276,0.377-0.515,0.465-0.713c0.087-0.198,0.131-0.406,0.131-0.624c0-0.27-0.087-0.482-0.263-0.639
	c-0.175-0.156-0.421-0.234-0.737-0.234c-0.327,0-0.657,0.094-0.99,0.28c-0.334,0.188-0.711,0.463-1.132,0.826l-1.539-1.801
	c0.535-0.478,0.984-0.82,1.348-1.025c0.364-0.206,0.76-0.363,1.188-0.471c0.428-0.11,0.91-0.164,1.444-0.164
	c0.671,0,1.27,0.119,1.798,0.355c0.527,0.236,0.936,0.573,1.227,1.011c0.291,0.437,0.437,0.927,0.437,1.471
	c0,0.408-0.051,0.784-0.153,1.128c-0.102,0.346-0.259,0.685-0.472,1.019c-0.212,0.333-0.495,0.684-0.848,1.053
	c-0.351,0.369-1.102,1.069-2.252,2.099v0.071h3.923V18.906z"/>
<path fill="#2E2D4B" d="M28.214,16.785l0.1,0.163c-0.459,1.802-0.875,3.129-1.248,3.98h-1.98c0.137-0.653,0.275-1.384,0.415-2.196
	c0.14-0.81,0.235-1.46,0.287-1.947H28.214z"/>
<polygon fill="#2E2D4B" points="30.654,18.906 34.216,10.869 29.726,10.869 29.726,8.55 37.209,8.55 37.209,10.202 33.556,18.906 
	"/>
<polygon fill="#2E2D4B" points="39.167,18.906 42.729,10.869 38.238,10.869 38.238,8.55 45.722,8.55 45.722,10.202 42.067,18.906 
	"/>
<path fill="#2E2D4B" d="M129.542,196.225h-2.845v-5.49c0-0.667,0.014-1.278,0.042-1.83c-0.176,0.213-0.393,0.434-0.652,0.666
	l-1.178,0.972l-1.454-1.788l3.562-2.901h2.525V196.225z"/>
<path fill="#2E2D4B" d="M139.374,191.054c0,1.835-0.308,3.179-0.923,4.032c-0.614,0.854-1.556,1.28-2.823,1.28
	c-1.238,0-2.173-0.445-2.802-1.336c-0.63-0.892-0.943-2.217-0.943-3.976c0-1.845,0.308-3.197,0.922-4.058
	c0.615-0.861,1.555-1.291,2.823-1.291c1.234,0,2.167,0.449,2.799,1.344C139.058,187.946,139.374,189.281,139.374,191.054
	 M134.671,191.054c0,1.173,0.073,1.979,0.22,2.419c0.146,0.439,0.393,0.659,0.737,0.659c0.351,0,0.598-0.226,0.741-0.681
	c0.145-0.454,0.217-1.252,0.217-2.397c0-1.149-0.073-1.955-0.22-2.416s-0.393-0.691-0.738-0.691c-0.345,0-0.591,0.222-0.737,0.667
	C134.744,189.058,134.671,189.871,134.671,191.054"/>
<path fill="#2E2D4B" d="M143.417,194.104l0.1,0.163c-0.459,1.802-0.875,3.129-1.248,3.98h-1.979
	c0.137-0.653,0.274-1.384,0.415-2.196c0.14-0.81,0.234-1.46,0.287-1.947H143.417z"/>
<path fill="#2E2D4B" d="M149.085,189.429c0.596,0,1.134,0.139,1.614,0.415c0.479,0.276,0.854,0.668,1.12,1.174
	c0.268,0.507,0.401,1.091,0.401,1.752c0,1.159-0.349,2.048-1.047,2.668c-0.697,0.619-1.753,0.928-3.167,0.928
	c-1.211,0-2.199-0.186-2.965-0.56v-2.298c0.411,0.19,0.876,0.345,1.394,0.468s0.964,0.184,1.337,0.184
	c0.521,0,0.92-0.109,1.199-0.33c0.279-0.219,0.419-0.545,0.419-0.974c0-0.397-0.143-0.707-0.426-0.93
	c-0.284-0.222-0.715-0.333-1.291-0.333c-0.44,0-0.915,0.082-1.426,0.248l-1.029-0.511l0.391-5.476h5.915v2.334h-3.531l-0.128,1.369
	c0.369-0.071,0.631-0.11,0.787-0.117C148.809,189.433,148.953,189.429,149.085,189.429"/>
<path fill="#2E2D4B" d="M160.89,191.054c0,1.835-0.307,3.179-0.923,4.032c-0.614,0.854-1.556,1.28-2.823,1.28
	c-1.238,0-2.173-0.445-2.802-1.336c-0.629-0.892-0.943-2.217-0.943-3.976c0-1.845,0.308-3.197,0.922-4.058
	c0.615-0.861,1.556-1.291,2.823-1.291c1.234,0,2.167,0.449,2.799,1.344C160.573,187.946,160.89,189.281,160.89,191.054
	 M156.187,191.054c0,1.173,0.073,1.979,0.22,2.419c0.146,0.439,0.393,0.659,0.737,0.659c0.351,0,0.598-0.226,0.741-0.681
	c0.145-0.454,0.217-1.252,0.217-2.397c0-1.149-0.073-1.955-0.22-2.416s-0.393-0.691-0.738-0.691c-0.345,0-0.591,0.222-0.737,0.667
	C156.26,189.058,156.187,189.871,156.187,191.054"/>
<rect x="51.938" y="203.732" fill="#D0EAF0" width="10.498" height="10.499"/>
<path fill="#FFFFFF" d="M62.311,214.105H52.065v-10.247h10.245V214.105z M62.563,203.606H51.812v10.751h10.752V203.606z"/>
<rect x="51.938" y="214.483" fill="#D0EAF0" width="10.498" height="10.499"/>
<path fill="#FFFFFF" d="M62.311,224.856H52.065v-10.247h10.245V224.856z M62.563,214.357H51.812v10.751h10.752V214.357z"/>
<rect x="51.938" y="225.234" fill="#D0EAF0" width="10.498" height="10.5"/>
<path fill="#FFFFFF" d="M62.311,235.607H52.065V225.36h10.245V235.607z M62.563,225.108H51.812v10.751h10.752V225.108z"/>
<rect x="51.938" y="236.038" fill="#D0EAF0" width="10.498" height="10.5"/>
<path fill="#FFFFFF" d="M62.311,246.411H52.065v-10.247h10.245V246.411z M62.563,235.912H51.812v10.751h10.752V235.912z"/>
<rect x="51.938" y="246.789" fill="#D0EAF0" width="10.498" height="10.499"/>
<path fill="#FFFFFF" d="M62.311,257.162H52.065v-10.247h10.245V257.162z M62.563,246.663H51.812v10.751h10.752V246.663z"/>
<rect x="51.938" y="257.54" fill="#D0EAF0" width="10.5" height="10.499"/>
<path fill="#FFFFFF" d="M52.063,257.666h10.245v10.247H52.063V257.666z M51.812,268.039h10.75v-10.625h-10.75V268.039z"/>
<rect x="62.69" y="203.732" fill="#D0EAF0" width="10.498" height="10.499"/>
<path fill="#FFFFFF" d="M62.815,203.858h10.245v10.247H62.815V203.858z M62.563,214.358h10.752v-10.751H62.563V214.358z"/>
<rect x="62.69" y="214.483" fill="#D0EAF0" width="10.498" height="10.499"/>
<path fill="#FFFFFF" d="M62.815,214.609h10.245v10.247H62.815V214.609z M62.563,225.108h10.752v-10.75H62.563V225.108z"/>
<rect x="62.69" y="225.234" fill="#D0EAF0" width="10.498" height="10.499"/>
<path fill="#FFFFFF" d="M62.815,225.36h10.245v10.247H62.815V225.36z M62.563,235.859h10.752v-10.751H62.563V235.859z"/>
<rect x="62.69" y="236.038" fill="#D0EAF0" width="10.498" height="10.499"/>
<path fill="#FFFFFF" d="M62.815,236.164h10.245v10.247H62.815V236.164z M62.563,246.663h10.752v-10.751H62.563V246.663z"/>
<rect x="62.69" y="246.789" fill="#D0EAF0" width="10.498" height="10.499"/>
<path fill="#FFFFFF" d="M62.815,246.915h10.245v10.247H62.815V246.915z M62.563,257.414h10.752v-10.751H62.563V257.414z"/>
<rect x="62.69" y="257.54" fill="#D0EAF0" width="10.498" height="10.499"/>
<path fill="#FFFFFF" d="M62.815,257.666h10.245v10.247H62.815V257.666z M62.563,268.039h10.752v-10.625H62.563V268.039z"/>
<rect x="41.187" y="203.732" fill="#D0EAF0" width="10.499" height="10.499"/>
<path fill="#FFFFFF" d="M51.56,214.105H41.313v-10.247H51.56V214.105z M51.812,203.606H41.061v10.751h10.751V203.606z"/>
<rect x="41.187" y="214.483" fill="#D0EAF0" width="10.499" height="10.499"/>
<path fill="#FFFFFF" d="M51.56,224.856H41.313v-10.247H51.56V224.856z M51.812,214.357H41.061v10.751h10.751V214.357z"/>
<rect x="41.187" y="225.234" fill="#D0EAF0" width="10.499" height="10.5"/>
<path fill="#FFFFFF" d="M51.56,235.607H41.313V225.36H51.56V235.607z M51.812,225.108H41.061v10.751h10.751V225.108z"/>
<rect x="41.187" y="236.038" fill="#D0EAF0" width="10.499" height="10.5"/>
<path fill="#FFFFFF" d="M51.56,246.411H41.313v-10.247H51.56V246.411z M51.812,235.912H41.061v10.751h10.751V235.912z"/>
<rect x="41.187" y="246.789" fill="#D0EAF0" width="10.499" height="10.499"/>
<path fill="#FFFFFF" d="M51.56,257.162H41.313v-10.247H51.56V257.162z M51.812,246.663H41.061v10.751h10.751V246.663z"/>
<rect x="41.187" y="257.54" fill="#D0EAF0" width="10.499" height="10.499"/>
<path fill="#FFFFFF" d="M41.313,257.666H51.56v10.247H41.313V257.666z M41.061,268.039h10.751v-10.625H41.061V268.039z"/>
<rect x="30.447" y="203.732" fill="#D0EAF0" width="10.499" height="10.499"/>
<path fill="#FFFFFF" d="M40.819,214.105H30.572v-10.247h10.247V214.105z M41.071,203.606H30.32v10.751h10.751V203.606z"/>
<rect x="30.447" y="214.483" fill="#D0EAF0" width="10.499" height="10.499"/>
<path fill="#FFFFFF" d="M40.819,224.856H30.572v-10.247h10.247V224.856z M41.071,214.357H30.32v10.751h10.751V214.357z"/>
<rect x="30.447" y="225.234" fill="#D0EAF0" width="10.499" height="10.5"/>
<path fill="#FFFFFF" d="M40.819,235.607H30.572V225.36h10.247V235.607z M41.071,225.108H30.32v10.751h10.751V225.108z"/>
<rect x="30.447" y="236.038" fill="#D0EAF0" width="10.499" height="10.5"/>
<path fill="#FFFFFF" d="M40.819,246.411H30.572v-10.247h10.247V246.411z M41.071,235.912H30.32v10.751h10.751V235.912z"/>
<rect x="30.447" y="246.789" fill="#D0EAF0" width="10.499" height="10.499"/>
<path fill="#FFFFFF" d="M40.819,257.162H30.572v-10.247h10.247V257.162z M41.071,246.663H30.32v10.751h10.751V246.663z"/>
<rect x="30.446" y="257.54" fill="#D0EAF0" width="10.499" height="10.499"/>
<path fill="#FFFFFF" d="M30.572,257.666h10.247v10.247H30.572V257.666z M30.32,268.039h10.751v-10.625H30.32V268.039z"/>
<rect x="19.695" y="203.732" fill="#D0EAF0" width="10.5" height="10.499"/>
<path fill="#FFFFFF" d="M30.068,214.105H19.82v-10.247h10.249V214.105z M30.32,203.606H19.569v10.751H30.32V203.606z"/>
<rect x="19.695" y="214.483" fill="#D0EAF0" width="10.5" height="10.499"/>
<path fill="#FFFFFF" d="M30.068,224.856H19.82v-10.247h10.249V224.856z M30.32,214.357H19.569v10.751H30.32V214.357z"/>
<rect x="19.695" y="225.234" fill="#D0EAF0" width="10.5" height="10.5"/>
<path fill="#FFFFFF" d="M30.068,235.607H19.82V225.36h10.249V235.607z M30.32,225.108H19.569v10.751H30.32V225.108z"/>
<rect x="19.695" y="236.038" fill="#D0EAF0" width="10.5" height="10.5"/>
<path fill="#FFFFFF" d="M30.068,246.411H19.82v-10.247h10.249V246.411z M30.32,235.912H19.569v10.751H30.32V235.912z"/>
<rect x="19.695" y="246.789" fill="#D0EAF0" width="10.5" height="10.499"/>
<path fill="#FFFFFF" d="M30.068,257.162H19.82v-10.247h10.249V257.162z M30.32,246.663H19.569v10.751H30.32V246.663z"/>
<rect x="19.695" y="257.54" fill="#D0EAF0" width="10.5" height="10.499"/>
<path fill="#FFFFFF" d="M19.821,257.666h10.249v10.247H19.821V257.666z M19.569,268.039H30.32v-10.625H19.569V268.039z"/>
<rect x="10.552" y="203.732" fill="#D0EAF0" width="8.955" height="10.499"/>
<polygon fill="#FFFFFF" points="10.552,203.606 10.552,203.858 19.381,203.858 19.381,214.105 10.552,214.105 10.552,214.357 
	19.633,214.357 19.633,203.606 "/>
<rect x="10.552" y="214.483" fill="#D0EAF0" width="8.955" height="10.499"/>
<polygon fill="#FFFFFF" points="10.552,214.357 10.552,214.608 19.381,214.608 19.381,224.856 10.552,224.856 10.552,225.107 
	19.633,225.107 19.633,214.357 "/>
<rect x="10.552" y="225.234" fill="#D0EAF0" width="8.955" height="10.499"/>
<polygon fill="#FFFFFF" points="10.552,225.108 10.552,225.36 19.381,225.36 19.381,235.607 10.552,235.607 10.552,235.859 
	19.633,235.859 19.633,225.108 "/>
<rect x="10.552" y="236.038" fill="#D0EAF0" width="8.955" height="10.499"/>
<polygon fill="#FFFFFF" points="10.552,235.912 10.552,236.164 19.381,236.164 19.381,246.411 10.552,246.411 10.552,246.663 
	19.633,246.663 19.633,235.912 "/>
<rect x="10.552" y="246.789" fill="#D0EAF0" width="8.955" height="10.499"/>
<polygon fill="#FFFFFF" points="10.552,246.663 10.552,246.915 19.381,246.915 19.381,257.162 10.552,257.162 10.552,257.414 
	19.633,257.414 19.633,246.663 "/>
<rect x="10.552" y="257.54" fill="#D0EAF0" width="8.955" height="10.499"/>
<polygon fill="#FFFFFF" points="10.552,257.414 10.552,257.666 19.381,257.666 19.381,267.913 10.552,267.913 10.552,268.039 
	19.633,268.039 19.633,257.414 "/>
<g>
	<defs>
		<rect id="SVGID_1_" x="10.552" y="172.646" width="62.762" height="95.393"/>
	</defs>
	<clipPath id="SVGID_2_">
		<use xlink:href="#SVGID_1_"  overflow="visible"/>
	</clipPath>
	<rect x="51.938" y="161.994" clip-path="url(#SVGID_2_)" fill="#D0EAF0" width="10.498" height="10.5"/>
	<path clip-path="url(#SVGID_2_)" fill="#FFFFFF" d="M62.311,172.368H52.065v-10.247h10.245V172.368z M62.563,161.869H51.812v10.751
		h10.752V161.869z"/>
</g>
<rect x="51.938" y="172.799" fill="#D0EAF0" width="10.5" height="10.499"/>
<path fill="#FFFFFF" d="M52.063,172.924h10.245v10.247H52.063V172.924z M51.812,183.424h10.75v-10.751h-10.75V183.424z"/>
<rect x="51.938" y="183.55" fill="#D0EAF0" width="10.498" height="10.499"/>
<path fill="#FFFFFF" d="M62.311,193.923H52.065v-10.247h10.245V193.923z M62.563,183.424H51.812v10.751h10.752V183.424z"/>
<rect x="51.938" y="194.301" fill="#D0EAF0" width="10.498" height="10.499"/>
<path fill="#FFFFFF" d="M62.311,204.674H52.065v-10.247h10.245V204.674z M62.563,194.175H51.812v10.751h10.752V194.175z"/>
<g>
	<defs>
		<rect id="SVGID_3_" x="10.552" y="172.646" width="62.762" height="95.393"/>
	</defs>
	<clipPath id="SVGID_4_">
		<use xlink:href="#SVGID_3_"  overflow="visible"/>
	</clipPath>
	<rect x="62.688" y="161.994" clip-path="url(#SVGID_4_)" fill="#D0EAF0" width="10.5" height="10.5"/>
	<path clip-path="url(#SVGID_4_)" fill="#FFFFFF" d="M73.062,172.368H62.816v-10.247h10.245V172.368z M73.313,161.869h-10.75v10.751
		h10.75V161.869z"/>
</g>
<rect x="62.69" y="172.799" fill="#D0EAF0" width="10.498" height="10.499"/>
<path fill="#FFFFFF" d="M62.815,172.924h10.245v10.247H62.815V172.924z M62.563,183.424h10.752v-10.751H62.563V183.424z"/>
<rect x="62.69" y="183.55" fill="#D0EAF0" width="10.498" height="10.499"/>
<path fill="#FFFFFF" d="M62.815,183.676h10.245v10.247H62.815V183.676z M62.563,194.175h10.752v-10.751H62.563V194.175z"/>
<rect x="62.69" y="194.301" fill="#D0EAF0" width="10.498" height="10.499"/>
<path fill="#FFFFFF" d="M62.815,194.427h10.245v10.247H62.815V194.427z M62.563,204.926h10.752v-10.75H62.563V204.926z"/>
<g>
	<defs>
		<rect id="SVGID_5_" x="10.552" y="172.646" width="62.762" height="95.393"/>
	</defs>
	<clipPath id="SVGID_6_">
		<use xlink:href="#SVGID_5_"  overflow="visible"/>
	</clipPath>
	<rect x="41.187" y="161.994" clip-path="url(#SVGID_6_)" fill="#D0EAF0" width="10.499" height="10.5"/>
	<path clip-path="url(#SVGID_6_)" fill="#FFFFFF" d="M51.56,172.368H41.313v-10.247H51.56V172.368z M51.812,161.869H41.061v10.751
		h10.751V161.869z"/>
</g>
<rect x="41.187" y="172.799" fill="#D0EAF0" width="10.499" height="10.499"/>
<path fill="#FFFFFF" d="M41.313,172.924H51.56v10.247H41.313V172.924z M41.061,183.424h10.751v-10.751H41.061V183.424z"/>
<rect x="41.187" y="183.55" fill="#D0EAF0" width="10.499" height="10.499"/>
<path fill="#FFFFFF" d="M51.56,193.923H41.313v-10.247H51.56V193.923z M51.812,183.424H41.061v10.751h10.751V183.424z"/>
<rect x="41.187" y="194.301" fill="#D0EAF0" width="10.499" height="10.499"/>
<path fill="#FFFFFF" d="M51.56,204.674H41.313v-10.247H51.56V204.674z M51.812,194.175H41.061v10.751h10.751V194.175z"/>
<g>
	<defs>
		<rect id="SVGID_7_" x="10.552" y="172.646" width="62.762" height="95.393"/>
	</defs>
	<clipPath id="SVGID_8_">
		<use xlink:href="#SVGID_7_"  overflow="visible"/>
	</clipPath>
	<rect x="30.447" y="161.994" clip-path="url(#SVGID_8_)" fill="#D0EAF0" width="10.499" height="10.5"/>
	<path clip-path="url(#SVGID_8_)" fill="#FFFFFF" d="M40.819,172.368H30.572v-10.247h10.247V172.368z M41.071,161.869H30.32v10.751
		h10.751V161.869z"/>
</g>
<rect x="30.446" y="172.799" fill="#D0EAF0" width="10.499" height="10.499"/>
<path fill="#FFFFFF" d="M30.572,172.924h10.247v10.247H30.572V172.924z M30.32,183.424h10.751v-10.751H30.32V183.424z"/>
<rect x="30.447" y="183.55" fill="#D0EAF0" width="10.499" height="10.499"/>
<path fill="#FFFFFF" d="M40.819,193.923H30.572v-10.247h10.247V193.923z M41.071,183.424H30.32v10.751h10.751V183.424z"/>
<rect x="30.447" y="194.301" fill="#D0EAF0" width="10.499" height="10.499"/>
<path fill="#FFFFFF" d="M40.819,204.674H30.572v-10.247h10.247V204.674z M41.071,194.175H30.32v10.751h10.751V194.175z"/>
<g>
	<defs>
		<rect id="SVGID_9_" x="10.552" y="172.646" width="62.762" height="95.393"/>
	</defs>
	<clipPath id="SVGID_10_">
		<use xlink:href="#SVGID_9_"  overflow="visible"/>
	</clipPath>
	<rect x="19.695" y="161.994" clip-path="url(#SVGID_10_)" fill="#D0EAF0" width="10.5" height="10.5"/>
	<path clip-path="url(#SVGID_10_)" fill="#FFFFFF" d="M30.068,172.368H19.82v-10.247h10.249V172.368z M30.32,161.869H19.569v10.751
		H30.32V161.869z"/>
</g>
<rect x="19.695" y="172.799" fill="#D0EAF0" width="10.5" height="10.499"/>
<path fill="#FFFFFF" d="M19.821,172.924h10.249v10.247H19.821V172.924z M19.569,183.424H30.32v-10.751H19.569V183.424z"/>
<rect x="19.695" y="183.55" fill="#D0EAF0" width="10.5" height="10.499"/>
<path fill="#FFFFFF" d="M30.068,193.923H19.82v-10.247h10.249V193.923z M30.32,183.424H19.569v10.751H30.32V183.424z"/>
<rect x="19.695" y="194.301" fill="#D0EAF0" width="10.5" height="10.499"/>
<path fill="#FFFFFF" d="M30.068,204.674H19.82v-10.247h10.249V204.674z M30.32,194.175H19.569v10.751H30.32V194.175z"/>
<g>
	<defs>
		<rect id="SVGID_11_" x="10.552" y="172.646" width="62.762" height="95.393"/>
	</defs>
	<clipPath id="SVGID_12_">
		<use xlink:href="#SVGID_11_"  overflow="visible"/>
	</clipPath>
	<rect x="9.521" y="161.994" clip-path="url(#SVGID_12_)" fill="#D0EAF0" width="9.986" height="10.5"/>
	<path clip-path="url(#SVGID_12_)" fill="#FFFFFF" d="M19.381,172.368H9.647v-10.247h9.734V172.368z M19.633,161.869H9.396v10.751
		h10.237V161.869z"/>
</g>
<rect x="10.552" y="172.799" fill="#D0EAF0" width="8.955" height="10.499"/>
<polygon fill="#FFFFFF" points="10.552,172.672 10.552,172.924 19.381,172.924 19.381,183.171 10.552,183.171 10.552,183.423 
	19.633,183.423 19.633,172.672 "/>
<rect x="10.552" y="183.55" fill="#D0EAF0" width="8.955" height="10.499"/>
<polygon fill="#FFFFFF" points="10.552,183.424 10.552,183.676 19.381,183.676 19.381,193.923 10.552,193.923 10.552,194.175 
	19.633,194.175 19.633,183.424 "/>
<rect x="10.552" y="194.301" fill="#D0EAF0" width="8.955" height="10.499"/>
<polygon fill="#FFFFFF" points="10.552,194.175 10.552,194.427 19.381,194.427 19.381,204.674 10.552,204.674 10.552,204.925 
	19.633,204.925 19.633,194.175 "/>
<rect x="3.121" y="184.012" fill="#D0EAF0" width="11.789" height="11.789"/>
<path fill="#FFFFFF" d="M14.769,195.659H3.263v-11.506h11.506V195.659z M15.052,183.87H2.98v12.072h12.072V183.87z"/>
<rect x="3.121" y="196.083" fill="#D0EAF0" width="11.789" height="11.789"/>
<path fill="#FFFFFF" d="M14.769,207.731H3.263v-11.506h11.506V207.731z M15.052,195.942H2.98v12.072h12.072V195.942z"/>
<rect x="3.121" y="208.155" fill="#D0EAF0" width="11.789" height="11.789"/>
<path fill="#FFFFFF" d="M14.769,219.803H3.263v-11.506h11.506V219.803z M15.052,208.014H2.98v12.072h12.072V208.014z"/>
<rect x="3.121" y="220.286" fill="#D0EAF0" width="11.789" height="11.789"/>
<path fill="#FFFFFF" d="M14.769,231.933H3.263v-11.506h11.506V231.933z M15.052,220.144H2.98v12.072h12.072V220.144z"/>
<rect x="3.121" y="232.358" fill="#D0EAF0" width="11.789" height="11.789"/>
<path fill="#FFFFFF" d="M14.769,244.005H3.263v-11.506h11.506V244.005z M15.052,232.216H2.98v12.072h12.072V232.216z"/>
<rect x="3.121" y="244.43" fill="#D0EAF0" width="11.789" height="11.789"/>
<path fill="#FFFFFF" d="M14.769,256.077H3.263v-11.506h11.506V256.077z M15.052,244.288H2.98v12.072h12.072V244.288z"/>
<rect x="209.849" y="147.999" fill="#D0EAF0" width="28.703" height="8.051"/>
<rect x="209.849" y="115.569" fill="#D0EAF0" width="28.703" height="11.043"/>
<rect x="221.513" y="86.118" fill="#D0EAF0" width="21.657" height="14.201"/>
<rect x="122.859" y="208.644" fill="#2E2D4B" width="6.844" height="185.977"/>
<rect y="51.811" fill="#2E2D4B" width="15.052" height="351.187"/>
<rect x="4.026" y="1.019" fill="#2E2D4B" width="7" height="59.615"/>
<rect y="390.169" fill="#2E2D4B" width="37.843" height="16.582"/>
<rect x="91.409" y="390.169" fill="#2E2D4B" width="38.294" height="16.582"/>
<rect x="113.004" y="10.333" fill="#2E2D4B" width="14.714" height="52.144"/>
<rect x="113.004" fill="#2E2D4B" width="33.381" height="16.583"/>
<rect x="200.504" fill="#2E2D4B" width="42.907" height="16.583"/>
<rect y="48.399" fill="#2E2D4B" width="52.385" height="16.583"/>
<rect x="94.004" y="48.399" fill="#2E2D4B" width="33.714" height="16.583"/>
<polyline fill="#2E2D4B" points="4.026,0 118.719,0 118.719,3.648 4.026,3.648 "/>
<rect x="14.135" y="202.134" fill="#2E2D4B" width="56.375" height="3.51"/>
<rect x="69.927" y="157.287" fill="#2E2D4B" width="3.625" height="19.482"/>
<rect x="122.86" y="63.86" fill="#2E2D4B" width="4.857" height="96.374"/>
<rect x="195.063" y="158.48" fill="#2E2D4B" width="5.984" height="17.164"/>
<rect x="195.063" y="203.298" fill="#2E2D4B" width="5.984" height="11.819"/>
<rect x="238.62" fill="#2E2D4B" width="6.257" height="160.909"/>
<rect x="126.359" y="208.644" fill="#2E2D4B" width="74.605" height="6.473"/>
<rect x="169.135" y="156.05" fill="#2E2D4B" width="74.333" height="4.859"/>
<rect x="69.927" y="198.964" fill="#2E2D4B" width="3.625" height="32.304"/>
<rect x="69.927" y="253.227" fill="#2E2D4B" width="3.625" height="15.417"/>
<rect x="64.031" y="256.144" fill="#2E2D4B" width="2.271" height="12.5"/>
<rect x="57.781" y="256.144" fill="#2E2D4B" width="2.271" height="12.5"/>
<rect x="14.135" y="170.891" fill="#2E2D4B" width="56.375" height="3.51"/>
<rect x="14.135" y="266.058" fill="#2E2D4B" width="59.417" height="3.51"/>
<rect x="57.781" y="255.674" fill="#2E2D4B" width="29.708" height="3.51"/>
<rect x="69.927" y="156.724" fill="#2E2D4B" width="17.563" height="3.51"/>
<rect x="112.802" y="156.724" fill="#2E2D4B" width="31.083" height="3.51"/>
<rect x="226.955" y="115.569" fill="#2E2D4B" width="3.51" height="32.43"/>
<rect x="226.955" y="145.569" fill="#2E2D4B" width="16.215" height="2.43"/>
<rect x="226.955" y="127.736" fill="#2E2D4B" width="16.215" height="2.43"/>
<rect x="226.955" y="115.569" fill="#2E2D4B" width="16.215" height="2.43"/>
<rect x="226.955" y="121.819" fill="#2E2D4B" width="16.215" height="2.43"/>
<rect x="169.135" y="156.724" fill="#2E2D4B" width="31.083" height="3.51"/>
<rect x="112.614" y="255.674" fill="#2E2D4B" width="17.437" height="3.51"/>
<rect x="15.051" y="176.769" fill="#9E9D9B" width="12.917" height="22.875"/>
<rect x="60.052" y="259.184" fill="#9E9D9B" width="3.979" height="6.874"/>
<rect x="66.302" y="259.184" fill="#9E9D9B" width="3.625" height="6.874"/>
<polygon fill="#D7D7D5" points="66.302,266.058 67.405,260.935 69.927,259.184 69.927,266.058 "/>
<polygon fill="#D7D7D5" points="59.968,266.058 61.205,260.935 64.029,259.184 64.029,266.058 "/>
<rect x="230.465" y="117.999" fill="#9E9D9B" width="8.087" height="4.145"/>
<rect x="230.465" y="123.591" fill="#9E9D9B" width="8.087" height="4.145"/>
<polygon fill="#D7D7D5" points="230.465,127.736 232.28,125.207 238.552,123.591 238.552,127.736 "/>
<polygon fill="#D7D7D5" points="230.465,122.144 232.28,119.614 238.552,117.999 238.552,122.144 "/>
<rect x="230.465" y="130.165" fill="#9E9D9B" width="8.087" height="15.404"/>
<polygon fill="#D7D7D5" points="230.465,145.569 232.802,133.853 238.552,130.166 238.552,145.569 "/>
<rect x="37.758" y="390.21" fill="#A5DAEC" width="53.651" height="16.5"/>
<rect x="37.758" y="396.01" fill="#61A9C4" width="53.651" height="4.899"/>
<rect x="146.385" fill="#A5DAEC" width="54.119" height="16.583"/>
<rect x="146.385" y="5.829" fill="#61A9C4" width="54.119" height="4.924"/>
<rect x="52.385" y="48.399" fill="#A5DAEC" width="41.619" height="16.583"/>
<rect x="52.385" y="54.228" fill="#61A9C4" width="41.619" height="4.924"/>
<rect x="91.754" y="48.399" fill="#E3004F" width="2.25" height="3.125"/>
<rect x="82.872" y="45.649" transform="matrix(-0.7071 -0.7071 0.7071 -0.7071 102.5543 157.9857)" fill="#E3004F" width="2.25" height="24.209"/>
<rect x="110.364" y="255.675" fill="#E3004F" width="2.25" height="3.125"/>
<rect x="101.483" y="252.924" transform="matrix(-0.707 -0.7072 0.7072 -0.707 -12.2811 524.97)" fill="#E3004F" width="2.25" height="24.21"/>
<rect x="69.927" y="231.269" fill="#E3004F" width="3.125" height="2.25"/>
<rect x="78.156" y="229.17" transform="matrix(-0.7073 0.7069 -0.7069 -0.7073 305.9135 355.8913)" fill="#E3004F" width="2.25" height="24.21"/>
<rect x="69.927" y="176.769" fill="#E3004F" width="3.125" height="2.25"/>
<rect x="78.156" y="174.67" transform="matrix(-0.7073 0.7069 -0.7069 -0.7073 267.388 262.8421)" fill="#E3004F" width="2.25" height="24.21"/>
<rect x="87.489" y="157.109" fill="#E3004F" width="2.25" height="3.125"/>
<rect x="96.37" y="138.776" transform="matrix(0.7071 0.7071 -0.7071 0.7071 135.244 -24.7477)" fill="#E3004F" width="2.25" height="24.209"/>
<rect x="143.885" y="157.109" fill="#E3004F" width="2.25" height="3.125"/>
<rect x="152.766" y="138.775" transform="matrix(0.7071 0.7071 -0.7071 0.7071 151.762 -64.6257)" fill="#E3004F" width="2.25" height="24.21"/>
<rect x="195.063" y="175.644" fill="#E3004F" width="3.125" height="2.25"/>
<rect x="203.293" y="173.545" transform="matrix(-0.7073 0.7069 -0.7069 -0.7073 480.2416 172.4635)" fill="#E3004F" width="2.25" height="24.21"/>
<rect x="15.051" y="205.643" fill="#61A9C4" width="47.74" height="21.236"/>
<path fill="#FFFFFF" d="M21.811,218.253v-0.488c-0.448-0.099-0.787-0.438-0.886-0.886h-0.488
	C20.544,217.589,21.101,218.145,21.811,218.253"/>
<path fill="#FFFFFF" d="M21.811,217.271v-0.392h-0.392C21.488,217.059,21.63,217.201,21.811,217.271"/>
<path fill="#FFFFFF" d="M22.305,217.765v0.488c0.71-0.108,1.267-0.664,1.374-1.374h-0.488
	C23.092,217.327,22.753,217.666,22.305,217.765"/>
<path fill="#FFFFFF" d="M22.698,216.879h-0.392v0.392C22.486,217.202,22.628,217.06,22.698,216.879"/>
<path fill="#FFFFFF" d="M21.418,216.385h0.392v-0.392C21.63,216.062,21.488,216.205,21.418,216.385"/>
<path fill="#FFFFFF" d="M22.305,215.992v0.393h0.392C22.628,216.204,22.486,216.062,22.305,215.992"/>
<path fill="#FFFFFF" d="M20.618,207.742c-1.284,0-2.335,1.051-2.335,2.335v12.368c0,1.285,1.051,2.335,2.335,2.335h29.796
	c0.165,0,0.325-0.018,0.481-0.051c0.302,0.032,0.607,0.051,0.918,0.051c4.705,0,8.519-3.813,8.519-8.519s-3.813-8.519-8.519-8.519
	c-0.311,0-0.616,0.019-0.918,0.052c-0.156-0.033-0.316-0.052-0.481-0.052H20.618z M22.305,213.648v0.869
	c0.981,0.114,1.754,0.887,1.868,1.868h0.869v0.494h-0.869c-0.114,0.98-0.887,1.753-1.868,1.868v0.868h-0.494v-0.868
	c-0.98-0.115-1.753-0.888-1.868-1.868h-0.869v-0.494h0.869c0.115-0.981,0.888-1.754,1.868-1.868v-0.869H22.305z"/>
<path fill="#FFFFFF" d="M20.437,216.385h0.488c0.099-0.448,0.438-0.787,0.886-0.886v-0.488
	C21.101,215.118,20.545,215.675,20.437,216.385"/>
<path fill="#FFFFFF" d="M23.191,216.385h0.488c-0.108-0.71-0.664-1.267-1.374-1.374v0.488
	C22.753,215.598,23.092,215.937,23.191,216.385"/>
<path fill="#61A9C4" d="M15.052,250.638h5.771h1.323h0.843c1.983,0,3.605-1.622,3.605-3.604v-7.125c0-1.982-1.622-3.604-3.605-3.604
	h-0.843h-1.323h-5.771V250.638z"/>
<path fill="#FFFFFF" d="M25.718,239.898v7.146c0,1.529-1.252,2.781-2.781,2.781h-1.833c-1.53,0-2.781-1.252-2.781-2.781v-7.146
	c0-1.53,1.251-2.781,2.781-2.781h1.833C24.466,237.117,25.718,238.368,25.718,239.898"/>
<path fill="#61A9C4" d="M21.961,244.681v-0.365c-0.334-0.074-0.587-0.327-0.661-0.661h-0.364
	C21.016,244.184,21.432,244.601,21.961,244.681"/>
<path fill="#61A9C4" d="M21.961,243.948v-0.293h-0.293C21.72,243.791,21.826,243.896,21.961,243.948"/>
<path fill="#61A9C4" d="M22.33,244.316v0.365c0.53-0.08,0.945-0.496,1.025-1.026h-0.364
	C22.917,243.989,22.664,244.242,22.33,244.316"/>
<path fill="#61A9C4" d="M22.622,243.655h-0.293v0.293C22.464,243.896,22.57,243.791,22.622,243.655"/>
<path fill="#61A9C4" d="M21.668,243.287h0.293v-0.293C21.826,243.046,21.72,243.152,21.668,243.287"/>
<path fill="#61A9C4" d="M22.33,242.994v0.293h0.293C22.57,243.152,22.464,243.046,22.33,242.994"/>
<path fill="#61A9C4" d="M20.936,243.287H21.3c0.074-0.334,0.327-0.587,0.661-0.661v-0.364
	C21.432,242.342,21.016,242.757,20.936,243.287"/>
<path fill="#61A9C4" d="M22.991,243.287h0.364c-0.08-0.53-0.496-0.945-1.025-1.025v0.364
	C22.664,242.7,22.917,242.953,22.991,243.287"/>
<path fill="#61A9C4" d="M48.04,186.576v2.375c0,2.475-2.024,4.5-4.5,4.5h-4.625c-2.475,0-4.5-2.025-4.5-4.5v-2.375
	c0-2.475,2.025-4.5,4.5-4.5h4.625C46.016,182.076,48.04,184.101,48.04,186.576"/>
<path fill="#FFFFFF" d="M46.967,186.966v1.596c0,2.156-1.754,3.911-3.909,3.911h-5.231c-2.156,0-3.911-1.755-3.911-3.911v-1.596
	c0-2.156,1.755-3.91,3.911-3.91h5.231C45.213,183.056,46.967,184.81,46.967,186.966 M34.915,188.562
	c0,1.605,1.306,2.911,2.911,2.911h5.231c1.604,0,2.909-1.306,2.909-2.911v-1.596c0-1.605-1.306-2.91-2.909-2.91h-5.231
	c-1.605,0-2.911,1.305-2.911,2.91V188.562z"/>
<path fill="#61A9C4" d="M34.718,182.514v10.5c0,0.619-0.506,1.125-1.125,1.125h-4.5c-0.619,0-1.125-0.506-1.125-1.125v-10.5
	c0-0.619,0.506-1.125,1.125-1.125h4.5C34.212,181.389,34.718,181.895,34.718,182.514"/>
<path fill="#61A9C4" d="M36.458,186.014v3.5c0,0.269-0.221,0.49-0.49,0.49h-2.5c-0.269,0-0.489-0.221-0.489-0.49v-3.5
	c0-0.269,0.221-0.49,0.489-0.49h2.5C36.237,185.524,36.458,185.745,36.458,186.014"/>
<path fill="#FFFFFF" d="M31.343,186.817c0.523,0,0.946,0.424,0.946,0.946c0,0.524-0.423,0.947-0.946,0.947
	c-0.522,0-0.945-0.423-0.945-0.947C30.397,187.241,30.82,186.817,31.343,186.817"/>
<rect x="209.848" y="126.612" fill="#B2D4DC" width="17.107" height="21.387"/>
<path fill="#FFFFFF" d="M224.05,143.681v-6.103v-0.772v-8.604h-0.491v7.052c-0.218-0.311-0.5-0.57-0.824-0.769v-6.283h-0.491v6.047
	c-0.26-0.094-0.536-0.152-0.824-0.162v-5.885h-0.492v5.875h-0.824v-5.875h-0.491v5.875h-0.824v-5.875h-0.492v5.875h-0.824v-5.875
	h-0.491v5.875h-0.824v-5.875h-0.491v5.875h-0.824v-5.875h-0.492v5.885c-0.289,0.01-0.563,0.068-0.823,0.162v-6.047h-0.492v6.283
	c-0.324,0.199-0.607,0.458-0.824,0.769v-7.052h-0.491v8.604v0.772v6.103c0,1.501,1.229,2.729,2.729,2.729h6.875
	C222.821,146.41,224.05,145.182,224.05,143.681"/>
<path fill="#61A9C4" d="M226.955,142.279v-4.333h-2.905v1.666h-2.842c-0.154,0-0.281,0.127-0.281,0.282v0.437
	c0,0.155,0.127,0.281,0.281,0.281h2.842v1.667H226.955z"/>
<path fill="#FFFFFF" d="M225.501,139.511c-0.268,0-0.484-0.217-0.484-0.484c0-0.268,0.217-0.485,0.484-0.485
	c0.267,0,0.482,0.217,0.482,0.485C225.983,139.294,225.768,139.511,225.501,139.511"/>
<path fill="#FFFFFF" d="M225.501,141.683c-0.268,0-0.484-0.217-0.484-0.484c0-0.268,0.217-0.485,0.484-0.485
	c0.267,0,0.482,0.217,0.482,0.485C225.983,141.466,225.768,141.683,225.501,141.683"/>
<rect x="235.715" y="100.319" fill="#B2D4DC" width="2.905" height="15.25"/>
<rect x="221.513" y="100.319" fill="#61A9C4" width="14.202" height="15.25"/>
<rect x="219.925" y="101.819" fill="#61A9C4" width="0.927" height="12.25"/>
<path fill="#FFFFFF" d="M229.839,111.278c0-1.327,1.079-2.406,2.405-2.406c1.327,0,2.406,1.079,2.406,2.406
	c0,1.326-1.079,2.405-2.406,2.405C230.918,113.683,229.839,112.604,229.839,111.278 M233.9,111.278c0-0.913-0.743-1.656-1.656-1.656
	s-1.657,0.743-1.657,1.656s0.744,1.655,1.657,1.655S233.9,112.191,233.9,111.278"/>
<path fill="#FFFFFF" d="M230.994,111.278c0-0.689,0.561-1.25,1.25-1.25c0.688,0,1.25,0.561,1.25,1.25s-0.562,1.25-1.25,1.25
	C231.555,112.528,230.994,111.967,230.994,111.278 M232.744,111.278c0-0.275-0.226-0.5-0.5-0.5c-0.276,0-0.5,0.225-0.5,0.5
	s0.224,0.5,0.5,0.5C232.519,111.778,232.744,111.553,232.744,111.278"/>
<path fill="#FFFFFF" d="M224.265,111.278c0-0.908,0.738-1.646,1.646-1.646c0.909,0,1.646,0.738,1.646,1.646
	c0,0.907-0.737,1.646-1.646,1.646C225.003,112.924,224.265,112.186,224.265,111.278 M226.807,111.278
	c0-0.494-0.401-0.896-0.896-0.896s-0.896,0.402-0.896,0.896c0,0.494,0.4,0.896,0.896,0.896S226.807,111.772,226.807,111.278"/>
<path fill="#FFFFFF" d="M222.577,111.278c0-1.838,1.496-3.334,3.334-3.334c1.837,0,3.333,1.496,3.333,3.334
	s-1.496,3.333-3.333,3.333C224.073,114.611,222.577,113.116,222.577,111.278 M228.494,111.278c0-1.425-1.159-2.584-2.583-2.584
	c-1.425,0-2.584,1.159-2.584,2.584c0,1.424,1.159,2.583,2.584,2.583C227.335,113.861,228.494,112.703,228.494,111.278"/>
<path fill="#FFFFFF" d="M227.389,104.61c0,1.327-1.079,2.406-2.404,2.406c-1.327,0-2.406-1.079-2.406-2.406
	c0-1.326,1.079-2.405,2.406-2.405C226.31,102.205,227.389,103.284,227.389,104.61 M223.328,104.61c0,0.913,0.742,1.656,1.656,1.656
	c0.912,0,1.654-0.743,1.654-1.656s-0.742-1.655-1.654-1.655C224.07,102.955,223.328,103.697,223.328,104.61"/>
<path fill="#FFFFFF" d="M226.233,104.61c0,0.689-0.563,1.25-1.25,1.25c-0.689,0-1.25-0.561-1.25-1.25s0.561-1.25,1.25-1.25
	C225.671,103.36,226.233,103.921,226.233,104.61 M224.483,104.61c0,0.275,0.224,0.5,0.5,0.5c0.275,0,0.5-0.225,0.5-0.5
	s-0.225-0.5-0.5-0.5C224.707,104.11,224.483,104.335,224.483,104.61"/>
<path fill="#FFFFFF" d="M232.963,104.61c0,0.908-0.739,1.646-1.646,1.646c-0.908,0-1.646-0.738-1.646-1.646
	c0-0.907,0.738-1.646,1.646-1.646C232.224,102.964,232.963,103.703,232.963,104.61 M230.421,104.61c0,0.494,0.402,0.896,0.896,0.896
	c0.493,0,0.896-0.402,0.896-0.896s-0.402-0.896-0.896-0.896C230.823,103.714,230.421,104.116,230.421,104.61"/>
<path fill="#FFFFFF" d="M234.65,104.61c0,1.838-1.496,3.334-3.334,3.334s-3.333-1.496-3.333-3.334s1.495-3.333,3.333-3.333
	S234.65,102.772,234.65,104.61 M228.733,104.61c0,1.425,1.158,2.584,2.583,2.584s2.584-1.159,2.584-2.584
	c0-1.424-1.159-2.583-2.584-2.583S228.733,103.186,228.733,104.61"/>
<rect x="220.852" y="104.694" fill="#B2D4DC" width="0.66" height="1.481"/>
<rect x="220.852" y="109.715" fill="#B2D4DC" width="0.66" height="1.48"/>
<rect x="221.484" y="69.181" fill="#B2D4DC" width="17.105" height="16.937"/>
<path fill="#61A9C4" d="M221.011,69.186c-0.615,0.015-1.115,0.398-1.115,0.87v15.187c0,0.472,0.5,0.855,1.115,0.87V69.186z"/>
<path fill="#FFFFFF" d="M131.157,307.117c0.268,0,0.483,0.217,0.483,0.483c0,0.269-0.216,0.485-0.483,0.485
	c-0.269,0-0.483-0.217-0.483-0.485C130.674,307.333,130.889,307.117,131.157,307.117"/>
<path fill="#FFFFFF" d="M131.157,304.945c0.268,0,0.483,0.217,0.483,0.483c0,0.269-0.216,0.485-0.483,0.485
	c-0.269,0-0.483-0.217-0.483-0.485C130.674,305.162,130.889,304.945,131.157,304.945"/>
<path fill="#2E2D4B" d="M46.88,192.923h-7.526v-1.845l2.532-2.56c0.723-0.757,1.196-1.274,1.419-1.55
	c0.222-0.276,0.377-0.515,0.465-0.713c0.087-0.198,0.132-0.406,0.132-0.624c0-0.27-0.088-0.482-0.264-0.639
	c-0.175-0.156-0.421-0.234-0.736-0.234c-0.327,0-0.657,0.094-0.99,0.28c-0.334,0.188-0.711,0.463-1.132,0.826l-1.539-1.801
	c0.534-0.478,0.983-0.82,1.348-1.025c0.364-0.206,0.76-0.363,1.188-0.471c0.428-0.11,0.909-0.164,1.443-0.164
	c0.671,0,1.271,0.119,1.798,0.355c0.527,0.236,0.937,0.573,1.228,1.011c0.291,0.437,0.437,0.927,0.437,1.471
	c0,0.408-0.051,0.784-0.152,1.128c-0.103,0.346-0.26,0.685-0.473,1.019c-0.212,0.333-0.495,0.684-0.848,1.053
	c-0.352,0.369-1.103,1.069-2.252,2.099v0.071h3.923V192.923z"/>
<path fill="#2E2D4B" d="M50.966,190.802l0.1,0.163c-0.459,1.802-0.875,3.129-1.248,3.98h-1.979c0.137-0.653,0.275-1.384,0.415-2.196
	c0.14-0.81,0.235-1.46,0.287-1.947H50.966z"/>
<path fill="#2E2D4B" d="M59.926,187.752c0,1.835-0.308,3.179-0.923,4.032c-0.614,0.854-1.556,1.28-2.823,1.28
	c-1.238,0-2.173-0.445-2.802-1.336c-0.629-0.892-0.943-2.217-0.943-3.976c0-1.845,0.308-3.197,0.922-4.058
	c0.615-0.861,1.555-1.291,2.823-1.291c1.234,0,2.167,0.449,2.799,1.344C59.609,184.645,59.926,185.979,59.926,187.752
	 M55.223,187.752c0,1.173,0.073,1.979,0.22,2.419c0.146,0.439,0.393,0.659,0.737,0.659c0.351,0,0.598-0.226,0.741-0.681
	c0.145-0.454,0.217-1.252,0.217-2.397c0-1.149-0.073-1.955-0.22-2.416s-0.393-0.691-0.738-0.691c-0.345,0-0.591,0.222-0.737,0.667
	C55.296,185.756,55.223,186.569,55.223,187.752"/>
<path fill="#2E2D4B" d="M68.438,187.752c0,1.835-0.307,3.179-0.923,4.032c-0.614,0.854-1.556,1.28-2.823,1.28
	c-1.238,0-2.173-0.445-2.802-1.336c-0.629-0.892-0.943-2.217-0.943-3.976c0-1.845,0.308-3.197,0.922-4.058
	c0.615-0.861,1.556-1.291,2.823-1.291c1.234,0,2.167,0.449,2.799,1.344C68.122,184.645,68.438,185.979,68.438,187.752
	 M63.735,187.752c0,1.173,0.073,1.979,0.22,2.419c0.146,0.439,0.393,0.659,0.737,0.659c0.351,0,0.598-0.226,0.741-0.681
	c0.145-0.454,0.217-1.252,0.217-2.397c0-1.149-0.073-1.955-0.22-2.416s-0.393-0.691-0.738-0.691c-0.345,0-0.591,0.222-0.737,0.667
	C63.809,185.756,63.735,186.569,63.735,187.752"/>
<path fill="#2E2D4B" d="M47.213,246.311h-1.142v2.008h-2.767v-2.008h-4.136v-2.057l4.313-6.307h2.589v6.271h1.142V246.311z
	 M43.305,244.218v-1.205c0-0.228,0.008-0.533,0.024-0.919c0.017-0.386,0.03-0.588,0.039-0.606h-0.077
	c-0.161,0.364-0.344,0.705-0.548,1.021l-1.148,1.709H43.305z"/>
<path fill="#2E2D4B" d="M50.966,246.198l0.1,0.163c-0.459,1.802-0.875,3.129-1.248,3.98h-1.979c0.137-0.653,0.275-1.384,0.415-2.196
	c0.14-0.81,0.235-1.46,0.287-1.947H50.966z"/>
<path fill="#2E2D4B" d="M59.926,243.148c0,1.835-0.308,3.179-0.923,4.032c-0.614,0.854-1.556,1.28-2.823,1.28
	c-1.238,0-2.173-0.445-2.802-1.336c-0.629-0.892-0.943-2.217-0.943-3.976c0-1.845,0.308-3.197,0.922-4.058
	c0.615-0.861,1.555-1.291,2.823-1.291c1.234,0,2.167,0.449,2.799,1.344C59.609,240.04,59.926,241.375,59.926,243.148
	 M55.223,243.148c0,1.173,0.073,1.979,0.22,2.419c0.146,0.439,0.393,0.659,0.737,0.659c0.351,0,0.598-0.226,0.741-0.681
	c0.145-0.454,0.217-1.252,0.217-2.397c0-1.149-0.073-1.955-0.22-2.416s-0.393-0.691-0.738-0.691c-0.345,0-0.591,0.222-0.737,0.667
	C55.296,241.152,55.223,241.965,55.223,243.148"/>
<path fill="#2E2D4B" d="M68.474,242.694c0,2.029-0.438,3.497-1.313,4.406c-0.875,0.907-2.274,1.361-4.199,1.361
	c-0.634,0-1.116-0.023-1.447-0.07v-2.221c0.407,0.076,0.813,0.113,1.22,0.113c1.003,0,1.776-0.207,2.32-0.62
	c0.544-0.414,0.839-1.068,0.887-1.962h-0.085c-0.185,0.341-0.367,0.587-0.547,0.738c-0.18,0.152-0.399,0.267-0.659,0.348
	c-0.261,0.08-0.584,0.12-0.972,0.12c-0.899,0-1.602-0.3-2.107-0.9c-0.506-0.601-0.759-1.429-0.759-2.484
	c0-1.149,0.327-2.049,0.981-2.702c0.656-0.653,1.554-0.979,2.693-0.979c1.267,0,2.248,0.421,2.943,1.263
	C68.126,239.946,68.474,241.143,68.474,242.694 M64.565,240.083c-0.308,0-0.558,0.11-0.749,0.333
	c-0.19,0.223-0.287,0.579-0.287,1.071c0,0.388,0.083,0.697,0.248,0.926c0.166,0.23,0.419,0.344,0.76,0.344
	c0.307,0,0.574-0.111,0.801-0.333c0.228-0.223,0.341-0.489,0.341-0.802c0-0.421-0.105-0.783-0.315-1.085
	C65.152,240.234,64.887,240.083,64.565,240.083"/>
</svg>
