<?xml version="1.0" encoding="utf-8"?>
<!-- Generator: Adobe Illustrator 17.1.0, SVG Export Plug-In . SVG Version: 6.00 Build 0)  -->
<!DOCTYPE svg PUBLIC "-//W3C//DTD SVG 1.1//EN" "http://www.w3.org/Graphics/SVG/1.1/DTD/svg11.dtd">
<svg version="1.1" id="Layer_1" xmlns="http://www.w3.org/2000/svg" xmlns:xlink="http://www.w3.org/1999/xlink" x="0px" y="0px"
	 viewBox="0 0 992 341.3" enable-background="new 0 0 992 341.3" xml:space="preserve">
<g>
	<defs>
		<rect id="SVGID_1_" width="992" height="341.3"/>
	</defs>
	<clipPath id="SVGID_2_">
		<use xlink:href="#SVGID_1_"  overflow="visible"/>
	</clipPath>
	<path clip-path="url(#SVGID_2_)" fill="#CD563D" d="M988.9,163.1l-160-160C824.7-1,818-1,813.8,3.1c-4.2,4.2-4.2,10.9,0,15.1
		L955.6,160H10.7C4.8,160,0,164.8,0,170.7c0,5.9,4.8,10.7,10.7,10.7h944.9L813.8,323.1c-4.2,4.2-4.2,10.9,0,15.1
		c2.1,2.1,4.8,3.1,7.5,3.1s5.5-1,7.5-3.1l160-160C993.1,174,993.1,167.3,988.9,163.1"/>
</g>
</svg>
