<?xml version="1.0" encoding="utf-8"?>
<!-- Generator: Adobe Illustrator 17.1.0, SVG Export Plug-In . SVG Version: 6.00 Build 0)  -->
<!DOCTYPE svg PUBLIC "-//W3C//DTD SVG 1.1//EN" "http://www.w3.org/Graphics/SVG/1.1/DTD/svg11.dtd">
<svg version="1.1" id="Layer_1" xmlns="http://www.w3.org/2000/svg" xmlns:xlink="http://www.w3.org/1999/xlink" x="0px" y="0px"
	 viewBox="0 0 429.3 512" enable-background="new 0 0 429.3 512" xml:space="preserve">
<g>
	<defs>
		<rect id="SVGID_1_" width="429.3" height="512"/>
	</defs>
	<clipPath id="SVGID_2_">
		<use xlink:href="#SVGID_1_"  overflow="visible"/>
	</clipPath>
	<path clip-path="url(#SVGID_2_)" fill="#EC5E40" d="M366.4,62.9C325.9,22.3,272,0,214.7,0C157.3,0,103.4,22.3,62.9,62.9
		C22.3,103.4,0,157.3,0,214.7s22.3,111.2,62.9,151.8L204,507.6c2.9,2.9,6.8,4.4,10.6,4.4c3.8,0,7.7-1.5,10.6-4.4l141.2-141.2
		c40.5-40.5,62.9-94.4,62.9-151.8C429.3,157.3,407,103.4,366.4,62.9 M282.1,282.1c-18,18-41.9,27.9-67.4,27.9s-49.4-9.9-67.4-27.9
		c-18-18-27.9-41.9-27.9-67.4c0-25.5,9.9-49.4,27.9-67.4c18-18,41.9-27.9,67.4-27.9s49.4,9.9,67.4,27.9c18,18,27.9,41.9,27.9,67.4
		C310,240.1,300.1,264.1,282.1,282.1"/>
</g>
</svg>
