<?xml version="1.0" encoding="utf-8"?>
<!-- Generator: Adobe Illustrator 17.1.0, SVG Export Plug-In . SVG Version: 6.00 Build 0)  -->
<!DOCTYPE svg PUBLIC "-//W3C//DTD SVG 1.1//EN" "http://www.w3.org/Graphics/SVG/1.1/DTD/svg11.dtd">
<svg version="1.1" id="Layer_1" xmlns="http://www.w3.org/2000/svg" xmlns:xlink="http://www.w3.org/1999/xlink" x="0px" y="0px"
	 viewBox="0 0 2000 2000" enable-background="new 0 0 2000 2000" xml:space="preserve">
<circle fill="#EA5D40" cx="1000" cy="1000" r="999"/>
<g>
	<g>
		<defs>
			<rect id="SVGID_1_" x="467.2" y="467.2" width="1065.6" height="1065.6"/>
		</defs>
		<clipPath id="SVGID_2_">
			<use xlink:href="#SVGID_1_"  overflow="visible"/>
		</clipPath>
		<path clip-path="url(#SVGID_2_)" fill="#FFFFFF" d="M936.5,467.2c-258.7,0-469.3,210.6-469.3,469.3s210.6,469.3,469.3,469.3
			s469.3-210.4,469.3-469.3C1405.6,677.8,1195.2,467.2,936.5,467.2 M936.5,1319c-211,0-382.5-171.7-382.5-382.5
			c0-211,171.7-382.5,382.5-382.5S1319,725.5,1319,936.5C1319,1147.3,1147.3,1319,936.5,1319"/>
	</g>
	<g>
		<defs>
			<rect id="SVGID_3_" x="467.2" y="467.2" width="1065.6" height="1065.6"/>
		</defs>
		<clipPath id="SVGID_4_">
			<use xlink:href="#SVGID_3_"  overflow="visible"/>
		</clipPath>
		<path clip-path="url(#SVGID_4_)" fill="#FFFFFF" d="M1520.1,1458.9l-248.3-248.5c-16.9-16.9-44.3-16.9-61.2,0s-16.9,44.3,0,61.2
			l248.3,248.5c8.5,8.5,19.6,12.7,30.6,12.7s22.1-4.2,30.6-12.7C1536.9,1503.2,1536.9,1475.8,1520.1,1458.9"/>
	</g>
</g>
</svg>
