<?xml version="1.0" encoding="utf-8"?>
<!-- Generator: Adobe Illustrator 16.0.0, SVG Export Plug-In . SVG Version: 6.00 Build 0)  -->
<!DOCTYPE svg PUBLIC "-//W3C//DTD SVG 1.1//EN" "http://www.w3.org/Graphics/SVG/1.1/DTD/svg11.dtd">
<svg version="1.1" id="Слой_1" xmlns="http://www.w3.org/2000/svg" xmlns:xlink="http://www.w3.org/1999/xlink" x="0px" y="0px"
	 width="356.007px" height="642.143px" viewBox="0 0 356.007 642.143" enable-background="new 0 0 356.007 642.143"
	 xml:space="preserve">
<polygon fill="#352B4C" points="4.711,0.001 4.711,8.314 4.711,16.629 81.136,16.629 81.136,8.314 81.136,0.001 "/>
<polygon fill="#352B4C" points="155.658,1.394 155.658,9.013 155.658,16.628 163.852,16.628 179.086,1.394 "/>
<line fill="none" stroke="#352B4C" stroke-width="3" stroke-linecap="round" stroke-linejoin="round" stroke-miterlimit="10" x1="155.664" y1="9.013" x2="155.664" y2="1.38"/>
<line fill="none" stroke="#352B4C" stroke-width="3" stroke-linecap="round" stroke-linejoin="round" stroke-miterlimit="10" x1="155.664" y1="16.63" x2="155.664" y2="9.015"/>
<line fill="none" stroke="#352B4C" stroke-width="3" stroke-linecap="round" stroke-linejoin="round" stroke-miterlimit="10" x1="79.422" y1="16.63" x2="79.422" y2="9.015"/>
<line fill="none" stroke="#352B4C" stroke-width="3" stroke-linecap="round" stroke-linejoin="round" stroke-miterlimit="10" x1="21.396" y1="16.63" x2="79.426" y2="16.63"/>
<line fill="none" stroke="#352B4C" stroke-width="3" stroke-linecap="round" stroke-linejoin="round" stroke-miterlimit="10" x1="155.664" y1="16.63" x2="163.857" y2="16.63"/>
<line fill="none" stroke="#352B4C" stroke-width="3" stroke-linecap="round" stroke-linejoin="round" stroke-miterlimit="10" x1="179.077" y1="1.386" x2="155.665" y2="1.386"/>
<line fill="none" stroke="#352B4C" stroke-width="3" stroke-linecap="round" stroke-linejoin="round" stroke-miterlimit="10" x1="155.664" y1="16.63" x2="89.627" y2="54.74"/>
<line fill="none" stroke="#352B4C" stroke-width="3" stroke-linecap="round" stroke-linejoin="round" stroke-miterlimit="10" x1="79.422" y1="16.63" x2="79.422" y2="9.015"/>
<line fill="none" stroke="#352B4C" stroke-width="3" stroke-linecap="round" stroke-linejoin="round" stroke-miterlimit="10" x1="155.664" y1="16.63" x2="155.664" y2="9.015"/>
<polygon fill="#352B4C" points="163.862,16.626 163.862,53.911 179.079,38.668 179.079,1.399 "/>
<line fill="none" stroke="#352B4C" stroke-width="3" stroke-linecap="round" stroke-linejoin="round" stroke-miterlimit="10" x1="163.856" y1="16.63" x2="163.856" y2="53.915"/>
<line fill="none" stroke="#352B4C" stroke-width="3" stroke-linecap="round" stroke-linejoin="round" stroke-miterlimit="10" x1="179.077" y1="38.673" x2="179.077" y2="1.389"/>
<rect fill="#352B4C" width="21.371" height="557.013"/>
<line fill="none" stroke="#352B4C" stroke-width="3" stroke-linecap="round" stroke-linejoin="round" stroke-miterlimit="10" x1="6.158" y1="16.63" x2="6.158" y2="37.831"/>
<line fill="none" stroke="#352B4C" stroke-width="3" stroke-linecap="round" stroke-linejoin="round" stroke-miterlimit="10" x1="6.158" y1="45.464" x2="6.158" y2="197.218"/>
<line fill="none" stroke="#352B4C" stroke-width="3" stroke-linecap="round" stroke-linejoin="round" stroke-miterlimit="10" x1="6.158" y1="204.839" x2="6.158" y2="532.732"/>
<line fill="none" stroke="#352B4C" stroke-width="3" stroke-linecap="round" stroke-linejoin="round" stroke-miterlimit="10" x1="21.396" y1="532.729" x2="21.396" y2="202.166"/>
<line fill="none" stroke="#352B4C" stroke-width="3" stroke-linecap="round" stroke-linejoin="round" stroke-miterlimit="10" x1="21.396" y1="194.536" x2="21.396" y2="16.631"/>
<polygon fill-rule="evenodd" clip-rule="evenodd" fill="#352B4C" points="3.332,541.878 3.332,532.726 34.575,532.726 
	34.575,541.878 34.575,547.977 34.575,555.608 3.332,555.608 3.332,547.977 "/>
<polygon fill-rule="evenodd" clip-rule="evenodd" fill="#352B4C" points="147.52,547.976 147.52,541.877 147.52,532.733 
	173.82,532.733 173.82,541.877 173.82,549.51 173.82,555.609 147.52,555.609 "/>
<polygon fill-rule="evenodd" clip-rule="evenodd" fill="#352B4C" points="243.061,541.878 243.061,532.726 341.537,532.726 
	341.537,555.608 243.061,555.608 243.061,549.512 "/>
<line fill="none" stroke="#352B4C" stroke-width="3" stroke-linecap="round" stroke-linejoin="round" stroke-miterlimit="10" x1="147.52" y1="541.878" x2="147.52" y2="532.726"/>
<line fill="none" stroke="#352B4C" stroke-width="3" stroke-linecap="round" stroke-linejoin="round" stroke-miterlimit="10" x1="147.52" y1="555.599" x2="147.52" y2="547.966"/>
<line fill="none" stroke="#352B4C" stroke-width="3" stroke-linecap="round" stroke-linejoin="round" stroke-miterlimit="10" x1="147.52" y1="555.599" x2="147.52" y2="547.966"/>
<line fill="none" stroke="#352B4C" stroke-width="3" stroke-linecap="round" stroke-linejoin="round" stroke-miterlimit="10" x1="147.52" y1="547.976" x2="147.52" y2="541.877"/>
<line fill="none" stroke="#352B4C" stroke-width="3" stroke-linecap="round" stroke-linejoin="round" stroke-miterlimit="10" x1="34.566" y1="541.878" x2="34.566" y2="532.726"/>
<line fill="none" stroke="#352B4C" stroke-width="3" stroke-linecap="round" stroke-linejoin="round" stroke-miterlimit="10" x1="34.566" y1="555.599" x2="34.566" y2="547.966"/>
<line fill="none" stroke="#352B4C" stroke-width="3" stroke-linecap="round" stroke-linejoin="round" stroke-miterlimit="10" x1="34.566" y1="555.599" x2="34.566" y2="547.966"/>
<line fill="none" stroke="#352B4C" stroke-width="3" stroke-linecap="round" stroke-linejoin="round" stroke-miterlimit="10" x1="34.566" y1="547.976" x2="34.566" y2="541.877"/>
<line fill="none" stroke="#352B4C" stroke-width="3" stroke-linecap="round" stroke-linejoin="round" stroke-miterlimit="10" x1="243.061" y1="549.503" x2="243.061" y2="555.603"/>
<line fill="none" stroke="#352B4C" stroke-width="3" stroke-linecap="round" stroke-linejoin="round" stroke-miterlimit="10" x1="243.061" y1="532.729" x2="243.061" y2="541.882"/>
<line fill="none" stroke="#352B4C" stroke-width="3" stroke-linecap="round" stroke-linejoin="round" stroke-miterlimit="10" x1="243.061" y1="541.878" x2="243.061" y2="549.512"/>
<line fill="none" stroke="#352B4C" stroke-width="3" stroke-linecap="round" stroke-linejoin="round" stroke-miterlimit="10" x1="173.814" y1="549.503" x2="173.814" y2="555.603"/>
<line fill="none" stroke="#352B4C" stroke-width="3" stroke-linecap="round" stroke-linejoin="round" stroke-miterlimit="10" x1="173.814" y1="532.729" x2="173.814" y2="541.882"/>
<line fill="none" stroke="#352B4C" stroke-width="3" stroke-linecap="round" stroke-linejoin="round" stroke-miterlimit="10" x1="173.814" y1="541.878" x2="173.814" y2="549.512"/>
<line fill="none" stroke="#352B4C" stroke-width="3" stroke-linecap="round" stroke-linejoin="round" stroke-miterlimit="10" x1="333.894" y1="532.729" x2="243.06" y2="532.729"/>
<line fill="none" stroke="#352B4C" stroke-width="3" stroke-linecap="round" stroke-linejoin="round" stroke-miterlimit="10" x1="173.814" y1="532.729" x2="147.515" y2="532.729"/>
<line fill="none" stroke="#352B4C" stroke-width="3" stroke-linecap="round" stroke-linejoin="round" stroke-miterlimit="10" x1="34.566" y1="532.729" x2="21.402" y2="532.729"/>
<line fill="none" stroke="#352B4C" stroke-width="3" stroke-linecap="round" stroke-linejoin="round" stroke-miterlimit="10" x1="22.165" y1="532.729" x2="3.329" y2="532.729"/>
<line fill="none" stroke="#352B4C" stroke-width="3" stroke-linecap="round" stroke-linejoin="round" stroke-miterlimit="10" x1="3.332" y1="555.599" x2="34.575" y2="555.599"/>
<line fill="none" stroke="#352B4C" stroke-width="3" stroke-linecap="round" stroke-linejoin="round" stroke-miterlimit="10" x1="147.52" y1="555.599" x2="173.82" y2="555.599"/>
<line fill="none" stroke="#352B4C" stroke-width="3" stroke-linecap="round" stroke-linejoin="round" stroke-miterlimit="10" x1="243.061" y1="555.599" x2="341.537" y2="555.599"/>
<line fill="none" stroke="#352B4C" stroke-width="3" stroke-linecap="round" stroke-linejoin="round" stroke-miterlimit="10" x1="34.566" y1="555.599" x2="147.515" y2="555.599"/>
<line fill="none" stroke="#352B4C" stroke-width="3" stroke-linecap="round" stroke-linejoin="round" stroke-miterlimit="10" x1="34.566" y1="532.729" x2="147.515" y2="532.729"/>
<line fill="none" stroke="#352B4C" stroke-width="3" stroke-linecap="round" stroke-linejoin="round" stroke-miterlimit="10" x1="34.566" y1="555.599" x2="34.566" y2="555.599"/>
<line fill="none" stroke="#352B4C" stroke-width="3" stroke-linecap="round" stroke-linejoin="round" stroke-miterlimit="10" x1="34.566" y1="555.599" x2="147.515" y2="555.599"/>
<line fill="none" stroke="#352B4C" stroke-width="3" stroke-linecap="round" stroke-linejoin="round" stroke-miterlimit="10" x1="147.52" y1="555.599" x2="147.52" y2="555.599"/>
<line fill="none" stroke="#352B4C" stroke-width="3" stroke-linecap="round" stroke-linejoin="round" stroke-miterlimit="10" x1="34.566" y1="532.729" x2="34.566" y2="532.729"/>
<line fill="none" stroke="#352B4C" stroke-width="3" stroke-linecap="round" stroke-linejoin="round" stroke-miterlimit="10" x1="34.566" y1="532.729" x2="147.515" y2="532.729"/>
<line fill="none" stroke="#352B4C" stroke-width="3" stroke-linecap="round" stroke-linejoin="round" stroke-miterlimit="10" x1="147.52" y1="532.729" x2="147.52" y2="532.729"/>
<line fill="none" stroke="#352B4C" stroke-width="3" stroke-linecap="round" stroke-linejoin="round" stroke-miterlimit="10" x1="34.566" y1="541.878" x2="40.275" y2="541.878"/>
<line fill="none" stroke="#352B4C" stroke-width="3" stroke-linecap="round" stroke-linejoin="round" stroke-miterlimit="10" x1="40.288" y1="541.878" x2="40.288" y2="547.977"/>
<line fill="none" stroke="#352B4C" stroke-width="3" stroke-linecap="round" stroke-linejoin="round" stroke-miterlimit="10" x1="40.288" y1="547.976" x2="34.577" y2="547.976"/>
<line fill="none" stroke="#352B4C" stroke-width="3" stroke-linecap="round" stroke-linejoin="round" stroke-miterlimit="10" x1="34.566" y1="547.976" x2="34.566" y2="541.877"/>
<line fill="none" stroke="#352B4C" stroke-width="3" stroke-linecap="round" stroke-linejoin="round" stroke-miterlimit="10" x1="147.52" y1="547.976" x2="141.81" y2="547.976"/>
<line fill="none" stroke="#352B4C" stroke-width="3" stroke-linecap="round" stroke-linejoin="round" stroke-miterlimit="10" x1="141.814" y1="547.976" x2="141.814" y2="541.877"/>
<line fill="none" stroke="#352B4C" stroke-width="3" stroke-linecap="round" stroke-linejoin="round" stroke-miterlimit="10" x1="141.814" y1="541.878" x2="147.524" y2="541.878"/>
<line fill="none" stroke="#352B4C" stroke-width="3" stroke-linecap="round" stroke-linejoin="round" stroke-miterlimit="10" x1="147.52" y1="541.878" x2="147.52" y2="547.977"/>
<line fill="none" stroke="#352B4C" stroke-width="3" stroke-linecap="round" stroke-linejoin="round" stroke-miterlimit="10" x1="40.288" y1="541.878" x2="141.816" y2="541.878"/>
<line fill="none" stroke="#352B4C" stroke-width="3" stroke-linecap="round" stroke-linejoin="round" stroke-miterlimit="10" x1="141.814" y1="547.976" x2="40.284" y2="547.976"/>
<line fill="none" stroke="#352B4C" stroke-width="3" stroke-linecap="round" stroke-linejoin="round" stroke-miterlimit="10" x1="34.566" y1="547.976" x2="34.566" y2="541.877"/>
<line fill="none" stroke="#352B4C" stroke-width="3" stroke-linecap="round" stroke-linejoin="round" stroke-miterlimit="10" x1="34.566" y1="555.599" x2="34.566" y2="547.966"/>
<line fill="none" stroke="#352B4C" stroke-width="3" stroke-linecap="round" stroke-linejoin="round" stroke-miterlimit="10" x1="34.566" y1="541.878" x2="34.566" y2="532.726"/>
<line fill="none" stroke="#352B4C" stroke-width="3" stroke-linecap="round" stroke-linejoin="round" stroke-miterlimit="10" x1="147.52" y1="547.976" x2="147.52" y2="541.877"/>
<line fill="none" stroke="#352B4C" stroke-width="3" stroke-linecap="round" stroke-linejoin="round" stroke-miterlimit="10" x1="147.52" y1="555.599" x2="147.52" y2="547.966"/>
<line fill="none" stroke="#352B4C" stroke-width="3" stroke-linecap="round" stroke-linejoin="round" stroke-miterlimit="10" x1="147.52" y1="541.878" x2="147.52" y2="532.726"/>
<line fill="none" stroke="#352B4C" stroke-width="3" stroke-linecap="round" stroke-linejoin="round" stroke-miterlimit="10" x1="243.061" y1="541.878" x2="183.107" y2="507.251"/>
<line fill="none" stroke="#352B4C" stroke-width="3" stroke-linecap="round" stroke-linejoin="round" stroke-miterlimit="10" x1="173.814" y1="541.878" x2="173.814" y2="549.512"/>
<line fill="none" stroke="#352B4C" stroke-width="3" stroke-linecap="round" stroke-linejoin="round" stroke-miterlimit="10" x1="243.061" y1="541.878" x2="243.061" y2="549.512"/>
<polygon fill="#352B4C" points="333.896,53.913 333.896,532.717 349.153,532.717 349.153,38.673 "/>
<line fill="none" stroke="#352B4C" stroke-width="3" stroke-linecap="round" stroke-linejoin="round" stroke-miterlimit="10" x1="333.894" y1="53.907" x2="333.894" y2="194.528"/>
<line fill="none" stroke="#352B4C" stroke-width="3" stroke-linecap="round" stroke-linejoin="round" stroke-miterlimit="10" x1="333.894" y1="202.161" x2="333.894" y2="229.625"/>
<line fill="none" stroke="#352B4C" stroke-width="3" stroke-linecap="round" stroke-linejoin="round" stroke-miterlimit="10" x1="333.894" y1="237.241" x2="333.894" y2="532.733"/>
<line fill="none" stroke="#352B4C" stroke-width="3" stroke-linecap="round" stroke-linejoin="round" stroke-miterlimit="10" x1="349.159" y1="532.729" x2="349.159" y2="237.238"/>
<line fill="none" stroke="#352B4C" stroke-width="3" stroke-linecap="round" stroke-linejoin="round" stroke-miterlimit="10" x1="349.159" y1="229.614" x2="349.159" y2="202.159"/>
<line fill="none" stroke="#352B4C" stroke-width="3" stroke-linecap="round" stroke-linejoin="round" stroke-miterlimit="10" x1="349.159" y1="194.536" x2="349.159" y2="53.916"/>
<polygon fill="#352B4C" points="179.079,38.667 163.861,53.919 333.902,53.919 349.161,38.667 "/>
<line fill="none" stroke="#352B4C" stroke-width="3" stroke-linecap="round" stroke-linejoin="round" stroke-miterlimit="10" x1="171.435" y1="53.907" x2="333.883" y2="53.907"/>
<line fill="none" stroke="#352B4C" stroke-width="3" stroke-linecap="round" stroke-linejoin="round" stroke-miterlimit="10" x1="349.159" y1="38.673" x2="179.077" y2="38.673"/>
<line fill="none" stroke="#352B4C" stroke-width="3" stroke-linecap="round" stroke-linejoin="round" stroke-miterlimit="10" x1="279.474" y1="237.241" x2="341.54" y2="237.241"/>
<line fill="none" stroke="#352B4C" stroke-width="3" stroke-linecap="round" stroke-linejoin="round" stroke-miterlimit="10" x1="341.534" y1="229.614" x2="279.467" y2="229.614"/>
<line fill="none" stroke="#352B4C" stroke-width="3" stroke-linecap="round" stroke-linejoin="round" stroke-miterlimit="10" x1="279.474" y1="229.614" x2="279.474" y2="237.248"/>
<line fill="none" stroke="#352B4C" stroke-width="3" stroke-linecap="round" stroke-linejoin="round" stroke-miterlimit="10" x1="271.88" y1="202.161" x2="341.53" y2="202.161"/>
<line fill="none" stroke="#352B4C" stroke-width="3" stroke-linecap="round" stroke-linejoin="round" stroke-miterlimit="10" x1="341.534" y1="194.536" x2="271.884" y2="194.536"/>
<line fill="none" stroke="#352B4C" stroke-width="3" stroke-linecap="round" stroke-linejoin="round" stroke-miterlimit="10" x1="271.88" y1="194.536" x2="271.88" y2="202.17"/>
<line fill="none" stroke="#352B4C" stroke-width="3" stroke-linecap="round" stroke-linejoin="round" stroke-miterlimit="10" x1="171.435" y1="194.536" x2="152.059" y2="194.536"/>
<line fill="none" stroke="#352B4C" stroke-width="3" stroke-linecap="round" stroke-linejoin="round" stroke-miterlimit="10" x1="76.083" y1="194.536" x2="13.762" y2="194.536"/>
<line fill="none" stroke="#352B4C" stroke-width="3" stroke-linecap="round" stroke-linejoin="round" stroke-miterlimit="10" x1="13.751" y1="202.161" x2="76.072" y2="202.161"/>
<line fill="none" stroke="#352B4C" stroke-width="3" stroke-linecap="round" stroke-linejoin="round" stroke-miterlimit="10" x1="152.058" y1="202.161" x2="171.433" y2="202.161"/>
<line fill="none" stroke="#352B4C" stroke-width="3" stroke-linecap="round" stroke-linejoin="round" stroke-miterlimit="10" x1="146.289" y1="202.161" x2="86.863" y2="236.458"/>
<line fill="none" stroke="#352B4C" stroke-width="3" stroke-linecap="round" stroke-linejoin="round" stroke-miterlimit="10" x1="77.689" y1="202.161" x2="77.689" y2="194.528"/>
<line fill="none" stroke="#352B4C" stroke-width="3" stroke-linecap="round" stroke-linejoin="round" stroke-miterlimit="10" x1="146.289" y1="202.161" x2="146.289" y2="194.528"/>
<line fill="none" stroke="#352B4C" stroke-width="3" stroke-linecap="round" stroke-linejoin="round" stroke-miterlimit="10" x1="171.435" y1="202.161" x2="171.435" y2="168.235"/>
<line fill="none" stroke="#352B4C" stroke-width="3" stroke-linecap="round" stroke-linejoin="round" stroke-miterlimit="10" x1="171.435" y1="107.255" x2="171.435" y2="53.904"/>
<line fill="none" stroke="#352B4C" stroke-width="3" stroke-linecap="round" stroke-linejoin="round" stroke-miterlimit="10" x1="163.856" y1="53.907" x2="163.856" y2="107.26"/>
<line fill="none" stroke="#352B4C" stroke-width="3" stroke-linecap="round" stroke-linejoin="round" stroke-miterlimit="10" x1="163.856" y1="168.229" x2="163.856" y2="194.53"/>
<line fill="none" stroke="#352B4C" stroke-width="3" stroke-linecap="round" stroke-linejoin="round" stroke-miterlimit="10" x1="163.856" y1="202.161" x2="171.439" y2="202.161"/>
<line fill="none" stroke="#352B4C" stroke-width="3" stroke-linecap="round" stroke-linejoin="round" stroke-miterlimit="10" x1="163.856" y1="168.229" x2="133.347" y2="115.423"/>
<line fill="none" stroke="#352B4C" stroke-width="3" stroke-linecap="round" stroke-linejoin="round" stroke-miterlimit="10" x1="163.856" y1="107.255" x2="171.439" y2="107.255"/>
<line fill="none" stroke="#352B4C" stroke-width="3" stroke-linecap="round" stroke-linejoin="round" stroke-miterlimit="10" x1="163.856" y1="168.229" x2="171.439" y2="168.229"/>
<line fill="none" stroke="#352B4C" stroke-width="3" stroke-linecap="round" stroke-linejoin="round" stroke-miterlimit="10" x1="163.856" y1="202.161" x2="203.401" y2="202.161"/>
<line fill="none" stroke="#352B4C" stroke-width="3" stroke-linecap="round" stroke-linejoin="round" stroke-miterlimit="10" x1="212.195" y1="202.161" x2="231.133" y2="202.161"/>
<line fill="none" stroke="#352B4C" stroke-width="3" stroke-linecap="round" stroke-linejoin="round" stroke-miterlimit="10" x1="239.91" y1="202.161" x2="279.472" y2="202.161"/>
<line fill="none" stroke="#352B4C" stroke-width="3" stroke-linecap="round" stroke-linejoin="round" stroke-miterlimit="10" x1="279.474" y1="194.536" x2="163.857" y2="194.536"/>
<line fill="none" stroke="#352B4C" stroke-width="3" stroke-linecap="round" stroke-linejoin="round" stroke-miterlimit="10" x1="171.435" y1="237.241" x2="171.435" y2="194.536"/>
<line fill="none" stroke="#352B4C" stroke-width="3" stroke-linecap="round" stroke-linejoin="round" stroke-miterlimit="10" x1="163.856" y1="194.536" x2="163.856" y2="237.241"/>
<line fill="none" stroke="#352B4C" stroke-width="3" stroke-linecap="round" stroke-linejoin="round" stroke-miterlimit="10" x1="279.474" y1="229.614" x2="239.911" y2="229.614"/>
<line fill="none" stroke="#352B4C" stroke-width="3" stroke-linecap="round" stroke-linejoin="round" stroke-miterlimit="10" x1="231.134" y1="229.614" x2="212.195" y2="229.614"/>
<line fill="none" stroke="#352B4C" stroke-width="3" stroke-linecap="round" stroke-linejoin="round" stroke-miterlimit="10" x1="203.405" y1="229.614" x2="163.859" y2="229.614"/>
<line fill="none" stroke="#352B4C" stroke-width="3" stroke-linecap="round" stroke-linejoin="round" stroke-miterlimit="10" x1="163.856" y1="237.241" x2="279.471" y2="237.241"/>
<line fill="none" stroke="#352B4C" stroke-width="3" stroke-linecap="round" stroke-linejoin="round" stroke-miterlimit="10" x1="271.88" y1="194.536" x2="271.88" y2="237.241"/>
<line fill="none" stroke="#352B4C" stroke-width="3" stroke-linecap="round" stroke-linejoin="round" stroke-miterlimit="10" x1="279.474" y1="237.241" x2="279.474" y2="194.536"/>
<line fill="none" stroke="#352B4C" stroke-width="3" stroke-linecap="round" stroke-linejoin="round" stroke-miterlimit="10" x1="229.889" y1="194.536" x2="229.889" y2="209.976"/>
<line fill="none" stroke="#352B4C" stroke-width="3" stroke-linecap="round" stroke-linejoin="round" stroke-miterlimit="10" x1="229.889" y1="221.815" x2="229.889" y2="237.239"/>
<line fill="none" stroke="#352B4C" stroke-width="3" stroke-linecap="round" stroke-linejoin="round" stroke-miterlimit="10" x1="237.533" y1="237.241" x2="237.533" y2="194.536"/>
<line fill="none" stroke="#352B4C" stroke-width="3" stroke-linecap="round" stroke-linejoin="round" stroke-miterlimit="10" x1="205.783" y1="194.536" x2="205.783" y2="237.241"/>
<line fill="none" stroke="#352B4C" stroke-width="3" stroke-linecap="round" stroke-linejoin="round" stroke-miterlimit="10" x1="213.424" y1="237.241" x2="213.424" y2="221.817"/>
<line fill="none" stroke="#352B4C" stroke-width="3" stroke-linecap="round" stroke-linejoin="round" stroke-miterlimit="10" x1="213.424" y1="209.97" x2="213.424" y2="194.529"/>
<line fill="none" stroke="#352B4C" stroke-width="3" stroke-linecap="round" stroke-linejoin="round" stroke-miterlimit="10" x1="237.533" y1="212.079" x2="205.778" y2="212.079"/>
<line fill="none" stroke="#352B4C" stroke-width="3" stroke-linecap="round" stroke-linejoin="round" stroke-miterlimit="10" x1="205.783" y1="219.698" x2="237.537" y2="219.698"/>
<line fill="none" stroke="#352B4C" stroke-width="3" stroke-linecap="round" stroke-linejoin="round" stroke-miterlimit="10" x1="156.579" y1="555.599" x2="156.579" y2="642.143"/>
<line fill="none" stroke="#352B4C" stroke-width="3" stroke-linecap="round" stroke-linejoin="round" stroke-miterlimit="10" x1="164.22" y1="642.138" x2="164.22" y2="555.595"/>
<line fill="none" stroke="#352B4C" stroke-width="3" stroke-linecap="round" stroke-linejoin="round" stroke-miterlimit="10" x1="164.22" y1="555.599" x2="156.57" y2="555.599"/>
<line fill="none" stroke="#352B4C" stroke-width="3" stroke-linecap="round" stroke-linejoin="round" stroke-miterlimit="10" x1="156.579" y1="642.138" x2="337.741" y2="642.138"/>
<line fill="none" stroke="#352B4C" stroke-width="3" stroke-linecap="round" stroke-linejoin="round" stroke-miterlimit="10" x1="337.737" y1="642.138" x2="337.737" y2="634.521"/>
<line fill="none" stroke="#352B4C" stroke-width="3" stroke-linecap="round" stroke-linejoin="round" stroke-miterlimit="10" x1="337.737" y1="634.521" x2="156.573" y2="634.521"/>
<line fill="none" stroke="#352B4C" stroke-width="3" stroke-linecap="round" stroke-linejoin="round" stroke-miterlimit="10" x1="337.737" y1="555.599" x2="337.737" y2="642.143"/>
<line fill="none" stroke="#352B4C" stroke-width="3" stroke-linecap="round" stroke-linejoin="round" stroke-miterlimit="10" x1="337.737" y1="642.138" x2="345.321" y2="642.138"/>
<line fill="none" stroke="#352B4C" stroke-width="3" stroke-linecap="round" stroke-linejoin="round" stroke-miterlimit="10" x1="345.315" y1="642.138" x2="345.315" y2="555.595"/>
<line fill="none" stroke="#352B4C" stroke-width="3" stroke-linecap="round" stroke-linejoin="round" stroke-miterlimit="10" x1="345.315" y1="555.599" x2="337.731" y2="555.599"/>
<line fill="none" stroke="#352B4C" stroke-width="3" stroke-linecap="round" stroke-linejoin="round" stroke-miterlimit="10" x1="345.315" y1="634.521" x2="345.315" y2="642.137"/>
<line fill="none" stroke="#352B4C" stroke-width="3" stroke-linecap="round" stroke-linejoin="round" stroke-miterlimit="10" x1="179.077" y1="1.386" x2="179.077" y2="9.02"/>
<line fill="none" stroke="#352B4C" stroke-width="3" stroke-linecap="round" stroke-linejoin="round" stroke-miterlimit="10" x1="337.737" y1="38.673" x2="345.321" y2="38.673"/>
<line fill="none" stroke="#352B4C" stroke-width="3" stroke-linecap="round" stroke-linejoin="round" stroke-miterlimit="10" x1="6.158" y1="142.153" x2="6.158" y2="197.223"/>
<line fill="none" stroke="#352B4C" stroke-width="3" stroke-linecap="round" stroke-linejoin="round" stroke-miterlimit="10" x1="303.942" y1="133.427" x2="300.731" y2="133.296"/>
<line fill="none" stroke="#352B4C" stroke-width="3" stroke-linecap="round" stroke-linejoin="round" stroke-miterlimit="10" x1="300.728" y1="133.3" x2="297.533" y2="133.64"/>
<line fill="none" stroke="#352B4C" stroke-width="3" stroke-linecap="round" stroke-linejoin="round" stroke-miterlimit="10" x1="297.53" y1="133.647" x2="294.385" y2="134.441"/>
<line fill="none" stroke="#352B4C" stroke-width="3" stroke-linecap="round" stroke-linejoin="round" stroke-miterlimit="10" x1="294.379" y1="134.442" x2="291.391" y2="135.672"/>
<line fill="none" stroke="#352B4C" stroke-width="3" stroke-linecap="round" stroke-linejoin="round" stroke-miterlimit="10" x1="291.399" y1="135.671" x2="288.51" y2="137.661"/>
<line fill="none" stroke="#352B4C" stroke-width="3" stroke-linecap="round" stroke-linejoin="round" stroke-miterlimit="10" x1="288.516" y1="137.657" x2="286.222" y2="140.356"/>
<line fill="none" stroke="#352B4C" stroke-width="3" stroke-linecap="round" stroke-linejoin="round" stroke-miterlimit="10" x1="286.231" y1="140.358" x2="284.812" y2="143.587"/>
<line fill="none" stroke="#352B4C" stroke-width="3" stroke-linecap="round" stroke-linejoin="round" stroke-miterlimit="10" x1="284.815" y1="143.581" x2="284.36" y2="147.064"/>
<line fill="none" stroke="#352B4C" stroke-width="3" stroke-linecap="round" stroke-linejoin="round" stroke-miterlimit="10" x1="284.357" y1="147.071" x2="284.811" y2="150.554"/>
<line fill="none" stroke="#352B4C" stroke-width="3" stroke-linecap="round" stroke-linejoin="round" stroke-miterlimit="10" x1="284.815" y1="150.552" x2="286.233" y2="153.78"/>
<line fill="none" stroke="#352B4C" stroke-width="3" stroke-linecap="round" stroke-linejoin="round" stroke-miterlimit="10" x1="286.231" y1="153.774" x2="288.524" y2="156.481"/>
<line fill="none" stroke="#352B4C" stroke-width="3" stroke-linecap="round" stroke-linejoin="round" stroke-miterlimit="10" x1="288.516" y1="156.485" x2="291.403" y2="158.474"/>
<line fill="none" stroke="#352B4C" stroke-width="3" stroke-linecap="round" stroke-linejoin="round" stroke-miterlimit="10" x1="291.399" y1="158.462" x2="294.386" y2="159.691"/>
<line fill="none" stroke="#352B4C" stroke-width="3" stroke-linecap="round" stroke-linejoin="round" stroke-miterlimit="10" x1="294.379" y1="159.69" x2="297.522" y2="160.483"/>
<line fill="none" stroke="#352B4C" stroke-width="3" stroke-linecap="round" stroke-linejoin="round" stroke-miterlimit="10" x1="297.53" y1="160.487" x2="300.723" y2="160.827"/>
<line fill="none" stroke="#352B4C" stroke-width="3" stroke-linecap="round" stroke-linejoin="round" stroke-miterlimit="10" x1="300.728" y1="160.833" x2="303.937" y2="160.719"/>
<line fill="none" stroke="#352B4C" stroke-width="3" stroke-linecap="round" stroke-linejoin="round" stroke-miterlimit="10" x1="303.942" y1="160.716" x2="320.075" y2="158.991"/>
<line fill="none" stroke="#352B4C" stroke-width="3" stroke-linecap="round" stroke-linejoin="round" stroke-miterlimit="10" x1="320.077" y1="135.159" x2="303.942" y2="133.434"/>
<line fill="none" stroke="#352B4C" stroke-width="3" stroke-linecap="round" stroke-linejoin="round" stroke-miterlimit="10" x1="288.927" y1="138.114" x2="286.78" y2="140.698"/>
<line fill="none" stroke="#352B4C" stroke-width="3" stroke-linecap="round" stroke-linejoin="round" stroke-miterlimit="10" x1="286.783" y1="140.69" x2="285.413" y2="143.745"/>
<line fill="none" stroke="#352B4C" stroke-width="3" stroke-linecap="round" stroke-linejoin="round" stroke-miterlimit="10" x1="285.413" y1="143.747" x2="284.959" y2="147.073"/>
<line fill="none" stroke="#352B4C" stroke-width="3" stroke-linecap="round" stroke-linejoin="round" stroke-miterlimit="10" x1="284.956" y1="147.071" x2="285.409" y2="150.397"/>
<line fill="none" stroke="#352B4C" stroke-width="3" stroke-linecap="round" stroke-linejoin="round" stroke-miterlimit="10" x1="285.413" y1="150.388" x2="286.782" y2="153.451"/>
<line fill="none" stroke="#352B4C" stroke-width="3" stroke-linecap="round" stroke-linejoin="round" stroke-miterlimit="10" x1="286.783" y1="153.452" x2="288.929" y2="156.019"/>
<line fill="none" stroke="#352B4C" stroke-width="3" stroke-linecap="round" stroke-linejoin="round" stroke-miterlimit="10" x1="288.927" y1="156.021" x2="291.683" y2="157.911"/>
<line fill="none" stroke="#352B4C" stroke-width="3" stroke-linecap="round" stroke-linejoin="round" stroke-miterlimit="10" x1="291.683" y1="157.911" x2="294.571" y2="159.107"/>
<line fill="none" stroke="#352B4C" stroke-width="3" stroke-linecap="round" stroke-linejoin="round" stroke-miterlimit="10" x1="294.565" y1="159.108" x2="297.619" y2="159.884"/>
<line fill="none" stroke="#352B4C" stroke-width="3" stroke-linecap="round" stroke-linejoin="round" stroke-miterlimit="10" x1="297.624" y1="159.882" x2="300.72" y2="160.221"/>
<line fill="none" stroke="#352B4C" stroke-width="3" stroke-linecap="round" stroke-linejoin="round" stroke-miterlimit="10" x1="300.728" y1="160.22" x2="303.887" y2="160.105"/>
<line fill="none" stroke="#352B4C" stroke-width="3" stroke-linecap="round" stroke-linejoin="round" stroke-miterlimit="10" x1="303.892" y1="160.101" x2="307.185" y2="159.548"/>
<line fill="none" stroke="#352B4C" stroke-width="3" stroke-linecap="round" stroke-linejoin="round" stroke-miterlimit="10" x1="307.187" y1="159.55" x2="310.331" y2="158.618"/>
<line fill="none" stroke="#352B4C" stroke-width="3" stroke-linecap="round" stroke-linejoin="round" stroke-miterlimit="10" x1="310.337" y1="158.62" x2="313.391" y2="157.301"/>
<line fill="none" stroke="#352B4C" stroke-width="3" stroke-linecap="round" stroke-linejoin="round" stroke-miterlimit="10" x1="313.396" y1="157.306" x2="316.334" y2="155.647"/>
<line fill="none" stroke="#352B4C" stroke-width="3" stroke-linecap="round" stroke-linejoin="round" stroke-miterlimit="10" x1="316.325" y1="138.493" x2="313.388" y2="136.835"/>
<line fill="none" stroke="#352B4C" stroke-width="3" stroke-linecap="round" stroke-linejoin="round" stroke-miterlimit="10" x1="313.396" y1="136.831" x2="310.341" y2="135.527"/>
<line fill="none" stroke="#352B4C" stroke-width="3" stroke-linecap="round" stroke-linejoin="round" stroke-miterlimit="10" x1="310.337" y1="135.522" x2="307.192" y2="134.59"/>
<line fill="none" stroke="#352B4C" stroke-width="3" stroke-linecap="round" stroke-linejoin="round" stroke-miterlimit="10" x1="307.187" y1="134.585" x2="303.894" y2="134.04"/>
<line fill="none" stroke="#352B4C" stroke-width="3" stroke-linecap="round" stroke-linejoin="round" stroke-miterlimit="10" x1="303.892" y1="134.034" x2="300.731" y2="133.919"/>
<line fill="none" stroke="#352B4C" stroke-width="3" stroke-linecap="round" stroke-linejoin="round" stroke-miterlimit="10" x1="300.728" y1="133.915" x2="297.632" y2="134.254"/>
<line fill="none" stroke="#352B4C" stroke-width="3" stroke-linecap="round" stroke-linejoin="round" stroke-miterlimit="10" x1="297.624" y1="134.255" x2="294.57" y2="135.03"/>
<line fill="none" stroke="#352B4C" stroke-width="3" stroke-linecap="round" stroke-linejoin="round" stroke-miterlimit="10" x1="294.565" y1="135.024" x2="291.677" y2="136.221"/>
<line fill="none" stroke="#352B4C" stroke-width="3" stroke-linecap="round" stroke-linejoin="round" stroke-miterlimit="10" x1="291.683" y1="136.226" x2="288.926" y2="138.115"/>
<line fill="none" stroke="#352B4C" stroke-width="3" stroke-linecap="round" stroke-linejoin="round" stroke-miterlimit="10" x1="333.894" y1="161.472" x2="333.894" y2="132.671"/>
<line fill="none" stroke="#352B4C" stroke-width="3" stroke-linecap="round" stroke-linejoin="round" stroke-miterlimit="10" x1="320.077" y1="158.981" x2="320.126" y2="160.757"/>
<line fill="none" stroke="#352B4C" stroke-width="3" stroke-linecap="round" stroke-linejoin="round" stroke-miterlimit="10" x1="320.123" y1="160.765" x2="320.899" y2="162.366"/>
<line fill="none" stroke="#352B4C" stroke-width="3" stroke-linecap="round" stroke-linejoin="round" stroke-miterlimit="10" x1="320.893" y1="162.354" x2="322.312" y2="163.452"/>
<line fill="none" stroke="#352B4C" stroke-width="3" stroke-linecap="round" stroke-linejoin="round" stroke-miterlimit="10" x1="322.312" y1="163.45" x2="324.002" y2="163.839"/>
<line fill="none" stroke="#352B4C" stroke-width="3" stroke-linecap="round" stroke-linejoin="round" stroke-miterlimit="10" x1="324.014" y1="163.835" x2="326.563" y2="163.688"/>
<line fill="none" stroke="#352B4C" stroke-width="3" stroke-linecap="round" stroke-linejoin="round" stroke-miterlimit="10" x1="326.565" y1="163.687" x2="329.083" y2="163.232"/>
<line fill="none" stroke="#352B4C" stroke-width="3" stroke-linecap="round" stroke-linejoin="round" stroke-miterlimit="10" x1="329.089" y1="163.235" x2="331.556" y2="162.494"/>
<line fill="none" stroke="#352B4C" stroke-width="3" stroke-linecap="round" stroke-linejoin="round" stroke-miterlimit="10" x1="331.561" y1="162.495" x2="333.896" y2="161.48"/>
<line fill="none" stroke="#352B4C" stroke-width="3" stroke-linecap="round" stroke-linejoin="round" stroke-miterlimit="10" x1="333.894" y1="132.669" x2="331.55" y2="131.654"/>
<line fill="none" stroke="#352B4C" stroke-width="3" stroke-linecap="round" stroke-linejoin="round" stroke-miterlimit="10" x1="331.561" y1="131.647" x2="329.093" y2="130.905"/>
<line fill="none" stroke="#352B4C" stroke-width="3" stroke-linecap="round" stroke-linejoin="round" stroke-miterlimit="10" x1="329.089" y1="130.897" x2="326.571" y2="130.445"/>
<line fill="none" stroke="#352B4C" stroke-width="3" stroke-linecap="round" stroke-linejoin="round" stroke-miterlimit="10" x1="326.565" y1="130.448" x2="324.016" y2="130.301"/>
<line fill="none" stroke="#352B4C" stroke-width="3" stroke-linecap="round" stroke-linejoin="round" stroke-miterlimit="10" x1="324.014" y1="130.3" x2="322.321" y2="130.688"/>
<line fill="none" stroke="#352B4C" stroke-width="3" stroke-linecap="round" stroke-linejoin="round" stroke-miterlimit="10" x1="322.312" y1="130.685" x2="320.892" y2="131.783"/>
<line fill="none" stroke="#352B4C" stroke-width="3" stroke-linecap="round" stroke-linejoin="round" stroke-miterlimit="10" x1="320.893" y1="131.79" x2="320.116" y2="133.392"/>
<line fill="none" stroke="#352B4C" stroke-width="3" stroke-linecap="round" stroke-linejoin="round" stroke-miterlimit="10" x1="320.123" y1="133.38" x2="320.073" y2="135.154"/>
<line fill="none" stroke="#352B4C" stroke-width="3" stroke-linecap="round" stroke-linejoin="round" stroke-miterlimit="10" x1="316.325" y1="155.644" x2="316.325" y2="138.496"/>
<line fill="none" stroke="#352B4C" stroke-width="3" stroke-linecap="round" stroke-linejoin="round" stroke-miterlimit="10" x1="333.894" y1="53.907" x2="333.894" y2="108.976"/>
<line fill="none" stroke="#352B4C" stroke-width="3" stroke-linecap="round" stroke-linejoin="round" stroke-miterlimit="10" x1="333.894" y1="108.974" x2="212.293" y2="108.974"/>
<line fill="none" stroke="#352B4C" stroke-width="3" stroke-linecap="round" stroke-linejoin="round" stroke-miterlimit="10" x1="212.29" y1="108.974" x2="212.29" y2="53.907"/>
<line fill="none" stroke="#352B4C" stroke-width="3" stroke-linecap="round" stroke-linejoin="round" stroke-miterlimit="10" x1="333.894" y1="53.907" x2="212.293" y2="53.907"/>
<line fill="none" stroke="#352B4C" stroke-width="3" stroke-linecap="round" stroke-linejoin="round" stroke-miterlimit="10" x1="237.625" y1="104.563" x2="319.71" y2="104.563"/>
<line fill="none" stroke="#352B4C" stroke-width="3" stroke-linecap="round" stroke-linejoin="round" stroke-miterlimit="10" x1="237.625" y1="58.319" x2="319.71" y2="58.319"/>
<line fill="none" stroke="#352B4C" stroke-width="3" stroke-linecap="round" stroke-linejoin="round" stroke-miterlimit="10" x1="329.86" y1="69.325" x2="329.86" y2="93.547"/>
<line fill="none" stroke="#352B4C" stroke-width="3" stroke-linecap="round" stroke-linejoin="round" stroke-miterlimit="10" x1="230.63" y1="188.288" x2="230.63" y2="188.288"/>
<line fill="none" stroke="#352B4C" stroke-width="3" stroke-linecap="round" stroke-linejoin="round" stroke-miterlimit="10" x1="222.482" y1="182.12" x2="222.482" y2="179.024"/>
<line fill="none" stroke="#352B4C" stroke-width="3" stroke-linecap="round" stroke-linejoin="round" stroke-miterlimit="10" x1="217.947" y1="194.536" x2="217.947" y2="179.013"/>
<line fill="none" stroke="#352B4C" stroke-width="3" stroke-linecap="round" stroke-linejoin="round" stroke-miterlimit="10" x1="255.319" y1="182.12" x2="255.319" y2="179.024"/>
<line fill="none" stroke="#352B4C" stroke-width="3" stroke-linecap="round" stroke-linejoin="round" stroke-miterlimit="10" x1="259.842" y1="194.536" x2="259.842" y2="179.013"/>
<line fill="none" stroke="#352B4C" stroke-width="3" stroke-linecap="round" stroke-linejoin="round" stroke-miterlimit="10" x1="259.842" y1="194.536" x2="217.945" y2="194.536"/>
<line fill="none" stroke="#352B4C" stroke-width="3" stroke-linecap="round" stroke-linejoin="round" stroke-miterlimit="10" x1="247.22" y1="188.288" x2="230.633" y2="188.288"/>
<line fill="none" stroke="#352B4C" stroke-width="3" stroke-linecap="round" stroke-linejoin="round" stroke-miterlimit="10" x1="349.159" y1="161.472" x2="349.159" y2="132.671"/>
<line fill="none" stroke="#352B4C" stroke-width="3" stroke-linecap="round" stroke-linejoin="round" stroke-miterlimit="10" x1="349.159" y1="53.907" x2="349.159" y2="108.976"/>
<rect x="35.912" y="531.266" fill-rule="evenodd" clip-rule="evenodd" fill="#5EA9C9" width="110.382" height="25.747"/>
<rect x="35.912" y="531.266" fill-rule="evenodd" clip-rule="evenodd" fill="#ADD9EE" width="110.382" height="7.596"/>
<rect x="35.912" y="549.424" fill-rule="evenodd" clip-rule="evenodd" fill="#ADD9EE" width="110.382" height="7.589"/>
<g>
	<path fill="#362C4C" d="M253.146,515.219h-6.94v-19.001l0.067-3.122l0.112-3.414c-1.153,1.153-1.954,1.909-2.403,2.269
		l-3.773,3.032l-3.346-4.178l10.579-8.422h5.705V515.219z"/>
	<path fill="#362C4C" d="M262.018,501.271c0-6.498,1.374-11.335,4.121-14.509c2.748-3.175,6.862-4.762,12.342-4.762
		c1.871,0,3.338,0.112,4.402,0.337v5.547c-1.334-0.299-2.65-0.449-3.953-0.449c-2.381,0-4.324,0.359-5.828,1.078
		c-1.506,0.719-2.633,1.782-3.381,3.189c-0.749,1.408-1.19,3.407-1.325,5.997h0.292c1.482-2.545,3.855-3.818,7.119-3.818
		c2.936,0,5.234,0.921,6.896,2.763c1.661,1.842,2.492,4.388,2.492,7.637c0,3.503-0.988,6.277-2.965,8.321s-4.717,3.065-8.22,3.065
		c-2.426,0-4.541-0.562-6.345-1.685s-3.197-2.763-4.177-4.919C262.508,506.908,262.018,504.311,262.018,501.271z M273.877,510.12
		c1.481,0,2.62-0.497,3.413-1.493c0.794-0.996,1.191-2.415,1.191-4.256c0-1.603-0.371-2.864-1.112-3.785s-1.86-1.381-3.357-1.381
		c-1.407,0-2.609,0.457-3.604,1.37c-0.997,0.913-1.494,1.977-1.494,3.189c0,1.781,0.468,3.286,1.404,4.514
		C271.253,509.507,272.439,510.12,273.877,510.12z"/>
	<path fill="#362C4C" d="M296.966,510.39c-0.779,3.025-2.098,6.61-3.953,10.759h-4.941c0.973-3.983,1.729-7.741,2.269-11.275h6.288
		L296.966,510.39z"/>
	<path fill="#362C4C" d="M313.159,481.956c3.145,0,5.678,0.715,7.603,2.145c1.924,1.431,2.886,3.357,2.886,5.783
		c0,1.678-0.464,3.171-1.393,4.481c-0.928,1.31-2.426,2.481-4.492,3.515c2.456,1.317,4.219,2.691,5.29,4.121
		c1.07,1.431,1.605,2.999,1.605,4.705c0,2.695-1.056,4.863-3.167,6.503s-4.889,2.459-8.332,2.459c-3.594,0-6.416-0.764-8.468-2.291
		s-3.077-3.69-3.077-6.491c0-1.871,0.498-3.533,1.494-4.985s2.594-2.732,4.795-3.841c-1.871-1.183-3.219-2.448-4.043-3.796
		c-0.823-1.348-1.234-2.822-1.234-4.425c0-2.351,0.973-4.252,2.919-5.704S310.029,481.956,313.159,481.956z M308.038,506.481
		c0,1.288,0.449,2.291,1.348,3.01s2.126,1.078,3.684,1.078c1.722,0,3.01-0.37,3.863-1.111s1.279-1.719,1.279-2.932
		c0-1.003-0.423-1.942-1.269-2.818c-0.847-0.876-2.22-1.808-4.121-2.796C309.633,502.38,308.038,504.236,308.038,506.481z
		 M313.114,487.032c-1.184,0-2.138,0.303-2.863,0.909c-0.727,0.606-1.09,1.419-1.09,2.437c0,0.898,0.288,1.704,0.865,2.415
		c0.576,0.711,1.62,1.441,3.133,2.189c1.467-0.688,2.492-1.393,3.076-2.111s0.877-1.55,0.877-2.493c0-1.033-0.375-1.849-1.123-2.448
		C315.24,487.331,314.282,487.032,313.114,487.032z"/>
</g>
<g>
	<path fill="#362C4C" d="M280.101,620.186h-22.954v-4.829l8.243-8.332c2.44-2.501,4.035-4.234,4.784-5.2
		c0.748-0.965,1.287-1.859,1.617-2.684c0.329-0.823,0.494-1.677,0.494-2.561c0-1.317-0.363-2.298-1.09-2.942
		c-0.726-0.644-1.695-0.966-2.908-0.966c-1.273,0-2.508,0.292-3.706,0.876c-1.198,0.584-2.448,1.415-3.751,2.493l-3.773-4.469
		c1.617-1.378,2.957-2.351,4.02-2.92s2.224-1.007,3.481-1.314c1.258-0.307,2.665-0.46,4.223-0.46c2.05,0,3.863,0.374,5.435,1.123
		s2.793,1.797,3.661,3.145c0.868,1.347,1.302,2.89,1.302,4.626c0,1.513-0.266,2.932-0.797,4.257s-1.355,2.684-2.471,4.076
		s-3.08,3.377-5.896,5.952l-4.222,3.975v0.314h14.307V620.186z"/>
	<path fill="#362C4C" d="M291.869,615.356c-0.778,3.025-2.097,6.61-3.953,10.759h-4.94c0.973-3.983,1.729-7.741,2.268-11.275h6.289
		L291.869,615.356z"/>
	<path fill="#362C4C" d="M319.696,620.186h-22.953v-4.829l8.242-8.332c2.441-2.501,4.035-4.234,4.784-5.2
		c0.749-0.965,1.288-1.859,1.617-2.684c0.329-0.823,0.494-1.677,0.494-2.561c0-1.317-0.363-2.298-1.089-2.942
		c-0.727-0.644-1.696-0.966-2.908-0.966c-1.273,0-2.509,0.292-3.707,0.876c-1.197,0.584-2.447,1.415-3.75,2.493l-3.773-4.469
		c1.617-1.378,2.957-2.351,4.02-2.92c1.063-0.569,2.225-1.007,3.482-1.314c1.258-0.307,2.664-0.46,4.223-0.46
		c2.051,0,3.862,0.374,5.435,1.123s2.792,1.797,3.661,3.145c0.868,1.347,1.303,2.89,1.303,4.626c0,1.513-0.266,2.932-0.797,4.257
		c-0.532,1.325-1.355,2.684-2.471,4.076c-1.116,1.393-3.082,3.377-5.896,5.952l-4.223,3.975v0.314h14.307V620.186z"/>
</g>
<g>
	<path fill="#362C4C" d="M72.656,124.977h-3.953v6.806H61.92v-6.806H47.905v-4.828l14.396-21.202h6.401v20.641h3.953V124.977z
		 M61.92,119.587v-5.57c0-0.929,0.038-2.275,0.112-4.043c0.075-1.767,0.135-2.792,0.18-3.077h-0.18
		c-0.554,1.229-1.22,2.426-1.999,3.594l-6.02,9.097H61.92z"/>
	<path fill="#362C4C" d="M83.684,126.953c-0.779,3.025-2.097,6.61-3.953,10.759H74.79c0.973-3.983,1.729-7.741,2.269-11.275h6.289
		L83.684,126.953z"/>
	<path fill="#362C4C" d="M112.252,124.977H108.3v6.806h-6.783v-6.806H87.502v-4.828l14.396-21.202h6.401v20.641h3.953V124.977z
		 M101.517,119.587v-5.57c0-0.929,0.038-2.275,0.112-4.043c0.075-1.767,0.135-2.792,0.18-3.077h-0.18
		c-0.554,1.229-1.22,2.426-1.999,3.594l-6.02,9.097H101.517z"/>
</g>
<g>
	<path fill="#E40050" d="M99.455,339.717c-5.696,0-10.14,2.333-13.331,6.998c-3.191,4.666-4.787,11.1-4.787,19.3
		c0,17.048,6.484,25.571,19.451,25.571c3.918,0,7.715-0.545,11.392-1.636c3.675-1.091,7.372-2.403,11.089-3.939v20.239
		c-7.393,3.272-15.755,4.908-25.086,4.908c-13.372,0-23.623-3.878-30.752-11.634c-7.13-7.757-10.695-18.967-10.695-33.631
		c0-9.17,1.727-17.229,5.181-24.178c3.454-6.947,8.422-12.29,14.906-16.027c6.484-3.735,14.108-5.604,22.875-5.604
		c9.574,0,18.724,2.081,27.45,6.241l-7.332,18.845c-3.272-1.534-6.544-2.827-9.816-3.878
		C106.727,340.242,103.212,339.717,99.455,339.717z"/>
</g>
<g>
	<path fill="#362C4C" d="M157.077,354.379h-6.94v-19.001l0.067-3.122l0.112-3.414c-1.153,1.153-1.954,1.909-2.403,2.269
		l-3.773,3.032l-3.346-4.178l10.579-8.422h5.705V354.379z"/>
	<path fill="#362C4C" d="M165.949,340.432c0-6.498,1.374-11.335,4.121-14.509c2.748-3.175,6.862-4.762,12.342-4.762
		c1.872,0,3.339,0.112,4.402,0.337v5.547c-1.333-0.299-2.65-0.449-3.953-0.449c-2.381,0-4.324,0.359-5.828,1.078
		c-1.505,0.719-2.632,1.782-3.38,3.189c-0.749,1.408-1.19,3.407-1.325,5.997h0.292c1.482-2.545,3.855-3.818,7.12-3.818
		c2.935,0,5.233,0.921,6.896,2.763c1.662,1.842,2.493,4.388,2.493,7.637c0,3.503-0.988,6.277-2.964,8.321
		c-1.977,2.044-4.717,3.065-8.22,3.065c-2.426,0-4.541-0.562-6.345-1.685s-3.197-2.763-4.177-4.919
		C166.439,346.068,165.949,343.471,165.949,340.432z M177.808,349.28c1.482,0,2.62-0.497,3.414-1.493
		c0.793-0.996,1.19-2.415,1.19-4.256c0-1.603-0.371-2.864-1.112-3.785s-1.86-1.381-3.357-1.381c-1.408,0-2.609,0.457-3.605,1.37
		c-0.996,0.913-1.494,1.977-1.494,3.189c0,1.781,0.468,3.286,1.404,4.514C175.183,348.667,176.37,349.28,177.808,349.28z"/>
	<path fill="#362C4C" d="M200.896,349.55c-0.779,3.025-2.097,6.61-3.953,10.759h-4.941c0.973-3.983,1.729-7.741,2.269-11.275h6.289
		L200.896,349.55z"/>
	<path fill="#362C4C" d="M217.09,321.116c3.144,0,5.678,0.715,7.603,2.145c1.924,1.431,2.886,3.357,2.886,5.783
		c0,1.678-0.464,3.171-1.392,4.481c-0.929,1.31-2.426,2.481-4.492,3.515c2.456,1.317,4.219,2.691,5.29,4.121
		c1.07,1.431,1.605,2.999,1.605,4.705c0,2.695-1.056,4.863-3.167,6.503c-2.111,1.64-4.889,2.459-8.333,2.459
		c-3.594,0-6.417-0.764-8.468-2.291s-3.077-3.69-3.077-6.491c0-1.871,0.498-3.533,1.494-4.985c0.996-1.452,2.594-2.732,4.795-3.841
		c-1.872-1.183-3.219-2.448-4.042-3.796c-0.824-1.348-1.235-2.822-1.235-4.425c0-2.351,0.973-4.252,2.919-5.704
		S213.96,321.116,217.09,321.116z M211.969,345.642c0,1.288,0.449,2.291,1.348,3.01s2.126,1.078,3.684,1.078
		c1.722,0,3.009-0.37,3.863-1.111s1.28-1.719,1.28-2.932c0-1.003-0.423-1.942-1.269-2.818c-0.846-0.876-2.22-1.808-4.121-2.796
		C213.563,341.54,211.969,343.396,211.969,345.642z M217.045,326.192c-1.183,0-2.138,0.303-2.864,0.909
		c-0.727,0.606-1.089,1.419-1.089,2.437c0,0.898,0.288,1.704,0.865,2.415c0.576,0.711,1.621,1.441,3.133,2.189
		c1.467-0.688,2.493-1.393,3.077-2.111s0.876-1.55,0.876-2.493c0-1.033-0.375-1.849-1.123-2.448
		C219.171,326.491,218.212,326.192,217.045,326.192z"/>
</g>
<g>
	<path fill="#362C4C" d="M162.872,409.576h-22.954v-4.829l8.243-8.332c2.44-2.501,4.035-4.234,4.784-5.2
		c0.749-0.965,1.288-1.859,1.617-2.684c0.329-0.823,0.494-1.677,0.494-2.561c0-1.317-0.363-2.298-1.089-2.942
		c-0.726-0.644-1.696-0.966-2.908-0.966c-1.273,0-2.508,0.292-3.706,0.876c-1.198,0.584-2.448,1.415-3.751,2.493l-3.773-4.469
		c1.617-1.378,2.957-2.351,4.02-2.92s2.224-1.007,3.481-1.314c1.258-0.307,2.665-0.46,4.223-0.46c2.051,0,3.863,0.374,5.435,1.123
		s2.792,1.797,3.661,3.145c0.868,1.347,1.302,2.89,1.302,4.626c0,1.513-0.266,2.932-0.797,4.257
		c-0.532,1.325-1.355,2.684-2.471,4.076c-1.116,1.393-3.081,3.377-5.896,5.952l-4.222,3.975v0.314h14.307V409.576z"/>
	<path fill="#362C4C" d="M178.122,388.599c3.174,0,5.701,0.892,7.58,2.673c1.879,1.782,2.818,4.223,2.818,7.322
		c0,3.668-1.13,6.49-3.391,8.467c-2.261,1.977-5.496,2.965-9.703,2.965c-3.654,0-6.603-0.592-8.849-1.774v-5.997
		c1.183,0.629,2.56,1.143,4.132,1.539s3.062,0.595,4.47,0.595c4.237,0,6.356-1.736,6.356-5.21c0-3.31-2.194-4.964-6.581-4.964
		c-0.794,0-1.67,0.078-2.628,0.235c-0.958,0.157-1.737,0.326-2.336,0.506l-2.762-1.482l1.235-16.732h17.811v5.884h-11.724
		l-0.606,6.446l0.786-0.157C175.644,388.704,176.774,388.599,178.122,388.599z"/>
	<path fill="#362C4C" d="M200.896,404.747c-0.779,3.025-2.097,6.61-3.953,10.759h-4.941c0.973-3.983,1.729-7.741,2.269-11.275h6.289
		L200.896,404.747z"/>
	<path fill="#362C4C" d="M217.09,376.313c3.144,0,5.678,0.715,7.603,2.145c1.924,1.431,2.886,3.357,2.886,5.783
		c0,1.678-0.464,3.171-1.392,4.481c-0.929,1.31-2.426,2.481-4.492,3.515c2.456,1.317,4.219,2.691,5.29,4.121
		c1.07,1.431,1.605,2.999,1.605,4.705c0,2.695-1.056,4.863-3.167,6.503c-2.111,1.64-4.889,2.459-8.333,2.459
		c-3.594,0-6.417-0.764-8.468-2.291s-3.077-3.69-3.077-6.491c0-1.871,0.498-3.533,1.494-4.985c0.996-1.452,2.594-2.732,4.795-3.841
		c-1.872-1.183-3.219-2.448-4.042-3.796c-0.824-1.348-1.235-2.822-1.235-4.425c0-2.351,0.973-4.252,2.919-5.704
		S213.96,376.313,217.09,376.313z M211.969,400.839c0,1.288,0.449,2.291,1.348,3.01s2.126,1.078,3.684,1.078
		c1.722,0,3.009-0.37,3.863-1.111s1.28-1.719,1.28-2.932c0-1.003-0.423-1.942-1.269-2.818c-0.846-0.876-2.22-1.808-4.121-2.796
		C213.563,396.737,211.969,398.594,211.969,400.839z M217.045,381.39c-1.183,0-2.138,0.303-2.864,0.909
		c-0.727,0.606-1.089,1.419-1.089,2.437c0,0.898,0.288,1.704,0.865,2.415c0.576,0.711,1.621,1.441,3.133,2.189
		c1.467-0.688,2.493-1.393,3.077-2.111s0.876-1.55,0.876-2.493c0-1.033-0.375-1.849-1.123-2.448
		C219.171,381.688,218.212,381.39,217.045,381.39z"/>
</g>
<path fill="#362C4C" d="M230.096,368.358H139.27c-1.131,0-2.047-0.728-2.047-1.623c0-0.897,0.916-1.624,2.047-1.624h90.826
	c1.13,0,2.047,0.727,2.047,1.624C232.143,367.631,231.226,368.358,230.096,368.358"/>
<g>
	<path fill="#362C4C" d="M223.066,134.361c0,2.052-0.621,3.796-1.864,5.233c-1.243,1.438-2.987,2.426-5.233,2.965v0.135
		c2.65,0.329,4.657,1.134,6.02,2.414c1.362,1.28,2.043,3.007,2.043,5.178c0,3.159-1.145,5.618-3.436,7.378
		c-2.291,1.759-5.563,2.639-9.815,2.639c-3.564,0-6.723-0.592-9.478-1.774v-5.907c1.272,0.645,2.673,1.168,4.2,1.572
		c1.527,0.404,3.04,0.606,4.537,0.606c2.291,0,3.983-0.389,5.076-1.168c1.093-0.778,1.64-2.028,1.64-3.75
		c0-1.542-0.629-2.636-1.887-3.279s-3.264-0.966-6.019-0.966h-2.493v-5.323h2.538c2.545,0,4.406-0.333,5.581-0.999
		s1.763-1.809,1.763-3.426c0-2.485-1.557-3.729-4.671-3.729c-1.078,0-2.175,0.18-3.291,0.539c-1.116,0.359-2.354,0.981-3.717,1.864
		l-3.211-4.783c2.995-2.156,6.565-3.234,10.713-3.234c3.398,0,6.083,0.688,8.052,2.066
		C222.082,129.99,223.066,131.906,223.066,134.361z"/>
	<path fill="#362C4C" d="M236.115,155.024c-0.779,3.025-2.097,6.61-3.953,10.759h-4.941c0.973-3.983,1.729-7.741,2.269-11.275h6.289
		L236.115,155.024z"/>
	<path fill="#362C4C" d="M263.808,141.032c0,6.469-1.362,11.297-4.087,14.486c-2.726,3.189-6.85,4.784-12.375,4.784
		c-1.947,0-3.421-0.104-4.424-0.314v-5.57c1.257,0.314,2.575,0.472,3.953,0.472c2.321,0,4.23-0.34,5.728-1.021
		c1.497-0.682,2.642-1.752,3.436-3.212c0.793-1.46,1.25-3.47,1.37-6.03h-0.27c-0.869,1.407-1.872,2.396-3.01,2.965
		s-2.56,0.854-4.267,0.854c-2.86,0-5.114-0.917-6.76-2.752c-1.647-1.834-2.471-4.383-2.471-7.647c0-3.519,1-6.3,2.999-8.344
		c1.999-2.044,4.72-3.065,8.164-3.065c2.425,0,4.548,0.569,6.367,1.707s3.215,2.788,4.189,4.952
		C263.322,135.459,263.808,138.038,263.808,141.032z M251.927,132.205c-1.438,0-2.561,0.494-3.369,1.482s-1.213,2.411-1.213,4.268
		c0,1.588,0.367,2.845,1.101,3.773c0.733,0.929,1.849,1.393,3.347,1.393c1.407,0,2.612-0.461,3.616-1.382
		c1.003-0.92,1.505-1.979,1.505-3.178c0-1.781-0.468-3.286-1.404-4.515C254.573,132.819,253.379,132.205,251.927,132.205z"/>
</g>
<rect x="334.636" y="37.153" fill="#352B4C" width="21.371" height="519.903"/>
</svg>
