<?xml version="1.0" encoding="utf-8"?>
<!-- Generator: Adobe Illustrator 16.0.0, SVG Export Plug-In . SVG Version: 6.00 Build 0)  -->
<!DOCTYPE svg PUBLIC "-//W3C//DTD SVG 1.1//EN" "http://www.w3.org/Graphics/SVG/1.1/DTD/svg11.dtd">
<svg version="1.1" id="Слой_1" xmlns="http://www.w3.org/2000/svg" xmlns:xlink="http://www.w3.org/1999/xlink" x="0px" y="0px"
	 width="348.816px" height="642.54px" viewBox="0 -0.397 348.816 642.54" enable-background="new 0 -0.397 348.816 642.54"
	 xml:space="preserve">
<polygon fill="#352B4C" points="0,54.334 0,555.298 17.605,555.298 17.605,38.388 "/>
<line fill="none" stroke="#352B4C" stroke-width="3" stroke-linecap="round" stroke-linejoin="round" stroke-miterlimit="10" x1="2.344" y1="53.623" x2="2.344" y2="194.243"/>
<line fill="none" stroke="#352B4C" stroke-width="3" stroke-linecap="round" stroke-linejoin="round" stroke-miterlimit="10" x1="2.344" y1="201.877" x2="2.344" y2="229.341"/>
<line fill="none" stroke="#352B4C" stroke-width="3" stroke-linecap="round" stroke-linejoin="round" stroke-miterlimit="10" x1="2.344" y1="246.146" x2="2.344" y2="555.315"/>
<line fill="none" stroke="#352B4C" stroke-width="3" stroke-linecap="round" stroke-linejoin="round" stroke-miterlimit="10" x1="17.61" y1="532.445" x2="17.61" y2="236.954"/>
<line fill="none" stroke="#352B4C" stroke-width="3" stroke-linecap="round" stroke-linejoin="round" stroke-miterlimit="10" x1="17.61" y1="229.33" x2="17.61" y2="201.875"/>
<line fill="none" stroke="#352B4C" stroke-width="3" stroke-linecap="round" stroke-linejoin="round" stroke-miterlimit="10" x1="17.61" y1="194.25" x2="17.61" y2="53.632"/>
<polygon fill-rule="evenodd" clip-rule="evenodd" fill="#352B4C" points="0.859,557.498 0.859,532.457 108.4,532.457 108.4,542.455 
	108.4,550.817 108.4,557.498 "/>
<polygon fill-rule="evenodd" clip-rule="evenodd" fill="#352B4C" points="177.69,542.463 177.69,532.441 205.231,532.441 
	205.231,542.463 205.231,549.141 205.231,557.498 177.69,557.498 177.69,550.82 "/>
<line fill="none" stroke="#352B4C" stroke-width="3" stroke-linecap="round" stroke-linejoin="round" stroke-miterlimit="10" x1="203.938" y1="541.592" x2="203.938" y2="532.441"/>
<line fill="none" stroke="#352B4C" stroke-width="3" stroke-linecap="round" stroke-linejoin="round" stroke-miterlimit="10" x1="203.938" y1="555.314" x2="203.938" y2="547.682"/>
<line fill="none" stroke="#352B4C" stroke-width="3" stroke-linecap="round" stroke-linejoin="round" stroke-miterlimit="10" x1="203.938" y1="555.314" x2="203.938" y2="547.682"/>
<line fill="none" stroke="#352B4C" stroke-width="3" stroke-linecap="round" stroke-linejoin="round" stroke-miterlimit="10" x1="203.938" y1="547.691" x2="203.938" y2="541.592"/>
<line fill="none" stroke="#352B4C" stroke-width="3" stroke-linecap="round" stroke-linejoin="round" stroke-miterlimit="10" x1="316.905" y1="541.592" x2="316.905" y2="532.441"/>
<line fill="none" stroke="#352B4C" stroke-width="3" stroke-linecap="round" stroke-linejoin="round" stroke-miterlimit="10" x1="316.905" y1="555.314" x2="316.905" y2="547.682"/>
<line fill="none" stroke="#352B4C" stroke-width="3" stroke-linecap="round" stroke-linejoin="round" stroke-miterlimit="10" x1="316.905" y1="555.314" x2="316.905" y2="547.682"/>
<line fill="none" stroke="#352B4C" stroke-width="3" stroke-linecap="round" stroke-linejoin="round" stroke-miterlimit="10" x1="316.905" y1="547.691" x2="316.905" y2="541.592"/>
<line fill="none" stroke="#352B4C" stroke-width="3" stroke-linecap="round" stroke-linejoin="round" stroke-miterlimit="10" x1="108.396" y1="549.219" x2="108.396" y2="555.318"/>
<line fill="none" stroke="#352B4C" stroke-width="3" stroke-linecap="round" stroke-linejoin="round" stroke-miterlimit="10" x1="108.396" y1="532.445" x2="108.396" y2="541.598"/>
<line fill="none" stroke="#352B4C" stroke-width="3" stroke-linecap="round" stroke-linejoin="round" stroke-miterlimit="10" x1="108.396" y1="541.592" x2="108.396" y2="549.227"/>
<line fill="none" stroke="#352B4C" stroke-width="3" stroke-linecap="round" stroke-linejoin="round" stroke-miterlimit="10" x1="177.69" y1="549.219" x2="177.69" y2="555.318"/>
<line fill="none" stroke="#352B4C" stroke-width="3" stroke-linecap="round" stroke-linejoin="round" stroke-miterlimit="10" x1="177.69" y1="532.445" x2="177.69" y2="541.598"/>
<line fill="none" stroke="#352B4C" stroke-width="3" stroke-linecap="round" stroke-linejoin="round" stroke-miterlimit="10" x1="177.69" y1="541.592" x2="177.69" y2="549.227"/>
<line fill="none" stroke="#352B4C" stroke-width="3" stroke-linecap="round" stroke-linejoin="round" stroke-miterlimit="10" x1="9.984" y1="555.314" x2="108.4" y2="555.314"/>
<line fill="none" stroke="#352B4C" stroke-width="3" stroke-linecap="round" stroke-linejoin="round" stroke-miterlimit="10" x1="177.69" y1="555.314" x2="203.94" y2="555.314"/>
<line fill="none" stroke="#352B4C" stroke-width="3" stroke-linecap="round" stroke-linejoin="round" stroke-miterlimit="10" x1="330.108" y1="532.445" x2="316.913" y2="532.445"/>
<line fill="none" stroke="#352B4C" stroke-width="3" stroke-linecap="round" stroke-linejoin="round" stroke-miterlimit="10" x1="203.938" y1="532.445" x2="177.686" y2="532.445"/>
<line fill="none" stroke="#352B4C" stroke-width="3" stroke-linecap="round" stroke-linejoin="round" stroke-miterlimit="10" x1="108.396" y1="532.445" x2="17.611" y2="532.445"/>
<line fill="none" stroke="#352B4C" stroke-width="3" stroke-linecap="round" stroke-linejoin="round" stroke-miterlimit="10" x1="316.905" y1="555.314" x2="203.938" y2="555.314"/>
<line fill="none" stroke="#352B4C" stroke-width="3" stroke-linecap="round" stroke-linejoin="round" stroke-miterlimit="10" x1="316.905" y1="532.445" x2="203.938" y2="532.445"/>
<line fill="none" stroke="#352B4C" stroke-width="3" stroke-linecap="round" stroke-linejoin="round" stroke-miterlimit="10" x1="316.905" y1="555.314" x2="316.905" y2="555.314"/>
<line fill="none" stroke="#352B4C" stroke-width="3" stroke-linecap="round" stroke-linejoin="round" stroke-miterlimit="10" x1="316.905" y1="555.314" x2="203.938" y2="555.314"/>
<line fill="none" stroke="#352B4C" stroke-width="3" stroke-linecap="round" stroke-linejoin="round" stroke-miterlimit="10" x1="203.938" y1="555.314" x2="203.938" y2="555.314"/>
<line fill="none" stroke="#352B4C" stroke-width="3" stroke-linecap="round" stroke-linejoin="round" stroke-miterlimit="10" x1="316.905" y1="532.445" x2="316.905" y2="532.445"/>
<line fill="none" stroke="#352B4C" stroke-width="3" stroke-linecap="round" stroke-linejoin="round" stroke-miterlimit="10" x1="316.905" y1="532.445" x2="203.938" y2="532.445"/>
<line fill="none" stroke="#352B4C" stroke-width="3" stroke-linecap="round" stroke-linejoin="round" stroke-miterlimit="10" x1="203.938" y1="532.445" x2="203.938" y2="532.445"/>
<line fill="none" stroke="#352B4C" stroke-width="3" stroke-linecap="round" stroke-linejoin="round" stroke-miterlimit="10" x1="316.905" y1="541.592" x2="311.196" y2="541.592"/>
<line fill="none" stroke="#352B4C" stroke-width="3" stroke-linecap="round" stroke-linejoin="round" stroke-miterlimit="10" x1="311.186" y1="541.592" x2="311.186" y2="547.691"/>
<line fill="none" stroke="#352B4C" stroke-width="3" stroke-linecap="round" stroke-linejoin="round" stroke-miterlimit="10" x1="311.186" y1="547.691" x2="316.895" y2="547.691"/>
<line fill="none" stroke="#352B4C" stroke-width="3" stroke-linecap="round" stroke-linejoin="round" stroke-miterlimit="10" x1="316.905" y1="547.691" x2="316.905" y2="541.592"/>
<line fill="none" stroke="#352B4C" stroke-width="3" stroke-linecap="round" stroke-linejoin="round" stroke-miterlimit="10" x1="203.938" y1="547.691" x2="209.647" y2="547.691"/>
<line fill="none" stroke="#352B4C" stroke-width="3" stroke-linecap="round" stroke-linejoin="round" stroke-miterlimit="10" x1="209.657" y1="547.691" x2="209.657" y2="541.592"/>
<line fill="none" stroke="#352B4C" stroke-width="3" stroke-linecap="round" stroke-linejoin="round" stroke-miterlimit="10" x1="209.657" y1="541.592" x2="203.948" y2="541.592"/>
<line fill="none" stroke="#352B4C" stroke-width="3" stroke-linecap="round" stroke-linejoin="round" stroke-miterlimit="10" x1="203.938" y1="541.592" x2="203.938" y2="547.691"/>
<line fill="none" stroke="#352B4C" stroke-width="3" stroke-linecap="round" stroke-linejoin="round" stroke-miterlimit="10" x1="311.186" y1="541.592" x2="209.655" y2="541.592"/>
<line fill="none" stroke="#352B4C" stroke-width="3" stroke-linecap="round" stroke-linejoin="round" stroke-miterlimit="10" x1="209.657" y1="547.691" x2="311.186" y2="547.691"/>
<line fill="none" stroke="#352B4C" stroke-width="3" stroke-linecap="round" stroke-linejoin="round" stroke-miterlimit="10" x1="316.905" y1="547.691" x2="316.905" y2="541.592"/>
<line fill="none" stroke="#352B4C" stroke-width="3" stroke-linecap="round" stroke-linejoin="round" stroke-miterlimit="10" x1="316.905" y1="555.314" x2="316.905" y2="547.682"/>
<line fill="none" stroke="#352B4C" stroke-width="3" stroke-linecap="round" stroke-linejoin="round" stroke-miterlimit="10" x1="316.905" y1="541.592" x2="316.905" y2="532.441"/>
<line fill="none" stroke="#352B4C" stroke-width="3" stroke-linecap="round" stroke-linejoin="round" stroke-miterlimit="10" x1="203.938" y1="547.691" x2="203.938" y2="541.592"/>
<line fill="none" stroke="#352B4C" stroke-width="3" stroke-linecap="round" stroke-linejoin="round" stroke-miterlimit="10" x1="203.938" y1="555.314" x2="203.938" y2="547.682"/>
<line fill="none" stroke="#352B4C" stroke-width="3" stroke-linecap="round" stroke-linejoin="round" stroke-miterlimit="10" x1="203.938" y1="541.592" x2="203.938" y2="532.441"/>
<line fill="none" stroke="#352B4C" stroke-width="3" stroke-linecap="round" stroke-linejoin="round" stroke-miterlimit="10" x1="108.396" y1="541.592" x2="168.398" y2="506.967"/>
<line fill="none" stroke="#352B4C" stroke-width="3" stroke-linecap="round" stroke-linejoin="round" stroke-miterlimit="10" x1="177.69" y1="541.592" x2="177.69" y2="549.227"/>
<line fill="none" stroke="#352B4C" stroke-width="3" stroke-linecap="round" stroke-linejoin="round" stroke-miterlimit="10" x1="108.396" y1="541.592" x2="108.396" y2="549.227"/>
<polygon fill="#352B4C" points="17.608,38.383 17.608,53.635 187.639,53.635 172.432,38.383 "/>
<line fill="none" stroke="#352B4C" stroke-width="3" stroke-linecap="round" stroke-linejoin="round" stroke-miterlimit="10" x1="172.426" y1="38.387" x2="17.603" y2="38.387"/>
<line fill="none" stroke="#352B4C" stroke-width="3" stroke-linecap="round" stroke-linejoin="round" stroke-miterlimit="10" x1="17.61" y1="53.623" x2="180.016" y2="53.623"/>
<line fill="none" stroke="#352B4C" stroke-width="3" stroke-linecap="round" stroke-linejoin="round" stroke-miterlimit="10" x1="72" y1="229.33" x2="9.982" y2="229.33"/>
<line fill="none" stroke="#352B4C" stroke-width="3" stroke-linecap="round" stroke-linejoin="round" stroke-miterlimit="10" x1="9.984" y1="236.957" x2="72" y2="236.957"/>
<line fill="none" stroke="#352B4C" stroke-width="3" stroke-linecap="round" stroke-linejoin="round" stroke-miterlimit="10" x1="72" y1="236.957" x2="72" y2="229.323"/>
<line fill="none" stroke="#352B4C" stroke-width="3" stroke-linecap="round" stroke-linejoin="round" stroke-miterlimit="10" x1="79.624" y1="194.25" x2="9.99" y2="194.25"/>
<line fill="none" stroke="#352B4C" stroke-width="3" stroke-linecap="round" stroke-linejoin="round" stroke-miterlimit="10" x1="9.984" y1="201.877" x2="79.618" y2="201.877"/>
<line fill="none" stroke="#352B4C" stroke-width="3" stroke-linecap="round" stroke-linejoin="round" stroke-miterlimit="10" x1="79.624" y1="201.877" x2="79.624" y2="194.243"/>
<rect x="330.098" y="16.34" fill="#352B4C" width="15.25" height="516.104"/>
<line fill="none" stroke="#352B4C" stroke-width="3" stroke-linecap="round" stroke-linejoin="round" stroke-miterlimit="10" x1="330.108" y1="16.346" x2="330.108" y2="194.252"/>
<line fill="none" stroke="#352B4C" stroke-width="3" stroke-linecap="round" stroke-linejoin="round" stroke-miterlimit="10" x1="330.108" y1="201.877" x2="330.108" y2="532.441"/>
<line fill="none" stroke="#352B4C" stroke-width="3" stroke-linecap="round" stroke-linejoin="round" stroke-miterlimit="10" x1="345.344" y1="532.445" x2="345.344" y2="204.562"/>
<line fill="none" stroke="#352B4C" stroke-width="3" stroke-linecap="round" stroke-linejoin="round" stroke-miterlimit="10" x1="345.344" y1="196.938" x2="345.344" y2="45.186"/>
<line fill="none" stroke="#352B4C" stroke-width="3" stroke-linecap="round" stroke-linejoin="round" stroke-miterlimit="10" x1="345.344" y1="37.553" x2="345.344" y2="16.353"/>
<polygon fill="#352B4C" points="172.424,38.383 187.641,53.635 187.641,16.343 172.424,1.115 "/>
<line fill="none" stroke="#352B4C" stroke-width="3" stroke-linecap="round" stroke-linejoin="round" stroke-miterlimit="10" x1="172.426" y1="1.102" x2="172.426" y2="38.385"/>
<line fill="none" stroke="#352B4C" stroke-width="3" stroke-linecap="round" stroke-linejoin="round" stroke-miterlimit="10" x1="187.649" y1="53.623" x2="187.649" y2="16.34"/>
<line fill="none" stroke="#352B4C" stroke-width="3" stroke-linecap="round" stroke-linejoin="round" stroke-miterlimit="10" x1="187.649" y1="194.25" x2="187.649" y2="167.951"/>
<line fill="none" stroke="#352B4C" stroke-width="3" stroke-linecap="round" stroke-linejoin="round" stroke-miterlimit="10" x1="187.649" y1="106.971" x2="187.649" y2="53.619"/>
<line fill="none" stroke="#352B4C" stroke-width="3" stroke-linecap="round" stroke-linejoin="round" stroke-miterlimit="10" x1="180.02" y1="53.623" x2="180.02" y2="106.976"/>
<line fill="none" stroke="#352B4C" stroke-width="3" stroke-linecap="round" stroke-linejoin="round" stroke-miterlimit="10" x1="180.02" y1="167.945" x2="180.02" y2="201.88"/>
<line fill="none" stroke="#352B4C" stroke-width="3" stroke-linecap="round" stroke-linejoin="round" stroke-miterlimit="10" x1="180.02" y1="201.877" x2="187.653" y2="201.877"/>
<line fill="none" stroke="#352B4C" stroke-width="3" stroke-linecap="round" stroke-linejoin="round" stroke-miterlimit="10" x1="187.649" y1="167.945" x2="218.172" y2="115.139"/>
<line fill="none" stroke="#352B4C" stroke-width="3" stroke-linecap="round" stroke-linejoin="round" stroke-miterlimit="10" x1="187.649" y1="106.971" x2="180.014" y2="106.971"/>
<line fill="none" stroke="#352B4C" stroke-width="3" stroke-linecap="round" stroke-linejoin="round" stroke-miterlimit="10" x1="187.649" y1="167.945" x2="180.014" y2="167.945"/>
<line fill="none" stroke="#352B4C" stroke-width="3" stroke-linecap="round" stroke-linejoin="round" stroke-miterlimit="10" x1="72" y1="236.957" x2="187.647" y2="236.957"/>
<line fill="none" stroke="#352B4C" stroke-width="3" stroke-linecap="round" stroke-linejoin="round" stroke-miterlimit="10" x1="187.649" y1="229.33" x2="148.102" y2="229.33"/>
<line fill="none" stroke="#352B4C" stroke-width="3" stroke-linecap="round" stroke-linejoin="round" stroke-miterlimit="10" x1="139.309" y1="229.33" x2="120.335" y2="229.33"/>
<line fill="none" stroke="#352B4C" stroke-width="3" stroke-linecap="round" stroke-linejoin="round" stroke-miterlimit="10" x1="111.547" y1="229.33" x2="72.001" y2="229.33"/>
<line fill="none" stroke="#352B4C" stroke-width="3" stroke-linecap="round" stroke-linejoin="round" stroke-miterlimit="10" x1="72" y1="194.25" x2="72" y2="236.957"/>
<line fill="none" stroke="#352B4C" stroke-width="3" stroke-linecap="round" stroke-linejoin="round" stroke-miterlimit="10" x1="79.624" y1="236.957" x2="79.624" y2="194.251"/>
<line fill="none" stroke="#352B4C" stroke-width="3" stroke-linecap="round" stroke-linejoin="round" stroke-miterlimit="10" x1="2.188" y1="555.314" x2="2.188" y2="641.858"/>
<line fill="none" stroke="#352B4C" stroke-width="3" stroke-linecap="round" stroke-linejoin="round" stroke-miterlimit="10" x1="9.766" y1="641.854" x2="9.766" y2="555.311"/>
<line fill="none" stroke="#352B4C" stroke-width="3" stroke-linecap="round" stroke-linejoin="round" stroke-miterlimit="10" x1="13.766" y1="555.314" x2="6.182" y2="555.314"/>
<polygon fill="#352B4C" points="172.424,1.109 187.641,16.344 195.854,16.344 195.854,8.728 195.854,1.109 "/>
<line fill="none" stroke="#352B4C" stroke-width="3" stroke-linecap="round" stroke-linejoin="round" stroke-miterlimit="10" x1="195.84" y1="8.729" x2="195.84" y2="1.095"/>
<line fill="none" stroke="#352B4C" stroke-width="3" stroke-linecap="round" stroke-linejoin="round" stroke-miterlimit="10" x1="195.84" y1="16.346" x2="195.84" y2="8.73"/>
<line fill="none" stroke="#352B4C" stroke-width="3" stroke-linecap="round" stroke-linejoin="round" stroke-miterlimit="10" x1="272.083" y1="8.729" x2="272.083" y2="1.095"/>
<line fill="none" stroke="#352B4C" stroke-width="3" stroke-linecap="round" stroke-linejoin="round" stroke-miterlimit="10" x1="272.083" y1="16.346" x2="272.083" y2="8.73"/>
<line fill="none" stroke="#352B4C" stroke-width="3" stroke-linecap="round" stroke-linejoin="round" stroke-miterlimit="10" x1="195.84" y1="1.102" x2="172.427" y2="1.102"/>
<line fill="none" stroke="#352B4C" stroke-width="3" stroke-linecap="round" stroke-linejoin="round" stroke-miterlimit="10" x1="187.649" y1="16.346" x2="195.842" y2="16.346"/>
<line fill="none" stroke="#352B4C" stroke-width="3" stroke-linecap="round" stroke-linejoin="round" stroke-miterlimit="10" x1="272.083" y1="16.346" x2="330.112" y2="16.346"/>
<line fill="none" stroke="#352B4C" stroke-width="3" stroke-linecap="round" stroke-linejoin="round" stroke-miterlimit="10" x1="195.84" y1="16.346" x2="261.842" y2="54.456"/>
<line fill="none" stroke="#352B4C" stroke-width="3" stroke-linecap="round" stroke-linejoin="round" stroke-miterlimit="10" x1="272.083" y1="16.346" x2="272.083" y2="8.73"/>
<line fill="none" stroke="#352B4C" stroke-width="3" stroke-linecap="round" stroke-linejoin="round" stroke-miterlimit="10" x1="195.84" y1="16.346" x2="195.84" y2="8.73"/>
<line fill="none" stroke="#352B4C" stroke-width="3" stroke-linecap="round" stroke-linejoin="round" stroke-miterlimit="10" x1="180.02" y1="201.877" x2="199.446" y2="201.877"/>
<line fill="none" stroke="#352B4C" stroke-width="3" stroke-linecap="round" stroke-linejoin="round" stroke-miterlimit="10" x1="275.374" y1="201.877" x2="337.747" y2="201.877"/>
<line fill="none" stroke="#352B4C" stroke-width="3" stroke-linecap="round" stroke-linejoin="round" stroke-miterlimit="10" x1="337.75" y1="194.25" x2="275.377" y2="194.25"/>
<line fill="none" stroke="#352B4C" stroke-width="3" stroke-linecap="round" stroke-linejoin="round" stroke-miterlimit="10" x1="199.446" y1="194.25" x2="180.02" y2="194.25"/>
<line fill="none" stroke="#352B4C" stroke-width="3" stroke-linecap="round" stroke-linejoin="round" stroke-miterlimit="10" x1="205.167" y1="201.877" x2="264.583" y2="236.174"/>
<line fill="none" stroke="#352B4C" stroke-width="3" stroke-linecap="round" stroke-linejoin="round" stroke-miterlimit="10" x1="273.768" y1="201.877" x2="273.768" y2="194.243"/>
<line fill="none" stroke="#352B4C" stroke-width="3" stroke-linecap="round" stroke-linejoin="round" stroke-miterlimit="10" x1="205.167" y1="201.877" x2="205.167" y2="194.243"/>
<line fill="none" stroke="#352B4C" stroke-width="3" stroke-linecap="round" stroke-linejoin="round" stroke-miterlimit="10" x1="187.649" y1="236.957" x2="187.649" y2="194.251"/>
<line fill="none" stroke="#352B4C" stroke-width="3" stroke-linecap="round" stroke-linejoin="round" stroke-miterlimit="10" x1="180.02" y1="194.25" x2="180.02" y2="236.957"/>
<line fill="none" stroke="#352B4C" stroke-width="3" stroke-linecap="round" stroke-linejoin="round" stroke-miterlimit="10" x1="113.973" y1="194.25" x2="113.973" y2="236.957"/>
<line fill="none" stroke="#352B4C" stroke-width="3" stroke-linecap="round" stroke-linejoin="round" stroke-miterlimit="10" x1="121.615" y1="236.957" x2="121.615" y2="221.533"/>
<line fill="none" stroke="#352B4C" stroke-width="3" stroke-linecap="round" stroke-linejoin="round" stroke-miterlimit="10" x1="121.615" y1="209.686" x2="121.615" y2="194.245"/>
<line fill="none" stroke="#352B4C" stroke-width="3" stroke-linecap="round" stroke-linejoin="round" stroke-miterlimit="10" x1="138.079" y1="194.25" x2="138.079" y2="209.691"/>
<line fill="none" stroke="#352B4C" stroke-width="3" stroke-linecap="round" stroke-linejoin="round" stroke-miterlimit="10" x1="138.079" y1="221.531" x2="138.079" y2="236.955"/>
<line fill="none" stroke="#352B4C" stroke-width="3" stroke-linecap="round" stroke-linejoin="round" stroke-miterlimit="10" x1="145.673" y1="236.957" x2="145.673" y2="194.251"/>
<line fill="none" stroke="#352B4C" stroke-width="3" stroke-linecap="round" stroke-linejoin="round" stroke-miterlimit="10" x1="187.649" y1="194.25" x2="71.999" y2="194.25"/>
<line fill="none" stroke="#352B4C" stroke-width="3" stroke-linecap="round" stroke-linejoin="round" stroke-miterlimit="10" x1="72" y1="201.877" x2="111.545" y2="201.877"/>
<line fill="none" stroke="#352B4C" stroke-width="3" stroke-linecap="round" stroke-linejoin="round" stroke-miterlimit="10" x1="120.338" y1="201.877" x2="139.31" y2="201.877"/>
<line fill="none" stroke="#352B4C" stroke-width="3" stroke-linecap="round" stroke-linejoin="round" stroke-miterlimit="10" x1="148.099" y1="201.877" x2="187.643" y2="201.877"/>
<line fill="none" stroke="#352B4C" stroke-width="3" stroke-linecap="round" stroke-linejoin="round" stroke-miterlimit="10" x1="113.973" y1="219.412" x2="145.678" y2="219.412"/>
<line fill="none" stroke="#352B4C" stroke-width="3" stroke-linecap="round" stroke-linejoin="round" stroke-miterlimit="10" x1="145.673" y1="211.795" x2="113.967" y2="211.795"/>
<line fill="none" stroke="#352B4C" stroke-width="3" stroke-linecap="round" stroke-linejoin="round" stroke-miterlimit="10" x1="187.284" y1="555.314" x2="187.284" y2="641.858"/>
<line fill="none" stroke="#352B4C" stroke-width="3" stroke-linecap="round" stroke-linejoin="round" stroke-miterlimit="10" x1="194.879" y1="641.854" x2="194.879" y2="555.311"/>
<line fill="none" stroke="#352B4C" stroke-width="3" stroke-linecap="round" stroke-linejoin="round" stroke-miterlimit="10" x1="194.879" y1="555.314" x2="187.278" y2="555.314"/>
<line fill="none" stroke="#352B4C" stroke-width="3" stroke-linecap="round" stroke-linejoin="round" stroke-miterlimit="10" x1="194.879" y1="634.328" x2="10.476" y2="634.328"/>
<line fill="none" stroke="#352B4C" stroke-width="3" stroke-linecap="round" stroke-linejoin="round" stroke-miterlimit="10" x1="2.188" y1="642.143" x2="194.879" y2="642.143"/>
<line fill="none" stroke="#352B4C" stroke-width="3" stroke-linecap="round" stroke-linejoin="round" stroke-miterlimit="10" x1="172.426" y1="8.729" x2="172.426" y2="1.095"/>
<line fill="none" stroke="#352B4C" stroke-width="3" stroke-linecap="round" stroke-linejoin="round" stroke-miterlimit="10" x1="6.188" y1="38.387" x2="13.771" y2="38.387"/>
<line fill="none" stroke="#352B4C" stroke-width="3" stroke-linecap="round" stroke-linejoin="round" stroke-miterlimit="10" x1="2.344" y1="161.188" x2="2.344" y2="132.387"/>
<line fill="none" stroke="#352B4C" stroke-width="3" stroke-linecap="round" stroke-linejoin="round" stroke-miterlimit="10" x1="2.344" y1="53.623" x2="2.344" y2="108.691"/>
<line fill="none" stroke="#352B4C" stroke-width="3" stroke-linecap="round" stroke-linejoin="round" stroke-miterlimit="10" x1="47.577" y1="133.143" x2="50.77" y2="133.011"/>
<line fill="none" stroke="#352B4C" stroke-width="3" stroke-linecap="round" stroke-linejoin="round" stroke-miterlimit="10" x1="50.776" y1="133.016" x2="53.969" y2="133.354"/>
<line fill="none" stroke="#352B4C" stroke-width="3" stroke-linecap="round" stroke-linejoin="round" stroke-miterlimit="10" x1="53.974" y1="133.363" x2="57.118" y2="134.157"/>
<line fill="none" stroke="#352B4C" stroke-width="3" stroke-linecap="round" stroke-linejoin="round" stroke-miterlimit="10" x1="57.125" y1="134.158" x2="60.112" y2="135.388"/>
<line fill="none" stroke="#352B4C" stroke-width="3" stroke-linecap="round" stroke-linejoin="round" stroke-miterlimit="10" x1="60.103" y1="135.387" x2="62.99" y2="137.376"/>
<line fill="none" stroke="#352B4C" stroke-width="3" stroke-linecap="round" stroke-linejoin="round" stroke-miterlimit="10" x1="62.988" y1="137.373" x2="65.233" y2="140.071"/>
<line fill="none" stroke="#352B4C" stroke-width="3" stroke-linecap="round" stroke-linejoin="round" stroke-miterlimit="10" x1="65.224" y1="140.074" x2="66.643" y2="143.303"/>
<line fill="none" stroke="#352B4C" stroke-width="3" stroke-linecap="round" stroke-linejoin="round" stroke-miterlimit="10" x1="66.643" y1="143.297" x2="67.145" y2="146.78"/>
<line fill="none" stroke="#352B4C" stroke-width="3" stroke-linecap="round" stroke-linejoin="round" stroke-miterlimit="10" x1="67.146" y1="146.787" x2="66.643" y2="150.27"/>
<line fill="none" stroke="#352B4C" stroke-width="3" stroke-linecap="round" stroke-linejoin="round" stroke-miterlimit="10" x1="66.643" y1="150.268" x2="65.223" y2="153.496"/>
<line fill="none" stroke="#352B4C" stroke-width="3" stroke-linecap="round" stroke-linejoin="round" stroke-miterlimit="10" x1="65.224" y1="153.49" x2="62.978" y2="156.197"/>
<line fill="none" stroke="#352B4C" stroke-width="3" stroke-linecap="round" stroke-linejoin="round" stroke-miterlimit="10" x1="62.988" y1="156.201" x2="60.099" y2="158.189"/>
<line fill="none" stroke="#352B4C" stroke-width="3" stroke-linecap="round" stroke-linejoin="round" stroke-miterlimit="10" x1="60.103" y1="158.178" x2="57.114" y2="159.407"/>
<line fill="none" stroke="#352B4C" stroke-width="3" stroke-linecap="round" stroke-linejoin="round" stroke-miterlimit="10" x1="57.125" y1="159.406" x2="53.98" y2="160.199"/>
<line fill="none" stroke="#352B4C" stroke-width="3" stroke-linecap="round" stroke-linejoin="round" stroke-miterlimit="10" x1="53.974" y1="160.203" x2="50.78" y2="160.543"/>
<line fill="none" stroke="#352B4C" stroke-width="3" stroke-linecap="round" stroke-linejoin="round" stroke-miterlimit="10" x1="50.776" y1="160.549" x2="47.583" y2="160.434"/>
<line fill="none" stroke="#352B4C" stroke-width="3" stroke-linecap="round" stroke-linejoin="round" stroke-miterlimit="10" x1="47.577" y1="160.432" x2="31.427" y2="158.706"/>
<line fill="none" stroke="#352B4C" stroke-width="3" stroke-linecap="round" stroke-linejoin="round" stroke-miterlimit="10" x1="31.427" y1="134.875" x2="47.576" y2="133.149"/>
<line fill="none" stroke="#352B4C" stroke-width="3" stroke-linecap="round" stroke-linejoin="round" stroke-miterlimit="10" x1="62.577" y1="137.83" x2="64.722" y2="140.412"/>
<line fill="none" stroke="#352B4C" stroke-width="3" stroke-linecap="round" stroke-linejoin="round" stroke-miterlimit="10" x1="64.721" y1="140.406" x2="66.04" y2="143.461"/>
<line fill="none" stroke="#352B4C" stroke-width="3" stroke-linecap="round" stroke-linejoin="round" stroke-miterlimit="10" x1="66.044" y1="143.463" x2="66.498" y2="146.789"/>
<line fill="none" stroke="#352B4C" stroke-width="3" stroke-linecap="round" stroke-linejoin="round" stroke-miterlimit="10" x1="66.5" y1="146.787" x2="66.044" y2="150.112"/>
<line fill="none" stroke="#352B4C" stroke-width="3" stroke-linecap="round" stroke-linejoin="round" stroke-miterlimit="10" x1="66.044" y1="150.104" x2="64.724" y2="153.167"/>
<line fill="none" stroke="#352B4C" stroke-width="3" stroke-linecap="round" stroke-linejoin="round" stroke-miterlimit="10" x1="64.721" y1="153.168" x2="62.575" y2="155.734"/>
<line fill="none" stroke="#352B4C" stroke-width="3" stroke-linecap="round" stroke-linejoin="round" stroke-miterlimit="10" x1="62.577" y1="155.736" x2="59.836" y2="157.627"/>
<line fill="none" stroke="#352B4C" stroke-width="3" stroke-linecap="round" stroke-linejoin="round" stroke-miterlimit="10" x1="59.837" y1="157.627" x2="56.899" y2="158.823"/>
<line fill="none" stroke="#352B4C" stroke-width="3" stroke-linecap="round" stroke-linejoin="round" stroke-miterlimit="10" x1="56.903" y1="158.824" x2="53.882" y2="159.6"/>
<line fill="none" stroke="#352B4C" stroke-width="3" stroke-linecap="round" stroke-linejoin="round" stroke-miterlimit="10" x1="53.879" y1="159.598" x2="50.784" y2="159.937"/>
<line fill="none" stroke="#352B4C" stroke-width="3" stroke-linecap="round" stroke-linejoin="round" stroke-miterlimit="10" x1="50.776" y1="159.936" x2="47.615" y2="159.821"/>
<line fill="none" stroke="#352B4C" stroke-width="3" stroke-linecap="round" stroke-linejoin="round" stroke-miterlimit="10" x1="47.609" y1="159.816" x2="44.316" y2="159.264"/>
<line fill="none" stroke="#352B4C" stroke-width="3" stroke-linecap="round" stroke-linejoin="round" stroke-miterlimit="10" x1="44.317" y1="159.266" x2="41.124" y2="158.334"/>
<line fill="none" stroke="#352B4C" stroke-width="3" stroke-linecap="round" stroke-linejoin="round" stroke-miterlimit="10" x1="41.118" y1="158.336" x2="38.064" y2="157.016"/>
<line fill="none" stroke="#352B4C" stroke-width="3" stroke-linecap="round" stroke-linejoin="round" stroke-miterlimit="10" x1="38.062" y1="157.021" x2="35.172" y2="155.363"/>
<line fill="none" stroke="#352B4C" stroke-width="3" stroke-linecap="round" stroke-linejoin="round" stroke-miterlimit="10" x1="35.178" y1="138.207" x2="38.066" y2="136.551"/>
<line fill="none" stroke="#352B4C" stroke-width="3" stroke-linecap="round" stroke-linejoin="round" stroke-miterlimit="10" x1="38.062" y1="136.547" x2="41.115" y2="135.243"/>
<line fill="none" stroke="#352B4C" stroke-width="3" stroke-linecap="round" stroke-linejoin="round" stroke-miterlimit="10" x1="41.118" y1="135.238" x2="44.311" y2="134.306"/>
<line fill="none" stroke="#352B4C" stroke-width="3" stroke-linecap="round" stroke-linejoin="round" stroke-miterlimit="10" x1="44.317" y1="134.301" x2="47.609" y2="133.756"/>
<line fill="none" stroke="#352B4C" stroke-width="3" stroke-linecap="round" stroke-linejoin="round" stroke-miterlimit="10" x1="47.609" y1="133.75" x2="50.77" y2="133.635"/>
<line fill="none" stroke="#352B4C" stroke-width="3" stroke-linecap="round" stroke-linejoin="round" stroke-miterlimit="10" x1="50.776" y1="133.631" x2="53.872" y2="133.97"/>
<line fill="none" stroke="#352B4C" stroke-width="3" stroke-linecap="round" stroke-linejoin="round" stroke-miterlimit="10" x1="53.879" y1="133.971" x2="56.899" y2="134.746"/>
<line fill="none" stroke="#352B4C" stroke-width="3" stroke-linecap="round" stroke-linejoin="round" stroke-miterlimit="10" x1="56.903" y1="134.74" x2="59.841" y2="135.937"/>
<line fill="none" stroke="#352B4C" stroke-width="3" stroke-linecap="round" stroke-linejoin="round" stroke-miterlimit="10" x1="59.837" y1="135.939" x2="62.576" y2="137.831"/>
<line fill="none" stroke="#352B4C" stroke-width="3" stroke-linecap="round" stroke-linejoin="round" stroke-miterlimit="10" x1="17.61" y1="161.188" x2="17.61" y2="132.387"/>
<line fill="none" stroke="#352B4C" stroke-width="3" stroke-linecap="round" stroke-linejoin="round" stroke-miterlimit="10" x1="31.427" y1="158.697" x2="31.377" y2="160.473"/>
<line fill="none" stroke="#352B4C" stroke-width="3" stroke-linecap="round" stroke-linejoin="round" stroke-miterlimit="10" x1="31.38" y1="160.48" x2="30.604" y2="162.082"/>
<line fill="none" stroke="#352B4C" stroke-width="3" stroke-linecap="round" stroke-linejoin="round" stroke-miterlimit="10" x1="30.611" y1="162.07" x2="29.191" y2="163.168"/>
<line fill="none" stroke="#352B4C" stroke-width="3" stroke-linecap="round" stroke-linejoin="round" stroke-miterlimit="10" x1="29.19" y1="163.166" x2="27.448" y2="163.555"/>
<line fill="none" stroke="#352B4C" stroke-width="3" stroke-linecap="round" stroke-linejoin="round" stroke-miterlimit="10" x1="27.442" y1="163.551" x2="24.891" y2="163.403"/>
<line fill="none" stroke="#352B4C" stroke-width="3" stroke-linecap="round" stroke-linejoin="round" stroke-miterlimit="10" x1="24.889" y1="163.4" x2="22.371" y2="162.948"/>
<line fill="none" stroke="#352B4C" stroke-width="3" stroke-linecap="round" stroke-linejoin="round" stroke-miterlimit="10" x1="22.369" y1="162.951" x2="19.95" y2="162.21"/>
<line fill="none" stroke="#352B4C" stroke-width="3" stroke-linecap="round" stroke-linejoin="round" stroke-miterlimit="10" x1="19.941" y1="162.211" x2="17.597" y2="161.196"/>
<line fill="none" stroke="#352B4C" stroke-width="3" stroke-linecap="round" stroke-linejoin="round" stroke-miterlimit="10" x1="17.61" y1="132.385" x2="19.945" y2="131.37"/>
<line fill="none" stroke="#352B4C" stroke-width="3" stroke-linecap="round" stroke-linejoin="round" stroke-miterlimit="10" x1="19.941" y1="131.363" x2="22.358" y2="130.621"/>
<line fill="none" stroke="#352B4C" stroke-width="3" stroke-linecap="round" stroke-linejoin="round" stroke-miterlimit="10" x1="22.369" y1="130.613" x2="24.886" y2="130.16"/>
<line fill="none" stroke="#352B4C" stroke-width="3" stroke-linecap="round" stroke-linejoin="round" stroke-miterlimit="10" x1="24.889" y1="130.164" x2="27.438" y2="130.017"/>
<line fill="none" stroke="#352B4C" stroke-width="3" stroke-linecap="round" stroke-linejoin="round" stroke-miterlimit="10" x1="27.442" y1="130.016" x2="29.183" y2="130.404"/>
<line fill="none" stroke="#352B4C" stroke-width="3" stroke-linecap="round" stroke-linejoin="round" stroke-miterlimit="10" x1="29.19" y1="130.4" x2="30.609" y2="131.499"/>
<line fill="none" stroke="#352B4C" stroke-width="3" stroke-linecap="round" stroke-linejoin="round" stroke-miterlimit="10" x1="30.611" y1="131.506" x2="31.387" y2="133.107"/>
<line fill="none" stroke="#352B4C" stroke-width="3" stroke-linecap="round" stroke-linejoin="round" stroke-miterlimit="10" x1="31.38" y1="133.096" x2="31.429" y2="134.87"/>
<line fill="none" stroke="#352B4C" stroke-width="3" stroke-linecap="round" stroke-linejoin="round" stroke-miterlimit="10" x1="35.178" y1="155.359" x2="35.178" y2="138.212"/>
<line fill="none" stroke="#352B4C" stroke-width="3" stroke-linecap="round" stroke-linejoin="round" stroke-miterlimit="10" x1="17.61" y1="53.623" x2="17.61" y2="108.691"/>
<line fill="none" stroke="#352B4C" stroke-width="3" stroke-linecap="round" stroke-linejoin="round" stroke-miterlimit="10" x1="17.61" y1="108.689" x2="139.225" y2="108.689"/>
<line fill="none" stroke="#352B4C" stroke-width="3" stroke-linecap="round" stroke-linejoin="round" stroke-miterlimit="10" x1="139.229" y1="108.689" x2="139.229" y2="53.623"/>
<line fill="none" stroke="#352B4C" stroke-width="3" stroke-linecap="round" stroke-linejoin="round" stroke-miterlimit="10" x1="17.61" y1="53.623" x2="139.225" y2="53.623"/>
<line fill="none" stroke="#352B4C" stroke-width="3" stroke-linecap="round" stroke-linejoin="round" stroke-miterlimit="10" x1="113.878" y1="104.279" x2="31.792" y2="104.279"/>
<line fill="none" stroke="#352B4C" stroke-width="3" stroke-linecap="round" stroke-linejoin="round" stroke-miterlimit="10" x1="113.878" y1="58.035" x2="31.792" y2="58.035"/>
<line fill="none" stroke="#352B4C" stroke-width="3" stroke-linecap="round" stroke-linejoin="round" stroke-miterlimit="10" x1="21.643" y1="69.041" x2="21.643" y2="93.263"/>
<line fill="none" stroke="#352B4C" stroke-width="3" stroke-linecap="round" stroke-linejoin="round" stroke-miterlimit="10" x1="120.89" y1="188.004" x2="120.89" y2="188.004"/>
<line fill="none" stroke="#352B4C" stroke-width="3" stroke-linecap="round" stroke-linejoin="round" stroke-miterlimit="10" x1="128.971" y1="181.836" x2="128.971" y2="178.74"/>
<line fill="none" stroke="#352B4C" stroke-width="3" stroke-linecap="round" stroke-linejoin="round" stroke-miterlimit="10" x1="133.557" y1="194.25" x2="133.557" y2="178.729"/>
<line fill="none" stroke="#352B4C" stroke-width="3" stroke-linecap="round" stroke-linejoin="round" stroke-miterlimit="10" x1="96.185" y1="181.836" x2="96.185" y2="178.74"/>
<line fill="none" stroke="#352B4C" stroke-width="3" stroke-linecap="round" stroke-linejoin="round" stroke-miterlimit="10" x1="91.615" y1="194.25" x2="91.615" y2="178.729"/>
<line fill="none" stroke="#352B4C" stroke-width="3" stroke-linecap="round" stroke-linejoin="round" stroke-miterlimit="10" x1="91.615" y1="194.25" x2="133.561" y2="194.25"/>
<line fill="none" stroke="#352B4C" stroke-width="3" stroke-linecap="round" stroke-linejoin="round" stroke-miterlimit="10" x1="104.281" y1="188.004" x2="120.886" y2="188.004"/>
<line fill="none" stroke="#352B4C" stroke-width="3" stroke-linecap="round" stroke-linejoin="round" stroke-miterlimit="10" x1="345.344" y1="141.869" x2="345.344" y2="196.938"/>
<g>
	<path fill="#362C4C" d="M115.131,136.72c0,2.052-0.621,3.796-1.864,5.233c-1.243,1.438-2.987,2.426-5.233,2.965v0.135
		c2.65,0.329,4.657,1.134,6.02,2.414c1.362,1.28,2.043,3.007,2.043,5.178c0,3.159-1.145,5.618-3.436,7.378
		c-2.291,1.759-5.563,2.639-9.815,2.639c-3.564,0-6.723-0.592-9.478-1.774v-5.907c1.272,0.645,2.673,1.168,4.2,1.572
		c1.527,0.404,3.04,0.606,4.537,0.606c2.291,0,3.983-0.389,5.076-1.168c1.093-0.778,1.64-2.028,1.64-3.75
		c0-1.542-0.629-2.636-1.887-3.279s-3.264-0.966-6.019-0.966h-2.493v-5.323h2.538c2.545,0,4.406-0.333,5.581-0.999
		s1.763-1.809,1.763-3.426c0-2.485-1.557-3.729-4.671-3.729c-1.078,0-2.175,0.18-3.291,0.539c-1.116,0.359-2.354,0.981-3.717,1.864
		l-3.211-4.783c2.995-2.156,6.565-3.234,10.713-3.234c3.398,0,6.083,0.688,8.052,2.066
		C114.146,132.349,115.131,134.265,115.131,136.72z"/>
	<path fill="#362C4C" d="M128.18,157.383c-0.779,3.025-2.097,6.61-3.953,10.759h-4.941c0.973-3.983,1.729-7.741,2.269-11.275h6.289
		L128.18,157.383z"/>
	<path fill="#362C4C" d="M155.873,143.391c0,6.469-1.362,11.297-4.087,14.486c-2.726,3.189-6.85,4.784-12.375,4.784
		c-1.947,0-3.421-0.104-4.424-0.314v-5.57c1.257,0.314,2.575,0.472,3.953,0.472c2.321,0,4.23-0.34,5.728-1.021
		c1.497-0.682,2.642-1.752,3.436-3.212c0.793-1.46,1.25-3.47,1.37-6.03h-0.27c-0.869,1.407-1.872,2.396-3.01,2.965
		s-2.56,0.854-4.267,0.854c-2.86,0-5.114-0.917-6.76-2.752c-1.647-1.834-2.471-4.383-2.471-7.647c0-3.519,1-6.3,2.999-8.344
		c1.999-2.044,4.72-3.065,8.164-3.065c2.425,0,4.548,0.569,6.367,1.707s3.215,2.788,4.189,4.952
		C155.387,137.817,155.873,140.396,155.873,143.391z M143.992,134.563c-1.438,0-2.561,0.494-3.369,1.482s-1.213,2.411-1.213,4.268
		c0,1.588,0.367,2.845,1.101,3.773c0.733,0.929,1.849,1.393,3.347,1.393c1.407,0,2.612-0.461,3.616-1.382
		c1.003-0.92,1.505-1.979,1.505-3.178c0-1.781-0.468-3.286-1.404-4.515C146.638,135.178,145.444,134.563,143.992,134.563z"/>
</g>
<rect x="205.233" y="531.021" fill-rule="evenodd" clip-rule="evenodd" fill="#5EA9C9" width="110.381" height="26.478"/>
<rect x="205.233" y="531.021" fill-rule="evenodd" clip-rule="evenodd" fill="#ADD9EE" width="110.381" height="7.81"/>
<rect x="205.233" y="549.693" fill-rule="evenodd" clip-rule="evenodd" fill="#ADD9EE" width="110.381" height="7.805"/>
<g>
	<path fill="#362C4C" d="M42.628,514.334h-6.94v-19.001l0.067-3.122l0.112-3.414c-1.153,1.153-1.954,1.909-2.403,2.269l-3.773,3.032
		l-3.346-4.178l10.579-8.422h5.705V514.334z"/>
	<path fill="#362C4C" d="M51.5,500.387c0-6.498,1.374-11.335,4.121-14.509c2.748-3.175,6.862-4.762,12.342-4.762
		c1.872,0,3.339,0.112,4.402,0.337V487c-1.333-0.299-2.65-0.449-3.953-0.449c-2.381,0-4.324,0.359-5.828,1.078
		c-1.505,0.719-2.632,1.782-3.38,3.189c-0.749,1.408-1.19,3.407-1.325,5.997h0.292c1.482-2.545,3.855-3.818,7.12-3.818
		c2.935,0,5.233,0.921,6.896,2.763c1.662,1.842,2.493,4.388,2.493,7.637c0,3.503-0.988,6.277-2.964,8.321
		c-1.977,2.044-4.717,3.065-8.22,3.065c-2.426,0-4.541-0.562-6.345-1.685s-3.197-2.763-4.177-4.919
		C51.99,506.023,51.5,503.426,51.5,500.387z M63.359,509.235c1.482,0,2.62-0.497,3.414-1.493c0.793-0.996,1.19-2.415,1.19-4.256
		c0-1.603-0.371-2.864-1.112-3.785s-1.86-1.381-3.357-1.381c-1.408,0-2.609,0.457-3.605,1.37c-0.996,0.913-1.494,1.977-1.494,3.189
		c0,1.781,0.468,3.286,1.404,4.514C60.734,508.622,61.921,509.235,63.359,509.235z"/>
	<path fill="#362C4C" d="M86.447,509.505c-0.779,3.025-2.097,6.61-3.953,10.759h-4.941c0.973-3.983,1.729-7.741,2.269-11.275h6.289
		L86.447,509.505z"/>
	<path fill="#362C4C" d="M102.641,481.071c3.144,0,5.678,0.715,7.603,2.145c1.924,1.431,2.886,3.357,2.886,5.783
		c0,1.678-0.464,3.171-1.392,4.481c-0.929,1.31-2.426,2.481-4.492,3.515c2.456,1.317,4.219,2.691,5.29,4.121
		c1.07,1.431,1.605,2.999,1.605,4.705c0,2.695-1.056,4.863-3.167,6.503c-2.111,1.64-4.889,2.459-8.333,2.459
		c-3.594,0-6.417-0.764-8.468-2.291s-3.077-3.69-3.077-6.491c0-1.871,0.498-3.533,1.494-4.985c0.996-1.452,2.594-2.732,4.795-3.841
		c-1.872-1.183-3.219-2.448-4.042-3.796c-0.824-1.348-1.235-2.822-1.235-4.425c0-2.351,0.973-4.252,2.919-5.704
		S99.511,481.071,102.641,481.071z M97.52,505.597c0,1.288,0.449,2.291,1.348,3.01s2.126,1.078,3.684,1.078
		c1.722,0,3.009-0.37,3.863-1.111s1.28-1.719,1.28-2.932c0-1.003-0.423-1.942-1.269-2.818c-0.846-0.876-2.22-1.808-4.121-2.796
		C99.115,501.495,97.52,503.352,97.52,505.597z M102.596,486.147c-1.183,0-2.138,0.303-2.864,0.909
		c-0.727,0.606-1.089,1.419-1.089,2.437c0,0.898,0.288,1.704,0.865,2.415c0.576,0.711,1.621,1.441,3.133,2.189
		c1.467-0.688,2.493-1.393,3.077-2.111s0.876-1.55,0.876-2.493c0-1.033-0.375-1.849-1.123-2.448
		C104.722,486.446,103.764,486.147,102.596,486.147z"/>
</g>
<g>
	<path fill="#362C4C" d="M53.988,619.898H31.035v-4.829l8.243-8.332c2.44-2.501,4.035-4.234,4.784-5.2
		c0.749-0.965,1.288-1.859,1.617-2.684c0.329-0.823,0.494-1.677,0.494-2.561c0-1.317-0.363-2.298-1.089-2.942
		c-0.726-0.644-1.696-0.966-2.908-0.966c-1.273,0-2.508,0.292-3.706,0.876c-1.198,0.584-2.448,1.415-3.751,2.493l-3.773-4.469
		c1.617-1.378,2.957-2.351,4.02-2.92s2.224-1.007,3.481-1.314c1.258-0.307,2.665-0.46,4.223-0.46c2.051,0,3.863,0.374,5.435,1.123
		s2.792,1.797,3.661,3.145c0.868,1.347,1.302,2.89,1.302,4.626c0,1.513-0.266,2.932-0.797,4.257
		c-0.532,1.325-1.355,2.684-2.471,4.076c-1.116,1.393-3.081,3.377-5.896,5.952l-4.222,3.975v0.314h14.307V619.898z"/>
	<path fill="#362C4C" d="M65.757,615.069c-0.779,3.025-2.097,6.61-3.953,10.759h-4.941c0.973-3.983,1.729-7.741,2.269-11.275h6.289
		L65.757,615.069z"/>
	<path fill="#362C4C" d="M93.585,619.898H70.631v-4.829l8.243-8.332c2.44-2.501,4.035-4.234,4.784-5.2
		c0.749-0.965,1.288-1.859,1.617-2.684c0.329-0.823,0.494-1.677,0.494-2.561c0-1.317-0.363-2.298-1.089-2.942
		c-0.726-0.644-1.696-0.966-2.908-0.966c-1.273,0-2.508,0.292-3.706,0.876c-1.198,0.584-2.448,1.415-3.751,2.493l-3.773-4.469
		c1.617-1.378,2.957-2.351,4.02-2.92s2.224-1.007,3.481-1.314c1.258-0.307,2.665-0.46,4.223-0.46c2.051,0,3.863,0.374,5.435,1.123
		s2.792,1.797,3.661,3.145c0.868,1.347,1.302,2.89,1.302,4.626c0,1.513-0.266,2.932-0.797,4.257
		c-0.532,1.325-1.355,2.684-2.471,4.076c-1.116,1.393-3.081,3.377-5.896,5.952l-4.222,3.975v0.314h14.307V619.898z"/>
</g>
<g>
	<path fill="#362C4C" d="M260.431,126.347h-3.953v6.806h-6.783v-6.806h-14.014v-4.828l14.396-21.202h6.4v20.641h3.953V126.347z
		 M249.695,120.957v-5.57c0-0.929,0.038-2.275,0.113-4.043c0.074-1.767,0.135-2.792,0.18-3.077h-0.18
		c-0.555,1.229-1.221,2.426-1.999,3.594l-6.02,9.097H249.695z"/>
	<path fill="#362C4C" d="M271.458,128.323c-0.778,3.025-2.096,6.61-3.953,10.759h-4.94c0.974-3.983,1.729-7.741,2.269-11.275h6.289
		L271.458,128.323z"/>
	<path fill="#362C4C" d="M300.028,126.347h-3.952v6.806h-6.783v-6.806h-14.016v-4.828l14.396-21.202h6.402v20.641h3.952V126.347z
		 M289.292,120.957v-5.57c0-0.929,0.037-2.275,0.111-4.043c0.075-1.767,0.135-2.792,0.18-3.077h-0.18
		c-0.553,1.229-1.22,2.426-1.998,3.594l-6.02,9.097H289.292z"/>
</g>
<g>
	<path fill="#E40050" d="M155.719,342.258c-5.696,0-10.14,2.333-13.331,6.998c-3.191,4.666-4.787,11.1-4.787,19.3
		c0,17.048,6.484,25.571,19.451,25.571c3.918,0,7.715-0.545,11.392-1.636c3.675-1.091,7.372-2.403,11.088-3.939v20.239
		c-7.392,3.272-15.754,4.908-25.086,4.908c-13.372,0-23.623-3.878-30.752-11.634c-7.13-7.757-10.695-18.967-10.695-33.631
		c0-9.17,1.727-17.229,5.181-24.178c3.454-6.947,8.422-12.29,14.906-16.027c6.484-3.735,14.108-5.604,22.875-5.604
		c9.574,0,18.724,2.081,27.45,6.241l-7.333,18.845c-3.272-1.534-6.544-2.827-9.816-3.878
		C162.991,342.783,159.476,342.258,155.719,342.258z"/>
</g>
<g>
	<path fill="#362C4C" d="M213.341,356.92h-6.939v-19.001l0.066-3.122l0.113-3.414c-1.154,1.153-1.955,1.909-2.404,2.269
		l-3.773,3.032l-3.346-4.178l10.578-8.422h5.705V356.92z"/>
	<path fill="#362C4C" d="M222.212,342.973c0-6.498,1.374-11.335,4.121-14.509c2.748-3.175,6.862-4.762,12.342-4.762
		c1.872,0,3.34,0.112,4.402,0.337v5.547c-1.332-0.299-2.65-0.449-3.953-0.449c-2.381,0-4.323,0.359-5.828,1.078
		c-1.504,0.719-2.631,1.782-3.38,3.189c-0.749,1.408-1.19,3.407-1.325,5.997h0.292c1.482-2.545,3.855-3.818,7.12-3.818
		c2.934,0,5.232,0.921,6.895,2.763s2.493,4.388,2.493,7.637c0,3.503-0.988,6.277-2.964,8.321c-1.977,2.044-4.717,3.065-8.221,3.065
		c-2.426,0-4.541-0.562-6.346-1.685c-1.804-1.123-3.196-2.763-4.177-4.919C222.703,348.609,222.212,346.012,222.212,342.973z
		 M234.072,351.821c1.482,0,2.619-0.497,3.414-1.493c0.793-0.996,1.189-2.415,1.189-4.256c0-1.603-0.37-2.864-1.111-3.785
		s-1.86-1.381-3.357-1.381c-1.408,0-2.609,0.457-3.605,1.37s-1.493,1.977-1.493,3.189c0,1.781,0.468,3.286,1.403,4.514
		C231.447,351.208,232.634,351.821,234.072,351.821z"/>
	<path fill="#362C4C" d="M257.16,352.091c-0.778,3.025-2.096,6.61-3.953,10.759h-4.94c0.974-3.983,1.729-7.741,2.269-11.275h6.289
		L257.16,352.091z"/>
	<path fill="#362C4C" d="M273.354,323.657c3.144,0,5.679,0.715,7.603,2.145c1.924,1.431,2.886,3.357,2.886,5.783
		c0,1.678-0.464,3.171-1.392,4.481c-0.93,1.31-2.426,2.481-4.492,3.515c2.455,1.317,4.219,2.691,5.289,4.121
		c1.07,1.431,1.605,2.999,1.605,4.705c0,2.695-1.056,4.863-3.166,6.503c-2.111,1.64-4.89,2.459-8.333,2.459
		c-3.594,0-6.417-0.764-8.468-2.291s-3.076-3.69-3.076-6.491c0-1.871,0.497-3.533,1.493-4.985c0.995-1.452,2.594-2.732,4.795-3.841
		c-1.872-1.183-3.22-2.448-4.042-3.796c-0.824-1.348-1.236-2.822-1.236-4.425c0-2.351,0.974-4.252,2.92-5.704
		S270.224,323.657,273.354,323.657z M268.233,348.183c0,1.288,0.449,2.291,1.348,3.01s2.126,1.078,3.684,1.078
		c1.722,0,3.009-0.37,3.862-1.111s1.281-1.719,1.281-2.932c0-1.003-0.424-1.942-1.27-2.818s-2.22-1.808-4.121-2.796
		C269.828,344.081,268.233,345.938,268.233,348.183z M273.309,328.733c-1.183,0-2.138,0.303-2.864,0.909s-1.089,1.419-1.089,2.437
		c0,0.898,0.288,1.704,0.864,2.415s1.621,1.441,3.134,2.189c1.468-0.688,2.493-1.393,3.077-2.111s0.875-1.55,0.875-2.493
		c0-1.033-0.374-1.849-1.123-2.448C275.435,329.032,274.476,328.733,273.309,328.733z"/>
</g>
<g>
	<path fill="#362C4C" d="M219.136,412.117h-22.954v-4.829l8.243-8.332c2.439-2.501,4.035-4.234,4.783-5.2
		c0.748-0.965,1.287-1.859,1.617-2.684c0.329-0.823,0.494-1.677,0.494-2.561c0-1.317-0.363-2.298-1.09-2.942
		c-0.726-0.644-1.695-0.966-2.908-0.966c-1.272,0-2.508,0.292-3.705,0.876c-1.199,0.584-2.449,1.415-3.752,2.493l-3.772-4.469
		c1.617-1.378,2.957-2.351,4.021-2.92c1.063-0.569,2.223-1.007,3.48-1.314c1.258-0.307,2.666-0.46,4.223-0.46
		c2.051,0,3.863,0.374,5.436,1.123s2.793,1.797,3.661,3.145c0.868,1.347,1.302,2.89,1.302,4.626c0,1.513-0.266,2.932-0.797,4.257
		s-1.355,2.684-2.471,4.076s-3.08,3.377-5.896,5.952l-4.222,3.975v0.314h14.307V412.117z"/>
	<path fill="#362C4C" d="M234.386,391.14c3.174,0,5.701,0.892,7.58,2.673c1.879,1.782,2.818,4.223,2.818,7.322
		c0,3.668-1.131,6.49-3.391,8.467c-2.262,1.977-5.496,2.965-9.703,2.965c-3.654,0-6.604-0.592-8.85-1.774v-5.997
		c1.184,0.629,2.561,1.143,4.133,1.539s3.063,0.595,4.47,0.595c4.237,0,6.356-1.736,6.356-5.21c0-3.31-2.194-4.964-6.581-4.964
		c-0.794,0-1.67,0.078-2.628,0.235c-0.959,0.157-1.736,0.326-2.336,0.506l-2.762-1.482l1.234-16.732h17.811v5.884h-11.724
		l-0.606,6.446l0.786-0.157C231.908,391.245,233.039,391.14,234.386,391.14z"/>
	<path fill="#362C4C" d="M257.16,407.288c-0.778,3.025-2.096,6.61-3.953,10.759h-4.94c0.974-3.983,1.729-7.741,2.269-11.275h6.289
		L257.16,407.288z"/>
	<path fill="#362C4C" d="M273.354,378.854c3.144,0,5.679,0.715,7.603,2.145c1.924,1.431,2.886,3.357,2.886,5.783
		c0,1.678-0.464,3.171-1.392,4.481c-0.93,1.31-2.426,2.481-4.492,3.515c2.455,1.317,4.219,2.691,5.289,4.121
		c1.07,1.431,1.605,2.999,1.605,4.705c0,2.695-1.056,4.863-3.166,6.503c-2.111,1.64-4.89,2.459-8.333,2.459
		c-3.594,0-6.417-0.764-8.468-2.291s-3.076-3.69-3.076-6.491c0-1.871,0.497-3.533,1.493-4.985c0.995-1.452,2.594-2.732,4.795-3.841
		c-1.872-1.183-3.22-2.448-4.042-3.796c-0.824-1.348-1.236-2.822-1.236-4.425c0-2.351,0.974-4.252,2.92-5.704
		S270.224,378.854,273.354,378.854z M268.233,403.38c0,1.288,0.449,2.291,1.348,3.01s2.126,1.078,3.684,1.078
		c1.722,0,3.009-0.37,3.862-1.111s1.281-1.719,1.281-2.932c0-1.003-0.424-1.942-1.27-2.818s-2.22-1.808-4.121-2.796
		C269.828,399.278,268.233,401.135,268.233,403.38z M273.309,383.931c-1.183,0-2.138,0.303-2.864,0.909s-1.089,1.419-1.089,2.437
		c0,0.898,0.288,1.704,0.864,2.415s1.621,1.441,3.134,2.189c1.468-0.688,2.493-1.393,3.077-2.111s0.875-1.55,0.875-2.493
		c0-1.033-0.374-1.849-1.123-2.448C275.435,384.229,274.476,383.931,273.309,383.931z"/>
</g>
<path fill="#362C4C" d="M286.36,370.898h-90.826c-1.131,0-2.047-0.728-2.047-1.623c0-0.897,0.916-1.624,2.047-1.624h90.826
	c1.131,0,2.047,0.727,2.047,1.624C288.407,370.171,287.491,370.898,286.36,370.898"/>
<polygon fill-rule="evenodd" clip-rule="evenodd" fill="#352B4C" points="272.083,17.84 272.083,-0.397 348.817,-0.397 
	348.817,6.885 348.817,12.976 348.817,17.84 "/>
<polygon fill-rule="evenodd" clip-rule="evenodd" fill="#352B4C" points="328.336,557.498 328.336,16.603 348.817,16.603 
	348.817,232.576 348.817,413.201 348.817,557.498 "/>
<polygon fill-rule="evenodd" clip-rule="evenodd" fill="#352B4C" points="315.211,541.605 315.211,531.013 341.461,531.013 
	341.461,541.605 341.461,548.664 341.461,557.499 315.211,557.499 315.211,550.441 "/>
<polygon fill-rule="evenodd" clip-rule="evenodd" fill="#352B4C" points="0,44.121 0,36.867 30.469,36.867 30.469,44.121 
	30.469,48.955 30.469,55.006 0,55.006 0,50.172 "/>
</svg>
