<?xml version="1.0" encoding="utf-8"?>
<!-- Generator: Adobe Illustrator 17.1.0, SVG Export Plug-In . SVG Version: 6.00 Build 0)  -->
<!DOCTYPE svg PUBLIC "-//W3C//DTD SVG 1.1//EN" "http://www.w3.org/Graphics/SVG/1.1/DTD/svg11.dtd">
<svg version="1.1" id="Layer_1" xmlns="http://www.w3.org/2000/svg" xmlns:xlink="http://www.w3.org/1999/xlink" x="0px" y="0px"
	 viewBox="0 0 992 341.3" enable-background="new 0 0 992 341.3" xml:space="preserve">
<g>
	<defs>
		<rect id="SVGID_1_" width="992" height="341.3"/>
	</defs>
	<clipPath id="SVGID_2_">
		<use xlink:href="#SVGID_1_"  overflow="visible"/>
	</clipPath>
	<path clip-path="url(#SVGID_2_)" fill="#B2B2B2" d="M3.1,178.2l160,160c4.2,4.2,10.9,4.2,15.1,0c4.2-4.2,4.2-10.9,0-15.1
		L36.4,181.3h944.9c5.9,0,10.7-4.8,10.7-10.7s-4.8-10.7-10.7-10.7H36.4L178.2,18.2c4.2-4.2,4.2-10.9,0-15.1C176.1,1,173.4,0,170.7,0
		c-2.7,0-5.5,1-7.5,3.1l-160,160C-1,167.3-1,174,3.1,178.2"/>
</g>
</svg>
