<?xml version="1.0" encoding="utf-8"?>
<!-- Generator: Adobe Illustrator 17.1.0, SVG Export Plug-In . SVG Version: 6.00 Build 0)  -->
<!DOCTYPE svg PUBLIC "-//W3C//DTD SVG 1.1//EN" "http://www.w3.org/Graphics/SVG/1.1/DTD/svg11.dtd">
<svg version="1.1" id="Layer_1" xmlns="http://www.w3.org/2000/svg" xmlns:xlink="http://www.w3.org/1999/xlink" x="0px" y="0px"
	 viewBox="0 0 341.3 512" enable-background="new 0 0 341.3 512" xml:space="preserve">
<g>
	<defs>
		<rect id="SVGID_1_" x="0" y="0" width="341.3" height="512"/>
	</defs>
	<clipPath id="SVGID_2_">
		<use xlink:href="#SVGID_1_"  overflow="visible"/>
	</clipPath>
	<path clip-path="url(#SVGID_2_)" fill="#DE7761" d="M178.2,508.9l160-160c4.2-4.2,4.2-10.9,0-15.1c-4.2-4.2-10.9-4.2-15.1,0
		L181.3,475.6V10.7c0-5.9-4.8-10.7-10.7-10.7S160,4.8,160,10.7v464.9L18.2,333.8c-4.2-4.2-10.9-4.2-15.1,0C1,335.9,0,338.6,0,341.3
		s1,5.5,3.1,7.5l160,160C167.3,513,174,513,178.2,508.9"/>
</g>
</svg>
