<?xml version="1.0" encoding="UTF-8"?>
<!DOCTYPE svg PUBLIC "-//W3C//DTD SVG 1.1//EN" "http://www.w3.org/Graphics/SVG/1.1/DTD/svg11.dtd">
<!-- Creator: CorelDRAW X6 -->
<svg xmlns="http://www.w3.org/2000/svg" xml:space="preserve" width="1.7405in" height="2.48017in" version="1.1" style="shape-rendering:geometricPrecision; text-rendering:geometricPrecision; image-rendering:optimizeQuality; fill-rule:evenodd; clip-rule:evenodd"
viewBox="0 0 1740 2480"
 xmlns:xlink="http://www.w3.org/1999/xlink">
 <defs>
  <style type="text/css">
   <![CDATA[
    .fil202 {fill:#30302F}
    .fil203 {fill:#363332}
    .fil55 {fill:#5DAFD4}
    .fil52 {fill:#6CADCA}
    .fil60 {fill:#72706C}
    .fil59 {fill:#74716B}
    .fil62 {fill:#757370}
    .fil61 {fill:#77746E}
    .fil168 {fill:#777471}
    .fil63 {fill:#787672}
    .fil169 {fill:#7A7773}
    .fil64 {fill:#7B7873}
    .fil66 {fill:#7B7A77}
    .fil65 {fill:#7C7A75}
    .fil170 {fill:#7C7B77}
    .fil67 {fill:#7E7C78}
    .fil68 {fill:#80807B}
    .fil171 {fill:#817E7B}
    .fil69 {fill:#85817C}
    .fil164 {fill:#85827D}
    .fil70 {fill:#86837E}
    .fil71 {fill:#86847F}
    .fil172 {fill:#878580}
    .fil72 {fill:#888681}
    .fil73 {fill:#8A8883}
    .fil173 {fill:#8B8883}
    .fil74 {fill:#8B8984}
    .fil76 {fill:#8B8B84}
    .fil75 {fill:#8C8884}
    .fil77 {fill:#8E8A85}
    .fil174 {fill:#8E8C86}
    .fil158 {fill:#8E8C87}
    .fil78 {fill:#8F8C86}
    .fil79 {fill:#908D89}
    .fil80 {fill:#918F8B}
    .fil81 {fill:#94908A}
    .fil151 {fill:#94918B}
    .fil82 {fill:#94918C}
    .fil175 {fill:#95928E}
    .fil83 {fill:#979590}
    .fil176 {fill:#99958F}
    .fil84 {fill:#99968F}
    .fil85 {fill:#9A9790}
    .fil86 {fill:#9B9993}
    .fil177 {fill:#9C9892}
    .fil87 {fill:#9F9B96}
    .fil89 {fill:#9F9C97}
    .fil88 {fill:#9F9D95}
    .fil57 {fill:#9F9F9A}
    .fil91 {fill:#A2A099}
    .fil90 {fill:#A39E98}
    .fil178 {fill:#A3A09B}
    .fil152 {fill:#A3A09C}
    .fil92 {fill:#A5A29F}
    .fil179 {fill:#A7A49E}
    .fil93 {fill:#A7A4A0}
    .fil94 {fill:#A9A6A1}
    .fil95 {fill:#ACA7A4}
    .fil96 {fill:#ADA9A3}
    .fil159 {fill:#ADA9A4}
    .fil97 {fill:#ADA9A6}
    .fil153 {fill:#AEAAA6}
    .fil180 {fill:#AEACA7}
    .fil98 {fill:#AFABA6}
    .fil99 {fill:#B1ADA8}
    .fil100 {fill:#B3B1AC}
    .fil181 {fill:#B5B1AC}
    .fil101 {fill:#B5B3AE}
    .fil165 {fill:#B5B3B0}
    .fil182 {fill:#B7B5B0}
    .fil102 {fill:#B8B5B1}
    .fil56 {fill:#B8DFF2}
    .fil103 {fill:#B9B6B2}
    .fil104 {fill:#B9B7B4}
    .fil105 {fill:#BCBAB5}
    .fil107 {fill:#BEBDBA}
    .fil53 {fill:#BFE0F1}
    .fil106 {fill:#C0BCB9}
    .fil108 {fill:#C0BDBA}
    .fil183 {fill:#C0BDBB}
    .fil109 {fill:#C2BFBD}
    .fil154 {fill:#C2C0BC}
    .fil184 {fill:#C3C1BD}
    .fil185 {fill:#C4C0BE}
    .fil111 {fill:#C4C1C0}
    .fil263 {fill:#C4C3C2}
    .fil110 {fill:#C5C2BE}
    .fil186 {fill:#C5C2C1}
    .fil166 {fill:#C5C3BF}
    .fil262 {fill:#C5C4C2}
    .fil261 {fill:#C6C5C3}
    .fil112 {fill:#C7C5C1}
    .fil113 {fill:#C7C5C3}
    .fil260 {fill:#C7C6C4}
    .fil259 {fill:#C7C7C5}
    .fil258 {fill:#C8C7C5}
    .fil114 {fill:#C9C6C3}
    .fil257 {fill:#C9C8C6}
    .fil155 {fill:#CAC7C2}
    .fil115 {fill:#CAC7C4}
    .fil256 {fill:#CAC9C7}
    .fil116 {fill:#CBC8C7}
    .fil255 {fill:#CBCAC8}
    .fil254 {fill:#CBCBC9}
    .fil160 {fill:#CCC8C4}
    .fil253 {fill:#CCCBC9}
    .fil117 {fill:#CDCAC5}
    .fil187 {fill:#CDCBC8}
    .fil150 {fill:#CDCBC9}
    .fil252 {fill:#CDCCCA}
    .fil118 {fill:#CECAC7}
    .fil251 {fill:#CECDCB}
    .fil250 {fill:#CFCECC}
    .fil188 {fill:#D0CCC8}
    .fil119 {fill:#D0CDCA}
    .fil189 {fill:#D0CDCB}
    .fil120 {fill:#D0CECC}
    .fil249 {fill:#D0CFCD}
    .fil156 {fill:#D1CFCC}
    .fil190 {fill:#D1CFCD}
    .fil248 {fill:#D1D0CF}
    .fil247 {fill:#D2D1D0}
    .fil121 {fill:#D3D1CE}
    .fil246 {fill:#D3D2D1}
    .fil191 {fill:#D4D1CF}
    .fil245 {fill:#D4D2D1}
    .fil122 {fill:#D5D2CE}
    .fil244 {fill:#D5D3D2}
    .fil243 {fill:#D5D4D3}
    .fil192 {fill:#D6D3CF}
    .fil123 {fill:#D6D3D1}
    .fil242 {fill:#D6D5D4}
    .fil241 {fill:#D7D6D5}
    .fil193 {fill:#D8D5D2}
    .fil124 {fill:#D8D6D2}
    .fil240 {fill:#D8D7D5}
    .fil239 {fill:#D9D8D7}
    .fil238 {fill:#DAD9D8}
    .fil161 {fill:#DADAD5}
    .fil125 {fill:#DADAD6}
    .fil157 {fill:#DADAD8}
    .fil237 {fill:#DADAD9}
    .fil126 {fill:#DBD9D7}
    .fil194 {fill:#DBDAD9}
    .fil127 {fill:#DBDBD9}
    .fil236 {fill:#DCDBDA}
    .fil3 {fill:#DCDCDB}
    .fil235 {fill:#DDDCDB}
    .fil129 {fill:#DEDCDB}
    .fil128 {fill:#DEDDDB}
    .fil234 {fill:#DEDDDC}
    .fil195 {fill:#DEDEDC}
    .fil233 {fill:#DFDDDC}
    .fil232 {fill:#DFDEDD}
    .fil231 {fill:#E0DFDE}
    .fil130 {fill:#E1E0DD}
    .fil230 {fill:#E1E0E0}
    .fil196 {fill:#E2E0DF}
    .fil229 {fill:#E2E1E0}
    .fil54 {fill:#E31256}
    .fil228 {fill:#E3E2E1}
    .fil131 {fill:#E4E2DE}
    .fil132 {fill:#E4E3E1}
    .fil227 {fill:#E4E3E2}
    .fil226 {fill:#E4E4E3}
    .fil133 {fill:#E5E4E2}
    .fil225 {fill:#E5E5E4}
    .fil134 {fill:#E6E5E3}
    .fil224 {fill:#E6E5E4}
    .fil162 {fill:#E7E6E3}
    .fil223 {fill:#E7E6E5}
    .fil222 {fill:#E8E7E6}
    .fil135 {fill:#E9E7E6}
    .fil136 {fill:#E9E7E7}
    .fil197 {fill:#E9E8E8}
    .fil137 {fill:#E9E9E8}
    .fil221 {fill:#EAE9E9}
    .fil220 {fill:#EBEAEA}
    .fil138 {fill:#ECEBEA}
    .fil219 {fill:#ECEBEB}
    .fil218 {fill:#EDECEB}
    .fil217 {fill:#EDEDEC}
    .fil139 {fill:#EEECEC}
    .fil140 {fill:#EEEEED}
    .fil198 {fill:#EFEFED}
    .fil216 {fill:#EFEFEE}
    .fil215 {fill:#F0F0EF}
    .fil141 {fill:#F1EFEF}
    .fil214 {fill:#F1F0F0}
    .fil167 {fill:#F1F0F1}
    .fil213 {fill:#F1F1F1}
    .fil212 {fill:#F2F2F2}
    .fil142 {fill:#F3F2F3}
    .fil163 {fill:#F3F3F2}
    .fil211 {fill:#F3F3F3}
    .fil143 {fill:#F4F4F4}
    .fil210 {fill:#F5F4F4}
    .fil199 {fill:whitesmoke}
    .fil209 {fill:#F6F6F6}
    .fil144 {fill:#F7F7F6}
    .fil208 {fill:#F7F7F7}
    .fil145 {fill:#F8F7F7}
    .fil200 {fill:#F8F8F7}
    .fil207 {fill:#F8F8F8}
    .fil146 {fill:#F8F8F9}
    .fil147 {fill:#F9F9F9}
    .fil201 {fill:#FAFAFA}
    .fil148 {fill:#FAFBFB}
    .fil149 {fill:#FAFDFE}
    .fil206 {fill:#FBFBFB}
    .fil205 {fill:#FCFCFC}
    .fil204 {fill:#FDFDFD}
    .fil58 {fill:#FEFEFE}
    .fil50 {fill:#323030;fill-rule:nonzero}
    .fil51 {fill:#3A3952;fill-rule:nonzero}
    .fil264 {fill:#646261;fill-rule:nonzero}
    .fil49 {fill:#6C6B6A;fill-rule:nonzero}
    .fil1 {fill:#B1B1B0;fill-rule:nonzero}
    .fil4 {fill:#BFE0F1;fill-rule:nonzero}
    .fil48 {fill:#C4C3C2;fill-rule:nonzero}
    .fil5 {fill:#C7C6C4;fill-rule:nonzero}
    .fil6 {fill:#C9C8C6;fill-rule:nonzero}
    .fil7 {fill:#CBCBC9;fill-rule:nonzero}
    .fil8 {fill:#CECDCB;fill-rule:nonzero}
    .fil9 {fill:#D0CFCD;fill-rule:nonzero}
    .fil10 {fill:#D2D1D0;fill-rule:nonzero}
    .fil11 {fill:#D4D3D2;fill-rule:nonzero}
    .fil12 {fill:#D6D5D4;fill-rule:nonzero}
    .fil13 {fill:#D8D7D6;fill-rule:nonzero}
    .fil14 {fill:#DAD9D8;fill-rule:nonzero}
    .fil0 {fill:#DBDBDA;fill-rule:nonzero}
    .fil15 {fill:#DCDBDA;fill-rule:nonzero}
    .fil265 {fill:#DCDCDB;fill-rule:nonzero}
    .fil16 {fill:#DEDDDC;fill-rule:nonzero}
    .fil17 {fill:#DFDEDD;fill-rule:nonzero}
    .fil18 {fill:#E1E0E0;fill-rule:nonzero}
    .fil266 {fill:#E31256;fill-rule:nonzero}
    .fil19 {fill:#E3E2E1;fill-rule:nonzero}
    .fil20 {fill:#E4E4E3;fill-rule:nonzero}
    .fil21 {fill:#E6E5E4;fill-rule:nonzero}
    .fil22 {fill:#E8E6E5;fill-rule:nonzero}
    .fil23 {fill:#E9E8E8;fill-rule:nonzero}
    .fil24 {fill:#EAE9E9;fill-rule:nonzero}
    .fil25 {fill:#EBEAEA;fill-rule:nonzero}
    .fil26 {fill:#EDECEB;fill-rule:nonzero}
    .fil27 {fill:#EDEDEC;fill-rule:nonzero}
    .fil2 {fill:#EEEDEC;fill-rule:nonzero}
    .fil28 {fill:#EFEEED;fill-rule:nonzero}
    .fil29 {fill:#F0EFEE;fill-rule:nonzero}
    .fil30 {fill:#F1F0F0;fill-rule:nonzero}
    .fil31 {fill:#F1F1F1;fill-rule:nonzero}
    .fil32 {fill:#F2F2F2;fill-rule:nonzero}
    .fil33 {fill:#F3F3F3;fill-rule:nonzero}
    .fil34 {fill:#F4F4F4;fill-rule:nonzero}
    .fil35 {fill:#F5F5F4;fill-rule:nonzero}
    .fil36 {fill:whitesmoke;fill-rule:nonzero}
    .fil37 {fill:#F6F6F6;fill-rule:nonzero}
    .fil38 {fill:#F7F7F6;fill-rule:nonzero}
    .fil39 {fill:#F8F8F8;fill-rule:nonzero}
    .fil40 {fill:#F9F8F8;fill-rule:nonzero}
    .fil41 {fill:#F9F9F9;fill-rule:nonzero}
    .fil42 {fill:#FAFAFA;fill-rule:nonzero}
    .fil43 {fill:#FBFBFB;fill-rule:nonzero}
    .fil44 {fill:#FCFCFC;fill-rule:nonzero}
    .fil45 {fill:#FDFCFC;fill-rule:nonzero}
    .fil46 {fill:#FDFDFD;fill-rule:nonzero}
    .fil47 {fill:#FEFEFE;fill-rule:nonzero}
   ]]>
  </style>
 </defs>
 <g id="ﾃ神x00a1_ﾃ神x00bb_ﾃ神x00be_ﾃ神x00b9__x0020_1">
  <metadata id="CorelCorpID_0Corel-Layer"/>
  <g id="_318295576">
   <polygon class="fil0" points="105,49 165,49 165,109 105,109 "/>
   <path class="fil1" d="M167 111l-64 0 0 -64 64 0 0 64zm-60 -4l0 0 56 0 0 -56 -56 0 0 56z"/>
   <polygon class="fil0" points="105,109 165,109 165,169 105,169 "/>
   <path class="fil1" d="M167 171l-64 0 0 -64 64 0 0 64zm-60 -4l0 0 56 0 0 -56 -56 0 0 56z"/>
   <polygon class="fil0" points="105,168 165,168 165,228 105,228 "/>
   <path class="fil1" d="M167 230l-64 0 0 -64 64 0 0 64zm-60 -4l0 0 56 0 0 -56 -56 0 0 56z"/>
   <polygon class="fil0" points="105,228 165,228 165,288 105,288 "/>
   <path class="fil1" d="M167 290l-64 0 0 -64 64 0 0 64zm-60 -4l0 0 56 0 0 -56 -56 0 0 56z"/>
   <polygon class="fil0" points="105,288 165,288 165,347 105,347 "/>
   <path class="fil1" d="M167 349l-64 0 0 -64 64 0 0 64zm-60 -4l0 0 56 0 0 -56 -56 0 0 56z"/>
   <polygon class="fil0" points="105,347 165,347 165,406 105,406 "/>
   <path class="fil1" d="M167 408l-64 0 0 -64 64 0 0 64zm-60 -4l0 0 56 0 0 -56 -56 0 0 56z"/>
   <polygon class="fil0" points="105,406 165,406 165,466 105,466 "/>
   <path class="fil1" d="M167 468l-64 0 0 -64 64 0 0 64zm-60 -4l0 0 56 0 0 -56 -56 0 0 56z"/>
   <polygon class="fil2" points="45,49 105,49 105,109 45,109 "/>
   <path class="fil1" d="M107 111l-64 0 0 -64 64 0 0 64zm-60 -4l0 0 56 0 0 -56 -56 0 0 56z"/>
   <polygon class="fil0" points="45,109 105,109 105,169 45,169 "/>
   <path class="fil1" d="M107 171l-64 0 0 -64 64 0 0 64zm-60 -4l0 0 56 0 0 -56 -56 0 0 56z"/>
   <polygon class="fil2" points="45,168 105,168 105,228 45,228 "/>
   <path class="fil1" d="M107 230l-64 0 0 -64 64 0 0 64zm-60 -4l0 0 56 0 0 -56 -56 0 0 56z"/>
   <polygon class="fil0" points="45,228 105,228 105,288 45,288 "/>
   <path class="fil1" d="M107 290l-64 0 0 -64 64 0 0 64zm-60 -4l0 0 56 0 0 -56 -56 0 0 56z"/>
   <polygon class="fil2" points="45,288 105,288 105,347 45,347 "/>
   <path class="fil1" d="M107 349l-64 0 0 -64 64 0 0 64zm-60 -4l0 0 56 0 0 -56 -56 0 0 56z"/>
   <polygon class="fil0" points="45,347 105,347 105,406 45,406 "/>
   <path class="fil1" d="M107 408l-64 0 0 -64 64 0 0 64zm-60 -4l0 0 56 0 0 -56 -56 0 0 56z"/>
   <polygon class="fil2" points="45,406 105,406 105,466 45,466 "/>
   <path class="fil1" d="M107 468l-64 0 0 -64 64 0 0 64zm-60 -4l0 0 56 0 0 -56 -56 0 0 56z"/>
   <polygon class="fil2" points="164,49 224,49 224,109 164,109 "/>
   <path class="fil1" d="M226 111l-64 0 0 -64 64 0 0 64zm-60 -4l0 0 56 0 0 -56 -56 0 0 56z"/>
   <polygon class="fil0" points="164,109 224,109 224,169 164,169 "/>
   <path class="fil1" d="M226 171l-64 0 0 -64 64 0 0 64zm-60 -4l0 0 56 0 0 -56 -56 0 0 56z"/>
   <polygon class="fil2" points="164,168 224,168 224,228 164,228 "/>
   <path class="fil1" d="M226 230l-64 0 0 -64 64 0 0 64zm-60 -4l0 0 56 0 0 -56 -56 0 0 56z"/>
   <polygon class="fil0" points="164,228 224,228 224,288 164,288 "/>
   <path class="fil1" d="M226 290l-64 0 0 -64 64 0 0 64zm-60 -4l0 0 56 0 0 -56 -56 0 0 56z"/>
   <polygon class="fil2" points="164,288 224,288 224,347 164,347 "/>
   <path class="fil1" d="M226 349l-64 0 0 -64 64 0 0 64zm-60 -4l0 0 56 0 0 -56 -56 0 0 56z"/>
   <polygon class="fil0" points="164,347 224,347 224,406 164,406 "/>
   <path class="fil1" d="M226 408l-64 0 0 -64 64 0 0 64zm-60 -4l0 0 56 0 0 -56 -56 0 0 56z"/>
   <polygon class="fil2" points="164,406 224,406 224,466 164,466 "/>
   <path class="fil1" d="M226 468l-64 0 0 -64 64 0 0 64zm-60 -4l0 0 56 0 0 -56 -56 0 0 56z"/>
   <polygon class="fil0" points="284,49 344,49 344,109 284,109 "/>
   <path class="fil1" d="M346 111l-64 0 0 -64 64 0 0 64zm-60 -4l0 0 56 0 0 -56 -56 0 0 56z"/>
   <polygon class="fil0" points="284,109 344,109 344,169 284,169 "/>
   <path class="fil1" d="M346 171l-64 0 0 -64 64 0 0 64zm-60 -4l0 0 56 0 0 -56 -56 0 0 56z"/>
   <polygon class="fil0" points="284,168 344,168 344,228 284,228 "/>
   <path class="fil1" d="M346 230l-64 0 0 -64 64 0 0 64zm-60 -4l0 0 56 0 0 -56 -56 0 0 56z"/>
   <polygon class="fil0" points="284,228 344,228 344,288 284,288 "/>
   <path class="fil1" d="M346 290l-64 0 0 -64 64 0 0 64zm-60 -4l0 0 56 0 0 -56 -56 0 0 56z"/>
   <polygon class="fil0" points="284,288 344,288 344,347 284,347 "/>
   <path class="fil1" d="M346 349l-64 0 0 -64 64 0 0 64zm-60 -4l0 0 56 0 0 -56 -56 0 0 56z"/>
   <polygon class="fil0" points="284,347 344,347 344,406 284,406 "/>
   <path class="fil1" d="M346 408l-64 0 0 -64 64 0 0 64zm-60 -4l0 0 56 0 0 -56 -56 0 0 56z"/>
   <polygon class="fil0" points="284,406 344,406 344,466 284,466 "/>
   <path class="fil1" d="M346 468l-64 0 0 -64 64 0 0 64zm-60 -4l0 0 56 0 0 -56 -56 0 0 56z"/>
   <polygon class="fil2" points="224,49 284,49 284,109 224,109 "/>
   <path class="fil1" d="M286 111l-64 0 0 -64 64 0 0 64zm-60 -4l0 0 56 0 0 -56 -56 0 0 56z"/>
   <polygon class="fil0" points="224,109 284,109 284,169 224,169 "/>
   <path class="fil1" d="M286 171l-64 0 0 -64 64 0 0 64zm-60 -4l0 0 56 0 0 -56 -56 0 0 56z"/>
   <polygon class="fil2" points="224,168 284,168 284,228 224,228 "/>
   <path class="fil1" d="M286 230l-64 0 0 -64 64 0 0 64zm-60 -4l0 0 56 0 0 -56 -56 0 0 56z"/>
   <polygon class="fil0" points="224,228 284,228 284,288 224,288 "/>
   <path class="fil1" d="M286 290l-64 0 0 -64 64 0 0 64zm-60 -4l0 0 56 0 0 -56 -56 0 0 56z"/>
   <polygon class="fil2" points="224,288 284,288 284,347 224,347 "/>
   <path class="fil1" d="M286 349l-64 0 0 -64 64 0 0 64zm-60 -4l0 0 56 0 0 -56 -56 0 0 56z"/>
   <polygon class="fil0" points="224,347 284,347 284,406 224,406 "/>
   <path class="fil1" d="M286 408l-64 0 0 -64 64 0 0 64zm-60 -4l0 0 56 0 0 -56 -56 0 0 56z"/>
   <polygon class="fil2" points="224,406 284,406 284,466 224,466 "/>
   <path class="fil1" d="M286 468l-64 0 0 -64 64 0 0 64zm-60 -4l0 0 56 0 0 -56 -56 0 0 56z"/>
   <polygon class="fil0" points="105,466 165,466 165,525 105,525 "/>
   <path class="fil1" d="M167 527l-64 0 0 -64 64 0 0 64zm-60 -4l0 0 56 0 0 -56 -56 0 0 56z"/>
   <polygon class="fil0" points="105,525 165,525 165,585 105,585 "/>
   <path class="fil1" d="M167 587l-64 0 0 -64 64 0 0 64zm-60 -4l0 0 56 0 0 -56 -56 0 0 56z"/>
   <polygon class="fil0" points="105,585 165,585 165,644 105,644 "/>
   <path class="fil1" d="M167 646l-64 0 0 -64 64 0 0 64zm-60 -4l0 0 56 0 0 -56 -56 0 0 56z"/>
   <polygon class="fil0" points="45,466 105,466 105,525 45,525 "/>
   <path class="fil1" d="M107 527l-64 0 0 -64 64 0 0 64zm-60 -4l0 0 56 0 0 -56 -56 0 0 56z"/>
   <polygon class="fil2" points="45,525 105,525 105,585 45,585 "/>
   <path class="fil1" d="M107 587l-64 0 0 -64 64 0 0 64zm-60 -4l0 0 56 0 0 -56 -56 0 0 56z"/>
   <polygon class="fil0" points="45,585 105,585 105,644 45,644 "/>
   <path class="fil1" d="M107 646l-64 0 0 -64 64 0 0 64zm-60 -4l0 0 56 0 0 -56 -56 0 0 56z"/>
   <polygon class="fil0" points="164,466 224,466 224,525 164,525 "/>
   <path class="fil1" d="M226 527l-64 0 0 -64 64 0 0 64zm-60 -4l0 0 56 0 0 -56 -56 0 0 56z"/>
   <polygon class="fil2" points="164,525 224,525 224,585 164,585 "/>
   <path class="fil1" d="M226 587l-64 0 0 -64 64 0 0 64zm-60 -4l0 0 56 0 0 -56 -56 0 0 56z"/>
   <polygon class="fil0" points="164,585 224,585 224,644 164,644 "/>
   <path class="fil1" d="M226 646l-64 0 0 -64 64 0 0 64zm-60 -4l0 0 56 0 0 -56 -56 0 0 56z"/>
   <polygon class="fil0" points="284,466 344,466 344,525 284,525 "/>
   <path class="fil1" d="M346 527l-64 0 0 -64 64 0 0 64zm-60 -4l0 0 56 0 0 -56 -56 0 0 56z"/>
   <polygon class="fil0" points="284,525 344,525 344,585 284,585 "/>
   <path class="fil1" d="M346 587l-64 0 0 -64 64 0 0 64zm-60 -4l0 0 56 0 0 -56 -56 0 0 56z"/>
   <polygon class="fil0" points="284,585 344,585 344,644 284,644 "/>
   <path class="fil1" d="M346 646l-64 0 0 -64 64 0 0 64zm-60 -4l0 0 56 0 0 -56 -56 0 0 56z"/>
   <polygon class="fil0" points="224,466 284,466 284,525 224,525 "/>
   <path class="fil1" d="M286 527l-64 0 0 -64 64 0 0 64zm-60 -4l0 0 56 0 0 -56 -56 0 0 56z"/>
   <polygon class="fil2" points="224,525 284,525 284,585 224,585 "/>
   <path class="fil1" d="M286 587l-64 0 0 -64 64 0 0 64zm-60 -4l0 0 56 0 0 -56 -56 0 0 56z"/>
   <polygon class="fil0" points="224,585 284,585 284,644 224,644 "/>
   <path class="fil1" d="M286 646l-64 0 0 -64 64 0 0 64zm-60 -4l0 0 56 0 0 -56 -56 0 0 56z"/>
   <polygon class="fil2" points="344,49 404,49 404,109 344,109 "/>
   <path class="fil1" d="M406 111l-64 0 0 -64 64 0 0 64zm-60 -4l0 0 56 0 0 -56 -56 0 0 56z"/>
   <polygon class="fil0" points="344,109 404,109 404,169 344,169 "/>
   <path class="fil1" d="M406 171l-64 0 0 -64 64 0 0 64zm-60 -4l0 0 56 0 0 -56 -56 0 0 56z"/>
   <polygon class="fil2" points="344,168 404,168 404,228 344,228 "/>
   <path class="fil1" d="M406 230l-64 0 0 -64 64 0 0 64zm-60 -4l0 0 56 0 0 -56 -56 0 0 56z"/>
   <polygon class="fil0" points="344,228 404,228 404,288 344,288 "/>
   <path class="fil1" d="M406 290l-64 0 0 -64 64 0 0 64zm-60 -4l0 0 56 0 0 -56 -56 0 0 56z"/>
   <polygon class="fil2" points="344,288 404,288 404,347 344,347 "/>
   <path class="fil1" d="M406 349l-64 0 0 -64 64 0 0 64zm-60 -4l0 0 56 0 0 -56 -56 0 0 56z"/>
   <polygon class="fil0" points="344,347 404,347 404,406 344,406 "/>
   <path class="fil1" d="M406 408l-64 0 0 -64 64 0 0 64zm-60 -4l0 0 56 0 0 -56 -56 0 0 56z"/>
   <polygon class="fil2" points="344,406 404,406 404,466 344,466 "/>
   <path class="fil1" d="M406 468l-64 0 0 -64 64 0 0 64zm-60 -4l0 0 56 0 0 -56 -56 0 0 56z"/>
   <polygon class="fil0" points="464,49 524,49 524,109 464,109 "/>
   <path class="fil1" d="M526 111l-64 0 0 -64 64 0 0 64zm-60 -4l0 0 56 0 0 -56 -56 0 0 56z"/>
   <polygon class="fil0" points="464,109 524,109 524,169 464,169 "/>
   <path class="fil1" d="M526 171l-64 0 0 -64 64 0 0 64zm-60 -4l0 0 56 0 0 -56 -56 0 0 56z"/>
   <polygon class="fil0" points="464,168 524,168 524,228 464,228 "/>
   <path class="fil1" d="M526 230l-64 0 0 -64 64 0 0 64zm-60 -4l0 0 56 0 0 -56 -56 0 0 56z"/>
   <polygon class="fil0" points="464,228 524,228 524,288 464,288 "/>
   <path class="fil1" d="M526 290l-64 0 0 -64 64 0 0 64zm-60 -4l0 0 56 0 0 -56 -56 0 0 56z"/>
   <polygon class="fil0" points="464,288 524,288 524,347 464,347 "/>
   <path class="fil1" d="M526 349l-64 0 0 -64 64 0 0 64zm-60 -4l0 0 56 0 0 -56 -56 0 0 56z"/>
   <polygon class="fil0" points="464,347 524,347 524,406 464,406 "/>
   <path class="fil1" d="M526 408l-64 0 0 -64 64 0 0 64zm-60 -4l0 0 56 0 0 -56 -56 0 0 56z"/>
   <polygon class="fil0" points="464,406 524,406 524,466 464,466 "/>
   <path class="fil1" d="M526 468l-64 0 0 -64 64 0 0 64zm-60 -4l0 0 56 0 0 -56 -56 0 0 56z"/>
   <polygon class="fil2" points="404,49 464,49 464,109 404,109 "/>
   <path class="fil1" d="M466 111l-64 0 0 -64 64 0 0 64zm-60 -4l0 0 56 0 0 -56 -56 0 0 56z"/>
   <polygon class="fil0" points="404,109 464,109 464,169 404,169 "/>
   <path class="fil1" d="M466 171l-64 0 0 -64 64 0 0 64zm-60 -4l0 0 56 0 0 -56 -56 0 0 56z"/>
   <polygon class="fil2" points="404,168 464,168 464,228 404,228 "/>
   <path class="fil1" d="M466 230l-64 0 0 -64 64 0 0 64zm-60 -4l0 0 56 0 0 -56 -56 0 0 56z"/>
   <polygon class="fil0" points="404,228 464,228 464,288 404,288 "/>
   <path class="fil1" d="M466 290l-64 0 0 -64 64 0 0 64zm-60 -4l0 0 56 0 0 -56 -56 0 0 56z"/>
   <polygon class="fil2" points="404,288 464,288 464,347 404,347 "/>
   <path class="fil1" d="M466 349l-64 0 0 -64 64 0 0 64zm-60 -4l0 0 56 0 0 -56 -56 0 0 56z"/>
   <polygon class="fil0" points="404,347 464,347 464,406 404,406 "/>
   <path class="fil1" d="M466 408l-64 0 0 -64 64 0 0 64zm-60 -4l0 0 56 0 0 -56 -56 0 0 56z"/>
   <polygon class="fil2" points="404,406 464,406 464,466 404,466 "/>
   <path class="fil1" d="M466 468l-64 0 0 -64 64 0 0 64zm-60 -4l0 0 56 0 0 -56 -56 0 0 56z"/>
   <polygon class="fil0" points="344,466 404,466 404,525 344,525 "/>
   <path class="fil1" d="M406 527l-64 0 0 -64 64 0 0 64zm-60 -4l0 0 56 0 0 -56 -56 0 0 56z"/>
   <polygon class="fil2" points="344,525 404,525 404,585 344,585 "/>
   <path class="fil1" d="M406 587l-64 0 0 -64 64 0 0 64zm-60 -4l0 0 56 0 0 -56 -56 0 0 56z"/>
   <polygon class="fil0" points="344,585 404,585 404,644 344,644 "/>
   <path class="fil1" d="M406 646l-64 0 0 -64 64 0 0 64zm-60 -4l0 0 56 0 0 -56 -56 0 0 56z"/>
   <polygon class="fil0" points="464,466 524,466 524,525 464,525 "/>
   <path class="fil1" d="M526 527l-64 0 0 -64 64 0 0 64zm-60 -4l0 0 56 0 0 -56 -56 0 0 56z"/>
   <polygon class="fil0" points="464,525 524,525 524,585 464,585 "/>
   <path class="fil1" d="M526 587l-64 0 0 -64 64 0 0 64zm-60 -4l0 0 56 0 0 -56 -56 0 0 56z"/>
   <polygon class="fil0" points="464,585 524,585 524,644 464,644 "/>
   <path class="fil1" d="M526 646l-64 0 0 -64 64 0 0 64zm-60 -4l0 0 56 0 0 -56 -56 0 0 56z"/>
   <polygon class="fil0" points="404,466 464,466 464,525 404,525 "/>
   <path class="fil1" d="M466 527l-64 0 0 -64 64 0 0 64zm-60 -4l0 0 56 0 0 -56 -56 0 0 56z"/>
   <polygon class="fil2" points="404,525 464,525 464,585 404,585 "/>
   <path class="fil1" d="M466 587l-64 0 0 -64 64 0 0 64zm-60 -4l0 0 56 0 0 -56 -56 0 0 56z"/>
   <polygon class="fil0" points="404,585 464,585 464,644 404,644 "/>
   <path class="fil1" d="M466 646l-64 0 0 -64 64 0 0 64zm-60 -4l0 0 56 0 0 -56 -56 0 0 56z"/>
   <polygon class="fil3" points="526,806 45,806 45,644 526,644 "/>
   <path class="fil4" d="M48 1613c-10,0 -18,-14 -18,-30l0 -754c0,-17 8,-30 18,-30l169 0c10,0 18,14 18,30l0 754c0,17 -8,30 -18,30l-169 0z"/>
   <path class="fil4" d="M207 1465c0,41 -33,74 -74,74 -41,0 -74,-33 -74,-74 0,-41 33,-74 74,-74 41,0 74,33 74,74z"/>
   <path class="fil5" d="M206 1465c0,40 -33,73 -73,73 -40,0 -73,-33 -73,-73 0,-40 33,-73 73,-73 40,0 73,33 73,73z"/>
   <path class="fil6" d="M205 1465c0,40 -32,72 -72,72 -40,0 -72,-32 -72,-72 0,-40 32,-72 72,-72 40,0 72,32 72,72z"/>
   <path class="fil7" d="M204 1465c0,39 -32,71 -71,71 -39,0 -71,-32 -71,-71 0,-39 32,-71 71,-71 39,0 71,32 71,71z"/>
   <path class="fil8" d="M203 1465c0,39 -31,70 -70,70 -39,0 -70,-31 -70,-70 0,-39 31,-70 70,-70 39,0 70,31 70,70z"/>
   <path class="fil9" d="M202 1465c0,38 -31,69 -69,69 -38,0 -69,-31 -69,-69 0,-38 31,-69 69,-69 38,0 69,31 69,69z"/>
   <path class="fil10" d="M201 1465c0,37 -30,68 -68,68 -37,0 -68,-30 -68,-68 0,-37 30,-68 68,-68 37,0 68,30 68,68z"/>
   <path class="fil11" d="M200 1465c0,37 -30,67 -67,67 -37,0 -67,-30 -67,-67 0,-37 30,-67 67,-67 37,0 67,30 67,67z"/>
   <path class="fil12" d="M199 1465c0,36 -29,66 -66,66 -36,0 -66,-29 -66,-66 0,-36 30,-66 66,-66 36,0 66,29 66,66z"/>
   <path class="fil13" d="M198 1465c0,36 -29,65 -65,65 -36,0 -65,-29 -65,-65 0,-36 29,-65 65,-65 36,0 65,29 65,65z"/>
   <path class="fil14" d="M197 1465c0,35 -29,64 -64,64 -35,0 -64,-29 -64,-64 0,-35 29,-64 64,-64 35,0 64,29 64,64z"/>
   <path class="fil15" d="M196 1465c0,35 -28,63 -63,63 -35,0 -63,-28 -63,-63 0,-35 28,-63 63,-63 35,0 63,28 63,63z"/>
   <path class="fil16" d="M195 1465c0,34 -28,62 -62,62 -34,0 -62,-28 -62,-62 0,-34 28,-62 62,-62 34,0 62,28 62,62z"/>
   <path class="fil17" d="M194 1465c0,34 -27,61 -61,61 -34,0 -61,-27 -61,-61 0,-33 27,-61 61,-61 34,0 61,27 61,61z"/>
   <path class="fil18" d="M193 1465c0,33 -27,60 -60,60 -33,0 -60,-27 -60,-60 0,-33 27,-60 60,-60 33,0 60,27 60,60z"/>
   <path class="fil19" d="M192 1465c0,32 -26,59 -59,59 -32,0 -59,-26 -59,-59 0,-32 26,-59 59,-59 32,0 59,26 59,59z"/>
   <path class="fil20" d="M191 1465c0,32 -26,58 -58,58 -32,0 -58,-26 -58,-58 0,-32 26,-57 58,-57 32,0 58,26 58,57z"/>
   <path class="fil21" d="M190 1465c0,31 -25,57 -57,57 -31,0 -57,-25 -57,-57 0,-31 25,-57 57,-57 31,0 57,25 57,57z"/>
   <path class="fil22" d="M189 1465c0,31 -25,56 -56,56 -31,0 -55,-25 -55,-56 0,-31 25,-55 55,-55 31,0 56,25 56,55z"/>
   <path class="fil23" d="M188 1465c0,30 -24,55 -54,55 -30,0 -55,-24 -55,-55 0,-30 24,-54 55,-54 30,0 54,24 54,54z"/>
   <path class="fil24" d="M187 1465c0,30 -24,54 -53,54 -30,0 -53,-24 -53,-54 0,-29 24,-53 53,-53 30,0 53,24 53,53z"/>
   <path class="fil25" d="M186 1465c0,29 -23,53 -52,53 -29,0 -52,-23 -52,-53 0,-29 23,-52 52,-52 29,0 52,24 52,52z"/>
   <path class="fil26" d="M185 1465c0,28 -23,51 -51,51 -28,0 -51,-23 -51,-51 0,-28 23,-51 51,-51 28,0 51,23 51,51z"/>
   <path class="fil27" d="M184 1465c0,28 -23,50 -50,50 -28,0 -50,-23 -50,-50 0,-28 23,-50 50,-50 28,0 50,23 50,50z"/>
   <path class="fil28" d="M183 1465c0,27 -22,49 -49,49 -27,0 -49,-22 -49,-49 0,-27 22,-49 49,-49 27,0 49,22 49,49z"/>
   <path class="fil29" d="M182 1465c0,27 -22,48 -48,48 -27,0 -48,-22 -48,-48 0,-27 22,-48 48,-48 27,0 48,22 48,48z"/>
   <path class="fil30" d="M181 1465c0,26 -21,47 -47,47 -26,0 -47,-21 -47,-47 0,-26 21,-47 47,-47 26,0 47,21 47,47z"/>
   <path class="fil31" d="M180 1465c0,26 -21,46 -46,46 -26,0 -46,-21 -46,-46 0,-26 21,-46 46,-46 26,0 46,21 46,46z"/>
   <path class="fil32" d="M179 1465c0,25 -20,45 -45,45 -25,0 -45,-20 -45,-45 0,-25 20,-45 45,-45 25,0 45,20 45,45z"/>
   <path class="fil33" d="M177 1465c0,24 -20,44 -44,44 -24,0 -44,-20 -44,-44 0,-24 20,-44 44,-44 24,0 44,20 44,44z"/>
   <path class="fil34" d="M176 1465c0,24 -19,43 -43,43 -24,0 -43,-19 -43,-43 0,-24 19,-43 43,-43 24,0 43,19 43,43z"/>
   <path class="fil35" d="M175 1465c0,23 -19,42 -42,42 -23,0 -42,-19 -42,-42 0,-23 19,-42 42,-42 23,0 42,19 42,42z"/>
   <path class="fil36" d="M174 1465c0,23 -18,41 -41,41 -23,0 -41,-18 -41,-41 0,-23 18,-41 41,-41 23,0 41,18 41,41z"/>
   <path class="fil37" d="M173 1465c0,22 -18,40 -40,40 -22,0 -40,-18 -40,-40 0,-22 18,-40 40,-40 22,0 40,18 40,40z"/>
   <path class="fil38" d="M172 1465c0,22 -17,39 -39,39 -22,0 -39,-18 -39,-39 0,-22 17,-39 39,-39 22,0 39,18 39,39z"/>
   <path class="fil39" d="M171 1465c0,21 -17,38 -38,38 -21,0 -38,-17 -38,-38 0,-21 17,-38 38,-38 21,0 38,17 38,38z"/>
   <path class="fil40" d="M170 1465c0,20 -17,37 -37,37 -20,0 -37,-17 -37,-37 0,-20 17,-37 37,-37 20,0 37,17 37,37z"/>
   <path class="fil41" d="M169 1465c0,20 -16,36 -36,36 -20,0 -36,-16 -36,-36 0,-20 16,-36 36,-36 20,0 36,16 36,36z"/>
   <path class="fil41" d="M168 1465c0,19 -16,35 -35,35 -19,0 -35,-16 -35,-35 0,-19 16,-35 35,-35 19,0 35,16 35,35z"/>
   <path class="fil42" d="M167 1465c0,19 -15,34 -34,34 -19,0 -34,-15 -34,-34 0,-19 15,-34 34,-34 19,0 34,15 34,34z"/>
   <path class="fil42" d="M166 1465c0,18 -15,33 -33,33 -18,0 -33,-15 -33,-33 0,-18 15,-33 33,-33 18,0 33,15 33,33z"/>
   <path class="fil43" d="M165 1465c0,18 -14,32 -32,32 -18,0 -32,-14 -32,-32 0,-18 14,-32 32,-32 18,0 32,14 32,32z"/>
   <path class="fil43" d="M164 1465c0,17 -14,31 -31,31 -17,0 -31,-14 -31,-31 0,-17 14,-31 31,-31 17,0 31,14 31,31z"/>
   <path class="fil43" d="M163 1465c0,17 -13,30 -30,30 -16,0 -30,-13 -30,-30 0,-16 13,-30 30,-30 16,0 30,13 30,30z"/>
   <path class="fil44" d="M162 1465c0,16 -13,29 -29,29 -16,0 -29,-13 -29,-29 0,-16 13,-29 29,-29 16,0 29,13 29,29z"/>
   <path class="fil44" d="M161 1465c0,15 -12,28 -28,28 -15,0 -28,-12 -28,-28 0,-15 12,-28 28,-28 15,0 28,12 28,28z"/>
   <path class="fil45" d="M160 1465c0,15 -12,27 -27,27 -15,0 -27,-12 -27,-27 0,-15 12,-27 27,-27 15,0 27,12 27,27z"/>
   <path class="fil46" d="M159 1465c0,14 -11,26 -26,26 -14,0 -26,-12 -26,-26 0,-14 11,-26 26,-26 14,0 26,12 26,26z"/>
   <path class="fil46" d="M158 1465c0,14 -11,25 -25,25 -14,0 -25,-11 -25,-25 0,-14 11,-25 25,-25 14,0 25,11 25,25z"/>
   <path class="fil46" d="M157 1465c0,13 -11,24 -24,24 -13,0 -24,-11 -24,-24 0,-13 11,-24 24,-24 13,0 24,11 24,24z"/>
   <path class="fil46" d="M156 1465c0,13 -10,23 -23,23 -13,0 -23,-10 -23,-23 0,-12 10,-23 23,-23 13,0 23,10 23,23z"/>
   <path class="fil46" d="M155 1465c0,12 -10,22 -22,22 -12,0 -22,-10 -22,-22 0,-12 10,-22 22,-22 12,0 22,10 22,22z"/>
   <path class="fil46" d="M154 1465c0,11 -9,21 -21,21 -11,0 -21,-9 -21,-21 0,-11 9,-21 21,-21 11,0 21,9 21,21z"/>
   <path class="fil47" d="M153 1465c0,11 -9,20 -20,20 -11,0 -20,-9 -20,-20 0,-11 9,-20 20,-20 11,0 20,9 20,20z"/>
   <path class="fil47" d="M152 1465c0,10 -8,19 -19,19 -10,0 -19,-8 -19,-19 0,-10 8,-18 19,-18 10,0 19,8 19,18z"/>
   <path class="fil47" d="M151 1465c0,10 -8,18 -18,18 -10,0 -18,-8 -18,-18 0,-10 8,-17 18,-17 10,0 18,8 18,17z"/>
   <path class="fil47" d="M150 1465c0,9 -7,16 -16,16 -9,0 -16,-7 -16,-16 0,-9 7,-16 16,-16 9,0 16,7 16,16z"/>
   <path class="fil47" d="M149 1465c0,9 -7,15 -15,15 -8,0 -15,-7 -15,-15 0,-8 7,-15 15,-15 9,0 15,7 15,15z"/>
   <path class="fil47" d="M148 1465c0,8 -6,14 -14,14 -8,0 -14,-6 -14,-14 0,-8 6,-14 14,-14 8,0 14,6 14,14z"/>
   <path class="fil47" d="M147 1465c0,7 -6,13 -13,13 -7,0 -13,-6 -13,-13 0,-7 6,-13 13,-13 7,0 13,6 13,13z"/>
   <path class="fil47" d="M146 1465c0,7 -6,12 -12,12 -7,0 -12,-6 -12,-12 0,-7 6,-12 12,-12 7,0 12,6 12,12z"/>
   <path class="fil47" d="M145 1465c0,6 -5,11 -11,11 -6,0 -11,-5 -11,-11 0,-6 5,-11 11,-11 6,0 11,5 11,11z"/>
   <path class="fil47" d="M144 1465c0,6 -5,10 -10,10 -6,0 -10,-5 -10,-10 0,-6 5,-10 10,-10 6,0 10,5 10,10z"/>
   <path class="fil47" d="M142 1465c0,5 -4,9 -9,9 -5,0 -9,-4 -9,-9 0,-5 4,-9 9,-9 5,0 9,4 9,9z"/>
   <path class="fil47" d="M141 1465c0,5 -4,8 -8,8 -4,0 -8,-4 -8,-8 0,-4 4,-8 8,-8 5,0 8,4 8,8z"/>
   <path class="fil47" d="M140 1465c0,4 -3,7 -7,7 -4,0 -7,-3 -7,-7 0,-4 3,-7 7,-7 4,0 7,3 7,7z"/>
   <path class="fil47" d="M139 1465c0,3 -3,6 -6,6 -3,0 -6,-3 -6,-6 0,-3 3,-6 6,-6 3,0 6,3 6,6z"/>
   <path class="fil47" d="M138 1465c0,3 -2,5 -5,5 -3,0 -5,-2 -5,-5 0,-3 2,-5 5,-5 3,0 5,2 5,5z"/>
   <path class="fil47" d="M137 1465c0,2 -2,4 -4,4 -2,0 -4,-2 -4,-4 0,-2 2,-4 4,-4 2,0 4,2 4,4z"/>
   <path class="fil47" d="M136 1465c0,2 -1,3 -3,3 -2,0 -3,-1 -3,-3 0,-2 1,-3 3,-3 2,0 3,1 3,3z"/>
   <path class="fil47" d="M135 1465c0,1 -1,2 -2,2 -1,0 -2,-1 -2,-2 0,-1 1,-2 2,-2 1,0 2,1 2,2z"/>
   <path class="fil47" d="M134 1465c0,1 -1,1 -1,1 -1,0 -1,-1 -1,-1 0,-1 0,-1 1,-1 1,0 1,0 1,1z"/>
   <path class="fil48" d="M206 1405l0 121c0,8 -7,15 -15,15l-116 0c-8,0 -15,-7 -15,-15l0 -121c0,-8 7,-15 15,-15l116 0c8,0 15,7 15,15z"/>
   <path class="fil49" d="M191 1543l-116 0c-10,0 -18,-8 -18,-18l0 -121c0,-10 8,-18 18,-18l116 0c10,0 18,8 18,18l0 121c0,10 -8,18 -18,18zm-116 -150l0 0c-6,0 -12,5 -12,12l0 121c0,6 5,12 12,12l116 0c6,0 12,-5 12,-12l0 -121c0,-7 -5,-12 -12,-12l-116 0z"/>
   <path class="fil50" d="M133 1494c0,-16 -13,-29 -29,-29 -16,0 -29,13 -29,29 0,16 13,29 29,29 16,0 29,-13 29,-29z"/>
   <path class="fil50" d="M191 1436c0,-16 -13,-29 -29,-29 -16,0 -29,13 -29,29 0,16 13,29 29,29 16,0 29,-13 29,-29z"/>
   <path class="fil50" d="M122 1431c0,-12 -10,-22 -22,-22 -12,0 -22,10 -22,22 0,12 10,22 22,22 12,0 22,-10 22,-22z"/>
   <path class="fil50" d="M190 1496c0,-12 -10,-22 -22,-22 -12,0 -22,10 -22,22 0,12 10,22 22,22 12,0 22,-10 22,-22z"/>
   <polygon class="fil51" points="1740,1870 1470,1870 1470,1973 1740,1973 "/>
   <polygon class="fil51" points="1029,1870 611,1870 611,1973 1029,1973 "/>
   <polygon class="fil51" points="235,1870 0,1870 0,1973 235,1973 "/>
   <polygon class="fil51" points="103,1870 0,1870 0,2479 103,2479 "/>
   <polygon class="fil51" points="1740,0 1635,0 1635,1973 1740,1973 "/>
   <polygon class="fil51" points="0,26 52,26 52,1908 0,1908 "/>
   <polygon class="fil51" points="0,0 622,0 622,52 0,52 "/>
   <polygon class="fil51" points="948,1932 922,1932 922,2143 948,2143 "/>
   <polygon class="fil51" points="103,2238 77,2238 77,2479 103,2479 "/>
   <polygon class="fil51" points="779,843 831,843 831,635 779,635 "/>
   <polygon class="fil51" points="779,1902 831,1902 831,1661 779,1661 "/>
   <polygon class="fil51" points="1636,1593 1688,1593 1688,0 1636,0 "/>
   <polygon class="fil51" points="1688,0 857,0 857,52 1688,52 "/>
   <polygon class="fil51" points="507,26 533,26 533,296 507,296 "/>
   <polygon class="fil51" points="1090,26 1117,26 1117,663 1090,663 "/>
   <polygon class="fil51" points="507,453 533,453 533,817 507,817 "/>
   <polygon class="fil51" points="778,829 805,829 805,1689 778,1689 "/>
   <polygon class="fil51" points="761,793 787,793 787,819 761,819 "/>
   <polygon class="fil51" points="130,637 156,637 156,817 130,817 "/>
   <polygon class="fil51" points="33,793 550,793 550,819 33,819 "/>
   <polygon class="fil51" points="1066,637 1117,637 1117,664 1066,664 "/>
   <polygon class="fil51" points="130,637 520,637 520,664 130,664 "/>
   <polygon class="fil52" points="1029,1870 1470,1870 1470,1973 1029,1973 "/>
   <polygon class="fil53" points="1029,1942 1470,1942 1470,1973 1029,1973 "/>
   <polygon class="fil53" points="1029,1870 1470,1870 1470,1900 1029,1900 "/>
   <polygon class="fil54" points="234,1973 234,1944 248,1944 248,1953 354,1870 354,1880 248,1963 248,1973 "/>
   <polygon class="fil55" points="611,1973 398,1973 398,1870 611,1870 "/>
   <polygon class="fil56" points="611,1899 398,1899 398,1870 611,1870 "/>
   <polygon class="fil56" points="611,1973 398,1973 398,1943 611,1943 "/>
   <path class="fil51" d="M106 2480c605,-137 828,-328 842,-340l-24 -27c-3,3 -233,200 -863,338 1,1 1,2 1,3 16,7 31,15 44,26z"/>
   <polygon class="fil54" points="857,13 857,39 839,39 839,30 646,123 646,115 839,22 839,13 "/>
   <polygon class="fil54" points="507,453 533,453 533,435 524,435 596,288 588,288 516,435 507,435 "/>
   <polygon class="fil54" points="1066,664 1066,638 1048,638 1048,647 900,575 900,583 1048,655 1048,664 "/>
   <polygon class="fil54" points="550,819 550,793 568,793 568,802 715,730 715,738 568,810 568,819 "/>
   <path class="fil57" d="M161 502l0 80c0,3 2,5 5,5l31 0c4,0 6,-4 8,-8 19,4 42,4 53,4 30,0 50,-19 50,-43 0,-24 -20,-44 -50,-44 -11,0 -34,3 -53,7 -2,-3 -5,-6 -8,-6l-31 0c-3,0 -5,2 -5,5z"/>
   <path class="fil57" d="M221 541c0,20 17,35 39,35 22,0 39,-16 39,-35 0,-20 -17,-35 -39,-35 -21,0 -39,16 -39,35z"/>
   <path class="fil57" d="M156 502l0 80c0,3 3,5 5,5l34 0c7,0 11,-14 11,-17l0 -57c0,-5 -4,-16 -11,-16l-34 0c-3,0 -5,2 -5,5z"/>
   <path class="fil57" d="M260 551c1,1 2,1 3,1 8,0 15,-5 15,-11 0,-6 -6,-12 -15,-12 -1,0 -2,1 -3,1l0 22z"/>
   <path class="fil57" d="M187 573c-1,2 -2,3 -4,3 -2,-1 -3,-3 -3,-5 2,-4 8,-3 7,2z"/>
   <path class="fil57" d="M193 572c0,-4 -3,-7 -7,-7 -4,0 -7,3 -7,7 0,4 4,7 7,7 4,0 7,-3 7,-7z"/>
   <path class="fil57" d="M190 572c0,-2 -2,-4 -4,-4 -3,0 -4,2 -4,4 0,3 2,4 4,4 3,0 4,-2 4,-4z"/>
   <path class="fil58" d="M166 502l0 80c0,3 2,5 5,5l30 0c3,0 5,-4 7,-8 19,4 41,4 52,4 28,0 47,-19 47,-43 0,-24 -20,-44 -47,-44 -11,0 -33,3 -52,7 -2,-3 -4,-6 -7,-6l-30 0c-3,0 -5,2 -5,5z"/>
   <path class="fil59" d="M210 541c0,28 23,51 52,51 28,0 51,-23 51,-51 0,-29 -23,-51 -51,-51 -29,0 -52,23 -52,51zm1 0l0 0c0,-28 23,-50 51,-50 27,0 50,22 50,50 0,27 -23,50 -50,50 -28,0 -51,-23 -51,-50z"/>
   <path class="fil60" d="M211 541c0,28 23,51 51,51 28,0 51,-23 51,-51 0,-28 -23,-51 -51,-51 -29,0 -51,23 -51,51zm1 0l0 0c0,-27 23,-50 50,-50 27,0 50,22 50,50 0,27 -22,50 -50,50 -28,0 -50,-22 -50,-50z"/>
   <path class="fil61" d="M211 541c0,27 23,50 51,50 27,0 50,-23 50,-50 0,-28 -23,-50 -50,-50 -28,0 -51,22 -51,50zm1 0l0 0c0,-27 22,-49 50,-49 27,0 49,22 49,49 0,27 -22,49 -49,49 -28,0 -50,-22 -50,-49z"/>
   <path class="fil62" d="M212 541c0,27 23,50 50,50 27,0 50,-22 50,-50 0,-27 -22,-50 -50,-50 -28,0 -50,22 -50,50zm1 0l0 0c0,-27 22,-49 49,-49 26,0 49,22 49,49 0,27 -22,49 -49,49 -27,0 -49,-22 -49,-49z"/>
   <path class="fil63" d="M212 541c0,27 22,49 50,49 27,0 49,-22 49,-49 0,-27 -22,-49 -49,-49 -28,0 -50,22 -50,49zm1 0l0 0c0,-27 22,-48 49,-48 26,0 48,21 48,48 0,26 -22,48 -48,48 -27,0 -49,-22 -49,-48z"/>
   <path class="fil64" d="M213 541c0,27 22,49 49,49 26,0 49,-22 49,-49 0,-27 -22,-49 -49,-49 -27,0 -49,22 -49,49zm1 0l0 0c0,-26 22,-48 48,-48 26,0 48,21 48,48 0,26 -22,48 -48,48 -26,0 -48,-22 -48,-48z"/>
   <path class="fil65" d="M213 541c0,26 22,48 49,48 26,0 48,-22 48,-48 0,-27 -22,-48 -48,-48 -27,0 -49,21 -49,48zm1 0l0 0c0,-26 21,-47 48,-47 26,0 47,21 47,47 0,26 -21,47 -47,47 -26,0 -48,-21 -48,-47z"/>
   <path class="fil66" d="M214 541c0,26 22,48 48,48 26,0 48,-22 48,-48 0,-26 -22,-48 -48,-48 -26,0 -48,21 -48,48zm1 0l0 0c0,-26 21,-46 47,-46 25,0 46,21 46,46 0,25 -21,47 -46,47 -26,0 -47,-21 -47,-47z"/>
   <path class="fil67" d="M214 541c0,26 21,47 48,47 26,0 47,-21 47,-47 0,-26 -21,-47 -47,-47 -26,0 -48,21 -48,47zm1 0l0 0c0,-25 21,-46 47,-46 25,0 46,21 46,46 0,25 -21,46 -46,46 -26,0 -47,-21 -47,-46z"/>
   <path class="fil68" d="M215 541c0,25 21,47 47,47 25,0 46,-21 46,-47 0,-26 -21,-46 -46,-46 -26,0 -47,21 -47,46zm1 0l0 0c0,-25 21,-45 46,-45 25,0 45,20 45,45 0,25 -21,45 -45,45 -25,0 -46,-21 -46,-45z"/>
   <path class="fil69" d="M215 541c0,25 21,46 47,46 25,0 46,-21 46,-46 0,-25 -21,-46 -46,-46 -26,0 -47,21 -47,46zm1 0l0 0c0,-25 21,-45 45,-45 25,0 45,20 45,45 0,25 -20,45 -45,45 -25,0 -45,-20 -45,-45z"/>
   <path class="fil70" d="M216 541c0,25 21,45 46,45 25,0 45,-21 45,-45 0,-25 -21,-45 -45,-45 -25,0 -46,20 -46,45zm1 0l0 0c0,-25 20,-44 45,-44 24,0 44,20 44,44 0,24 -20,44 -44,44 -25,0 -45,-20 -45,-44z"/>
   <path class="fil71" d="M216 541c0,25 21,45 45,45 25,0 45,-20 45,-45 0,-25 -20,-45 -45,-45 -25,0 -45,20 -45,45zm1 0l0 0c0,-24 20,-44 44,-44 24,0 44,20 44,44 0,24 -20,44 -44,44 -24,0 -44,-20 -44,-44z"/>
   <path class="fil72" d="M217 541c0,24 20,44 45,44 24,0 44,-20 44,-44 0,-25 -20,-44 -44,-44 -25,0 -45,20 -45,44zm1 0l0 0c0,-24 20,-43 44,-43 24,0 43,19 43,43 0,24 -20,43 -43,43 -24,0 -44,-20 -44,-43z"/>
   <path class="fil73" d="M218 541c0,24 20,44 44,44 24,0 44,-20 44,-44 0,-24 -20,-44 -44,-44 -24,0 -44,20 -44,44zm1 0l0 0c0,-24 20,-43 43,-43 23,0 43,19 43,43 0,23 -20,43 -43,43 -24,0 -43,-20 -43,-43z"/>
   <path class="fil74" d="M218 541c0,24 20,43 44,43 24,0 43,-20 43,-43 0,-24 -20,-43 -43,-43 -24,0 -44,19 -44,43zm1 0l0 0c0,-24 19,-42 43,-42 23,0 42,19 42,42 0,23 -19,42 -42,42 -24,0 -43,-19 -43,-42z"/>
   <path class="fil75" d="M219 541c0,23 20,43 43,43 23,0 43,-20 43,-43 0,-24 -20,-43 -43,-43 -24,0 -43,19 -43,43zm1 0l0 0c0,-23 19,-42 42,-42 23,0 42,19 42,42 0,23 -19,42 -42,42 -23,0 -42,-19 -42,-42z"/>
   <path class="fil76" d="M219 541c0,23 19,42 43,42 23,0 42,-19 42,-42 0,-24 -19,-42 -42,-42 -24,0 -43,19 -43,42zm1 0l0 0c0,-23 19,-41 42,-41 23,0 41,19 41,41 0,23 -19,41 -41,41 -23,0 -42,-18 -42,-41z"/>
   <path class="fil77" d="M220 541c0,23 19,42 42,42 23,0 42,-19 42,-42 0,-23 -19,-42 -42,-42 -23,0 -42,19 -42,42zm1 0l0 0c0,-23 19,-41 41,-41 22,0 41,18 41,41 0,22 -18,41 -41,41 -23,0 -41,-19 -41,-41z"/>
   <path class="fil78" d="M220 541c0,23 19,41 42,41 23,0 41,-18 41,-41 0,-23 -19,-41 -41,-41 -23,0 -42,19 -42,41zm1 0l0 0c0,-22 19,-40 41,-40 22,0 40,18 40,40 0,22 -18,40 -40,40 -22,0 -41,-18 -41,-40z"/>
   <path class="fil79" d="M221 541c0,22 19,41 41,41 22,0 41,-19 41,-41 0,-23 -18,-41 -41,-41 -23,0 -41,18 -41,41zm1 0l0 0c0,-22 18,-40 40,-40 22,0 40,17 40,40 0,22 -18,40 -40,40 -22,0 -40,-18 -40,-40z"/>
   <path class="fil80" d="M221 541c0,22 19,40 41,40 22,0 40,-18 40,-40 0,-22 -18,-40 -40,-40 -22,0 -41,18 -41,40zm1 0l0 0c0,-22 18,-39 40,-39 21,0 39,17 39,39 0,22 -18,39 -39,39 -22,0 -40,-17 -40,-39z"/>
   <path class="fil81" d="M222 541c0,22 18,40 40,40 22,0 40,-18 40,-40 0,-22 -18,-40 -40,-40 -22,0 -40,17 -40,40zm1 0l0 0c0,-22 17,-39 39,-39 21,0 39,17 39,39 0,21 -17,39 -39,39 -22,0 -39,-17 -39,-39z"/>
   <path class="fil82" d="M222 541c0,22 18,39 40,39 21,0 39,-17 39,-39 0,-22 -18,-39 -39,-39 -22,0 -40,17 -40,39zm1 0l0 0c0,-21 17,-38 39,-38 21,0 38,17 38,38 0,21 -17,38 -38,38 -21,0 -39,-17 -39,-38z"/>
   <path class="fil83" d="M223 541c0,21 17,39 39,39 21,0 39,-17 39,-39 0,-22 -17,-39 -39,-39 -22,0 -39,17 -39,39zm1 0l0 0c0,-21 17,-38 38,-38 21,0 38,16 38,38 0,21 -17,38 -38,38 -21,0 -38,-17 -38,-38z"/>
   <path class="fil84" d="M223 541c0,21 17,38 39,38 21,0 38,-17 38,-38 0,-21 -17,-38 -38,-38 -21,0 -39,17 -39,38zm1 0l0 0c0,-21 17,-37 37,-37 20,0 37,16 37,37 0,20 -17,37 -37,37 -21,0 -37,-17 -37,-37z"/>
   <path class="fil85" d="M224 541c0,21 17,38 38,38 21,0 38,-17 38,-38 0,-21 -17,-38 -38,-38 -21,0 -38,16 -38,38zm1 0l0 0c0,-20 16,-37 37,-37 20,0 36,16 36,37 0,20 -16,36 -36,36 -21,0 -37,-16 -37,-36z"/>
   <path class="fil86" d="M224 541c0,20 17,37 37,37 20,0 37,-17 37,-37 0,-21 -17,-37 -37,-37 -21,0 -37,16 -37,37zm1 0l0 0c0,-20 16,-36 36,-36 20,0 36,16 36,36 0,20 -16,36 -36,36 -20,0 -36,-16 -36,-36z"/>
   <path class="fil87" d="M225 541c0,20 16,36 37,36 20,0 36,-16 36,-36 0,-20 -16,-37 -36,-37 -21,0 -37,16 -37,37zm1 0l0 0c0,-20 16,-35 36,-35 20,0 35,16 35,35 0,20 -16,35 -35,35 -20,0 -36,-16 -36,-35z"/>
   <path class="fil88" d="M225 541c0,20 16,36 36,36 20,0 36,-16 36,-36 0,-20 -16,-36 -36,-36 -20,0 -36,16 -36,36zm1 0l0 0c0,-20 16,-35 35,-35 19,0 35,15 35,35 0,19 -16,35 -35,35 -20,0 -35,-16 -35,-35z"/>
   <path class="fil89" d="M226 541c0,20 16,35 36,35 20,0 35,-16 35,-35 0,-20 -16,-35 -35,-35 -20,0 -36,16 -36,35zm1 0l0 0c0,-19 16,-34 35,-34 19,0 34,15 34,34 0,19 -15,34 -34,34 -19,0 -35,-15 -35,-34z"/>
   <path class="fil90" d="M227 541c0,19 16,35 35,35 19,0 35,-16 35,-35 0,-20 -16,-35 -35,-35 -20,0 -35,15 -35,35zm1 0l0 0c0,-19 15,-34 34,-34 19,0 34,15 34,34 0,19 -15,34 -34,34 -19,0 -34,-15 -34,-34z"/>
   <path class="fil91" d="M227 541c0,19 16,34 35,34 19,0 34,-15 34,-34 0,-19 -15,-34 -34,-34 -19,0 -35,15 -35,34zm1 0l0 0c0,-18 15,-33 34,-33 18,0 33,15 33,33 0,19 -15,33 -33,33 -18,0 -34,-15 -34,-33z"/>
   <path class="fil91" d="M228 541c0,19 15,34 34,34 19,0 34,-15 34,-34 0,-19 -15,-34 -34,-34 -19,0 -34,15 -34,34zm1 0l0 0c0,-18 15,-33 33,-33 18,0 33,14 33,33 0,18 -15,33 -33,33 -18,0 -33,-15 -33,-33z"/>
   <path class="fil92" d="M228 541c0,19 15,33 34,33 18,0 33,-15 33,-33 0,-18 -15,-33 -33,-33 -18,0 -34,15 -34,33zm1 0l0 0c0,-18 15,-32 33,-32 17,0 32,14 32,32 0,18 -15,32 -32,32 -18,0 -33,-15 -33,-32z"/>
   <path class="fil93" d="M229 541c0,18 15,33 33,33 18,0 33,-15 33,-33 0,-18 -15,-33 -33,-33 -18,0 -33,14 -33,33zm1 0l0 0c0,-17 14,-32 32,-32 17,0 32,14 32,32 0,18 -14,32 -32,32 -18,0 -32,-14 -32,-32z"/>
   <path class="fil94" d="M229 541c0,18 15,32 33,32 17,0 32,-15 32,-32 0,-18 -15,-32 -32,-32 -18,0 -33,14 -33,32zm1 0l0 0c0,-17 14,-31 32,-31 17,0 31,14 31,31 0,17 -14,31 -31,31 -17,0 -32,-14 -32,-31z"/>
   <path class="fil95" d="M230 541c0,18 14,32 32,32 17,0 32,-14 32,-32 0,-17 -14,-32 -32,-32 -18,0 -32,14 -32,32zm1 0l0 0c0,-17 14,-31 31,-31 17,0 31,14 31,31 0,17 -14,31 -31,31 -17,0 -31,-14 -31,-31z"/>
   <path class="fil96" d="M230 541c0,17 14,31 32,31 17,0 31,-14 31,-31 0,-17 -14,-31 -31,-31 -17,0 -32,14 -32,31zm1 0l0 0c0,-17 14,-30 31,-30 16,0 30,13 30,30 0,16 -14,30 -30,30 -17,0 -31,-14 -31,-30z"/>
   <path class="fil97" d="M231 541c0,17 14,31 31,31 17,0 31,-14 31,-31 0,-17 -14,-31 -31,-31 -17,0 -31,14 -31,31zm1 0l0 0c0,-16 14,-30 30,-30 16,0 30,13 30,30 0,16 -13,30 -30,30 -16,0 -30,-13 -30,-30z"/>
   <path class="fil98" d="M231 541c0,16 14,30 31,30 16,0 30,-14 30,-30 0,-17 -14,-30 -30,-30 -17,0 -31,13 -31,30zm1 0l0 0c0,-16 13,-29 30,-29 16,0 29,13 29,29 0,16 -13,29 -29,29 -16,0 -30,-13 -30,-29z"/>
   <path class="fil99" d="M232 541c0,16 14,30 30,30 16,0 30,-13 30,-30 0,-16 -13,-30 -30,-30 -16,0 -30,13 -30,30zm1 0l0 0c0,-16 13,-29 29,-29 15,0 29,13 29,29 0,16 -13,29 -29,29 -16,0 -29,-13 -29,-29z"/>
   <path class="fil100" d="M232 541c0,16 13,29 30,29 16,0 29,-13 29,-29 0,-16 -13,-29 -29,-29 -16,0 -30,13 -30,29zm1 0l0 0c0,-16 13,-28 29,-28 15,0 28,12 28,28 0,15 -13,28 -28,28 -16,0 -29,-13 -29,-28z"/>
   <path class="fil101" d="M233 541c0,16 13,29 29,29 15,0 29,-13 29,-29 0,-16 -13,-29 -29,-29 -16,0 -29,13 -29,29zm1 0l0 0c0,-15 13,-27 28,-27 15,0 27,12 27,27 0,15 -13,27 -27,27 -15,0 -28,-13 -28,-27z"/>
   <path class="fil102" d="M233 541c0,15 13,28 29,28 15,0 28,-13 28,-28 0,-16 -13,-28 -28,-28 -16,0 -29,12 -29,28zm1 0l0 0c0,-15 12,-27 28,-27 15,0 27,12 27,27 0,15 -12,27 -27,27 -15,0 -28,-12 -28,-27z"/>
   <path class="fil103" d="M234 541c0,15 13,27 28,27 15,0 27,-13 27,-27 0,-15 -13,-27 -27,-27 -15,0 -28,12 -28,27zm1 0l0 0c0,-15 12,-26 27,-26 14,0 26,12 26,26 0,14 -12,26 -26,26 -15,0 -27,-12 -27,-26z"/>
   <path class="fil104" d="M234 541c0,15 12,27 28,27 15,0 27,-12 27,-27 0,-15 -12,-27 -27,-27 -15,0 -28,12 -28,27zm1 0l0 0c0,-14 12,-26 26,-26 14,0 26,12 26,26 0,14 -12,26 -26,26 -15,0 -26,-12 -26,-26z"/>
   <path class="fil105" d="M235 541c0,14 12,26 27,26 14,0 26,-12 26,-26 0,-15 -12,-26 -26,-26 -15,0 -27,12 -27,26zm1 0l0 0c0,-14 12,-25 26,-25 14,0 25,11 25,25 0,14 -12,25 -25,25 -14,0 -26,-12 -26,-25z"/>
   <path class="fil106" d="M236 541c0,14 12,26 26,26 14,0 26,-12 26,-26 0,-14 -12,-26 -26,-26 -15,0 -26,12 -26,26zm1 0l0 0c0,-14 12,-25 25,-25 14,0 25,11 25,25 0,14 -11,25 -25,25 -14,0 -25,-11 -25,-25z"/>
   <path class="fil107" d="M236 541c0,14 12,25 26,25 14,0 25,-12 25,-25 0,-14 -12,-25 -25,-25 -14,0 -26,11 -26,25zm1 0l0 0c0,-14 11,-24 25,-24 13,0 24,11 24,24 0,13 -11,24 -24,24 -14,0 -25,-11 -25,-24z"/>
   <path class="fil108" d="M237 541c0,14 12,25 25,25 14,0 25,-11 25,-25 0,-14 -11,-25 -25,-25 -14,0 -25,11 -25,25zm1 0l0 0c0,-13 11,-24 24,-24 13,0 24,11 24,24 0,13 -11,24 -24,24 -13,0 -24,-11 -24,-24z"/>
   <path class="fil109" d="M237 541c0,13 11,24 25,24 13,0 24,-11 24,-24 0,-14 -11,-24 -24,-24 -14,0 -25,11 -25,24zm1 0l0 0c0,-13 11,-23 24,-23 13,0 23,10 23,23 0,13 -11,23 -23,23 -13,0 -24,-11 -24,-23z"/>
   <path class="fil110" d="M238 541c0,13 11,24 24,24 13,0 24,-11 24,-24 0,-13 -11,-24 -24,-24 -13,0 -24,11 -24,24zm1 0l0 0c0,-13 10,-23 23,-23 12,0 23,10 23,23 0,12 -11,23 -23,23 -13,0 -23,-11 -23,-23z"/>
   <path class="fil111" d="M238 541c0,13 11,23 24,23 13,0 23,-11 23,-23 0,-13 -11,-23 -23,-23 -13,0 -24,10 -24,23zm1 0l0 0c0,-13 10,-22 23,-22 12,0 22,10 22,22 0,12 -10,22 -22,22 -13,0 -23,-10 -23,-22z"/>
   <path class="fil112" d="M239 541c0,12 10,23 23,23 12,0 23,-11 23,-23 0,-13 -11,-23 -23,-23 -13,0 -23,10 -23,23zm1 0l0 0c0,-12 10,-22 22,-22 12,0 22,10 22,22 0,12 -10,22 -22,22 -12,0 -22,-10 -22,-22z"/>
   <path class="fil113" d="M239 541c0,12 10,22 23,22 12,0 22,-10 22,-22 0,-13 -10,-22 -22,-22 -13,0 -23,10 -23,22zm1 0l0 0c0,-12 10,-21 22,-21 12,0 21,10 21,21 0,12 -10,21 -21,21 -12,0 -22,-10 -22,-21z"/>
   <path class="fil114" d="M240 541c0,12 10,22 22,22 12,0 22,-10 22,-22 0,-12 -10,-22 -22,-22 -12,0 -22,10 -22,22zm1 0l0 0c0,-12 10,-21 21,-21 11,0 21,9 21,21 0,11 -9,21 -21,21 -12,0 -21,-10 -21,-21z"/>
   <path class="fil115" d="M240 541c0,12 10,21 22,21 12,0 21,-10 21,-21 0,-12 -10,-21 -21,-21 -12,0 -22,10 -22,21zm2 0l0 0c0,-11 9,-20 20,-20 11,0 20,9 20,20 0,11 -9,20 -20,20 -11,0 -20,-9 -20,-20z"/>
   <path class="fil116" d="M241 541c0,11 10,21 21,21 11,0 21,-10 21,-21 0,-12 -9,-21 -21,-21 -12,0 -21,9 -21,21zm1 0l0 0c0,-11 9,-20 20,-20 11,0 20,8 20,20 0,11 -9,20 -20,20 -11,0 -20,-9 -20,-20z"/>
   <path class="fil117" d="M241 541c0,11 10,20 21,20 11,0 20,-9 20,-20 0,-11 -9,-20 -20,-20 -11,0 -21,9 -21,20zm1 0l0 0c0,-11 9,-19 20,-19 10,0 19,9 19,19 0,11 -9,19 -19,19 -10,0 -20,-8 -20,-19z"/>
   <path class="fil118" d="M242 541c0,11 9,20 20,20 11,0 20,-9 20,-20 0,-11 -9,-20 -20,-20 -11,0 -20,8 -20,20zm1 0l0 0c0,-11 8,-18 19,-18 10,0 19,8 19,18 0,10 -8,19 -19,19 -10,0 -19,-8 -19,-19z"/>
   <path class="fil119" d="M242 541c0,11 9,19 20,19 10,0 19,-8 19,-19 0,-11 -9,-19 -19,-19 -10,0 -20,9 -20,19zm1 0l0 0c0,-10 8,-18 18,-18 10,0 18,8 18,18 0,10 -8,18 -18,18 -10,0 -18,-9 -18,-18z"/>
   <path class="fil120" d="M243 541c0,10 8,19 19,19 10,0 19,-8 19,-19 0,-11 -8,-18 -19,-18 -10,0 -19,8 -19,18zm2 0l0 0c0,-10 7,-17 17,-17 10,0 17,7 17,17 0,10 -8,18 -17,18 -10,0 -17,-8 -17,-18z"/>
   <path class="fil121" d="M244 541c0,10 8,18 18,18 10,0 18,-9 18,-18 0,-10 -8,-18 -18,-18 -10,0 -18,8 -18,18zm1 0l0 0c0,-9 7,-17 17,-17 9,0 17,7 17,17 0,9 -8,17 -17,17 -9,0 -17,-8 -17,-17z"/>
   <path class="fil122" d="M244 541c0,10 7,18 17,18 10,0 17,-8 17,-18 0,-10 -8,-17 -17,-17 -10,0 -17,7 -17,17zm1 0l0 0c0,-9 7,-16 16,-16 9,0 16,7 16,16 0,9 -7,16 -16,16 -9,0 -16,-7 -16,-16z"/>
   <path class="fil123" d="M245 541c0,9 7,17 17,17 9,0 17,-8 17,-17 0,-9 -8,-17 -17,-17 -9,0 -17,7 -17,17zm1 0l0 0c0,-9 7,-16 16,-16 9,0 16,7 16,16 0,8 -7,16 -16,16 -9,0 -16,-7 -16,-16z"/>
   <path class="fil124" d="M246 541c0,9 7,16 16,16 9,0 16,-7 16,-16 0,-9 -7,-16 -16,-16 -9,0 -16,7 -16,16zm1 0l0 0c0,-8 7,-15 15,-15 9,0 15,7 15,15 0,8 -7,15 -15,15 -8,0 -15,-7 -15,-15z"/>
   <path class="fil125" d="M246 541c0,8 7,16 16,16 9,0 16,-7 16,-16 0,-9 -7,-16 -16,-16 -9,0 -16,7 -16,16zm1 0l0 0c0,-8 6,-15 15,-15 8,0 15,6 15,15 0,8 -7,15 -15,15 -8,0 -15,-7 -15,-15z"/>
   <path class="fil126" d="M247 541c0,8 7,15 15,15 9,0 15,-7 15,-15 0,-8 -7,-15 -15,-15 -8,0 -15,7 -15,15zm1 0l0 0c0,-8 6,-14 14,-14 7,0 14,6 14,14 0,8 -7,14 -14,14 -8,0 -14,-6 -14,-14z"/>
   <path class="fil127" d="M247 541c0,8 6,15 15,15 8,0 15,-7 15,-15 0,-8 -7,-15 -15,-15 -8,0 -15,6 -15,15zm1 0l0 0c0,-8 6,-14 14,-14 7,0 14,6 14,14 0,7 -6,14 -14,14 -8,0 -14,-6 -14,-14z"/>
   <path class="fil128" d="M248 541c0,8 6,14 14,14 7,0 14,-6 14,-14 0,-8 -7,-14 -14,-14 -8,0 -14,6 -14,14zm1 0l0 0c0,-7 6,-13 13,-13 7,0 13,6 13,13 0,7 -6,13 -13,13 -7,0 -13,-6 -13,-13z"/>
   <path class="fil129" d="M248 541c0,7 6,14 14,14 7,0 14,-6 14,-14 0,-8 -6,-14 -14,-14 -8,0 -14,6 -14,14zm1 0l0 0c0,-7 5,-13 13,-13 7,0 13,5 13,13 0,7 -6,13 -13,13 -7,0 -13,-6 -13,-13z"/>
   <path class="fil130" d="M249 541c0,7 6,13 13,13 7,0 13,-6 13,-13 0,-7 -6,-13 -13,-13 -7,0 -13,6 -13,13zm1 0l0 0c0,-7 5,-12 12,-12 6,0 12,5 12,12 0,6 -6,12 -12,12 -7,0 -12,-6 -12,-12z"/>
   <path class="fil131" d="M249 541c0,7 5,13 13,13 7,0 13,-6 13,-13 0,-7 -6,-13 -13,-13 -7,0 -13,5 -13,13zm1 0l0 0c0,-6 5,-12 12,-12 6,0 12,5 12,12 0,6 -5,12 -12,12 -7,0 -12,-5 -12,-12z"/>
   <path class="fil132" d="M250 541c0,6 5,12 12,12 6,0 12,-6 12,-12 0,-7 -6,-12 -12,-12 -7,0 -12,5 -12,12zm1 0l0 0c0,-6 5,-11 11,-11 6,0 11,5 11,11 0,6 -5,11 -11,11 -6,0 -11,-5 -11,-11z"/>
   <path class="fil133" d="M250 541c0,6 5,12 12,12 6,0 12,-5 12,-12 0,-6 -5,-12 -12,-12 -7,0 -12,5 -12,12zm1 0l0 0c0,-6 4,-11 10,-11 6,0 11,5 11,11 0,6 -5,11 -11,11 -6,0 -10,-5 -10,-11z"/>
   <path class="fil134" d="M251 541c0,6 5,11 11,11 6,0 11,-5 11,-11 0,-6 -5,-11 -11,-11 -6,0 -11,5 -11,11zm1 0l0 0c0,-6 4,-10 10,-10 5,0 10,4 10,10 0,5 -5,10 -10,10 -6,0 -10,-5 -10,-10z"/>
   <path class="fil135" d="M251 541c0,6 4,11 10,11 6,0 11,-5 11,-11 0,-6 -5,-11 -11,-11 -6,0 -10,5 -10,11zm1 0l0 0c0,-5 4,-9 9,-9 5,0 10,4 10,9 0,5 -4,10 -10,10 -5,0 -9,-4 -9,-10z"/>
   <path class="fil136" d="M252 541c0,5 4,10 10,10 5,0 10,-5 10,-10 0,-6 -5,-10 -10,-10 -6,0 -10,4 -10,10zm1 0l0 0c0,-5 4,-9 9,-9 5,0 9,4 9,9 0,5 -4,9 -9,9 -5,0 -9,-4 -9,-9z"/>
   <path class="fil137" d="M252 541c0,5 4,10 9,10 5,0 10,-4 10,-10 0,-5 -4,-9 -10,-9 -5,0 -9,4 -9,9zm1 0l0 0c0,-5 4,-8 8,-8 4,0 9,4 9,8 0,5 -4,8 -9,8 -5,0 -8,-4 -8,-8z"/>
   <path class="fil138" d="M253 541c0,5 4,9 9,9 5,0 9,-4 9,-9 0,-5 -4,-9 -9,-9 -5,0 -9,4 -9,9zm1 0l0 0c0,-5 3,-8 8,-8 4,0 8,3 8,8 0,4 -4,8 -8,8 -5,0 -8,-4 -8,-8z"/>
   <path class="fil138" d="M253 541c0,5 4,8 8,8 4,0 9,-4 9,-8 0,-5 -4,-8 -9,-8 -5,0 -8,4 -8,8zm1 0l0 0c0,-4 3,-7 7,-7 4,0 7,3 7,7 0,4 -4,7 -7,7 -4,0 -7,-4 -7,-7z"/>
   <path class="fil139" d="M254 541c0,4 3,8 8,8 4,0 8,-4 8,-8 0,-5 -4,-8 -8,-8 -5,0 -8,3 -8,8zm1 0l0 0c0,-4 3,-7 7,-7 4,0 7,3 7,7 0,4 -3,7 -7,7 -4,0 -7,-3 -7,-7z"/>
   <path class="fil140" d="M255 541c0,4 3,7 7,7 4,0 7,-4 7,-7 0,-4 -4,-7 -7,-7 -4,0 -7,3 -7,7zm1 0l0 0c0,-4 3,-6 6,-6 3,0 6,3 6,6 0,3 -3,6 -6,6 -4,0 -6,-3 -6,-6z"/>
   <path class="fil141" d="M255 541c0,4 3,7 7,7 4,0 7,-3 7,-7 0,-4 -3,-7 -7,-7 -4,0 -7,3 -7,7zm1 0l0 0c0,-3 2,-6 6,-6 3,0 6,3 6,6 0,3 -3,6 -6,6 -4,0 -6,-3 -6,-6z"/>
   <path class="fil141" d="M256 541c0,3 3,6 6,6 3,0 6,-3 6,-6 0,-4 -3,-6 -6,-6 -4,0 -6,3 -6,6zm1 0l0 0c0,-3 2,-5 5,-5 3,0 5,2 5,5 0,3 -3,5 -5,5 -3,0 -5,-3 -5,-5z"/>
   <path class="fil142" d="M256 541c0,3 2,6 6,6 3,0 6,-3 6,-6 0,-3 -3,-6 -6,-6 -4,0 -6,3 -6,6zm1 0l0 0c0,-3 2,-5 5,-5 3,0 5,2 5,5 0,3 -2,5 -5,5 -3,0 -5,-2 -5,-5z"/>
   <path class="fil143" d="M257 541c0,3 2,5 5,5 3,0 5,-3 5,-5 0,-3 -3,-5 -5,-5 -3,0 -5,2 -5,5zm1 0l0 0c0,-3 2,-4 4,-4 2,0 4,2 4,4 0,2 -2,4 -4,4 -3,0 -4,-2 -4,-4z"/>
   <path class="fil144" d="M257 541c0,3 2,5 5,5 3,0 5,-2 5,-5 0,-3 -2,-5 -5,-5 -3,0 -5,2 -5,5zm1 0l0 0c0,-2 2,-4 4,-4 2,0 4,2 4,4 0,2 -2,4 -4,4 -2,0 -4,-2 -4,-4z"/>
   <path class="fil145" d="M258 541c0,2 2,4 4,4 2,0 4,-2 4,-4 0,-3 -2,-4 -4,-4 -3,0 -4,2 -4,4zm1 0l0 0c0,-2 1,-3 3,-3 2,0 3,1 3,3 0,2 -2,3 -3,3 -2,0 -3,-2 -3,-3z"/>
   <path class="fil146" d="M258 541c0,2 2,4 4,4 2,0 4,-2 4,-4 0,-2 -2,-4 -4,-4 -2,0 -4,2 -4,4zm1 0l0 0c0,-2 1,-3 3,-3 1,0 3,1 3,3 0,1 -2,3 -3,3 -2,0 -3,-2 -3,-3z"/>
   <path class="fil147" d="M259 541c0,2 1,3 3,3 2,0 3,-2 3,-3 0,-2 -2,-3 -3,-3 -2,0 -3,1 -3,3zm1 0l0 0c0,-2 1,-2 2,-2 1,0 2,1 2,2 0,1 -1,2 -2,2 -2,0 -2,-1 -2,-2z"/>
   <path class="fil147" d="M259 541c0,1 1,3 3,3 1,0 3,-2 3,-3 0,-2 -2,-3 -3,-3 -2,0 -3,1 -3,3zm1 0l0 0c0,-1 1,-2 2,-2 1,0 2,0 2,2 0,1 -1,2 -2,2 -1,0 -2,-1 -2,-2z"/>
   <path class="fil148" d="M260 541c0,1 1,2 2,2 1,0 2,-1 2,-2 0,-2 -1,-2 -2,-2 -2,0 -2,1 -2,2zm1 0l0 0c0,-1 0,-1 1,-1 1,0 1,1 1,1 0,1 0,1 -1,1 -1,0 -1,-1 -1,-1z"/>
   <path class="fil149" d="M260 541c0,1 1,2 2,2 1,0 2,-1 2,-2 0,-1 -1,-2 -2,-2 -1,0 -2,0 -2,2z"/>
   <path class="fil58" d="M261 541c0,1 0,1 1,1 1,0 1,-1 1,-1 0,-1 0,-1 -1,-1 -1,0 -1,1 -1,1z"/>
   <path class="fil58" d="M261 541c0,0 0,1 0,1l1 -1c0,-1 -1,-1 -1,-1 0,0 0,0 0,1z"/>
   <path class="fil150" d="M162 502l0 80c0,3 3,5 5,5l33 0c7,0 11,-14 11,-17l0 -57c0,-5 -4,-16 -11,-16l-33 0c-3,0 -5,2 -5,5z"/>
   <path class="fil57" d="M261 551c1,1 2,1 3,1 8,0 14,-5 14,-11 0,-6 -6,-12 -14,-12 -1,0 -2,1 -3,1l0 22z"/>
   <path class="fil58" d="M192 573c-1,2 -2,3 -4,3 -2,-1 -3,-3 -2,-5 1,-4 8,-3 6,2z"/>
   <path class="fil151" d="M183 572c0,4 3,7 7,7 4,0 7,-3 7,-7 0,-4 -3,-7 -7,-7 -4,0 -7,3 -7,7zm1 0l0 0c0,-4 3,-6 6,-6 4,0 7,3 7,6 0,4 -3,6 -7,6 -3,0 -6,-3 -6,-6z"/>
   <path class="fil87" d="M183 572l0 0 0 0 0 0 0 0c0,4 3,7 7,7 4,0 7,-3 7,-7l0 0 0 0 0 0 0 0 0 0 0 0 0 0 0 0 0 0 0 0 0 0 0 0 0 0 0 0 0 0 0 0 0 0 0 0 0 0 0 0 0 0 0 0 0 0 0 0 0 0 0 0 0 0 0 0 0 0 0 0 0 0 0 0 0 0 0 0 0 0 0 0 0 0 0 0 0 0 0 0 0 0c0,0 0,-1 -1,-1l0 0c0,0 0,0 0,-1l0 0 0 0 0 0 0 0 0 0 0 0 0 0 0 0 0 0 0 0 0 0 0 0 0 0 0 0 0 0 0 0 0 0 0 0 0 0 0 0 0 0 0 0 0 0 0 0 0 0 0 0 0 0 0 0 0 0 0 0 0 0 0 0 0 0 0 0 0 0 0 0 0 0 0 0 0 0 0 0 0 0 0 0 0 0 0 0 0 0 0 0 0 0 0 0 0 0 0 0 0 0 0 0 0 0 0 0 0 0 0 0 0 0 0 0 0 0 0 0 0 0 0 0 0 0 0 0 0 0 0 0 0 0 0 0 0 0 0 0 0 0 0 0 0 0 0 0 0 0 0 0 0 0 0 0 0 0 0 0 0 0 0 0 0 0 0 0 0 0 0 0 0 0 0 0 0 1 0 0c0,0 0,0 0,1l0 0 0 0 0 0 0 0 0 0 0 0 0 0 0 0 0 0 0 0 0 0 0 0 0 0 0 0 0 0 0 0 0 0 0 0 0 0 0 0 0 0 0 0 0 0 0 0 0 0 0 0 0 0 0 0 0 0 0 0 0 0 0 0 0 0 0 0 0 0 0 0 0 0 0 0 0 0zm1 0l0 0c0,-3 3,-6 6,-6 4,0 6,3 6,6 0,3 -3,6 -6,6 -3,0 -6,-3 -6,-6z"/>
   <path class="fil152" d="M183 572c0,4 3,7 6,7l0 0 0 0 0 0 0 0 0 0 0 0 0 0 0 0c4,0 6,-3 6,-7 0,-4 -3,-6 -7,-6 -3,0 -6,3 -6,6zm1 0l0 0c0,-3 3,-5 5,-5 3,0 6,2 6,5 0,3 -3,5 -6,5 -3,0 -5,-2 -5,-5z"/>
   <path class="fil153" d="M184 572c0,3 3,6 6,6 4,0 6,-3 6,-6 0,-3 -3,-6 -6,-6 -3,0 -6,3 -6,6zm1 0l0 0c0,-3 2,-5 5,-5 3,0 5,2 5,5 0,3 -2,5 -5,5 -3,0 -5,-2 -5,-5z"/>
   <path class="fil104" d="M184 572c0,3 3,5 5,5 3,0 6,-2 6,-5 0,-3 -3,-5 -6,-5 -3,0 -5,2 -5,5zm1 0l0 0c0,-2 2,-4 4,-4 3,0 5,2 5,4 0,3 -2,4 -5,4 -2,0 -4,-2 -4,-4z"/>
   <path class="fil154" d="M185 572c0,3 2,5 5,5 3,0 5,-2 5,-5 0,-3 -2,-5 -5,-5 -3,0 -5,2 -5,5zm1 0l0 0c0,-2 2,-4 4,-4 2,0 4,2 4,4 0,2 -2,4 -4,4 -2,0 -4,-2 -4,-4z"/>
   <path class="fil155" d="M185 572c0,3 2,4 4,4 3,0 5,-2 5,-4 0,-2 -2,-4 -5,-4 -2,0 -4,2 -4,4zm1 0l0 0c0,-2 2,-3 3,-3 2,0 4,2 4,3 0,2 -2,3 -4,3 -2,0 -3,-1 -3,-3z"/>
   <path class="fil156" d="M186 572c0,2 2,4 4,4 2,0 4,-2 4,-4 0,-2 -2,-4 -4,-4 -2,0 -4,2 -4,4zm1 0l0 0c0,-2 2,-3 3,-3 1,0 3,1 3,3 0,2 -2,3 -3,3 -1,0 -3,-1 -3,-3z"/>
   <path class="fil157" d="M187 572c0,2 2,3 3,3 2,0 4,-1 4,-3 0,-2 -2,-3 -4,-3 -2,0 -3,2 -3,3zm1 0l0 0c0,-1 1,-2 2,-2 1,0 3,1 3,2 0,1 -1,2 -3,2 -1,0 -2,-1 -2,-2z"/>
   <path class="fil132" d="M187 572c0,2 2,3 3,3 1,0 3,-1 3,-3 0,-2 -2,-3 -3,-3 -1,0 -3,1 -3,3zm1 0l0 0c0,-1 1,-2 2,-2 1,0 1,1 1,2 0,1 0,2 -1,2 -1,0 -2,-1 -2,-2z"/>
   <path class="fil137" d="M187 572c0,1 1,2 2,2 1,0 3,-1 3,-2 0,-1 -1,-2 -3,-2 -1,0 -2,1 -2,2zm1 0l0 0c0,-1 0,-1 1,-1 1,0 1,1 1,1 0,1 0,1 -1,1 -1,0 -1,-1 -1,-1z"/>
   <path class="fil141" d="M188 572c0,1 1,2 2,2 1,0 1,-1 1,-2 0,-1 0,-2 -1,-2 -1,0 -2,1 -2,2z"/>
   <path class="fil146" d="M189 572c0,1 0,1 1,1 1,0 1,-1 1,-1 0,-1 0,-1 -1,-1 -1,0 -1,1 -1,1z"/>
   <path class="fil58" d="M189 572c0,1 1,1 1,1 1,0 1,0 1,-1 0,0 0,-1 -1,-1l-1 1z"/>
   <path class="fil69" d="M192 575c1,-1 2,-2 2,-4 0,-1 -1,-3 -2,-4 1,1 2,2 2,4 0,2 -1,3 -2,4z"/>
   <path class="fil158" d="M185 572c0,3 2,4 4,4 3,0 5,-2 5,-4 0,-2 -2,-4 -5,-4 -2,0 -4,2 -4,4zm1 0l0 0c0,-2 2,-4 4,-4 2,0 4,2 4,4 0,2 -2,4 -4,4 -2,0 -4,-2 -4,-4z"/>
   <path class="fil88" d="M185 572c0,3 2,4 4,4l0 0 0 0 0 0 0 0 0 0 0 0 0 0 0 0 0 0 0 0 0 0 0 0 0 0 0 0 0 0 0 0 0 0 0 0 0 0 0 0 0 0 0 0 0 0 0 0 0 0 0 0 0 0 0 0 0 0 0 0 0 0 0 0 0 0 0 0 0 0 0 0 0 0 0 0 0 0 0 0c1,-1 2,-2 2,-4 0,-1 -1,-3 -2,-4l0 0 0 0 0 0 0 0 0 0 0 0 0 0 0 0 0 0 0 0 0 0 0 0 0 0 0 0 0 0 0 0 0 0 0 0 0 0 0 0 0 0 0 0 0 0 0 0 0 0 0 0 0 0 0 0 0 0 0 0 0 0 0 0 0 0 0 0 0 0 0 0c-2,0 -4,2 -4,4zm1 0l0 0c0,-2 2,-3 3,-3 2,0 4,2 4,3 0,2 -2,3 -4,3 -2,0 -3,-1 -3,-3z"/>
   <path class="fil159" d="M186 572c0,2 2,4 4,4 2,0 4,-2 4,-4 0,-2 -2,-4 -4,-4 -2,0 -4,2 -4,4zm1 0l0 0c0,-2 2,-3 3,-3 1,0 3,1 3,3 0,2 -2,3 -3,3 -1,0 -3,-1 -3,-3z"/>
   <path class="fil106" d="M187 572c0,2 2,3 3,3 2,0 4,-1 4,-3 0,-2 -2,-3 -4,-3 -2,0 -3,2 -3,3zm1 0l0 0c0,-1 1,-2 2,-2 1,0 3,1 3,2 0,1 -1,2 -3,2 -1,0 -2,-1 -2,-2z"/>
   <path class="fil160" d="M187 572c0,2 2,3 3,3 1,0 3,-1 3,-3 0,-2 -2,-3 -3,-3 -1,0 -3,1 -3,3zm1 0l0 0c0,-1 1,-2 2,-2 1,0 2,1 2,2 0,1 -1,2 -2,2 -1,0 -2,-1 -2,-2z"/>
   <path class="fil161" d="M187 572c0,1 1,2 2,2 1,0 3,-1 3,-2 0,-1 -1,-2 -3,-2 -1,0 -2,1 -2,2zm1 0l0 0c0,-1 0,-1 1,-1 1,0 1,1 1,1 0,1 0,1 -1,1 -1,0 -1,-1 -1,-1z"/>
   <path class="fil162" d="M188 572c0,1 1,2 2,2 1,0 2,-1 2,-2 0,-1 -1,-2 -2,-2 -1,0 -2,1 -2,2z"/>
   <path class="fil163" d="M189 572c0,1 0,1 1,1 1,0 1,-1 1,-1 0,-1 0,-1 -1,-1 -1,0 -1,1 -1,1z"/>
   <path class="fil58" d="M189 572c0,1 1,1 1,1 1,0 1,0 1,-1 0,0 0,-1 -1,-1l-1 1z"/>
   <path class="fil58" d="M162 502l0 80c0,3 3,5 5,5l32 0c7,0 11,-14 11,-17l0 -57c0,-5 -4,-16 -11,-16l-32 0c-3,0 -5,2 -5,5z"/>
   <path class="fil59" d="M164 541c0,5 4,9 9,9 5,0 9,-4 9,-9 0,-5 -4,-9 -9,-9 -5,0 -9,4 -9,9zm1 0l0 0c0,-5 4,-8 8,-8 4,0 8,4 8,8 0,4 -4,8 -8,8 -4,0 -8,-4 -8,-8z"/>
   <path class="fil65" d="M165 541c0,4 4,8 8,8 5,0 8,-4 8,-8 0,-5 -4,-9 -8,-9 -5,0 -8,4 -8,9zm1 0l0 0c0,-4 3,-8 7,-8 4,0 7,4 7,8 0,4 -3,7 -7,7 -4,0 -7,-4 -7,-7z"/>
   <path class="fil71" d="M165 541c0,4 4,8 8,8 4,0 8,-4 8,-8 0,-5 -4,-8 -8,-8 -4,0 -8,4 -8,8zm1 0l0 0c0,-4 3,-7 7,-7 4,0 7,3 7,7 0,4 -3,7 -7,7 -4,0 -7,-3 -7,-7z"/>
   <path class="fil77" d="M166 541c0,4 3,7 7,7 4,0 7,-4 7,-7 0,-4 -3,-8 -7,-8 -4,0 -7,4 -7,8zm1 0l0 0c0,-4 3,-7 6,-7 4,0 6,3 6,7 0,3 -3,6 -6,6 -4,0 -6,-3 -6,-6z"/>
   <path class="fil83" d="M166 541c0,4 3,7 7,7 4,0 7,-3 7,-7 0,-4 -3,-7 -7,-7 -4,0 -7,3 -7,7zm1 0l0 0c0,-4 3,-6 6,-6 3,0 6,3 6,6 0,3 -3,6 -6,6 -3,0 -6,-3 -6,-6z"/>
   <path class="fil89" d="M167 541c0,3 3,6 6,6 4,0 6,-3 6,-6 0,-4 -3,-7 -6,-7 -4,0 -6,3 -6,7zm1 0l0 0c0,-3 2,-6 5,-6 3,0 5,3 5,6 0,3 -2,5 -5,5 -3,0 -5,-3 -5,-5z"/>
   <path class="fil94" d="M167 541c0,3 3,6 6,6 3,0 6,-3 6,-6 0,-4 -3,-6 -6,-6 -3,0 -6,3 -6,6zm1 0l0 0c0,-3 2,-5 5,-5 3,0 5,3 5,5 0,3 -2,5 -5,5 -3,0 -5,-2 -5,-5z"/>
   <path class="fil100" d="M168 541c0,3 2,5 5,5 3,0 5,-3 5,-5 0,-3 -2,-6 -5,-6 -3,0 -5,3 -5,6zm1 0l0 0c0,-3 2,-5 4,-5 2,0 4,2 4,5 0,2 -2,4 -4,4 -2,0 -4,-2 -4,-4z"/>
   <path class="fil106" d="M168 541c0,3 2,5 5,5 3,0 5,-2 5,-5 0,-3 -2,-5 -5,-5 -3,0 -5,3 -5,5zm1 0l0 0c0,-2 2,-4 4,-4 2,0 4,2 4,4 0,2 -2,4 -4,4 -2,0 -4,-2 -4,-4z"/>
   <path class="fil112" d="M169 541c0,2 2,4 4,4 2,0 4,-2 4,-4 0,-3 -2,-5 -4,-5 -2,0 -4,2 -4,5zm1 0l0 0c0,-2 2,-4 3,-4 2,0 3,2 3,4 0,2 -2,3 -3,3 -2,0 -3,-2 -3,-3z"/>
   <path class="fil118" d="M170 541c0,2 2,4 4,4 2,0 4,-2 4,-4 0,-2 -2,-4 -4,-4 -2,0 -4,2 -4,4zm1 0l0 0c0,-2 1,-3 3,-3 2,0 3,2 3,3 0,1 -1,3 -3,3 -2,0 -3,-2 -3,-3z"/>
   <path class="fil124" d="M170 541c0,2 2,3 3,3 2,0 3,-2 3,-3 0,-2 -2,-4 -3,-4 -2,0 -3,2 -3,4zm1 0l0 0c0,-2 1,-3 2,-3 1,0 2,1 2,3 0,1 -1,2 -2,2 -1,0 -2,-1 -2,-2z"/>
   <path class="fil130" d="M171 541c0,1 1,3 3,3 2,0 3,-2 3,-3 0,-2 -1,-3 -3,-3 -2,0 -3,2 -3,3zm1 0l0 0c0,-1 1,-2 2,-2 1,0 2,1 2,2 0,1 0,2 -2,2 -1,0 -2,-1 -2,-2z"/>
   <path class="fil136" d="M171 541c0,1 1,2 2,2 1,0 2,-1 2,-2 0,-2 -1,-3 -2,-3 -1,0 -2,1 -2,3zm1 0l0 0c0,-1 0,-1 1,-1 1,0 1,0 1,1 0,1 -1,1 -1,1 -1,0 -1,-1 -1,-1z"/>
   <path class="fil141" d="M172 541c0,1 1,2 2,2 1,0 2,-1 2,-2 0,-1 0,-2 -2,-2 -1,0 -2,1 -2,2z"/>
   <path class="fil146" d="M172 541c0,1 0,1 1,1 1,0 1,-1 1,-1 0,-1 -1,-1 -1,-1 -1,0 -1,0 -1,1z"/>
   <path class="fil58" d="M173 541c0,0 0,1 1,1 1,0 1,-1 1,-1 0,-1 0,-1 -1,-1 -1,0 -1,0 -1,1z"/>
   <path class="fil59" d="M167 541c0,3 3,5 6,5 3,0 6,-3 6,-5 0,-3 -3,-6 -6,-6 -3,0 -6,3 -6,6zm2 0l0 0c0,-3 2,-5 4,-5 3,0 5,2 5,5 0,2 -2,4 -5,4 -3,0 -4,-2 -4,-4z"/>
   <path class="fil164" d="M168 541c0,3 3,5 5,5 3,0 5,-2 5,-5 0,-3 -3,-5 -5,-5 -3,0 -5,2 -5,5zm2 0l0 0c0,-3 2,-4 4,-4 2,0 4,2 4,4 0,2 -2,4 -4,4 -2,0 -4,-2 -4,-4z"/>
   <path class="fil81" d="M169 541c0,2 2,4 4,4 3,0 5,-2 5,-4 0,-3 -2,-5 -5,-5 -3,0 -4,2 -4,5zm1 0l0 0c0,-2 2,-4 3,-4 2,0 3,2 3,4 0,2 -1,3 -3,3 -2,0 -3,-2 -3,-3z"/>
   <path class="fil91" d="M170 541c0,2 2,4 4,4 2,0 4,-2 4,-4 0,-3 -2,-4 -4,-4 -2,0 -4,2 -4,4zm1 0l0 0c0,-2 1,-3 3,-3 2,0 3,2 3,3 0,1 -1,3 -3,3 -2,0 -3,-2 -3,-3z"/>
   <path class="fil165" d="M170 541c0,2 2,3 3,3 2,0 3,-2 3,-3 0,-2 -1,-4 -3,-4 -2,0 -3,2 -3,4zm1 0l0 0c0,-2 1,-3 2,-3 1,0 2,1 2,3 0,1 -1,2 -2,2 -1,0 -2,-1 -2,-2z"/>
   <path class="fil166" d="M171 541c0,1 1,3 3,3 2,0 3,-2 3,-3 0,-2 -1,-3 -3,-3 -2,0 -3,2 -3,3zm1 0l0 0c0,-1 1,-2 2,-2 1,0 2,1 2,2 0,1 0,2 -2,2 -1,0 -2,-1 -2,-2z"/>
   <path class="fil122" d="M171 541c0,1 1,2 2,2 1,0 2,-1 2,-2 0,-2 -1,-3 -2,-3 -1,0 -2,1 -2,3zm1 0l0 0c0,-1 0,-2 1,-2 1,0 1,1 1,2 0,1 -1,1 -1,1 -1,0 -1,-1 -1,-1z"/>
   <path class="fil132" d="M172 541c0,1 1,2 2,2 1,0 2,-1 2,-2 0,-1 0,-2 -2,-2 -1,0 -2,1 -2,2z"/>
   <path class="fil167" d="M172 541c0,1 0,1 1,1 1,0 1,-1 1,-1 0,-1 -1,-2 -1,-2 -1,0 -1,1 -1,2z"/>
   <path class="fil58" d="M173 541c0,0 0,1 1,1 1,0 1,-1 1,-1 0,-1 0,-1 -1,-1 -1,0 -1,1 -1,1z"/>
   <path class="fil57" d="M177 315c0,-38 -28,-69 -62,-69 -34,0 -62,31 -62,69 0,38 28,69 62,69 34,0 62,-31 62,-69z"/>
   <path class="fil57" d="M133 317c-2,3 -4,4 -7,3 -2,-1 -4,-3 -3,-6 2,-5 11,-3 10,3z"/>
   <path class="fil57" d="M170 315c0,-27 -20,-49 -44,-49 -25,0 -45,22 -45,49 0,27 20,49 45,49 24,0 44,-22 44,-49z"/>
   <path class="fil57" d="M136 315c0,-3 -3,-5 -6,-5 -4,0 -6,2 -6,5 0,3 2,6 6,6 3,0 6,-3 6,-6z"/>
   <path class="fil57" d="M70 317c-1,3 -3,4 -6,3 -2,-1 -4,-3 -3,-6 2,-5 11,-3 9,3z"/>
   <path class="fil57" d="M76 315c0,-5 -4,-9 -10,-9 -5,0 -10,4 -10,9 0,5 4,9 10,9 5,0 10,-4 10,-9z"/>
   <path class="fil57" d="M72 315c0,-3 -2,-5 -6,-5 -3,0 -6,2 -6,5 0,3 3,6 6,6 4,0 6,-3 6,-6z"/>
   <path class="fil58" d="M177 315c0,-38 -26,-69 -59,-69 -33,0 -59,31 -59,69 0,38 26,69 59,69 33,0 59,-31 59,-69z"/>
   <path class="fil58" d="M136 317c-1,3 -3,4 -6,3 -1,-1 -4,-3 -2,-6 1,-5 11,-3 8,3z"/>
   <path class="fil59" d="M64 315c0,36 29,65 65,65 36,0 65,-29 65,-65 0,-36 -29,-65 -65,-65 -36,0 -65,29 -65,65zm2 0l0 0c0,-35 28,-63 63,-63 35,0 63,28 63,63 0,35 -28,63 -63,63 -35,0 -63,-28 -63,-63z"/>
   <path class="fil60" d="M65 315c0,36 28,64 64,64 35,0 64,-28 64,-64 0,-35 -29,-64 -64,-64 -36,0 -64,29 -64,64zm1 0l0 0c0,-34 28,-62 62,-62 34,0 63,28 63,62 0,35 -28,62 -63,62 -34,0 -62,-28 -62,-62z"/>
   <path class="fil61" d="M66 315c0,35 28,63 63,63 35,0 63,-28 63,-63 0,-35 -28,-63 -63,-63 -35,0 -63,28 -63,63zm1 0l0 0c0,-34 27,-62 62,-62 34,0 62,28 62,62 0,34 -28,62 -62,62 -34,0 -62,-27 -62,-62z"/>
   <path class="fil168" d="M67 315c0,35 28,62 62,62 34,0 63,-28 63,-62 0,-34 -28,-62 -63,-62 -34,0 -62,28 -62,62zm1 0l0 0c0,-33 27,-61 61,-61 33,0 61,27 61,61 0,33 -28,61 -61,61 -33,0 -61,-28 -61,-61z"/>
   <path class="fil169" d="M67 315c0,34 27,62 62,62 34,0 62,-27 62,-62 0,-34 -28,-62 -62,-62 -34,0 -62,28 -62,62zm1 0l0 0c0,-33 27,-60 60,-60 33,0 60,27 60,60 0,33 -27,60 -60,60 -33,0 -60,-27 -60,-60z"/>
   <path class="fil64" d="M68 315c0,33 27,61 61,61 33,0 61,-28 61,-61 0,-33 -28,-61 -61,-61 -33,0 -61,27 -61,61zm1 0l0 0c0,-33 27,-59 59,-59 33,0 59,27 59,59 0,33 -27,59 -59,59 -33,0 -59,-27 -59,-59z"/>
   <path class="fil170" d="M69 315c0,33 27,60 60,60 33,0 60,-27 60,-60 0,-33 -27,-60 -60,-60 -33,0 -60,27 -60,60zm1 0l0 0c0,-32 26,-59 59,-59 33,0 59,27 59,59 0,33 -26,59 -59,59 -33,0 -59,-26 -59,-59z"/>
   <path class="fil67" d="M70 315c0,33 27,59 59,59 33,0 59,-27 59,-59 0,-33 -27,-59 -59,-59 -33,0 -59,27 -59,59zm1 0l0 0c0,-32 26,-58 58,-58 32,0 58,26 58,58 0,32 -26,58 -58,58 -32,0 -58,-26 -58,-58z"/>
   <path class="fil171" d="M70 315c0,33 26,59 59,59 33,0 59,-26 59,-59 0,-32 -26,-59 -59,-59 -33,0 -59,27 -59,59zm1 0l0 0c0,-31 25,-57 57,-57 31,0 57,26 57,57 0,32 -26,57 -57,57 -32,0 -57,-25 -57,-57z"/>
   <path class="fil69" d="M71 315c0,32 26,58 58,58 32,0 58,-26 58,-58 0,-32 -26,-58 -58,-58 -32,0 -58,26 -58,58zm2 0l0 0c0,-31 25,-57 56,-57 31,0 57,25 57,57 0,31 -25,57 -57,57 -31,0 -56,-25 -56,-57z"/>
   <path class="fil70" d="M72 315c0,32 25,57 57,57 31,0 57,-25 57,-57 0,-31 -26,-57 -57,-57 -32,0 -57,26 -57,57zm1 0l0 0c0,-30 25,-56 56,-56 31,0 56,25 56,56 0,31 -25,56 -56,56 -30,0 -56,-25 -56,-56z"/>
   <path class="fil172" d="M72 315c0,31 25,57 56,57 31,0 57,-25 57,-57 0,-31 -25,-57 -57,-57 -31,0 -56,25 -56,57zm1 0l0 0c0,-30 25,-55 55,-55 31,0 55,25 55,55 0,30 -24,55 -55,55 -30,0 -55,-25 -55,-55z"/>
   <path class="fil173" d="M73 315c0,31 25,56 56,56 31,0 56,-25 56,-56 0,-30 -25,-56 -56,-56 -30,0 -56,25 -56,56zm2 0l0 0c0,-30 24,-54 54,-54 30,0 54,25 54,54 0,30 -24,54 -54,54 -30,0 -54,-25 -54,-54z"/>
   <path class="fil73" d="M74 315c0,30 25,55 55,55 31,0 55,-25 55,-55 0,-30 -24,-55 -55,-55 -30,0 -55,25 -55,55zm1 0l0 0c0,-30 24,-54 53,-54 30,0 54,24 54,54 0,30 -24,54 -54,54 -30,0 -53,-24 -53,-54z"/>
   <path class="fil75" d="M75 315c0,30 24,54 54,54 30,0 54,-25 54,-54 0,-30 -24,-54 -54,-54 -30,0 -54,25 -54,54zm1 0l0 0c0,-29 24,-53 53,-53 29,0 53,24 53,53 0,29 -24,53 -53,53 -29,0 -53,-24 -53,-53z"/>
   <path class="fil76" d="M75 315c0,30 24,54 53,54 30,0 54,-24 54,-54 0,-30 -24,-54 -54,-54 -30,0 -53,24 -53,54zm2 0l0 0c0,-28 23,-52 52,-52 29,0 52,24 52,52 0,29 -23,52 -52,52 -29,0 -52,-23 -52,-52z"/>
   <path class="fil174" d="M76 315c0,29 24,53 53,53 29,0 53,-24 53,-53 0,-29 -24,-53 -53,-53 -29,0 -53,24 -53,53zm1 0l0 0c0,-28 23,-51 51,-51 28,0 51,23 51,51 0,28 -23,51 -51,51 -28,0 -51,-23 -51,-51z"/>
   <path class="fil78" d="M77 315c0,29 23,52 52,52 29,0 52,-23 52,-52 0,-28 -23,-52 -52,-52 -29,0 -52,24 -52,52zm2 0l0 0c0,-28 22,-50 50,-50 28,0 51,23 51,50 0,28 -23,50 -51,50 -28,0 -50,-22 -50,-50z"/>
   <path class="fil79" d="M78 315c0,28 23,51 51,51 28,0 51,-23 51,-51 0,-28 -23,-51 -51,-51 -28,0 -51,23 -51,51zm1 0l0 0c0,-28 22,-50 50,-50 28,0 50,22 50,50 0,27 -22,50 -50,50 -27,0 -50,-22 -50,-50z"/>
   <path class="fil81" d="M78 315c0,28 22,50 50,50 28,0 51,-22 51,-50 0,-28 -23,-50 -51,-50 -28,0 -50,23 -50,50zm1 0l0 0c0,-27 22,-49 49,-49 27,0 49,22 49,49 0,27 -22,49 -49,49 -27,0 -49,-22 -49,-49z"/>
   <path class="fil82" d="M79 315c0,27 22,50 50,50 28,0 50,-22 50,-50 0,-28 -22,-50 -50,-50 -27,0 -50,22 -50,50zm1 0l0 0c0,-27 22,-48 48,-48 27,0 48,22 48,48 0,27 -21,48 -48,48 -27,0 -48,-22 -48,-48z"/>
   <path class="fil175" d="M80 315c0,27 22,49 49,49 27,0 49,-22 49,-49 0,-27 -22,-49 -49,-49 -27,0 -49,22 -49,49zm1 0l0 0c0,-26 22,-48 48,-48 26,0 48,22 48,48 0,27 -21,48 -48,48 -26,0 -48,-21 -48,-48z"/>
   <path class="fil176" d="M81 315c0,27 22,48 48,48 27,0 48,-22 48,-48 0,-27 -21,-48 -48,-48 -27,0 -48,22 -48,48zm2 0l0 0c0,-26 21,-47 47,-47 26,0 47,21 47,47 0,26 -21,47 -47,47 -26,0 -47,-21 -47,-47z"/>
   <path class="fil85" d="M81 315c0,27 22,48 48,48 26,0 48,-21 48,-48 0,-26 -21,-48 -48,-48 -26,0 -48,22 -48,48zm1 0l0 0c0,-25 21,-46 46,-46 25,0 46,21 46,46 0,25 -21,46 -46,46 -25,0 -46,-21 -46,-46z"/>
   <path class="fil86" d="M82 315c0,26 21,47 47,47 26,0 47,-21 47,-47 0,-26 -21,-47 -47,-47 -26,0 -47,21 -47,47zm1 0l0 0c0,-24 20,-45 45,-45 25,0 45,21 45,45 0,25 -20,45 -45,45 -25,0 -45,-20 -45,-45z"/>
   <path class="fil177" d="M83 315c0,25 21,46 46,46 25,0 46,-21 46,-46 0,-25 -21,-46 -46,-46 -25,0 -46,21 -46,46zm2 0l0 0c0,-24 20,-45 45,-45 25,0 45,20 45,45 0,25 -20,45 -45,45 -24,0 -45,-20 -45,-45z"/>
   <path class="fil88" d="M84 315c0,25 20,45 45,45 25,0 45,-20 45,-45 0,-24 -20,-45 -45,-45 -25,0 -45,21 -45,45zm1 0l0 0c0,-24 19,-44 44,-44 24,0 44,20 44,44 0,25 -20,44 -44,44 -24,0 -44,-19 -44,-44z"/>
   <path class="fil89" d="M84 315c0,25 20,45 45,45 25,0 45,-20 45,-45 0,-24 -20,-45 -45,-45 -24,0 -45,20 -45,45zm2 0l0 0c0,-24 19,-43 43,-43 24,0 43,19 43,43 0,24 -19,43 -43,43 -24,0 -43,-19 -43,-43z"/>
   <path class="fil90" d="M85 315c0,25 19,44 44,44 24,0 44,-19 44,-44 0,-24 -20,-44 -44,-44 -24,0 -44,20 -44,44zm2 0l0 0c0,-23 18,-42 42,-42 23,0 42,19 42,42 0,24 -19,42 -42,42 -24,0 -42,-19 -42,-42z"/>
   <path class="fil91" d="M86 315c0,24 19,43 43,43 24,0 43,-19 43,-43 0,-24 -19,-43 -43,-43 -24,0 -43,19 -43,43zm2 0l0 0c0,-23 19,-42 41,-42 23,0 42,19 42,42 0,23 -19,42 -42,42 -23,0 -41,-19 -41,-42z"/>
   <path class="fil178" d="M87 315c0,24 18,42 42,42 23,0 42,-19 42,-42 0,-23 -19,-42 -42,-42 -24,0 -42,19 -42,42zm1 0l0 0c0,-22 19,-41 41,-41 22,0 41,19 41,41 0,23 -19,41 -41,41 -22,0 -41,-18 -41,-41z"/>
   <path class="fil179" d="M87 315c0,23 19,42 41,42 23,0 42,-19 42,-42 0,-23 -19,-42 -42,-42 -23,0 -41,19 -41,42zm1 0l0 0c0,-22 18,-40 40,-40 22,0 40,18 40,40 0,22 -18,40 -40,40 -22,0 -40,-18 -40,-40z"/>
   <path class="fil94" d="M88 315c0,23 19,41 41,41 22,0 41,-18 41,-41 0,-22 -19,-41 -41,-41 -22,0 -41,19 -41,41zm1 0l0 0c0,-22 18,-39 39,-39 22,0 39,18 39,39 0,22 -18,39 -39,39 -21,0 -39,-18 -39,-39z"/>
   <path class="fil95" d="M89 315c0,22 18,40 40,40 22,0 40,-18 40,-40 0,-22 -18,-40 -40,-40 -22,0 -40,18 -40,40zm1 0l0 0c0,-22 17,-39 39,-39 22,0 39,17 39,39 0,22 -17,39 -39,39 -21,0 -39,-17 -39,-39z"/>
   <path class="fil96" d="M90 315c0,22 18,39 39,39 22,0 39,-18 39,-39 0,-22 -18,-39 -39,-39 -21,0 -39,18 -39,39zm1 0l0 0c0,-21 17,-38 38,-38 21,0 38,17 38,38 0,21 -17,38 -38,38 -21,0 -38,-17 -38,-38z"/>
   <path class="fil153" d="M90 315c0,22 17,39 39,39 22,0 39,-17 39,-39 0,-22 -17,-39 -39,-39 -21,0 -39,17 -39,39zm1 0l0 0c0,-20 16,-37 37,-37 21,0 37,17 37,37 0,21 -16,37 -37,37 -21,0 -37,-16 -37,-37z"/>
   <path class="fil180" d="M91 315c0,21 17,38 38,38 21,0 38,-17 38,-38 0,-21 -17,-38 -38,-38 -21,0 -38,17 -38,38zm2 0l0 0c0,-20 16,-36 36,-36 20,0 36,16 36,36 0,20 -16,36 -36,36 -20,0 -36,-16 -36,-36z"/>
   <path class="fil99" d="M92 315c0,21 16,37 37,37 21,0 37,-16 37,-37 0,-20 -16,-37 -37,-37 -21,0 -37,17 -37,37zm1 0l0 0c0,-19 16,-36 36,-36 19,0 36,16 36,36 0,20 -16,36 -36,36 -20,0 -36,-16 -36,-36z"/>
   <path class="fil181" d="M93 315c0,20 16,36 36,36 20,0 36,-16 36,-36 0,-20 -16,-36 -36,-36 -20,0 -36,16 -36,36zm1 0l0 0c0,-19 16,-35 35,-35 19,0 35,16 35,35 0,19 -16,35 -35,35 -19,0 -35,-16 -35,-35z"/>
   <path class="fil182" d="M93 315c0,20 16,36 36,36 19,0 36,-16 36,-36 0,-19 -16,-36 -36,-36 -20,0 -36,16 -36,36zm1 0l0 0c0,-19 16,-34 34,-34 19,0 34,16 34,34 0,19 -16,34 -34,34 -19,0 -34,-15 -34,-34z"/>
   <path class="fil103" d="M94 315c0,19 16,35 35,35 19,0 35,-16 35,-35 0,-19 -16,-35 -35,-35 -19,0 -35,16 -35,35zm2 0l0 0c0,-19 15,-33 33,-33 19,0 33,15 33,33 0,19 -15,33 -33,33 -19,0 -33,-15 -33,-33z"/>
   <path class="fil103" d="M95 315c0,19 16,34 34,34 19,0 34,-15 34,-34 0,-19 -16,-34 -34,-34 -19,0 -34,16 -34,34zm2 0l0 0c0,-18 15,-33 33,-33 18,0 33,15 33,33 0,18 -15,33 -33,33 -18,0 -33,-15 -33,-33z"/>
   <path class="fil105" d="M96 315c0,19 15,33 33,33 19,0 33,-15 33,-33 0,-19 -15,-33 -33,-33 -19,0 -33,15 -33,33zm2 0l0 0c0,-18 14,-32 32,-32 18,0 32,14 32,32 0,18 -14,32 -32,32 -18,0 -32,-14 -32,-32z"/>
   <path class="fil106" d="M96 315c0,18 15,33 33,33 18,0 33,-15 33,-33 0,-18 -15,-33 -33,-33 -18,0 -33,15 -33,33zm1 0l0 0c0,-17 14,-31 31,-31 17,0 31,14 31,31 0,17 -14,31 -31,31 -17,0 -31,-14 -31,-31z"/>
   <path class="fil107" d="M97 315c0,18 14,32 32,32 18,0 32,-14 32,-32 0,-18 -14,-32 -32,-32 -18,0 -32,14 -32,32zm1 0l0 0c0,-16 13,-30 30,-30 17,0 31,14 31,30 0,17 -13,30 -31,30 -17,0 -30,-13 -30,-30z"/>
   <path class="fil183" d="M98 315c0,17 14,31 31,31 17,0 31,-14 31,-31 0,-17 -14,-31 -31,-31 -17,0 -31,14 -31,31zm1 0l0 0c0,-16 13,-30 30,-30 16,0 30,13 30,30 0,16 -13,30 -30,30 -16,0 -30,-13 -30,-30z"/>
   <path class="fil184" d="M98 315c0,17 13,30 30,30 17,0 31,-13 31,-30 0,-16 -13,-30 -31,-30 -17,0 -30,14 -30,30zm1 0l0 0c0,-16 13,-29 29,-29 16,0 29,13 29,29 0,16 -13,29 -29,29 -16,0 -29,-13 -29,-29z"/>
   <path class="fil185" d="M99 315c0,16 13,30 30,30 16,0 30,-13 30,-30 0,-16 -13,-30 -30,-30 -16,0 -30,13 -30,30zm2 0l0 0c0,-16 13,-28 28,-28 16,0 28,13 28,28 0,16 -13,28 -28,28 -16,0 -28,-13 -28,-28z"/>
   <path class="fil186" d="M100 315c0,16 13,29 29,29 16,0 29,-13 29,-29 0,-16 -13,-29 -29,-29 -16,0 -29,13 -29,29zm1 0l0 0c0,-15 12,-28 27,-28 15,0 28,13 28,28 0,16 -13,27 -28,27 -16,0 -27,-12 -27,-27z"/>
   <path class="fil113" d="M101 315c0,16 13,28 28,28 16,0 28,-13 28,-28 0,-16 -13,-28 -28,-28 -16,0 -28,13 -28,28zm1 0l0 0c0,-15 12,-27 27,-27 15,0 27,12 27,27 0,15 -12,27 -27,27 -15,0 -27,-12 -27,-27z"/>
   <path class="fil114" d="M101 315c0,16 12,27 27,27 15,0 28,-12 28,-27 0,-15 -13,-28 -28,-28 -16,0 -27,13 -27,28zm1 0l0 0c0,-14 12,-26 26,-26 14,0 26,12 26,26 0,15 -12,26 -26,26 -14,0 -26,-11 -26,-26z"/>
   <path class="fil114" d="M102 315c0,15 12,27 27,27 15,0 27,-12 27,-27 0,-15 -12,-27 -27,-27 -15,0 -27,12 -27,27zm2 0l0 0c0,-14 11,-25 25,-25 14,0 25,11 25,25 0,14 -11,25 -25,25 -14,0 -25,-11 -25,-25z"/>
   <path class="fil116" d="M103 315c0,15 12,26 26,26 14,0 26,-11 26,-26 0,-14 -12,-26 -26,-26 -14,0 -26,12 -26,26zm2 0l0 0c0,-13 11,-24 24,-24 13,0 25,11 25,24 0,13 -11,25 -25,25 -13,0 -24,-11 -24,-25z"/>
   <path class="fil187" d="M104 315c0,14 11,25 25,25 14,0 25,-11 25,-25 0,-14 -11,-25 -25,-25 -14,0 -25,11 -25,25zm1 0l0 0c0,-13 11,-24 24,-24 13,0 24,11 24,24 0,13 -10,24 -24,24 -13,0 -24,-10 -24,-24z"/>
   <path class="fil188" d="M104 315c0,13 11,25 24,25 13,0 25,-11 25,-25 0,-13 -11,-24 -25,-24 -13,0 -24,11 -24,24zm1 0l0 0c0,-13 10,-23 23,-23 13,0 23,10 23,23 0,13 -10,23 -23,23 -13,0 -23,-10 -23,-23z"/>
   <path class="fil189" d="M105 315c0,13 11,24 24,24 13,0 24,-10 24,-24 0,-13 -10,-24 -24,-24 -13,0 -24,11 -24,24zm2 0l0 0c0,-12 10,-22 22,-22 12,0 22,10 22,22 0,13 -10,22 -22,22 -13,0 -22,-10 -22,-22z"/>
   <path class="fil190" d="M106 315c0,13 10,23 23,23 13,0 23,-10 23,-23 0,-13 -10,-23 -23,-23 -13,0 -23,10 -23,23zm1 0l0 0c0,-12 10,-22 21,-22 12,0 22,10 22,22 0,12 -10,22 -22,22 -12,0 -21,-10 -21,-22z"/>
   <path class="fil191" d="M107 315c0,13 10,22 22,22 12,0 22,-10 22,-22 0,-12 -10,-22 -22,-22 -13,0 -22,10 -22,22zm1 0l0 0c0,-11 9,-21 21,-21 11,0 21,10 21,21 0,12 -10,21 -21,21 -12,0 -21,-9 -21,-21z"/>
   <path class="fil192" d="M107 315c0,12 10,22 21,22 12,0 22,-10 22,-22 0,-12 -10,-22 -22,-22 -12,0 -21,10 -21,22zm1 0l0 0c0,-11 9,-20 20,-20 11,0 20,9 20,20 0,11 -9,20 -20,20 -11,0 -20,-9 -20,-20z"/>
   <path class="fil193" d="M108 315c0,12 9,21 21,21 11,0 21,-9 21,-21 0,-11 -10,-21 -21,-21 -12,0 -21,10 -21,21zm2 0l0 0c0,-10 9,-19 19,-19 10,0 19,9 19,19 0,11 -9,19 -19,19 -10,0 -19,-8 -19,-19z"/>
   <path class="fil125" d="M109 315c0,11 9,20 20,20 11,0 20,-9 20,-20 0,-11 -9,-20 -20,-20 -11,0 -20,9 -20,20zm2 0l0 0c0,-10 8,-19 19,-19 10,0 19,8 19,19 0,10 -8,19 -19,19 -10,0 -19,-8 -19,-19z"/>
   <path class="fil194" d="M110 315c0,11 9,19 19,19 10,0 19,-8 19,-19 0,-10 -9,-19 -19,-19 -10,0 -19,9 -19,19zm1 0l0 0c0,-10 8,-18 18,-18 10,0 18,8 18,18 0,10 -8,18 -18,18 -10,0 -18,-8 -18,-18z"/>
   <path class="fil128" d="M110 315c0,10 8,19 19,19 10,0 19,-8 19,-19 0,-10 -8,-19 -19,-19 -10,0 -19,8 -19,19zm1 0l0 0c0,-10 7,-17 17,-17 10,0 17,7 17,17 0,10 -7,17 -17,17 -10,0 -17,-7 -17,-17z"/>
   <path class="fil128" d="M111 315c0,10 8,18 18,18 10,0 18,-8 18,-18 0,-10 -8,-18 -18,-18 -10,0 -18,8 -18,18zm2 0l0 0c0,-9 7,-16 16,-16 9,0 16,7 16,16 0,9 -7,16 -16,16 -9,0 -16,-7 -16,-16z"/>
   <path class="fil195" d="M112 315c0,10 7,17 17,17 10,0 17,-7 17,-17 0,-10 -7,-17 -17,-17 -10,0 -17,7 -17,17zm2 0l0 0c0,-8 7,-16 16,-16 8,0 16,7 16,16 0,9 -7,16 -16,16 -9,0 -16,-7 -16,-16z"/>
   <path class="fil196" d="M113 315c0,9 7,16 16,16 9,0 16,-7 16,-16 0,-9 -7,-16 -16,-16 -9,0 -16,7 -16,16zm1 0l0 0c0,-8 7,-15 15,-15 8,0 15,7 15,15 0,8 -7,15 -15,15 -8,0 -15,-7 -15,-15z"/>
   <path class="fil132" d="M113 315c0,9 7,16 16,16 8,0 16,-7 16,-16 0,-8 -7,-16 -16,-16 -9,0 -16,7 -16,16zm1 0l0 0c0,-7 6,-14 14,-14 8,0 14,7 14,14 0,8 -7,14 -14,14 -8,0 -14,-6 -14,-14z"/>
   <path class="fil132" d="M114 315c0,8 7,15 15,15 8,0 15,-7 15,-15 0,-8 -7,-15 -15,-15 -8,0 -15,7 -15,15zm1 0l0 0c0,-7 6,-13 13,-13 8,0 13,6 13,13 0,7 -6,13 -13,13 -7,0 -13,-6 -13,-13z"/>
   <path class="fil134" d="M115 315c0,8 6,14 14,14 8,0 14,-6 14,-14 0,-7 -7,-14 -14,-14 -8,0 -14,7 -14,14zm2 0l0 0c0,-7 6,-13 13,-13 7,0 13,6 13,13 0,7 -6,13 -13,13 -7,0 -13,-5 -13,-13z"/>
   <path class="fil135" d="M116 315c0,7 6,13 13,13 8,0 13,-6 13,-13 0,-7 -6,-13 -13,-13 -7,0 -13,6 -13,13zm1 0l0 0c0,-7 5,-12 12,-12 7,0 12,5 12,12 0,7 -5,12 -12,12 -7,0 -12,-5 -12,-12z"/>
   <path class="fil197" d="M116 315c0,7 6,13 13,13 7,0 13,-5 13,-13 0,-7 -6,-13 -13,-13 -7,0 -13,6 -13,13zm2 0l0 0c0,-6 5,-11 11,-11 6,0 11,5 11,11 0,6 -5,11 -11,11 -6,0 -11,-5 -11,-11z"/>
   <path class="fil137" d="M117 315c0,7 5,12 12,12 7,0 12,-5 12,-12 0,-7 -5,-12 -12,-12 -7,0 -12,5 -12,12zm1 0l0 0c0,-6 4,-10 10,-10 6,0 10,4 10,10 0,6 -4,10 -10,10 -6,0 -10,-4 -10,-10z"/>
   <path class="fil138" d="M118 315c0,6 5,11 11,11 6,0 11,-5 11,-11 0,-6 -5,-11 -11,-11 -6,0 -11,5 -11,11zm1 0l0 0c0,-5 4,-10 10,-10 5,0 10,4 10,10 0,5 -5,10 -10,10 -5,0 -10,-4 -10,-10z"/>
   <path class="fil139" d="M118 315c0,6 4,10 10,10 6,0 10,-4 10,-10 0,-6 -4,-10 -10,-10 -6,0 -10,4 -10,10zm2 0l0 0c0,-4 4,-9 9,-9 5,0 9,4 9,9 0,5 -4,9 -9,9 -5,0 -9,-4 -9,-9z"/>
   <path class="fil140" d="M119 315c0,5 4,10 10,10 5,0 10,-4 10,-10 0,-5 -5,-10 -10,-10 -5,0 -10,4 -10,10zm2 0l0 0c0,-4 4,-8 8,-8 5,0 8,4 8,8 0,4 -4,8 -8,8 -4,0 -8,-4 -8,-8z"/>
   <path class="fil198" d="M120 315c0,5 4,9 9,9 5,0 9,-4 9,-9 0,-4 -4,-9 -9,-9 -5,0 -9,4 -9,9zm1 0l0 0c0,-4 3,-7 7,-7 4,0 8,4 8,7 0,4 -4,7 -8,7 -4,0 -7,-3 -7,-7z"/>
   <path class="fil141" d="M121 315c0,4 4,8 8,8 5,0 8,-4 8,-8 0,-4 -4,-8 -8,-8 -4,0 -8,4 -8,8zm1 0l0 0c0,-4 3,-7 7,-7 4,0 7,3 7,7 0,4 -3,7 -7,7 -4,0 -7,-3 -7,-7z"/>
   <path class="fil142" d="M121 315c0,4 3,7 7,7 4,0 8,-3 8,-7 0,-4 -4,-7 -8,-7 -4,0 -7,4 -7,7zm1 0l0 0c0,-3 2,-6 6,-6 3,0 6,3 6,6 0,4 -3,6 -6,6 -4,0 -6,-2 -6,-6z"/>
   <path class="fil199" d="M122 315c0,4 3,7 7,7 4,0 7,-3 7,-7 0,-4 -3,-7 -7,-7 -4,0 -7,3 -7,7zm1 0l0 0c0,-3 2,-5 5,-5 3,0 5,2 5,5 0,3 -2,5 -5,5 -3,0 -5,-2 -5,-5z"/>
   <path class="fil144" d="M123 315c0,4 2,6 6,6 3,0 6,-2 6,-6 0,-3 -3,-6 -6,-6 -4,0 -6,3 -6,6zm1 0l0 0c0,-2 2,-4 4,-4 2,0 5,2 5,4 0,2 -2,4 -5,4 -2,0 -4,-2 -4,-4z"/>
   <path class="fil200" d="M124 315c0,3 2,5 5,5 3,0 5,-2 5,-5 0,-3 -2,-5 -5,-5 -3,0 -5,2 -5,5zm1 0l0 0c0,-2 1,-4 4,-4 2,0 4,1 4,4 0,2 -1,4 -4,4 -2,0 -4,-1 -4,-4z"/>
   <path class="fil146" d="M124 315c0,2 2,4 4,4 2,0 5,-2 5,-4 0,-2 -2,-4 -5,-4 -2,0 -4,2 -4,4zm2 0l0 0c0,-1 1,-3 3,-3 2,0 3,1 3,3 0,1 -1,3 -3,3 -1,0 -3,-2 -3,-3z"/>
   <path class="fil201" d="M125 315c0,2 1,4 4,4 2,0 4,-1 4,-4 0,-2 -1,-4 -4,-4 -2,0 -4,1 -4,4zm1 0l0 0c0,-1 1,-2 2,-2 2,0 2,2 2,2 0,1 -1,2 -2,2 -1,0 -2,-1 -2,-2z"/>
   <path class="fil148" d="M126 315c0,1 1,3 3,3 2,0 3,-2 3,-3 0,-1 -1,-3 -3,-3 -1,0 -3,1 -3,3zm1 0l0 0c0,-1 1,-1 1,-1 1,0 2,1 2,1 0,1 -1,1 -2,1 -1,0 -1,-1 -1,-1z"/>
   <path class="fil149" d="M127 315c0,-1 1,-2 2,-2 2,0 2,2 2,2 0,1 -1,2 -2,2 -1,0 -2,-1 -2,-2z"/>
   <path class="fil58" d="M127 315c0,-1 1,-1 1,-1 1,0 2,1 2,1 0,1 -1,1 -2,1 -1,0 -1,-1 -1,-1z"/>
   <path class="fil58" d="M128 315c0,0 0,-1 1,-1l1 1c0,1 -1,1 -1,1 -1,0 -1,0 -1,-1z"/>
   <path class="fil202" d="M139 315c0,-3 -3,-5 -6,-5 -3,0 -5,2 -5,5 0,3 2,6 5,6 3,0 6,-3 6,-6z"/>
   <path class="fil58" d="M76 317c-1,3 -3,4 -6,3 -2,-1 -4,-3 -3,-6 2,-5 10,-3 9,3z"/>
   <path class="fil59" d="M61 315c0,7 6,13 13,13 7,0 13,-5 13,-13 0,-7 -5,-13 -13,-13 -7,0 -13,6 -13,13zm2 0l0 0c0,-6 5,-11 11,-11 6,0 11,5 11,11 0,7 -5,11 -11,11 -6,0 -11,-4 -11,-11z"/>
   <path class="fil65" d="M61 315c0,7 5,12 12,12 7,0 12,-5 12,-12 0,-7 -5,-12 -12,-12 -7,0 -12,5 -12,12zm2 0l0 0c0,-6 4,-10 10,-10 6,0 10,4 10,10 0,6 -4,10 -10,10 -6,0 -10,-4 -10,-10z"/>
   <path class="fil71" d="M62 315c0,7 5,11 11,11 6,0 11,-4 11,-11 0,-6 -5,-11 -11,-11 -6,0 -11,5 -11,11zm2 0l0 0c0,-5 4,-10 10,-10 5,0 10,4 10,10 0,5 -4,10 -10,10 -5,0 -10,-4 -10,-10z"/>
   <path class="fil77" d="M63 315c0,6 4,10 10,10 6,0 10,-4 10,-10 0,-6 -4,-10 -10,-10 -6,0 -10,4 -10,10zm1 0l0 0c0,-5 4,-9 9,-9 5,0 9,4 9,9 0,5 -4,9 -9,9 -5,0 -9,-4 -9,-9z"/>
   <path class="fil83" d="M64 315c0,5 4,10 10,10 5,0 10,-4 10,-10 0,-5 -4,-10 -10,-10 -5,0 -10,4 -10,10zm2 0l0 0c0,-4 4,-8 8,-8 4,0 8,4 8,8 0,4 -4,8 -8,8 -4,0 -8,-4 -8,-8z"/>
   <path class="fil89" d="M64 315c0,5 4,9 9,9 5,0 9,-4 9,-9 0,-5 -4,-9 -9,-9 -5,0 -9,4 -9,9zm2 0l0 0c0,-4 4,-7 7,-7 4,0 7,4 7,7 0,4 -3,7 -7,7 -4,0 -7,-3 -7,-7z"/>
   <path class="fil94" d="M65 315c0,4 4,8 8,8 4,0 8,-4 8,-8 0,-4 -4,-8 -8,-8 -4,0 -8,4 -8,8zm1 0l0 0c0,-4 3,-7 7,-7 4,0 7,3 7,7 0,4 -3,7 -7,7 -4,0 -7,-3 -7,-7z"/>
   <path class="fil100" d="M66 315c0,4 4,7 7,7 4,0 7,-3 7,-7 0,-4 -3,-7 -7,-7 -4,0 -7,4 -7,7zm1 0l0 0c0,-3 3,-6 6,-6 4,0 6,3 6,6 0,4 -2,6 -6,6 -3,0 -6,-2 -6,-6z"/>
   <path class="fil106" d="M67 315c0,4 3,7 7,7 4,0 7,-3 7,-7 0,-4 -3,-7 -7,-7 -4,0 -7,3 -7,7zm1 0l0 0c0,-3 2,-5 5,-5 3,0 5,2 5,5 0,3 -2,5 -5,5 -3,0 -5,-2 -5,-5z"/>
   <path class="fil112" d="M67 315c0,4 3,6 6,6 4,0 6,-2 6,-6 0,-3 -2,-6 -6,-6 -3,0 -6,3 -6,6zm1 0l0 0c0,-2 2,-4 4,-4 2,0 4,2 4,4 0,3 -2,4 -4,4 -2,0 -4,-1 -4,-4z"/>
   <path class="fil118" d="M68 315c0,3 2,5 5,5 3,0 5,-2 5,-5 0,-3 -2,-5 -5,-5 -3,0 -5,2 -5,5zm1 0l0 0c0,-2 1,-4 4,-4 2,0 4,1 4,4 0,2 -2,4 -4,4 -2,0 -4,-1 -4,-4z"/>
   <path class="fil124" d="M69 315c0,3 2,4 4,4 2,0 4,-1 4,-4 0,-2 -2,-4 -4,-4 -2,0 -4,2 -4,4zm1 0l0 0c0,-1 1,-3 3,-3 2,0 3,1 3,3 0,1 -1,3 -3,3 -1,0 -3,-2 -3,-3z"/>
   <path class="fil130" d="M70 315c0,2 1,4 4,4 2,0 4,-1 4,-4 0,-2 -2,-4 -4,-4 -2,0 -4,1 -4,4zm1 0l0 0c0,-1 1,-2 2,-2 2,0 2,2 2,2 0,1 -1,2 -2,2 -1,0 -2,-1 -2,-2z"/>
   <path class="fil136" d="M70 315c0,1 1,3 3,3 2,0 3,-2 3,-3 0,-1 -1,-3 -3,-3 -1,0 -3,1 -3,3zm1 0l0 0c0,-1 1,-1 1,-1 1,0 2,1 2,1 0,1 -1,1 -2,1 -1,0 -1,-1 -1,-1z"/>
   <path class="fil141" d="M71 315c0,-1 1,-2 2,-2 2,0 2,2 2,2 0,1 -1,2 -2,2 -1,0 -2,-1 -2,-2z"/>
   <path class="fil146" d="M72 315c0,-1 1,-1 1,-1 1,0 2,1 2,1 0,1 -1,1 -2,1 -1,0 -1,-1 -1,-1z"/>
   <path class="fil58" d="M72 315l1 -1c1,0 1,1 1,1 0,1 0,1 -1,1 0,0 -1,0 -1,-1z"/>
   <path class="fil59" d="M65 315c0,4 4,8 8,8 4,0 8,-4 8,-8 0,-4 -4,-7 -8,-7 -4,0 -8,3 -8,7zm2 0l0 0c0,-3 2,-6 6,-6 4,0 7,3 7,6 0,4 -3,7 -7,7 -4,0 -6,-3 -6,-7z"/>
   <path class="fil164" d="M67 315c0,4 3,7 7,7 4,0 7,-4 7,-7 0,-4 -4,-7 -7,-7 -4,0 -7,3 -7,7zm1 0l0 0c0,-3 2,-5 5,-5 3,0 6,2 6,5 0,3 -3,6 -6,6 -3,0 -5,-3 -5,-6z"/>
   <path class="fil81" d="M67 315c0,4 2,7 6,7 4,0 7,-3 7,-7 0,-3 -3,-6 -7,-6 -4,0 -6,3 -6,6zm1 0l0 0c0,-2 2,-4 4,-4 3,0 4,2 4,4 0,3 -1,5 -4,5 -2,0 -4,-2 -4,-5z"/>
   <path class="fil91" d="M68 315c0,3 2,6 5,6 3,0 6,-3 6,-6 0,-3 -3,-5 -6,-5 -3,0 -5,2 -5,5zm1 0l0 0c0,-2 1,-4 4,-4 2,0 4,1 4,4 0,2 -2,4 -4,4 -2,0 -4,-1 -4,-4z"/>
   <path class="fil165" d="M69 315c0,3 2,5 4,5 3,0 4,-2 4,-5 0,-2 -1,-4 -4,-4 -2,0 -4,2 -4,4zm1 0l0 0c0,-1 1,-3 3,-3 2,0 3,1 3,3 0,2 -1,3 -3,3 -1,0 -3,-1 -3,-3z"/>
   <path class="fil166" d="M70 315c0,2 1,4 4,4 2,0 4,-1 4,-4 0,-2 -2,-4 -4,-4 -2,0 -4,1 -4,4zm1 0l0 0c0,-1 1,-2 2,-2 2,0 2,1 2,2 0,1 -1,2 -2,2 -1,0 -2,-1 -2,-2z"/>
   <path class="fil122" d="M70 315c0,2 1,3 3,3 2,0 3,-1 3,-3 0,-1 -1,-3 -3,-3 -1,0 -3,1 -3,3zm1 0l0 0c0,-1 1,-1 1,-1 1,0 2,1 2,1 0,1 -1,1 -2,1 -1,0 -1,-1 -1,-1z"/>
   <path class="fil132" d="M71 315c0,-1 1,-2 2,-2 2,0 2,1 2,2 0,1 -1,2 -2,2 -1,0 -2,-1 -2,-2z"/>
   <path class="fil167" d="M72 315c0,-1 1,-1 1,-1 1,0 2,1 2,1 0,1 -1,1 -2,1 -1,0 -1,-1 -1,-1z"/>
   <path class="fil58" d="M72 315l1 -1c1,0 1,1 1,1 0,1 0,1 -1,1 0,0 -1,0 -1,-1z"/>
   <polygon class="fil51" points="44,664 149,664 149,455 44,455 "/>
   <path class="fil58" d="M372 247l-199 0c-54,0 -98,-44 -98,-98 0,-54 44,-97 98,-97l199 0c54,0 98,44 98,97 0,54 -44,98 -98,98z"/>
   <path class="fil203" d="M155 160c-5,0 -10,-4 -10,-10 0,-5 4,-10 10,-10 5,0 10,4 10,10 0,5 -4,10 -10,10z"/>
   <path class="fil203" d="M137 984c-44,0 -79,-36 -79,-79 0,-44 36,-79 79,-79 44,0 79,36 79,79 0,44 -36,79 -79,79z"/>
   <path class="fil203" d="M137 980c-41,0 -75,-34 -75,-75 0,-41 34,-75 75,-75 41,0 75,34 75,75 0,41 -34,75 -75,75z"/>
   <path class="fil203" d="M137 975c-39,0 -71,-32 -71,-71 0,-39 32,-71 71,-71 39,0 71,32 71,71 0,39 -32,71 -71,71z"/>
   <path class="fil58" d="M137 974c-39,0 -70,-31 -70,-70 0,-38 31,-70 70,-70 39,0 70,31 70,70 0,39 -31,70 -70,70z"/>
   <path class="fil204" d="M137 973c-38,0 -69,-31 -69,-69 0,-38 31,-69 69,-69 38,0 69,31 69,69 0,38 -31,69 -69,69z"/>
   <path class="fil205" d="M137 972c-37,0 -68,-30 -68,-68 0,-37 30,-68 68,-68 37,0 68,30 68,68 0,37 -30,68 -68,68z"/>
   <path class="fil206" d="M137 971c-37,0 -67,-30 -67,-67 0,-37 30,-67 67,-67 37,0 67,30 67,67 0,37 -30,67 -67,67z"/>
   <path class="fil148" d="M137 970c-36,0 -66,-29 -66,-66 0,-36 29,-66 66,-66 36,0 66,29 66,66 0,36 -29,66 -66,66z"/>
   <path class="fil201" d="M137 969c-36,0 -65,-29 -65,-65 0,-36 29,-65 65,-65 36,0 65,29 65,65 0,36 -29,65 -65,65z"/>
   <path class="fil147" d="M137 968c-35,0 -64,-29 -64,-64 0,-35 29,-64 64,-64 35,0 64,29 64,64 0,35 -29,64 -64,64z"/>
   <path class="fil207" d="M137 967c-35,0 -63,-28 -63,-63 0,-35 28,-63 63,-63 35,0 63,28 63,63 0,35 -28,63 -63,63z"/>
   <path class="fil208" d="M137 967c-34,0 -62,-28 -62,-62 0,-34 28,-62 62,-62 34,0 62,28 62,62 0,34 -28,62 -62,62z"/>
   <path class="fil209" d="M137 965c-34,0 -61,-27 -61,-61 0,-34 27,-61 61,-61 34,0 61,27 61,61 0,34 -27,61 -61,61z"/>
   <path class="fil199" d="M137 965c-33,0 -60,-27 -60,-60 0,-33 27,-60 60,-60 33,0 60,27 60,60 0,33 -27,60 -60,60z"/>
   <path class="fil210" d="M137 963c-33,0 -59,-26 -59,-59 0,-32 26,-59 59,-59 33,0 59,26 59,59 0,33 -26,59 -59,59z"/>
   <path class="fil143" d="M137 962c-32,0 -58,-26 -58,-58 0,-32 26,-58 58,-58 32,0 58,26 58,58 0,32 -26,58 -58,58z"/>
   <path class="fil211" d="M137 962c-32,0 -57,-26 -57,-57 0,-31 25,-57 57,-57 31,0 57,26 57,57 0,32 -25,57 -57,57z"/>
   <path class="fil212" d="M137 961c-31,0 -56,-25 -56,-56 0,-31 25,-56 56,-56 31,0 56,25 56,56 0,31 -25,56 -56,56z"/>
   <path class="fil213" d="M137 960c-30,0 -55,-25 -55,-55 0,-30 25,-55 55,-55 30,0 55,25 55,55 0,30 -25,55 -55,55z"/>
   <path class="fil214" d="M137 959c-30,0 -54,-24 -54,-54 0,-30 24,-54 54,-54 30,0 54,24 54,54 0,30 -24,54 -54,54z"/>
   <path class="fil215" d="M137 958c-29,0 -53,-24 -53,-53 0,-29 24,-53 53,-53 29,0 53,24 53,53 0,29 -24,53 -53,53z"/>
   <path class="fil216" d="M137 957c-29,0 -52,-23 -52,-52 0,-29 23,-52 52,-52 29,0 52,23 52,52 0,29 -23,52 -52,52z"/>
   <path class="fil140" d="M137 956c-28,0 -51,-23 -51,-51 0,-28 23,-51 51,-51 28,0 51,23 51,51 0,28 -23,51 -51,51z"/>
   <path class="fil217" d="M137 955c-28,0 -50,-22 -50,-50 0,-28 22,-50 50,-50 28,0 50,22 50,50 0,28 -22,50 -50,50z"/>
   <path class="fil218" d="M137 954c-27,0 -49,-22 -49,-49 0,-27 22,-49 49,-49 27,0 49,22 49,49 0,27 -22,49 -49,49z"/>
   <path class="fil219" d="M137 953c-27,0 -48,-22 -48,-48 0,-27 22,-48 48,-48 27,0 48,22 48,48 0,27 -22,48 -48,48z"/>
   <path class="fil220" d="M137 952c-26,0 -47,-21 -47,-47 0,-26 21,-47 47,-47 26,0 47,21 47,47 0,26 -21,47 -47,47z"/>
   <path class="fil221" d="M137 951c-26,0 -46,-21 -46,-46 0,-25 21,-46 46,-46 26,0 46,21 46,46 0,26 -21,46 -46,46z"/>
   <path class="fil197" d="M137 950c-25,0 -45,-20 -45,-45 0,-25 20,-45 45,-45 25,0 45,20 45,45 0,25 -20,45 -45,45z"/>
   <path class="fil197" d="M137 949c-24,0 -44,-20 -44,-44 0,-24 20,-44 44,-44 24,0 44,20 44,44 0,24 -20,44 -44,44z"/>
   <path class="fil222" d="M137 948c-24,0 -43,-19 -43,-43 0,-24 19,-43 43,-43 24,0 43,19 43,43 0,24 -19,43 -43,43z"/>
   <path class="fil223" d="M137 947c-23,0 -42,-19 -42,-42 0,-23 19,-42 42,-42 23,0 42,19 42,42 0,23 -19,42 -42,42z"/>
   <path class="fil224" d="M137 946c-23,0 -41,-18 -41,-41 0,-23 18,-41 41,-41 23,0 41,18 41,41 0,23 -18,41 -41,41z"/>
   <path class="fil225" d="M137 945c-22,0 -40,-18 -40,-40 0,-22 18,-40 40,-40 22,0 40,18 40,40 0,22 -18,40 -40,40z"/>
   <path class="fil226" d="M137 944c-22,0 -39,-18 -39,-39 0,-22 18,-39 39,-39 22,0 39,18 39,39 0,22 -18,39 -39,39z"/>
   <path class="fil227" d="M137 943c-21,0 -38,-17 -38,-38 0,-21 17,-38 38,-38 21,0 38,17 38,38 0,21 -17,38 -38,38z"/>
   <path class="fil228" d="M137 942c-21,0 -37,-17 -37,-37 0,-21 17,-37 37,-37 21,0 37,17 37,37 0,21 -17,37 -37,37z"/>
   <path class="fil229" d="M137 941c-20,0 -36,-16 -36,-36 0,-20 16,-36 36,-36 20,0 36,16 36,36 0,20 -16,36 -36,36z"/>
   <path class="fil230" d="M137 940c-20,0 -35,-16 -35,-35 0,-19 16,-35 35,-35 20,0 35,16 35,35 0,20 -16,35 -35,35z"/>
   <path class="fil231" d="M137 939c-19,0 -34,-15 -34,-34 0,-19 15,-34 34,-34 19,0 34,15 34,34 0,19 -15,34 -34,34z"/>
   <path class="fil232" d="M137 938c-18,0 -33,-15 -33,-33 0,-18 15,-33 33,-33 18,0 33,15 33,33 0,18 -15,33 -33,33z"/>
   <path class="fil233" d="M137 937c-18,0 -32,-15 -32,-32 0,-18 15,-32 32,-32 18,0 32,14 32,32 0,18 -15,32 -32,32z"/>
   <path class="fil234" d="M137 936c-17,0 -31,-14 -31,-31 0,-17 14,-31 31,-31 17,0 31,14 31,31 0,17 -14,31 -31,31z"/>
   <path class="fil235" d="M137 935c-17,0 -31,-14 -31,-30 0,-17 14,-30 31,-30 17,0 30,14 30,30 0,17 -14,30 -30,30z"/>
   <path class="fil236" d="M137 934c-16,0 -29,-13 -29,-29 0,-16 13,-29 29,-29 16,0 29,13 29,29 0,16 -13,29 -29,29z"/>
   <path class="fil194" d="M137 933c-16,0 -29,-13 -29,-29 0,-16 13,-28 29,-28 16,0 28,13 28,28 0,16 -13,29 -28,29z"/>
   <path class="fil237" d="M137 932c-15,0 -28,-12 -28,-28 0,-15 12,-27 28,-27 15,0 28,12 28,27 0,15 -12,28 -28,28z"/>
   <path class="fil238" d="M137 931c-15,0 -27,-12 -27,-27 0,-15 12,-26 27,-26 15,0 27,12 27,26 0,15 -12,27 -27,27z"/>
   <path class="fil239" d="M137 930c-14,0 -26,-11 -26,-26 0,-14 11,-25 26,-25 14,0 26,11 26,25 0,14 -11,26 -26,26z"/>
   <path class="fil240" d="M137 929c-14,0 -25,-11 -25,-25 0,-14 11,-25 25,-25 13,0 25,11 25,25 0,14 -11,25 -25,25z"/>
   <path class="fil241" d="M137 928c-13,0 -24,-11 -24,-24 0,-13 11,-24 24,-24 13,0 24,11 24,24 0,13 -11,24 -24,24z"/>
   <path class="fil242" d="M137 927c-13,0 -23,-10 -23,-23 0,-12 10,-23 23,-23 13,0 23,10 23,23 0,13 -10,23 -23,23z"/>
   <path class="fil243" d="M137 926c-12,0 -22,-10 -22,-22 0,-12 10,-22 22,-22 12,0 22,10 22,22 0,12 -10,22 -22,22z"/>
   <path class="fil244" d="M137 925c-11,0 -21,-9 -21,-21 0,-11 9,-21 21,-21 11,0 21,9 21,21 0,11 -9,21 -21,21z"/>
   <path class="fil245" d="M137 924c-11,0 -20,-9 -20,-20 0,-11 9,-20 20,-20 11,0 20,9 20,20 0,11 -9,20 -20,20z"/>
   <path class="fil246" d="M137 923c-10,0 -19,-8 -19,-19 0,-10 8,-19 19,-19 10,0 19,8 19,19 0,10 -8,19 -19,19z"/>
   <path class="fil247" d="M137 922c-10,0 -18,-8 -18,-18 0,-10 8,-18 18,-18 10,0 18,8 18,18 0,10 -8,18 -18,18z"/>
   <path class="fil248" d="M137 921c-9,0 -17,-7 -17,-17 0,-9 7,-17 17,-17 9,0 17,8 17,17 0,9 -7,17 -17,17z"/>
   <path class="fil249" d="M137 920c-9,0 -16,-7 -16,-16 0,-9 7,-16 16,-16 9,0 16,7 16,16 0,9 -7,16 -16,16z"/>
   <path class="fil249" d="M137 919c-8,0 -15,-7 -15,-15 0,-8 7,-15 15,-15 8,0 15,7 15,15 0,8 -7,15 -15,15z"/>
   <path class="fil250" d="M137 918c-8,0 -14,-6 -14,-14 0,-8 6,-14 14,-14 8,0 14,6 14,14 0,8 -6,14 -14,14z"/>
   <path class="fil251" d="M137 917c-7,0 -13,-6 -13,-13 0,-7 6,-13 13,-13 7,0 13,6 13,13 0,7 -6,13 -13,13z"/>
   <path class="fil252" d="M137 916c-7,0 -12,-5 -12,-12 0,-6 5,-12 12,-12 6,0 12,5 12,12 0,7 -5,12 -12,12z"/>
   <path class="fil253" d="M137 915c-6,0 -11,-5 -11,-11 0,-6 5,-11 11,-11 6,0 11,5 11,11 0,6 -5,11 -11,11z"/>
   <path class="fil254" d="M137 914c-5,0 -10,-4 -10,-10 0,-5 4,-10 10,-10 5,0 10,4 10,10 0,5 -4,10 -10,10z"/>
   <path class="fil255" d="M137 913c-5,0 -9,-4 -9,-9 0,-5 4,-9 9,-9 5,0 9,4 9,9 0,5 -4,9 -9,9z"/>
   <path class="fil256" d="M137 912c-4,0 -8,-3 -8,-8 0,-4 4,-8 8,-8 4,0 8,3 8,8 0,4 -4,8 -8,8z"/>
   <path class="fil257" d="M137 911c-4,0 -7,-3 -7,-7 0,-4 3,-7 7,-7 4,0 7,3 7,7 0,4 -3,7 -7,7z"/>
   <path class="fil258" d="M137 910c-3,0 -6,-3 -6,-6 0,-3 3,-6 6,-6 3,0 6,3 6,6 0,3 -3,6 -6,6z"/>
   <path class="fil259" d="M137 909c-3,0 -5,-2 -5,-5 0,-3 2,-5 5,-5 3,0 5,2 5,5 0,3 -2,5 -5,5z"/>
   <path class="fil260" d="M137 909c-2,0 -4,-2 -4,-4 0,-2 2,-4 4,-4 2,0 4,2 4,4 0,2 -2,4 -4,4z"/>
   <path class="fil261" d="M137 908c-2,0 -3,-1 -3,-3 0,-2 1,-3 3,-3 2,0 3,1 3,3 0,2 -1,3 -3,3z"/>
   <path class="fil262" d="M137 907c-1,0 -2,-1 -2,-2 0,-1 1,-2 2,-2 1,0 2,1 2,2 0,1 -1,2 -2,2z"/>
   <path class="fil263" d="M137 906c-1,0 -1,0 -1,-1 0,-1 1,-1 1,-1 0,0 1,0 1,1 0,1 -1,1 -1,1z"/>
   <polygon class="fil47" points="58,824 216,824 216,985 58,985 "/>
   <path class="fil264" d="M222 991l-169 0 0 -172 169 0 0 172zm-157 -12l0 0 145 0 0 -148 -145 0 0 148z"/>
   <polygon class="fil265" points="126,632 52,632 52,482 126,482 "/>
   <path class="fil266" d="M1076 1413l-100 0 0 -194c0,-24 1,-45 1,-65 -6,8 -14,15 -23,24l-42 34 -51 -63 126 -102 89 0 0 366z"/>
   <path class="fil51" d="M1281 1183l-29 0 0 -78 0 -13 0 -14c-5,5 -8,8 -10,9l-16 13 -14 -17 44 -35 24 0 0 136z"/>
   <path class="fil51" d="M1413 1105c0,27 -6,47 -17,60 -11,13 -28,20 -51,20 -8,0 -14,0 -18,-1l0 -23c5,1 11,2 16,2 10,0 17,-1 24,-4 6,-3 11,-7 14,-13 3,-6 5,-14 6,-25l-1 0c-4,6 -8,10 -12,12 -5,2 -11,4 -18,4 -12,0 -21,-4 -28,-11 -7,-8 -10,-18 -10,-32 0,-15 4,-26 12,-34 8,-8 20,-13 34,-13 10,0 19,2 26,7 8,5 13,12 17,20 4,9 6,20 6,32zm-49 -36l0 0c-6,0 -11,2 -14,6 -3,4 -5,10 -5,18 0,7 1,12 5,16 3,4 8,6 14,6 6,0 11,-2 15,-6 4,-4 6,-8 6,-13 0,-7 -2,-14 -6,-19 -4,-5 -9,-8 -15,-8z"/>
   <path class="fil51" d="M1462 1163c-3,13 -9,27 -16,44l-20 0c4,-16 7,-32 9,-47l26 0 1 2z"/>
   <path class="fil51" d="M1580 1155l-16 0 0 28 -28 0 0 -28 -58 0 0 -20 59 -88 26 0 0 85 16 0 0 22zm-44 -22l0 0 0 -23c0,-4 0,-9 0,-17 0,-7 1,-12 1,-13l-1 0c-2,5 -5,10 -8,15l-25 38 33 0z"/>
   <path class="fil51" d="M1308 1383l-16 0 0 28 -28 0 0 -28 -58 0 0 -20 59 -88 26 0 0 85 16 0 0 22zm-44 -22l0 0 0 -23c0,-4 0,-9 0,-17 0,-7 1,-12 1,-13l-1 0c-2,5 -5,10 -8,15l-25 38 33 0z"/>
   <path class="fil51" d="M1390 1411l-29 0 0 -78 0 -13 0 -14c-5,5 -8,8 -10,9l-16 13 -14 -17 44 -35 24 0 0 136z"/>
   <path class="fil51" d="M1462 1391c-3,12 -9,27 -16,44l-20 0c4,-16 7,-32 9,-47l26 0 1 2z"/>
   <path class="fil51" d="M1577 1411l-95 0 0 -20 34 -34c10,-10 17,-17 20,-21 3,-4 5,-8 7,-11 1,-3 2,-7 2,-11 0,-5 -1,-9 -5,-12 -3,-3 -7,-4 -12,-4 -5,0 -10,1 -15,4 -5,2 -10,6 -16,10l-16 -18c7,-6 12,-10 17,-12 4,-2 9,-4 14,-5 5,-1 11,-2 17,-2 8,0 16,2 22,5 7,3 12,7 15,13 4,6 5,12 5,19 0,6 -1,12 -3,18 -2,5 -6,11 -10,17 -5,6 -13,14 -24,25l-17 16 0 1 59 0 0 24z"/>
   <path class="fil51" d="M487 1809l-24 0 0 -65 0 -11 0 -12c-4,4 -7,6 -8,8l-13 10 -11 -14 36 -29 19 0 0 112z"/>
   <path class="fil51" d="M577 1809l-24 0 0 -65 0 -11 0 -12c-4,4 -7,6 -8,8l-13 10 -11 -14 36 -29 19 0 0 112z"/>
   <path class="fil51" d="M637 1792c-3,10 -7,23 -13,37l-17 0c3,-14 6,-26 8,-38l21 0 1 2z"/>
   <path class="fil51" d="M727 1722c0,7 -2,13 -6,18 -4,5 -10,8 -18,10l0 0c9,1 16,4 21,8 5,4 7,10 7,18 0,11 -4,19 -12,25 -8,6 -19,9 -34,9 -12,0 -23,-2 -32,-6l0 -20c4,2 9,4 14,5 5,1 10,2 15,2 8,0 14,-1 17,-4 4,-3 6,-7 6,-13 0,-5 -2,-9 -6,-11 -4,-2 -11,-3 -21,-3l-9 0 0 -18 9 0c9,0 15,-1 19,-3 4,-2 6,-6 6,-12 0,-8 -5,-13 -16,-13 -4,0 -7,1 -11,2 -4,1 -8,3 -13,6l-11 -16c10,-7 22,-11 37,-11 12,0 21,2 27,7 7,5 10,11 10,20z"/>
   <path class="fil51" d="M220 2092l-13 0 0 23 -23 0 0 -23 -48 0 0 -16 49 -72 22 0 0 70 13 0 0 18zm-37 -18l0 0 0 -19c0,-3 0,-8 0,-14 0,-6 0,-10 1,-11l-1 0c-2,4 -4,8 -7,12l-21 31 27 0z"/>
   <path class="fil51" d="M257 2099c-3,10 -7,23 -14,37l-17 0c3,-14 6,-26 8,-38l21 0 1 2z"/>
   <path class="fil51" d="M333 2115l-24 0 0 -65 0 -11 0 -12c-4,4 -7,6 -8,8l-13 10 -11 -14 36 -29 19 0 0 112z"/>
   <path class="fil51" d="M948 1803l-24 0 0 -65 0 -11 0 -12c-4,4 -7,6 -8,8l-13 10 -11 -14 36 -29 19 0 0 112z"/>
   <path class="fil51" d="M1057 1739c0,22 -5,39 -14,49 -9,11 -23,16 -42,16 -7,0 -12,0 -15,-1l0 -19c4,1 9,2 14,2 8,0 14,-1 20,-4 5,-2 9,-6 12,-11 3,-5 4,-12 5,-21l-1 0c-3,5 -6,8 -10,10 -4,2 -9,3 -15,3 -10,0 -17,-3 -23,-9 -6,-6 -8,-15 -8,-26 0,-12 3,-22 10,-28 7,-7 16,-10 28,-10 8,0 16,2 22,6 6,4 11,10 14,17 3,7 5,16 5,26zm-41 -30l0 0c-5,0 -9,2 -11,5 -3,3 -4,8 -4,15 0,5 1,10 4,13 2,3 6,5 11,5 5,0 9,-2 12,-5 3,-3 5,-7 5,-11 0,-6 -2,-11 -5,-15 -3,-4 -7,-6 -12,-6z"/>
   <path class="fil51" d="M1097 1787c-3,10 -7,23 -14,37l-17 0c3,-14 6,-26 8,-38l21 0 1 2z"/>
   <path class="fil51" d="M1195 1780l-13 0 0 23 -23 0 0 -23 -48 0 0 -16 49 -72 22 0 0 70 13 0 0 18zm-37 -18l0 0 0 -19c0,-3 0,-8 0,-14 0,-6 0,-10 1,-11l-1 0c-2,4 -4,8 -7,12l-21 31 27 0z"/>
   <path class="fil51" d="M762 355c11,0 19,3 26,9 6,6 10,14 10,25 0,12 -4,22 -12,29 -8,7 -19,10 -33,10 -12,0 -23,-2 -30,-6l0 -20c4,2 9,4 14,5 5,1 10,2 15,2 14,0 22,-6 22,-18 0,-11 -7,-17 -22,-17 -3,0 -6,0 -9,1 -3,1 -6,1 -8,2l-9 -5 4 -57 61 0 0 20 -40 0 -2 22 3 -1c3,-1 7,-1 12,-1z"/>
   <path class="fil51" d="M840 410c-3,10 -7,23 -13,37l-17 0c3,-14 6,-26 8,-38l21 0 1 2z"/>
   <path class="fil51" d="M938 403l-13 0 0 23 -23 0 0 -23 -48 0 0 -16 49 -72 22 0 0 70 13 0 0 18zm-37 -18l0 0 0 -19c0,-3 0,-8 0,-14 0,-6 0,-10 1,-11l-1 0c-2,4 -4,8 -7,12l-21 31 27 0z"/>
   <path class="fil51" d="M293 340c0,7 -2,13 -6,18 -4,5 -10,8 -18,10l0 0c9,1 16,4 21,8 5,4 7,10 7,18 0,11 -4,19 -12,25 -8,6 -19,9 -33,9 -12,0 -23,-2 -32,-6l0 -20c4,2 9,4 14,5 5,1 10,2 16,2 8,0 14,-1 17,-4 4,-3 6,-7 6,-13 0,-5 -2,-9 -6,-11 -4,-2 -11,-3 -21,-3l-9 0 0 -18 9 0c9,0 15,-1 19,-3 4,-2 6,-6 6,-12 0,-8 -5,-13 -16,-13 -4,0 -7,1 -11,2 -4,1 -8,3 -13,6l-11 -16c10,-7 22,-11 37,-11 12,0 21,2 27,7 7,5 10,11 10,20z"/>
   <path class="fil51" d="M337 410c-3,10 -7,23 -13,37l-17 0c3,-14 6,-26 8,-38l21 0 1 2z"/>
   <path class="fil51" d="M432 362c0,22 -5,39 -14,49 -9,11 -23,16 -42,16 -7,0 -12,0 -15,-1l0 -19c4,1 9,2 13,2 8,0 14,-1 20,-4 5,-2 9,-6 12,-11 3,-5 4,-12 5,-21l-1 0c-3,5 -6,8 -10,10 -4,2 -9,3 -15,3 -10,0 -17,-3 -23,-9 -6,-6 -8,-15 -8,-26 0,-12 3,-21 10,-28 7,-7 16,-10 28,-10 8,0 16,2 22,6 6,4 11,10 14,17 3,7 5,16 5,26zm-41 -30l0 0c-5,0 -9,2 -12,5 -3,3 -4,8 -4,15 0,5 1,10 4,13 3,3 6,5 11,5 5,0 9,-2 12,-5 3,-3 5,-7 5,-11 0,-6 -2,-11 -5,-15 -3,-4 -7,-6 -12,-6z"/>
   <path class="fil51" d="M1580 1241l-375 0c-5,0 -8,-3 -8,-7 0,-4 4,-7 8,-7l375 0c5,0 8,3 8,7 0,4 -4,7 -8,7z"/>
  </g>
 </g>
</svg>
