<?xml version="1.0" encoding="UTF-8"?>
<!DOCTYPE svg PUBLIC "-//W3C//DTD SVG 1.1//EN" "http://www.w3.org/Graphics/SVG/1.1/DTD/svg11.dtd">
<!-- Creator: CorelDRAW X6 -->
<svg xmlns="http://www.w3.org/2000/svg" xml:space="preserve" width="0.986268in" height="2.62081in" version="1.1" style="shape-rendering:geometricPrecision; text-rendering:geometricPrecision; image-rendering:optimizeQuality; fill-rule:evenodd; clip-rule:evenodd"
viewBox="0 0 986 2621"
 xmlns:xlink="http://www.w3.org/1999/xlink">
 <defs>
  <style type="text/css">
   <![CDATA[
    .fil200 {fill:#30302F}
    .fil201 {fill:#363332}
    .fil53 {fill:#5DAFD4}
    .fil58 {fill:#72706C}
    .fil57 {fill:#74716B}
    .fil60 {fill:#757370}
    .fil59 {fill:#77746E}
    .fil166 {fill:#777471}
    .fil61 {fill:#787672}
    .fil167 {fill:#7A7773}
    .fil62 {fill:#7B7873}
    .fil64 {fill:#7B7A77}
    .fil63 {fill:#7C7A75}
    .fil168 {fill:#7C7B77}
    .fil65 {fill:#7E7C78}
    .fil66 {fill:#80807B}
    .fil169 {fill:#817E7B}
    .fil67 {fill:#85817C}
    .fil162 {fill:#85827D}
    .fil68 {fill:#86837E}
    .fil69 {fill:#86847F}
    .fil170 {fill:#878580}
    .fil70 {fill:#888681}
    .fil71 {fill:#8A8883}
    .fil171 {fill:#8B8883}
    .fil72 {fill:#8B8984}
    .fil74 {fill:#8B8B84}
    .fil73 {fill:#8C8884}
    .fil75 {fill:#8E8A85}
    .fil172 {fill:#8E8C86}
    .fil156 {fill:#8E8C87}
    .fil76 {fill:#8F8C86}
    .fil77 {fill:#908D89}
    .fil78 {fill:#918F8B}
    .fil79 {fill:#94908A}
    .fil149 {fill:#94918B}
    .fil80 {fill:#94918C}
    .fil173 {fill:#95928E}
    .fil81 {fill:#979590}
    .fil174 {fill:#99958F}
    .fil82 {fill:#99968F}
    .fil83 {fill:#9A9790}
    .fil84 {fill:#9B9993}
    .fil175 {fill:#9C9892}
    .fil85 {fill:#9F9B96}
    .fil87 {fill:#9F9C97}
    .fil86 {fill:#9F9D95}
    .fil55 {fill:#9F9F9A}
    .fil89 {fill:#A2A099}
    .fil88 {fill:#A39E98}
    .fil176 {fill:#A3A09B}
    .fil150 {fill:#A3A09C}
    .fil90 {fill:#A5A29F}
    .fil177 {fill:#A7A49E}
    .fil91 {fill:#A7A4A0}
    .fil92 {fill:#A9A6A1}
    .fil93 {fill:#ACA7A4}
    .fil94 {fill:#ADA9A3}
    .fil157 {fill:#ADA9A4}
    .fil95 {fill:#ADA9A6}
    .fil151 {fill:#AEAAA6}
    .fil178 {fill:#AEACA7}
    .fil96 {fill:#AFABA6}
    .fil97 {fill:#B1ADA8}
    .fil98 {fill:#B3B1AC}
    .fil179 {fill:#B5B1AC}
    .fil99 {fill:#B5B3AE}
    .fil163 {fill:#B5B3B0}
    .fil180 {fill:#B7B5B0}
    .fil100 {fill:#B8B5B1}
    .fil54 {fill:#B8DFF2}
    .fil101 {fill:#B9B6B2}
    .fil102 {fill:#B9B7B4}
    .fil103 {fill:#BCBAB5}
    .fil105 {fill:#BEBDBA}
    .fil104 {fill:#C0BCB9}
    .fil106 {fill:#C0BDBA}
    .fil181 {fill:#C0BDBB}
    .fil107 {fill:#C2BFBD}
    .fil152 {fill:#C2C0BC}
    .fil182 {fill:#C3C1BD}
    .fil183 {fill:#C4C0BE}
    .fil109 {fill:#C4C1C0}
    .fil261 {fill:#C4C3C2}
    .fil108 {fill:#C5C2BE}
    .fil184 {fill:#C5C2C1}
    .fil164 {fill:#C5C3BF}
    .fil260 {fill:#C5C4C2}
    .fil259 {fill:#C6C5C3}
    .fil110 {fill:#C7C5C1}
    .fil111 {fill:#C7C5C3}
    .fil258 {fill:#C7C6C4}
    .fil257 {fill:#C7C7C5}
    .fil256 {fill:#C8C7C5}
    .fil112 {fill:#C9C6C3}
    .fil255 {fill:#C9C8C6}
    .fil153 {fill:#CAC7C2}
    .fil113 {fill:#CAC7C4}
    .fil254 {fill:#CAC9C7}
    .fil114 {fill:#CBC8C7}
    .fil253 {fill:#CBCAC8}
    .fil252 {fill:#CBCBC9}
    .fil158 {fill:#CCC8C4}
    .fil251 {fill:#CCCBC9}
    .fil115 {fill:#CDCAC5}
    .fil185 {fill:#CDCBC8}
    .fil148 {fill:#CDCBC9}
    .fil250 {fill:#CDCCCA}
    .fil116 {fill:#CECAC7}
    .fil249 {fill:#CECDCB}
    .fil248 {fill:#CFCECC}
    .fil186 {fill:#D0CCC8}
    .fil117 {fill:#D0CDCA}
    .fil187 {fill:#D0CDCB}
    .fil118 {fill:#D0CECC}
    .fil247 {fill:#D0CFCD}
    .fil154 {fill:#D1CFCC}
    .fil188 {fill:#D1CFCD}
    .fil246 {fill:#D1D0CF}
    .fil245 {fill:#D2D1D0}
    .fil119 {fill:#D3D1CE}
    .fil244 {fill:#D3D2D1}
    .fil189 {fill:#D4D1CF}
    .fil243 {fill:#D4D2D1}
    .fil120 {fill:#D5D2CE}
    .fil242 {fill:#D5D3D2}
    .fil241 {fill:#D5D4D3}
    .fil190 {fill:#D6D3CF}
    .fil121 {fill:#D6D3D1}
    .fil240 {fill:#D6D5D4}
    .fil239 {fill:#D7D6D5}
    .fil191 {fill:#D8D5D2}
    .fil122 {fill:#D8D6D2}
    .fil238 {fill:#D8D7D5}
    .fil237 {fill:#D9D8D7}
    .fil236 {fill:#DAD9D8}
    .fil159 {fill:#DADAD5}
    .fil123 {fill:#DADAD6}
    .fil155 {fill:#DADAD8}
    .fil235 {fill:#DADAD9}
    .fil124 {fill:#DBD9D7}
    .fil192 {fill:#DBDAD9}
    .fil125 {fill:#DBDBD9}
    .fil234 {fill:#DCDBDA}
    .fil3 {fill:#DCDCDB}
    .fil233 {fill:#DDDCDB}
    .fil127 {fill:#DEDCDB}
    .fil126 {fill:#DEDDDB}
    .fil232 {fill:#DEDDDC}
    .fil193 {fill:#DEDEDC}
    .fil231 {fill:#DFDDDC}
    .fil230 {fill:#DFDEDD}
    .fil229 {fill:#E0DFDE}
    .fil128 {fill:#E1E0DD}
    .fil228 {fill:#E1E0E0}
    .fil194 {fill:#E2E0DF}
    .fil227 {fill:#E2E1E0}
    .fil52 {fill:#E31256}
    .fil226 {fill:#E3E2E1}
    .fil129 {fill:#E4E2DE}
    .fil130 {fill:#E4E3E1}
    .fil225 {fill:#E4E3E2}
    .fil224 {fill:#E4E4E3}
    .fil131 {fill:#E5E4E2}
    .fil223 {fill:#E5E5E4}
    .fil132 {fill:#E6E5E3}
    .fil222 {fill:#E6E5E4}
    .fil160 {fill:#E7E6E3}
    .fil221 {fill:#E7E6E5}
    .fil220 {fill:#E8E7E6}
    .fil133 {fill:#E9E7E6}
    .fil134 {fill:#E9E7E7}
    .fil195 {fill:#E9E8E8}
    .fil135 {fill:#E9E9E8}
    .fil219 {fill:#EAE9E9}
    .fil218 {fill:#EBEAEA}
    .fil136 {fill:#ECEBEA}
    .fil217 {fill:#ECEBEB}
    .fil216 {fill:#EDECEB}
    .fil215 {fill:#EDEDEC}
    .fil137 {fill:#EEECEC}
    .fil138 {fill:#EEEEED}
    .fil196 {fill:#EFEFED}
    .fil214 {fill:#EFEFEE}
    .fil213 {fill:#F0F0EF}
    .fil139 {fill:#F1EFEF}
    .fil212 {fill:#F1F0F0}
    .fil165 {fill:#F1F0F1}
    .fil211 {fill:#F1F1F1}
    .fil210 {fill:#F2F2F2}
    .fil140 {fill:#F3F2F3}
    .fil161 {fill:#F3F3F2}
    .fil209 {fill:#F3F3F3}
    .fil141 {fill:#F4F4F4}
    .fil208 {fill:#F5F4F4}
    .fil197 {fill:whitesmoke}
    .fil207 {fill:#F6F6F6}
    .fil142 {fill:#F7F7F6}
    .fil206 {fill:#F7F7F7}
    .fil143 {fill:#F8F7F7}
    .fil198 {fill:#F8F8F7}
    .fil205 {fill:#F8F8F8}
    .fil144 {fill:#F8F8F9}
    .fil145 {fill:#F9F9F9}
    .fil199 {fill:#FAFAFA}
    .fil146 {fill:#FAFBFB}
    .fil147 {fill:#FAFDFE}
    .fil204 {fill:#FBFBFB}
    .fil203 {fill:#FCFCFC}
    .fil202 {fill:#FDFDFD}
    .fil56 {fill:#FEFEFE}
    .fil50 {fill:#323030;fill-rule:nonzero}
    .fil51 {fill:#3A3952;fill-rule:nonzero}
    .fil262 {fill:#646261;fill-rule:nonzero}
    .fil49 {fill:#6C6B6A;fill-rule:nonzero}
    .fil1 {fill:#B1B1B0;fill-rule:nonzero}
    .fil4 {fill:#BFE0F1;fill-rule:nonzero}
    .fil48 {fill:#C4C3C2;fill-rule:nonzero}
    .fil5 {fill:#C7C6C4;fill-rule:nonzero}
    .fil6 {fill:#C9C8C6;fill-rule:nonzero}
    .fil7 {fill:#CBCBC9;fill-rule:nonzero}
    .fil8 {fill:#CECDCB;fill-rule:nonzero}
    .fil9 {fill:#D0CFCD;fill-rule:nonzero}
    .fil10 {fill:#D2D1D0;fill-rule:nonzero}
    .fil11 {fill:#D4D3D2;fill-rule:nonzero}
    .fil12 {fill:#D6D5D4;fill-rule:nonzero}
    .fil13 {fill:#D8D7D6;fill-rule:nonzero}
    .fil14 {fill:#DAD9D8;fill-rule:nonzero}
    .fil0 {fill:#DBDBDA;fill-rule:nonzero}
    .fil15 {fill:#DCDBDA;fill-rule:nonzero}
    .fil263 {fill:#DCDCDB;fill-rule:nonzero}
    .fil16 {fill:#DEDDDC;fill-rule:nonzero}
    .fil17 {fill:#DFDEDD;fill-rule:nonzero}
    .fil18 {fill:#E1E0E0;fill-rule:nonzero}
    .fil264 {fill:#E31256;fill-rule:nonzero}
    .fil19 {fill:#E3E2E1;fill-rule:nonzero}
    .fil20 {fill:#E4E4E3;fill-rule:nonzero}
    .fil21 {fill:#E6E5E4;fill-rule:nonzero}
    .fil22 {fill:#E8E6E5;fill-rule:nonzero}
    .fil23 {fill:#E9E8E8;fill-rule:nonzero}
    .fil24 {fill:#EAE9E9;fill-rule:nonzero}
    .fil25 {fill:#EBEAEA;fill-rule:nonzero}
    .fil26 {fill:#EDECEB;fill-rule:nonzero}
    .fil27 {fill:#EDEDEC;fill-rule:nonzero}
    .fil2 {fill:#EEEDEC;fill-rule:nonzero}
    .fil28 {fill:#EFEEED;fill-rule:nonzero}
    .fil29 {fill:#F0EFEE;fill-rule:nonzero}
    .fil30 {fill:#F1F0F0;fill-rule:nonzero}
    .fil31 {fill:#F1F1F1;fill-rule:nonzero}
    .fil32 {fill:#F2F2F2;fill-rule:nonzero}
    .fil33 {fill:#F3F3F3;fill-rule:nonzero}
    .fil34 {fill:#F4F4F4;fill-rule:nonzero}
    .fil35 {fill:#F5F5F4;fill-rule:nonzero}
    .fil36 {fill:whitesmoke;fill-rule:nonzero}
    .fil37 {fill:#F6F6F6;fill-rule:nonzero}
    .fil38 {fill:#F7F7F6;fill-rule:nonzero}
    .fil39 {fill:#F8F8F8;fill-rule:nonzero}
    .fil40 {fill:#F9F8F8;fill-rule:nonzero}
    .fil41 {fill:#F9F9F9;fill-rule:nonzero}
    .fil42 {fill:#FAFAFA;fill-rule:nonzero}
    .fil43 {fill:#FBFBFB;fill-rule:nonzero}
    .fil44 {fill:#FCFCFC;fill-rule:nonzero}
    .fil45 {fill:#FDFCFC;fill-rule:nonzero}
    .fil46 {fill:#FDFDFD;fill-rule:nonzero}
    .fil47 {fill:#FEFEFE;fill-rule:nonzero}
   ]]>
  </style>
 </defs>
 <g id="ﾃ神x00a1_ﾃ神x00bb_ﾃ神x00be_ﾃ神x00b9__x0020_1">
  <metadata id="CorelCorpID_0Corel-Layer"/>
  <g id="_285165992">
   <polygon class="fil0" points="528,31 588,31 588,91 528,91 "/>
   <path class="fil1" d="M590 93l-64 0 0 -64 64 0 0 64zm-60 -4l0 0 56 0 0 -56 -56 0 0 56z"/>
   <polygon class="fil0" points="528,91 588,91 588,151 528,151 "/>
   <path class="fil1" d="M590 153l-64 0 0 -64 64 0 0 64zm-60 -4l0 0 56 0 0 -56 -56 0 0 56z"/>
   <polygon class="fil0" points="528,150 588,150 588,210 528,210 "/>
   <path class="fil1" d="M590 212l-64 0 0 -64 64 0 0 64zm-60 -4l0 0 56 0 0 -56 -56 0 0 56z"/>
   <polygon class="fil0" points="528,210 588,210 588,270 528,270 "/>
   <path class="fil1" d="M590 272l-64 0 0 -64 64 0 0 64zm-60 -4l0 0 56 0 0 -56 -56 0 0 56z"/>
   <polygon class="fil0" points="528,269 588,269 588,329 528,329 "/>
   <path class="fil1" d="M590 331l-64 0 0 -64 64 0 0 64zm-60 -4l0 0 56 0 0 -56 -56 0 0 56z"/>
   <polygon class="fil0" points="528,328 588,328 588,388 528,388 "/>
   <path class="fil1" d="M590 390l-64 0 0 -64 64 0 0 64zm-60 -4l0 0 56 0 0 -56 -56 0 0 56z"/>
   <polygon class="fil0" points="528,387 588,387 588,447 528,447 "/>
   <path class="fil1" d="M590 449l-64 0 0 -64 64 0 0 64zm-60 -4l0 0 56 0 0 -56 -56 0 0 56z"/>
   <polygon class="fil2" points="587,31 647,31 647,91 587,91 "/>
   <path class="fil1" d="M649 93l-64 0 0 -64 64 0 0 64zm-60 -4l0 0 56 0 0 -56 -56 0 0 56z"/>
   <polygon class="fil0" points="587,91 647,91 647,151 587,151 "/>
   <path class="fil1" d="M649 153l-64 0 0 -64 64 0 0 64zm-60 -4l0 0 56 0 0 -56 -56 0 0 56z"/>
   <polygon class="fil2" points="587,150 647,150 647,210 587,210 "/>
   <path class="fil1" d="M649 212l-64 0 0 -64 64 0 0 64zm-60 -4l0 0 56 0 0 -56 -56 0 0 56z"/>
   <polygon class="fil0" points="587,210 647,210 647,270 587,270 "/>
   <path class="fil1" d="M649 272l-64 0 0 -64 64 0 0 64zm-60 -4l0 0 56 0 0 -56 -56 0 0 56z"/>
   <polygon class="fil2" points="587,269 647,269 647,329 587,329 "/>
   <path class="fil1" d="M649 331l-64 0 0 -64 64 0 0 64zm-60 -4l0 0 56 0 0 -56 -56 0 0 56z"/>
   <polygon class="fil0" points="587,328 647,328 647,388 587,388 "/>
   <path class="fil1" d="M649 390l-64 0 0 -64 64 0 0 64zm-60 -4l0 0 56 0 0 -56 -56 0 0 56z"/>
   <polygon class="fil2" points="587,387 647,387 647,447 587,447 "/>
   <path class="fil1" d="M649 449l-64 0 0 -64 64 0 0 64zm-60 -4l0 0 56 0 0 -56 -56 0 0 56z"/>
   <polygon class="fil0" points="707,31 766,31 766,91 707,91 "/>
   <path class="fil1" d="M768 93l-64 0 0 -64 64 0 0 64zm-60 -4l0 0 56 0 0 -56 -56 0 0 56z"/>
   <polygon class="fil0" points="707,91 766,91 766,151 707,151 "/>
   <path class="fil1" d="M768 153l-64 0 0 -64 64 0 0 64zm-60 -4l0 0 56 0 0 -56 -56 0 0 56z"/>
   <polygon class="fil0" points="707,150 766,150 766,210 707,210 "/>
   <path class="fil1" d="M768 212l-64 0 0 -64 64 0 0 64zm-60 -4l0 0 56 0 0 -56 -56 0 0 56z"/>
   <polygon class="fil0" points="707,210 766,210 766,270 707,270 "/>
   <path class="fil1" d="M768 272l-64 0 0 -64 64 0 0 64zm-60 -4l0 0 56 0 0 -56 -56 0 0 56z"/>
   <polygon class="fil0" points="707,269 766,269 766,329 707,329 "/>
   <path class="fil1" d="M768 331l-64 0 0 -64 64 0 0 64zm-60 -4l0 0 56 0 0 -56 -56 0 0 56z"/>
   <polygon class="fil0" points="707,328 766,328 766,388 707,388 "/>
   <path class="fil1" d="M768 390l-64 0 0 -64 64 0 0 64zm-60 -4l0 0 56 0 0 -56 -56 0 0 56z"/>
   <polygon class="fil0" points="707,387 766,387 766,447 707,447 "/>
   <path class="fil1" d="M768 449l-64 0 0 -64 64 0 0 64zm-60 -4l0 0 56 0 0 -56 -56 0 0 56z"/>
   <polygon class="fil2" points="647,31 707,31 707,91 647,91 "/>
   <path class="fil1" d="M709 93l-64 0 0 -64 64 0 0 64zm-60 -4l0 0 56 0 0 -56 -56 0 0 56z"/>
   <polygon class="fil0" points="647,91 707,91 707,151 647,151 "/>
   <path class="fil1" d="M709 153l-64 0 0 -64 64 0 0 64zm-60 -4l0 0 56 0 0 -56 -56 0 0 56z"/>
   <polygon class="fil2" points="647,150 707,150 707,210 647,210 "/>
   <path class="fil1" d="M709 212l-64 0 0 -64 64 0 0 64zm-60 -4l0 0 56 0 0 -56 -56 0 0 56z"/>
   <polygon class="fil0" points="647,210 707,210 707,270 647,270 "/>
   <path class="fil1" d="M709 272l-64 0 0 -64 64 0 0 64zm-60 -4l0 0 56 0 0 -56 -56 0 0 56z"/>
   <polygon class="fil2" points="647,269 707,269 707,329 647,329 "/>
   <path class="fil1" d="M709 331l-64 0 0 -64 64 0 0 64zm-60 -4l0 0 56 0 0 -56 -56 0 0 56z"/>
   <polygon class="fil0" points="647,328 707,328 707,388 647,388 "/>
   <path class="fil1" d="M709 390l-64 0 0 -64 64 0 0 64zm-60 -4l0 0 56 0 0 -56 -56 0 0 56z"/>
   <polygon class="fil2" points="647,387 707,387 707,447 647,447 "/>
   <path class="fil1" d="M709 449l-64 0 0 -64 64 0 0 64zm-60 -4l0 0 56 0 0 -56 -56 0 0 56z"/>
   <polygon class="fil0" points="528,447 588,447 588,507 528,507 "/>
   <path class="fil1" d="M590 509l-64 0 0 -64 64 0 0 64zm-60 -4l0 0 56 0 0 -56 -56 0 0 56z"/>
   <polygon class="fil0" points="528,507 588,507 588,566 528,566 "/>
   <path class="fil1" d="M590 568l-64 0 0 -64 64 0 0 64zm-60 -4l0 0 56 0 0 -56 -56 0 0 56z"/>
   <polygon class="fil0" points="528,566 588,566 588,626 528,626 "/>
   <path class="fil1" d="M590 628l-64 0 0 -64 64 0 0 64zm-60 -4l0 0 56 0 0 -56 -56 0 0 56z"/>
   <polygon class="fil0" points="587,447 647,447 647,507 587,507 "/>
   <path class="fil1" d="M649 509l-64 0 0 -64 64 0 0 64zm-60 -4l0 0 56 0 0 -56 -56 0 0 56z"/>
   <polygon class="fil2" points="587,507 647,507 647,566 587,566 "/>
   <path class="fil1" d="M649 568l-64 0 0 -64 64 0 0 64zm-60 -4l0 0 56 0 0 -56 -56 0 0 56z"/>
   <polygon class="fil0" points="587,566 647,566 647,626 587,626 "/>
   <path class="fil1" d="M649 628l-64 0 0 -64 64 0 0 64zm-60 -4l0 0 56 0 0 -56 -56 0 0 56z"/>
   <polygon class="fil0" points="707,447 766,447 766,507 707,507 "/>
   <path class="fil1" d="M768 509l-64 0 0 -64 64 0 0 64zm-60 -4l0 0 56 0 0 -56 -56 0 0 56z"/>
   <polygon class="fil0" points="707,507 766,507 766,566 707,566 "/>
   <path class="fil1" d="M768 568l-64 0 0 -64 64 0 0 64zm-60 -4l0 0 56 0 0 -56 -56 0 0 56z"/>
   <polygon class="fil0" points="707,566 766,566 766,626 707,626 "/>
   <path class="fil1" d="M768 628l-64 0 0 -64 64 0 0 64zm-60 -4l0 0 56 0 0 -56 -56 0 0 56z"/>
   <polygon class="fil0" points="647,447 707,447 707,507 647,507 "/>
   <path class="fil1" d="M709 509l-64 0 0 -64 64 0 0 64zm-60 -4l0 0 56 0 0 -56 -56 0 0 56z"/>
   <polygon class="fil2" points="647,507 707,507 707,566 647,566 "/>
   <path class="fil1" d="M709 568l-64 0 0 -64 64 0 0 64zm-60 -4l0 0 56 0 0 -56 -56 0 0 56z"/>
   <polygon class="fil0" points="647,566 707,566 707,626 647,626 "/>
   <path class="fil1" d="M709 628l-64 0 0 -64 64 0 0 64zm-60 -4l0 0 56 0 0 -56 -56 0 0 56z"/>
   <polygon class="fil2" points="767,31 827,31 827,91 767,91 "/>
   <path class="fil1" d="M829 93l-64 0 0 -64 64 0 0 64zm-60 -4l0 0 56 0 0 -56 -56 0 0 56z"/>
   <polygon class="fil0" points="767,91 827,91 827,151 767,151 "/>
   <path class="fil1" d="M829 153l-64 0 0 -64 64 0 0 64zm-60 -4l0 0 56 0 0 -56 -56 0 0 56z"/>
   <polygon class="fil2" points="767,150 827,150 827,210 767,210 "/>
   <path class="fil1" d="M829 212l-64 0 0 -64 64 0 0 64zm-60 -4l0 0 56 0 0 -56 -56 0 0 56z"/>
   <polygon class="fil0" points="767,210 827,210 827,270 767,270 "/>
   <path class="fil1" d="M829 272l-64 0 0 -64 64 0 0 64zm-60 -4l0 0 56 0 0 -56 -56 0 0 56z"/>
   <polygon class="fil2" points="767,269 827,269 827,329 767,329 "/>
   <path class="fil1" d="M829 331l-64 0 0 -64 64 0 0 64zm-60 -4l0 0 56 0 0 -56 -56 0 0 56z"/>
   <polygon class="fil0" points="767,328 827,328 827,388 767,388 "/>
   <path class="fil1" d="M829 390l-64 0 0 -64 64 0 0 64zm-60 -4l0 0 56 0 0 -56 -56 0 0 56z"/>
   <polygon class="fil2" points="767,387 827,387 827,447 767,447 "/>
   <path class="fil1" d="M829 449l-64 0 0 -64 64 0 0 64zm-60 -4l0 0 56 0 0 -56 -56 0 0 56z"/>
   <polygon class="fil0" points="887,31 946,31 946,91 887,91 "/>
   <path class="fil1" d="M948 93l-64 0 0 -64 64 0 0 64zm-60 -4l0 0 56 0 0 -56 -56 0 0 56z"/>
   <polygon class="fil0" points="887,91 946,91 946,151 887,151 "/>
   <path class="fil1" d="M948 153l-64 0 0 -64 64 0 0 64zm-60 -4l0 0 56 0 0 -56 -56 0 0 56z"/>
   <polygon class="fil0" points="887,150 946,150 946,210 887,210 "/>
   <path class="fil1" d="M948 212l-64 0 0 -64 64 0 0 64zm-60 -4l0 0 56 0 0 -56 -56 0 0 56z"/>
   <polygon class="fil0" points="887,210 946,210 946,270 887,270 "/>
   <path class="fil1" d="M948 272l-64 0 0 -64 64 0 0 64zm-60 -4l0 0 56 0 0 -56 -56 0 0 56z"/>
   <polygon class="fil0" points="887,269 946,269 946,329 887,329 "/>
   <path class="fil1" d="M948 331l-64 0 0 -64 64 0 0 64zm-60 -4l0 0 56 0 0 -56 -56 0 0 56z"/>
   <polygon class="fil0" points="887,328 946,328 946,388 887,388 "/>
   <path class="fil1" d="M948 390l-64 0 0 -64 64 0 0 64zm-60 -4l0 0 56 0 0 -56 -56 0 0 56z"/>
   <polygon class="fil0" points="887,387 946,387 946,447 887,447 "/>
   <path class="fil1" d="M948 449l-64 0 0 -64 64 0 0 64zm-60 -4l0 0 56 0 0 -56 -56 0 0 56z"/>
   <polygon class="fil2" points="827,31 887,31 887,91 827,91 "/>
   <path class="fil1" d="M888 93l-64 0 0 -64 64 0 0 64zm-60 -4l0 0 56 0 0 -56 -56 0 0 56z"/>
   <polygon class="fil0" points="827,91 887,91 887,151 827,151 "/>
   <path class="fil1" d="M888 153l-64 0 0 -64 64 0 0 64zm-60 -4l0 0 56 0 0 -56 -56 0 0 56z"/>
   <polygon class="fil2" points="827,150 887,150 887,210 827,210 "/>
   <path class="fil1" d="M888 212l-64 0 0 -64 64 0 0 64zm-60 -4l0 0 56 0 0 -56 -56 0 0 56z"/>
   <polygon class="fil0" points="827,210 887,210 887,270 827,270 "/>
   <path class="fil1" d="M888 272l-64 0 0 -64 64 0 0 64zm-60 -4l0 0 56 0 0 -56 -56 0 0 56z"/>
   <polygon class="fil2" points="827,269 887,269 887,329 827,329 "/>
   <path class="fil1" d="M888 331l-64 0 0 -64 64 0 0 64zm-60 -4l0 0 56 0 0 -56 -56 0 0 56z"/>
   <polygon class="fil0" points="827,328 887,328 887,388 827,388 "/>
   <path class="fil1" d="M888 390l-64 0 0 -64 64 0 0 64zm-60 -4l0 0 56 0 0 -56 -56 0 0 56z"/>
   <polygon class="fil2" points="827,387 887,387 887,447 827,447 "/>
   <path class="fil1" d="M888 449l-64 0 0 -64 64 0 0 64zm-60 -4l0 0 56 0 0 -56 -56 0 0 56z"/>
   <polygon class="fil0" points="767,447 827,447 827,507 767,507 "/>
   <path class="fil1" d="M829 509l-64 0 0 -64 64 0 0 64zm-60 -4l0 0 56 0 0 -56 -56 0 0 56z"/>
   <polygon class="fil2" points="767,507 827,507 827,566 767,566 "/>
   <path class="fil1" d="M829 568l-64 0 0 -64 64 0 0 64zm-60 -4l0 0 56 0 0 -56 -56 0 0 56z"/>
   <polygon class="fil0" points="767,566 827,566 827,626 767,626 "/>
   <path class="fil1" d="M829 628l-64 0 0 -64 64 0 0 64zm-60 -4l0 0 56 0 0 -56 -56 0 0 56z"/>
   <polygon class="fil0" points="887,447 946,447 946,507 887,507 "/>
   <path class="fil1" d="M948 509l-64 0 0 -64 64 0 0 64zm-60 -4l0 0 56 0 0 -56 -56 0 0 56z"/>
   <polygon class="fil0" points="887,507 946,507 946,566 887,566 "/>
   <path class="fil1" d="M948 568l-64 0 0 -64 64 0 0 64zm-60 -4l0 0 56 0 0 -56 -56 0 0 56z"/>
   <polygon class="fil0" points="887,566 946,566 946,626 887,626 "/>
   <path class="fil1" d="M948 628l-64 0 0 -64 64 0 0 64zm-60 -4l0 0 56 0 0 -56 -56 0 0 56z"/>
   <polygon class="fil0" points="827,447 887,447 887,507 827,507 "/>
   <path class="fil1" d="M888 509l-64 0 0 -64 64 0 0 64zm-60 -4l0 0 56 0 0 -56 -56 0 0 56z"/>
   <polygon class="fil2" points="827,507 887,507 887,566 827,566 "/>
   <path class="fil1" d="M888 568l-64 0 0 -64 64 0 0 64zm-60 -4l0 0 56 0 0 -56 -56 0 0 56z"/>
   <polygon class="fil0" points="827,566 887,566 887,626 827,626 "/>
   <path class="fil1" d="M888 628l-64 0 0 -64 64 0 0 64zm-60 -4l0 0 56 0 0 -56 -56 0 0 56z"/>
   <polygon class="fil3" points="948,771 467,771 467,624 948,624 "/>
   <path class="fil4" d="M452 789c0,-10 8,-18 18,-18l455 0c10,0 18,8 18,18l0 169c0,10 -8,18 -18,18l-455 0c-10,0 -18,-8 -18,-18l0 -169z"/>
   <path class="fil4" d="M654 873c0,41 -33,74 -74,74 -41,0 -74,-33 -74,-74 0,-41 33,-74 74,-74 41,0 74,33 74,74z"/>
   <path class="fil5" d="M653 873c0,40 -33,73 -73,73 -40,0 -73,-33 -73,-73 0,-40 33,-73 73,-73 40,0 73,33 73,73z"/>
   <path class="fil6" d="M652 873c0,40 -32,72 -72,72 -40,0 -72,-32 -72,-72 0,-40 32,-72 72,-72 40,0 72,32 72,72z"/>
   <path class="fil7" d="M651 873c0,39 -32,71 -71,71 -39,0 -71,-32 -71,-71 0,-39 32,-71 71,-71 39,0 71,32 71,71z"/>
   <path class="fil8" d="M650 873c0,39 -31,70 -70,70 -39,0 -70,-31 -70,-70 0,-39 31,-70 70,-70 39,0 70,31 70,70z"/>
   <path class="fil9" d="M649 873c0,38 -31,69 -69,69 -38,0 -69,-31 -69,-69 0,-38 31,-69 69,-69 38,0 69,31 69,69z"/>
   <path class="fil10" d="M648 873c0,37 -30,68 -68,68 -37,0 -68,-30 -68,-68 0,-38 30,-68 68,-68 37,0 68,30 68,68z"/>
   <path class="fil11" d="M647 873c0,37 -30,67 -67,67 -37,0 -67,-30 -67,-67 0,-37 30,-67 67,-67 37,0 67,30 67,67z"/>
   <path class="fil12" d="M646 873c0,36 -30,66 -66,66 -36,0 -66,-29 -66,-66 0,-36 30,-66 66,-66 36,0 66,29 66,66z"/>
   <path class="fil13" d="M645 873c0,36 -29,65 -65,65 -36,0 -65,-29 -65,-65 0,-36 29,-65 65,-65 36,0 65,29 65,65z"/>
   <path class="fil14" d="M644 873c0,35 -28,64 -64,64 -35,0 -64,-29 -64,-64 0,-35 28,-64 64,-64 35,0 64,29 64,64z"/>
   <path class="fil15" d="M643 873c0,35 -28,63 -63,63 -35,0 -63,-28 -63,-63 0,-35 28,-63 63,-63 35,0 63,28 63,63z"/>
   <path class="fil16" d="M642 873c0,34 -28,62 -62,62 -34,0 -62,-28 -62,-62 0,-34 28,-62 62,-62 34,0 62,28 62,62z"/>
   <path class="fil17" d="M641 873c0,33 -27,61 -61,61 -34,0 -61,-27 -61,-61 0,-34 27,-61 61,-61 34,0 61,27 61,61z"/>
   <path class="fil18" d="M639 873c0,33 -27,60 -60,60 -33,0 -60,-27 -60,-60 0,-33 27,-60 60,-60 33,0 60,27 60,60z"/>
   <path class="fil19" d="M638 873c0,32 -26,59 -59,59 -32,0 -59,-26 -59,-59 0,-32 26,-59 59,-59 32,0 59,26 59,59z"/>
   <path class="fil20" d="M637 873c0,32 -26,58 -58,58 -32,0 -58,-26 -58,-58 0,-32 26,-58 58,-58 32,0 58,26 58,58z"/>
   <path class="fil21" d="M636 873c0,31 -25,56 -57,56 -31,0 -57,-25 -57,-56 0,-31 25,-57 57,-57 31,0 57,25 57,57z"/>
   <path class="fil22" d="M635 873c0,31 -25,56 -56,56 -31,0 -56,-25 -56,-56 0,-31 25,-56 56,-56 31,0 56,25 56,56z"/>
   <path class="fil23" d="M634 873c0,30 -24,55 -55,55 -30,0 -54,-24 -54,-55 0,-30 24,-55 54,-55 30,0 55,24 55,55z"/>
   <path class="fil24" d="M633 873c0,29 -24,53 -54,53 -30,0 -53,-24 -53,-53 0,-30 24,-54 53,-54 30,0 54,24 54,54z"/>
   <path class="fil25" d="M632 873c0,29 -23,52 -52,52 -29,0 -52,-24 -52,-52 0,-29 23,-53 52,-53 29,0 52,23 52,53z"/>
   <path class="fil26" d="M631 873c0,28 -23,51 -51,51 -28,0 -51,-23 -51,-51 0,-29 23,-51 51,-51 28,0 51,23 51,51z"/>
   <path class="fil27" d="M630 873c0,28 -23,50 -50,50 -28,0 -50,-23 -50,-50 0,-28 23,-50 50,-50 28,0 50,22 50,50z"/>
   <path class="fil28" d="M629 873c0,27 -22,49 -49,49 -27,0 -49,-22 -49,-49 0,-27 22,-49 49,-49 27,0 49,22 49,49z"/>
   <path class="fil29" d="M628 873c0,27 -22,48 -48,48 -27,0 -48,-22 -48,-48 0,-27 22,-48 48,-48 27,0 48,22 48,48z"/>
   <path class="fil30" d="M627 873c0,26 -21,47 -47,47 -26,0 -47,-21 -47,-47 0,-26 21,-47 47,-47 26,0 47,21 47,47z"/>
   <path class="fil31" d="M626 873c0,26 -21,46 -46,46 -26,0 -46,-21 -46,-46 0,-26 21,-46 46,-46 26,0 46,21 46,46z"/>
   <path class="fil32" d="M625 873c0,25 -20,45 -45,45 -25,0 -45,-20 -45,-45 0,-25 20,-45 45,-45 25,0 45,20 45,45z"/>
   <path class="fil33" d="M624 873c0,24 -20,44 -44,44 -24,0 -44,-20 -44,-44 0,-24 20,-44 44,-44 24,0 44,20 44,44z"/>
   <path class="fil34" d="M623 873c0,24 -19,43 -43,43 -24,0 -43,-19 -43,-43 0,-24 19,-43 43,-43 24,0 43,19 43,43z"/>
   <path class="fil35" d="M622 873c0,23 -19,42 -42,42 -23,0 -42,-19 -42,-42 0,-23 19,-42 42,-42 23,0 42,19 42,42z"/>
   <path class="fil36" d="M621 873c0,23 -18,41 -41,41 -23,0 -41,-18 -41,-41 0,-23 18,-41 41,-41 23,0 41,18 41,41z"/>
   <path class="fil37" d="M620 873c0,22 -18,40 -40,40 -22,0 -40,-18 -40,-40 0,-22 18,-40 40,-40 22,0 40,18 40,40z"/>
   <path class="fil38" d="M619 873c0,22 -18,39 -39,39 -22,0 -39,-18 -39,-39 0,-22 18,-39 39,-39 22,0 39,17 39,39z"/>
   <path class="fil39" d="M618 873c0,21 -17,38 -38,38 -21,0 -38,-17 -38,-38 0,-21 17,-38 38,-38 21,0 38,17 38,38z"/>
   <path class="fil40" d="M617 873c0,20 -17,37 -37,37 -20,0 -37,-17 -37,-37 0,-20 17,-37 37,-37 20,0 37,17 37,37z"/>
   <path class="fil41" d="M616 873c0,20 -16,36 -36,36 -20,0 -36,-16 -36,-36 0,-20 16,-36 36,-36 20,0 36,16 36,36z"/>
   <path class="fil41" d="M615 873c0,19 -16,35 -35,35 -19,0 -35,-16 -35,-35 0,-19 16,-35 35,-35 19,0 35,16 35,35z"/>
   <path class="fil42" d="M614 873c0,19 -15,34 -34,34 -19,0 -34,-15 -34,-34 0,-19 15,-34 34,-34 19,0 34,15 34,34z"/>
   <path class="fil42" d="M613 873c0,18 -15,33 -33,33 -18,0 -33,-15 -33,-33 0,-18 15,-33 33,-33 18,0 33,15 33,33z"/>
   <path class="fil43" d="M612 873c0,18 -14,32 -32,32 -18,0 -32,-14 -32,-32 0,-18 14,-32 32,-32 18,0 32,14 32,32z"/>
   <path class="fil43" d="M611 873c0,17 -14,31 -31,31 -17,0 -31,-14 -31,-31 0,-17 14,-31 31,-31 17,0 31,14 31,31z"/>
   <path class="fil43" d="M610 873c0,16 -13,30 -30,30 -16,0 -30,-13 -30,-30 0,-17 13,-30 30,-30 16,0 30,13 30,30z"/>
   <path class="fil44" d="M609 873c0,16 -13,29 -29,29 -16,0 -29,-13 -29,-29 0,-16 13,-29 29,-29 16,0 29,13 29,29z"/>
   <path class="fil44" d="M608 873c0,15 -12,28 -28,28 -15,0 -28,-12 -28,-28 0,-15 12,-28 28,-28 15,0 28,12 28,28z"/>
   <path class="fil45" d="M607 873c0,15 -12,27 -27,27 -15,0 -27,-12 -27,-27 0,-15 12,-27 27,-27 15,0 27,12 27,27z"/>
   <path class="fil46" d="M605 873c0,14 -11,26 -26,26 -14,0 -26,-12 -26,-26 0,-14 11,-26 26,-26 14,0 26,12 26,26z"/>
   <path class="fil46" d="M604 873c0,14 -11,25 -25,25 -14,0 -25,-11 -25,-25 0,-14 11,-25 25,-25 14,0 25,11 25,25z"/>
   <path class="fil46" d="M603 873c0,13 -11,24 -24,24 -13,0 -24,-11 -24,-24 0,-13 11,-24 24,-24 13,0 24,11 24,24z"/>
   <path class="fil46" d="M602 873c0,12 -10,23 -23,23 -13,0 -23,-10 -23,-23 0,-13 10,-23 23,-23 13,0 23,10 23,23z"/>
   <path class="fil46" d="M601 873c0,12 -10,22 -22,22 -12,0 -22,-10 -22,-22 0,-12 10,-22 22,-22 12,0 22,10 22,22z"/>
   <path class="fil46" d="M600 873c0,11 -9,21 -21,21 -11,0 -21,-9 -21,-21 0,-11 9,-21 21,-21 11,0 21,9 21,21z"/>
   <path class="fil47" d="M599 873c0,11 -9,20 -20,20 -11,0 -20,-9 -20,-20 0,-11 9,-20 20,-20 11,0 20,9 20,20z"/>
   <path class="fil47" d="M598 873c0,10 -8,18 -19,18 -10,0 -19,-8 -19,-18 0,-10 8,-19 19,-19 10,0 19,8 19,19z"/>
   <path class="fil47" d="M597 873c0,10 -8,17 -18,17 -10,0 -17,-8 -17,-17 0,-10 8,-18 17,-18 10,0 18,8 18,18z"/>
   <path class="fil47" d="M596 873c0,9 -7,16 -16,16 -9,0 -16,-7 -16,-16 0,-9 7,-16 16,-16 9,0 16,7 16,16z"/>
   <path class="fil47" d="M595 873c0,9 -7,15 -15,15 -8,0 -15,-7 -15,-15 0,-9 7,-15 15,-15 9,0 15,7 15,15z"/>
   <path class="fil47" d="M594 873c0,8 -6,14 -14,14 -8,0 -14,-6 -14,-14 0,-8 6,-14 14,-14 8,0 14,6 14,14z"/>
   <path class="fil47" d="M593 873c0,7 -6,13 -13,13 -7,0 -13,-6 -13,-13 0,-7 6,-13 13,-13 7,0 13,6 13,13z"/>
   <path class="fil47" d="M592 873c0,7 -6,12 -12,12 -7,0 -12,-6 -12,-12 0,-7 6,-12 12,-12 7,0 12,6 12,12z"/>
   <path class="fil47" d="M591 873c0,6 -5,11 -11,11 -6,0 -11,-5 -11,-11 0,-6 5,-11 11,-11 6,0 11,5 11,11z"/>
   <path class="fil47" d="M590 873c0,6 -5,10 -10,10 -6,0 -10,-5 -10,-10 0,-6 5,-10 10,-10 6,0 10,5 10,10z"/>
   <path class="fil47" d="M589 873c0,5 -4,9 -9,9 -5,0 -9,-4 -9,-9 0,-5 4,-9 9,-9 5,0 9,4 9,9z"/>
   <path class="fil47" d="M588 873c0,4 -4,8 -8,8 -4,0 -8,-4 -8,-8 0,-5 4,-8 8,-8 5,0 8,4 8,8z"/>
   <path class="fil47" d="M587 873c0,4 -3,7 -7,7 -4,0 -7,-3 -7,-7 0,-4 3,-7 7,-7 4,0 7,3 7,7z"/>
   <path class="fil47" d="M586 873c0,3 -3,6 -6,6 -3,0 -6,-3 -6,-6 0,-3 3,-6 6,-6 3,0 6,3 6,6z"/>
   <path class="fil47" d="M585 873c0,3 -2,5 -5,5 -3,0 -5,-2 -5,-5 0,-3 2,-5 5,-5 3,0 5,2 5,5z"/>
   <path class="fil47" d="M584 873c0,2 -2,4 -4,4 -2,0 -4,-2 -4,-4 0,-2 2,-4 4,-4 2,0 4,2 4,4z"/>
   <path class="fil47" d="M583 873c0,2 -1,3 -3,3 -2,0 -3,-1 -3,-3 0,-2 1,-3 3,-3 2,0 3,1 3,3z"/>
   <path class="fil47" d="M582 873c0,1 -1,2 -2,2 -1,0 -2,-1 -2,-2 0,-1 1,-2 2,-2 1,0 2,1 2,2z"/>
   <path class="fil47" d="M581 873c0,1 -1,1 -1,1 -1,0 -1,0 -1,-1 0,-1 1,-1 1,-1 1,0 1,1 1,1z"/>
   <path class="fil48" d="M521 798l118 0c8,0 14,7 14,15l0 121c0,8 -7,15 -15,15l-116 0c-8,0 -15,-7 -15,-15l0 -121c0,-8 6,-14 14,-15z"/>
   <path class="fil49" d="M638 951l-116 0c-10,0 -18,-8 -18,-18l0 -121c0,-10 8,-18 18,-18l116 0c10,0 18,8 18,18l0 121c0,10 -8,18 -18,18zm-116 -150l0 0c-6,0 -12,5 -12,12l0 121c0,6 5,12 12,12l116 0c7,0 12,-5 12,-12l0 -121c0,-6 -5,-12 -12,-12l-116 0z"/>
   <path class="fil50" d="M579 902c0,-16 -13,-29 -29,-29 -16,0 -29,13 -29,29 0,16 13,29 29,29 16,0 29,-13 29,-29z"/>
   <path class="fil50" d="M637 844c0,-16 -13,-29 -29,-29 -16,0 -29,13 -29,29 0,16 13,29 29,29 16,0 29,-13 29,-29z"/>
   <path class="fil50" d="M569 839c0,-12 -10,-22 -22,-22 -12,0 -22,10 -22,22 0,12 10,22 22,22 12,0 22,-10 22,-22z"/>
   <path class="fil50" d="M636 904c0,-12 -10,-22 -22,-22 -12,0 -22,10 -22,22 0,12 10,22 22,22 12,0 22,-10 22,-22z"/>
   <polygon class="fil51" points="986,2182 832,2182 832,2285 986,2285 "/>
   <polygon class="fil51" points="403,2182 0,2182 0,2285 403,2285 "/>
   <polygon class="fil51" points="0,0 131,0 131,52 0,52 "/>
   <polygon class="fil51" points="0,26 52,26 52,2238 0,2238 "/>
   <polygon class="fil51" points="934,26 986,26 986,2238 934,2238 "/>
   <polygon class="fil51" points="366,0 986,0 986,52 366,52 "/>
   <polygon class="fil51" points="0,637 91,637 91,610 0,610 "/>
   <polygon class="fil51" points="506,26 532,26 532,270 506,270 "/>
   <polygon class="fil51" points="506,429 532,429 532,637 506,637 "/>
   <polygon class="fil51" points="453,610 480,610 480,793 453,793 "/>
   <polygon class="fil51" points="829,610 856,610 856,793 829,793 "/>
   <polygon class="fil51" points="895,637 301,637 301,610 895,610 "/>
   <polygon class="fil51" points="962,793 453,793 453,767 962,767 "/>
   <polygon class="fil51" points="934,2238 908,2238 908,2612 934,2612 "/>
   <polygon class="fil51" points="79,2238 53,2238 53,2611 79,2611 "/>
   <polygon class="fil52" points="404,2285 404,2256 419,2256 419,2265 540,2182 540,2192 419,2275 419,2285 "/>
   <polygon class="fil53" points="832,2285 590,2285 590,2182 832,2182 "/>
   <polygon class="fil54" points="832,2211 590,2211 590,2182 832,2182 "/>
   <polygon class="fil54" points="832,2285 590,2285 590,2255 832,2255 "/>
   <path class="fil51" d="M917 2575c-125,6 -257,9 -398,9 -166,0 -320,-4 -464,-11 2,12 3,25 3,37 143,6 296,10 461,10 139,0 269,-3 392,-9 1,-12 3,-25 6,-37z"/>
   <polygon class="fil52" points="131,13 131,39 149,39 149,30 341,123 341,115 149,22 149,13 "/>
   <polygon class="fil52" points="531,429 505,429 505,411 514,411 442,263 450,263 522,411 531,411 "/>
   <polygon class="fil52" points="91,610 91,636 109,636 109,627 257,700 257,691 109,619 109,610 "/>
   <path class="fil55" d="M826 556l0 -80c0,-3 -2,-5 -5,-5l-31 0c-4,0 -6,4 -8,8 -19,-4 -42,-4 -53,-4 -30,0 -50,19 -50,43 0,24 20,44 50,44 11,0 34,-3 53,-7 2,3 5,6 8,6l31 0c3,0 5,-2 5,-5z"/>
   <path class="fil55" d="M765 517c0,-20 -18,-35 -39,-35 -22,0 -39,16 -39,35 0,20 17,35 39,35 21,0 39,-16 39,-35z"/>
   <path class="fil55" d="M830 556l0 -80c0,-3 -3,-5 -5,-5l-34 0c-7,0 -11,14 -11,17l0 57c0,5 4,16 11,16l34 0c3,0 5,-2 5,-5z"/>
   <path class="fil55" d="M727 507c-1,-1 -2,-1 -3,-1 -8,0 -15,5 -15,11 0,6 6,12 15,12 1,0 2,0 3,0l0 -22z"/>
   <path class="fil55" d="M799 485c0,-2 2,-3 4,-3 2,1 3,3 3,5 -2,4 -8,3 -7,-2z"/>
   <path class="fil55" d="M794 486c0,4 3,7 7,7 4,0 7,-3 7,-7 0,-4 -4,-7 -7,-7 -4,0 -7,3 -7,7z"/>
   <path class="fil55" d="M797 486c0,2 2,4 4,4 3,0 4,-2 4,-4 0,-3 -2,-4 -4,-4 -3,0 -4,2 -4,4z"/>
   <path class="fil56" d="M820 556l0 -80c0,-3 -2,-5 -5,-5l-30 0c-3,0 -5,4 -7,8 -19,-4 -41,-4 -52,-4 -28,0 -48,19 -48,43 0,24 20,44 48,44 11,0 33,-3 52,-7 2,3 4,6 7,6l30 0c3,0 5,-2 5,-5z"/>
   <path class="fil57" d="M776 517c0,-28 -23,-51 -52,-51 -28,0 -51,23 -51,51 0,29 23,51 51,51 29,0 52,-23 52,-51zm-1 0l0 0c0,28 -23,50 -51,50 -28,0 -50,-22 -50,-50 0,-28 23,-50 50,-50 28,0 51,23 51,50z"/>
   <path class="fil58" d="M776 517c0,-28 -23,-51 -51,-51 -28,0 -51,23 -51,51 0,28 23,51 51,51 29,0 51,-23 51,-51zm-1 0l0 0c0,27 -23,50 -50,50 -28,0 -50,-22 -50,-50 0,-28 22,-50 50,-50 28,0 50,22 50,50z"/>
   <path class="fil59" d="M775 517c0,-28 -23,-50 -51,-50 -28,0 -50,23 -50,50 0,28 23,50 50,50 28,0 51,-22 51,-50zm-1 0l0 0c0,27 -22,49 -50,49 -27,0 -49,-22 -49,-49 0,-27 22,-49 49,-49 28,0 50,22 50,49z"/>
   <path class="fil60" d="M775 517c0,-28 -23,-50 -50,-50 -28,0 -50,22 -50,50 0,27 22,50 50,50 28,0 50,-22 50,-50zm-1 0l0 0c0,27 -22,49 -49,49 -26,0 -49,-22 -49,-49 0,-27 22,-49 49,-49 27,0 49,22 49,49z"/>
   <path class="fil61" d="M774 517c0,-27 -22,-49 -50,-49 -27,0 -49,22 -49,49 0,27 22,49 49,49 27,0 50,-22 50,-49zm-1 0l0 0c0,27 -22,48 -49,48 -26,0 -48,-21 -48,-48 0,-26 22,-48 48,-48 27,0 49,22 49,48z"/>
   <path class="fil62" d="M774 517c0,-27 -22,-49 -49,-49 -26,0 -49,22 -49,49 0,27 22,49 49,49 27,0 49,-22 49,-49zm-1 0l0 0c0,26 -22,48 -48,48 -26,0 -48,-21 -48,-48 0,-26 22,-48 48,-48 26,0 48,22 48,48z"/>
   <path class="fil63" d="M773 517c0,-26 -22,-48 -49,-48 -26,0 -48,22 -48,48 0,27 22,48 48,48 27,0 49,-21 49,-48zm-1 0l0 0c0,26 -21,47 -48,47 -26,0 -47,-21 -47,-47 0,-26 21,-47 47,-47 26,0 48,21 48,47z"/>
   <path class="fil64" d="M773 517c0,-26 -22,-48 -48,-48 -26,0 -48,22 -48,48 0,26 22,48 48,48 26,0 48,-21 48,-48zm-1 0l0 0c0,26 -21,46 -47,46 -25,0 -47,-21 -47,-46 0,-25 21,-47 47,-47 26,0 47,21 47,47z"/>
   <path class="fil65" d="M772 517c0,-26 -21,-47 -48,-47 -26,0 -47,21 -47,47 0,26 21,47 47,47 26,0 48,-21 48,-47zm-1 0l0 0c0,25 -21,46 -46,46 -25,0 -46,-21 -46,-46 0,-25 21,-46 46,-46 26,0 46,21 46,46z"/>
   <path class="fil66" d="M772 517c0,-25 -21,-47 -47,-47 -25,0 -46,21 -46,47 0,26 21,46 46,46 26,0 47,-21 47,-46zm-1 0l0 0c0,25 -21,45 -46,45 -25,0 -45,-20 -45,-45 0,-25 21,-46 45,-46 25,0 46,21 46,46z"/>
   <path class="fil67" d="M771 517c0,-25 -21,-46 -46,-46 -25,0 -46,21 -46,46 0,25 21,46 46,46 26,0 46,-21 46,-46zm-1 0l0 0c0,25 -21,45 -45,45 -25,0 -45,-20 -45,-45 0,-25 20,-45 45,-45 25,0 45,20 45,45z"/>
   <path class="fil68" d="M771 517c0,-25 -21,-46 -46,-46 -25,0 -45,21 -45,46 0,25 21,45 45,45 25,0 46,-20 46,-45zm-1 0l0 0c0,25 -20,44 -45,44 -24,0 -44,-20 -44,-44 0,-24 20,-44 44,-44 25,0 45,20 45,44z"/>
   <path class="fil69" d="M770 517c0,-25 -21,-45 -45,-45 -25,0 -45,20 -45,45 0,25 20,45 45,45 25,0 45,-20 45,-45zm-1 0l0 0c0,24 -20,44 -44,44 -24,0 -44,-20 -44,-44 0,-24 20,-44 44,-44 24,0 44,20 44,44z"/>
   <path class="fil70" d="M770 517c0,-24 -20,-44 -45,-44 -24,0 -44,20 -44,44 0,25 20,44 44,44 25,0 45,-20 45,-44zm-1 0l0 0c0,24 -20,43 -44,43 -24,0 -43,-19 -43,-43 0,-24 20,-43 43,-43 24,0 44,20 44,43z"/>
   <path class="fil71" d="M769 517c0,-24 -20,-44 -44,-44 -24,0 -44,20 -44,44 0,24 20,44 44,44 24,0 44,-20 44,-44zm-1 0l0 0c0,24 -20,43 -43,43 -23,0 -43,-19 -43,-43 0,-23 20,-43 43,-43 24,0 43,20 43,43z"/>
   <path class="fil72" d="M768 517c0,-24 -20,-43 -44,-43 -24,0 -43,20 -43,43 0,24 20,43 43,43 24,0 44,-19 44,-43zm-1 0l0 0c0,24 -19,42 -43,42 -23,0 -42,-19 -42,-42 0,-23 19,-42 42,-42 24,0 43,19 43,42z"/>
   <path class="fil73" d="M768 517c0,-23 -20,-43 -43,-43 -23,0 -43,20 -43,43 0,24 20,43 43,43 24,0 43,-19 43,-43zm-1 0l0 0c0,23 -19,42 -42,42 -23,0 -42,-18 -42,-42 0,-23 19,-42 42,-42 23,0 42,19 42,42z"/>
   <path class="fil74" d="M767 517c0,-23 -19,-42 -43,-42 -23,0 -42,19 -42,42 0,24 19,42 42,42 24,0 43,-19 43,-42zm-1 0l0 0c0,23 -19,41 -42,41 -23,0 -41,-18 -41,-41 0,-23 19,-41 41,-41 23,0 42,18 42,41z"/>
   <path class="fil75" d="M767 517c0,-23 -19,-42 -42,-42 -23,0 -42,19 -42,42 0,23 19,42 42,42 23,0 42,-18 42,-42zm-1 0l0 0c0,23 -19,41 -41,41 -22,0 -41,-18 -41,-41 0,-22 19,-41 41,-41 23,0 41,19 41,41z"/>
   <path class="fil76" d="M766 517c0,-23 -19,-41 -42,-41 -23,0 -41,18 -41,41 0,23 19,41 41,41 23,0 42,-18 42,-41zm-1 0l0 0c0,22 -19,40 -41,40 -22,0 -40,-18 -40,-40 0,-22 18,-40 40,-40 22,0 41,18 41,40z"/>
   <path class="fil77" d="M766 517c0,-22 -19,-41 -41,-41 -22,0 -41,19 -41,41 0,23 19,41 41,41 23,0 41,-18 41,-41zm-1 0l0 0c0,22 -18,40 -40,40 -22,0 -40,-17 -40,-40 0,-22 18,-40 40,-40 22,0 40,18 40,40z"/>
   <path class="fil78" d="M765 517c0,-22 -19,-40 -41,-40 -22,0 -40,18 -40,40 0,22 18,40 40,40 22,0 41,-18 41,-40zm-1 0l0 0c0,22 -18,39 -40,39 -21,0 -39,-17 -39,-39 0,-22 18,-39 39,-39 22,0 40,17 40,39z"/>
   <path class="fil79" d="M765 517c0,-22 -18,-40 -40,-40 -22,0 -40,18 -40,40 0,22 18,40 40,40 22,0 40,-17 40,-40zm-1 0l0 0c0,22 -17,39 -39,39 -21,0 -39,-17 -39,-39 0,-21 17,-39 39,-39 22,0 39,17 39,39z"/>
   <path class="fil80" d="M764 517c0,-22 -18,-39 -40,-39 -21,0 -39,17 -39,39 0,22 18,39 39,39 22,0 40,-17 40,-39zm-1 0l0 0c0,21 -17,38 -39,38 -21,0 -38,-17 -38,-38 0,-21 17,-38 38,-38 21,0 39,17 39,38z"/>
   <path class="fil81" d="M764 517c0,-21 -17,-39 -39,-39 -21,0 -39,17 -39,39 0,22 17,39 39,39 22,0 39,-17 39,-39zm-1 0l0 0c0,21 -17,37 -38,37 -21,0 -38,-16 -38,-37 0,-21 17,-38 38,-38 21,0 38,17 38,38z"/>
   <path class="fil82" d="M763 517c0,-21 -17,-38 -39,-38 -21,0 -38,17 -38,38 0,21 17,38 38,38 21,0 39,-17 39,-38zm-1 0l0 0c0,21 -17,37 -37,37 -20,0 -37,-16 -37,-37 0,-20 17,-37 37,-37 21,0 37,17 37,37z"/>
   <path class="fil83" d="M763 517c0,-21 -17,-38 -38,-38 -21,0 -38,17 -38,38 0,21 17,37 38,37 21,0 38,-16 38,-37zm-1 0l0 0c0,20 -16,36 -37,36 -20,0 -36,-16 -36,-36 0,-20 16,-36 36,-36 21,0 37,16 37,36z"/>
   <path class="fil84" d="M762 517c0,-20 -17,-37 -37,-37 -20,0 -37,17 -37,37 0,21 17,37 37,37 21,0 37,-16 37,-37zm-1 0l0 0c0,20 -16,36 -36,36 -20,0 -36,-16 -36,-36 0,-20 16,-36 36,-36 20,0 36,16 36,36z"/>
   <path class="fil85" d="M762 517c0,-20 -16,-36 -37,-36 -20,0 -36,16 -36,36 0,20 16,36 36,36 21,0 37,-16 37,-36zm-1 0l0 0c0,20 -16,35 -36,35 -20,0 -35,-16 -35,-35 0,-20 16,-35 35,-35 20,0 36,16 36,35z"/>
   <path class="fil86" d="M761 517c0,-20 -16,-36 -36,-36 -20,0 -36,16 -36,36 0,20 16,36 36,36 20,0 36,-16 36,-36zm-1 0l0 0c0,20 -16,35 -35,35 -19,0 -35,-15 -35,-35 0,-19 16,-35 35,-35 20,0 35,16 35,35z"/>
   <path class="fil87" d="M761 517c0,-20 -16,-35 -36,-35 -20,0 -35,16 -35,35 0,20 16,35 35,35 20,0 36,-16 36,-35zm-1 0l0 0c0,19 -16,34 -35,34 -19,0 -34,-15 -34,-34 0,-19 15,-34 34,-34 19,0 35,15 35,34z"/>
   <path class="fil88" d="M760 517c0,-19 -16,-35 -35,-35 -19,0 -35,16 -35,35 0,20 16,35 35,35 20,0 35,-15 35,-35zm-1 0l0 0c0,19 -15,34 -34,34 -19,0 -34,-15 -34,-34 0,-19 15,-34 34,-34 19,0 34,15 34,34z"/>
   <path class="fil89" d="M759 517c0,-19 -16,-34 -35,-34 -19,0 -34,15 -34,34 0,19 15,34 34,34 19,0 35,-15 35,-34zm-1 0l0 0c0,18 -15,33 -34,33 -18,0 -33,-15 -33,-33 0,-19 15,-33 33,-33 18,0 34,15 34,33z"/>
   <path class="fil89" d="M759 517c0,-19 -15,-34 -34,-34 -19,0 -34,15 -34,34 0,19 15,34 34,34 19,0 34,-15 34,-34zm-1 0l0 0c0,18 -15,33 -33,33 -18,0 -33,-14 -33,-33 0,-18 15,-33 33,-33 18,0 33,15 33,33z"/>
   <path class="fil90" d="M758 517c0,-19 -15,-33 -34,-33 -18,0 -33,15 -33,33 0,18 15,33 33,33 18,0 34,-15 34,-33zm-1 0l0 0c0,18 -15,32 -33,32 -18,0 -32,-14 -32,-32 0,-18 15,-32 32,-32 18,0 33,15 33,32z"/>
   <path class="fil91" d="M758 517c0,-18 -15,-33 -33,-33 -18,0 -33,15 -33,33 0,18 15,33 33,33 18,0 33,-14 33,-33zm-1 0l0 0c0,17 -14,32 -32,32 -18,0 -32,-14 -32,-32 0,-18 14,-32 32,-32 18,0 32,14 32,32z"/>
   <path class="fil92" d="M757 517c0,-18 -15,-32 -33,-32 -18,0 -32,15 -32,32 0,18 15,32 32,32 18,0 33,-14 33,-32zm-1 0l0 0c0,17 -14,31 -32,31 -17,0 -31,-14 -31,-31 0,-17 14,-31 31,-31 17,0 32,14 32,31z"/>
   <path class="fil93" d="M757 517c0,-18 -14,-32 -32,-32 -18,0 -32,14 -32,32 0,17 14,32 32,32 18,0 32,-14 32,-32zm-1 0l0 0c0,17 -14,31 -31,31 -17,0 -31,-14 -31,-31 0,-17 14,-31 31,-31 17,0 31,14 31,31z"/>
   <path class="fil94" d="M756 517c0,-17 -14,-31 -32,-31 -17,0 -31,14 -31,31 0,17 14,31 31,31 17,0 32,-14 32,-31zm-1 0l0 0c0,17 -14,30 -31,30 -16,0 -30,-13 -30,-30 0,-16 14,-30 30,-30 17,0 31,14 31,30z"/>
   <path class="fil95" d="M756 517c0,-17 -14,-31 -31,-31 -17,0 -31,14 -31,31 0,17 14,31 31,31 17,0 31,-14 31,-31zm-1 0l0 0c0,16 -14,30 -30,30 -16,0 -30,-13 -30,-30 0,-16 13,-30 30,-30 16,0 30,13 30,30z"/>
   <path class="fil96" d="M755 517c0,-16 -14,-30 -31,-30 -16,0 -30,14 -30,30 0,17 14,30 30,30 17,0 31,-13 31,-30zm-1 0l0 0c0,16 -13,29 -30,29 -16,0 -29,-13 -29,-29 0,-16 13,-29 29,-29 16,0 30,13 30,29z"/>
   <path class="fil97" d="M755 517c0,-16 -14,-30 -30,-30 -16,0 -30,13 -30,30 0,16 13,30 30,30 16,0 30,-13 30,-30zm-1 0l0 0c0,16 -13,29 -29,29 -15,0 -29,-13 -29,-29 0,-16 13,-29 29,-29 16,0 29,13 29,29z"/>
   <path class="fil98" d="M754 517c0,-16 -13,-29 -30,-29 -16,0 -29,13 -29,29 0,16 13,29 29,29 16,0 30,-13 30,-29zm-1 0l0 0c0,16 -13,28 -29,28 -15,0 -28,-12 -28,-28 0,-15 13,-28 28,-28 16,0 29,13 29,28z"/>
   <path class="fil99" d="M754 517c0,-16 -13,-29 -29,-29 -15,0 -29,13 -29,29 0,16 13,29 29,29 16,0 29,-13 29,-29zm-1 0l0 0c0,15 -13,27 -28,27 -15,0 -28,-12 -28,-27 0,-15 13,-28 28,-28 15,0 28,13 28,28z"/>
   <path class="fil100" d="M753 517c0,-15 -13,-28 -29,-28 -15,0 -28,13 -28,28 0,16 13,28 28,28 16,0 29,-12 29,-28zm-1 0l0 0c0,15 -12,27 -28,27 -15,0 -27,-12 -27,-27 0,-15 12,-27 27,-27 15,0 28,12 28,27z"/>
   <path class="fil101" d="M753 517c0,-15 -13,-28 -28,-28 -15,0 -28,13 -28,28 0,15 13,27 28,27 15,0 28,-12 28,-27zm-1 0l0 0c0,15 -12,26 -27,26 -14,0 -26,-12 -26,-26 0,-14 12,-26 26,-26 15,0 27,12 27,26z"/>
   <path class="fil102" d="M752 517c0,-15 -12,-27 -28,-27 -15,0 -27,12 -27,27 0,15 12,27 27,27 15,0 28,-12 28,-27zm-1 0l0 0c0,14 -12,26 -26,26 -14,0 -26,-12 -26,-26 0,-14 12,-26 26,-26 15,0 26,12 26,26z"/>
   <path class="fil103" d="M752 517c0,-14 -12,-26 -27,-26 -14,0 -26,12 -26,26 0,15 12,26 26,26 15,0 27,-12 27,-26zm-1 0l0 0c0,14 -12,25 -26,25 -14,0 -25,-11 -25,-25 0,-14 12,-25 25,-25 14,0 26,12 26,25z"/>
   <path class="fil104" d="M751 517c0,-14 -12,-26 -26,-26 -14,0 -26,12 -26,26 0,14 12,26 26,26 15,0 26,-12 26,-26zm-1 0l0 0c0,14 -12,25 -25,25 -14,0 -25,-11 -25,-25 0,-14 11,-25 25,-25 14,0 25,11 25,25z"/>
   <path class="fil105" d="M751 517c0,-14 -12,-25 -26,-25 -14,0 -25,12 -25,25 0,14 12,25 25,25 14,0 26,-11 26,-25zm-1 0l0 0c0,14 -11,24 -25,24 -13,0 -24,-11 -24,-24 0,-13 11,-24 24,-24 14,0 25,11 25,24z"/>
   <path class="fil106" d="M750 517c0,-14 -12,-25 -25,-25 -14,0 -25,11 -25,25 0,14 11,25 25,25 14,0 25,-11 25,-25zm-1 0l0 0c0,13 -11,24 -24,24 -13,0 -24,-11 -24,-24 0,-13 11,-24 24,-24 13,0 24,11 24,24z"/>
   <path class="fil107" d="M749 517c0,-13 -11,-24 -25,-24 -13,0 -24,11 -24,24 0,14 11,24 24,24 14,0 25,-11 25,-24zm-1 0l0 0c0,13 -11,23 -24,23 -13,0 -23,-10 -23,-23 0,-13 11,-23 23,-23 13,0 24,11 24,23z"/>
   <path class="fil108" d="M749 517c0,-13 -11,-24 -24,-24 -13,0 -24,11 -24,24 0,13 11,24 24,24 13,0 24,-11 24,-24zm-1 0l0 0c0,13 -10,23 -23,23 -12,0 -23,-10 -23,-23 0,-12 11,-23 23,-23 13,0 23,11 23,23z"/>
   <path class="fil109" d="M748 517c0,-13 -11,-23 -24,-23 -13,0 -23,11 -23,23 0,13 11,23 23,23 13,0 24,-10 24,-23zm-1 0l0 0c0,13 -10,22 -23,22 -12,0 -22,-10 -22,-22 0,-12 10,-22 22,-22 13,0 23,10 23,22z"/>
   <path class="fil110" d="M748 517c0,-12 -10,-23 -23,-23 -12,0 -23,11 -23,23 0,13 11,23 23,23 13,0 23,-10 23,-23zm-1 0l0 0c0,12 -10,22 -22,22 -12,0 -22,-10 -22,-22 0,-12 10,-22 22,-22 12,0 22,10 22,22z"/>
   <path class="fil111" d="M747 517c0,-12 -10,-22 -23,-22 -12,0 -22,10 -22,22 0,13 10,22 22,22 13,0 23,-10 23,-22zm-1 0l0 0c0,12 -10,21 -22,21 -12,0 -21,-10 -21,-21 0,-12 9,-21 21,-21 12,0 22,10 22,21z"/>
   <path class="fil112" d="M747 517c0,-12 -10,-22 -22,-22 -12,0 -22,10 -22,22 0,12 10,22 22,22 12,0 22,-10 22,-22zm-1 0l0 0c0,12 -10,21 -21,21 -11,0 -21,-9 -21,-21 0,-11 9,-21 21,-21 12,0 21,10 21,21z"/>
   <path class="fil113" d="M746 517c0,-12 -10,-21 -22,-21 -12,0 -21,10 -21,21 0,12 9,21 21,21 12,0 22,-10 22,-21zm-2 0l0 0c0,11 -9,20 -20,20 -11,0 -20,-9 -20,-20 0,-11 9,-20 20,-20 11,0 20,9 20,20z"/>
   <path class="fil114" d="M746 517c0,-11 -10,-21 -21,-21 -11,0 -21,10 -21,21 0,12 9,21 21,21 12,0 21,-9 21,-21zm-1 0l0 0c0,11 -9,20 -20,20 -11,0 -20,-8 -20,-20 0,-11 9,-20 20,-20 11,0 20,9 20,20z"/>
   <path class="fil115" d="M745 517c0,-11 -10,-20 -21,-20 -11,0 -20,9 -20,20 0,11 9,20 20,20 11,0 21,-9 21,-20zm-1 0l0 0c0,11 -9,19 -20,19 -10,0 -19,-8 -19,-19 0,-11 9,-19 19,-19 10,0 20,8 20,19z"/>
   <path class="fil116" d="M745 517c0,-11 -9,-20 -20,-20 -11,0 -20,9 -20,20 0,11 9,20 20,20 11,0 20,-8 20,-20zm-1 0l0 0c0,11 -8,18 -19,18 -10,0 -19,-8 -19,-18 0,-10 8,-19 19,-19 10,0 19,8 19,19z"/>
   <path class="fil117" d="M744 517c0,-11 -9,-19 -20,-19 -10,0 -19,8 -19,19 0,11 9,19 19,19 10,0 20,-8 20,-19zm-1 0l0 0c0,10 -8,18 -18,18 -10,0 -18,-8 -18,-18 0,-10 8,-18 18,-18 10,0 18,8 18,18z"/>
   <path class="fil118" d="M744 517c0,-10 -8,-19 -19,-19 -10,0 -19,8 -19,19 0,11 8,18 19,18 10,0 19,-8 19,-18zm-2 0l0 0c0,10 -7,17 -17,17 -10,0 -18,-7 -18,-17 0,-10 8,-18 18,-18 10,0 17,8 17,18z"/>
   <path class="fil119" d="M743 517c0,-10 -8,-18 -18,-18 -10,0 -18,8 -18,18 0,10 8,18 18,18 10,0 18,-8 18,-18zm-1 0l0 0c0,9 -7,17 -17,17 -9,0 -17,-7 -17,-17 0,-9 8,-17 17,-17 9,0 17,8 17,17z"/>
   <path class="fil120" d="M742 517c0,-10 -7,-18 -17,-18 -10,0 -18,8 -18,18 0,10 8,17 18,17 10,0 17,-7 17,-17zm-1 0l0 0c0,9 -7,16 -16,16 -9,0 -16,-7 -16,-16 0,-9 7,-16 16,-16 9,0 16,7 16,16z"/>
   <path class="fil121" d="M742 517c0,-9 -7,-17 -17,-17 -9,0 -17,8 -17,17 0,9 8,17 17,17 9,0 17,-7 17,-17zm-1 0l0 0c0,9 -7,16 -16,16 -8,0 -16,-7 -16,-16 0,-9 7,-16 16,-16 9,0 16,7 16,16z"/>
   <path class="fil122" d="M741 517c0,-9 -7,-16 -16,-16 -9,0 -16,7 -16,16 0,9 7,16 16,16 9,0 16,-7 16,-16zm-1 0l0 0c0,8 -7,15 -15,15 -8,0 -15,-7 -15,-15 0,-9 7,-15 15,-15 8,0 15,7 15,15z"/>
   <path class="fil123" d="M740 517c0,-9 -7,-16 -16,-16 -8,0 -16,7 -16,16 0,9 7,16 16,16 9,0 16,-7 16,-16zm-1 0l0 0c0,8 -6,15 -15,15 -8,0 -15,-6 -15,-15 0,-8 7,-15 15,-15 8,0 15,7 15,15z"/>
   <path class="fil124" d="M740 517c0,-9 -7,-15 -15,-15 -8,0 -15,7 -15,15 0,8 7,15 15,15 8,0 15,-7 15,-15zm-1 0l0 0c0,8 -6,14 -14,14 -7,0 -14,-6 -14,-14 0,-8 7,-14 14,-14 8,0 14,6 14,14z"/>
   <path class="fil125" d="M739 517c0,-8 -6,-15 -15,-15 -8,0 -15,7 -15,15 0,8 7,15 15,15 8,0 15,-6 15,-15zm-1 0l0 0c0,8 -6,14 -14,14 -7,0 -14,-6 -14,-14 0,-7 6,-14 14,-14 8,0 14,6 14,14z"/>
   <path class="fil126" d="M739 517c0,-8 -6,-14 -14,-14 -7,0 -14,6 -14,14 0,8 7,14 14,14 8,0 14,-6 14,-14zm-1 0l0 0c0,7 -6,13 -13,13 -7,0 -13,-6 -13,-13 0,-7 6,-13 13,-13 7,0 13,6 13,13z"/>
   <path class="fil127" d="M738 517c0,-7 -6,-14 -14,-14 -7,0 -14,6 -14,14 0,8 6,14 14,14 8,0 14,-6 14,-14zm-1 0l0 0c0,7 -5,13 -13,13 -7,0 -13,-5 -13,-13 0,-7 6,-13 13,-13 7,0 13,6 13,13z"/>
   <path class="fil128" d="M738 517c0,-7 -6,-13 -13,-13 -7,0 -13,6 -13,13 0,7 6,13 13,13 7,0 13,-6 13,-13zm-1 0l0 0c0,7 -5,12 -12,12 -6,0 -12,-5 -12,-12 0,-6 6,-12 12,-12 7,0 12,6 12,12z"/>
   <path class="fil129" d="M737 517c0,-7 -5,-13 -13,-13 -7,0 -13,6 -13,13 0,7 6,13 13,13 7,0 13,-5 13,-13zm-1 0l0 0c0,6 -5,12 -12,12 -6,0 -12,-5 -12,-12 0,-6 5,-12 12,-12 7,0 12,5 12,12z"/>
   <path class="fil130" d="M737 517c0,-6 -5,-12 -12,-12 -6,0 -12,6 -12,12 0,7 6,12 12,12 7,0 12,-5 12,-12zm-1 0l0 0c0,6 -5,11 -11,11 -6,0 -11,-5 -11,-11 0,-6 5,-11 11,-11 6,0 11,5 11,11z"/>
   <path class="fil131" d="M736 517c0,-6 -5,-12 -12,-12 -6,0 -12,5 -12,12 0,6 5,12 12,12 7,0 12,-5 12,-12zm-1 0l0 0c0,6 -4,11 -10,11 -6,0 -11,-5 -11,-11 0,-6 5,-11 11,-11 6,0 10,5 10,11z"/>
   <path class="fil132" d="M736 517c0,-6 -5,-11 -11,-11 -6,0 -11,5 -11,11 0,6 5,11 11,11 6,0 11,-5 11,-11zm-1 0l0 0c0,6 -4,10 -10,10 -5,0 -10,-4 -10,-10 0,-5 5,-10 10,-10 6,0 10,5 10,10z"/>
   <path class="fil133" d="M735 517c0,-6 -4,-11 -11,-11 -6,0 -11,5 -11,11 0,6 5,11 11,11 6,0 11,-5 11,-11zm-1 0l0 0c0,5 -4,9 -9,9 -5,0 -10,-4 -10,-9 0,-5 4,-10 10,-10 5,0 9,4 9,10z"/>
   <path class="fil134" d="M735 517c0,-5 -4,-10 -10,-10 -5,0 -10,5 -10,10 0,6 5,10 10,10 6,0 10,-4 10,-10zm-1 0l0 0c0,5 -4,9 -9,9 -5,0 -9,-4 -9,-9 0,-5 4,-9 9,-9 5,0 9,4 9,9z"/>
   <path class="fil135" d="M734 517c0,-5 -4,-10 -9,-10 -5,0 -10,4 -10,10 0,5 4,9 10,9 5,0 9,-4 9,-9zm-1 0l0 0c0,5 -4,8 -8,8 -4,0 -8,-4 -8,-8 0,-5 4,-9 8,-9 5,0 8,4 8,9z"/>
   <path class="fil136" d="M734 517c0,-5 -4,-9 -9,-9 -5,0 -9,4 -9,9 0,5 4,9 9,9 5,0 9,-4 9,-9zm-1 0l0 0c0,5 -3,8 -8,8 -4,0 -8,-3 -8,-8 0,-4 4,-8 8,-8 5,0 8,4 8,8z"/>
   <path class="fil136" d="M733 517c0,-5 -4,-9 -8,-9 -4,0 -8,4 -8,9 0,5 4,8 8,8 5,0 8,-4 8,-8zm-1 0l0 0c0,4 -3,7 -7,7 -4,0 -7,-3 -7,-7 0,-4 4,-7 7,-7 4,0 7,4 7,7z"/>
   <path class="fil137" d="M733 517c0,-4 -3,-8 -8,-8 -4,0 -8,4 -8,8 0,5 4,8 8,8 5,0 8,-3 8,-8zm-1 0l0 0c0,4 -3,7 -7,7 -4,0 -7,-3 -7,-7 0,-4 3,-7 7,-7 4,0 7,3 7,7z"/>
   <path class="fil138" d="M732 517c0,-4 -3,-7 -7,-7 -4,0 -7,4 -7,7 0,4 4,7 7,7 4,0 7,-3 7,-7zm-1 0l0 0c0,4 -3,6 -6,6 -3,0 -6,-3 -6,-6 0,-3 3,-6 6,-6 4,0 6,3 6,6z"/>
   <path class="fil139" d="M731 517c0,-4 -3,-7 -7,-7 -4,0 -7,3 -7,7 0,4 3,7 7,7 4,0 7,-3 7,-7zm-1 0l0 0c0,3 -2,6 -6,6 -3,0 -6,-3 -6,-6 0,-3 3,-6 6,-6 4,0 6,3 6,6z"/>
   <path class="fil139" d="M731 517c0,-3 -3,-6 -6,-6 -3,0 -6,3 -6,6 0,4 3,6 6,6 4,0 6,-3 6,-6zm-1 0l0 0c0,3 -2,5 -5,5 -3,0 -5,-2 -5,-5 0,-3 3,-5 5,-5 3,0 5,3 5,5z"/>
   <path class="fil140" d="M730 517c0,-3 -2,-6 -6,-6 -3,0 -6,3 -6,6 0,3 3,6 6,6 4,0 6,-3 6,-6zm-1 0l0 0c0,3 -2,5 -5,5 -3,0 -5,-2 -5,-5 0,-3 2,-5 5,-5 3,0 5,2 5,5z"/>
   <path class="fil141" d="M730 517c0,-3 -2,-5 -5,-5 -3,0 -5,3 -5,5 0,3 3,5 5,5 3,0 5,-2 5,-5zm-1 0l0 0c0,3 -2,4 -4,4 -2,0 -4,-2 -4,-4 0,-2 2,-4 4,-4 3,0 4,2 4,4z"/>
   <path class="fil142" d="M729 517c0,-3 -2,-5 -5,-5 -3,0 -5,2 -5,5 0,3 2,5 5,5 3,0 5,-2 5,-5zm-1 0l0 0c0,2 -2,4 -4,4 -2,0 -4,-2 -4,-4 0,-2 2,-4 4,-4 2,0 4,2 4,4z"/>
   <path class="fil143" d="M729 517c0,-2 -2,-4 -4,-4 -2,0 -4,2 -4,4 0,3 2,4 4,4 3,0 4,-2 4,-4zm-1 0l0 0c0,2 -1,3 -3,3 -2,0 -3,-1 -3,-3 0,-2 2,-3 3,-3 2,0 3,2 3,3z"/>
   <path class="fil144" d="M728 517c0,-2 -2,-4 -4,-4 -2,0 -4,2 -4,4 0,2 2,4 4,4 2,0 4,-2 4,-4zm-1 0l0 0c0,2 -1,3 -3,3 -1,0 -3,-1 -3,-3 0,-1 2,-3 3,-3 2,0 3,2 3,3z"/>
   <path class="fil145" d="M728 517c0,-2 -1,-3 -3,-3 -2,0 -3,2 -3,3 0,2 2,3 3,3 2,0 3,-1 3,-3zm-1 0l0 0c0,2 -1,2 -2,2 -1,0 -2,-1 -2,-2 0,-1 1,-2 2,-2 2,0 2,1 2,2z"/>
   <path class="fil145" d="M727 517c0,-1 -1,-3 -3,-3 -1,0 -3,2 -3,3 0,2 2,3 3,3 2,0 3,-1 3,-3zm-1 0l0 0c0,1 -1,2 -2,2 -1,0 -2,-1 -2,-2 0,-1 1,-2 2,-2 1,0 2,1 2,2z"/>
   <path class="fil146" d="M727 517c0,-1 -1,-2 -2,-2 -1,0 -2,1 -2,2 0,2 1,2 2,2 2,0 2,-1 2,-2zm-1 0l0 0c0,1 0,1 -1,1 -1,0 -1,0 -1,-1 0,-1 0,-1 1,-1 1,0 1,1 1,1z"/>
   <path class="fil147" d="M726 517c0,-1 -1,-2 -2,-2 -1,0 -2,1 -2,2 0,1 1,2 2,2 1,0 2,-1 2,-2z"/>
   <path class="fil56" d="M726 517c0,-1 0,-1 -1,-1 -1,0 -1,1 -1,1 0,1 0,1 1,1 1,0 1,0 1,-1z"/>
   <path class="fil56" d="M725 517c0,0 0,-1 0,-1l-1 1c0,1 1,1 1,1 0,0 0,0 0,-1z"/>
   <path class="fil148" d="M825 556l0 -80c0,-3 -3,-5 -5,-5l-33 0c-7,0 -11,14 -11,17l0 57c0,5 4,16 11,16l33 0c3,0 5,-2 5,-5z"/>
   <path class="fil55" d="M725 507c-1,-1 -2,-1 -3,-1 -8,0 -14,5 -14,11 0,6 6,12 14,12 1,0 2,0 3,0l0 -22z"/>
   <path class="fil56" d="M795 485c1,-2 2,-3 4,-3 2,1 3,3 2,5 -1,4 -8,3 -6,-2z"/>
   <path class="fil74" d="M790 486c0,2 1,4 3,5 -2,-1 -3,-3 -3,-5 0,0 0,-1 0,-1 0,0 0,1 0,1z"/>
   <path class="fil149" d="M790 486c0,4 3,7 7,7 4,0 7,-3 7,-7 0,-4 -3,-7 -7,-7 -4,0 -7,3 -7,7zm14 0l0 0c0,4 -3,6 -6,6 -4,0 -7,-3 -7,-6 0,-4 3,-6 7,-6 3,0 6,3 6,6z"/>
   <path class="fil85" d="M804 486l0 0 0 0 0 0 0 0c0,-3 -3,-6 -7,-6 -4,0 -7,3 -7,6l0 0 0 0c0,0 0,1 0,1 0,2 1,4 3,5l0 0 0 0 0 0 0 0 0 0 0 0 0 0 0 0 0 0 0 0 0 0 0 0 0 0 0 0 0 0 0 0 0 0 0 0 0 0 0 0 0 0 0 0 0 0 0 0 0 0 0 0 0 0 0 0 0 0 0 0 0 0 0 0 0 0 0 0 0 0 0 0 0 0 0 0 0 0 0 0 0 0 0 0 0 0 0 0 0 0 0 0 0 0 0 0 0 0 0 0 0 0 0 0 0 0 0 0 0 0 0 0 0 0 0 0 0 0 0 0 0 0 0 0 0 0 0 0 0 0 0 0 0 0 0 0 0 0 0 0 0 0 0 0 0 0 0 0 0 0 0 0 0 0 0 0 0 0 0 0 0 0 0 0 0 0 0 0 0 0 0 0 0 0 0 0 0 0 0 0 0 0 0 0 0 0 0 0 0 0 0 0 0 0 0 0 0 0 0 0 0 0 0 0 0 0 0 0 0 0 0 0 0 0 0 0 0 0 0 0 0 0 0 0 0 0 0 0 0 0 0 0 0 0 0 0 0 0 0 0 0 0 0 0 0 0 0 0 0 0 0 0 0 0 0 0 0 0 0 0 0 0 0 0 0 0 0 0 0 0 0 0 0 0 0 0 0 0 0 0 0 0zm-1 0l0 0c0,3 -3,6 -6,6 -4,0 -6,-3 -6,-6 0,-3 3,-6 6,-6 3,0 6,3 6,6z"/>
   <path class="fil150" d="M803 486c0,-4 -3,-7 -6,-7l0 0 0 0 0 0 0 0 0 0 0 0 0 0 0 0c-3,0 -6,3 -6,7 0,4 3,6 7,6 3,0 6,-3 6,-6zm-1 0l0 0c0,3 -3,5 -5,5 -3,0 -6,-2 -6,-5 0,-3 3,-5 6,-5 3,0 5,2 5,5z"/>
   <path class="fil151" d="M803 486c0,-3 -3,-6 -6,-6 -4,0 -6,3 -6,6 0,3 3,6 6,6 3,0 6,-3 6,-6zm-1 0l0 0c0,3 -2,5 -5,5 -3,0 -5,-2 -5,-5 0,-3 2,-5 5,-5 3,0 5,2 5,5z"/>
   <path class="fil102" d="M802 486c0,-3 -3,-5 -5,-5 -3,0 -6,2 -6,5 0,3 3,5 6,5 3,0 5,-2 5,-5zm-1 0l0 0c0,2 -2,4 -4,4 -3,0 -5,-2 -5,-4 0,-3 2,-4 5,-4 2,0 4,2 4,4z"/>
   <path class="fil152" d="M802 486c0,-3 -2,-5 -5,-5 -3,0 -5,2 -5,5 0,3 2,5 5,5 3,0 5,-2 5,-5zm-1 0l0 0c0,2 -2,4 -4,4 -2,0 -4,-2 -4,-4 0,-2 2,-4 4,-4 2,0 4,2 4,4z"/>
   <path class="fil153" d="M801 486c0,-3 -2,-4 -4,-4 -3,0 -5,2 -5,4 0,2 2,4 5,4 2,0 4,-2 4,-4zm-1 0l0 0c0,2 -1,3 -3,3 -2,0 -4,-2 -4,-3 0,-2 2,-3 4,-3 2,0 3,1 3,3z"/>
   <path class="fil154" d="M801 486c0,-2 -2,-4 -4,-4 -2,0 -4,2 -4,4 0,2 2,4 4,4 2,0 4,-2 4,-4zm-1 0l0 0c0,2 -2,3 -3,3 -1,0 -3,-1 -3,-3 0,-2 2,-3 3,-3 1,0 3,1 3,3z"/>
   <path class="fil155" d="M800 486c0,-2 -1,-3 -3,-3 -2,0 -4,1 -4,3 0,2 2,3 4,3 2,0 3,-2 3,-3zm-1 0l0 0c0,1 -1,2 -2,2 -1,0 -3,-1 -3,-2 0,-1 1,-2 3,-2 1,0 2,1 2,2z"/>
   <path class="fil130" d="M800 486c0,-2 -2,-3 -3,-3 -1,0 -3,1 -3,3 0,2 2,3 3,3 1,0 3,-1 3,-3zm-1 0l0 0c0,1 -1,2 -2,2 -1,0 -1,0 -1,-2 0,-1 0,-2 1,-2 1,0 2,1 2,2z"/>
   <path class="fil135" d="M799 486c0,-1 -1,-2 -2,-2 -1,0 -3,1 -3,2 0,1 1,2 3,2 1,0 2,-1 2,-2zm-1 0l0 0c0,1 0,1 -1,1 -1,0 -1,-1 -1,-1 0,-1 0,-1 1,-1 1,0 1,1 1,1z"/>
   <path class="fil139" d="M799 486c0,-1 -1,-2 -2,-2 -1,0 -1,1 -1,2 0,1 0,2 1,2 1,0 2,0 2,-2z"/>
   <path class="fil144" d="M798 486c0,-1 0,-1 -1,-1 -1,0 -1,1 -1,1 0,1 0,1 1,1 1,0 1,-1 1,-1z"/>
   <path class="fil56" d="M797 486c0,-1 -1,-1 -1,-1 -1,0 -1,0 -1,1 0,0 0,1 1,1l1 -1z"/>
   <path class="fil67" d="M794 489c1,1 2,1 3,1 2,0 3,-1 4,-2 -1,1 -2,2 -4,2 -1,0 -2,0 -3,-1zm7 -5c-1,-1 -2,-2 -4,-2 -1,0 -2,0 -3,1 1,-1 2,-1 3,-1 2,0 3,1 4,2z"/>
   <path class="fil156" d="M792 486c0,2 2,4 5,4 2,0 4,-2 4,-4 0,-3 -2,-4 -4,-4 -3,0 -5,2 -5,4zm8 0l0 0c0,2 -2,4 -4,4 -2,0 -4,-2 -4,-4 0,-2 2,-4 4,-4 2,0 4,2 4,4z"/>
   <path class="fil86" d="M801 486l0 0 0 0 0 0 0 0 0 0 0 0 0 0 0 0 0 0 0 0 0 0 0 0 0 0 0 0 0 0 0 0 0 0 0 0 0 0 0 0 0 0 0 0 0 0 0 0 0 0 0 0 0 0 0 0 0 0 0 0 0 0 0 0 0 0 0 0 0 0c-1,-1 -2,-2 -4,-2 -1,0 -2,0 -3,1l0 0 0 0 0 0 0 0 0 0 0 0 0 0 0 0 0 0 0 0 0 0 0 0 0 0 0 0c-1,1 -1,2 -1,3 0,1 0,2 1,3l0 0 0 0 0 0 0 0 0 0 0 0 0 0 0 0 0 0 0 0 0 0 0 0 0 0 0 0 0 0 0 0 0 0 0 0c1,1 2,1 3,1 2,0 3,-1 4,-2l0 0 0 0 0 0 0 0 0 0 0 0 0 0 0 0 0 0 0 0 0 0 0 0 0 0 0 0 0 0 0 0 0 0 0 0 0 0 0 0 0 0 0 0 0 0 0 0 0 0 0 0 0 0 0 0 0 0 0 0 0 0 0 0 0 0 0 0 0 0zm-1 0l0 0c0,2 -1,3 -3,3 -2,0 -4,-2 -4,-3 0,-2 2,-3 4,-3 2,0 3,1 3,3z"/>
   <path class="fil157" d="M801 486c0,-2 -2,-4 -4,-4 -2,0 -4,2 -4,4 0,2 2,4 4,4 2,0 4,-2 4,-4zm-1 0l0 0c0,2 -2,3 -3,3 -1,0 -3,-1 -3,-3 0,-2 2,-3 3,-3 1,0 3,1 3,3z"/>
   <path class="fil104" d="M800 486c0,-2 -1,-3 -3,-3 -2,0 -4,1 -4,3 0,2 2,3 4,3 2,0 3,-2 3,-3zm-1 0l0 0c0,1 -1,2 -2,2 -1,0 -3,-1 -3,-2 0,-1 1,-2 3,-2 1,0 2,1 2,2z"/>
   <path class="fil158" d="M800 486c0,-2 -2,-3 -3,-3 -1,0 -3,1 -3,3 0,2 2,3 3,3 1,0 3,-1 3,-3zm-1 0l0 0c0,1 -1,2 -2,2 -1,0 -2,0 -2,-2 0,-1 1,-2 2,-2 1,0 2,1 2,2z"/>
   <path class="fil159" d="M799 486c0,-1 -1,-2 -2,-2 -1,0 -3,1 -3,2 0,1 1,2 3,2 1,0 2,-1 2,-2zm-1 0l0 0c0,1 0,1 -1,1 -1,0 -1,-1 -1,-1 0,-1 0,-1 1,-1 1,0 1,1 1,1z"/>
   <path class="fil160" d="M799 486c0,-1 -1,-2 -2,-2 -1,0 -2,1 -2,2 0,1 1,2 2,2 1,0 2,0 2,-2z"/>
   <path class="fil161" d="M798 486c0,-1 0,-1 -1,-1 -1,0 -1,1 -1,1 0,1 0,1 1,1 1,0 1,-1 1,-1z"/>
   <path class="fil56" d="M797 486c0,-1 -1,-1 -1,-1 -1,0 -1,0 -1,1 0,0 0,1 1,1l1 -1z"/>
   <path class="fil56" d="M825 556l0 -80c0,-3 -3,-5 -5,-5l-32 0c-7,0 -11,14 -11,17l0 57c0,5 4,16 11,16l32 0c3,0 5,-2 5,-5z"/>
   <path class="fil57" d="M822 517c0,-5 -4,-9 -9,-9 -5,0 -9,4 -9,9 0,5 4,9 9,9 5,0 9,-4 9,-9zm-1 0l0 0c0,5 -4,8 -8,8 -4,0 -8,-4 -8,-8 0,-4 4,-8 8,-8 4,0 8,4 8,8z"/>
   <path class="fil63" d="M822 517c0,-4 -4,-9 -8,-9 -5,0 -8,4 -8,9 0,5 4,9 8,9 5,0 8,-4 8,-9zm-1 0l0 0c0,4 -3,8 -7,8 -4,0 -7,-4 -7,-8 0,-4 3,-7 7,-7 4,0 7,4 7,7z"/>
   <path class="fil69" d="M821 517c0,-4 -4,-8 -8,-8 -4,0 -8,4 -8,8 0,5 4,8 8,8 4,0 8,-4 8,-8zm-1 0l0 0c0,4 -3,7 -7,7 -4,0 -7,-3 -7,-7 0,-4 3,-7 7,-7 4,0 7,3 7,7z"/>
   <path class="fil75" d="M821 517c0,-4 -3,-7 -7,-7 -4,0 -7,4 -7,7 0,4 3,8 7,8 4,0 7,-4 7,-8zm-1 0l0 0c0,4 -3,7 -6,7 -4,0 -6,-3 -6,-7 0,-3 3,-6 6,-6 4,0 6,3 6,6z"/>
   <path class="fil81" d="M820 517c0,-4 -3,-7 -7,-7 -4,0 -7,3 -7,7 0,4 3,7 7,7 4,0 7,-3 7,-7zm-1 0l0 0c0,4 -3,6 -6,6 -3,0 -6,-3 -6,-6 0,-3 3,-6 6,-6 3,0 6,3 6,6z"/>
   <path class="fil87" d="M820 517c0,-3 -3,-6 -6,-6 -4,0 -6,3 -6,6 0,4 3,7 6,7 4,0 6,-3 6,-7zm-1 0l0 0c0,3 -2,6 -5,6 -3,0 -5,-3 -5,-6 0,-3 2,-5 5,-5 3,0 5,3 5,5z"/>
   <path class="fil92" d="M819 517c0,-3 -3,-6 -6,-6 -3,0 -6,3 -6,6 0,4 3,6 6,6 3,0 6,-3 6,-6zm-1 0l0 0c0,3 -2,5 -5,5 -3,0 -5,-3 -5,-5 0,-3 2,-5 5,-5 3,0 5,2 5,5z"/>
   <path class="fil98" d="M819 517c0,-3 -2,-5 -5,-5 -3,0 -5,3 -5,5 0,3 2,6 5,6 3,0 5,-3 5,-6zm-1 0l0 0c0,3 -2,5 -4,5 -2,0 -4,-2 -4,-5 0,-2 2,-4 4,-4 2,0 4,2 4,4z"/>
   <path class="fil104" d="M818 517c0,-3 -2,-5 -5,-5 -3,0 -5,2 -5,5 0,3 2,5 5,5 3,0 5,-3 5,-5zm-1 0l0 0c0,2 -2,4 -4,4 -2,0 -4,-2 -4,-4 0,-2 2,-4 4,-4 2,0 4,2 4,4z"/>
   <path class="fil110" d="M818 517c0,-2 -2,-4 -4,-4 -2,0 -4,2 -4,4 0,3 2,5 4,5 2,0 4,-2 4,-5zm-1 0l0 0c0,2 -2,4 -3,4 -2,0 -3,-2 -3,-4 0,-2 2,-3 3,-3 2,0 3,2 3,3z"/>
   <path class="fil116" d="M817 517c0,-2 -2,-4 -4,-4 -2,0 -4,2 -4,4 0,2 2,4 4,4 2,0 4,-2 4,-4zm-1 0l0 0c0,2 -1,3 -3,3 -2,0 -3,-2 -3,-3 0,-1 1,-3 3,-3 2,0 3,2 3,3z"/>
   <path class="fil122" d="M817 517c0,-2 -2,-3 -3,-3 -2,0 -3,2 -3,3 0,2 2,4 3,4 2,0 3,-2 3,-4zm-1 0l0 0c0,2 -1,3 -2,3 -1,0 -2,-1 -2,-3 0,-1 1,-2 2,-2 1,0 2,1 2,2z"/>
   <path class="fil128" d="M816 517c0,-1 -1,-3 -3,-3 -2,0 -3,2 -3,3 0,2 1,3 3,3 2,0 3,-2 3,-3zm-1 0l0 0c0,1 -1,2 -2,2 -1,0 -2,-1 -2,-2 0,-1 1,-2 2,-2 1,0 2,1 2,2z"/>
   <path class="fil134" d="M815 517c0,-1 -1,-2 -2,-2 -1,0 -2,1 -2,2 0,2 1,3 2,3 1,0 2,-1 2,-3zm-1 0l0 0c0,1 -1,1 -1,1 -1,0 -1,0 -1,-1 0,-1 1,-1 1,-1 1,0 1,1 1,1z"/>
   <path class="fil139" d="M815 517c0,-1 -1,-2 -2,-2 -1,0 -2,1 -2,2 0,1 1,2 2,2 1,0 2,-1 2,-2z"/>
   <path class="fil144" d="M814 517c0,-1 -1,-1 -1,-1 -1,0 -1,1 -1,1 0,1 1,1 1,1 1,0 1,0 1,-1z"/>
   <path class="fil56" d="M814 517c0,0 0,-1 -1,-1 -1,0 -1,1 -1,1 0,1 0,1 1,1 1,0 1,0 1,-1z"/>
   <path class="fil57" d="M819 517c0,-3 -3,-5 -6,-5 -3,0 -6,3 -6,5 0,3 3,6 6,6 3,0 6,-3 6,-6zm-2 0l0 0c0,3 -2,5 -4,5 -3,0 -5,-2 -5,-5 0,-2 2,-4 5,-4 3,0 4,2 4,4z"/>
   <path class="fil162" d="M819 517c0,-3 -3,-5 -5,-5 -3,0 -5,2 -5,5 0,3 3,5 5,5 3,0 5,-2 5,-5zm-2 0l0 0c0,3 -2,4 -4,4 -2,0 -4,-2 -4,-4 0,-2 1,-4 4,-4 2,0 4,2 4,4z"/>
   <path class="fil79" d="M818 517c0,-2 -2,-4 -4,-4 -3,0 -5,2 -5,4 0,3 2,5 5,5 3,0 4,-2 4,-5zm-1 0l0 0c0,2 -2,4 -3,4 -2,0 -3,-2 -3,-4 0,-2 1,-3 3,-3 2,0 3,2 3,3z"/>
   <path class="fil89" d="M817 517c0,-2 -2,-4 -4,-4 -2,0 -4,2 -4,4 0,3 1,4 4,4 2,0 4,-2 4,-4zm-1 0l0 0c0,2 -1,3 -3,3 -2,0 -3,-2 -3,-3 0,-1 1,-3 3,-3 2,0 3,2 3,3z"/>
   <path class="fil163" d="M817 517c0,-2 -2,-3 -3,-3 -2,0 -3,2 -3,3 0,2 1,4 3,4 2,0 3,-2 3,-4zm-1 0l0 0c0,2 -1,3 -2,3 -1,0 -2,-1 -2,-3 0,-1 1,-2 2,-2 1,0 2,1 2,2z"/>
   <path class="fil164" d="M816 517c0,-1 -1,-3 -3,-3 -2,0 -3,2 -3,3 0,2 1,3 3,3 2,0 3,-2 3,-3zm-1 0l0 0c0,1 -1,2 -2,2 -1,0 -2,-1 -2,-2 0,-1 1,-2 2,-2 1,0 2,1 2,2z"/>
   <path class="fil120" d="M815 517c0,-1 -1,-2 -2,-2 -1,0 -2,1 -2,2 0,2 1,3 2,3 1,0 2,-1 2,-3zm-1 0l0 0c0,1 0,2 -1,2 -1,0 -1,0 -1,-2 0,-1 1,-1 1,-1 1,0 1,0 1,1z"/>
   <path class="fil130" d="M815 517c0,-1 -1,-2 -2,-2 -1,0 -2,1 -2,2 0,1 1,2 2,2 1,0 2,-1 2,-2z"/>
   <path class="fil165" d="M814 517c0,-1 0,-1 -1,-1 -1,0 -1,0 -1,1 0,1 1,2 1,2 1,0 1,0 1,-2z"/>
   <path class="fil56" d="M814 517c0,0 0,-1 -1,-1 -1,0 -1,1 -1,1 0,1 0,1 1,1 1,0 1,-1 1,-1z"/>
   <path class="fil55" d="M809 315c0,38 28,69 62,69 34,0 62,-31 62,-69 0,-38 -28,-69 -62,-69 -34,0 -62,31 -62,69z"/>
   <path class="fil55" d="M853 313c1,-3 4,-4 7,-3 2,1 4,3 3,6 -2,5 -11,3 -10,-3z"/>
   <path class="fil55" d="M816 315c0,27 20,49 44,49 25,0 45,-22 45,-49 0,-27 -20,-49 -45,-49 -24,0 -44,22 -44,49z"/>
   <path class="fil55" d="M850 315c0,3 3,5 6,5 4,0 6,-2 6,-5 0,-3 -2,-6 -6,-6 -3,0 -6,3 -6,6z"/>
   <path class="fil55" d="M917 313c1,-3 3,-4 6,-3 2,1 4,3 3,6 -1,5 -11,3 -9,-3z"/>
   <path class="fil55" d="M910 315c0,5 4,9 10,9 5,0 10,-4 10,-9 0,-5 -4,-9 -10,-9 -5,0 -10,4 -10,9z"/>
   <path class="fil55" d="M914 315c0,3 2,5 6,5 3,0 6,-2 6,-5 0,-3 -3,-6 -6,-6 -4,0 -6,3 -6,6z"/>
   <path class="fil56" d="M809 315c0,38 26,69 59,69 33,0 59,-31 59,-69 0,-38 -26,-69 -59,-69 -33,0 -59,31 -59,69z"/>
   <path class="fil56" d="M851 313c1,-3 3,-4 6,-3 1,1 4,3 2,6 -2,5 -11,3 -8,-3z"/>
   <path class="fil57" d="M922 315c0,-36 -29,-65 -65,-65 -36,0 -65,29 -65,65 0,36 29,65 65,65 36,0 65,-29 65,-65zm-2 0l0 0c0,35 -28,63 -63,63 -35,0 -63,-28 -63,-63 0,-35 28,-63 63,-63 35,0 63,28 63,63z"/>
   <path class="fil58" d="M921 315c0,-36 -28,-64 -64,-64 -35,0 -64,28 -64,64 0,35 29,64 64,64 36,0 64,-29 64,-64zm-1 0l0 0c0,34 -28,62 -62,62 -34,0 -62,-28 -62,-62 0,-35 28,-62 62,-62 34,0 62,28 62,62z"/>
   <path class="fil59" d="M920 315c0,-35 -28,-63 -63,-63 -35,0 -63,28 -63,63 0,35 28,63 63,63 35,0 63,-28 63,-63zm-1 0l0 0c0,34 -28,62 -62,62 -34,0 -62,-27 -62,-62 0,-34 28,-62 62,-62 34,0 62,27 62,62z"/>
   <path class="fil166" d="M920 315c0,-35 -28,-62 -62,-62 -34,0 -62,28 -62,62 0,34 28,62 62,62 34,0 62,-28 62,-62zm-1 0l0 0c0,34 -27,61 -61,61 -33,0 -61,-27 -61,-61 0,-33 28,-61 61,-61 33,0 61,28 61,61z"/>
   <path class="fil167" d="M919 315c0,-34 -27,-62 -62,-62 -34,0 -62,27 -62,62 0,34 28,62 62,62 34,0 62,-27 62,-62zm-1 0l0 0c0,34 -27,60 -60,60 -33,0 -60,-27 -60,-60 0,-33 27,-60 60,-60 33,0 60,27 60,60z"/>
   <path class="fil62" d="M918 315c0,-33 -27,-61 -61,-61 -33,0 -61,28 -61,61 0,34 28,61 61,61 33,0 61,-27 61,-61zm-1 0l0 0c0,33 -27,59 -59,59 -33,0 -59,-27 -59,-59 0,-33 27,-59 59,-59 33,0 59,27 59,59z"/>
   <path class="fil168" d="M918 315c0,-33 -27,-60 -60,-60 -33,0 -60,27 -60,60 0,34 27,60 60,60 33,0 60,-27 60,-60zm-2 0l0 0c0,32 -26,59 -59,59 -33,0 -59,-27 -59,-59 0,-33 26,-59 59,-59 33,0 59,26 59,59z"/>
   <path class="fil65" d="M917 315c0,-33 -27,-59 -59,-59 -33,0 -59,27 -59,59 0,33 27,59 59,59 33,0 59,-27 59,-59zm-1 0l0 0c0,32 -26,58 -58,58 -32,0 -58,-26 -58,-58 0,-32 26,-58 58,-58 32,0 58,26 58,58z"/>
   <path class="fil169" d="M916 315c0,-33 -26,-59 -59,-59 -33,0 -59,26 -59,59 0,32 26,59 59,59 33,0 59,-27 59,-59zm-1 0l0 0c0,31 -25,57 -57,57 -31,0 -57,-26 -57,-57 0,-32 26,-57 57,-57 32,0 57,25 57,57z"/>
   <path class="fil67" d="M915 315c0,-32 -26,-58 -58,-58 -32,0 -58,26 -58,58 0,32 26,58 58,58 32,0 58,-26 58,-58zm-2 0l0 0c0,31 -25,57 -56,57 -31,0 -57,-25 -57,-57 0,-31 25,-56 57,-56 31,0 56,25 56,56z"/>
   <path class="fil68" d="M915 315c0,-32 -25,-57 -57,-57 -31,0 -57,25 -57,57 0,31 26,57 57,57 32,0 57,-26 57,-57zm-1 0l0 0c0,30 -25,56 -56,56 -31,0 -56,-25 -56,-56 0,-31 25,-56 56,-56 30,0 56,25 56,56z"/>
   <path class="fil170" d="M914 315c0,-31 -25,-56 -56,-56 -31,0 -57,25 -57,56 0,31 25,57 57,57 31,0 56,-25 56,-57zm-1 0l0 0c0,30 -25,55 -55,55 -31,0 -55,-25 -55,-55 0,-30 25,-55 55,-55 30,0 55,24 55,55z"/>
   <path class="fil171" d="M913 315c0,-31 -25,-56 -56,-56 -31,0 -56,25 -56,56 0,30 25,56 56,56 30,0 56,-25 56,-56zm-2 0l0 0c0,30 -24,54 -54,54 -30,0 -54,-25 -54,-54 0,-30 24,-54 54,-54 30,0 54,25 54,54z"/>
   <path class="fil71" d="M912 315c0,-30 -25,-55 -55,-55 -31,0 -55,24 -55,55 0,30 25,55 55,55 30,0 55,-25 55,-55zm-1 0l0 0c0,30 -24,54 -53,54 -30,0 -54,-24 -54,-54 0,-30 24,-53 54,-53 30,0 53,24 53,53z"/>
   <path class="fil73" d="M912 315c0,-30 -24,-54 -54,-54 -30,0 -54,25 -54,54 0,30 24,54 54,54 30,0 54,-25 54,-54zm-1 0l0 0c0,29 -24,53 -53,53 -29,0 -53,-24 -53,-53 0,-29 24,-53 53,-53 29,0 53,24 53,53z"/>
   <path class="fil74" d="M911 315c0,-30 -24,-53 -53,-53 -30,0 -54,24 -54,53 0,30 24,54 54,54 30,0 53,-24 53,-54zm-1 0l0 0c0,28 -23,52 -52,52 -29,0 -52,-24 -52,-52 0,-29 23,-52 52,-52 29,0 52,23 52,52z"/>
   <path class="fil172" d="M910 315c0,-29 -24,-53 -53,-53 -29,0 -53,24 -53,53 0,29 24,53 53,53 29,0 53,-24 53,-53zm-2 0l0 0c0,28 -23,51 -51,51 -28,0 -51,-23 -51,-51 0,-28 23,-51 51,-51 28,0 51,23 51,51z"/>
   <path class="fil76" d="M909 315c0,-29 -23,-52 -52,-52 -29,0 -52,23 -52,52 0,28 23,52 52,52 29,0 52,-24 52,-52zm-1 0l0 0c0,28 -22,51 -50,51 -28,0 -51,-23 -51,-51 0,-28 23,-50 51,-50 28,0 50,22 50,50z"/>
   <path class="fil77" d="M909 315c0,-28 -23,-51 -51,-51 -28,0 -51,23 -51,51 0,28 23,51 51,51 28,0 51,-23 51,-51zm-1 0l0 0c0,28 -22,50 -50,50 -28,0 -50,-22 -50,-50 0,-27 22,-50 50,-50 27,0 50,22 50,50z"/>
   <path class="fil79" d="M908 315c0,-28 -22,-50 -50,-50 -28,0 -51,22 -51,50 0,28 23,51 51,51 28,0 50,-23 50,-51zm-1 0l0 0c0,27 -22,49 -49,49 -27,0 -49,-22 -49,-49 0,-27 22,-49 49,-49 27,0 49,22 49,49z"/>
   <path class="fil80" d="M907 315c0,-27 -22,-50 -50,-50 -28,0 -50,22 -50,50 0,28 22,50 50,50 27,0 50,-22 50,-50zm-1 0l0 0c0,27 -22,48 -48,48 -27,0 -48,-22 -48,-48 0,-27 21,-48 48,-48 27,0 48,22 48,48z"/>
   <path class="fil173" d="M906 315c0,-27 -22,-49 -49,-49 -27,0 -49,22 -49,49 0,27 22,49 49,49 27,0 49,-22 49,-49zm-1 0l0 0c0,26 -22,48 -48,48 -26,0 -48,-22 -48,-48 0,-27 21,-48 48,-48 26,0 48,21 48,48z"/>
   <path class="fil174" d="M906 315c0,-27 -22,-48 -48,-48 -27,0 -48,22 -48,48 0,27 21,48 48,48 27,0 48,-22 48,-48zm-2 0l0 0c0,26 -21,47 -47,47 -26,0 -47,-21 -47,-47 0,-26 21,-47 47,-47 26,0 47,21 47,47z"/>
   <path class="fil83" d="M905 315c0,-27 -22,-48 -48,-48 -26,0 -48,21 -48,48 0,26 21,48 48,48 26,0 48,-22 48,-48zm-1 0l0 0c0,25 -21,46 -46,46 -25,0 -46,-21 -46,-46 0,-25 21,-46 46,-46 25,0 46,21 46,46z"/>
   <path class="fil84" d="M904 315c0,-26 -21,-47 -47,-47 -26,0 -47,21 -47,47 0,26 21,47 47,47 26,0 47,-21 47,-47zm-1 0l0 0c0,25 -20,45 -45,45 -25,0 -45,-21 -45,-45 0,-25 20,-45 45,-45 25,0 45,20 45,45z"/>
   <path class="fil175" d="M904 315c0,-25 -21,-46 -46,-46 -25,0 -46,21 -46,46 0,25 21,46 46,46 25,0 46,-21 46,-46zm-2 0l0 0c0,25 -20,45 -45,45 -24,0 -45,-20 -45,-45 0,-24 20,-45 45,-45 24,0 45,20 45,45z"/>
   <path class="fil86" d="M903 315c0,-25 -20,-45 -45,-45 -25,0 -45,20 -45,45 0,25 20,45 45,45 25,0 45,-21 45,-45zm-1 0l0 0c0,24 -19,44 -44,44 -24,0 -44,-20 -44,-44 0,-24 20,-44 44,-44 24,0 44,19 44,44z"/>
   <path class="fil87" d="M902 315c0,-24 -20,-45 -45,-45 -24,0 -45,20 -45,45 0,25 20,45 45,45 24,0 45,-20 45,-45zm-2 0l0 0c0,24 -19,43 -43,43 -24,0 -43,-19 -43,-43 0,-24 19,-43 43,-43 24,0 43,19 43,43z"/>
   <path class="fil88" d="M901 315c0,-24 -19,-44 -44,-44 -24,0 -44,19 -44,44 0,24 20,44 44,44 24,0 44,-20 44,-44zm-2 0l0 0c0,23 -18,42 -42,42 -23,0 -42,-19 -42,-42 0,-24 19,-42 42,-42 24,0 42,19 42,42z"/>
   <path class="fil89" d="M900 315c0,-24 -19,-43 -43,-43 -24,0 -43,19 -43,43 0,24 19,43 43,43 24,0 43,-19 43,-43zm-2 0l0 0c0,23 -19,42 -42,42 -23,0 -42,-19 -42,-42 0,-23 19,-42 42,-42 23,0 42,19 42,42z"/>
   <path class="fil176" d="M900 315c0,-24 -18,-42 -42,-42 -23,0 -42,19 -42,42 0,23 19,42 42,42 24,0 42,-19 42,-42zm-1 0l0 0c0,22 -19,41 -41,41 -22,0 -41,-19 -41,-41 0,-23 19,-41 41,-41 22,0 41,18 41,41z"/>
   <path class="fil177" d="M899 315c0,-23 -19,-42 -41,-42 -23,0 -42,19 -42,42 0,23 19,42 42,42 23,0 41,-19 41,-42zm-1 0l0 0c0,22 -18,40 -40,40 -22,0 -40,-18 -40,-40 0,-22 18,-40 40,-40 22,0 40,18 40,40z"/>
   <path class="fil92" d="M898 315c0,-23 -19,-41 -41,-41 -22,0 -41,18 -41,41 0,22 19,41 41,41 22,0 41,-19 41,-41zm-1 0l0 0c0,22 -18,39 -39,39 -22,0 -39,-18 -39,-39 0,-22 18,-39 39,-39 21,0 39,18 39,39z"/>
   <path class="fil93" d="M897 315c0,-22 -18,-40 -40,-40 -22,0 -40,18 -40,40 0,22 18,40 40,40 22,0 40,-18 40,-40zm-1 0l0 0c0,22 -17,39 -39,39 -22,0 -39,-17 -39,-39 0,-22 17,-39 39,-39 21,0 39,17 39,39z"/>
   <path class="fil94" d="M897 315c0,-22 -18,-39 -39,-39 -22,0 -39,18 -39,39 0,22 18,39 39,39 21,0 39,-18 39,-39zm-1 0l0 0c0,21 -17,38 -38,38 -21,0 -38,-17 -38,-38 0,-21 17,-38 38,-38 21,0 38,17 38,38z"/>
   <path class="fil151" d="M896 315c0,-22 -17,-39 -39,-39 -22,0 -39,17 -39,39 0,22 17,39 39,39 21,0 39,-17 39,-39zm-1 0l0 0c0,20 -16,37 -37,37 -21,0 -37,-17 -37,-37 0,-21 16,-37 37,-37 21,0 37,16 37,37z"/>
   <path class="fil178" d="M895 315c0,-21 -17,-38 -38,-38 -21,0 -38,17 -38,38 0,21 17,38 38,38 21,0 38,-17 38,-38zm-2 0l0 0c0,20 -16,36 -36,36 -20,0 -36,-16 -36,-36 0,-20 16,-36 36,-36 20,0 36,16 36,36z"/>
   <path class="fil97" d="M894 315c0,-21 -16,-37 -37,-37 -21,0 -37,16 -37,37 0,20 16,37 37,37 21,0 37,-17 37,-37zm-1 0l0 0c0,19 -16,36 -36,36 -19,0 -36,-16 -36,-36 0,-20 16,-36 36,-36 20,0 36,16 36,36z"/>
   <path class="fil179" d="M894 315c0,-20 -16,-36 -36,-36 -20,0 -36,16 -36,36 0,20 16,36 36,36 20,0 36,-16 36,-36zm-1 0l0 0c0,19 -16,35 -35,35 -19,0 -35,-16 -35,-35 0,-19 16,-35 35,-35 19,0 35,16 35,35z"/>
   <path class="fil180" d="M893 315c0,-20 -16,-36 -36,-36 -19,0 -36,16 -36,36 0,19 16,36 36,36 20,0 36,-16 36,-36zm-1 0l0 0c0,19 -16,34 -34,34 -19,0 -34,-16 -34,-34 0,-19 16,-34 34,-34 19,0 34,15 34,34z"/>
   <path class="fil101" d="M892 315c0,-19 -16,-35 -35,-35 -19,0 -35,16 -35,35 0,19 16,35 35,35 19,0 35,-16 35,-35zm-2 0l0 0c0,19 -15,34 -33,34 -19,0 -33,-15 -33,-34 0,-19 15,-33 33,-33 19,0 33,15 33,33z"/>
   <path class="fil101" d="M892 315c0,-19 -16,-34 -34,-34 -19,0 -34,15 -34,34 0,19 16,34 34,34 19,0 34,-16 34,-34zm-1 0l0 0c0,18 -15,33 -33,33 -18,0 -33,-15 -33,-33 0,-18 15,-33 33,-33 18,0 33,15 33,33z"/>
   <path class="fil103" d="M891 315c0,-19 -15,-33 -33,-33 -19,0 -33,15 -33,33 0,19 15,34 33,34 19,0 33,-15 33,-34zm-2 0l0 0c0,18 -14,32 -32,32 -18,0 -32,-14 -32,-32 0,-18 14,-32 32,-32 18,0 32,14 32,32z"/>
   <path class="fil104" d="M890 315c0,-18 -15,-33 -33,-33 -18,0 -33,15 -33,33 0,18 15,33 33,33 18,0 33,-15 33,-33zm-1 0l0 0c0,17 -14,31 -31,31 -17,0 -31,-14 -31,-31 0,-17 14,-31 31,-31 17,0 31,14 31,31z"/>
   <path class="fil105" d="M889 315c0,-18 -14,-32 -32,-32 -18,0 -32,14 -32,32 0,18 14,32 32,32 18,0 32,-14 32,-32zm-1 0l0 0c0,16 -13,30 -30,30 -17,0 -31,-14 -31,-30 0,-17 13,-30 31,-30 17,0 30,13 30,30z"/>
   <path class="fil181" d="M889 315c0,-17 -14,-31 -31,-31 -17,0 -31,14 -31,31 0,17 14,31 31,31 17,0 31,-14 31,-31zm-1 0l0 0c0,16 -13,30 -30,30 -16,0 -30,-13 -30,-30 0,-16 13,-30 30,-30 16,0 30,13 30,30z"/>
   <path class="fil182" d="M888 315c0,-17 -13,-30 -30,-30 -17,0 -31,13 -31,30 0,16 13,30 31,30 17,0 30,-14 30,-30zm-1 0l0 0c0,16 -13,29 -29,29 -16,0 -29,-13 -29,-29 0,-16 13,-29 29,-29 16,0 29,13 29,29z"/>
   <path class="fil183" d="M887 315c0,-16 -13,-30 -30,-30 -16,0 -30,13 -30,30 0,16 13,30 30,30 16,0 30,-13 30,-30zm-1 0l0 0c0,16 -13,28 -28,28 -16,0 -28,-13 -28,-28 0,-16 13,-28 28,-28 16,0 28,13 28,28z"/>
   <path class="fil184" d="M886 315c0,-16 -13,-29 -29,-29 -16,0 -29,13 -29,29 0,16 13,29 29,29 16,0 29,-13 29,-29zm-2 0l0 0c0,15 -12,28 -27,28 -15,0 -28,-13 -28,-28 0,-16 13,-27 28,-27 16,0 27,12 27,27z"/>
   <path class="fil111" d="M886 315c0,-16 -13,-28 -28,-28 -16,0 -28,13 -28,28 0,16 13,28 28,28 16,0 28,-13 28,-28zm-1 0l0 0c0,15 -12,27 -27,27 -15,0 -27,-12 -27,-27 0,-15 12,-27 27,-27 15,0 27,12 27,27z"/>
   <path class="fil112" d="M885 315c0,-16 -12,-27 -27,-27 -15,0 -28,12 -28,27 0,15 13,28 28,28 16,0 27,-13 27,-28zm-1 0l0 0c0,14 -12,26 -26,26 -14,0 -26,-12 -26,-26 0,-15 12,-26 26,-26 14,0 26,11 26,26z"/>
   <path class="fil112" d="M884 315c0,-15 -12,-27 -27,-27 -15,0 -27,12 -27,27 0,15 12,27 27,27 15,0 27,-12 27,-27zm-2 0l0 0c0,14 -11,25 -25,25 -14,0 -25,-11 -25,-25 0,-14 11,-25 25,-25 14,0 25,11 25,25z"/>
   <path class="fil114" d="M883 315c0,-15 -12,-26 -26,-26 -14,0 -26,11 -26,26 0,14 12,26 26,26 14,0 26,-12 26,-26zm-2 0l0 0c0,13 -11,25 -24,25 -13,0 -24,-11 -24,-25 0,-13 11,-24 24,-24 13,0 24,11 24,24z"/>
   <path class="fil185" d="M883 315c0,-14 -11,-25 -25,-25 -14,0 -25,11 -25,25 0,14 11,25 25,25 14,0 25,-11 25,-25zm-1 0l0 0c0,13 -11,24 -24,24 -13,0 -24,-11 -24,-24 0,-13 10,-24 24,-24 13,0 24,10 24,24z"/>
   <path class="fil186" d="M882 315c0,-13 -11,-24 -24,-24 -13,0 -24,11 -24,24 0,13 11,25 24,25 13,0 24,-11 24,-25zm-2 0l0 0c0,13 -10,23 -23,23 -13,0 -23,-10 -23,-23 0,-13 10,-23 23,-23 13,0 23,10 23,23z"/>
   <path class="fil187" d="M881 315c0,-13 -11,-24 -24,-24 -13,0 -24,10 -24,24 0,13 10,24 24,24 13,0 24,-11 24,-24zm-2 0l0 0c0,12 -10,22 -22,22 -12,0 -22,-10 -22,-22 0,-13 11,-22 22,-22 13,0 22,10 22,22z"/>
   <path class="fil188" d="M880 315c0,-13 -10,-23 -23,-23 -13,0 -23,10 -23,23 0,13 10,23 23,23 13,0 23,-10 23,-23zm-1 0l0 0c0,12 -10,22 -21,22 -12,0 -22,-10 -22,-22 0,-12 10,-22 22,-22 12,0 21,10 21,22z"/>
   <path class="fil189" d="M879 315c0,-13 -10,-22 -22,-22 -12,0 -22,10 -22,22 0,12 11,22 22,22 13,0 22,-10 22,-22zm-1 0l0 0c0,11 -9,21 -21,21 -11,0 -21,-10 -21,-21 0,-12 10,-21 21,-21 12,0 21,9 21,21z"/>
   <path class="fil190" d="M879 315c0,-12 -10,-22 -21,-22 -12,0 -22,10 -22,22 0,12 10,22 22,22 12,0 21,-10 21,-22zm-1 0l0 0c0,11 -9,20 -20,20 -11,0 -20,-9 -20,-20 0,-11 9,-20 20,-20 11,0 20,9 20,20z"/>
   <path class="fil191" d="M878 315c0,-12 -9,-21 -21,-21 -11,0 -21,9 -21,21 0,11 10,21 21,21 12,0 21,-10 21,-21zm-2 0l0 0c0,10 -9,19 -19,19 -10,0 -19,-9 -19,-19 0,-11 9,-19 19,-19 10,0 19,8 19,19z"/>
   <path class="fil123" d="M877 315c0,-11 -9,-20 -20,-20 -11,0 -20,9 -20,20 0,11 9,20 20,20 11,0 20,-9 20,-20zm-1 0l0 0c0,10 -8,19 -19,19 -10,0 -19,-8 -19,-19 0,-10 8,-19 19,-19 10,0 19,8 19,19z"/>
   <path class="fil192" d="M877 315c0,-11 -9,-19 -19,-19 -10,0 -19,8 -19,19 0,10 9,19 19,19 10,0 19,-9 19,-19zm-1 0l0 0c0,10 -8,18 -18,18 -10,0 -18,-8 -18,-18 0,-10 8,-18 18,-18 10,0 18,8 18,18z"/>
   <path class="fil126" d="M876 315c0,-10 -8,-19 -19,-19 -10,0 -19,8 -19,19 0,10 8,19 19,19 10,0 19,-8 19,-19zm-1 0l0 0c0,10 -7,17 -17,17 -10,0 -17,-7 -17,-17 0,-10 7,-17 17,-17 10,0 17,7 17,17z"/>
   <path class="fil126" d="M875 315c0,-10 -8,-18 -18,-18 -10,0 -18,8 -18,18 0,10 8,18 18,18 10,0 18,-8 18,-18zm-2 0l0 0c0,9 -7,16 -16,16 -9,0 -16,-7 -16,-16 0,-9 7,-16 16,-16 9,0 16,7 16,16z"/>
   <path class="fil193" d="M874 315c0,-10 -7,-17 -17,-17 -10,0 -17,7 -17,17 0,10 7,17 17,17 10,0 17,-7 17,-17zm-2 0l0 0c0,8 -7,16 -16,16 -8,0 -16,-7 -16,-16 0,-9 7,-16 16,-16 9,0 16,7 16,16z"/>
   <path class="fil194" d="M874 315c0,-9 -7,-16 -16,-16 -9,0 -16,7 -16,16 0,9 7,16 16,16 9,0 16,-7 16,-16zm-1 0l0 0c0,8 -7,15 -15,15 -8,0 -15,-7 -15,-15 0,-8 7,-15 15,-15 8,0 15,7 15,15z"/>
   <path class="fil130" d="M873 315c0,-9 -7,-16 -16,-16 -8,0 -16,7 -16,16 0,8 7,16 16,16 9,0 16,-7 16,-16zm-1 0l0 0c0,7 -6,14 -14,14 -8,0 -14,-7 -14,-14 0,-8 7,-14 14,-14 8,0 14,6 14,14z"/>
   <path class="fil130" d="M872 315c0,-8 -7,-15 -15,-15 -8,0 -15,7 -15,15 0,8 7,15 15,15 8,0 15,-7 15,-15zm-1 0l0 0c0,7 -6,13 -13,13 -8,0 -13,-6 -13,-13 0,-7 6,-13 13,-13 7,0 13,6 13,13z"/>
   <path class="fil132" d="M871 315c0,-8 -6,-14 -14,-14 -8,0 -14,6 -14,14 0,7 7,14 14,14 8,0 14,-7 14,-14zm-2 0l0 0c0,7 -6,13 -13,13 -7,0 -13,-6 -13,-13 0,-7 6,-13 13,-13 7,0 13,5 13,13z"/>
   <path class="fil133" d="M871 315c0,-7 -6,-13 -13,-13 -8,0 -13,6 -13,13 0,7 6,13 13,13 7,0 13,-6 13,-13zm-1 0l0 0c0,7 -5,12 -12,12 -7,0 -12,-5 -12,-12 0,-7 5,-12 12,-12 7,0 12,5 12,12z"/>
   <path class="fil195" d="M870 315c0,-7 -6,-13 -13,-13 -7,0 -13,5 -13,13 0,7 6,13 13,13 7,0 13,-6 13,-13zm-1 0l0 0c0,6 -5,11 -11,11 -6,0 -11,-5 -11,-11 0,-6 5,-11 11,-11 6,0 11,5 11,11z"/>
   <path class="fil135" d="M869 315c0,-7 -5,-12 -12,-12 -7,0 -12,5 -12,12 0,7 5,12 12,12 7,0 12,-5 12,-12zm-1 0l0 0c0,6 -4,10 -10,10 -6,0 -10,-5 -10,-10 0,-6 4,-10 10,-10 6,0 10,4 10,10z"/>
   <path class="fil136" d="M868 315c0,-6 -5,-11 -11,-11 -6,0 -11,5 -11,11 0,6 5,11 11,11 6,0 11,-5 11,-11zm-1 0l0 0c0,5 -5,10 -10,10 -5,0 -10,-4 -10,-10 0,-5 4,-10 10,-10 5,0 10,4 10,10z"/>
   <path class="fil137" d="M868 315c0,-6 -4,-10 -10,-10 -6,0 -10,4 -10,10 0,6 4,10 10,10 6,0 10,-5 10,-10zm-1 0l0 0c0,5 -4,9 -9,9 -5,0 -9,-4 -9,-9 0,-5 4,-9 9,-9 5,0 9,4 9,9z"/>
   <path class="fil138" d="M867 315c0,-5 -5,-10 -10,-10 -5,0 -10,4 -10,10 0,5 4,10 10,10 5,0 10,-4 10,-10zm-2 0l0 0c0,5 -4,8 -8,8 -4,0 -8,-4 -8,-8 0,-4 4,-8 8,-8 4,0 8,4 8,8z"/>
   <path class="fil196" d="M866 315c0,-5 -4,-9 -9,-9 -5,0 -9,4 -9,9 0,5 4,9 9,9 5,0 9,-4 9,-9zm-1 0l0 0c0,4 -3,7 -7,7 -4,0 -8,-4 -8,-7 0,-4 4,-7 8,-7 4,0 7,3 7,7z"/>
   <path class="fil139" d="M865 315c0,-4 -4,-8 -8,-8 -4,0 -8,4 -8,8 0,5 4,8 8,8 4,0 8,-4 8,-8zm-1 0l0 0c0,4 -3,7 -7,7 -4,0 -7,-3 -7,-7 0,-4 3,-7 7,-7 4,0 7,3 7,7z"/>
   <path class="fil140" d="M865 315c0,-4 -3,-7 -7,-7 -4,0 -8,3 -8,7 0,4 4,7 8,7 4,0 7,-4 7,-7zm-1 0l0 0c0,3 -2,6 -6,6 -3,0 -6,-3 -6,-6 0,-4 3,-6 6,-6 4,0 6,2 6,6z"/>
   <path class="fil197" d="M864 315c0,-4 -3,-7 -7,-7 -4,0 -7,3 -7,7 0,4 3,7 7,7 4,0 7,-3 7,-7zm-1 0l0 0c0,3 -2,5 -5,5 -3,0 -5,-2 -5,-5 0,-3 2,-5 5,-5 3,0 5,2 5,5z"/>
   <path class="fil142" d="M863 315c0,-4 -2,-6 -6,-6 -3,0 -6,2 -6,6 0,3 3,6 6,6 4,0 6,-3 6,-6zm-1 0l0 0c0,2 -2,5 -4,5 -2,0 -4,-2 -4,-5 0,-2 2,-4 4,-4 2,0 4,2 4,4z"/>
   <path class="fil198" d="M862 315c0,-3 -2,-5 -5,-5 -3,0 -5,2 -5,5 0,3 2,5 5,5 3,0 5,-2 5,-5zm-1 0l0 0c0,2 -1,4 -4,4 -2,0 -4,-1 -4,-4 0,-2 1,-4 4,-4 2,0 4,1 4,4z"/>
   <path class="fil144" d="M862 315c0,-2 -2,-4 -4,-4 -2,0 -4,2 -4,4 0,2 2,5 4,5 2,0 4,-2 4,-5zm-2 0l0 0c0,1 -1,3 -3,3 -2,0 -3,-1 -3,-3 0,-1 1,-3 3,-3 2,0 3,2 3,3z"/>
   <path class="fil199" d="M861 315c0,-2 -1,-4 -4,-4 -2,0 -4,1 -4,4 0,2 1,4 4,4 2,0 4,-1 4,-4zm-1 0l0 0c0,1 -1,2 -2,2 -2,0 -2,-2 -2,-2 0,-1 1,-2 2,-2 2,0 2,1 2,2z"/>
   <path class="fil146" d="M860 315c0,-1 -1,-3 -3,-3 -2,0 -3,2 -3,3 0,1 1,3 3,3 2,0 3,-1 3,-3zm-1 0l0 0c0,1 -1,1 -2,1 -1,0 -2,-1 -2,-1 0,-1 1,-1 2,-1 1,0 2,1 2,1z"/>
   <path class="fil147" d="M860 315c0,1 -1,2 -2,2 -2,0 -2,-2 -2,-2 0,-1 1,-2 2,-2 2,0 2,1 2,2z"/>
   <path class="fil56" d="M859 315c0,1 -1,1 -2,1 -1,0 -2,-1 -2,-1 0,-1 1,-1 2,-1 1,0 2,1 2,1z"/>
   <path class="fil56" d="M858 315c0,0 0,1 -1,1l-1 -1c0,-1 1,-1 1,-1 1,0 1,0 1,1z"/>
   <path class="fil200" d="M848 315c0,3 3,5 6,5 3,0 5,-2 5,-5 0,-3 -2,-6 -5,-6 -3,0 -6,3 -6,6z"/>
   <path class="fil56" d="M910 313c1,-3 3,-4 6,-3 2,1 4,3 3,6 -2,5 -10,3 -9,-3z"/>
   <path class="fil57" d="M926 315c0,-7 -6,-13 -13,-13 -7,0 -13,5 -13,13 0,7 5,13 13,13 7,0 13,-6 13,-13zm-1 0l0 0c0,6 -5,11 -11,11 -6,0 -11,-5 -11,-11 0,-7 5,-11 11,-11 6,0 11,4 11,11z"/>
   <path class="fil63" d="M925 315c0,-7 -5,-12 -12,-12 -7,0 -12,5 -12,12 0,7 5,12 12,12 7,0 12,-5 12,-12zm-2 0l0 0c0,6 -4,10 -10,10 -6,0 -10,-5 -10,-10 0,-6 4,-10 10,-10 6,0 10,4 10,10z"/>
   <path class="fil69" d="M924 315c0,-7 -5,-11 -11,-11 -6,0 -11,4 -11,11 0,6 5,11 11,11 6,0 11,-5 11,-11zm-1 0l0 0c0,5 -5,10 -10,10 -5,0 -10,-4 -10,-10 0,-5 4,-10 10,-10 5,0 10,4 10,10z"/>
   <path class="fil75" d="M923 315c0,-6 -4,-10 -10,-10 -6,0 -10,4 -10,10 0,6 5,10 10,10 6,0 10,-5 10,-10zm-1 0l0 0c0,5 -4,9 -9,9 -5,0 -9,-4 -9,-9 0,-5 4,-9 9,-9 5,0 9,4 9,9z"/>
   <path class="fil81" d="M923 315c0,-5 -5,-10 -10,-10 -5,0 -10,4 -10,10 0,5 4,10 10,10 5,0 10,-4 10,-10zm-2 0l0 0c0,5 -4,8 -8,8 -4,0 -8,-4 -8,-8 0,-4 4,-8 8,-8 5,0 8,4 8,8z"/>
   <path class="fil87" d="M922 315c0,-5 -4,-9 -9,-9 -5,0 -9,4 -9,9 0,5 4,9 9,9 5,0 9,-4 9,-9zm-2 0l0 0c0,4 -4,7 -7,7 -4,0 -7,-4 -7,-7 0,-4 3,-7 7,-7 4,0 7,3 7,7z"/>
   <path class="fil92" d="M921 315c0,-4 -4,-8 -8,-8 -4,0 -8,4 -8,8 0,5 4,8 8,8 5,0 8,-4 8,-8zm-1 0l0 0c0,4 -3,7 -7,7 -4,0 -7,-3 -7,-7 0,-4 3,-7 7,-7 4,0 7,3 7,7z"/>
   <path class="fil98" d="M920 315c0,-4 -4,-7 -7,-7 -4,0 -7,3 -7,7 0,4 3,7 7,7 4,0 7,-4 7,-7zm-1 0l0 0c0,3 -3,6 -6,6 -4,0 -6,-3 -6,-6 0,-4 2,-6 6,-6 3,0 6,2 6,6z"/>
   <path class="fil104" d="M920 315c0,-4 -3,-7 -7,-7 -4,0 -7,3 -7,7 0,4 3,7 7,7 4,0 7,-3 7,-7zm-1 0l0 0c0,3 -2,5 -5,5 -3,0 -5,-2 -5,-5 0,-3 2,-5 5,-5 3,0 5,2 5,5z"/>
   <path class="fil110" d="M919 315c0,-4 -3,-6 -6,-6 -4,0 -6,2 -6,6 0,3 2,6 6,6 3,0 6,-3 6,-6zm-1 0l0 0c0,2 -2,5 -5,5 -2,0 -4,-2 -4,-5 0,-3 2,-4 4,-4 2,0 5,1 5,4z"/>
   <path class="fil116" d="M918 315c0,-3 -2,-5 -5,-5 -3,0 -5,2 -5,5 0,3 2,5 5,5 3,0 5,-2 5,-5zm-1 0l0 0c0,2 -1,4 -4,4 -2,0 -4,-1 -4,-4 0,-2 1,-4 4,-4 2,0 4,1 4,4z"/>
   <path class="fil122" d="M918 315c0,-3 -2,-4 -5,-4 -2,0 -4,1 -4,4 0,2 2,5 4,5 2,0 5,-2 5,-5zm-2 0l0 0c0,1 -1,3 -3,3 -2,0 -3,-1 -3,-3 0,-1 1,-3 3,-3 1,0 3,2 3,3z"/>
   <path class="fil128" d="M917 315c0,-2 -1,-4 -4,-4 -2,0 -4,1 -4,4 0,2 1,4 4,4 2,0 4,-1 4,-4zm-1 0l0 0c0,1 -1,2 -2,2 -2,0 -2,-2 -2,-2 0,-1 1,-2 2,-2 1,0 2,1 2,2z"/>
   <path class="fil134" d="M916 315c0,-1 -1,-3 -3,-3 -2,0 -3,2 -3,3 0,1 1,3 3,3 1,0 3,-1 3,-3zm-1 0l0 0c0,1 -1,1 -1,1 -1,0 -2,-1 -2,-1 0,-1 1,-1 2,-1 1,0 1,1 1,1z"/>
   <path class="fil139" d="M915 315c0,1 -1,2 -2,2 -2,0 -2,-2 -2,-2 0,-1 1,-2 2,-2 1,0 2,1 2,2z"/>
   <path class="fil144" d="M915 315c0,1 -1,1 -1,1 -1,0 -2,-1 -2,-1 0,-1 1,-1 2,-1 1,0 1,1 1,1z"/>
   <path class="fil56" d="M914 315l-1 1c-1,0 -1,-1 -1,-1 0,-1 0,-1 1,-1 0,0 1,0 1,1z"/>
   <path class="fil57" d="M921 315c0,-4 -4,-8 -8,-8 -4,0 -8,4 -8,8 0,5 4,7 8,7 5,0 8,-3 8,-7zm-2 0l0 0c0,3 -2,6 -6,6 -4,0 -7,-3 -7,-6 0,-4 3,-7 7,-7 4,0 6,3 6,7z"/>
   <path class="fil162" d="M920 315c0,-4 -3,-7 -7,-7 -4,0 -7,4 -7,7 0,4 4,7 7,7 4,0 7,-3 7,-7zm-1 0l0 0c0,3 -2,5 -5,5 -3,0 -6,-2 -6,-5 0,-3 3,-6 6,-6 3,0 5,3 5,6z"/>
   <path class="fil79" d="M919 315c0,-4 -2,-7 -6,-7 -4,0 -7,3 -7,7 0,3 3,6 7,6 4,0 6,-3 6,-6zm-1 0l0 0c0,2 -2,5 -5,5 -3,0 -4,-2 -4,-5 0,-3 2,-5 4,-5 2,0 5,2 5,5z"/>
   <path class="fil89" d="M918 315c0,-3 -2,-6 -5,-6 -3,0 -6,3 -6,6 0,3 3,5 6,5 3,0 5,-2 5,-5zm-1 0l0 0c0,2 -1,4 -4,4 -2,0 -4,-1 -4,-4 0,-2 1,-4 4,-4 2,0 4,1 4,4z"/>
   <path class="fil163" d="M918 315c0,-3 -2,-5 -5,-5 -3,0 -4,2 -4,5 0,2 2,5 4,5 2,0 5,-2 5,-5zm-2 0l0 0c0,1 -1,3 -3,3 -2,0 -3,-1 -3,-3 0,-2 1,-3 3,-3 1,0 3,1 3,3z"/>
   <path class="fil164" d="M917 315c0,-2 -1,-4 -4,-4 -2,0 -4,1 -4,4 0,2 1,4 4,4 2,0 4,-1 4,-4zm-1 0l0 0c0,1 -1,2 -2,2 -2,0 -2,-1 -2,-2 0,-1 1,-2 2,-2 1,0 2,1 2,2z"/>
   <path class="fil120" d="M916 315c0,-2 -1,-3 -3,-3 -2,0 -3,1 -3,3 0,1 1,3 3,3 1,0 3,-1 3,-3zm-1 0l0 0c0,1 -1,1 -1,1 -1,0 -2,-1 -2,-1 0,-1 1,-1 2,-1 1,0 1,1 1,1z"/>
   <path class="fil130" d="M915 315c0,1 -1,2 -2,2 -2,0 -2,-1 -2,-2 0,-1 1,-2 2,-2 1,0 2,1 2,2z"/>
   <path class="fil165" d="M915 315c0,1 -1,1 -1,1 -1,0 -2,-1 -2,-1 0,-1 1,-1 2,-1 1,0 1,1 1,1z"/>
   <path class="fil56" d="M914 315l-1 1c-1,0 -1,-1 -1,-1 0,-1 0,-1 1,-1 0,0 1,0 1,1z"/>
   <polygon class="fil51" points="829,637 935,637 935,429 829,429 "/>
   <path class="fil56" d="M638 52l199 0c54,0 98,44 98,98 0,54 -44,98 -98,98l-199 0c-54,0 -98,-44 -98,-98 0,-54 44,-98 98,-98z"/>
   <path class="fil201" d="M855 139c5,0 10,4 10,10 0,5 -4,10 -10,10 -5,0 -10,-4 -10,-10 0,-5 4,-10 10,-10z"/>
   <path class="fil201" d="M792 952c-44,0 -79,-36 -79,-79 0,-44 36,-79 79,-79 44,0 79,36 79,79 0,44 -36,79 -79,79z"/>
   <path class="fil201" d="M792 948c-41,0 -75,-34 -75,-75 0,-41 34,-75 75,-75 42,0 75,34 75,75 0,41 -34,75 -75,75z"/>
   <path class="fil201" d="M792 944c-39,0 -71,-32 -71,-71 0,-39 32,-71 71,-71 39,0 71,32 71,71 0,39 -32,71 -71,71z"/>
   <path class="fil56" d="M792 943c-38,0 -70,-31 -70,-70 0,-39 31,-70 70,-70 38,0 70,31 70,70 0,39 -31,70 -70,70z"/>
   <path class="fil202" d="M792 942c-38,0 -69,-31 -69,-69 0,-38 31,-69 69,-69 38,0 69,31 69,69 0,38 -31,69 -69,69z"/>
   <path class="fil203" d="M792 941c-37,0 -68,-30 -68,-68 0,-37 30,-68 68,-68 37,0 68,30 68,68 0,37 -30,68 -68,68z"/>
   <path class="fil204" d="M792 940c-37,0 -67,-30 -67,-67 0,-37 30,-67 67,-67 37,0 67,30 67,67 0,37 -30,67 -67,67z"/>
   <path class="fil146" d="M792 939c-36,0 -66,-29 -66,-66 0,-36 29,-66 66,-66 36,0 66,29 66,66 0,36 -29,66 -66,66z"/>
   <path class="fil199" d="M792 938c-36,0 -65,-29 -65,-65 0,-36 29,-65 65,-65 36,0 65,29 65,65 0,36 -29,65 -65,65z"/>
   <path class="fil145" d="M792 937c-35,0 -64,-29 -64,-64 0,-35 29,-64 64,-64 35,0 64,29 64,64 0,35 -29,64 -64,64z"/>
   <path class="fil205" d="M792 936c-35,0 -63,-28 -63,-63 0,-35 28,-63 63,-63 35,0 63,28 63,63 0,35 -28,63 -63,63z"/>
   <path class="fil206" d="M792 935c-34,0 -62,-28 -62,-62 0,-34 28,-62 62,-62 34,0 62,28 62,62 0,34 -28,62 -62,62z"/>
   <path class="fil207" d="M792 934c-34,0 -61,-27 -61,-61 0,-34 27,-61 61,-61 34,0 61,27 61,61 0,34 -27,61 -61,61z"/>
   <path class="fil197" d="M792 933c-33,0 -60,-27 -60,-60 0,-33 27,-60 60,-60 33,0 60,27 60,60 0,33 -27,60 -60,60z"/>
   <path class="fil208" d="M792 932c-33,0 -59,-26 -59,-59 0,-33 26,-59 59,-59 33,0 59,26 59,59 0,33 -26,59 -59,59z"/>
   <path class="fil141" d="M792 931c-32,0 -58,-26 -58,-58 0,-32 26,-58 58,-58 32,0 58,26 58,58 0,32 -26,58 -58,58z"/>
   <path class="fil209" d="M792 930c-31,0 -57,-25 -57,-57 0,-31 25,-57 57,-57 31,0 57,25 57,57 0,32 -25,57 -57,57z"/>
   <path class="fil210" d="M792 929c-31,0 -56,-25 -56,-56 0,-31 25,-56 56,-56 31,0 56,25 56,56 0,31 -25,56 -56,56z"/>
   <path class="fil211" d="M792 928c-30,0 -55,-25 -55,-55 0,-30 25,-55 55,-55 30,0 55,25 55,55 0,30 -25,55 -55,55z"/>
   <path class="fil212" d="M792 927c-30,0 -54,-24 -54,-54 0,-30 24,-54 54,-54 30,0 54,24 54,54 0,30 -24,54 -54,54z"/>
   <path class="fil213" d="M792 926c-29,0 -53,-24 -53,-53 0,-29 24,-53 53,-53 29,0 53,24 53,53 0,29 -24,53 -53,53z"/>
   <path class="fil214" d="M792 925c-29,0 -52,-23 -52,-52 0,-29 23,-52 52,-52 29,0 52,23 52,52 0,29 -23,52 -52,52z"/>
   <path class="fil138" d="M792 924c-28,0 -51,-23 -51,-51 0,-28 23,-51 51,-51 28,0 51,23 51,51 0,28 -23,51 -51,51z"/>
   <path class="fil215" d="M792 923c-28,0 -50,-22 -50,-50 0,-28 22,-50 50,-50 28,0 50,22 50,50 0,28 -22,50 -50,50z"/>
   <path class="fil216" d="M792 922c-27,0 -49,-22 -49,-49 0,-27 22,-49 49,-49 27,0 49,22 49,49 0,27 -22,49 -49,49z"/>
   <path class="fil217" d="M792 921c-27,0 -48,-22 -48,-48 0,-27 22,-48 48,-48 27,0 48,22 48,48 0,27 -22,48 -48,48z"/>
   <path class="fil218" d="M792 920c-26,0 -47,-21 -47,-47 0,-26 21,-47 47,-47 26,0 47,21 47,47 0,26 -21,47 -47,47z"/>
   <path class="fil219" d="M792 919c-25,0 -46,-21 -46,-46 0,-26 21,-46 46,-46 25,0 46,21 46,46 0,26 -21,46 -46,46z"/>
   <path class="fil195" d="M792 918c-25,0 -45,-20 -45,-45 0,-25 20,-45 45,-45 25,0 45,20 45,45 0,25 -20,45 -45,45z"/>
   <path class="fil195" d="M792 917c-24,0 -44,-20 -44,-44 0,-24 20,-44 44,-44 24,0 44,20 44,44 0,24 -20,44 -44,44z"/>
   <path class="fil220" d="M792 916c-24,0 -43,-19 -43,-43 0,-24 19,-43 43,-43 24,0 43,19 43,43 0,24 -19,43 -43,43z"/>
   <path class="fil221" d="M792 915c-23,0 -42,-19 -42,-42 0,-23 19,-42 42,-42 23,0 42,19 42,42 0,23 -19,42 -42,42z"/>
   <path class="fil222" d="M792 914c-23,0 -41,-18 -41,-41 0,-23 19,-41 41,-41 23,0 41,18 41,41 0,23 -19,41 -41,41z"/>
   <path class="fil223" d="M792 913c-22,0 -40,-18 -40,-40 0,-22 18,-40 40,-40 22,0 40,18 40,40 0,22 -18,40 -40,40z"/>
   <path class="fil224" d="M792 912c-22,0 -39,-18 -39,-39 0,-22 18,-39 39,-39 22,0 39,18 39,39 0,22 -18,39 -39,39z"/>
   <path class="fil225" d="M792 911c-21,0 -38,-17 -38,-38 0,-21 17,-38 38,-38 21,0 38,17 38,38 0,21 -17,38 -38,38z"/>
   <path class="fil226" d="M792 910c-21,0 -37,-17 -37,-37 0,-21 17,-37 37,-37 21,0 37,17 37,37 0,21 -17,37 -37,37z"/>
   <path class="fil227" d="M792 909c-20,0 -36,-16 -36,-36 0,-20 16,-36 36,-36 20,0 36,16 36,36 0,20 -16,36 -36,36z"/>
   <path class="fil228" d="M792 908c-20,0 -35,-16 -35,-35 0,-20 16,-35 35,-35 20,0 35,16 35,35 0,20 -16,35 -35,35z"/>
   <path class="fil229" d="M792 907c-19,0 -34,-15 -34,-34 0,-19 15,-34 34,-34 19,0 34,15 34,34 0,19 -15,34 -34,34z"/>
   <path class="fil230" d="M792 906c-18,0 -33,-15 -33,-33 0,-18 15,-33 33,-33 18,0 33,15 33,33 0,18 -15,33 -33,33z"/>
   <path class="fil231" d="M792 905c-18,0 -32,-15 -32,-32 0,-18 15,-32 32,-32 18,0 32,15 32,32 0,18 -14,32 -32,32z"/>
   <path class="fil232" d="M792 904c-17,0 -31,-14 -31,-31 0,-17 14,-31 31,-31 17,0 31,14 31,31 0,17 -14,31 -31,31z"/>
   <path class="fil233" d="M792 903c-17,0 -30,-14 -30,-30 0,-17 14,-30 30,-30 17,0 30,14 30,30 0,17 -14,30 -30,30z"/>
   <path class="fil234" d="M792 902c-16,0 -29,-13 -29,-29 0,-16 13,-29 29,-29 16,0 29,13 29,29 0,16 -13,29 -29,29z"/>
   <path class="fil192" d="M792 901c-16,0 -28,-13 -28,-28 0,-16 13,-28 28,-28 16,0 28,13 28,28 0,16 -13,28 -28,28z"/>
   <path class="fil235" d="M792 901c-15,0 -27,-12 -27,-28 0,-15 12,-28 27,-28 15,0 27,12 27,28 0,15 -12,28 -27,28z"/>
   <path class="fil236" d="M792 900c-15,0 -27,-12 -27,-27 0,-15 12,-27 27,-27 15,0 27,12 27,27 0,15 -12,27 -27,27z"/>
   <path class="fil237" d="M792 899c-14,0 -26,-11 -26,-26 0,-14 11,-26 26,-26 14,0 26,11 26,26 0,14 -11,26 -26,26z"/>
   <path class="fil238" d="M792 898c-14,0 -25,-11 -25,-25 0,-13 11,-25 25,-25 14,0 25,11 25,25 0,14 -11,25 -25,25z"/>
   <path class="fil239" d="M792 897c-13,0 -24,-11 -24,-24 0,-13 11,-24 24,-24 13,0 24,11 24,24 0,13 -11,24 -24,24z"/>
   <path class="fil240" d="M792 896c-12,0 -23,-10 -23,-23 0,-13 10,-23 23,-23 12,0 23,10 23,23 0,13 -10,23 -23,23z"/>
   <path class="fil241" d="M792 895c-12,0 -22,-10 -22,-22 0,-12 10,-22 22,-22 12,0 22,10 22,22 0,12 -10,22 -22,22z"/>
   <path class="fil242" d="M792 894c-11,0 -21,-9 -21,-21 0,-11 9,-21 21,-21 11,0 21,9 21,21 0,11 -9,21 -21,21z"/>
   <path class="fil243" d="M792 893c-11,0 -20,-9 -20,-20 0,-11 9,-20 20,-20 11,0 20,9 20,20 0,11 -9,20 -20,20z"/>
   <path class="fil244" d="M792 892c-10,0 -19,-8 -19,-19 0,-10 8,-19 19,-19 10,0 19,8 19,19 0,10 -8,19 -19,19z"/>
   <path class="fil245" d="M792 891c-10,0 -18,-8 -18,-18 0,-10 8,-18 18,-18 10,0 18,8 18,18 0,10 -8,18 -18,18z"/>
   <path class="fil246" d="M792 890c-9,0 -17,-7 -17,-17 0,-9 8,-17 17,-17 9,0 17,7 17,17 0,9 -8,17 -17,17z"/>
   <path class="fil247" d="M792 889c-9,0 -16,-7 -16,-16 0,-9 7,-16 16,-16 9,0 16,7 16,16 0,9 -7,16 -16,16z"/>
   <path class="fil247" d="M792 888c-8,0 -15,-7 -15,-15 0,-8 7,-15 15,-15 8,0 15,7 15,15 0,8 -7,15 -15,15z"/>
   <path class="fil248" d="M792 887c-8,0 -14,-6 -14,-14 0,-8 6,-14 14,-14 8,0 14,6 14,14 0,8 -6,14 -14,14z"/>
   <path class="fil249" d="M792 886c-7,0 -13,-6 -13,-13 0,-7 6,-13 13,-13 7,0 13,6 13,13 0,7 -6,13 -13,13z"/>
   <path class="fil250" d="M792 885c-7,0 -12,-5 -12,-12 0,-6 5,-12 12,-12 7,0 12,5 12,12 0,7 -5,12 -12,12z"/>
   <path class="fil251" d="M792 884c-6,0 -11,-5 -11,-11 0,-6 5,-11 11,-11 6,0 11,5 11,11 0,6 -5,11 -11,11z"/>
   <path class="fil252" d="M792 883c-5,0 -10,-4 -10,-10 0,-5 4,-10 10,-10 5,0 10,4 10,10 0,5 -4,10 -10,10z"/>
   <path class="fil253" d="M792 882c-5,0 -9,-4 -9,-9 0,-5 4,-9 9,-9 5,0 9,4 9,9 0,5 -4,9 -9,9z"/>
   <path class="fil254" d="M792 881c-4,0 -8,-4 -8,-8 0,-4 4,-8 8,-8 4,0 8,4 8,8 0,4 -4,8 -8,8z"/>
   <path class="fil255" d="M792 880c-4,0 -7,-3 -7,-7 0,-4 3,-7 7,-7 4,0 7,3 7,7 0,4 -3,7 -7,7z"/>
   <path class="fil256" d="M792 879c-3,0 -6,-3 -6,-6 0,-3 3,-6 6,-6 3,0 6,3 6,6 0,3 -3,6 -6,6z"/>
   <path class="fil257" d="M792 878c-3,0 -5,-2 -5,-5 0,-3 2,-5 5,-5 3,0 5,2 5,5 0,3 -2,5 -5,5z"/>
   <path class="fil258" d="M792 877c-2,0 -4,-2 -4,-4 0,-2 2,-4 4,-4 2,0 4,2 4,4 0,2 -2,4 -4,4z"/>
   <path class="fil259" d="M792 876c-2,0 -3,-1 -3,-3 0,-2 1,-3 3,-3 2,0 3,1 3,3 0,2 -1,3 -3,3z"/>
   <path class="fil260" d="M792 875c-1,0 -2,-1 -2,-2 0,-1 1,-2 2,-2 1,0 2,1 2,2 0,1 -1,2 -2,2z"/>
   <path class="fil261" d="M792 874c-1,0 -1,-1 -1,-1 0,0 0,-1 1,-1 1,0 1,1 1,1 0,1 0,1 -1,1z"/>
   <polygon class="fil47" points="871,793 871,953 714,953 714,793 "/>
   <path class="fil262" d="M877 959l-169 0 0 -172 169 0 0 172zm-157 -12l0 0 145 0 0 -148 -145 0 0 148z"/>
   <polygon class="fil51" points="947,829 938,829 938,797 906,797 906,788 947,788 "/>
   <path class="fil51" d="M865 797l-82 0 0 -9 82 0 0 9zm-124 0l0 0 -82 0 0 -9 82 0 0 9zm-124 0l0 0 -82 0 0 -9 82 0 0 9z"/>
   <polygon class="fil51" points="494,797 453,797 453,756 462,756 462,788 494,788 "/>
   <polygon class="fil51" points="462,737 453,737 453,700 462,700 "/>
   <polygon class="fil51" points="462,681 453,681 453,649 421,649 421,640 462,640 "/>
   <polygon class="fil51" points="321,681 312,681 312,640 353,640 353,649 321,649 "/>
   <path class="fil51" d="M321 1259l-9 0 0 -77 9 0 0 77zm0 -116l0 0 -9 0 0 -77 9 0 0 77zm0 -116l0 0 -9 0 0 -77 9 0 0 77zm0 -116l0 0 -9 0 0 -77 9 0 0 77zm0 -116l0 0 -9 0 0 -77 9 0 0 77z"/>
   <polygon class="fil51" points="353,1339 312,1339 312,1298 321,1298 321,1330 353,1330 "/>
   <path class="fil51" d="M872 1339l-69 0 0 -9 69 0 0 9zm-104 0l0 0 -69 0 0 -9 69 0 0 9zm-104 0l0 0 -69 0 0 -9 69 0 0 9zm-104 0l0 0 -69 0 0 -9 69 0 0 9zm-104 0l0 0 -69 0 0 -9 69 0 0 9z"/>
   <polygon class="fil51" points="947,1339 906,1339 906,1330 938,1330 938,1298 947,1298 "/>
   <path class="fil51" d="M947 1262l-9 0 0 -72 9 0 0 72zm0 -108l0 0 -9 0 0 -72 9 0 0 72zm0 -108l0 0 -9 0 0 -72 9 0 0 72zm0 -108l0 0 -9 0 0 -72 9 0 0 72z"/>
   <polygon class="fil263" points="853,601 929,601 929,449 853,449 "/>
   <path class="fil264" d="M330 1581c-24,0 -42,10 -55,29 -13,19 -20,46 -20,80 0,70 27,106 80,106 16,0 32,-2 47,-7 15,-5 30,-10 46,-16l0 84c-31,14 -65,20 -104,20 -55,0 -98,-16 -127,-48 -29,-32 -44,-78 -44,-139 0,-38 7,-71 21,-100 14,-29 35,-51 62,-66 27,-15 58,-23 95,-23 40,0 77,9 114,26l-30 78c-14,-6 -27,-12 -41,-16 -14,-4 -28,-7 -44,-7z"/>
   <path class="fil51" d="M568 1642l-29 0 0 -79 0 -13 0 -14c-5,5 -8,8 -10,9l-16 13 -14 -17 44 -35 24 0 0 136z"/>
   <path class="fil51" d="M704 1614l-16 0 0 28 -28 0 0 -28 -58 0 0 -20 59 -88 26 0 0 85 16 0 0 22zm-44 -22l0 0 0 -23c0,-4 0,-9 0,-17 0,-7 1,-12 1,-13l-1 0c-2,5 -5,10 -8,15l-25 38 33 0z"/>
   <path class="fil51" d="M750 1622c-3,13 -9,27 -16,44l-20 0c4,-16 7,-32 9,-47l26 0 1 2z"/>
   <path class="fil51" d="M841 1642l-29 0 0 -79 0 -13 0 -14c-5,5 -8,8 -10,9l-16 13 -14 -17 44 -35 24 0 0 136z"/>
   <path class="fil51" d="M592 1870l-95 0 0 -20 34 -34c10,-10 17,-18 20,-22 3,-4 5,-8 7,-11 1,-3 2,-7 2,-11 0,-5 -2,-10 -5,-12 -3,-3 -7,-4 -12,-4 -5,0 -10,1 -15,4 -5,2 -10,6 -15,10l-16 -18c7,-6 12,-10 17,-12 4,-2 9,-4 14,-5 5,-1 11,-2 17,-2 8,0 16,2 22,5 7,3 12,7 15,13 4,6 5,12 5,19 0,6 -1,12 -3,18 -2,5 -6,11 -10,17 -5,6 -13,14 -24,25l-18 16 0 1 59 0 0 24z"/>
   <polygon class="fil51" points="620,1870 670,1759 604,1759 604,1735 701,1735 701,1753 650,1870 "/>
   <path class="fil51" d="M750 1850c-3,13 -9,27 -16,44l-20 0c4,-16 7,-32 9,-47l26 0 1 2z"/>
   <path class="fil51" d="M865 1870l-95 0 0 -20 34 -34c10,-10 17,-18 20,-22 3,-4 5,-8 7,-11 1,-3 2,-7 2,-11 0,-5 -2,-10 -5,-12 -3,-3 -7,-4 -12,-4 -5,0 -10,1 -15,4 -5,2 -10,6 -15,10l-16 -18c7,-6 12,-10 17,-12 4,-2 9,-4 14,-5 5,-1 11,-2 17,-2 8,0 16,2 22,5 7,3 12,7 15,13 4,6 5,12 5,19 0,6 -1,12 -3,18 -2,5 -6,11 -10,17 -5,6 -13,14 -24,25l-17 16 0 1 59 0 0 24z"/>
   <path class="fil51" d="M870 1700l-376 0c-5,0 -8,-3 -8,-7 0,-4 4,-7 8,-7l376 0c5,0 8,3 8,7 0,4 -4,7 -8,7z"/>
   <path class="fil51" d="M644 2119l-24 0 0 -65 0 -11 0 -12c-4,4 -7,6 -8,8l-13 10 -11 -14 36 -29 19 0 0 112z"/>
   <path class="fil51" d="M756 2096l-13 0 0 23 -23 0 0 -23 -48 0 0 -16 49 -72 22 0 0 70 13 0 0 18zm-37 -18l0 0 0 -19c0,-3 0,-8 0,-14 0,-6 0,-10 1,-10l-1 0c-2,4 -4,8 -7,12l-21 31 27 0z"/>
   <path class="fil51" d="M794 2103c-3,10 -7,23 -13,37l-17 0c3,-14 6,-26 8,-38l21 0 1 2z"/>
   <path class="fil51" d="M869 2119l-24 0 0 -65 0 -11 0 -12c-4,4 -7,6 -8,8l-13 10 -11 -14 36 -29 19 0 0 112z"/>
   <path class="fil51" d="M254 335c0,7 -2,13 -6,18 -4,5 -10,8 -18,10l0 0c9,1 16,4 21,8 5,4 7,10 7,18 0,11 -4,19 -12,25 -8,6 -19,9 -33,9 -12,0 -23,-2 -32,-6l0 -20c4,2 9,4 14,5 5,1 10,2 16,2 8,0 14,-1 17,-4 4,-3 6,-7 6,-13 0,-5 -2,-9 -6,-11 -4,-2 -11,-3 -21,-3l-9 0 0 -18 9 0c9,0 15,-1 19,-3 4,-2 6,-6 6,-12 0,-8 -5,-13 -16,-13 -4,0 -7,1 -11,2 -4,1 -8,3 -13,6l-11 -16c10,-7 22,-11 37,-11 12,0 21,2 27,7 7,5 10,11 10,20z"/>
   <path class="fil51" d="M299 406c-3,10 -7,23 -14,37l-17 0c3,-14 6,-26 8,-38l21 0 1 2z"/>
   <polygon class="fil51" points="326,422 368,330 313,330 313,310 394,310 394,325 351,422 "/>
   <path class="fil51" d="M666 1085c11,0 19,3 26,9 6,6 10,14 10,25 0,13 -4,22 -12,29 -8,7 -19,10 -33,10 -12,0 -23,-2 -30,-6l0 -20c4,2 9,4 14,5 5,1 10,2 15,2 14,0 22,-6 22,-18 0,-11 -7,-17 -22,-17 -3,0 -6,0 -9,1 -3,1 -6,1 -8,2l-9 -5 4 -57 61 0 0 20 -40 0 -2 22 3 -1c3,-1 7,-1 12,-1z"/>
   <path class="fil51" d="M744 1140c-3,10 -7,23 -13,37l-17 0c3,-14 6,-26 8,-38l21 0 1 2z"/>
   <path class="fil51" d="M838 1100c0,20 -3,34 -10,43 -6,9 -16,14 -30,14 -13,0 -23,-5 -29,-15 -7,-10 -10,-24 -10,-43 0,-20 3,-34 10,-44 6,-9 16,-14 30,-14 13,0 23,5 29,15 7,10 10,24 10,43zm-55 0l0 0c0,14 1,24 4,30 2,6 6,9 12,9 6,0 9,-3 12,-9 2,-6 4,-16 4,-29 0,-14 -1,-24 -4,-30 -2,-6 -6,-9 -12,-9 -6,0 -10,3 -12,9 -2,6 -4,16 -4,30z"/>
   <path class="fil51" d="M195 2386c0,7 -2,13 -6,18 -4,5 -10,8 -18,10l0 0c9,1 16,4 21,8 5,4 7,10 7,18 0,11 -4,19 -12,25 -8,6 -19,9 -34,9 -12,0 -23,-2 -32,-6l0 -20c4,2 9,4 14,5 5,1 10,2 16,2 8,0 14,-1 17,-4 4,-3 6,-7 6,-13 0,-5 -2,-9 -6,-11 -4,-2 -11,-3 -21,-3l-9 0 0 -18 9 0c9,0 15,-1 19,-3 4,-2 6,-6 6,-12 0,-8 -5,-13 -16,-13 -4,0 -7,1 -11,2 -4,1 -8,3 -13,6l-11 -16c10,-7 22,-11 37,-11 12,0 21,2 27,7 7,5 10,11 10,20z"/>
   <path class="fil51" d="M240 2457c-3,10 -7,23 -13,37l-17 0c3,-14 6,-26 8,-38l21 0 1 2z"/>
   <path class="fil51" d="M295 2360c11,0 19,2 26,7 7,5 10,11 10,20 0,6 -2,11 -5,15 -3,4 -8,8 -15,12 8,4 14,9 18,14 4,5 5,10 5,16 0,9 -4,17 -11,22 -7,6 -17,8 -28,8 -12,0 -22,-3 -29,-8 -7,-5 -11,-13 -11,-22 0,-6 2,-12 5,-17 3,-5 9,-9 16,-13 -6,-4 -11,-8 -14,-13 -3,-5 -4,-10 -4,-15 0,-8 3,-14 10,-19 7,-5 15,-7 26,-7zm-17 84l0 0c0,4 2,8 5,10 3,2 7,4 13,4 6,0 10,-1 13,-4 3,-3 4,-6 4,-10 0,-3 -1,-7 -4,-10 -3,-3 -8,-6 -14,-10 -11,5 -16,11 -16,19zm17 -66l0 0c-4,0 -7,1 -10,3 -2,2 -4,5 -4,8 0,3 1,6 3,8 2,2 6,5 11,7 5,-2 9,-5 11,-7 2,-2 3,-5 3,-8 0,-4 -1,-6 -4,-8 -3,-2 -6,-3 -10,-3z"/>
   <path class="fil51" d="M637 338c0,7 -2,13 -6,18 -4,5 -10,8 -18,10l0 0c9,1 16,4 21,8 5,4 7,10 7,18 0,11 -4,19 -12,25 -8,6 -19,9 -34,9 -12,0 -23,-2 -32,-6l0 -20c4,2 9,4 14,5 5,1 10,2 15,2 8,0 14,-1 17,-4 4,-3 6,-7 6,-13 0,-5 -2,-9 -6,-11 -4,-2 -11,-3 -21,-3l-9 0 0 -18 9 0c9,0 15,-1 19,-3 4,-2 6,-6 6,-12 0,-8 -5,-13 -16,-13 -4,0 -7,1 -11,2 -4,1 -8,3 -13,6l-11 -16c10,-7 22,-11 37,-11 12,0 21,2 27,7 7,5 10,11 10,20z"/>
   <path class="fil51" d="M681 408c-3,10 -7,23 -13,37l-17 0c3,-14 6,-26 8,-38l21 0 1 2z"/>
   <path class="fil51" d="M772 338c0,7 -2,13 -6,18 -4,5 -10,8 -18,10l0 0c9,1 16,4 21,8 5,4 7,10 7,18 0,11 -4,19 -12,25 -8,6 -19,9 -34,9 -12,0 -23,-2 -32,-6l0 -20c4,2 9,4 14,5 5,1 10,2 16,2 8,0 14,-1 17,-4 4,-3 6,-7 6,-13 0,-5 -2,-9 -6,-11 -4,-2 -11,-3 -21,-3l-8 0 0 -18 9 0c9,0 15,-1 19,-3 4,-2 6,-6 6,-12 0,-8 -5,-13 -16,-13 -4,0 -7,1 -11,2 -4,1 -8,3 -13,6l-11 -16c10,-7 22,-11 37,-11 12,0 21,2 27,7 7,5 10,11 10,20z"/>
  </g>
 </g>
</svg>
