<?xml version="1.0" encoding="UTF-8"?>
<!DOCTYPE svg PUBLIC "-//W3C//DTD SVG 1.1//EN" "http://www.w3.org/Graphics/SVG/1.1/DTD/svg11.dtd">
<!-- Creator: CorelDRAW X6 -->
<svg xmlns="http://www.w3.org/2000/svg" xml:space="preserve" width="1.03717in" height="3.0071in" version="1.1" style="shape-rendering:geometricPrecision; text-rendering:geometricPrecision; image-rendering:optimizeQuality; fill-rule:evenodd; clip-rule:evenodd"
viewBox="0 0 1037 3007"
 xmlns:xlink="http://www.w3.org/1999/xlink">
 <defs>
  <style type="text/css">
   <![CDATA[
    .fil262 {fill:#30302F}
    .fil263 {fill:#363332}
    .fil231 {fill:#3A3952}
    .fil229 {fill:#5DAFD4}
    .fil125 {fill:#72706C}
    .fil124 {fill:#74716B}
    .fil127 {fill:#757370}
    .fil126 {fill:#77746E}
    .fil232 {fill:#777471}
    .fil128 {fill:#787672}
    .fil233 {fill:#7A7773}
    .fil129 {fill:#7B7873}
    .fil131 {fill:#7B7A77}
    .fil130 {fill:#7C7A75}
    .fil234 {fill:#7C7B77}
    .fil132 {fill:#7E7C78}
    .fil133 {fill:#80807B}
    .fil235 {fill:#817E7B}
    .fil134 {fill:#85817C}
    .fil225 {fill:#85827D}
    .fil135 {fill:#86837E}
    .fil136 {fill:#86847F}
    .fil236 {fill:#878580}
    .fil137 {fill:#888681}
    .fil138 {fill:#8A8883}
    .fil237 {fill:#8B8883}
    .fil139 {fill:#8B8984}
    .fil141 {fill:#8B8B84}
    .fil140 {fill:#8C8884}
    .fil142 {fill:#8E8A85}
    .fil238 {fill:#8E8C86}
    .fil219 {fill:#8E8C87}
    .fil143 {fill:#8F8C86}
    .fil144 {fill:#908D89}
    .fil145 {fill:#918F8B}
    .fil146 {fill:#94908A}
    .fil212 {fill:#94918B}
    .fil147 {fill:#94918C}
    .fil239 {fill:#95928E}
    .fil148 {fill:#979590}
    .fil240 {fill:#99958F}
    .fil149 {fill:#99968F}
    .fil150 {fill:#9A9790}
    .fil151 {fill:#9B9993}
    .fil241 {fill:#9C9892}
    .fil152 {fill:#9F9B96}
    .fil154 {fill:#9F9C97}
    .fil153 {fill:#9F9D95}
    .fil123 {fill:#9F9F9A}
    .fil156 {fill:#A2A099}
    .fil155 {fill:#A39E98}
    .fil242 {fill:#A3A09B}
    .fil213 {fill:#A3A09C}
    .fil157 {fill:#A5A29F}
    .fil243 {fill:#A7A49E}
    .fil158 {fill:#A7A4A0}
    .fil159 {fill:#A9A6A1}
    .fil160 {fill:#ACA7A4}
    .fil161 {fill:#ADA9A3}
    .fil220 {fill:#ADA9A4}
    .fil162 {fill:#ADA9A6}
    .fil214 {fill:#AEAAA6}
    .fil244 {fill:#AEACA7}
    .fil163 {fill:#AFABA6}
    .fil164 {fill:#B1ADA8}
    .fil165 {fill:#B3B1AC}
    .fil245 {fill:#B5B1AC}
    .fil166 {fill:#B5B3AE}
    .fil226 {fill:#B5B3B0}
    .fil246 {fill:#B7B5B0}
    .fil167 {fill:#B8B5B1}
    .fil230 {fill:#B8DFF2}
    .fil168 {fill:#B9B6B2}
    .fil169 {fill:#B9B7B4}
    .fil170 {fill:#BCBAB5}
    .fil172 {fill:#BEBDBA}
    .fil171 {fill:#C0BCB9}
    .fil173 {fill:#C0BDBA}
    .fil247 {fill:#C0BDBB}
    .fil174 {fill:#C2BFBD}
    .fil215 {fill:#C2C0BC}
    .fil248 {fill:#C3C1BD}
    .fil249 {fill:#C4C0BE}
    .fil176 {fill:#C4C1C0}
    .fil121 {fill:#C4C3C2}
    .fil175 {fill:#C5C2BE}
    .fil250 {fill:#C5C2C1}
    .fil227 {fill:#C5C3BF}
    .fil120 {fill:#C5C4C2}
    .fil119 {fill:#C6C5C3}
    .fil177 {fill:#C7C5C1}
    .fil178 {fill:#C7C5C3}
    .fil118 {fill:#C7C6C4}
    .fil117 {fill:#C7C7C5}
    .fil116 {fill:#C8C7C5}
    .fil179 {fill:#C9C6C3}
    .fil115 {fill:#C9C8C6}
    .fil216 {fill:#CAC7C2}
    .fil180 {fill:#CAC7C4}
    .fil114 {fill:#CAC9C7}
    .fil181 {fill:#CBC8C7}
    .fil113 {fill:#CBCAC8}
    .fil112 {fill:#CBCBC9}
    .fil221 {fill:#CCC8C4}
    .fil111 {fill:#CCCBC9}
    .fil182 {fill:#CDCAC5}
    .fil251 {fill:#CDCBC8}
    .fil211 {fill:#CDCBC9}
    .fil110 {fill:#CDCCCA}
    .fil183 {fill:#CECAC7}
    .fil109 {fill:#CECDCB}
    .fil108 {fill:#CFCECC}
    .fil252 {fill:#D0CCC8}
    .fil184 {fill:#D0CDCA}
    .fil253 {fill:#D0CDCB}
    .fil185 {fill:#D0CECC}
    .fil107 {fill:#D0CFCD}
    .fil217 {fill:#D1CFCC}
    .fil254 {fill:#D1CFCD}
    .fil106 {fill:#D1D0CF}
    .fil105 {fill:#D2D1D0}
    .fil186 {fill:#D3D1CE}
    .fil104 {fill:#D3D2D1}
    .fil255 {fill:#D4D1CF}
    .fil103 {fill:#D4D2D1}
    .fil187 {fill:#D5D2CE}
    .fil102 {fill:#D5D3D2}
    .fil101 {fill:#D5D4D3}
    .fil256 {fill:#D6D3CF}
    .fil188 {fill:#D6D3D1}
    .fil100 {fill:#D6D5D4}
    .fil99 {fill:#D7D6D5}
    .fil257 {fill:#D8D5D2}
    .fil189 {fill:#D8D6D2}
    .fil98 {fill:#D8D7D5}
    .fil97 {fill:#D9D8D7}
    .fil96 {fill:#DAD9D8}
    .fil222 {fill:#DADAD5}
    .fil190 {fill:#DADAD6}
    .fil218 {fill:#DADAD8}
    .fil95 {fill:#DADAD9}
    .fil191 {fill:#DBD9D7}
    .fil94 {fill:#DBDAD9}
    .fil192 {fill:#DBDBD9}
    .fil93 {fill:#DCDBDA}
    .fil92 {fill:#DDDCDB}
    .fil194 {fill:#DEDCDB}
    .fil193 {fill:#DEDDDB}
    .fil91 {fill:#DEDDDC}
    .fil258 {fill:#DEDEDC}
    .fil90 {fill:#DFDDDC}
    .fil89 {fill:#DFDEDD}
    .fil88 {fill:#E0DFDE}
    .fil195 {fill:#E1E0DD}
    .fil87 {fill:#E1E0E0}
    .fil259 {fill:#E2E0DF}
    .fil86 {fill:#E2E1E0}
    .fil52 {fill:#E31256}
    .fil85 {fill:#E3E2E1}
    .fil196 {fill:#E4E2DE}
    .fil197 {fill:#E4E3E1}
    .fil84 {fill:#E4E3E2}
    .fil83 {fill:#E4E4E3}
    .fil198 {fill:#E5E4E2}
    .fil82 {fill:#E5E5E4}
    .fil199 {fill:#E6E5E3}
    .fil81 {fill:#E6E5E4}
    .fil223 {fill:#E7E6E3}
    .fil80 {fill:#E7E6E5}
    .fil79 {fill:#E8E7E6}
    .fil200 {fill:#E9E7E6}
    .fil201 {fill:#E9E7E7}
    .fil78 {fill:#E9E8E8}
    .fil202 {fill:#E9E9E8}
    .fil77 {fill:#EAE9E9}
    .fil76 {fill:#EBEAEA}
    .fil203 {fill:#ECEBEA}
    .fil75 {fill:#ECEBEB}
    .fil74 {fill:#EDECEB}
    .fil73 {fill:#EDEDEC}
    .fil204 {fill:#EEECEC}
    .fil72 {fill:#EEEEED}
    .fil260 {fill:#EFEFED}
    .fil71 {fill:#EFEFEE}
    .fil70 {fill:#F0F0EF}
    .fil205 {fill:#F1EFEF}
    .fil69 {fill:#F1F0F0}
    .fil228 {fill:#F1F0F1}
    .fil68 {fill:#F1F1F1}
    .fil67 {fill:#F2F2F2}
    .fil206 {fill:#F3F2F3}
    .fil224 {fill:#F3F3F2}
    .fil66 {fill:#F3F3F3}
    .fil65 {fill:#F4F4F4}
    .fil64 {fill:#F5F4F4}
    .fil63 {fill:whitesmoke}
    .fil62 {fill:#F6F6F6}
    .fil207 {fill:#F7F7F6}
    .fil61 {fill:#F7F7F7}
    .fil208 {fill:#F8F7F7}
    .fil261 {fill:#F8F8F7}
    .fil60 {fill:#F8F8F8}
    .fil209 {fill:#F8F8F9}
    .fil59 {fill:#F9F9F9}
    .fil58 {fill:#FAFAFA}
    .fil57 {fill:#FAFBFB}
    .fil210 {fill:#FAFDFE}
    .fil56 {fill:#FBFBFB}
    .fil55 {fill:#FCFCFC}
    .fil54 {fill:#FDFDFD}
    .fil53 {fill:#FEFEFE}
    .fil50 {fill:#323030;fill-rule:nonzero}
    .fil51 {fill:#3A3952;fill-rule:nonzero}
    .fil122 {fill:#646261;fill-rule:nonzero}
    .fil49 {fill:#6C6B6A;fill-rule:nonzero}
    .fil1 {fill:#B1B1B0;fill-rule:nonzero}
    .fil4 {fill:#BFE0F1;fill-rule:nonzero}
    .fil48 {fill:#C4C3C2;fill-rule:nonzero}
    .fil5 {fill:#C7C6C4;fill-rule:nonzero}
    .fil6 {fill:#C9C8C6;fill-rule:nonzero}
    .fil7 {fill:#CBCBC9;fill-rule:nonzero}
    .fil8 {fill:#CECDCB;fill-rule:nonzero}
    .fil9 {fill:#D0CFCD;fill-rule:nonzero}
    .fil10 {fill:#D2D1D0;fill-rule:nonzero}
    .fil11 {fill:#D4D3D2;fill-rule:nonzero}
    .fil12 {fill:#D6D5D4;fill-rule:nonzero}
    .fil13 {fill:#D8D7D6;fill-rule:nonzero}
    .fil14 {fill:#DAD9D8;fill-rule:nonzero}
    .fil0 {fill:#DBDBDA;fill-rule:nonzero}
    .fil15 {fill:#DCDBDA;fill-rule:nonzero}
    .fil3 {fill:#DCDCDB;fill-rule:nonzero}
    .fil16 {fill:#DEDDDC;fill-rule:nonzero}
    .fil17 {fill:#DFDEDD;fill-rule:nonzero}
    .fil18 {fill:#E1E0E0;fill-rule:nonzero}
    .fil264 {fill:#E31256;fill-rule:nonzero}
    .fil19 {fill:#E3E2E1;fill-rule:nonzero}
    .fil20 {fill:#E4E4E3;fill-rule:nonzero}
    .fil21 {fill:#E6E5E4;fill-rule:nonzero}
    .fil22 {fill:#E8E6E5;fill-rule:nonzero}
    .fil23 {fill:#E9E8E8;fill-rule:nonzero}
    .fil24 {fill:#EAE9E9;fill-rule:nonzero}
    .fil25 {fill:#EBEAEA;fill-rule:nonzero}
    .fil26 {fill:#EDECEB;fill-rule:nonzero}
    .fil27 {fill:#EDEDEC;fill-rule:nonzero}
    .fil2 {fill:#EEEDEC;fill-rule:nonzero}
    .fil28 {fill:#EFEEED;fill-rule:nonzero}
    .fil29 {fill:#F0EFEE;fill-rule:nonzero}
    .fil30 {fill:#F1F0F0;fill-rule:nonzero}
    .fil31 {fill:#F1F1F1;fill-rule:nonzero}
    .fil32 {fill:#F2F2F2;fill-rule:nonzero}
    .fil33 {fill:#F3F3F3;fill-rule:nonzero}
    .fil34 {fill:#F4F4F4;fill-rule:nonzero}
    .fil35 {fill:#F5F5F4;fill-rule:nonzero}
    .fil36 {fill:whitesmoke;fill-rule:nonzero}
    .fil37 {fill:#F6F6F6;fill-rule:nonzero}
    .fil38 {fill:#F7F7F6;fill-rule:nonzero}
    .fil39 {fill:#F8F8F8;fill-rule:nonzero}
    .fil40 {fill:#F9F8F8;fill-rule:nonzero}
    .fil41 {fill:#F9F9F9;fill-rule:nonzero}
    .fil42 {fill:#FAFAFA;fill-rule:nonzero}
    .fil43 {fill:#FBFBFB;fill-rule:nonzero}
    .fil44 {fill:#FCFCFC;fill-rule:nonzero}
    .fil45 {fill:#FDFCFC;fill-rule:nonzero}
    .fil46 {fill:#FDFDFD;fill-rule:nonzero}
    .fil47 {fill:#FEFEFE;fill-rule:nonzero}
   ]]>
  </style>
 </defs>
 <g id="ﾃ神x00a1_ﾃ神x00bb_ﾃ神x00be_ﾃ神x00b9__x0020_1">
  <metadata id="CorelCorpID_0Corel-Layer"/>
  <g id="_368067656">
   <polygon class="fil0" points="408,100 348,100 348,160 408,160 "/>
   <path class="fil1" d="M347 98l64 0 0 64 -64 0 0 -64zm60 4l0 0 -56 0 0 56 56 0 0 -56z"/>
   <polygon class="fil0" points="408,160 348,160 348,219 408,219 "/>
   <path class="fil1" d="M347 158l64 0 0 64 -64 0 0 -64zm60 4l0 0 -56 0 0 56 56 0 0 -56z"/>
   <polygon class="fil0" points="408,219 348,219 348,279 408,279 "/>
   <path class="fil1" d="M347 217l64 0 0 64 -64 0 0 -64zm60 4l0 0 -56 0 0 56 56 0 0 -56z"/>
   <polygon class="fil0" points="408,279 348,279 348,338 408,338 "/>
   <path class="fil1" d="M347 277l64 0 0 64 -64 0 0 -64zm60 4l0 0 -56 0 0 56 56 0 0 -56z"/>
   <polygon class="fil0" points="408,338 348,338 348,398 408,398 "/>
   <path class="fil1" d="M347 336l64 0 0 64 -64 0 0 -64zm60 4l0 0 -56 0 0 56 56 0 0 -56z"/>
   <polygon class="fil0" points="408,397 348,397 348,457 408,457 "/>
   <path class="fil1" d="M347 395l64 0 0 64 -64 0 0 -64zm60 4l0 0 -56 0 0 56 56 0 0 -56z"/>
   <polygon class="fil0" points="408,456 348,456 348,516 408,516 "/>
   <path class="fil1" d="M347 454l64 0 0 64 -64 0 0 -64zm60 4l0 0 -56 0 0 56 56 0 0 -56z"/>
   <polygon class="fil2" points="468,100 408,100 408,160 468,160 "/>
   <path class="fil1" d="M406 98l64 0 0 64 -64 0 0 -64zm60 4l0 0 -56 0 0 56 56 0 0 -56z"/>
   <polygon class="fil0" points="468,160 408,160 408,219 468,219 "/>
   <path class="fil1" d="M406 158l64 0 0 64 -64 0 0 -64zm60 4l0 0 -56 0 0 56 56 0 0 -56z"/>
   <polygon class="fil2" points="468,219 408,219 408,279 468,279 "/>
   <path class="fil1" d="M406 217l64 0 0 64 -64 0 0 -64zm60 4l0 0 -56 0 0 56 56 0 0 -56z"/>
   <polygon class="fil0" points="468,279 408,279 408,338 468,338 "/>
   <path class="fil1" d="M406 277l64 0 0 64 -64 0 0 -64zm60 4l0 0 -56 0 0 56 56 0 0 -56z"/>
   <polygon class="fil2" points="468,338 408,338 408,398 468,398 "/>
   <path class="fil1" d="M406 336l64 0 0 64 -64 0 0 -64zm60 4l0 0 -56 0 0 56 56 0 0 -56z"/>
   <polygon class="fil0" points="468,397 408,397 408,457 468,457 "/>
   <path class="fil1" d="M406 395l64 0 0 64 -64 0 0 -64zm60 4l0 0 -56 0 0 56 56 0 0 -56z"/>
   <polygon class="fil2" points="468,456 408,456 408,516 468,516 "/>
   <path class="fil1" d="M406 454l64 0 0 64 -64 0 0 -64zm60 4l0 0 -56 0 0 56 56 0 0 -56z"/>
   <polygon class="fil2" points="349,100 289,100 289,160 349,160 "/>
   <path class="fil1" d="M287 98l64 0 0 64 -64 0 0 -64zm60 4l0 0 -56 0 0 56 56 0 0 -56z"/>
   <polygon class="fil0" points="349,160 289,160 289,219 349,219 "/>
   <path class="fil1" d="M287 158l64 0 0 64 -64 0 0 -64zm60 4l0 0 -56 0 0 56 56 0 0 -56z"/>
   <polygon class="fil2" points="349,219 289,219 289,279 349,279 "/>
   <path class="fil1" d="M287 217l64 0 0 64 -64 0 0 -64zm60 4l0 0 -56 0 0 56 56 0 0 -56z"/>
   <polygon class="fil0" points="349,279 289,279 289,338 349,338 "/>
   <path class="fil1" d="M287 277l64 0 0 64 -64 0 0 -64zm60 4l0 0 -56 0 0 56 56 0 0 -56z"/>
   <polygon class="fil2" points="349,338 289,338 289,398 349,398 "/>
   <path class="fil1" d="M287 336l64 0 0 64 -64 0 0 -64zm60 4l0 0 -56 0 0 56 56 0 0 -56z"/>
   <polygon class="fil0" points="349,397 289,397 289,457 349,457 "/>
   <path class="fil1" d="M287 395l64 0 0 64 -64 0 0 -64zm60 4l0 0 -56 0 0 56 56 0 0 -56z"/>
   <polygon class="fil2" points="349,456 289,456 289,516 349,516 "/>
   <path class="fil1" d="M287 454l64 0 0 64 -64 0 0 -64zm60 4l0 0 -56 0 0 56 56 0 0 -56z"/>
   <polygon class="fil0" points="229,100 170,100 170,160 229,160 "/>
   <path class="fil1" d="M168 98l64 0 0 64 -64 0 0 -64zm60 4l0 0 -56 0 0 56 56 0 0 -56z"/>
   <polygon class="fil0" points="229,160 170,160 170,219 229,219 "/>
   <path class="fil1" d="M168 158l64 0 0 64 -64 0 0 -64zm60 4l0 0 -56 0 0 56 56 0 0 -56z"/>
   <polygon class="fil0" points="229,219 170,219 170,279 229,279 "/>
   <path class="fil1" d="M168 217l64 0 0 64 -64 0 0 -64zm60 4l0 0 -56 0 0 56 56 0 0 -56z"/>
   <polygon class="fil0" points="229,279 170,279 170,338 229,338 "/>
   <path class="fil1" d="M168 277l64 0 0 64 -64 0 0 -64zm60 4l0 0 -56 0 0 56 56 0 0 -56z"/>
   <polygon class="fil0" points="229,338 170,338 170,398 229,398 "/>
   <path class="fil1" d="M168 336l64 0 0 64 -64 0 0 -64zm60 4l0 0 -56 0 0 56 56 0 0 -56z"/>
   <polygon class="fil0" points="229,397 170,397 170,457 229,457 "/>
   <path class="fil1" d="M168 395l64 0 0 64 -64 0 0 -64zm60 4l0 0 -56 0 0 56 56 0 0 -56z"/>
   <polygon class="fil0" points="229,456 170,456 170,516 229,516 "/>
   <path class="fil1" d="M168 454l64 0 0 64 -64 0 0 -64zm60 4l0 0 -56 0 0 56 56 0 0 -56z"/>
   <polygon class="fil2" points="289,100 229,100 229,160 289,160 "/>
   <path class="fil1" d="M228 98l64 0 0 64 -64 0 0 -64zm60 4l0 0 -56 0 0 56 56 0 0 -56z"/>
   <polygon class="fil0" points="289,160 229,160 229,219 289,219 "/>
   <path class="fil1" d="M228 158l64 0 0 64 -64 0 0 -64zm60 4l0 0 -56 0 0 56 56 0 0 -56z"/>
   <polygon class="fil2" points="289,219 229,219 229,279 289,279 "/>
   <path class="fil1" d="M228 217l64 0 0 64 -64 0 0 -64zm60 4l0 0 -56 0 0 56 56 0 0 -56z"/>
   <polygon class="fil0" points="289,279 229,279 229,338 289,338 "/>
   <path class="fil1" d="M228 277l64 0 0 64 -64 0 0 -64zm60 4l0 0 -56 0 0 56 56 0 0 -56z"/>
   <polygon class="fil2" points="289,338 229,338 229,398 289,398 "/>
   <path class="fil1" d="M228 336l64 0 0 64 -64 0 0 -64zm60 4l0 0 -56 0 0 56 56 0 0 -56z"/>
   <polygon class="fil0" points="289,397 229,397 229,457 289,457 "/>
   <path class="fil1" d="M228 395l64 0 0 64 -64 0 0 -64zm60 4l0 0 -56 0 0 56 56 0 0 -56z"/>
   <polygon class="fil2" points="289,456 229,456 229,516 289,516 "/>
   <path class="fil1" d="M228 454l64 0 0 64 -64 0 0 -64zm60 4l0 0 -56 0 0 56 56 0 0 -56z"/>
   <polygon class="fil0" points="408,516 348,516 348,576 408,576 "/>
   <path class="fil1" d="M347 514l64 0 0 64 -64 0 0 -64zm60 4l0 0 -56 0 0 56 56 0 0 -56z"/>
   <polygon class="fil0" points="408,575 348,575 348,635 408,635 "/>
   <path class="fil1" d="M347 573l64 0 0 64 -64 0 0 -64zm60 4l0 0 -56 0 0 56 56 0 0 -56z"/>
   <polygon class="fil0" points="408,635 348,635 348,695 408,695 "/>
   <path class="fil1" d="M347 633l64 0 0 64 -64 0 0 -64zm60 4l0 0 -56 0 0 56 56 0 0 -56z"/>
   <polygon class="fil0" points="468,516 408,516 408,576 468,576 "/>
   <path class="fil1" d="M406 514l64 0 0 64 -64 0 0 -64zm60 4l0 0 -56 0 0 56 56 0 0 -56z"/>
   <polygon class="fil2" points="468,575 408,575 408,635 468,635 "/>
   <path class="fil1" d="M406 573l64 0 0 64 -64 0 0 -64zm60 4l0 0 -56 0 0 56 56 0 0 -56z"/>
   <polygon class="fil0" points="468,635 408,635 408,695 468,695 "/>
   <path class="fil1" d="M406 633l64 0 0 64 -64 0 0 -64zm60 4l0 0 -56 0 0 56 56 0 0 -56z"/>
   <polygon class="fil0" points="349,516 289,516 289,576 349,576 "/>
   <path class="fil1" d="M287 514l64 0 0 64 -64 0 0 -64zm60 4l0 0 -56 0 0 56 56 0 0 -56z"/>
   <polygon class="fil2" points="349,575 289,575 289,635 349,635 "/>
   <path class="fil1" d="M287 573l64 0 0 64 -64 0 0 -64zm60 4l0 0 -56 0 0 56 56 0 0 -56z"/>
   <polygon class="fil0" points="349,635 289,635 289,695 349,695 "/>
   <path class="fil1" d="M287 633l64 0 0 64 -64 0 0 -64zm60 4l0 0 -56 0 0 56 56 0 0 -56z"/>
   <polygon class="fil0" points="229,516 170,516 170,576 229,576 "/>
   <path class="fil1" d="M168 514l64 0 0 64 -64 0 0 -64zm60 4l0 0 -56 0 0 56 56 0 0 -56z"/>
   <polygon class="fil0" points="229,575 170,575 170,635 229,635 "/>
   <path class="fil1" d="M168 573l64 0 0 64 -64 0 0 -64zm60 4l0 0 -56 0 0 56 56 0 0 -56z"/>
   <polygon class="fil0" points="229,635 170,635 170,695 229,695 "/>
   <path class="fil1" d="M168 633l64 0 0 64 -64 0 0 -64zm60 4l0 0 -56 0 0 56 56 0 0 -56z"/>
   <polygon class="fil0" points="289,516 229,516 229,576 289,576 "/>
   <path class="fil1" d="M228 514l64 0 0 64 -64 0 0 -64zm60 4l0 0 -56 0 0 56 56 0 0 -56z"/>
   <polygon class="fil2" points="289,575 229,575 229,635 289,635 "/>
   <path class="fil1" d="M228 573l64 0 0 64 -64 0 0 -64zm60 4l0 0 -56 0 0 56 56 0 0 -56z"/>
   <polygon class="fil0" points="289,635 229,635 229,695 289,695 "/>
   <path class="fil1" d="M228 633l64 0 0 64 -64 0 0 -64zm60 4l0 0 -56 0 0 56 56 0 0 -56z"/>
   <polygon class="fil2" points="169,100 109,100 109,160 169,160 "/>
   <path class="fil1" d="M107 98l64 0 0 64 -64 0 0 -64zm60 4l0 0 -56 0 0 56 56 0 0 -56z"/>
   <polygon class="fil0" points="169,160 109,160 109,219 169,219 "/>
   <path class="fil1" d="M107 158l64 0 0 64 -64 0 0 -64zm60 4l0 0 -56 0 0 56 56 0 0 -56z"/>
   <polygon class="fil2" points="169,219 109,219 109,279 169,279 "/>
   <path class="fil1" d="M107 217l64 0 0 64 -64 0 0 -64zm60 4l0 0 -56 0 0 56 56 0 0 -56z"/>
   <polygon class="fil0" points="169,279 109,279 109,338 169,338 "/>
   <path class="fil1" d="M107 277l64 0 0 64 -64 0 0 -64zm60 4l0 0 -56 0 0 56 56 0 0 -56z"/>
   <polygon class="fil2" points="169,338 109,338 109,398 169,398 "/>
   <path class="fil1" d="M107 336l64 0 0 64 -64 0 0 -64zm60 4l0 0 -56 0 0 56 56 0 0 -56z"/>
   <polygon class="fil0" points="169,397 109,397 109,457 169,457 "/>
   <path class="fil1" d="M107 395l64 0 0 64 -64 0 0 -64zm60 4l0 0 -56 0 0 56 56 0 0 -56z"/>
   <polygon class="fil2" points="169,456 109,456 109,516 169,516 "/>
   <path class="fil1" d="M107 454l64 0 0 64 -64 0 0 -64zm60 4l0 0 -56 0 0 56 56 0 0 -56z"/>
   <polygon class="fil2" points="109,100 50,100 50,160 109,160 "/>
   <path class="fil1" d="M48 98l64 0 0 64 -64 0 0 -64zm60 4l0 0 -56 0 0 56 56 0 0 -56z"/>
   <polygon class="fil0" points="109,160 50,160 50,219 109,219 "/>
   <path class="fil1" d="M48 158l64 0 0 64 -64 0 0 -64zm60 4l0 0 -56 0 0 56 56 0 0 -56z"/>
   <polygon class="fil2" points="109,219 50,219 50,279 109,279 "/>
   <path class="fil1" d="M48 217l64 0 0 64 -64 0 0 -64zm60 4l0 0 -56 0 0 56 56 0 0 -56z"/>
   <polygon class="fil0" points="109,279 50,279 50,338 109,338 "/>
   <path class="fil1" d="M48 277l64 0 0 64 -64 0 0 -64zm60 4l0 0 -56 0 0 56 56 0 0 -56z"/>
   <polygon class="fil2" points="109,338 50,338 50,398 109,398 "/>
   <path class="fil1" d="M48 336l64 0 0 64 -64 0 0 -64zm60 4l0 0 -56 0 0 56 56 0 0 -56z"/>
   <polygon class="fil0" points="109,397 50,397 50,457 109,457 "/>
   <path class="fil1" d="M48 395l64 0 0 64 -64 0 0 -64zm60 4l0 0 -56 0 0 56 56 0 0 -56z"/>
   <polygon class="fil2" points="109,456 50,456 50,516 109,516 "/>
   <path class="fil1" d="M48 454l64 0 0 64 -64 0 0 -64zm60 4l0 0 -56 0 0 56 56 0 0 -56z"/>
   <polygon class="fil0" points="169,516 109,516 109,576 169,576 "/>
   <path class="fil1" d="M107 514l64 0 0 64 -64 0 0 -64zm60 4l0 0 -56 0 0 56 56 0 0 -56z"/>
   <polygon class="fil2" points="169,575 109,575 109,635 169,635 "/>
   <path class="fil1" d="M107 573l64 0 0 64 -64 0 0 -64zm60 4l0 0 -56 0 0 56 56 0 0 -56z"/>
   <polygon class="fil0" points="169,635 109,635 109,695 169,695 "/>
   <path class="fil1" d="M107 633l64 0 0 64 -64 0 0 -64zm60 4l0 0 -56 0 0 56 56 0 0 -56z"/>
   <polygon class="fil0" points="109,516 50,516 50,576 109,576 "/>
   <path class="fil1" d="M48 514l64 0 0 64 -64 0 0 -64zm60 4l0 0 -56 0 0 56 56 0 0 -56z"/>
   <polygon class="fil2" points="109,575 50,575 50,635 109,635 "/>
   <path class="fil1" d="M48 573l64 0 0 64 -64 0 0 -64zm60 4l0 0 -56 0 0 56 56 0 0 -56z"/>
   <polygon class="fil0" points="109,635 50,635 50,695 109,695 "/>
   <path class="fil1" d="M48 633l64 0 0 64 -64 0 0 -64zm60 4l0 0 -56 0 0 56 56 0 0 -56z"/>
   <polygon class="fil3" points="48,842 514,842 514,687 48,687 "/>
   <path class="fil4" d="M19 1029c0,10 8,18 18,18l455 0c10,0 18,-8 18,-18l0 -169c0,-10 -8,-18 -18,-18l-455 0c-10,0 -18,8 -18,18l0 169z"/>
   <path class="fil4" d="M315 946c0,41 33,74 74,74 41,0 74,-33 74,-74 0,-41 -33,-74 -74,-74 -41,0 -74,33 -74,74z"/>
   <path class="fil5" d="M316 946c0,40 33,73 73,73 40,0 73,-33 73,-73 0,-40 -33,-73 -73,-73 -40,0 -73,33 -73,73z"/>
   <path class="fil6" d="M317 946c0,40 32,72 72,72 40,0 72,-32 72,-72 0,-40 -32,-72 -72,-72 -40,0 -72,32 -72,72z"/>
   <path class="fil7" d="M318 946c0,39 32,71 71,71 39,0 71,-32 71,-71 0,-39 -32,-71 -71,-71 -39,0 -71,32 -71,71z"/>
   <path class="fil8" d="M319 946c0,39 31,70 70,70 39,0 70,-31 70,-70 0,-39 -31,-70 -70,-70 -39,0 -70,31 -70,70z"/>
   <path class="fil9" d="M320 946c0,38 31,69 69,69 38,0 69,-31 69,-69 0,-38 -31,-69 -69,-69 -38,0 -69,31 -69,69z"/>
   <path class="fil10" d="M321 946c0,37 30,68 68,68 37,0 68,-30 68,-68 0,-38 -30,-68 -68,-68 -37,0 -68,30 -68,68z"/>
   <path class="fil11" d="M322 946c0,37 30,67 67,67 37,0 67,-30 67,-67 0,-37 -30,-67 -67,-67 -37,0 -67,30 -67,67z"/>
   <path class="fil12" d="M323 946c0,36 30,66 66,66 36,0 66,-29 66,-66 0,-36 -30,-66 -66,-66 -36,0 -66,29 -66,66z"/>
   <path class="fil13" d="M324 946c0,36 29,65 65,65 36,0 65,-29 65,-65 0,-36 -29,-65 -65,-65 -36,0 -65,29 -65,65z"/>
   <path class="fil14" d="M325 946c0,35 28,64 64,64 35,0 64,-29 64,-64 0,-35 -28,-64 -64,-64 -35,0 -64,29 -64,64z"/>
   <path class="fil15" d="M326 946c0,35 28,63 63,63 35,0 63,-28 63,-63 0,-35 -28,-63 -63,-63 -35,0 -63,28 -63,63z"/>
   <path class="fil16" d="M327 946c0,34 28,62 62,62 34,0 62,-28 62,-62 0,-34 -28,-62 -62,-62 -34,0 -62,28 -62,62z"/>
   <path class="fil17" d="M328 946c0,33 27,61 61,61 34,0 61,-27 61,-61 0,-34 -27,-61 -61,-61 -34,0 -61,27 -61,61z"/>
   <path class="fil18" d="M329 946c0,33 27,60 60,60 33,0 60,-27 60,-60 0,-33 -27,-60 -60,-60 -33,0 -60,27 -60,60z"/>
   <path class="fil19" d="M330 946c0,32 26,59 59,59 32,0 59,-26 59,-59 0,-32 -26,-59 -59,-59 -32,0 -59,26 -59,59z"/>
   <path class="fil20" d="M331 946c0,32 26,58 58,58 32,0 58,-26 58,-58 0,-32 -26,-58 -58,-58 -32,0 -58,26 -58,58z"/>
   <path class="fil21" d="M332 946c0,31 25,56 57,56 31,0 57,-25 57,-56 0,-31 -25,-57 -57,-57 -31,0 -57,25 -57,57z"/>
   <path class="fil22" d="M333 946c0,31 25,55 56,55 31,0 56,-25 56,-55 0,-31 -25,-56 -56,-56 -31,0 -56,25 -56,56z"/>
   <path class="fil23" d="M334 946c0,30 24,54 55,54 30,0 55,-24 55,-54 0,-30 -24,-55 -55,-55 -30,0 -55,24 -55,55z"/>
   <path class="fil24" d="M335 946c0,29 24,53 53,53 30,0 54,-24 54,-53 0,-30 -24,-54 -54,-54 -30,0 -53,24 -53,54z"/>
   <path class="fil25" d="M337 946c0,29 23,52 52,52 29,0 52,-24 52,-52 0,-29 -23,-53 -52,-53 -29,0 -52,23 -52,53z"/>
   <path class="fil26" d="M338 946c0,28 23,51 51,51 28,0 51,-23 51,-51 0,-28 -23,-52 -51,-52 -28,0 -51,23 -51,52z"/>
   <path class="fil27" d="M339 946c0,28 23,50 50,50 28,0 50,-23 50,-50 0,-28 -23,-50 -50,-50 -28,0 -50,23 -50,50z"/>
   <path class="fil28" d="M340 946c0,27 22,49 49,49 27,0 49,-22 49,-49 0,-27 -22,-49 -49,-49 -27,0 -49,22 -49,49z"/>
   <path class="fil29" d="M341 946c0,27 22,48 48,48 27,0 48,-22 48,-48 0,-27 -22,-48 -48,-48 -27,0 -48,22 -48,48z"/>
   <path class="fil30" d="M342 946c0,26 21,47 47,47 26,0 47,-21 47,-47 0,-26 -21,-47 -47,-47 -26,0 -47,21 -47,47z"/>
   <path class="fil31" d="M343 946c0,25 21,46 46,46 26,0 46,-21 46,-46 0,-26 -21,-46 -46,-46 -26,0 -46,21 -46,46z"/>
   <path class="fil32" d="M344 946c0,25 20,45 45,45 25,0 45,-20 45,-45 0,-25 -20,-45 -45,-45 -25,0 -45,20 -45,45z"/>
   <path class="fil33" d="M345 946c0,24 20,44 44,44 24,0 44,-20 44,-44 0,-24 -20,-44 -44,-44 -24,0 -44,20 -44,44z"/>
   <path class="fil34" d="M346 946c0,24 19,43 43,43 24,0 43,-19 43,-43 0,-24 -19,-43 -43,-43 -24,0 -43,19 -43,43z"/>
   <path class="fil35" d="M347 946c0,23 19,42 42,42 23,0 42,-19 42,-42 0,-23 -19,-42 -42,-42 -23,0 -42,19 -42,42z"/>
   <path class="fil36" d="M348 946c0,23 18,41 41,41 23,0 41,-18 41,-41 0,-23 -18,-41 -41,-41 -23,0 -41,18 -41,41z"/>
   <path class="fil37" d="M349 946c0,22 18,40 40,40 22,0 40,-18 40,-40 0,-22 -18,-40 -40,-40 -22,0 -40,18 -40,40z"/>
   <path class="fil38" d="M350 946c0,22 18,39 39,39 22,0 39,-18 39,-39 0,-22 -18,-39 -39,-39 -22,0 -39,17 -39,39z"/>
   <path class="fil39" d="M351 946c0,21 17,38 38,38 21,0 38,-17 38,-38 0,-21 -17,-38 -38,-38 -21,0 -38,17 -38,38z"/>
   <path class="fil40" d="M352 946c0,20 17,37 37,37 20,0 37,-17 37,-37 0,-20 -17,-37 -37,-37 -20,0 -37,17 -37,37z"/>
   <path class="fil41" d="M353 946c0,20 16,36 36,36 20,0 36,-16 36,-36 0,-20 -16,-36 -36,-36 -20,0 -36,16 -36,36z"/>
   <path class="fil41" d="M354 946c0,19 16,35 35,35 19,0 35,-16 35,-35 0,-19 -16,-35 -35,-35 -19,0 -35,16 -35,35z"/>
   <path class="fil42" d="M355 946c0,19 15,34 34,34 19,0 34,-15 34,-34 0,-19 -15,-34 -34,-34 -19,0 -34,15 -34,34z"/>
   <path class="fil42" d="M356 946c0,18 15,33 33,33 18,0 33,-15 33,-33 0,-18 -15,-33 -33,-33 -18,0 -33,15 -33,33z"/>
   <path class="fil43" d="M357 946c0,18 14,32 32,32 18,0 32,-14 32,-32 0,-18 -14,-32 -32,-32 -18,0 -32,14 -32,32z"/>
   <path class="fil43" d="M358 946c0,17 14,31 31,31 17,0 31,-14 31,-31 0,-17 -14,-31 -31,-31 -17,0 -31,14 -31,31z"/>
   <path class="fil43" d="M359 946c0,16 13,30 30,30 16,0 30,-13 30,-30 0,-17 -13,-30 -30,-30 -16,0 -30,13 -30,30z"/>
   <path class="fil44" d="M360 946c0,16 13,29 29,29 16,0 29,-13 29,-29 0,-16 -13,-29 -29,-29 -16,0 -29,13 -29,29z"/>
   <path class="fil44" d="M361 946c0,15 12,28 28,28 15,0 28,-12 28,-28 0,-15 -12,-28 -28,-28 -15,0 -28,12 -28,28z"/>
   <path class="fil45" d="M362 946c0,15 12,27 27,27 15,0 27,-12 27,-27 0,-15 -12,-27 -27,-27 -15,0 -27,12 -27,27z"/>
   <path class="fil46" d="M363 946c0,14 11,26 26,26 14,0 26,-12 26,-26 0,-14 -11,-26 -26,-26 -14,0 -26,12 -26,26z"/>
   <path class="fil46" d="M364 946c0,14 11,25 25,25 14,0 25,-11 25,-25 0,-14 -11,-25 -25,-25 -14,0 -25,11 -25,25z"/>
   <path class="fil46" d="M365 946c0,13 11,24 24,24 13,0 24,-11 24,-24 0,-13 -11,-24 -24,-24 -13,0 -24,11 -24,24z"/>
   <path class="fil46" d="M366 946c0,12 10,23 23,23 13,0 23,-10 23,-23 0,-13 -10,-23 -23,-23 -13,0 -23,10 -23,23z"/>
   <path class="fil46" d="M367 946c0,12 10,22 22,22 12,0 22,-10 22,-22 0,-12 -10,-22 -22,-22 -12,0 -22,10 -22,22z"/>
   <path class="fil46" d="M368 946c0,11 9,21 21,21 11,0 21,-9 21,-21 0,-11 -9,-21 -21,-21 -11,0 -21,9 -21,21z"/>
   <path class="fil47" d="M369 946c0,11 9,20 20,20 11,0 20,-9 20,-20 0,-11 -9,-20 -20,-20 -11,0 -20,9 -20,20z"/>
   <path class="fil47" d="M370 946c0,10 8,18 19,18 10,0 19,-8 19,-18 0,-10 -8,-19 -19,-19 -10,0 -19,8 -19,19z"/>
   <path class="fil47" d="M371 946c0,10 8,17 18,17 10,0 18,-8 18,-17 0,-10 -8,-18 -18,-18 -10,0 -18,8 -18,18z"/>
   <path class="fil47" d="M373 946c0,9 7,16 16,16 9,0 16,-7 16,-16 0,-9 -7,-16 -16,-16 -9,0 -16,7 -16,16z"/>
   <path class="fil47" d="M374 946c0,8 7,15 15,15 9,0 15,-7 15,-15 0,-9 -7,-15 -15,-15 -8,0 -15,7 -15,15z"/>
   <path class="fil47" d="M375 946c0,8 6,14 14,14 8,0 14,-6 14,-14 0,-8 -6,-14 -14,-14 -8,0 -14,6 -14,14z"/>
   <path class="fil47" d="M376 946c0,7 6,13 13,13 7,0 13,-6 13,-13 0,-7 -6,-13 -13,-13 -7,0 -13,6 -13,13z"/>
   <path class="fil47" d="M377 946c0,7 6,12 12,12 7,0 12,-6 12,-12 0,-7 -6,-12 -12,-12 -7,0 -12,6 -12,12z"/>
   <path class="fil47" d="M378 946c0,6 5,11 11,11 6,0 11,-5 11,-11 0,-6 -5,-11 -11,-11 -6,0 -11,5 -11,11z"/>
   <path class="fil47" d="M379 946c0,6 5,10 10,10 6,0 10,-5 10,-10 0,-6 -5,-10 -10,-10 -6,0 -10,5 -10,10z"/>
   <path class="fil47" d="M380 946c0,5 4,9 9,9 5,0 9,-4 9,-9 0,-5 -4,-9 -9,-9 -5,0 -9,4 -9,9z"/>
   <path class="fil47" d="M381 946c0,4 4,8 8,8 5,0 8,-4 8,-8 0,-5 -4,-8 -8,-8 -5,0 -8,4 -8,8z"/>
   <path class="fil47" d="M382 946c0,4 3,7 7,7 4,0 7,-3 7,-7 0,-4 -3,-7 -7,-7 -4,0 -7,3 -7,7z"/>
   <path class="fil47" d="M383 946c0,3 3,6 6,6 3,0 6,-3 6,-6 0,-3 -3,-6 -6,-6 -3,0 -6,3 -6,6z"/>
   <path class="fil47" d="M384 946c0,3 2,5 5,5 3,0 5,-2 5,-5 0,-3 -2,-5 -5,-5 -3,0 -5,2 -5,5z"/>
   <path class="fil47" d="M385 946c0,2 2,4 4,4 2,0 4,-2 4,-4 0,-2 -2,-4 -4,-4 -2,0 -4,2 -4,4z"/>
   <path class="fil47" d="M386 946c0,2 1,3 3,3 2,0 3,-1 3,-3 0,-2 -1,-3 -3,-3 -2,0 -3,1 -3,3z"/>
   <path class="fil47" d="M387 946c0,1 1,2 2,2 1,0 2,-1 2,-2 0,-1 -1,-2 -2,-2 -1,0 -2,1 -2,2z"/>
   <path class="fil47" d="M388 946c0,1 0,1 1,1 1,0 1,0 1,-1 0,-1 -1,-1 -1,-1 -1,0 -1,1 -1,1z"/>
   <path class="fil48" d="M331 871l116 0c8,0 15,7 15,15l0 121c0,8 -6,14 -14,15l-118 0c-8,0 -14,-7 -14,-15l0 -121c0,-8 7,-15 15,-15z"/>
   <path class="fil49" d="M447 1024l-116 0c-10,0 -18,-8 -18,-18l0 -121c0,-10 8,-18 18,-18l116 0c10,0 18,8 18,18l0 121c0,10 -8,18 -18,18zm-116 -150l0 0c-6,0 -12,5 -12,12l0 121c0,6 5,12 12,12l116 0c6,0 12,-5 12,-12l0 -121c0,-7 -5,-12 -12,-12l-116 0z"/>
   <path class="fil50" d="M390 975c0,-16 13,-29 29,-29 16,0 29,13 29,29 0,16 -13,29 -29,29 -16,0 -29,-13 -29,-29z"/>
   <path class="fil50" d="M331 916c0,-16 13,-29 29,-29 16,0 29,13 29,29 0,16 -13,29 -29,29 -16,0 -29,-13 -29,-29z"/>
   <path class="fil50" d="M400 912c0,-12 10,-22 22,-22 12,0 22,10 22,22 0,12 -10,22 -22,22 -12,0 -22,-10 -22,-22z"/>
   <path class="fil50" d="M332 977c0,-12 10,-22 22,-22 12,0 22,10 22,22 0,12 -10,22 -22,22 -12,0 -22,-10 -22,-22z"/>
   <polygon class="fil51" points="0,2303 103,2303 103,3007 0,3007 "/>
   <polygon class="fil51" points="272,2406 0,2406 0,2303 272,2303 "/>
   <polygon class="fil51" points="1037,2406 701,2406 701,2303 1037,2303 "/>
   <polygon class="fil51" points="1037,2406 934,2406 934,71 1037,71 "/>
   <polygon class="fil51" points="453,71 479,71 479,341 453,341 "/>
   <polygon class="fil51" points="453,499 479,499 479,697 453,697 "/>
   <polygon class="fil51" points="505,694 532,694 532,861 505,861 "/>
   <polygon class="fil51" points="130,694 156,694 156,861 130,861 "/>
   <polygon class="fil51" points="130,681 648,681 648,707 130,707 "/>
   <polygon class="fil51" points="859,681 960,681 960,707 859,707 "/>
   <polygon class="fil51" points="13,835 532,835 532,861 13,861 "/>
   <polygon class="fil52" points="861,681 861,705 843,705 843,697 671,773 671,766 843,689 843,681 "/>
   <polygon class="fil52" points="558,106 558,82 576,82 576,90 774,0 774,8 576,98 576,106 "/>
   <polygon class="fil52" points="453,499 479,499 479,481 470,481 535,349 527,349 462,481 453,481 "/>
   <path class="fil52" d="M164 1025c44,0 79,-36 79,-79 0,-44 -36,-79 -79,-79 -44,0 -79,36 -79,79 0,44 36,79 79,79z"/>
   <path class="fil52" d="M164 1021c41,0 75,-34 75,-75 0,-41 -34,-75 -75,-75 -41,0 -75,34 -75,75 0,41 34,75 75,75z"/>
   <path class="fil52" d="M164 1016c39,0 71,-32 71,-71 0,-39 -32,-71 -71,-71 -39,0 -71,32 -71,71 0,39 32,71 71,71z"/>
   <path class="fil53" d="M164 1015c39,0 70,-31 70,-70 0,-39 -31,-70 -70,-70 -38,0 -70,31 -70,70 0,38 31,70 70,70z"/>
   <path class="fil54" d="M164 1014c38,0 69,-31 69,-69 0,-38 -31,-69 -69,-69 -38,0 -69,31 -69,69 0,38 31,69 69,69z"/>
   <path class="fil55" d="M164 1013c37,0 68,-30 68,-68 0,-37 -30,-68 -68,-68 -37,0 -68,30 -68,68 0,37 30,68 68,68z"/>
   <path class="fil56" d="M164 1013c37,0 67,-30 67,-67 0,-37 -30,-67 -67,-67 -37,0 -67,30 -67,67 0,37 30,67 67,67z"/>
   <path class="fil57" d="M164 1012c36,0 66,-29 66,-66 0,-36 -29,-66 -66,-66 -36,0 -66,29 -66,66 0,36 29,66 66,66z"/>
   <path class="fil58" d="M164 1011c36,0 65,-29 65,-65 0,-36 -29,-65 -65,-65 -36,0 -65,29 -65,65 0,36 29,65 65,65z"/>
   <path class="fil59" d="M164 1010c35,0 64,-29 64,-64 0,-35 -29,-64 -64,-64 -35,0 -64,29 -64,64 0,35 29,64 64,64z"/>
   <path class="fil60" d="M164 1009c35,0 63,-28 63,-63 0,-35 -28,-63 -63,-63 -35,0 -63,28 -63,63 0,35 28,63 63,63z"/>
   <path class="fil61" d="M164 1008c34,0 62,-28 62,-62 0,-34 -28,-62 -62,-62 -34,0 -62,28 -62,62 0,34 28,62 62,62z"/>
   <path class="fil62" d="M164 1007c34,0 61,-27 61,-61 0,-34 -27,-61 -61,-61 -34,0 -61,27 -61,61 0,34 27,61 61,61z"/>
   <path class="fil63" d="M164 1006c33,0 60,-27 60,-60 0,-33 -27,-60 -60,-60 -33,0 -60,27 -60,60 0,33 27,60 60,60z"/>
   <path class="fil64" d="M164 1005c33,0 59,-26 59,-59 0,-33 -26,-59 -59,-59 -33,0 -59,26 -59,59 0,33 26,59 59,59z"/>
   <path class="fil65" d="M164 1004c32,0 58,-26 58,-58 0,-32 -26,-58 -58,-58 -32,0 -58,26 -58,58 0,32 26,58 58,58z"/>
   <path class="fil66" d="M164 1003c31,0 57,-25 57,-57 0,-31 -26,-57 -57,-57 -31,0 -57,26 -57,57 0,32 25,57 57,57z"/>
   <path class="fil67" d="M164 1002c31,0 56,-25 56,-56 0,-31 -25,-56 -56,-56 -31,0 -56,25 -56,56 0,31 25,56 56,56z"/>
   <path class="fil68" d="M164 1001c30,0 55,-25 55,-55 0,-30 -25,-55 -55,-55 -30,0 -55,25 -55,55 0,30 25,55 55,55z"/>
   <path class="fil69" d="M164 1000c30,0 54,-24 54,-54 0,-30 -24,-54 -54,-54 -30,0 -54,24 -54,54 0,30 24,54 54,54z"/>
   <path class="fil70" d="M164 999c29,0 53,-24 53,-53 0,-29 -24,-53 -53,-53 -29,0 -53,24 -53,53 0,29 24,53 53,53z"/>
   <path class="fil71" d="M164 998c29,0 52,-23 52,-52 0,-29 -23,-52 -52,-52 -29,0 -52,23 -52,52 0,29 23,52 52,52z"/>
   <path class="fil72" d="M164 997c28,0 51,-23 51,-51 0,-28 -23,-51 -51,-51 -28,0 -51,23 -51,51 0,28 23,51 51,51z"/>
   <path class="fil73" d="M164 996c28,0 50,-22 50,-50 0,-28 -22,-50 -50,-50 -28,0 -50,22 -50,50 0,28 22,50 50,50z"/>
   <path class="fil74" d="M164 995c27,0 49,-22 49,-49 0,-27 -22,-49 -49,-49 -27,0 -49,22 -49,49 0,27 22,49 49,49z"/>
   <path class="fil75" d="M164 994c27,0 48,-22 48,-48 0,-27 -22,-48 -48,-48 -27,0 -48,22 -48,48 0,27 22,48 48,48z"/>
   <path class="fil76" d="M164 993c26,0 47,-21 47,-47 0,-26 -21,-47 -47,-47 -26,0 -47,21 -47,47 0,26 21,47 47,47z"/>
   <path class="fil77" d="M164 992c26,0 46,-21 46,-46 0,-26 -21,-46 -46,-46 -25,0 -46,21 -46,46 0,25 21,46 46,46z"/>
   <path class="fil78" d="M164 991c25,0 45,-20 45,-45 0,-25 -20,-45 -45,-45 -25,0 -45,20 -45,45 0,25 20,45 45,45z"/>
   <path class="fil78" d="M164 990c24,0 44,-20 44,-44 0,-24 -20,-44 -44,-44 -24,0 -44,20 -44,44 0,24 20,44 44,44z"/>
   <path class="fil79" d="M164 989c24,0 43,-19 43,-43 0,-24 -19,-43 -43,-43 -24,0 -43,19 -43,43 0,24 19,43 43,43z"/>
   <path class="fil80" d="M164 988c23,0 42,-19 42,-42 0,-23 -19,-42 -42,-42 -23,0 -42,19 -42,42 0,23 19,42 42,42z"/>
   <path class="fil81" d="M164 987c23,0 41,-18 41,-41 0,-23 -19,-41 -41,-41 -23,0 -41,19 -41,41 0,23 18,41 41,41z"/>
   <path class="fil82" d="M164 986c22,0 40,-18 40,-40 0,-22 -18,-40 -40,-40 -22,0 -40,18 -40,40 0,22 18,40 40,40z"/>
   <path class="fil83" d="M164 985c22,0 39,-18 39,-39 0,-22 -18,-39 -39,-39 -22,0 -39,18 -39,39 0,22 18,39 39,39z"/>
   <path class="fil84" d="M164 984c21,0 38,-17 38,-38 0,-21 -17,-38 -38,-38 -21,0 -38,17 -38,38 0,21 17,38 38,38z"/>
   <path class="fil85" d="M164 983c21,0 37,-17 37,-37 0,-21 -17,-37 -37,-37 -21,0 -37,17 -37,37 0,21 17,37 37,37z"/>
   <path class="fil86" d="M164 982c20,0 36,-16 36,-36 0,-20 -16,-36 -36,-36 -20,0 -36,16 -36,36 0,20 16,36 36,36z"/>
   <path class="fil87" d="M164 981c20,0 35,-16 35,-35 0,-20 -16,-35 -35,-35 -19,0 -35,16 -35,35 0,19 16,35 35,35z"/>
   <path class="fil88" d="M164 980c19,0 34,-15 34,-34 0,-19 -15,-34 -34,-34 -19,0 -34,15 -34,34 0,19 15,34 34,34z"/>
   <path class="fil89" d="M164 979c18,0 34,-15 34,-33 0,-18 -15,-33 -34,-33 -18,0 -33,15 -33,33 0,18 15,33 33,33z"/>
   <path class="fil90" d="M164 978c18,0 32,-15 32,-32 0,-18 -15,-32 -32,-32 -18,0 -32,15 -32,32 0,18 15,32 32,32z"/>
   <path class="fil91" d="M164 977c17,0 31,-14 31,-31 0,-17 -14,-31 -31,-31 -17,0 -31,14 -31,31 0,17 14,31 31,31z"/>
   <path class="fil92" d="M164 976c17,0 30,-14 30,-30 0,-17 -14,-30 -30,-30 -17,0 -30,14 -30,30 0,17 14,30 30,30z"/>
   <path class="fil93" d="M164 975c16,0 29,-13 29,-29 0,-16 -13,-29 -29,-29 -16,0 -29,13 -29,29 0,16 13,29 29,29z"/>
   <path class="fil94" d="M164 974c16,0 29,-13 29,-28 0,-16 -13,-29 -29,-29 -16,0 -28,13 -28,29 0,16 13,28 28,28z"/>
   <path class="fil95" d="M164 973c15,0 28,-12 28,-27 0,-15 -12,-28 -28,-28 -15,0 -27,12 -27,28 0,15 12,27 27,27z"/>
   <path class="fil96" d="M164 972c15,0 27,-12 27,-26 0,-15 -12,-27 -27,-27 -15,0 -26,12 -26,27 0,15 12,26 26,26z"/>
   <path class="fil97" d="M164 971c14,0 26,-11 26,-26 0,-14 -11,-26 -26,-26 -14,0 -26,11 -26,26 0,14 11,26 26,26z"/>
   <path class="fil98" d="M164 970c14,0 25,-11 25,-25 0,-14 -11,-25 -25,-25 -13,0 -25,11 -25,25 0,14 11,25 25,25z"/>
   <path class="fil99" d="M164 969c13,0 24,-11 24,-24 0,-13 -11,-24 -24,-24 -13,0 -24,11 -24,24 0,13 11,24 24,24z"/>
   <path class="fil100" d="M164 968c13,0 23,-10 23,-23 0,-13 -10,-23 -23,-23 -12,0 -23,10 -23,23 0,12 10,23 23,23z"/>
   <path class="fil101" d="M164 967c12,0 22,-10 22,-22 0,-12 -10,-22 -22,-22 -12,0 -22,10 -22,22 0,12 10,22 22,22z"/>
   <path class="fil102" d="M164 966c11,0 21,-9 21,-21 0,-11 -9,-21 -21,-21 -11,0 -21,9 -21,21 0,11 9,21 21,21z"/>
   <path class="fil103" d="M164 965c11,0 20,-9 20,-20 0,-11 -9,-20 -20,-20 -11,0 -20,9 -20,20 0,11 9,20 20,20z"/>
   <path class="fil104" d="M164 964c10,0 19,-8 19,-19 0,-10 -8,-19 -19,-19 -10,0 -19,8 -19,19 0,10 8,19 19,19z"/>
   <path class="fil105" d="M164 963c10,0 18,-8 18,-18 0,-10 -8,-18 -18,-18 -10,0 -18,8 -18,18 0,10 8,18 18,18z"/>
   <path class="fil106" d="M164 962c9,0 17,-8 17,-17 0,-9 -7,-17 -17,-17 -9,0 -17,7 -17,17 0,9 8,17 17,17z"/>
   <path class="fil107" d="M164 961c9,0 16,-7 16,-16 0,-9 -7,-16 -16,-16 -9,0 -16,7 -16,16 0,9 7,16 16,16z"/>
   <path class="fil107" d="M164 960c8,0 15,-7 15,-15 0,-8 -7,-15 -15,-15 -8,0 -15,7 -15,15 0,8 7,15 15,15z"/>
   <path class="fil108" d="M164 959c8,0 14,-6 14,-14 0,-8 -6,-14 -14,-14 -8,0 -14,6 -14,14 0,8 6,14 14,14z"/>
   <path class="fil109" d="M164 958c7,0 13,-6 13,-13 0,-7 -6,-13 -13,-13 -7,0 -13,6 -13,13 0,7 6,13 13,13z"/>
   <path class="fil110" d="M164 957c7,0 12,-5 12,-12 0,-7 -5,-12 -12,-12 -6,0 -12,5 -12,12 0,6 5,12 12,12z"/>
   <path class="fil111" d="M164 956c6,0 11,-5 11,-11 0,-6 -5,-11 -11,-11 -6,0 -11,5 -11,11 0,6 5,11 11,11z"/>
   <path class="fil112" d="M164 956c5,0 10,-4 10,-10 0,-5 -4,-10 -10,-10 -5,0 -10,4 -10,10 0,5 4,10 10,10z"/>
   <path class="fil113" d="M164 955c5,0 9,-4 9,-9 0,-5 -4,-9 -9,-9 -5,0 -9,4 -9,9 0,5 4,9 9,9z"/>
   <path class="fil114" d="M164 954c4,0 8,-4 8,-8 0,-4 -4,-8 -8,-8 -4,0 -8,4 -8,8 0,4 4,8 8,8z"/>
   <path class="fil115" d="M164 953c4,0 7,-3 7,-7 0,-4 -3,-7 -7,-7 -4,0 -7,3 -7,7 0,4 3,7 7,7z"/>
   <path class="fil116" d="M164 952c3,0 6,-3 6,-6 0,-3 -3,-6 -6,-6 -3,0 -6,3 -6,6 0,3 3,6 6,6z"/>
   <path class="fil117" d="M164 951c3,0 5,-2 5,-5 0,-3 -2,-5 -5,-5 -3,0 -5,2 -5,5 0,3 2,5 5,5z"/>
   <path class="fil118" d="M164 950c2,0 4,-2 4,-4 0,-2 -2,-4 -4,-4 -2,0 -4,2 -4,4 0,2 2,4 4,4z"/>
   <path class="fil119" d="M164 949c2,0 3,-1 3,-3 0,-2 -1,-3 -3,-3 -2,0 -3,1 -3,3 0,2 1,3 3,3z"/>
   <path class="fil120" d="M164 948c1,0 2,-1 2,-2 0,-1 -1,-2 -2,-2 -1,0 -2,1 -2,2 0,1 1,2 2,2z"/>
   <path class="fil121" d="M164 947c1,0 1,0 1,-1 0,-1 0,-1 -1,-1 -1,0 -1,0 -1,1 0,1 0,1 1,1z"/>
   <polygon class="fil47" points="85,866 243,866 243,1026 85,1026 "/>
   <path class="fil122" d="M249 1032l-169 0 0 -172 169 0 0 172zm-157 -12l0 0 145 0 0 -148 -145 0 0 148z"/>
   <polygon class="fil51" points="0,123 558,123 558,71 0,71 "/>
   <polygon class="fil51" points="793,123 987,123 987,71 793,71 "/>
   <polygon class="fil51" points="987,71 934,71 934,1323 987,1323 "/>
   <polygon class="fil51" points="52,71 0,71 0,2456 52,2456 "/>
   <path class="fil123" d="M143 624l0 -80c0,-3 2,-5 5,-5l31 0c4,0 6,4 8,8 19,-4 42,-4 53,-4 30,0 50,19 50,43 0,24 -20,44 -50,44 -11,0 -34,-3 -53,-7 -2,3 -5,6 -8,6l-31 0c-3,0 -5,-2 -5,-5z"/>
   <path class="fil123" d="M203 585c0,-20 18,-35 39,-35 22,0 39,16 39,35 0,20 -17,35 -39,35 -21,0 -39,-16 -39,-35z"/>
   <path class="fil123" d="M138 624l0 -80c0,-3 3,-5 5,-5l34 0c7,0 11,14 11,17l0 57c0,5 -4,16 -11,16l-34 0c-3,0 -5,-2 -5,-5z"/>
   <path class="fil123" d="M241 575c1,-1 2,-1 3,-1 8,0 15,5 15,11 0,6 -6,12 -15,12 -1,0 -2,0 -3,0l0 -22z"/>
   <path class="fil123" d="M169 553c-1,-2 -2,-3 -4,-3 -2,1 -3,3 -3,5 2,4 8,3 7,-2z"/>
   <path class="fil123" d="M174 554c0,4 -3,7 -7,7 -4,0 -7,-3 -7,-7 0,-4 4,-7 7,-7 4,0 7,3 7,7z"/>
   <path class="fil123" d="M171 554c0,2 -2,4 -4,4 -3,0 -4,-2 -4,-4 0,-3 2,-4 4,-4 3,0 4,2 4,4z"/>
   <path class="fil53" d="M148 624l0 -80c0,-3 2,-5 5,-5l30 0c3,0 5,4 7,8 19,-4 41,-4 52,-4 28,0 48,19 48,43 0,24 -20,44 -48,44 -11,0 -33,-3 -52,-7 -2,3 -4,6 -7,6l-30 0c-3,0 -5,-2 -5,-5z"/>
   <path class="fil124" d="M192 585c0,29 23,51 52,51 28,0 51,-23 51,-51 0,-28 -23,-51 -51,-51 -29,0 -52,23 -52,51zm1 0l0 0c0,-28 23,-50 51,-50 28,0 50,23 50,50 0,28 -23,50 -50,50 -28,0 -51,-22 -51,-50z"/>
   <path class="fil125" d="M192 585c0,28 23,51 51,51 28,0 51,-23 51,-51 0,-28 -23,-51 -51,-51 -29,0 -51,23 -51,51zm1 0l0 0c0,-28 23,-50 50,-50 28,0 50,22 50,50 0,27 -22,50 -50,50 -28,0 -50,-22 -50,-50z"/>
   <path class="fil126" d="M193 585c0,28 23,50 51,50 28,0 50,-22 50,-50 0,-28 -23,-50 -50,-50 -28,0 -51,23 -51,50zm1 0l0 0c0,-27 22,-49 50,-49 27,0 49,22 49,49 0,27 -22,49 -49,49 -27,0 -50,-22 -50,-49z"/>
   <path class="fil127" d="M193 585c0,27 23,50 50,50 28,0 50,-22 50,-50 0,-28 -22,-50 -50,-50 -28,0 -50,22 -50,50zm1 0l0 0c0,-27 22,-49 49,-49 26,0 49,22 49,49 0,27 -22,49 -49,49 -27,0 -49,-22 -49,-49z"/>
   <path class="fil128" d="M194 585c0,27 22,49 50,49 27,0 49,-22 49,-49 0,-27 -22,-49 -49,-49 -28,0 -50,22 -50,49zm1 0l0 0c0,-26 22,-48 49,-48 26,0 48,22 48,48 0,27 -22,48 -48,48 -27,0 -49,-21 -49,-48z"/>
   <path class="fil129" d="M194 585c0,27 22,49 49,49 26,0 49,-22 49,-49 0,-27 -22,-49 -49,-49 -27,0 -49,22 -49,49zm1 0l0 0c0,-26 22,-48 48,-48 26,0 48,22 48,48 0,26 -22,48 -48,48 -26,0 -48,-21 -48,-48z"/>
   <path class="fil130" d="M195 585c0,27 22,48 49,48 26,0 48,-21 48,-48 0,-26 -22,-48 -48,-48 -27,0 -49,22 -49,48zm1 0l0 0c0,-26 21,-47 48,-47 26,0 47,21 47,47 0,26 -21,47 -47,47 -26,0 -48,-21 -48,-47z"/>
   <path class="fil131" d="M195 585c0,26 22,48 48,48 26,0 48,-21 48,-48 0,-26 -22,-48 -48,-48 -26,0 -48,22 -48,48zm1 0l0 0c0,-25 21,-47 47,-47 25,0 47,21 47,47 0,26 -21,46 -47,46 -26,0 -47,-21 -47,-46z"/>
   <path class="fil132" d="M196 585c0,26 21,47 48,47 26,0 47,-21 47,-47 0,-26 -21,-47 -47,-47 -26,0 -48,21 -48,47zm1 0l0 0c0,-25 21,-46 46,-46 25,0 46,21 46,46 0,25 -21,46 -46,46 -26,0 -46,-21 -46,-46z"/>
   <path class="fil133" d="M196 585c0,26 21,46 47,46 25,0 47,-21 47,-46 0,-25 -21,-47 -47,-47 -26,0 -47,21 -47,47zm1 0l0 0c0,-25 21,-45 46,-45 25,0 45,21 45,45 0,25 -21,45 -45,45 -25,0 -46,-20 -46,-45z"/>
   <path class="fil134" d="M197 585c0,25 21,46 46,46 25,0 46,-21 46,-46 0,-25 -21,-46 -46,-46 -26,0 -46,21 -46,46zm1 0l0 0c0,-25 21,-45 45,-45 25,0 45,20 45,45 0,25 -20,45 -45,45 -25,0 -45,-20 -45,-45z"/>
   <path class="fil135" d="M197 585c0,25 21,45 46,45 25,0 45,-20 45,-45 0,-25 -21,-45 -45,-45 -25,0 -46,21 -46,45zm1 0l0 0c0,-24 20,-44 45,-44 24,0 44,20 44,44 0,25 -20,44 -44,44 -25,0 -45,-20 -45,-44z"/>
   <path class="fil136" d="M198 585c0,25 21,45 45,45 25,0 45,-20 45,-45 0,-25 -20,-45 -45,-45 -25,0 -45,20 -45,45zm1 0l0 0c0,-24 20,-44 44,-44 24,0 44,20 44,44 0,24 -20,44 -44,44 -24,0 -44,-20 -44,-44z"/>
   <path class="fil137" d="M199 585c0,25 20,44 45,44 24,0 44,-20 44,-44 0,-24 -20,-44 -44,-44 -25,0 -45,20 -45,44zm1 0l0 0c0,-24 20,-43 44,-43 24,0 43,20 43,43 0,24 -20,43 -43,43 -24,0 -44,-19 -44,-43z"/>
   <path class="fil138" d="M199 585c0,24 20,44 44,44 24,0 44,-20 44,-44 0,-24 -20,-44 -44,-44 -24,0 -44,20 -44,44zm1 0l0 0c0,-23 20,-43 43,-43 23,0 43,20 43,43 0,24 -20,43 -43,43 -24,0 -43,-19 -43,-43z"/>
   <path class="fil139" d="M200 585c0,24 20,43 44,43 24,0 43,-19 43,-43 0,-24 -20,-43 -43,-43 -24,0 -44,20 -44,43zm1 0l0 0c0,-23 19,-42 43,-42 23,0 42,19 42,42 0,24 -19,42 -42,42 -24,0 -43,-19 -43,-42z"/>
   <path class="fil140" d="M200 585c0,24 20,43 43,43 23,0 43,-19 43,-43 0,-23 -20,-43 -43,-43 -24,0 -43,20 -43,43zm1 0l0 0c0,-23 19,-42 42,-42 23,0 42,19 42,42 0,23 -19,42 -42,42 -23,0 -42,-19 -42,-42z"/>
   <path class="fil141" d="M201 585c0,24 19,42 43,42 23,0 42,-19 42,-42 0,-23 -19,-42 -42,-42 -24,0 -43,19 -43,42zm1 0l0 0c0,-23 19,-41 42,-41 23,0 41,18 41,41 0,23 -19,41 -41,41 -23,0 -42,-18 -42,-41z"/>
   <path class="fil142" d="M201 585c0,23 19,42 42,42 23,0 42,-19 42,-42 0,-23 -19,-42 -42,-42 -23,0 -42,19 -42,42zm1 0l0 0c0,-22 19,-41 41,-41 22,0 41,18 41,41 0,23 -19,41 -41,41 -23,0 -41,-18 -41,-41z"/>
   <path class="fil143" d="M202 585c0,23 19,41 42,41 23,0 41,-18 41,-41 0,-23 -19,-41 -41,-41 -23,0 -42,18 -42,41zm1 0l0 0c0,-22 19,-40 41,-40 22,0 40,18 40,40 0,22 -18,40 -40,40 -22,0 -41,-18 -41,-40z"/>
   <path class="fil144" d="M202 585c0,23 19,41 41,41 22,0 41,-18 41,-41 0,-22 -18,-41 -41,-41 -23,0 -41,18 -41,41zm1 0l0 0c0,-22 18,-40 40,-40 22,0 40,18 40,40 0,22 -18,40 -40,40 -22,0 -40,-17 -40,-40z"/>
   <path class="fil145" d="M203 585c0,22 19,40 41,40 22,0 40,-18 40,-40 0,-22 -18,-40 -40,-40 -22,0 -41,18 -41,40zm1 0l0 0c0,-22 18,-39 40,-39 21,0 39,17 39,39 0,22 -18,39 -39,39 -22,0 -40,-17 -40,-39z"/>
   <path class="fil146" d="M203 585c0,22 18,40 40,40 22,0 40,-17 40,-40 0,-22 -18,-40 -40,-40 -22,0 -40,18 -40,40zm1 0l0 0c0,-21 17,-39 39,-39 21,0 39,17 39,39 0,22 -17,39 -39,39 -22,0 -39,-17 -39,-39z"/>
   <path class="fil147" d="M204 585c0,22 18,39 40,39 21,0 39,-17 39,-39 0,-22 -18,-39 -39,-39 -22,0 -40,17 -40,39zm1 0l0 0c0,-21 17,-38 39,-38 21,0 38,17 38,38 0,21 -17,38 -38,38 -21,0 -39,-17 -39,-38z"/>
   <path class="fil148" d="M204 585c0,22 17,39 39,39 21,0 39,-17 39,-39 0,-21 -17,-39 -39,-39 -22,0 -39,17 -39,39zm1 0l0 0c0,-21 17,-38 38,-38 21,0 38,17 38,38 0,21 -17,38 -38,38 -21,0 -38,-16 -38,-38z"/>
   <path class="fil149" d="M205 585c0,21 17,38 39,38 21,0 38,-17 38,-38 0,-21 -17,-38 -38,-38 -21,0 -39,17 -39,38zm1 0l0 0c0,-20 17,-37 37,-37 20,0 37,17 37,37 0,21 -17,37 -37,37 -21,0 -37,-16 -37,-37z"/>
   <path class="fil150" d="M205 585c0,21 17,38 38,38 21,0 38,-16 38,-38 0,-21 -17,-38 -38,-38 -21,0 -38,17 -38,38zm1 0l0 0c0,-20 16,-36 37,-36 20,0 36,16 36,36 0,20 -16,37 -36,37 -21,0 -37,-16 -37,-37z"/>
   <path class="fil151" d="M206 585c0,21 17,37 37,37 20,0 37,-16 37,-37 0,-20 -17,-37 -37,-37 -21,0 -37,17 -37,37zm1 0l0 0c0,-20 16,-36 36,-36 20,0 36,16 36,36 0,20 -16,36 -36,36 -20,0 -36,-16 -36,-36z"/>
   <path class="fil152" d="M207 585c0,20 16,37 37,37 20,0 36,-16 36,-37 0,-20 -16,-36 -36,-36 -21,0 -37,16 -37,36zm1 0l0 0c0,-20 16,-35 36,-35 20,0 35,16 35,35 0,20 -16,35 -35,35 -20,0 -36,-16 -36,-35z"/>
   <path class="fil153" d="M207 585c0,20 16,36 36,36 20,0 36,-16 36,-36 0,-20 -16,-36 -36,-36 -20,0 -36,16 -36,36zm1 0l0 0c0,-19 16,-35 35,-35 19,0 35,16 35,35 0,20 -16,35 -35,35 -20,0 -35,-15 -35,-35z"/>
   <path class="fil154" d="M208 585c0,20 16,35 36,35 20,0 35,-16 35,-35 0,-20 -16,-35 -35,-35 -20,0 -36,16 -36,35zm1 0l0 0c0,-19 16,-34 35,-34 19,0 34,15 34,34 0,19 -15,34 -34,34 -19,0 -35,-15 -35,-34z"/>
   <path class="fil155" d="M208 585c0,20 16,35 35,35 19,0 35,-15 35,-35 0,-19 -16,-35 -35,-35 -20,0 -35,16 -35,35zm1 0l0 0c0,-19 15,-34 34,-34 19,0 34,15 34,34 0,19 -15,34 -34,34 -19,0 -34,-15 -34,-34z"/>
   <path class="fil156" d="M209 585c0,19 16,34 35,34 19,0 34,-15 34,-34 0,-19 -15,-34 -34,-34 -19,0 -35,15 -35,34zm1 0l0 0c0,-19 15,-33 34,-33 18,0 33,15 33,33 0,18 -15,33 -33,33 -18,0 -34,-15 -34,-33z"/>
   <path class="fil156" d="M209 585c0,19 15,34 34,34 19,0 34,-15 34,-34 0,-19 -15,-34 -34,-34 -19,0 -34,15 -34,34zm1 0l0 0c0,-18 15,-33 33,-33 18,0 33,15 33,33 0,18 -15,33 -33,33 -18,0 -33,-14 -33,-33z"/>
   <path class="fil157" d="M210 585c0,18 15,33 34,33 18,0 33,-15 33,-33 0,-19 -15,-33 -33,-33 -18,0 -34,15 -34,33zm1 0l0 0c0,-18 15,-32 33,-32 18,0 32,15 32,32 0,18 -15,32 -32,32 -18,0 -33,-14 -33,-32z"/>
   <path class="fil158" d="M210 585c0,18 15,33 33,33 18,0 33,-14 33,-33 0,-18 -15,-33 -33,-33 -18,0 -33,15 -33,33zm1 0l0 0c0,-18 14,-32 32,-32 18,0 32,14 32,32 0,17 -14,32 -32,32 -18,0 -32,-14 -32,-32z"/>
   <path class="fil159" d="M211 585c0,18 15,32 33,32 18,0 32,-14 32,-32 0,-18 -15,-32 -32,-32 -18,0 -33,15 -33,32zm1 0l0 0c0,-17 14,-31 32,-31 17,0 31,14 31,31 0,17 -14,31 -31,31 -17,0 -32,-14 -32,-31z"/>
   <path class="fil160" d="M211 585c0,17 14,32 32,32 18,0 32,-14 32,-32 0,-18 -14,-32 -32,-32 -18,0 -32,14 -32,32zm1 0l0 0c0,-17 14,-31 31,-31 17,0 31,14 31,31 0,17 -14,31 -31,31 -17,0 -31,-14 -31,-31z"/>
   <path class="fil161" d="M212 585c0,17 14,31 32,31 17,0 31,-14 31,-31 0,-17 -14,-31 -31,-31 -17,0 -32,14 -32,31zm1 0l0 0c0,-16 14,-30 31,-30 16,0 30,14 30,30 0,17 -14,30 -30,30 -17,0 -31,-13 -31,-30z"/>
   <path class="fil162" d="M212 585c0,17 14,31 31,31 17,0 31,-14 31,-31 0,-17 -14,-31 -31,-31 -17,0 -31,14 -31,31zm1 0l0 0c0,-16 14,-30 30,-30 16,0 30,13 30,30 0,16 -13,30 -30,30 -16,0 -30,-13 -30,-30z"/>
   <path class="fil163" d="M213 585c0,17 14,30 31,30 16,0 30,-13 30,-30 0,-16 -14,-30 -30,-30 -17,0 -31,14 -31,30zm1 0l0 0c0,-16 13,-29 30,-29 16,0 29,13 29,29 0,16 -13,29 -29,29 -16,0 -30,-13 -30,-29z"/>
   <path class="fil164" d="M213 585c0,16 14,30 30,30 16,0 30,-13 30,-30 0,-16 -13,-30 -30,-30 -16,0 -30,13 -30,30zm1 0l0 0c0,-16 13,-29 29,-29 15,0 29,13 29,29 0,16 -13,29 -29,29 -16,0 -29,-13 -29,-29z"/>
   <path class="fil165" d="M214 585c0,16 13,29 30,29 16,0 29,-13 29,-29 0,-16 -13,-29 -29,-29 -16,0 -30,13 -30,29zm1 0l0 0c0,-15 13,-28 29,-28 15,0 28,13 28,28 0,16 -13,28 -28,28 -16,0 -29,-12 -29,-28z"/>
   <path class="fil166" d="M214 585c0,16 13,29 29,29 15,0 29,-13 29,-29 0,-16 -13,-29 -29,-29 -16,0 -29,13 -29,29zm1 0l0 0c0,-15 13,-28 28,-28 15,0 28,13 28,28 0,15 -13,27 -28,27 -15,0 -28,-12 -28,-27z"/>
   <path class="fil167" d="M215 585c0,16 13,28 29,28 15,0 28,-12 28,-28 0,-15 -13,-28 -28,-28 -16,0 -29,13 -29,28zm1 0l0 0c0,-15 12,-27 28,-27 15,0 27,12 27,27 0,15 -12,27 -27,27 -15,0 -28,-12 -28,-27z"/>
   <path class="fil168" d="M215 585c0,15 13,27 28,27 15,0 28,-12 28,-27 0,-15 -13,-28 -28,-28 -15,0 -28,13 -28,28zm1 0l0 0c0,-14 12,-26 27,-26 14,0 26,12 26,26 0,15 -12,26 -26,26 -15,0 -27,-12 -27,-26z"/>
   <path class="fil169" d="M216 585c0,15 12,27 28,27 15,0 27,-12 27,-27 0,-15 -12,-27 -27,-27 -15,0 -28,12 -28,27zm1 0l0 0c0,-14 12,-26 26,-26 14,0 26,12 26,26 0,14 -12,26 -26,26 -15,0 -26,-12 -26,-26z"/>
   <path class="fil170" d="M217 585c0,15 12,26 27,26 14,0 26,-12 26,-26 0,-14 -12,-26 -26,-26 -15,0 -27,12 -27,26zm1 0l0 0c0,-14 12,-25 26,-25 14,0 25,12 25,25 0,14 -12,25 -25,25 -14,0 -26,-11 -26,-25z"/>
   <path class="fil171" d="M217 585c0,14 12,26 26,26 14,0 26,-12 26,-26 0,-14 -12,-26 -26,-26 -15,0 -26,12 -26,26zm1 0l0 0c0,-14 12,-25 25,-25 14,0 25,11 25,25 0,14 -11,25 -25,25 -14,0 -25,-11 -25,-25z"/>
   <path class="fil172" d="M218 585c0,14 12,25 26,25 14,0 25,-11 25,-25 0,-14 -12,-25 -25,-25 -14,0 -26,12 -26,25zm1 0l0 0c0,-13 11,-24 25,-24 13,0 24,11 24,24 0,14 -11,24 -24,24 -14,0 -25,-11 -25,-24z"/>
   <path class="fil173" d="M218 585c0,14 12,25 25,25 14,0 25,-11 25,-25 0,-14 -11,-25 -25,-25 -14,0 -25,11 -25,25zm1 0l0 0c0,-13 11,-24 24,-24 13,0 24,11 24,24 0,13 -11,24 -24,24 -13,0 -24,-11 -24,-24z"/>
   <path class="fil174" d="M219 585c0,14 11,24 25,24 13,0 24,-11 24,-24 0,-13 -11,-24 -24,-24 -14,0 -25,11 -25,24zm1 0l0 0c0,-13 11,-23 24,-23 13,0 23,11 23,23 0,13 -11,23 -23,23 -13,0 -24,-10 -24,-23z"/>
   <path class="fil175" d="M219 585c0,13 11,24 24,24 13,0 24,-11 24,-24 0,-13 -11,-24 -24,-24 -13,0 -24,11 -24,24zm1 0l0 0c0,-12 10,-23 23,-23 12,0 23,11 23,23 0,13 -11,23 -23,23 -13,0 -23,-10 -23,-23z"/>
   <path class="fil176" d="M220 585c0,13 11,23 24,23 13,0 23,-10 23,-23 0,-13 -11,-23 -23,-23 -13,0 -24,11 -24,23zm1 0l0 0c0,-12 10,-22 23,-22 12,0 22,10 22,22 0,13 -10,22 -22,22 -13,0 -23,-10 -23,-22z"/>
   <path class="fil177" d="M220 585c0,13 10,23 23,23 12,0 23,-10 23,-23 0,-12 -11,-23 -23,-23 -13,0 -23,11 -23,23zm1 0l0 0c0,-12 10,-22 22,-22 12,0 22,10 22,22 0,12 -10,22 -22,22 -12,0 -22,-10 -22,-22z"/>
   <path class="fil178" d="M221 585c0,13 10,22 23,22 12,0 22,-10 22,-22 0,-12 -10,-22 -22,-22 -13,0 -23,10 -23,22zm1 0l0 0c0,-12 10,-21 22,-21 12,0 21,10 21,21 0,12 -9,21 -21,21 -12,0 -22,-10 -22,-21z"/>
   <path class="fil179" d="M221 585c0,12 10,22 22,22 12,0 22,-10 22,-22 0,-12 -10,-22 -22,-22 -12,0 -22,10 -22,22zm1 0l0 0c0,-11 10,-21 21,-21 11,0 21,10 21,21 0,12 -9,21 -21,21 -12,0 -21,-9 -21,-21z"/>
   <path class="fil180" d="M222 585c0,12 10,21 22,21 12,0 21,-10 21,-21 0,-12 -9,-21 -21,-21 -12,0 -22,10 -22,21zm2 0l0 0c0,-11 9,-20 20,-20 11,0 20,9 20,20 0,11 -9,20 -20,20 -11,0 -20,-9 -20,-20z"/>
   <path class="fil181" d="M222 585c0,12 10,21 21,21 11,0 21,-9 21,-21 0,-11 -9,-21 -21,-21 -12,0 -21,10 -21,21zm1 0l0 0c0,-11 9,-20 20,-20 11,0 20,9 20,20 0,11 -9,20 -20,20 -11,0 -20,-8 -20,-20z"/>
   <path class="fil182" d="M223 585c0,11 10,20 21,20 11,0 20,-9 20,-20 0,-11 -9,-20 -20,-20 -11,0 -21,9 -21,20zm1 0l0 0c0,-11 9,-19 20,-19 10,0 19,8 19,19 0,11 -9,19 -19,19 -10,0 -20,-8 -20,-19z"/>
   <path class="fil183" d="M223 585c0,11 9,20 20,20 11,0 20,-8 20,-20 0,-11 -9,-20 -20,-20 -11,0 -20,9 -20,20zm1 0l0 0c0,-10 9,-19 19,-19 10,0 19,8 19,19 0,11 -8,18 -19,18 -10,0 -19,-8 -19,-18z"/>
   <path class="fil184" d="M224 585c0,11 9,19 20,19 10,0 19,-8 19,-19 0,-11 -9,-19 -19,-19 -10,0 -20,8 -20,19zm1 0l0 0c0,-10 8,-18 18,-18 10,0 18,8 18,18 0,10 -8,18 -18,18 -10,0 -18,-8 -18,-18z"/>
   <path class="fil185" d="M224 585c0,11 9,18 19,18 10,0 19,-8 19,-18 0,-10 -8,-19 -19,-19 -10,0 -19,8 -19,19zm2 0l0 0c0,-10 7,-18 17,-18 10,0 18,8 18,18 0,10 -8,17 -18,17 -10,0 -17,-7 -17,-17z"/>
   <path class="fil186" d="M225 585c0,10 8,18 18,18 10,0 18,-8 18,-18 0,-10 -8,-18 -18,-18 -10,0 -18,8 -18,18zm1 0l0 0c0,-9 7,-17 17,-17 9,0 17,8 17,17 0,9 -8,17 -17,17 -9,0 -17,-7 -17,-17z"/>
   <path class="fil187" d="M226 585c0,10 7,17 17,17 10,0 18,-7 18,-17 0,-10 -8,-18 -18,-18 -10,0 -17,8 -17,18zm1 0l0 0c0,-9 7,-16 16,-16 9,0 16,7 16,16 0,9 -7,16 -16,16 -9,0 -16,-7 -16,-16z"/>
   <path class="fil188" d="M227 585c0,9 7,17 17,17 9,0 17,-7 17,-17 0,-9 -8,-17 -17,-17 -9,0 -17,8 -17,17zm1 0l0 0c0,-9 7,-16 16,-16 9,0 16,7 16,16 0,9 -7,16 -16,16 -9,0 -16,-7 -16,-16z"/>
   <path class="fil189" d="M227 585c0,9 7,16 16,16 9,0 16,-7 16,-16 0,-9 -7,-16 -16,-16 -9,0 -16,7 -16,16zm1 0l0 0c0,-9 7,-15 15,-15 8,0 15,7 15,15 0,8 -7,15 -15,15 -8,0 -15,-7 -15,-15z"/>
   <path class="fil190" d="M228 585c0,9 7,16 16,16 8,0 16,-7 16,-16 0,-9 -7,-16 -16,-16 -9,0 -16,7 -16,16zm1 0l0 0c0,-8 6,-15 15,-15 8,0 15,7 15,15 0,8 -7,15 -15,15 -8,0 -15,-6 -15,-15z"/>
   <path class="fil191" d="M228 585c0,8 7,15 15,15 9,0 15,-7 15,-15 0,-9 -7,-15 -15,-15 -8,0 -15,7 -15,15zm1 0l0 0c0,-8 6,-14 14,-14 7,0 14,6 14,14 0,8 -7,14 -14,14 -8,0 -14,-6 -14,-14z"/>
   <path class="fil192" d="M229 585c0,8 6,15 15,15 8,0 15,-6 15,-15 0,-8 -7,-15 -15,-15 -8,0 -15,7 -15,15zm1 0l0 0c0,-7 6,-14 14,-14 7,0 14,6 14,14 0,8 -6,14 -14,14 -8,0 -14,-6 -14,-14z"/>
   <path class="fil193" d="M229 585c0,8 6,14 14,14 7,0 14,-6 14,-14 0,-8 -7,-14 -14,-14 -8,0 -14,6 -14,14zm1 0l0 0c0,-7 6,-13 13,-13 7,0 13,6 13,13 0,7 -6,13 -13,13 -7,0 -13,-6 -13,-13z"/>
   <path class="fil194" d="M230 585c0,8 6,14 14,14 7,0 14,-6 14,-14 0,-7 -6,-14 -14,-14 -8,0 -14,6 -14,14zm1 0l0 0c0,-7 5,-13 13,-13 7,0 13,6 13,13 0,7 -6,13 -13,13 -7,0 -13,-5 -13,-13z"/>
   <path class="fil195" d="M230 585c0,7 6,13 13,13 7,0 13,-6 13,-13 0,-7 -6,-13 -13,-13 -7,0 -13,6 -13,13zm1 0l0 0c0,-6 5,-12 12,-12 6,0 12,6 12,12 0,7 -6,12 -12,12 -7,0 -12,-5 -12,-12z"/>
   <path class="fil196" d="M231 585c0,7 5,13 13,13 7,0 13,-5 13,-13 0,-7 -6,-13 -13,-13 -7,0 -13,6 -13,13zm1 0l0 0c0,-6 5,-12 12,-12 6,0 12,5 12,12 0,6 -5,12 -12,12 -7,0 -12,-5 -12,-12z"/>
   <path class="fil197" d="M231 585c0,7 5,12 12,12 6,0 12,-5 12,-12 0,-6 -6,-12 -12,-12 -7,0 -12,6 -12,12zm1 0l0 0c0,-6 5,-11 11,-11 6,0 11,5 11,11 0,6 -5,11 -11,11 -6,0 -11,-5 -11,-11z"/>
   <path class="fil198" d="M232 585c0,6 5,12 12,12 6,0 12,-5 12,-12 0,-6 -5,-12 -12,-12 -7,0 -12,5 -12,12zm1 0l0 0c0,-6 4,-11 10,-11 6,0 11,5 11,11 0,6 -5,11 -11,11 -6,0 -10,-5 -10,-11z"/>
   <path class="fil199" d="M232 585c0,6 5,11 11,11 6,0 11,-5 11,-11 0,-6 -5,-11 -11,-11 -6,0 -11,5 -11,11zm1 0l0 0c0,-5 4,-10 10,-10 5,0 10,5 10,10 0,6 -5,10 -10,10 -6,0 -10,-4 -10,-10z"/>
   <path class="fil200" d="M233 585c0,6 4,11 10,11 6,0 11,-5 11,-11 0,-6 -5,-11 -11,-11 -6,0 -10,5 -10,11zm1 0l0 0c0,-5 4,-10 9,-10 5,0 10,4 10,10 0,5 -4,9 -10,9 -5,0 -9,-4 -9,-9z"/>
   <path class="fil201" d="M233 585c0,6 4,10 10,10 5,0 10,-4 10,-10 0,-5 -5,-10 -10,-10 -6,0 -10,5 -10,10zm1 0l0 0c0,-5 4,-9 9,-9 5,0 9,4 9,9 0,5 -4,9 -9,9 -5,0 -9,-4 -9,-9z"/>
   <path class="fil202" d="M234 585c0,5 4,9 9,9 5,0 10,-4 10,-9 0,-5 -4,-10 -10,-10 -5,0 -9,4 -9,10zm1 0l0 0c0,-5 4,-9 8,-9 4,0 9,4 9,9 0,5 -4,8 -9,8 -5,0 -8,-4 -8,-8z"/>
   <path class="fil203" d="M234 585c0,5 4,9 9,9 5,0 9,-4 9,-9 0,-5 -4,-9 -9,-9 -5,0 -9,4 -9,9zm1 0l0 0c0,-4 3,-8 8,-8 4,0 8,4 8,8 0,5 -4,8 -8,8 -5,0 -8,-3 -8,-8z"/>
   <path class="fil203" d="M235 585c0,5 4,8 8,8 4,0 9,-4 9,-8 0,-5 -4,-9 -9,-9 -5,0 -8,4 -8,9zm1 0l0 0c0,-4 3,-7 7,-7 4,0 7,4 7,7 0,4 -4,7 -7,7 -4,0 -7,-3 -7,-7z"/>
   <path class="fil204" d="M236 585c0,5 3,8 8,8 4,0 8,-3 8,-8 0,-4 -4,-8 -8,-8 -5,0 -8,4 -8,8zm1 0l0 0c0,-4 3,-7 7,-7 4,0 7,3 7,7 0,4 -3,7 -7,7 -4,0 -7,-3 -7,-7z"/>
   <path class="fil72" d="M236 585c0,4 3,7 7,7 4,0 7,-3 7,-7 0,-4 -4,-7 -7,-7 -4,0 -7,4 -7,7zm1 0l0 0c0,-3 3,-6 6,-6 3,0 6,3 6,6 0,4 -3,6 -6,6 -4,0 -6,-3 -6,-6z"/>
   <path class="fil205" d="M237 585c0,4 3,7 7,7 4,0 7,-3 7,-7 0,-4 -3,-7 -7,-7 -4,0 -7,3 -7,7zm1 0l0 0c0,-3 2,-6 6,-6 3,0 6,3 6,6 0,3 -3,6 -6,6 -4,0 -6,-3 -6,-6z"/>
   <path class="fil205" d="M237 585c0,4 3,6 6,6 3,0 6,-3 6,-6 0,-3 -3,-6 -6,-6 -4,0 -6,3 -6,6zm1 0l0 0c0,-3 2,-5 5,-5 3,0 5,3 5,5 0,3 -3,5 -5,5 -3,0 -5,-2 -5,-5z"/>
   <path class="fil206" d="M238 585c0,3 2,6 6,6 3,0 6,-3 6,-6 0,-3 -3,-6 -6,-6 -4,0 -6,3 -6,6zm1 0l0 0c0,-3 2,-5 5,-5 3,0 5,2 5,5 0,3 -2,5 -5,5 -3,0 -5,-2 -5,-5z"/>
   <path class="fil65" d="M238 585c0,3 2,5 5,5 3,0 5,-2 5,-5 0,-3 -3,-5 -5,-5 -3,0 -5,3 -5,5zm1 0l0 0c0,-2 2,-4 4,-4 2,0 4,2 4,4 0,3 -2,4 -4,4 -3,0 -4,-2 -4,-4z"/>
   <path class="fil207" d="M239 585c0,3 2,5 5,5 3,0 5,-2 5,-5 0,-3 -2,-5 -5,-5 -3,0 -5,2 -5,5zm1 0l0 0c0,-2 2,-4 4,-4 2,0 4,2 4,4 0,2 -2,4 -4,4 -2,0 -4,-2 -4,-4z"/>
   <path class="fil208" d="M239 585c0,3 2,4 4,4 2,0 4,-2 4,-4 0,-2 -2,-4 -4,-4 -3,0 -4,2 -4,4zm1 0l0 0c0,-2 1,-3 3,-3 2,0 3,2 3,3 0,2 -2,3 -3,3 -2,0 -3,-1 -3,-3z"/>
   <path class="fil209" d="M240 585c0,2 2,4 4,4 2,0 4,-2 4,-4 0,-2 -2,-4 -4,-4 -2,0 -4,2 -4,4zm1 0l0 0c0,-1 1,-3 3,-3 1,0 3,2 3,3 0,2 -2,3 -3,3 -2,0 -3,-1 -3,-3z"/>
   <path class="fil59" d="M240 585c0,2 1,3 3,3 2,0 3,-1 3,-3 0,-2 -2,-3 -3,-3 -2,0 -3,2 -3,3zm1 0l0 0c0,-1 1,-2 2,-2 1,0 2,1 2,2 0,2 -1,2 -2,2 -2,0 -2,-1 -2,-2z"/>
   <path class="fil59" d="M241 585c0,2 1,3 3,3 1,0 3,-1 3,-3 0,-1 -2,-3 -3,-3 -2,0 -3,2 -3,3zm1 0l0 0c0,-1 1,-2 2,-2 1,0 2,1 2,2 0,1 -1,2 -2,2 -1,0 -2,-1 -2,-2z"/>
   <path class="fil57" d="M241 585c0,2 1,2 2,2 1,0 2,-1 2,-2 0,-1 -1,-2 -2,-2 -2,0 -2,1 -2,2zm1 0l0 0c0,-1 0,-1 1,-1 1,0 1,1 1,1 0,0 0,1 -1,1 -1,0 -1,-1 -1,-1z"/>
   <path class="fil210" d="M242 585c0,-1 1,-2 2,-2 1,0 2,1 2,2 0,1 -1,2 -2,2 -1,0 -2,-1 -2,-2z"/>
   <path class="fil53" d="M242 585c0,-1 0,-1 1,-1 1,0 1,1 1,1 0,0 0,1 -1,1 -1,0 -1,-1 -1,-1z"/>
   <path class="fil53" d="M243 585c0,0 0,-1 0,-1l1 1c0,0 -1,0 -1,0 0,0 0,0 0,0z"/>
   <path class="fil211" d="M143 624l0 -80c0,-3 3,-5 5,-5l33 0c7,0 11,14 11,17l0 57c0,5 -4,16 -11,16l-33 0c-3,0 -5,-2 -5,-5z"/>
   <path class="fil123" d="M243 575c1,-1 2,-1 3,-1 8,0 14,5 14,11 0,6 -6,12 -14,12 -1,0 -2,0 -3,0l0 -22z"/>
   <path class="fil53" d="M173 553c-1,-2 -2,-3 -4,-3 -2,1 -3,3 -2,5 1,4 8,3 6,-2z"/>
   <path class="fil141" d="M176 560c0,0 0,0 1,-1 0,0 0,0 -1,1zm1 -1c1,-1 2,-3 2,-4 0,0 0,-1 0,-1 0,0 0,1 0,1 0,2 -1,3 -2,4z"/>
   <path class="fil212" d="M164 554c0,4 3,7 7,7 4,0 7,-3 7,-7 0,-4 -3,-7 -7,-7 -4,0 -7,3 -7,7zm0 0l0 0c0,-4 3,-6 6,-6 4,0 7,3 7,6 0,4 -3,6 -7,6 -3,0 -6,-3 -6,-6z"/>
   <path class="fil152" d="M164 554l0 0 0 0 0 0 0 0 0 0 0 0 0 0 0 0 0 0 0 0 0 0 0 0 0 0 0 0 0 0 0 0 0 0 0 0 0 0 0 0 0 0 0 0 0 0 0 0 0 0 0 0 0 0 0 0 0 0 0 0 0 0 0 0 0 0 0 0 0 0 0 0 0 0 0 0 0 0 0 0 0 0 0 0 0 0 0 0 0 0 0 0 0 0 0 0 0 0 0 0 0 0 0 0 0 0 0 0 0 0 0 0 0 0 0 0 0 0 0 0 0 0 0 0 0 0 0 0 0 0 0 0 0 0 0 0 0 0 0 0 0 0 0 0 0 0 0 0 0 0 0 0 0 0 0 0 0 0 0 0 0 0 0 0 0 0 0 0 0 0 0 0 0 0 0 0 0 0 0 0 0 0 0 0 0 0 0 0 0 0 0 0 0 0 0 0 0 0 0 0 0 0 0 0 0 0 0 0 0 0 0 0 0 0 0 0 0 0 0 0 0 0 0 0 0 0 0 0 0 0 0 0 0 0 0 0 0 0 0 0 0 0 0 0 0 0 0 0 0 0 0 0 0 0 0 0 0 0 0 0c0,0 0,0 1,-1l0 0 0 0 0 0 0 0 0 0 0 0 0 0c1,-1 2,-3 2,-4 0,0 0,-1 0,-1l0 0 0 0c-1,-3 -3,-6 -7,-6 -4,0 -7,3 -7,7l0 0 0 0 0 0 0 0 0 0zm1 0l0 0c0,-3 3,-6 6,-6 4,0 6,3 6,6 0,3 -3,6 -6,6 -3,0 -6,-3 -6,-6z"/>
   <path class="fil213" d="M165 554c0,4 3,6 6,6 4,0 7,-3 7,-6 0,-4 -3,-7 -6,-7l0 0 0 0 0 0 0 0 0 0 0 0 0 0 0 0c-3,0 -6,3 -6,7zm1 0l0 0c0,-3 3,-5 5,-5 3,0 6,2 6,5 0,3 -3,5 -6,5 -3,0 -5,-2 -5,-5z"/>
   <path class="fil214" d="M165 554c0,3 3,6 6,6 4,0 6,-3 6,-6 0,-3 -3,-6 -6,-6 -3,0 -6,3 -6,6zm1 0l0 0c0,-3 2,-5 5,-5 3,0 5,2 5,5 0,3 -2,5 -5,5 -3,0 -5,-2 -5,-5z"/>
   <path class="fil169" d="M166 554c0,3 3,5 5,5 3,0 6,-2 6,-5 0,-3 -3,-5 -6,-5 -3,0 -5,2 -5,5zm1 0l0 0c0,-3 2,-4 4,-4 3,0 5,2 5,4 0,2 -2,4 -5,4 -2,0 -4,-2 -4,-4z"/>
   <path class="fil215" d="M166 554c0,3 2,5 5,5 3,0 5,-2 5,-5 0,-3 -2,-5 -5,-5 -3,0 -5,2 -5,5zm1 0l0 0c0,-2 2,-4 4,-4 2,0 4,2 4,4 0,2 -2,4 -4,4 -2,0 -4,-2 -4,-4z"/>
   <path class="fil216" d="M167 554c0,2 2,4 4,4 3,0 5,-2 5,-4 0,-3 -2,-4 -5,-4 -2,0 -4,2 -4,4zm1 0l0 0c0,-2 2,-3 3,-3 2,0 4,1 4,3 0,2 -2,3 -4,3 -2,0 -3,-2 -3,-3z"/>
   <path class="fil217" d="M167 554c0,2 2,4 4,4 2,0 4,-2 4,-4 0,-2 -2,-4 -4,-4 -2,0 -4,2 -4,4zm1 0l0 0c0,-2 2,-3 3,-3 1,0 3,1 3,3 0,2 -2,3 -3,3 -1,0 -3,-1 -3,-3z"/>
   <path class="fil218" d="M168 554c0,2 2,3 3,3 2,0 4,-2 4,-3 0,-2 -2,-3 -4,-3 -2,0 -3,1 -3,3zm1 0l0 0c0,-1 1,-2 2,-2 1,0 3,1 3,2 0,1 -1,2 -3,2 -1,0 -2,-1 -2,-2z"/>
   <path class="fil197" d="M169 554c0,2 2,3 3,3 1,0 3,-1 3,-3 0,-2 -2,-3 -3,-3 -1,0 -3,1 -3,3zm1 0l0 0c0,-1 1,-2 2,-2 1,0 1,1 1,2 0,1 0,2 -1,2 -1,0 -2,0 -2,-2z"/>
   <path class="fil202" d="M169 554c0,1 1,2 2,2 1,0 3,-1 3,-2 0,-1 -1,-2 -3,-2 -1,0 -2,1 -2,2zm1 0l0 0c0,-1 0,-1 1,-1 1,0 1,1 1,1 0,1 0,1 -1,1 -1,0 -1,-1 -1,-1z"/>
   <path class="fil205" d="M170 554c0,-1 1,-2 2,-2 1,0 1,1 1,2 0,1 0,2 -1,2 -1,0 -2,0 -2,-2z"/>
   <path class="fil209" d="M170 554c0,-1 0,-1 1,-1 1,0 1,1 1,1 0,1 0,1 -1,1 -1,0 -1,-1 -1,-1z"/>
   <path class="fil53" d="M171 554c0,-1 1,-1 1,-1 1,0 1,0 1,1 0,0 0,1 -1,1l-1 -1z"/>
   <path class="fil134" d="M167 554c0,1 1,2 2,3 -1,-1 -2,-2 -2,-3l0 0c0,-2 1,-3 2,-3 -1,1 -2,2 -2,3zm2 3c0,0 0,0 1,0 0,0 0,0 -1,0z"/>
   <path class="fil219" d="M167 554c0,2 2,4 4,4 3,0 5,-2 5,-4 0,-3 -2,-4 -5,-4 -2,0 -4,2 -4,4zm1 0l0 0c0,-2 2,-4 4,-4 2,0 4,2 4,4 0,2 -2,4 -4,4 -2,0 -4,-2 -4,-4z"/>
   <path class="fil153" d="M167 554c0,1 1,2 2,3l0 0c0,0 0,0 1,0l0 0 0 0 0 0 0 0 0 0 0 0 0 0 0 0 0 0 0 0 0 0 0 0 0 0 0 0 0 0 0 0 0 0 0 0 0 0 0 0 0 0 0 0 0 0 0 0 0 0 0 0 0 0 0 0 0 0 0 0 0 0 0 0 0 0 0 0 0 0 0 0 0 0 0 0 0 0 0 0 0 0 0 0 0 0 0 0 0 0 0 0 0 0 0 0 0 0 0 0 0 0 0 0 0 0 0 0 0 0 0 0 0 0 0 0 0 0 0 0 0 0 0 0 0 0 0 0 0 0 0 0 0 0 0 0 0 0 0 0 0 0 0 0 0 0 0 0 0 0 0 0 0 0 0 0 0 0 0 0 0 0 0 0 0 0 0 0 0 0 0 0 0 0 0 0 0 0 0 0 0 0c0,-1 1,-1 1,-2 0,-1 0,-1 0,-2l0 0 0 0 0 0 0 0 0 0 0 0 0 0 0 0 0 0 0 0 0 0 0 0 0 0 0 0 0 0 0 0 0 0 0 0 0 0 0 0 0 0 0 0 0 0c-1,-1 -2,-1 -3,-1 -1,0 -1,0 -2,0l0 0 0 0 0 0 0 0 0 0 0 0 0 0 0 0 0 0 0 0 0 0 0 0 0 0c-1,1 -2,2 -2,3zm1 0l0 0c0,-2 2,-3 3,-3 2,0 4,1 4,3 0,2 -2,3 -4,3 -2,0 -3,-2 -3,-3z"/>
   <path class="fil220" d="M167 554c0,2 2,4 4,4 2,0 4,-2 4,-4 0,-2 -2,-4 -4,-4 -2,0 -4,2 -4,4zm1 0l0 0c0,-2 2,-3 3,-3 1,0 3,1 3,3 0,2 -2,3 -3,3 -1,0 -3,-1 -3,-3z"/>
   <path class="fil171" d="M168 554c0,2 2,3 3,3 2,0 4,-2 4,-3 0,-2 -2,-3 -4,-3 -2,0 -3,1 -3,3zm1 0l0 0c0,-1 1,-2 2,-2 1,0 3,1 3,2 0,1 -1,2 -3,2 -1,0 -2,-1 -2,-2z"/>
   <path class="fil221" d="M169 554c0,2 2,3 3,3 1,0 3,-1 3,-3 0,-2 -2,-3 -3,-3 -1,0 -3,1 -3,3zm1 0l0 0c0,-1 1,-2 2,-2 1,0 2,1 2,2 0,1 -1,2 -2,2 -1,0 -2,0 -2,-2z"/>
   <path class="fil222" d="M169 554c0,1 1,2 2,2 1,0 3,-1 3,-2 0,-1 -1,-2 -3,-2 -1,0 -2,1 -2,2zm1 0l0 0c0,-1 0,-1 1,-1 1,0 1,1 1,1 0,1 0,1 -1,1 -1,0 -1,-1 -1,-1z"/>
   <path class="fil223" d="M170 554c0,-1 1,-2 2,-2 1,0 2,1 2,2 0,1 -1,2 -2,2 -1,0 -2,0 -2,-2z"/>
   <path class="fil224" d="M170 554c0,-1 0,-1 1,-1 1,0 1,1 1,1 0,1 0,1 -1,1 -1,0 -1,-1 -1,-1z"/>
   <path class="fil53" d="M171 554c0,-1 1,-1 1,-1 1,0 1,0 1,1 0,0 0,1 -1,1l-1 -1z"/>
   <path class="fil53" d="M143 624l0 -80c0,-3 3,-5 5,-5l32 0c7,0 11,14 11,17l0 57c0,5 -4,16 -11,16l-32 0c-3,0 -5,-2 -5,-5z"/>
   <path class="fil124" d="M146 585c0,5 4,9 9,9 5,0 9,-4 9,-9 0,-5 -4,-9 -9,-9 -5,0 -9,4 -9,9zm1 0l0 0c0,-4 4,-8 8,-8 4,0 8,4 8,8 0,5 -4,8 -8,8 -4,0 -8,-4 -8,-8z"/>
   <path class="fil130" d="M146 585c0,5 4,9 8,9 5,0 8,-4 8,-9 0,-4 -4,-9 -8,-9 -5,0 -8,4 -8,9zm1 0l0 0c0,-4 3,-7 7,-7 4,0 7,4 7,7 0,4 -3,8 -7,8 -4,0 -7,-4 -7,-8z"/>
   <path class="fil136" d="M147 585c0,5 4,8 8,8 4,0 8,-4 8,-8 0,-4 -4,-8 -8,-8 -4,0 -8,4 -8,8zm1 0l0 0c0,-4 3,-7 7,-7 4,0 7,3 7,7 0,4 -3,7 -7,7 -4,0 -7,-3 -7,-7z"/>
   <path class="fil142" d="M147 585c0,4 3,8 7,8 4,0 7,-4 7,-8 0,-4 -3,-7 -7,-7 -4,0 -7,4 -7,7zm1 0l0 0c0,-3 3,-6 6,-6 4,0 6,3 6,6 0,4 -3,7 -6,7 -4,0 -6,-3 -6,-7z"/>
   <path class="fil148" d="M148 585c0,4 3,7 7,7 4,0 7,-3 7,-7 0,-4 -3,-7 -7,-7 -4,0 -7,3 -7,7zm1 0l0 0c0,-3 3,-6 6,-6 3,0 6,3 6,6 0,4 -3,6 -6,6 -3,0 -6,-3 -6,-6z"/>
   <path class="fil154" d="M148 585c0,4 3,7 6,7 4,0 6,-3 6,-7 0,-3 -3,-6 -6,-6 -4,0 -6,3 -6,6zm1 0l0 0c0,-3 2,-5 5,-5 3,0 5,3 5,5 0,3 -2,6 -5,6 -3,0 -5,-3 -5,-6z"/>
   <path class="fil159" d="M149 585c0,4 3,6 6,6 3,0 6,-3 6,-6 0,-3 -3,-6 -6,-6 -3,0 -6,3 -6,6zm1 0l0 0c0,-3 2,-5 5,-5 3,0 5,2 5,5 0,3 -2,5 -5,5 -3,0 -5,-3 -5,-5z"/>
   <path class="fil165" d="M149 585c0,3 2,6 5,6 3,0 5,-3 5,-6 0,-3 -2,-5 -5,-5 -3,0 -5,3 -5,5zm1 0l0 0c0,-2 2,-4 4,-4 2,0 4,2 4,4 0,3 -2,5 -4,5 -2,0 -4,-2 -4,-5z"/>
   <path class="fil171" d="M150 585c0,3 2,5 5,5 3,0 5,-3 5,-5 0,-3 -2,-5 -5,-5 -3,0 -5,2 -5,5zm1 0l0 0c0,-2 2,-4 4,-4 2,0 4,2 4,4 0,2 -2,4 -4,4 -2,0 -4,-2 -4,-4z"/>
   <path class="fil177" d="M150 585c0,3 2,5 4,5 2,0 4,-2 4,-5 0,-2 -2,-4 -4,-4 -2,0 -4,2 -4,4zm1 0l0 0c0,-2 2,-3 3,-3 2,0 3,2 3,3 0,2 -2,4 -3,4 -2,0 -3,-2 -3,-4z"/>
   <path class="fil183" d="M151 585c0,2 2,4 4,4 2,0 4,-2 4,-4 0,-2 -2,-4 -4,-4 -2,0 -4,2 -4,4zm1 0l0 0c0,-1 1,-3 3,-3 2,0 3,2 3,3 0,2 -1,3 -3,3 -2,0 -3,-2 -3,-3z"/>
   <path class="fil189" d="M151 585c0,2 2,4 3,4 2,0 3,-2 3,-4 0,-2 -2,-3 -3,-3 -2,0 -3,2 -3,3zm1 0l0 0c0,-1 1,-2 2,-2 1,0 2,1 2,2 0,2 -1,3 -2,3 -1,0 -2,-1 -2,-3z"/>
   <path class="fil195" d="M152 585c0,2 1,3 3,3 2,0 3,-2 3,-3 0,-1 -1,-3 -3,-3 -2,0 -3,2 -3,3zm1 0l0 0c0,-1 0,-2 2,-2 1,0 2,1 2,2 0,1 -1,2 -2,2 -1,0 -2,-1 -2,-2z"/>
   <path class="fil201" d="M153 585c0,2 1,3 2,3 1,0 2,-1 2,-3 0,-1 -1,-2 -2,-2 -1,0 -2,1 -2,2zm1 0l0 0c0,-1 1,-1 1,-1 1,0 1,1 1,1 0,1 -1,1 -1,1 -1,0 -1,0 -1,-1z"/>
   <path class="fil205" d="M153 585c0,-1 0,-2 2,-2 1,0 2,1 2,2 0,1 -1,2 -2,2 -1,0 -2,-1 -2,-2z"/>
   <path class="fil209" d="M154 585c0,-1 1,-1 1,-1 1,0 1,1 1,1 0,1 -1,1 -1,1 -1,0 -1,0 -1,-1z"/>
   <path class="fil53" d="M154 585c0,0 0,-1 1,-1 1,0 1,1 1,1 0,0 0,0 -1,0 -1,0 -1,0 -1,0z"/>
   <path class="fil124" d="M149 585c0,3 3,6 6,6 3,0 6,-3 6,-6 0,-3 -3,-5 -6,-5 -3,0 -6,3 -6,5zm2 0l0 0c0,-2 2,-4 4,-4 3,0 5,2 5,4 0,3 -2,5 -5,5 -3,0 -4,-2 -4,-5z"/>
   <path class="fil225" d="M149 585c0,3 3,5 5,5 3,0 5,-2 5,-5 0,-3 -3,-5 -5,-5 -3,0 -5,2 -5,5zm2 0l0 0c0,-2 2,-4 4,-4 2,0 4,2 4,4 0,3 -1,4 -4,4 -2,0 -4,-2 -4,-4z"/>
   <path class="fil146" d="M151 585c0,3 2,5 4,5 3,0 5,-2 5,-5 0,-2 -2,-4 -5,-4 -3,0 -4,2 -4,4zm1 0l0 0c0,-2 2,-3 3,-3 2,0 3,2 3,3 0,2 -1,4 -3,4 -2,0 -3,-2 -3,-4z"/>
   <path class="fil156" d="M151 585c0,3 2,4 4,4 2,0 4,-2 4,-4 0,-2 -1,-4 -4,-4 -2,0 -4,2 -4,4zm1 0l0 0c0,-1 1,-3 3,-3 2,0 3,2 3,3 0,2 -1,3 -3,3 -2,0 -3,-2 -3,-3z"/>
   <path class="fil226" d="M152 585c0,2 2,4 3,4 2,0 3,-2 3,-4 0,-2 -1,-3 -3,-3 -2,0 -3,2 -3,3zm1 0l0 0c0,-1 1,-2 2,-2 1,0 2,1 2,2 0,2 -1,3 -2,3 -1,0 -2,-1 -2,-3z"/>
   <path class="fil227" d="M152 585c0,2 1,3 3,3 2,0 3,-2 3,-3 0,-1 -1,-3 -3,-3 -2,0 -3,2 -3,3zm1 0l0 0c0,-1 1,-2 2,-2 1,0 2,1 2,2 0,1 -1,2 -2,2 -1,0 -2,-1 -2,-2z"/>
   <path class="fil187" d="M153 585c0,2 1,3 2,3 1,0 2,-1 2,-3 0,-1 -1,-2 -2,-2 -1,0 -2,1 -2,2zm1 0l0 0c0,-1 0,-1 1,-1 0,0 1,1 1,1 0,1 -1,2 -1,2 -1,0 -1,-1 -1,-2z"/>
   <path class="fil197" d="M153 585c0,-1 1,-2 2,-2 1,0 2,1 2,2 0,1 -1,2 -2,2 -1,0 -2,-1 -2,-2z"/>
   <path class="fil228" d="M154 585c0,-1 0,-1 1,-1 0,0 1,1 1,1 0,1 -1,2 -1,2 -1,0 -1,-1 -1,-2z"/>
   <path class="fil53" d="M154 585c0,0 0,-1 1,-1 1,0 1,1 1,1 0,1 0,1 -1,1 -1,0 -1,0 -1,-1z"/>
   <polygon class="fil52" points="272,2406 272,2378 288,2378 288,2386 409,2303 409,2314 288,2396 288,2406 "/>
   <polygon class="fil229" points="701,2406 459,2406 459,2303 701,2303 "/>
   <polygon class="fil230" points="701,2333 459,2333 459,2303 701,2303 "/>
   <polygon class="fil230" points="701,2406 459,2406 459,2377 701,2377 "/>
   <path class="fil231" d="M97 3005c2,-1 4,-3 6,-4l0 -214 -26 0 0 220 8 0c4,-1 8,-1 12,-2z"/>
   <polygon class="fil231" points="1012,2562 1037,2562 1037,2398 1012,2398 "/>
   <path class="fil51" d="M1016 2532c-4,4 -456,349 -929,438 0,0 0,0 0,0 2,12 2,25 2,37 2,0 4,-1 5,-1 481,-91 940,-442 944,-445l-22 -29z"/>
   <path class="fil123" d="M156 392c0,32 -24,59 -53,59 -29,0 -53,-27 -53,-59 0,-32 24,-59 53,-59 29,0 53,27 53,59z"/>
   <path class="fil123" d="M118 390c-1,-3 -3,-3 -6,-3 -2,1 -3,3 -2,5 2,4 10,3 8,-3z"/>
   <path class="fil123" d="M150 392c0,23 -17,42 -38,42 -21,0 -38,-19 -38,-42 0,-24 17,-42 38,-42 21,0 38,18 38,42z"/>
   <path class="fil123" d="M121 392c0,2 -3,4 -5,4 -3,0 -5,-2 -5,-4 0,-3 2,-5 5,-5 2,0 5,3 5,5z"/>
   <path class="fil123" d="M64 390c-1,-3 -3,-3 -5,-3 -2,1 -3,3 -3,5 1,4 10,3 8,-3z"/>
   <path class="fil123" d="M69 392c0,4 -4,8 -8,8 -5,0 -8,-3 -8,-8 0,-4 4,-8 8,-8 4,0 8,3 8,8z"/>
   <path class="fil123" d="M66 392c0,2 -2,4 -5,4 -3,0 -5,-2 -5,-4 0,-3 3,-5 5,-5 3,0 5,3 5,5z"/>
   <path class="fil53" d="M156 392c0,32 -22,59 -50,59 -28,0 -50,-27 -50,-59 0,-32 22,-59 50,-59 28,0 50,27 50,59z"/>
   <path class="fil53" d="M120 390c-1,-3 -3,-3 -5,-3 -1,1 -3,3 -2,5 1,4 9,3 7,-3z"/>
   <path class="fil124" d="M59 392c0,31 25,55 55,55 31,0 55,-25 55,-55 0,-31 -25,-55 -55,-55 -30,0 -55,25 -55,55zm1 0l0 0c0,-30 24,-54 54,-54 30,0 54,24 54,54 0,30 -24,54 -54,54 -30,0 -54,-24 -54,-54z"/>
   <path class="fil125" d="M60 392c0,30 24,55 55,55 30,0 55,-25 55,-55 0,-31 -25,-55 -55,-55 -30,0 -55,24 -55,55zm1 0l0 0c0,-30 24,-54 53,-54 29,0 54,24 54,54 0,29 -24,53 -54,53 -29,0 -53,-24 -53,-53z"/>
   <path class="fil126" d="M61 392c0,30 24,54 54,54 30,0 54,-24 54,-54 0,-30 -24,-54 -54,-54 -30,0 -54,24 -54,54zm1 0l0 0c0,-29 24,-53 53,-53 29,0 53,24 53,53 0,29 -24,53 -53,53 -29,0 -53,-24 -53,-53z"/>
   <path class="fil232" d="M61 392c0,29 24,53 53,53 29,0 54,-24 54,-53 0,-30 -24,-54 -54,-54 -29,0 -53,24 -53,54zm1 0l0 0c0,-29 24,-52 52,-52 29,0 52,24 52,52 0,29 -24,52 -52,52 -29,0 -52,-24 -52,-52z"/>
   <path class="fil233" d="M62 392c0,29 24,53 53,53 29,0 53,-24 53,-53 0,-29 -24,-53 -53,-53 -29,0 -53,24 -53,53zm1 0l0 0c0,-29 23,-52 52,-52 29,0 52,23 52,52 0,29 -23,52 -52,52 -29,0 -52,-23 -52,-52z"/>
   <path class="fil129" d="M62 392c0,29 24,52 52,52 29,0 52,-24 52,-52 0,-29 -24,-52 -52,-52 -29,0 -52,24 -52,52zm1 0l0 0c0,-28 23,-51 51,-51 28,0 51,23 51,51 0,28 -23,51 -51,51 -28,0 -51,-23 -51,-51z"/>
   <path class="fil234" d="M63 392c0,29 23,52 52,52 29,0 52,-23 52,-52 0,-29 -23,-52 -52,-52 -29,0 -52,23 -52,52zm1 0l0 0c0,-28 22,-50 50,-50 28,0 50,22 50,50 0,27 -22,50 -50,50 -28,0 -50,-23 -50,-50z"/>
   <path class="fil132" d="M64 392c0,28 23,51 51,51 28,0 51,-23 51,-51 0,-28 -23,-51 -51,-51 -28,0 -51,23 -51,51zm1 0l0 0c0,-27 22,-50 50,-50 27,0 50,22 50,50 0,27 -22,50 -50,50 -27,0 -50,-22 -50,-50z"/>
   <path class="fil235" d="M64 392c0,27 22,50 50,50 28,0 50,-23 50,-50 0,-28 -22,-50 -50,-50 -28,0 -50,22 -50,50zm1 0l0 0c0,-27 22,-49 49,-49 27,0 49,22 49,49 0,27 -22,49 -49,49 -27,0 -49,-22 -49,-49z"/>
   <path class="fil134" d="M65 392c0,27 22,50 50,50 27,0 50,-22 50,-50 0,-27 -22,-50 -50,-50 -27,0 -50,22 -50,50zm1 0l0 0c0,-27 22,-48 48,-48 27,0 48,22 48,48 0,27 -22,48 -48,48 -27,0 -48,-22 -48,-48z"/>
   <path class="fil135" d="M66 392c0,27 22,49 49,49 27,0 49,-22 49,-49 0,-27 -22,-49 -49,-49 -27,0 -49,22 -49,49zm1 0l0 0c0,-27 22,-48 48,-48 26,0 48,21 48,48 0,26 -22,48 -48,48 -26,0 -48,-22 -48,-48z"/>
   <path class="fil236" d="M66 392c0,27 22,48 48,48 27,0 48,-22 48,-48 0,-27 -22,-48 -48,-48 -27,0 -48,22 -48,48zm1 0l0 0c0,-26 21,-47 47,-47 26,0 47,21 47,47 0,26 -21,47 -47,47 -26,0 -47,-21 -47,-47z"/>
   <path class="fil237" d="M67 392c0,26 22,48 48,48 26,0 48,-22 48,-48 0,-27 -22,-48 -48,-48 -26,0 -48,21 -48,48zm1 0l0 0c0,-25 21,-47 46,-47 26,0 46,21 46,47 0,25 -21,47 -46,47 -25,0 -46,-21 -46,-47z"/>
   <path class="fil138" d="M68 392c0,26 21,47 47,47 26,0 47,-21 47,-47 0,-26 -21,-47 -47,-47 -26,0 -47,21 -47,47zm1 0l0 0c0,-25 20,-46 46,-46 26,0 46,20 46,46 0,25 -20,46 -46,46 -25,0 -46,-20 -46,-46z"/>
   <path class="fil140" d="M68 392c0,25 21,47 46,47 26,0 46,-21 46,-47 0,-25 -21,-47 -46,-47 -25,0 -46,21 -46,47zm1 0l0 0c0,-25 20,-45 45,-45 25,0 45,20 45,45 0,25 -20,45 -45,45 -25,0 -45,-20 -45,-45z"/>
   <path class="fil141" d="M69 392c0,25 20,46 46,46 26,0 46,-20 46,-46 0,-25 -20,-46 -46,-46 -25,0 -46,20 -46,46zm1 0l0 0c0,-25 20,-45 45,-45 25,0 45,20 45,45 0,24 -20,45 -45,45 -25,0 -45,-20 -45,-45z"/>
   <path class="fil238" d="M69 392c0,25 20,45 45,45 25,0 45,-20 45,-45 0,-25 -20,-45 -45,-45 -25,0 -45,20 -45,45zm1 0l0 0c0,-24 20,-44 44,-44 24,0 44,20 44,44 0,24 -20,44 -44,44 -24,0 -44,-20 -44,-44z"/>
   <path class="fil143" d="M70 392c0,24 20,45 45,45 25,0 45,-20 45,-45 0,-25 -20,-45 -45,-45 -25,0 -45,20 -45,45zm1 0l0 0c0,-24 19,-43 43,-43 24,0 43,19 43,43 0,24 -20,43 -43,43 -24,0 -43,-20 -43,-43z"/>
   <path class="fil144" d="M71 392c0,24 20,44 44,44 24,0 44,-20 44,-44 0,-24 -20,-44 -44,-44 -24,0 -44,20 -44,44zm1 0l0 0c0,-24 19,-43 43,-43 24,0 43,19 43,43 0,24 -19,43 -43,43 -23,0 -43,-19 -43,-43z"/>
   <path class="fil146" d="M71 392c0,24 19,43 43,43 24,0 43,-20 43,-43 0,-24 -20,-43 -43,-43 -24,0 -43,19 -43,43zm1 0l0 0c0,-24 19,-42 42,-42 23,0 42,18 42,42 0,23 -19,42 -42,42 -23,0 -42,-19 -42,-42z"/>
   <path class="fil147" d="M72 392c0,24 19,43 43,43 24,0 43,-19 43,-43 0,-24 -19,-43 -43,-43 -23,0 -43,19 -43,43zm1 0l0 0c0,-23 18,-41 41,-41 23,0 41,18 41,41 0,23 -18,41 -41,41 -23,0 -41,-18 -41,-41z"/>
   <path class="fil239" d="M73 392c0,23 19,42 42,42 23,0 42,-19 42,-42 0,-24 -19,-42 -42,-42 -23,0 -42,18 -42,42zm1 0l0 0c0,-23 18,-41 41,-41 22,0 41,18 41,41 0,22 -18,41 -41,41 -22,0 -41,-19 -41,-41z"/>
   <path class="fil240" d="M73 392c0,23 18,41 41,41 23,0 41,-18 41,-41 0,-23 -18,-41 -41,-41 -23,0 -41,18 -41,41zm1 0l0 0c0,-22 18,-40 40,-40 22,0 40,18 40,40 0,22 -18,40 -40,40 -22,0 -40,-18 -40,-40z"/>
   <path class="fil150" d="M74 392c0,22 18,41 41,41 22,0 41,-19 41,-41 0,-23 -18,-41 -41,-41 -22,0 -41,18 -41,41zm1 0l0 0c0,-22 18,-39 40,-39 22,0 40,18 40,39 0,22 -18,39 -40,39 -22,0 -40,-18 -40,-39z"/>
   <path class="fil151" d="M75 392c0,22 18,40 40,40 22,0 40,-18 40,-40 0,-22 -18,-40 -40,-40 -22,0 -40,18 -40,40zm1 0l0 0c0,-22 17,-39 39,-39 22,0 39,17 39,39 0,21 -17,39 -39,39 -22,0 -39,-18 -39,-39z"/>
   <path class="fil241" d="M75 392c0,22 18,39 40,39 22,0 40,-18 40,-39 0,-22 -18,-39 -40,-39 -22,0 -40,18 -40,39zm1 0l0 0c0,-21 17,-38 38,-38 21,0 38,17 38,38 0,21 -17,38 -38,38 -21,0 -38,-17 -38,-38z"/>
   <path class="fil153" d="M76 392c0,21 17,39 39,39 22,0 39,-18 39,-39 0,-22 -17,-39 -39,-39 -22,0 -39,17 -39,39zm1 0l0 0c0,-21 17,-38 38,-38 20,0 38,17 38,38 0,20 -17,38 -38,38 -21,0 -38,-17 -38,-38z"/>
   <path class="fil154" d="M76 392c0,21 17,38 38,38 21,0 38,-17 38,-38 0,-21 -17,-38 -38,-38 -21,0 -38,17 -38,38zm1 0l0 0c0,-20 16,-37 37,-37 20,0 37,17 37,37 0,20 -17,37 -37,37 -20,0 -37,-17 -37,-37z"/>
   <path class="fil155" d="M77 392c0,20 17,38 38,38 20,0 38,-17 38,-38 0,-21 -17,-38 -38,-38 -21,0 -38,17 -38,38zm1 0l0 0c0,-20 16,-36 36,-36 20,0 36,16 36,36 0,20 -17,36 -36,36 -20,0 -36,-17 -36,-36z"/>
   <path class="fil156" d="M78 392c0,20 16,37 37,37 20,0 37,-17 37,-37 0,-20 -17,-37 -37,-37 -20,0 -37,17 -37,37zm1 0l0 0c0,-20 16,-36 36,-36 20,0 36,16 36,36 0,20 -16,36 -36,36 -20,0 -36,-16 -36,-36z"/>
   <path class="fil242" d="M78 392c0,20 16,36 36,36 20,0 36,-17 36,-36 0,-20 -17,-36 -36,-36 -20,0 -36,16 -36,36zm1 0l0 0c0,-20 16,-35 35,-35 19,0 35,15 35,35 0,19 -16,35 -35,35 -19,0 -35,-16 -35,-35z"/>
   <path class="fil243" d="M79 392c0,20 16,36 36,36 20,0 36,-16 36,-36 0,-20 -16,-36 -36,-36 -20,0 -36,16 -36,36zm1 0l0 0c0,-19 15,-34 34,-34 19,0 34,15 34,34 0,19 -15,34 -34,34 -19,0 -34,-15 -34,-34z"/>
   <path class="fil159" d="M80 392c0,19 16,35 35,35 19,0 35,-16 35,-35 0,-20 -16,-35 -35,-35 -19,0 -35,15 -35,35zm1 0l0 0c0,-18 15,-34 34,-34 18,0 34,15 34,34 0,18 -15,34 -34,34 -18,0 -34,-15 -34,-34z"/>
   <path class="fil160" d="M80 392c0,19 15,34 34,34 19,0 34,-15 34,-34 0,-19 -15,-34 -34,-34 -19,0 -34,15 -34,34zm1 0l0 0c0,-18 15,-33 33,-33 18,0 33,15 33,33 0,18 -15,33 -33,33 -18,0 -33,-15 -33,-33z"/>
   <path class="fil161" d="M81 392c0,18 15,34 34,34 18,0 34,-15 34,-34 0,-18 -15,-34 -34,-34 -18,0 -34,15 -34,34zm1 0l0 0c0,-18 15,-32 32,-32 18,0 33,15 33,32 0,18 -15,32 -33,32 -18,0 -32,-15 -32,-32z"/>
   <path class="fil214" d="M82 392c0,18 15,33 33,33 18,0 33,-15 33,-33 0,-18 -15,-33 -33,-33 -18,0 -33,15 -33,33zm1 0l0 0c0,-18 14,-32 32,-32 18,0 32,14 32,32 0,17 -14,32 -32,32 -18,0 -32,-15 -32,-32z"/>
   <path class="fil244" d="M82 392c0,18 15,32 32,32 18,0 33,-15 33,-32 0,-18 -15,-32 -33,-32 -18,0 -32,15 -32,32zm1 0l0 0c0,-17 14,-31 31,-31 17,0 31,14 31,31 0,17 -14,31 -31,31 -17,0 -31,-14 -31,-31z"/>
   <path class="fil164" d="M83 392c0,17 14,32 32,32 18,0 32,-15 32,-32 0,-18 -14,-32 -32,-32 -18,0 -32,14 -32,32zm1 0l0 0c0,-17 13,-31 30,-31 17,0 31,13 31,31 0,17 -14,31 -31,31 -17,0 -30,-14 -30,-31z"/>
   <path class="fil245" d="M84 392c0,17 14,31 31,31 17,0 31,-14 31,-31 0,-17 -14,-31 -31,-31 -17,0 -31,14 -31,31zm1 0l0 0c0,-17 13,-30 30,-30 17,0 30,13 30,30 0,17 -13,30 -30,30 -16,0 -30,-13 -30,-30z"/>
   <path class="fil246" d="M84 392c0,17 13,31 30,31 17,0 31,-14 31,-31 0,-17 -14,-31 -31,-31 -17,0 -30,13 -30,31zm1 0l0 0c0,-17 13,-29 29,-29 16,0 29,13 29,29 0,16 -13,29 -29,29 -16,0 -29,-13 -29,-29z"/>
   <path class="fil168" d="M85 392c0,17 13,30 30,30 17,0 30,-13 30,-30 0,-17 -13,-30 -30,-30 -16,0 -30,13 -30,30zm1 0l0 0c0,-16 13,-29 29,-29 16,0 29,13 29,29 0,16 -13,29 -29,29 -16,0 -29,-13 -29,-29z"/>
   <path class="fil168" d="M85 392c0,16 13,29 29,29 16,0 29,-13 29,-29 0,-17 -13,-29 -29,-29 -16,0 -29,13 -29,29zm1 0l0 0c0,-15 13,-28 28,-28 15,0 28,13 28,28 0,15 -13,28 -28,28 -15,0 -28,-13 -28,-28z"/>
   <path class="fil170" d="M86 392c0,16 13,29 29,29 16,0 29,-13 29,-29 0,-16 -13,-29 -29,-29 -16,0 -29,13 -29,29zm1 0l0 0c0,-15 12,-27 27,-27 15,0 27,12 27,27 0,15 -12,27 -27,27 -15,0 -27,-12 -27,-27z"/>
   <path class="fil171" d="M87 392c0,15 13,28 28,28 15,0 28,-13 28,-28 0,-15 -13,-28 -28,-28 -15,0 -28,13 -28,28zm1 0l0 0c0,-15 12,-27 27,-27 15,0 27,12 27,27 0,15 -12,27 -27,27 -15,0 -27,-12 -27,-27z"/>
   <path class="fil172" d="M87 392c0,15 12,27 27,27 15,0 27,-12 27,-27 0,-15 -12,-27 -27,-27 -15,0 -27,12 -27,27zm1 0l0 0c0,-15 11,-26 26,-26 15,0 26,11 26,26 0,14 -11,26 -26,26 -15,0 -26,-12 -26,-26z"/>
   <path class="fil247" d="M88 392c0,15 12,27 27,27 15,0 27,-12 27,-27 0,-15 -12,-27 -27,-27 -15,0 -27,12 -27,27zm1 0l0 0c0,-14 12,-25 25,-25 14,0 26,11 26,25 0,14 -12,25 -26,25 -14,0 -25,-11 -25,-25z"/>
   <path class="fil248" d="M89 392c0,14 11,26 26,26 15,0 26,-12 26,-26 0,-15 -11,-26 -26,-26 -15,0 -26,11 -26,26zm1 0l0 0c0,-14 11,-25 25,-25 13,0 25,11 25,25 0,13 -12,25 -25,25 -14,0 -25,-11 -25,-25z"/>
   <path class="fil249" d="M89 392c0,14 11,25 25,25 14,0 26,-11 26,-25 0,-14 -12,-25 -26,-25 -14,0 -25,11 -25,25zm1 0l0 0c0,-13 11,-24 24,-24 13,0 24,11 24,24 0,13 -11,24 -24,24 -13,0 -24,-11 -24,-24z"/>
   <path class="fil250" d="M90 392c0,13 11,25 25,25 13,0 25,-11 25,-25 0,-14 -11,-25 -25,-25 -14,0 -25,11 -25,25zm1 0l0 0c0,-13 10,-24 23,-24 13,0 24,10 24,24 0,13 -11,24 -24,24 -13,0 -23,-11 -23,-24z"/>
   <path class="fil178" d="M90 392c0,13 11,24 24,24 13,0 24,-11 24,-24 0,-13 -11,-24 -24,-24 -13,0 -24,11 -24,24zm1 0l0 0c0,-13 10,-23 23,-23 13,0 23,10 23,23 0,13 -10,23 -23,23 -13,0 -23,-10 -23,-23z"/>
   <path class="fil179" d="M91 392c0,13 10,24 23,24 13,0 24,-11 24,-24 0,-13 -11,-24 -24,-24 -13,0 -23,10 -23,24zm1 0l0 0c0,-13 10,-22 22,-22 12,0 22,10 22,22 0,12 -10,22 -22,22 -12,0 -22,-10 -22,-22z"/>
   <path class="fil179" d="M92 392c0,13 10,23 23,23 13,0 23,-10 23,-23 0,-13 -10,-23 -23,-23 -13,0 -23,10 -23,23zm1 0l0 0c0,-12 9,-22 22,-22 12,0 22,10 22,22 0,12 -9,22 -22,22 -12,0 -22,-10 -22,-22z"/>
   <path class="fil181" d="M92 392c0,12 10,22 22,22 12,0 22,-10 22,-22 0,-13 -10,-22 -22,-22 -12,0 -22,10 -22,22zm1 0l0 0c0,-11 10,-21 21,-21 11,0 21,10 21,21 0,12 -10,21 -21,21 -11,0 -21,-10 -21,-21z"/>
   <path class="fil251" d="M93 392c0,12 9,22 22,22 12,0 22,-10 22,-22 0,-12 -9,-22 -22,-22 -12,0 -22,10 -22,22zm1 0l0 0c0,-11 9,-20 20,-20 11,0 20,9 20,20 0,11 -9,20 -20,20 -11,0 -20,-10 -20,-20z"/>
   <path class="fil252" d="M94 392c0,12 10,21 21,21 11,0 21,-10 21,-21 0,-11 -10,-21 -21,-21 -11,0 -21,10 -21,21zm1 0l0 0c0,-11 9,-20 20,-20 11,0 20,9 20,20 0,11 -9,20 -20,20 -11,0 -20,-9 -20,-20z"/>
   <path class="fil253" d="M94 392c0,11 9,20 20,20 11,0 20,-10 20,-20 0,-11 -9,-20 -20,-20 -11,0 -20,9 -20,20zm1 0l0 0c0,-11 8,-19 19,-19 10,0 19,8 19,19 0,10 -9,19 -19,19 -11,0 -19,-9 -19,-19z"/>
   <path class="fil254" d="M95 392c0,11 9,20 20,20 11,0 20,-9 20,-20 0,-11 -9,-20 -20,-20 -11,0 -20,9 -20,20zm1 0l0 0c0,-10 8,-18 18,-18 10,0 18,8 18,18 0,10 -8,18 -18,18 -10,0 -18,-8 -18,-18z"/>
   <path class="fil255" d="M96 392c0,10 8,19 19,19 10,0 19,-9 19,-19 0,-11 -9,-19 -19,-19 -11,0 -19,8 -19,19zm1 0l0 0c0,-10 8,-18 18,-18 10,0 18,8 18,18 0,10 -8,18 -18,18 -10,0 -18,-8 -18,-18z"/>
   <path class="fil256" d="M96 392c0,10 8,18 18,18 10,0 18,-8 18,-18 0,-10 -8,-18 -18,-18 -10,0 -18,8 -18,18zm1 0l0 0c0,-10 8,-17 17,-17 10,0 17,8 17,17 0,10 -8,17 -17,17 -9,0 -17,-8 -17,-17z"/>
   <path class="fil257" d="M97 392c0,10 8,18 18,18 10,0 18,-8 18,-18 0,-10 -8,-18 -18,-18 -10,0 -18,8 -18,18zm1 0l0 0c0,-10 8,-17 16,-17 9,0 17,7 17,17 0,9 -8,17 -17,17 -9,0 -16,-8 -16,-17z"/>
   <path class="fil190" d="M97 392c0,10 8,17 17,17 10,0 17,-8 17,-17 0,-10 -8,-17 -17,-17 -9,0 -17,8 -17,17zm1 0l0 0c0,-9 7,-16 16,-16 9,0 16,7 16,16 0,9 -7,16 -16,16 -9,0 -16,-7 -16,-16z"/>
   <path class="fil94" d="M98 392c0,9 8,17 16,17 9,0 17,-8 17,-17 0,-10 -8,-17 -17,-17 -9,0 -16,7 -16,17zm1 0l0 0c0,-8 7,-15 15,-15 8,0 15,7 15,15 0,8 -7,15 -15,15 -8,0 -15,-7 -15,-15z"/>
   <path class="fil193" d="M99 392c0,9 7,16 16,16 9,0 16,-7 16,-16 0,-9 -7,-16 -16,-16 -9,0 -16,7 -16,16zm1 0l0 0c0,-8 6,-15 15,-15 8,0 15,6 15,15 0,8 -6,15 -15,15 -8,0 -15,-6 -15,-15z"/>
   <path class="fil193" d="M99 392c0,8 7,15 15,15 8,0 15,-7 15,-15 0,-8 -7,-15 -15,-15 -8,0 -15,7 -15,15zm1 0l0 0c0,-8 6,-14 14,-14 8,0 14,6 14,14 0,8 -6,14 -14,14 -8,0 -14,-6 -14,-14z"/>
   <path class="fil258" d="M100 392c0,8 6,15 15,15 8,0 15,-6 15,-15 0,-8 -6,-15 -15,-15 -8,0 -15,6 -15,15zm1 0l0 0c0,-8 6,-13 13,-13 7,0 13,6 13,13 0,7 -6,13 -13,13 -8,0 -13,-6 -13,-13z"/>
   <path class="fil259" d="M101 392c0,8 6,14 14,14 8,0 14,-6 14,-14 0,-8 -6,-14 -14,-14 -8,0 -14,6 -14,14zm1 0l0 0c0,-7 6,-13 13,-13 7,0 13,6 13,13 0,7 -6,13 -13,13 -7,0 -13,-6 -13,-13z"/>
   <path class="fil197" d="M101 392c0,7 6,13 13,13 7,0 13,-6 13,-13 0,-8 -6,-13 -13,-13 -8,0 -13,6 -13,13zm1 0l0 0c0,-7 5,-12 12,-12 6,0 12,5 12,12 0,6 -6,12 -12,12 -7,0 -12,-6 -12,-12z"/>
   <path class="fil197" d="M102 392c0,7 6,13 13,13 7,0 13,-6 13,-13 0,-7 -6,-13 -13,-13 -7,0 -13,6 -13,13zm1 0l0 0c0,-6 5,-11 11,-11 6,0 11,5 11,11 0,6 -5,12 -11,12 -6,0 -11,-5 -11,-12z"/>
   <path class="fil199" d="M103 392c0,6 5,12 12,12 6,0 12,-6 12,-12 0,-7 -6,-12 -12,-12 -7,0 -12,5 -12,12zm1 0l0 0c0,-6 5,-11 11,-11 6,0 11,4 11,11 0,6 -5,11 -11,11 -6,0 -11,-5 -11,-11z"/>
   <path class="fil200" d="M103 392c0,6 5,12 11,12 6,0 11,-5 11,-12 0,-6 -5,-11 -11,-11 -6,0 -11,5 -11,11zm1 0l0 0c0,-6 5,-10 10,-10 6,0 10,4 10,10 0,6 -4,10 -10,10 -6,0 -10,-4 -10,-10z"/>
   <path class="fil78" d="M104 392c0,6 5,11 11,11 6,0 11,-5 11,-11 0,-6 -5,-11 -11,-11 -6,0 -11,4 -11,11zm1 0l0 0c0,-5 4,-10 9,-10 5,0 10,4 10,10 0,5 -4,10 -10,10 -5,0 -9,-4 -9,-10z"/>
   <path class="fil202" d="M104 392c0,6 5,10 10,10 6,0 10,-4 10,-10 0,-6 -4,-10 -10,-10 -6,0 -10,4 -10,10zm1 0l0 0c0,-5 4,-9 9,-9 5,0 9,4 9,9 0,5 -4,9 -9,9 -5,0 -9,-4 -9,-9z"/>
   <path class="fil203" d="M105 392c0,5 4,10 9,10 5,0 10,-4 10,-10 0,-5 -4,-10 -10,-10 -5,0 -9,4 -9,10zm1 0l0 0c0,-4 4,-8 8,-8 4,0 8,4 8,8 0,4 -4,8 -8,8 -4,0 -8,-4 -8,-8z"/>
   <path class="fil204" d="M106 392c0,5 4,9 9,9 5,0 9,-4 9,-9 0,-5 -4,-9 -9,-9 -5,0 -9,4 -9,9zm1 0l0 0c0,-4 3,-8 8,-8 4,0 8,3 8,8 0,4 -3,8 -8,8 -4,0 -8,-4 -8,-8z"/>
   <path class="fil72" d="M106 392c0,4 4,8 8,8 4,0 8,-4 8,-8 0,-4 -4,-8 -8,-8 -4,0 -8,4 -8,8zm1 0l0 0c0,-4 3,-7 7,-7 4,0 7,3 7,7 0,4 -3,7 -7,7 -4,0 -7,-3 -7,-7z"/>
   <path class="fil260" d="M107 392c0,4 3,8 8,8 4,0 8,-4 8,-8 0,-4 -3,-8 -8,-8 -4,0 -8,3 -8,8zm1 0l0 0c0,-4 3,-6 6,-6 3,0 6,3 6,6 0,3 -3,6 -6,6 -4,0 -6,-3 -6,-6z"/>
   <path class="fil205" d="M108 392c0,4 3,7 7,7 4,0 7,-3 7,-7 0,-4 -3,-7 -7,-7 -4,0 -7,3 -7,7zm1 0l0 0c0,-3 2,-6 6,-6 3,0 6,3 6,6 0,3 -3,6 -6,6 -3,0 -6,-3 -6,-6z"/>
   <path class="fil206" d="M108 392c0,3 3,6 6,6 3,0 6,-3 6,-6 0,-4 -3,-6 -6,-6 -4,0 -6,3 -6,6zm1 0l0 0c0,-3 2,-5 5,-5 3,0 5,2 5,5 0,2 -3,5 -5,5 -3,0 -5,-3 -5,-5z"/>
   <path class="fil63" d="M109 392c0,3 2,6 6,6 3,0 6,-3 6,-6 0,-3 -3,-6 -6,-6 -3,0 -6,3 -6,6zm1 0l0 0c0,-3 2,-4 4,-4 3,0 4,2 4,4 0,2 -2,4 -4,4 -2,0 -4,-2 -4,-4z"/>
   <path class="fil207" d="M110 392c0,2 2,5 5,5 3,0 5,-3 5,-5 0,-3 -3,-5 -5,-5 -3,0 -5,2 -5,5zm1 0l0 0c0,-2 2,-4 4,-4 2,0 4,2 4,4 0,2 -2,4 -4,4 -2,0 -4,-2 -4,-4z"/>
   <path class="fil261" d="M110 392c0,2 2,4 4,4 3,0 4,-2 4,-4 0,-3 -2,-4 -4,-4 -2,0 -4,2 -4,4zm1 0l0 0c0,-2 1,-3 3,-3 2,0 3,1 3,3 0,2 -1,3 -3,3 -2,0 -3,-1 -3,-3z"/>
   <path class="fil209" d="M111 392c0,2 2,4 4,4 2,0 4,-2 4,-4 0,-2 -2,-4 -4,-4 -2,0 -4,2 -4,4zm1 0l0 0c0,-1 1,-3 2,-3 1,0 3,1 3,3 0,1 -1,2 -3,2 -1,0 -2,-1 -2,-2z"/>
   <path class="fil58" d="M111 392c0,2 1,3 3,3 2,0 3,-1 3,-3 0,-2 -1,-3 -3,-3 -2,0 -3,1 -3,3zm1 0l0 0c0,-1 1,-2 2,-2 1,0 2,1 2,2 0,1 -1,2 -2,2 -1,0 -2,-1 -2,-2z"/>
   <path class="fil57" d="M112 392c0,1 1,2 2,2 1,0 3,-1 3,-2 0,-1 -1,-3 -3,-3 -1,0 -2,1 -2,3zm1 0l0 0c0,-1 1,-1 1,-1 1,0 1,1 1,1 0,1 -1,1 -1,1 -1,0 -1,-1 -1,-1z"/>
   <path class="fil210" d="M113 392c0,1 1,2 2,2 1,0 2,-1 2,-2 0,-1 -1,-2 -2,-2 -1,0 -2,1 -2,2z"/>
   <path class="fil53" d="M113 392c0,1 1,1 1,1 1,0 1,-1 1,-1 0,-1 -1,-1 -1,-1 -1,0 -1,1 -1,1z"/>
   <path class="fil53" d="M114 392c0,0 0,1 1,1l1 -1c0,-1 -1,-1 -1,-1 -1,0 -1,0 -1,1z"/>
   <path class="fil262" d="M123 392c0,2 -3,4 -5,4 -3,0 -4,-2 -4,-4 0,-3 2,-5 4,-5 3,0 5,3 5,5z"/>
   <path class="fil53" d="M69 390c-1,-3 -2,-3 -5,-3 -2,1 -3,3 -3,5 2,4 9,3 8,-3z"/>
   <path class="fil124" d="M56 392c0,6 5,11 11,11 6,0 11,-5 11,-11 0,-6 -4,-11 -11,-11 -6,0 -11,4 -11,11zm1 0l0 0c0,-6 4,-10 10,-10 5,0 10,4 10,10 0,5 -4,10 -10,10 -5,0 -10,-4 -10,-10z"/>
   <path class="fil130" d="M57 392c0,6 5,10 10,10 6,0 10,-4 10,-10 0,-6 -4,-10 -10,-10 -6,0 -10,4 -10,10zm1 0l0 0c0,-5 4,-9 9,-9 5,0 9,4 9,9 0,5 -4,9 -9,9 -5,0 -9,-4 -9,-9z"/>
   <path class="fil136" d="M57 392c0,5 4,10 10,10 5,0 9,-4 9,-10 0,-6 -4,-10 -9,-10 -5,0 -10,4 -10,10zm1 0l0 0c0,-4 4,-8 8,-8 4,0 8,4 8,8 0,4 -4,8 -8,8 -4,0 -8,-4 -8,-8z"/>
   <path class="fil142" d="M58 392c0,5 4,9 9,9 5,0 9,-4 9,-9 0,-5 -4,-9 -9,-9 -5,0 -9,4 -9,9zm1 0l0 0c0,-4 3,-8 8,-8 4,0 8,3 8,8 0,4 -3,8 -8,8 -4,0 -8,-3 -8,-8z"/>
   <path class="fil148" d="M59 392c0,4 4,8 8,8 4,0 8,-4 8,-8 0,-4 -4,-8 -8,-8 -4,0 -8,4 -8,8zm1 0l0 0c0,-4 3,-7 7,-7 4,0 7,3 7,7 0,4 -3,7 -7,7 -4,0 -7,-3 -7,-7z"/>
   <path class="fil154" d="M59 392c0,4 3,8 8,8 4,0 8,-3 8,-8 0,-4 -3,-8 -8,-8 -4,0 -8,3 -8,8zm1 0l0 0c0,-4 3,-6 6,-6 4,0 6,3 6,6 0,3 -2,6 -6,6 -3,0 -6,-3 -6,-6z"/>
   <path class="fil159" d="M60 392c0,4 3,7 7,7 4,0 7,-3 7,-7 0,-4 -3,-7 -7,-7 -4,0 -7,3 -7,7zm1 0l0 0c0,-3 3,-6 6,-6 3,0 6,3 6,6 0,3 -3,6 -6,6 -3,0 -6,-3 -6,-6z"/>
   <path class="fil165" d="M61 392c0,3 3,6 6,6 4,0 6,-3 6,-6 0,-4 -2,-6 -6,-6 -3,0 -6,3 -6,6zm1 0l0 0c0,-3 3,-5 5,-5 3,0 5,2 5,5 0,2 -2,5 -5,5 -3,0 -5,-3 -5,-5z"/>
   <path class="fil171" d="M61 392c0,3 3,6 6,6 3,0 6,-3 6,-6 0,-3 -3,-6 -6,-6 -3,0 -6,3 -6,6zm1 0l0 0c0,-3 2,-4 5,-4 2,0 4,2 4,4 0,2 -2,4 -4,4 -3,0 -5,-2 -5,-4z"/>
   <path class="fil177" d="M62 392c0,2 3,5 5,5 3,0 5,-3 5,-5 0,-3 -2,-5 -5,-5 -3,0 -5,2 -5,5zm1 0l0 0c0,-3 2,-4 4,-4 2,0 4,1 4,4 0,2 -2,4 -4,4 -2,0 -4,-2 -4,-4z"/>
   <path class="fil183" d="M62 392c0,2 2,4 5,4 2,0 4,-2 4,-4 0,-3 -2,-4 -4,-4 -3,0 -5,2 -5,4zm1 0l0 0c0,-2 1,-3 3,-3 2,0 3,1 3,3 0,2 -1,3 -3,3 -2,0 -3,-1 -3,-3z"/>
   <path class="fil189" d="M63 392c0,2 2,4 4,4 2,0 4,-2 4,-4 0,-3 -2,-4 -4,-4 -2,0 -4,1 -4,4zm1 0l0 0c0,-1 1,-3 3,-3 1,0 2,1 2,3 0,1 -1,2 -2,2 -1,0 -3,-1 -3,-2z"/>
   <path class="fil195" d="M64 392c0,2 1,3 3,3 2,0 3,-1 3,-3 0,-2 -1,-3 -3,-3 -2,0 -3,1 -3,3zm1 0l0 0c0,-1 1,-2 2,-2 1,0 2,1 2,2 0,1 -1,2 -2,2 -1,0 -2,-1 -2,-2z"/>
   <path class="fil201" d="M64 392c0,1 1,2 3,2 1,0 2,-1 2,-2 0,-1 -1,-3 -2,-3 -1,0 -3,1 -3,3zm1 0l0 0c0,-1 1,-1 1,-1 1,0 1,1 1,1 0,1 -1,1 -1,1 -1,0 -1,-1 -1,-1z"/>
   <path class="fil205" d="M65 392c0,1 1,2 2,2 1,0 2,-1 2,-2 0,-1 -1,-2 -2,-2 -1,0 -2,1 -2,2z"/>
   <path class="fil209" d="M66 392c0,1 1,1 1,1 1,0 1,-1 1,-1 0,-1 -1,-1 -1,-1 -1,0 -1,1 -1,1z"/>
   <path class="fil53" d="M66 392l1 1c1,0 1,-1 1,-1 0,-1 0,-1 -1,-1 0,0 -1,0 -1,1z"/>
   <path class="fil124" d="M60 392c0,4 3,6 7,6 4,0 7,-2 7,-6 0,-4 -3,-7 -7,-7 -4,0 -7,3 -7,7zm2 0l0 0c0,-3 2,-6 5,-6 3,0 6,3 6,6 0,2 -3,5 -6,5 -3,0 -5,-3 -5,-5z"/>
   <path class="fil225" d="M61 392c0,3 3,6 6,6 3,0 6,-3 6,-6 0,-3 -3,-6 -6,-6 -3,0 -6,3 -6,6zm1 0l0 0c0,-3 2,-5 5,-5 2,0 5,3 5,5 0,2 -3,4 -5,4 -3,0 -5,-2 -5,-4z"/>
   <path class="fil146" d="M62 392c0,2 2,5 5,5 3,0 6,-3 6,-5 0,-3 -3,-6 -6,-6 -3,0 -5,3 -5,6zm1 0l0 0c0,-3 2,-4 4,-4 2,0 4,2 4,4 0,2 -1,4 -4,4 -2,0 -4,-2 -4,-4z"/>
   <path class="fil156" d="M62 392c0,2 2,4 5,4 2,0 5,-2 5,-4 0,-3 -3,-5 -5,-5 -3,0 -5,3 -5,5zm1 0l0 0c0,-2 1,-3 3,-3 2,0 3,1 3,3 0,2 -1,3 -3,3 -2,0 -3,-1 -3,-3z"/>
   <path class="fil226" d="M63 392c0,2 2,4 4,4 2,0 4,-2 4,-4 0,-3 -1,-4 -4,-4 -2,0 -4,2 -4,4zm1 0l0 0c0,-2 1,-3 3,-3 1,0 2,1 2,3 0,1 -1,2 -2,2 -1,0 -3,-1 -3,-2z"/>
   <path class="fil227" d="M64 392c0,2 1,3 3,3 2,0 3,-1 3,-3 0,-2 -1,-3 -3,-3 -2,0 -3,1 -3,3zm1 0l0 0c0,-1 1,-2 2,-2 1,0 2,1 2,2 0,1 -1,2 -2,2 -1,0 -2,-1 -2,-2z"/>
   <path class="fil187" d="M64 392c0,1 1,2 3,2 1,0 2,-1 2,-2 0,-2 -1,-3 -2,-3 -1,0 -3,1 -3,3zm1 0l0 0c0,-1 1,-1 1,-1 1,0 1,1 1,1 0,1 -1,1 -1,1 -1,0 -1,-1 -1,-1z"/>
   <path class="fil197" d="M65 392c0,1 1,2 2,2 1,0 2,-1 2,-2 0,-1 -1,-2 -2,-2 -1,0 -2,1 -2,2z"/>
   <path class="fil228" d="M66 392c0,1 1,1 1,1 1,0 1,-1 1,-1 0,-1 -1,-1 -1,-1 -1,0 -1,1 -1,1z"/>
   <path class="fil53" d="M66 392l1 1c1,0 1,-1 1,-1 0,-1 0,-1 -1,-1 0,0 -1,0 -1,1z"/>
   <path class="fil53" d="M348 126l-199 0c-54,0 -98,44 -98,98 0,54 44,98 98,98l199 0c54,0 98,-44 98,-98 0,-54 -44,-98 -98,-98z"/>
   <path class="fil263" d="M131 213c-5,0 -10,4 -10,10 0,5 4,10 10,10 5,0 10,-4 10,-10 0,-5 -4,-10 -10,-10z"/>
   <polygon class="fil231" points="28,689 143,689 143,495 28,495 "/>
   <polygon class="fil51" points="92,1437 51,1437 51,1396 60,1396 60,1428 92,1428 "/>
   <path class="fil51" d="M60 1358l-9 0 0 -77 9 0 0 77zm0 -115l0 0 -9 0 0 -77 9 0 0 77zm0 -115l0 0 -9 0 0 -77 9 0 0 77zm0 -115l0 0 -9 0 0 -77 9 0 0 77z"/>
   <polygon class="fil51" points="60,898 51,898 51,857 92,857 92,866 60,866 "/>
   <path class="fil51" d="M455 866l-81 0 0 -9 81 0 0 9zm-121 0l0 0 -81 0 0 -9 81 0 0 9zm-121 0l0 0 -81 0 0 -9 81 0 0 9z"/>
   <polygon class="fil51" points="536,866 495,866 495,857 527,857 527,825 536,825 "/>
   <polygon class="fil51" points="536,805 527,805 527,764 536,764 "/>
   <polygon class="fil51" points="536,744 527,744 527,703 568,703 568,712 536,712 "/>
   <polygon class="fil51" points="636,744 627,744 627,712 595,712 595,703 636,703 "/>
   <path class="fil51" d="M636 1362l-9 0 0 -69 9 0 0 69zm0 -103l0 0 -9 0 0 -69 9 0 0 69zm0 -103l0 0 -9 0 0 -69 9 0 0 69zm0 -103l0 0 -9 0 0 -69 9 0 0 69zm0 -103l0 0 -9 0 0 -69 9 0 0 69zm0 -103l0 0 -9 0 0 -69 9 0 0 69z"/>
   <polygon class="fil51" points="636,1437 595,1437 595,1428 627,1428 627,1396 636,1396 "/>
   <path class="fil51" d="M557 1437l-77 0 0 -9 77 0 0 9zm-116 0l0 0 -77 0 0 -9 77 0 0 9zm-116 0l0 0 -77 0 0 -9 77 0 0 9zm-116 0l0 0 -77 0 0 -9 77 0 0 9z"/>
   <polygon class="fil3" points="123,669 50,669 50,516 123,516 "/>
   <path class="fil264" d="M299 1594c-24,0 -42,10 -55,29 -13,19 -20,46 -20,80 0,70 27,106 80,106 16,0 32,-2 47,-7 15,-5 30,-10 46,-16l0 84c-31,13 -65,20 -104,20 -55,0 -98,-16 -127,-48 -29,-32 -44,-78 -44,-139 0,-38 7,-71 21,-100 14,-29 35,-51 62,-66 27,-15 58,-23 95,-23 40,0 77,9 113,26l-30 78c-14,-6 -27,-12 -41,-16 -14,-4 -28,-6 -44,-6z"/>
   <path class="fil51" d="M537 1654l-29 0 0 -78 0 -13 0 -14c-5,5 -8,8 -10,9l-16 13 -14 -17 44 -35 24 0 0 136z"/>
   <path class="fil51" d="M672 1626l-16 0 0 28 -28 0 0 -28 -58 0 0 -20 59 -88 26 0 0 85 16 0 0 22zm-44 -22l0 0 0 -23c0,-4 0,-9 0,-17 0,-7 1,-12 1,-13l-1 0c-2,5 -5,10 -8,15l-25 38 33 0z"/>
   <path class="fil51" d="M718 1634c-3,12 -9,27 -16,44l-20 0c4,-16 7,-32 9,-47l26 0 1 2z"/>
   <path class="fil51" d="M785 1517c13,0 23,3 31,9 8,6 12,14 12,24 0,7 -2,13 -6,19 -4,5 -10,10 -19,15 10,5 17,11 22,17 4,6 7,12 7,19 0,11 -4,20 -13,27 -9,7 -20,10 -34,10 -15,0 -27,-3 -35,-9 -8,-6 -13,-15 -13,-27 0,-8 2,-15 6,-21 4,-6 11,-11 20,-16 -8,-5 -13,-10 -17,-16 -3,-6 -5,-12 -5,-18 0,-10 4,-18 12,-24 8,-6 19,-9 31,-9zm-21 101l0 0c0,5 2,9 6,12 4,3 9,4 15,4 7,0 12,-2 16,-5 4,-3 5,-7 5,-12 0,-4 -2,-8 -5,-12 -4,-4 -9,-7 -17,-12 -13,6 -20,14 -20,23zm21 -80l0 0c-5,0 -9,1 -12,4 -3,3 -5,6 -5,10 0,4 1,7 4,10 2,3 7,6 13,9 6,-3 10,-6 13,-9 2,-3 4,-6 4,-10 0,-4 -2,-8 -5,-10 -3,-2 -7,-4 -12,-4z"/>
   <path class="fil51" d="M561 1882l-95 0 0 -20 34 -34c10,-10 17,-17 20,-21 3,-4 5,-8 7,-11 1,-3 2,-7 2,-11 0,-5 -2,-9 -5,-12 -3,-3 -7,-4 -12,-4 -5,0 -10,1 -15,4 -5,2 -10,6 -15,10l-16 -18c7,-6 12,-10 17,-12 4,-2 9,-4 14,-5 5,-1 11,-2 17,-2 8,0 16,2 22,5 6,3 12,7 15,13 4,6 5,12 5,19 0,6 -1,12 -3,18 -2,5 -6,11 -10,17 -5,6 -13,14 -24,25l-17 16 0 1 59 0 0 24z"/>
   <path class="fil51" d="M621 1745c13,0 23,3 31,9 8,6 12,14 12,24 0,7 -2,13 -6,19 -4,5 -10,10 -19,15 10,5 17,11 22,17 4,6 7,12 7,19 0,11 -4,20 -13,27 -9,7 -20,10 -34,10 -15,0 -27,-3 -35,-9 -8,-6 -13,-15 -13,-27 0,-8 2,-15 6,-21 4,-6 11,-11 20,-16 -8,-5 -13,-10 -17,-16 -3,-6 -5,-12 -5,-18 0,-10 4,-18 12,-24 8,-6 19,-9 31,-9zm-21 101l0 0c0,5 2,9 6,12 4,3 9,4 15,4 7,0 12,-2 16,-5 4,-3 5,-7 5,-12 0,-4 -2,-8 -5,-12 -4,-4 -9,-7 -17,-12 -13,6 -20,14 -20,23zm21 -80l0 0c-5,0 -9,1 -12,4 -3,3 -5,6 -5,10 0,4 1,7 4,10 2,3 7,6 13,9 6,-3 10,-6 13,-9 2,-3 4,-6 4,-10 0,-4 -2,-8 -5,-10 -3,-2 -7,-4 -12,-4z"/>
   <path class="fil51" d="M718 1862c-3,13 -9,27 -16,44l-20 0c4,-16 7,-32 9,-47l26 0 1 2z"/>
   <path class="fil51" d="M827 1777c0,8 -3,16 -8,22 -5,6 -12,10 -22,12l0 1c11,1 19,5 25,10 6,5 8,12 8,21 0,13 -5,23 -14,30 -9,7 -23,11 -41,11 -15,0 -28,-2 -39,-7l0 -24c5,3 11,5 17,6 6,2 13,3 19,3 9,0 16,-2 21,-5 5,-3 7,-8 7,-15 0,-6 -3,-11 -8,-14 -5,-3 -14,-4 -25,-4l-10 0 0 -22 10 0c10,0 18,-1 23,-4 5,-3 7,-7 7,-14 0,-10 -6,-15 -19,-15 -4,0 -9,1 -14,2 -5,1 -10,4 -15,8l-13 -20c12,-9 27,-13 44,-13 14,0 25,3 33,9 8,6 12,14 12,24z"/>
   <path class="fil51" d="M190 1233c11,0 19,3 26,9 6,6 10,14 10,25 0,12 -4,22 -12,29 -8,7 -19,10 -33,10 -12,0 -23,-2 -30,-6l0 -20c4,2 9,4 14,5 5,1 10,2 15,2 14,0 22,-6 22,-18 0,-11 -7,-17 -22,-17 -3,0 -6,0 -9,1 -3,1 -6,1 -8,2l-9 -5 4 -57 61 0 0 20 -40 0 -2 22 3 -1c3,-1 7,-1 12,-1z"/>
   <path class="fil51" d="M268 1288c-3,10 -7,23 -14,37l-17 0c3,-14 6,-26 8,-38l21 0 1 2z"/>
   <path class="fil51" d="M362 1248c0,20 -3,34 -10,43 -6,9 -16,14 -30,14 -13,0 -23,-5 -29,-15 -7,-10 -10,-24 -10,-43 0,-20 3,-34 10,-44 6,-9 16,-14 30,-14 13,0 23,5 29,15 7,10 10,24 10,43zm-55 0l0 0c0,14 1,24 4,30 2,6 6,9 12,9 6,0 9,-3 12,-9 2,-6 4,-16 4,-29 0,-14 -1,-24 -4,-30 -2,-6 -6,-9 -12,-9 -6,0 -10,3 -12,9 -2,6 -4,16 -4,30z"/>
   <path class="fil51" d="M687 392c0,7 -2,13 -6,18 -4,5 -10,8 -18,10l0 0c9,1 16,4 21,8 5,4 7,10 7,18 0,11 -4,19 -12,25 -8,6 -19,9 -34,9 -12,0 -23,-2 -32,-6l0 -20c4,2 9,4 14,5 5,1 10,2 16,2 8,0 14,-1 17,-4 4,-3 6,-7 6,-13 0,-5 -2,-9 -6,-11 -4,-2 -11,-3 -21,-3l-8 0 0 -18 9 0c9,0 15,-1 19,-3 4,-2 6,-6 6,-12 0,-8 -5,-13 -16,-13 -4,0 -7,1 -11,2 -4,1 -8,3 -13,6l-11 -16c10,-7 22,-11 37,-11 12,0 21,2 27,7 7,5 10,11 10,20z"/>
   <path class="fil51" d="M732 463c-3,10 -7,23 -13,37l-17 0c3,-14 6,-26 8,-38l21 0 1 2z"/>
   <polygon class="fil51" points="759,479 802,387 746,387 746,367 827,367 827,382 784,479 "/>
   <path class="fil51" d="M279 392c0,7 -2,13 -6,18 -4,5 -10,8 -18,10l0 0c9,1 16,4 21,8 5,4 7,10 7,18 0,11 -4,19 -12,25 -8,6 -19,9 -34,9 -12,0 -23,-2 -32,-6l0 -20c4,2 9,4 14,5 5,1 10,2 15,2 8,0 14,-1 17,-4 4,-3 6,-7 6,-13 0,-5 -2,-9 -6,-11 -4,-2 -11,-3 -21,-3l-8 0 0 -18 9 0c9,0 15,-1 19,-3 4,-2 6,-6 6,-12 0,-8 -5,-13 -16,-13 -4,0 -7,1 -11,2 -4,1 -8,3 -13,6l-11 -16c10,-7 22,-11 37,-11 12,0 21,2 27,7 7,5 10,11 10,20z"/>
   <path class="fil51" d="M323 463c-3,10 -7,23 -13,37l-17 0c3,-14 6,-26 8,-38l21 0 1 2z"/>
   <path class="fil51" d="M414 392c0,7 -2,13 -6,18 -4,5 -10,8 -18,10l0 0c9,1 16,4 21,8 5,4 7,10 7,18 0,11 -4,19 -12,25 -8,6 -19,9 -34,9 -12,0 -23,-2 -32,-6l0 -20c4,2 9,4 14,5 5,1 10,2 16,2 8,0 14,-1 17,-4 4,-3 6,-7 6,-13 0,-5 -2,-9 -6,-11 -4,-2 -11,-3 -21,-3l-8 0 0 -18 9 0c9,0 15,-1 19,-3 4,-2 6,-6 6,-12 0,-8 -5,-13 -16,-13 -4,0 -7,1 -11,2 -4,1 -8,3 -13,6l-11 -16c10,-7 22,-11 37,-11 12,0 21,2 27,7 7,5 10,11 10,20z"/>
   <path class="fil51" d="M836 1713l-376 0c-5,0 -8,-3 -8,-7 0,-4 4,-7 8,-7l376 0c5,0 8,3 8,7 0,4 -4,7 -8,7z"/>
   <path class="fil51" d="M277 2556c11,0 19,3 26,9 6,6 10,14 10,25 0,13 -4,22 -12,29 -8,7 -19,10 -33,10 -12,0 -23,-2 -30,-6l0 -20c4,2 9,4 14,5 5,1 10,2 15,2 14,0 22,-6 22,-18 0,-11 -7,-17 -22,-17 -3,0 -6,0 -9,1 -3,1 -6,1 -8,2l-9 -5 4 -57 61 0 0 20 -40 0 -2 22 3 -1c3,-1 7,-1 12,-1z"/>
   <path class="fil51" d="M354 2612c-3,10 -7,23 -13,37l-17 0c3,-14 6,-26 8,-38l21 0 1 2z"/>
   <path class="fil51" d="M430 2628l-24 0 0 -65 0 -11 0 -12c-4,4 -7,6 -8,8l-13 10 -11 -14 36 -29 19 0 0 112z"/>
   <path class="fil51" d="M204 2222l-24 0 0 -65 0 -11 0 -12c-4,4 -7,6 -8,8l-13 10 -11 -14 36 -29 19 0 0 112z"/>
   <path class="fil51" d="M316 2199l-13 0 0 23 -23 0 0 -23 -48 0 0 -16 49 -72 22 0 0 70 13 0 0 18zm-37 -18l0 0 0 -19c0,-3 0,-8 0,-14 0,-6 0,-10 1,-11l-1 0c-2,4 -4,8 -7,12l-21 31 27 0z"/>
   <path class="fil51" d="M354 2206c-3,10 -7,23 -13,37l-17 0c3,-14 6,-26 8,-38l21 0 1 2z"/>
   <path class="fil51" d="M409 2109c11,0 19,2 26,7 7,5 10,11 10,20 0,6 -2,11 -5,15 -3,4 -8,8 -15,12 8,4 14,9 18,14 4,5 5,10 5,16 0,9 -4,17 -11,22 -7,6 -17,8 -28,8 -12,0 -22,-3 -29,-8 -7,-5 -11,-13 -11,-22 0,-6 2,-12 5,-17 3,-5 9,-9 16,-13 -6,-4 -11,-8 -14,-13 -3,-5 -4,-10 -4,-15 0,-8 3,-14 10,-19 7,-5 15,-7 26,-7zm-17 84l0 0c0,4 2,8 5,10 3,2 7,4 13,4 6,0 10,-1 13,-4 3,-3 4,-6 4,-10 0,-3 -1,-7 -4,-10 -3,-3 -8,-6 -14,-10 -11,5 -16,11 -16,19zm17 -66l0 0c-4,0 -7,1 -10,3 -2,2 -4,5 -4,8 0,3 1,6 3,8 2,2 6,5 11,7 5,-2 9,-5 11,-7 2,-2 3,-5 3,-9 0,-4 -1,-6 -4,-8 -3,-2 -6,-3 -10,-3z"/>
  </g>
 </g>
</svg>
