<?xml version="1.0" encoding="UTF-8"?>
<!DOCTYPE svg PUBLIC "-//W3C//DTD SVG 1.1//EN" "http://www.w3.org/Graphics/SVG/1.1/DTD/svg11.dtd">
<!-- Creator: CorelDRAW X6 -->
<svg xmlns="http://www.w3.org/2000/svg" xml:space="preserve" width="2.55554in" height="1.13043in" version="1.1" style="shape-rendering:geometricPrecision; text-rendering:geometricPrecision; image-rendering:optimizeQuality; fill-rule:evenodd; clip-rule:evenodd"
viewBox="0 0 2556 1130"
 xmlns:xlink="http://www.w3.org/1999/xlink">
 <defs>
  <style type="text/css">
   <![CDATA[
    .fil155 {fill:#30302F}
    .fil156 {fill:#363332}
    .fil120 {fill:#3A3952}
    .fil118 {fill:#5DAFD4}
    .fil10 {fill:#72706C}
    .fil9 {fill:#74716B}
    .fil12 {fill:#757370}
    .fil11 {fill:#77746E}
    .fil121 {fill:#777471}
    .fil13 {fill:#787672}
    .fil122 {fill:#7A7773}
    .fil14 {fill:#7B7873}
    .fil16 {fill:#7B7A77}
    .fil15 {fill:#7C7A75}
    .fil123 {fill:#7C7B77}
    .fil17 {fill:#7E7C78}
    .fil18 {fill:#80807B}
    .fil124 {fill:#817E7B}
    .fil19 {fill:#85817C}
    .fil114 {fill:#85827D}
    .fil20 {fill:#86837E}
    .fil21 {fill:#86847F}
    .fil125 {fill:#878580}
    .fil22 {fill:#888681}
    .fil23 {fill:#8A8883}
    .fil126 {fill:#8B8883}
    .fil24 {fill:#8B8984}
    .fil26 {fill:#8B8B84}
    .fil25 {fill:#8C8884}
    .fil27 {fill:#8E8A85}
    .fil127 {fill:#8E8C86}
    .fil108 {fill:#8E8C87}
    .fil28 {fill:#8F8C86}
    .fil29 {fill:#908D89}
    .fil30 {fill:#918F8B}
    .fil31 {fill:#94908A}
    .fil101 {fill:#94918B}
    .fil32 {fill:#94918C}
    .fil128 {fill:#95928E}
    .fil33 {fill:#979590}
    .fil129 {fill:#99958F}
    .fil34 {fill:#99968F}
    .fil35 {fill:#9A9790}
    .fil36 {fill:#9B9993}
    .fil130 {fill:#9C9892}
    .fil37 {fill:#9F9B96}
    .fil39 {fill:#9F9C97}
    .fil38 {fill:#9F9D95}
    .fil7 {fill:#9F9F9A}
    .fil41 {fill:#A2A099}
    .fil40 {fill:#A39E98}
    .fil131 {fill:#A3A09B}
    .fil102 {fill:#A3A09C}
    .fil42 {fill:#A5A29F}
    .fil132 {fill:#A7A49E}
    .fil43 {fill:#A7A4A0}
    .fil44 {fill:#A9A6A1}
    .fil45 {fill:#ACA7A4}
    .fil46 {fill:#ADA9A3}
    .fil109 {fill:#ADA9A4}
    .fil47 {fill:#ADA9A6}
    .fil103 {fill:#AEAAA6}
    .fil133 {fill:#AEACA7}
    .fil48 {fill:#AFABA6}
    .fil49 {fill:#B1ADA8}
    .fil50 {fill:#B3B1AC}
    .fil134 {fill:#B5B1AC}
    .fil51 {fill:#B5B3AE}
    .fil115 {fill:#B5B3B0}
    .fil135 {fill:#B7B5B0}
    .fil52 {fill:#B8B5B1}
    .fil119 {fill:#B8DFF2}
    .fil53 {fill:#B9B6B2}
    .fil54 {fill:#B9B7B4}
    .fil55 {fill:#BCBAB5}
    .fil57 {fill:#BEBDBA}
    .fil56 {fill:#C0BCB9}
    .fil58 {fill:#C0BDBA}
    .fil136 {fill:#C0BDBB}
    .fil59 {fill:#C2BFBD}
    .fil104 {fill:#C2C0BC}
    .fil137 {fill:#C3C1BD}
    .fil138 {fill:#C4C0BE}
    .fil61 {fill:#C4C1C0}
    .fil216 {fill:#C4C3C2}
    .fil60 {fill:#C5C2BE}
    .fil139 {fill:#C5C2C1}
    .fil116 {fill:#C5C3BF}
    .fil215 {fill:#C5C4C2}
    .fil214 {fill:#C6C5C3}
    .fil62 {fill:#C7C5C1}
    .fil63 {fill:#C7C5C3}
    .fil213 {fill:#C7C6C4}
    .fil212 {fill:#C7C7C5}
    .fil211 {fill:#C8C7C5}
    .fil64 {fill:#C9C6C3}
    .fil210 {fill:#C9C8C6}
    .fil105 {fill:#CAC7C2}
    .fil65 {fill:#CAC7C4}
    .fil209 {fill:#CAC9C7}
    .fil66 {fill:#CBC8C7}
    .fil208 {fill:#CBCAC8}
    .fil207 {fill:#CBCBC9}
    .fil110 {fill:#CCC8C4}
    .fil206 {fill:#CCCBC9}
    .fil67 {fill:#CDCAC5}
    .fil140 {fill:#CDCBC8}
    .fil100 {fill:#CDCBC9}
    .fil205 {fill:#CDCCCA}
    .fil68 {fill:#CECAC7}
    .fil204 {fill:#CECDCB}
    .fil203 {fill:#CFCECC}
    .fil141 {fill:#D0CCC8}
    .fil69 {fill:#D0CDCA}
    .fil142 {fill:#D0CDCB}
    .fil70 {fill:#D0CECC}
    .fil202 {fill:#D0CFCD}
    .fil106 {fill:#D1CFCC}
    .fil143 {fill:#D1CFCD}
    .fil201 {fill:#D1D0CF}
    .fil200 {fill:#D2D1D0}
    .fil71 {fill:#D3D1CE}
    .fil199 {fill:#D3D2D1}
    .fil144 {fill:#D4D1CF}
    .fil198 {fill:#D4D2D1}
    .fil72 {fill:#D5D2CE}
    .fil197 {fill:#D5D3D2}
    .fil196 {fill:#D5D4D3}
    .fil145 {fill:#D6D3CF}
    .fil73 {fill:#D6D3D1}
    .fil195 {fill:#D6D5D4}
    .fil194 {fill:#D7D6D5}
    .fil146 {fill:#D8D5D2}
    .fil74 {fill:#D8D6D2}
    .fil193 {fill:#D8D7D5}
    .fil192 {fill:#D9D8D7}
    .fil191 {fill:#DAD9D8}
    .fil111 {fill:#DADAD5}
    .fil75 {fill:#DADAD6}
    .fil107 {fill:#DADAD8}
    .fil190 {fill:#DADAD9}
    .fil76 {fill:#DBD9D7}
    .fil147 {fill:#DBDAD9}
    .fil77 {fill:#DBDBD9}
    .fil189 {fill:#DCDBDA}
    .fil188 {fill:#DDDCDB}
    .fil79 {fill:#DEDCDB}
    .fil78 {fill:#DEDDDB}
    .fil187 {fill:#DEDDDC}
    .fil148 {fill:#DEDEDC}
    .fil186 {fill:#DFDDDC}
    .fil185 {fill:#DFDEDD}
    .fil184 {fill:#E0DFDE}
    .fil80 {fill:#E1E0DD}
    .fil183 {fill:#E1E0E0}
    .fil149 {fill:#E2E0DF}
    .fil182 {fill:#E2E1E0}
    .fil6 {fill:#E31256}
    .fil181 {fill:#E3E2E1}
    .fil81 {fill:#E4E2DE}
    .fil82 {fill:#E4E3E1}
    .fil180 {fill:#E4E3E2}
    .fil179 {fill:#E4E4E3}
    .fil83 {fill:#E5E4E2}
    .fil178 {fill:#E5E5E4}
    .fil84 {fill:#E6E5E3}
    .fil177 {fill:#E6E5E4}
    .fil112 {fill:#E7E6E3}
    .fil176 {fill:#E7E6E5}
    .fil175 {fill:#E8E7E6}
    .fil85 {fill:#E9E7E6}
    .fil86 {fill:#E9E7E7}
    .fil150 {fill:#E9E8E8}
    .fil87 {fill:#E9E9E8}
    .fil174 {fill:#EAE9E9}
    .fil173 {fill:#EBEAEA}
    .fil88 {fill:#ECEBEA}
    .fil172 {fill:#ECEBEB}
    .fil171 {fill:#EDECEB}
    .fil170 {fill:#EDEDEC}
    .fil89 {fill:#EEECEC}
    .fil90 {fill:#EEEEED}
    .fil151 {fill:#EFEFED}
    .fil169 {fill:#EFEFEE}
    .fil168 {fill:#F0F0EF}
    .fil91 {fill:#F1EFEF}
    .fil167 {fill:#F1F0F0}
    .fil117 {fill:#F1F0F1}
    .fil166 {fill:#F1F1F1}
    .fil165 {fill:#F2F2F2}
    .fil92 {fill:#F3F2F3}
    .fil113 {fill:#F3F3F2}
    .fil164 {fill:#F3F3F3}
    .fil93 {fill:#F4F4F4}
    .fil163 {fill:#F5F4F4}
    .fil152 {fill:whitesmoke}
    .fil162 {fill:#F6F6F6}
    .fil94 {fill:#F7F7F6}
    .fil161 {fill:#F7F7F7}
    .fil95 {fill:#F8F7F7}
    .fil153 {fill:#F8F8F7}
    .fil160 {fill:#F8F8F8}
    .fil96 {fill:#F8F8F9}
    .fil97 {fill:#F9F9F9}
    .fil154 {fill:#FAFAFA}
    .fil98 {fill:#FAFBFB}
    .fil99 {fill:#FAFDFE}
    .fil159 {fill:#FBFBFB}
    .fil158 {fill:#FCFCFC}
    .fil157 {fill:#FDFDFD}
    .fil8 {fill:#FEFEFE}
    .fil263 {fill:#323030;fill-rule:nonzero}
    .fil5 {fill:#3A3952;fill-rule:nonzero}
    .fil218 {fill:#646261;fill-rule:nonzero}
    .fil262 {fill:#6C6B6A;fill-rule:nonzero}
    .fil1 {fill:#B1B1B0;fill-rule:nonzero}
    .fil4 {fill:#BFE0F1;fill-rule:nonzero}
    .fil261 {fill:#C4C3C2;fill-rule:nonzero}
    .fil219 {fill:#C7C6C4;fill-rule:nonzero}
    .fil220 {fill:#C9C8C6;fill-rule:nonzero}
    .fil221 {fill:#CBCBC9;fill-rule:nonzero}
    .fil222 {fill:#CECDCB;fill-rule:nonzero}
    .fil223 {fill:#D0CFCD;fill-rule:nonzero}
    .fil224 {fill:#D2D1D0;fill-rule:nonzero}
    .fil225 {fill:#D4D3D2;fill-rule:nonzero}
    .fil226 {fill:#D6D5D4;fill-rule:nonzero}
    .fil227 {fill:#D8D7D6;fill-rule:nonzero}
    .fil228 {fill:#DAD9D8;fill-rule:nonzero}
    .fil0 {fill:#DBDBDA;fill-rule:nonzero}
    .fil229 {fill:#DCDBDA;fill-rule:nonzero}
    .fil3 {fill:#DCDCDB;fill-rule:nonzero}
    .fil230 {fill:#DEDDDC;fill-rule:nonzero}
    .fil231 {fill:#DFDEDD;fill-rule:nonzero}
    .fil232 {fill:#E1E0E0;fill-rule:nonzero}
    .fil264 {fill:#E31256;fill-rule:nonzero}
    .fil233 {fill:#E3E2E1;fill-rule:nonzero}
    .fil234 {fill:#E4E4E3;fill-rule:nonzero}
    .fil235 {fill:#E6E5E4;fill-rule:nonzero}
    .fil236 {fill:#E8E6E5;fill-rule:nonzero}
    .fil237 {fill:#E9E8E8;fill-rule:nonzero}
    .fil238 {fill:#EAE9E9;fill-rule:nonzero}
    .fil239 {fill:#EBEAEA;fill-rule:nonzero}
    .fil240 {fill:#EDECEB;fill-rule:nonzero}
    .fil241 {fill:#EDEDEC;fill-rule:nonzero}
    .fil2 {fill:#EEEDEC;fill-rule:nonzero}
    .fil242 {fill:#EFEEED;fill-rule:nonzero}
    .fil243 {fill:#F0EFEE;fill-rule:nonzero}
    .fil244 {fill:#F1F0F0;fill-rule:nonzero}
    .fil245 {fill:#F1F1F1;fill-rule:nonzero}
    .fil246 {fill:#F2F2F2;fill-rule:nonzero}
    .fil247 {fill:#F3F3F3;fill-rule:nonzero}
    .fil248 {fill:#F4F4F4;fill-rule:nonzero}
    .fil249 {fill:#F5F5F4;fill-rule:nonzero}
    .fil250 {fill:whitesmoke;fill-rule:nonzero}
    .fil251 {fill:#F6F6F6;fill-rule:nonzero}
    .fil252 {fill:#F7F7F6;fill-rule:nonzero}
    .fil253 {fill:#F8F8F8;fill-rule:nonzero}
    .fil254 {fill:#F9F8F8;fill-rule:nonzero}
    .fil255 {fill:#F9F9F9;fill-rule:nonzero}
    .fil256 {fill:#FAFAFA;fill-rule:nonzero}
    .fil257 {fill:#FBFBFB;fill-rule:nonzero}
    .fil258 {fill:#FCFCFC;fill-rule:nonzero}
    .fil259 {fill:#FDFCFC;fill-rule:nonzero}
    .fil260 {fill:#FDFDFD;fill-rule:nonzero}
    .fil217 {fill:#FEFEFE;fill-rule:nonzero}
   ]]>
  </style>
 </defs>
 <g id="ﾃ神x00a1_ﾃ神x00bb_ﾃ神x00be_ﾃ神x00b9__x0020_1">
  <metadata id="CorelCorpID_0Corel-Layer"/>
  <g id="_318301888">
   <polygon class="fil0" points="96,621 36,621 36,681 96,681 "/>
   <path class="fil1" d="M34 619l64 0 0 64 -64 0 0 -64zm4 60l0 0 56 0 0 -56 -56 0 0 56z"/>
   <polygon class="fil0" points="155,621 95,621 95,681 155,681 "/>
   <path class="fil1" d="M93 619l64 0 0 64 -64 0 0 -64zm4 60l0 0 56 0 0 -56 -56 0 0 56z"/>
   <polygon class="fil0" points="214,621 154,621 154,681 214,681 "/>
   <path class="fil1" d="M152 619l64 0 0 64 -64 0 0 -64zm4 60l0 0 56 0 0 -56 -56 0 0 56z"/>
   <polygon class="fil2" points="96,561 36,561 36,621 96,621 "/>
   <path class="fil1" d="M34 559l64 0 0 64 -64 0 0 -64zm4 60l0 0 56 0 0 -56 -56 0 0 56z"/>
   <polygon class="fil0" points="155,561 95,561 95,621 155,621 "/>
   <path class="fil1" d="M93 559l64 0 0 64 -64 0 0 -64zm4 60l0 0 56 0 0 -56 -56 0 0 56z"/>
   <polygon class="fil2" points="214,561 154,561 154,621 214,621 "/>
   <path class="fil1" d="M152 559l64 0 0 64 -64 0 0 -64zm4 60l0 0 56 0 0 -56 -56 0 0 56z"/>
   <polygon class="fil2" points="96,680 36,680 36,740 96,740 "/>
   <path class="fil1" d="M34 678l64 0 0 64 -64 0 0 -64zm4 60l0 0 56 0 0 -56 -56 0 0 56z"/>
   <polygon class="fil0" points="155,680 95,680 95,740 155,740 "/>
   <path class="fil1" d="M93 678l64 0 0 64 -64 0 0 -64zm4 60l0 0 56 0 0 -56 -56 0 0 56z"/>
   <polygon class="fil2" points="214,680 154,680 154,740 214,740 "/>
   <path class="fil1" d="M152 678l64 0 0 64 -64 0 0 -64zm4 60l0 0 56 0 0 -56 -56 0 0 56z"/>
   <polygon class="fil0" points="96,800 36,800 36,860 96,860 "/>
   <path class="fil1" d="M34 798l64 0 0 64 -64 0 0 -64zm4 60l0 0 56 0 0 -56 -56 0 0 56z"/>
   <polygon class="fil0" points="155,800 95,800 95,860 155,860 "/>
   <path class="fil1" d="M93 798l64 0 0 64 -64 0 0 -64zm4 60l0 0 56 0 0 -56 -56 0 0 56z"/>
   <polygon class="fil0" points="214,800 154,800 154,860 214,860 "/>
   <path class="fil1" d="M152 798l64 0 0 64 -64 0 0 -64zm4 60l0 0 56 0 0 -56 -56 0 0 56z"/>
   <polygon class="fil2" points="96,740 36,740 36,800 96,800 "/>
   <path class="fil1" d="M34 738l64 0 0 64 -64 0 0 -64zm4 60l0 0 56 0 0 -56 -56 0 0 56z"/>
   <polygon class="fil0" points="155,740 95,740 95,800 155,800 "/>
   <path class="fil1" d="M93 738l64 0 0 64 -64 0 0 -64zm4 60l0 0 56 0 0 -56 -56 0 0 56z"/>
   <polygon class="fil2" points="214,740 154,740 154,800 214,800 "/>
   <path class="fil1" d="M152 738l64 0 0 64 -64 0 0 -64zm4 60l0 0 56 0 0 -56 -56 0 0 56z"/>
   <polygon class="fil0" points="274,621 214,621 214,681 274,681 "/>
   <path class="fil1" d="M212 619l64 0 0 64 -64 0 0 -64zm4 60l0 0 56 0 0 -56 -56 0 0 56z"/>
   <polygon class="fil0" points="333,621 273,621 273,681 333,681 "/>
   <path class="fil1" d="M271 619l64 0 0 64 -64 0 0 -64zm4 60l0 0 56 0 0 -56 -56 0 0 56z"/>
   <polygon class="fil0" points="393,621 333,621 333,681 393,681 "/>
   <path class="fil1" d="M331 619l64 0 0 64 -64 0 0 -64zm4 60l0 0 56 0 0 -56 -56 0 0 56z"/>
   <polygon class="fil0" points="452,621 392,621 392,681 452,681 "/>
   <path class="fil1" d="M390 619l64 0 0 64 -64 0 0 -64zm4 60l0 0 56 0 0 -56 -56 0 0 56z"/>
   <polygon class="fil0" points="512,621 452,621 452,681 512,681 "/>
   <path class="fil1" d="M450 619l64 0 0 64 -64 0 0 -64zm4 60l0 0 56 0 0 -56 -56 0 0 56z"/>
   <polygon class="fil0" points="571,621 511,621 511,681 571,681 "/>
   <path class="fil1" d="M509 619l64 0 0 64 -64 0 0 -64zm4 60l0 0 56 0 0 -56 -56 0 0 56z"/>
   <polygon class="fil0" points="630,621 570,621 570,681 630,681 "/>
   <path class="fil1" d="M568 619l64 0 0 64 -64 0 0 -64zm4 60l0 0 56 0 0 -56 -56 0 0 56z"/>
   <polygon class="fil0" points="274,561 214,561 214,621 274,621 "/>
   <path class="fil1" d="M212 559l64 0 0 64 -64 0 0 -64zm4 60l0 0 56 0 0 -56 -56 0 0 56z"/>
   <polygon class="fil2" points="333,561 273,561 273,621 333,621 "/>
   <path class="fil1" d="M271 559l64 0 0 64 -64 0 0 -64zm4 60l0 0 56 0 0 -56 -56 0 0 56z"/>
   <polygon class="fil0" points="393,561 333,561 333,621 393,621 "/>
   <path class="fil1" d="M331 559l64 0 0 64 -64 0 0 -64zm4 60l0 0 56 0 0 -56 -56 0 0 56z"/>
   <polygon class="fil2" points="452,561 392,561 392,621 452,621 "/>
   <path class="fil1" d="M390 559l64 0 0 64 -64 0 0 -64zm4 60l0 0 56 0 0 -56 -56 0 0 56z"/>
   <polygon class="fil0" points="512,561 452,561 452,621 512,621 "/>
   <path class="fil1" d="M450 559l64 0 0 64 -64 0 0 -64zm4 60l0 0 56 0 0 -56 -56 0 0 56z"/>
   <polygon class="fil2" points="571,561 511,561 511,621 571,621 "/>
   <path class="fil1" d="M509 559l64 0 0 64 -64 0 0 -64zm4 60l0 0 56 0 0 -56 -56 0 0 56z"/>
   <polygon class="fil0" points="630,561 570,561 570,621 630,621 "/>
   <path class="fil1" d="M568 559l64 0 0 64 -64 0 0 -64zm4 60l0 0 56 0 0 -56 -56 0 0 56z"/>
   <polygon class="fil0" points="274,680 214,680 214,740 274,740 "/>
   <path class="fil1" d="M212 678l64 0 0 64 -64 0 0 -64zm4 60l0 0 56 0 0 -56 -56 0 0 56z"/>
   <polygon class="fil2" points="333,680 273,680 273,740 333,740 "/>
   <path class="fil1" d="M271 678l64 0 0 64 -64 0 0 -64zm4 60l0 0 56 0 0 -56 -56 0 0 56z"/>
   <polygon class="fil0" points="393,680 333,680 333,740 393,740 "/>
   <path class="fil1" d="M331 678l64 0 0 64 -64 0 0 -64zm4 60l0 0 56 0 0 -56 -56 0 0 56z"/>
   <polygon class="fil2" points="452,680 392,680 392,740 452,740 "/>
   <path class="fil1" d="M390 678l64 0 0 64 -64 0 0 -64zm4 60l0 0 56 0 0 -56 -56 0 0 56z"/>
   <polygon class="fil0" points="512,680 452,680 452,740 512,740 "/>
   <path class="fil1" d="M450 678l64 0 0 64 -64 0 0 -64zm4 60l0 0 56 0 0 -56 -56 0 0 56z"/>
   <polygon class="fil2" points="571,680 511,680 511,740 571,740 "/>
   <path class="fil1" d="M509 678l64 0 0 64 -64 0 0 -64zm4 60l0 0 56 0 0 -56 -56 0 0 56z"/>
   <polygon class="fil0" points="630,680 570,680 570,740 630,740 "/>
   <path class="fil1" d="M568 678l64 0 0 64 -64 0 0 -64zm4 60l0 0 56 0 0 -56 -56 0 0 56z"/>
   <polygon class="fil0" points="274,800 214,800 214,860 274,860 "/>
   <path class="fil1" d="M212 798l64 0 0 64 -64 0 0 -64zm4 60l0 0 56 0 0 -56 -56 0 0 56z"/>
   <polygon class="fil0" points="333,800 273,800 273,860 333,860 "/>
   <path class="fil1" d="M271 798l64 0 0 64 -64 0 0 -64zm4 60l0 0 56 0 0 -56 -56 0 0 56z"/>
   <polygon class="fil0" points="393,800 333,800 333,860 393,860 "/>
   <path class="fil1" d="M331 798l64 0 0 64 -64 0 0 -64zm4 60l0 0 56 0 0 -56 -56 0 0 56z"/>
   <polygon class="fil0" points="452,800 392,800 392,860 452,860 "/>
   <path class="fil1" d="M390 798l64 0 0 64 -64 0 0 -64zm4 60l0 0 56 0 0 -56 -56 0 0 56z"/>
   <polygon class="fil0" points="512,800 452,800 452,860 512,860 "/>
   <path class="fil1" d="M450 798l64 0 0 64 -64 0 0 -64zm4 60l0 0 56 0 0 -56 -56 0 0 56z"/>
   <polygon class="fil0" points="571,800 511,800 511,860 571,860 "/>
   <path class="fil1" d="M509 798l64 0 0 64 -64 0 0 -64zm4 60l0 0 56 0 0 -56 -56 0 0 56z"/>
   <polygon class="fil0" points="630,800 570,800 570,860 630,860 "/>
   <path class="fil1" d="M568 798l64 0 0 64 -64 0 0 -64zm4 60l0 0 56 0 0 -56 -56 0 0 56z"/>
   <polygon class="fil0" points="274,740 214,740 214,800 274,800 "/>
   <path class="fil1" d="M212 738l64 0 0 64 -64 0 0 -64zm4 60l0 0 56 0 0 -56 -56 0 0 56z"/>
   <polygon class="fil2" points="333,740 273,740 273,800 333,800 "/>
   <path class="fil1" d="M271 738l64 0 0 64 -64 0 0 -64zm4 60l0 0 56 0 0 -56 -56 0 0 56z"/>
   <polygon class="fil0" points="393,740 333,740 333,800 393,800 "/>
   <path class="fil1" d="M331 738l64 0 0 64 -64 0 0 -64zm4 60l0 0 56 0 0 -56 -56 0 0 56z"/>
   <polygon class="fil2" points="452,740 392,740 392,800 452,800 "/>
   <path class="fil1" d="M390 738l64 0 0 64 -64 0 0 -64zm4 60l0 0 56 0 0 -56 -56 0 0 56z"/>
   <polygon class="fil0" points="512,740 452,740 452,800 512,800 "/>
   <path class="fil1" d="M450 738l64 0 0 64 -64 0 0 -64zm4 60l0 0 56 0 0 -56 -56 0 0 56z"/>
   <polygon class="fil2" points="571,740 511,740 511,800 571,800 "/>
   <path class="fil1" d="M509 738l64 0 0 64 -64 0 0 -64zm4 60l0 0 56 0 0 -56 -56 0 0 56z"/>
   <polygon class="fil0" points="630,740 570,740 570,800 630,800 "/>
   <path class="fil1" d="M568 738l64 0 0 64 -64 0 0 -64zm4 60l0 0 56 0 0 -56 -56 0 0 56z"/>
   <polygon class="fil2" points="96,860 36,860 36,920 96,920 "/>
   <path class="fil1" d="M34 858l64 0 0 64 -64 0 0 -64zm4 60l0 0 56 0 0 -56 -56 0 0 56z"/>
   <polygon class="fil0" points="155,860 95,860 95,920 155,920 "/>
   <path class="fil1" d="M93 858l64 0 0 64 -64 0 0 -64zm4 60l0 0 56 0 0 -56 -56 0 0 56z"/>
   <polygon class="fil2" points="214,860 154,860 154,920 214,920 "/>
   <path class="fil1" d="M152 858l64 0 0 64 -64 0 0 -64zm4 60l0 0 56 0 0 -56 -56 0 0 56z"/>
   <polygon class="fil0" points="96,980 36,980 36,1040 96,1040 "/>
   <path class="fil1" d="M34 978l64 0 0 64 -64 0 0 -64zm4 60l0 0 56 0 0 -56 -56 0 0 56z"/>
   <polygon class="fil0" points="155,980 95,980 95,1040 155,1040 "/>
   <path class="fil1" d="M93 978l64 0 0 64 -64 0 0 -64zm4 60l0 0 56 0 0 -56 -56 0 0 56z"/>
   <polygon class="fil0" points="214,980 154,980 154,1040 214,1040 "/>
   <path class="fil1" d="M152 978l64 0 0 64 -64 0 0 -64zm4 60l0 0 56 0 0 -56 -56 0 0 56z"/>
   <polygon class="fil2" points="96,920 36,920 36,980 96,980 "/>
   <path class="fil1" d="M34 918l64 0 0 64 -64 0 0 -64zm4 60l0 0 56 0 0 -56 -56 0 0 56z"/>
   <polygon class="fil0" points="155,920 95,920 95,980 155,980 "/>
   <path class="fil1" d="M93 918l64 0 0 64 -64 0 0 -64zm4 60l0 0 56 0 0 -56 -56 0 0 56z"/>
   <polygon class="fil2" points="214,920 154,920 154,980 214,980 "/>
   <path class="fil1" d="M152 918l64 0 0 64 -64 0 0 -64zm4 60l0 0 56 0 0 -56 -56 0 0 56z"/>
   <polygon class="fil0" points="274,860 214,860 214,920 274,920 "/>
   <path class="fil1" d="M212 858l64 0 0 64 -64 0 0 -64zm4 60l0 0 56 0 0 -56 -56 0 0 56z"/>
   <polygon class="fil2" points="333,860 273,860 273,920 333,920 "/>
   <path class="fil1" d="M271 858l64 0 0 64 -64 0 0 -64zm4 60l0 0 56 0 0 -56 -56 0 0 56z"/>
   <polygon class="fil0" points="393,860 333,860 333,920 393,920 "/>
   <path class="fil1" d="M331 858l64 0 0 64 -64 0 0 -64zm4 60l0 0 56 0 0 -56 -56 0 0 56z"/>
   <polygon class="fil2" points="452,860 392,860 392,920 452,920 "/>
   <path class="fil1" d="M390 858l64 0 0 64 -64 0 0 -64zm4 60l0 0 56 0 0 -56 -56 0 0 56z"/>
   <polygon class="fil0" points="512,860 452,860 452,920 512,920 "/>
   <path class="fil1" d="M450 858l64 0 0 64 -64 0 0 -64zm4 60l0 0 56 0 0 -56 -56 0 0 56z"/>
   <polygon class="fil2" points="571,860 511,860 511,920 571,920 "/>
   <path class="fil1" d="M509 858l64 0 0 64 -64 0 0 -64zm4 60l0 0 56 0 0 -56 -56 0 0 56z"/>
   <polygon class="fil0" points="630,860 570,860 570,920 630,920 "/>
   <path class="fil1" d="M568 858l64 0 0 64 -64 0 0 -64zm4 60l0 0 56 0 0 -56 -56 0 0 56z"/>
   <polygon class="fil0" points="274,980 214,980 214,1040 274,1040 "/>
   <path class="fil1" d="M212 978l64 0 0 64 -64 0 0 -64zm4 60l0 0 56 0 0 -56 -56 0 0 56z"/>
   <polygon class="fil0" points="333,980 273,980 273,1040 333,1040 "/>
   <path class="fil1" d="M271 978l64 0 0 64 -64 0 0 -64zm4 60l0 0 56 0 0 -56 -56 0 0 56z"/>
   <polygon class="fil0" points="393,980 333,980 333,1040 393,1040 "/>
   <path class="fil1" d="M331 978l64 0 0 64 -64 0 0 -64zm4 60l0 0 56 0 0 -56 -56 0 0 56z"/>
   <polygon class="fil0" points="452,980 392,980 392,1040 452,1040 "/>
   <path class="fil1" d="M390 978l64 0 0 64 -64 0 0 -64zm4 60l0 0 56 0 0 -56 -56 0 0 56z"/>
   <polygon class="fil0" points="512,980 452,980 452,1040 512,1040 "/>
   <path class="fil1" d="M450 978l64 0 0 64 -64 0 0 -64zm4 60l0 0 56 0 0 -56 -56 0 0 56z"/>
   <polygon class="fil0" points="571,980 511,980 511,1040 571,1040 "/>
   <path class="fil1" d="M509 978l64 0 0 64 -64 0 0 -64zm4 60l0 0 56 0 0 -56 -56 0 0 56z"/>
   <polygon class="fil0" points="630,980 570,980 570,1040 630,1040 "/>
   <path class="fil1" d="M568 978l64 0 0 64 -64 0 0 -64zm4 60l0 0 56 0 0 -56 -56 0 0 56z"/>
   <polygon class="fil0" points="274,920 214,920 214,980 274,980 "/>
   <path class="fil1" d="M212 918l64 0 0 64 -64 0 0 -64zm4 60l0 0 56 0 0 -56 -56 0 0 56z"/>
   <polygon class="fil2" points="333,920 273,920 273,980 333,980 "/>
   <path class="fil1" d="M271 918l64 0 0 64 -64 0 0 -64zm4 60l0 0 56 0 0 -56 -56 0 0 56z"/>
   <polygon class="fil0" points="393,920 333,920 333,980 393,980 "/>
   <path class="fil1" d="M331 918l64 0 0 64 -64 0 0 -64zm4 60l0 0 56 0 0 -56 -56 0 0 56z"/>
   <polygon class="fil2" points="452,920 392,920 392,980 452,980 "/>
   <path class="fil1" d="M390 918l64 0 0 64 -64 0 0 -64zm4 60l0 0 56 0 0 -56 -56 0 0 56z"/>
   <polygon class="fil0" points="512,920 452,920 452,980 512,980 "/>
   <path class="fil1" d="M450 918l64 0 0 64 -64 0 0 -64zm4 60l0 0 56 0 0 -56 -56 0 0 56z"/>
   <polygon class="fil2" points="571,920 511,920 511,980 571,980 "/>
   <path class="fil1" d="M509 918l64 0 0 64 -64 0 0 -64zm4 60l0 0 56 0 0 -56 -56 0 0 56z"/>
   <polygon class="fil0" points="630,920 570,920 570,980 630,980 "/>
   <path class="fil1" d="M568 918l64 0 0 64 -64 0 0 -64zm4 60l0 0 56 0 0 -56 -56 0 0 56z"/>
   <polygon class="fil3" points="782,561 618,561 618,1040 782,1040 "/>
   <path class="fil4" d="M789 552c-10,0 -18,8 -18,18l0 455c0,10 8,18 18,18l169 0c10,0 18,-8 18,-18l0 -455c0,-10 -8,-18 -18,-18l-169 0z"/>
   <polygon class="fil5" points="0,1130 0,1028 2228,1028 2228,1130 "/>
   <polygon class="fil5" points="2283,1130 2180,1130 2180,768 2283,768 "/>
   <polygon class="fil5" points="2251,340 2180,340 2180,-16 2251,-16 "/>
   <polygon class="fil5" points="608,549 635,549 635,951 608,951 "/>
   <polygon class="fil5" points="608,303 635,303 635,353 608,353 "/>
   <polygon class="fil5" points="608,45 635,45 635,94 608,94 "/>
   <polygon class="fil5" points="778,573 427,573 427,549 778,549 "/>
   <polygon class="fil5" points="952,353 609,353 609,327 952,327 "/>
   <polygon class="fil5" points="778,951 608,951 608,924 778,924 "/>
   <polygon class="fil5" points="269,573 26,573 26,549 269,549 "/>
   <polygon class="fil5" points="765,327 791,327 791,1039 765,1039 "/>
   <polygon class="fil6" points="8,107 40,107 40,125 29,125 147,320 137,320 19,125 8,125 "/>
   <polygon class="fil6" points="605,94 637,94 637,112 626,112 729,281 719,281 616,112 605,112 "/>
   <polygon class="fil6" points="427,575 427,546 409,546 409,556 277,485 277,494 409,565 409,575 "/>
   <polygon class="fil5" points="52,342 0,342 0,1080 52,1080 "/>
   <polygon class="fil5" points="26,1080 1973,1080 1973,1028 26,1028 "/>
   <polygon class="fil5" points="0,67 2238,67 2238,15 0,15 "/>
   <polygon class="fil5" points="51,107 0,107 0,15 51,15 "/>
   <path class="fil7" d="M553 929l-80 0c-3,0 -5,-2 -5,-5l0 -31c0,-4 4,-6 8,-8 -4,-19 -4,-42 -4,-53 0,-30 19,-50 43,-50 24,0 44,20 44,50 0,11 -3,34 -7,53 3,2 6,5 6,8l0 31c0,3 -2,5 -5,5z"/>
   <path class="fil7" d="M514 869c-20,0 -35,-18 -35,-39 0,-22 16,-39 35,-39 20,0 35,17 35,39 0,21 -16,39 -35,39z"/>
   <path class="fil7" d="M553 933l-80 0c-3,0 -5,-3 -5,-5l0 -34c0,-7 14,-11 17,-11l57 0c5,0 16,4 16,11l0 34c0,3 -2,5 -5,5z"/>
   <path class="fil7" d="M504 830c-1,-1 -1,-2 -1,-3 0,-8 5,-15 11,-15 6,0 12,6 12,15 0,1 -1,2 -1,3l-22 0z"/>
   <path class="fil7" d="M482 902c-2,0 -3,2 -3,4 1,2 3,3 5,3 4,-2 3,-8 -2,-7z"/>
   <path class="fil7" d="M483 897c4,0 7,3 7,7 0,4 -3,7 -7,7 -4,0 -7,-4 -7,-7 0,-4 3,-7 7,-7z"/>
   <path class="fil7" d="M483 900c2,0 4,2 4,4 0,3 -2,4 -4,4 -3,0 -4,-2 -4,-4 0,-3 2,-4 4,-4z"/>
   <path class="fil8" d="M553 923l-80 0c-3,0 -5,-2 -5,-5l0 -30c0,-3 4,-5 8,-7 -4,-19 -4,-41 -4,-52 0,-28 19,-48 43,-48 24,0 44,20 44,48 0,11 -3,33 -7,52 3,2 6,4 6,7l0 30c0,3 -2,5 -5,5z"/>
   <path class="fil9" d="M514 880c29,0 51,-23 51,-52 0,-28 -23,-51 -51,-51 -28,0 -51,23 -51,51 0,29 23,52 51,52zm0 -1l0 0c-28,0 -50,-23 -50,-51 0,-27 23,-50 50,-50 28,0 50,23 50,50 0,28 -22,51 -50,51z"/>
   <path class="fil10" d="M514 879c28,0 51,-23 51,-51 0,-28 -23,-51 -51,-51 -28,0 -51,23 -51,51 0,29 23,51 51,51zm0 -1l0 0c-28,0 -50,-23 -50,-50 0,-27 22,-50 50,-50 27,0 50,22 50,50 0,28 -22,50 -50,50z"/>
   <path class="fil11" d="M514 878c28,0 50,-23 50,-51 0,-27 -22,-50 -50,-50 -28,0 -50,23 -50,50 0,28 23,51 50,51zm0 -1l0 0c-27,0 -49,-22 -49,-50 0,-27 22,-49 49,-49 27,0 49,22 49,49 0,28 -22,50 -49,50z"/>
   <path class="fil12" d="M514 878c27,0 50,-23 50,-50 0,-27 -22,-50 -50,-50 -28,0 -50,22 -50,50 0,28 22,50 50,50zm0 -1l0 0c-27,0 -49,-22 -49,-49 0,-26 22,-49 49,-49 27,0 49,22 49,49 0,27 -22,49 -49,49z"/>
   <path class="fil13" d="M514 877c27,0 49,-22 49,-50 0,-27 -22,-49 -49,-49 -27,0 -49,22 -49,49 0,28 22,50 49,50zm0 -1l0 0c-26,0 -48,-22 -48,-49 0,-26 22,-48 48,-48 27,0 48,22 48,48 0,27 -21,49 -48,49z"/>
   <path class="fil14" d="M514 877c27,0 49,-22 49,-49 0,-26 -22,-49 -49,-49 -27,0 -49,22 -49,49 0,27 22,49 49,49zm0 -1l0 0c-26,0 -48,-22 -48,-48 0,-26 22,-48 48,-48 26,0 48,22 48,48 0,26 -21,48 -48,48z"/>
   <path class="fil15" d="M514 876c27,0 48,-22 48,-49 0,-26 -21,-48 -48,-48 -26,0 -48,22 -48,48 0,27 22,49 48,49zm0 -1l0 0c-26,0 -47,-21 -47,-48 0,-26 21,-47 47,-47 26,0 47,21 47,47 0,26 -21,48 -47,48z"/>
   <path class="fil16" d="M514 876c26,0 48,-22 48,-48 0,-26 -21,-48 -48,-48 -26,0 -48,22 -48,48 0,26 22,48 48,48zm0 -1l0 0c-25,0 -47,-21 -47,-47 0,-25 21,-46 47,-46 26,0 46,21 46,46 0,26 -21,47 -46,47z"/>
   <path class="fil17" d="M514 875c26,0 47,-21 47,-48 0,-26 -21,-47 -47,-47 -26,0 -47,21 -47,47 0,26 21,48 47,48zm0 -1l0 0c-25,0 -46,-21 -46,-46 0,-25 21,-46 46,-46 25,0 46,21 46,46 0,26 -21,46 -46,46z"/>
   <path class="fil18" d="M514 875c26,0 46,-21 46,-47 0,-25 -21,-46 -46,-46 -25,0 -47,21 -47,46 0,26 21,47 47,47zm0 -1l0 0c-25,0 -45,-21 -45,-46 0,-25 21,-45 45,-45 25,0 45,21 45,45 0,25 -20,46 -45,46z"/>
   <path class="fil19" d="M514 874c25,0 46,-21 46,-46 0,-25 -21,-46 -46,-46 -25,0 -46,21 -46,46 0,26 21,46 46,46zm0 -1l0 0c-25,0 -45,-21 -45,-45 0,-25 20,-45 45,-45 25,0 45,20 45,45 0,25 -20,45 -45,45z"/>
   <path class="fil20" d="M514 874c25,0 45,-21 45,-46 0,-25 -20,-45 -45,-45 -25,0 -45,21 -45,45 0,25 21,46 45,46zm0 -1l0 0c-24,0 -44,-20 -44,-45 0,-24 20,-44 44,-44 25,0 44,20 44,44 0,25 -20,45 -44,45z"/>
   <path class="fil21" d="M514 873c25,0 45,-21 45,-45 0,-25 -20,-45 -45,-45 -25,0 -45,20 -45,45 0,25 20,45 45,45zm0 -1l0 0c-24,0 -44,-20 -44,-44 0,-24 20,-44 44,-44 24,0 44,20 44,44 0,24 -20,44 -44,44z"/>
   <path class="fil22" d="M514 873c25,0 44,-20 44,-45 0,-24 -20,-44 -44,-44 -24,0 -44,20 -44,44 0,25 20,45 44,45zm0 -1l0 0c-24,0 -43,-20 -43,-44 0,-24 20,-43 43,-43 24,0 43,20 43,43 0,24 -19,44 -43,44z"/>
   <path class="fil23" d="M514 872c24,0 44,-20 44,-44 0,-24 -20,-44 -44,-44 -24,0 -44,20 -44,44 0,24 20,44 44,44zm0 -1l0 0c-23,0 -43,-20 -43,-43 0,-23 20,-43 43,-43 24,0 43,20 43,43 0,24 -19,43 -43,43z"/>
   <path class="fil24" d="M514 872c24,0 43,-20 43,-44 0,-24 -19,-43 -43,-43 -24,0 -43,20 -43,43 0,24 20,44 43,44zm0 -1l0 0c-23,0 -42,-19 -42,-43 0,-23 19,-42 42,-42 24,0 42,19 42,42 0,24 -19,43 -42,43z"/>
   <path class="fil25" d="M514 871c24,0 43,-20 43,-43 0,-23 -19,-43 -43,-43 -23,0 -43,20 -43,43 0,24 20,43 43,43zm0 -1l0 0c-23,0 -42,-19 -42,-42 0,-23 19,-42 42,-42 23,0 42,19 42,42 0,23 -19,42 -42,42z"/>
   <path class="fil26" d="M514 871c24,0 42,-19 42,-43 0,-23 -19,-42 -42,-42 -23,0 -42,19 -42,42 0,24 19,43 42,43zm0 -1l0 0c-23,0 -41,-19 -41,-42 0,-23 18,-41 41,-41 23,0 41,18 41,41 0,23 -18,42 -41,42z"/>
   <path class="fil27" d="M514 870c23,0 42,-19 42,-42 0,-23 -19,-42 -42,-42 -23,0 -42,19 -42,42 0,23 19,42 42,42zm0 -1l0 0c-22,0 -41,-19 -41,-41 0,-22 18,-41 41,-41 23,0 41,18 41,41 0,23 -18,41 -41,41z"/>
   <path class="fil28" d="M514 869c23,0 41,-19 41,-42 0,-23 -18,-41 -41,-41 -23,0 -41,19 -41,41 0,23 18,42 41,42zm0 -1l0 0c-22,0 -40,-19 -40,-41 0,-22 18,-40 40,-40 22,0 40,18 40,40 0,22 -18,41 -40,41z"/>
   <path class="fil29" d="M514 869c23,0 41,-19 41,-41 0,-22 -18,-41 -41,-41 -22,0 -41,18 -41,41 0,23 18,41 41,41zm0 -1l0 0c-22,0 -40,-18 -40,-40 0,-22 18,-40 40,-40 22,0 40,18 40,40 0,22 -17,40 -40,40z"/>
   <path class="fil30" d="M514 869c22,0 40,-19 40,-41 0,-22 -18,-40 -40,-40 -22,0 -40,18 -40,40 0,22 18,41 40,41zm0 -1l0 0c-22,0 -39,-18 -39,-40 0,-21 17,-39 39,-39 22,0 39,18 39,39 0,22 -17,40 -39,40z"/>
   <path class="fil31" d="M514 868c22,0 40,-18 40,-40 0,-22 -17,-40 -40,-40 -22,0 -40,18 -40,40 0,22 18,40 40,40zm0 -1l0 0c-21,0 -39,-17 -39,-39 0,-21 17,-39 39,-39 22,0 39,17 39,39 0,22 -17,39 -39,39z"/>
   <path class="fil32" d="M514 867c22,0 39,-18 39,-40 0,-21 -17,-39 -39,-39 -22,0 -39,18 -39,39 0,22 17,40 39,40zm0 -1l0 0c-21,0 -38,-17 -38,-39 0,-21 17,-38 38,-38 21,0 38,17 38,38 0,21 -17,39 -38,39z"/>
   <path class="fil33" d="M514 867c22,0 39,-17 39,-39 0,-21 -17,-39 -39,-39 -21,0 -39,17 -39,39 0,22 17,39 39,39zm0 -1l0 0c-21,0 -38,-17 -38,-38 0,-21 17,-38 38,-38 21,0 38,17 38,38 0,21 -16,38 -38,38z"/>
   <path class="fil34" d="M514 866c21,0 38,-17 38,-39 0,-21 -17,-38 -38,-38 -21,0 -38,17 -38,38 0,21 17,39 38,39zm0 -1l0 0c-20,0 -37,-17 -37,-37 0,-20 17,-37 37,-37 21,0 37,17 37,37 0,21 -16,37 -37,37z"/>
   <path class="fil35" d="M514 866c21,0 38,-17 38,-38 0,-21 -16,-38 -38,-38 -21,0 -38,17 -38,38 0,21 17,38 38,38zm0 -1l0 0c-20,0 -36,-16 -36,-37 0,-20 16,-36 36,-36 20,0 37,16 37,36 0,21 -16,37 -37,37z"/>
   <path class="fil36" d="M514 865c21,0 37,-17 37,-37 0,-20 -16,-37 -37,-37 -20,0 -37,17 -37,37 0,21 17,37 37,37zm0 -1l0 0c-20,0 -36,-16 -36,-36 0,-20 16,-36 36,-36 20,0 36,16 36,36 0,20 -16,36 -36,36z"/>
   <path class="fil37" d="M514 865c20,0 37,-16 37,-37 0,-20 -16,-36 -37,-36 -20,0 -36,16 -36,36 0,21 16,37 36,37zm0 -1l0 0c-20,0 -35,-16 -35,-36 0,-20 16,-35 35,-35 20,0 35,16 35,35 0,20 -16,36 -35,36z"/>
   <path class="fil38" d="M514 864c20,0 36,-16 36,-36 0,-20 -16,-36 -36,-36 -20,0 -36,16 -36,36 0,20 16,36 36,36zm0 -1l0 0c-19,0 -35,-16 -35,-35 0,-19 16,-35 35,-35 20,0 35,16 35,35 0,20 -15,35 -35,35z"/>
   <path class="fil39" d="M514 864c20,0 35,-16 35,-36 0,-20 -16,-35 -35,-35 -20,0 -35,16 -35,35 0,20 16,36 35,36zm0 -1l0 0c-19,0 -34,-16 -34,-35 0,-19 15,-34 34,-34 19,0 34,15 34,34 0,19 -15,35 -34,35z"/>
   <path class="fil40" d="M514 863c20,0 35,-16 35,-35 0,-19 -15,-35 -35,-35 -19,0 -35,16 -35,35 0,20 16,35 35,35zm0 -1l0 0c-19,0 -34,-15 -34,-34 0,-19 15,-34 34,-34 19,0 34,15 34,34 0,19 -15,34 -34,34z"/>
   <path class="fil41" d="M514 863c19,0 34,-16 34,-35 0,-19 -15,-34 -34,-34 -19,0 -34,15 -34,34 0,19 15,35 34,35zm0 -1l0 0c-19,0 -33,-15 -33,-34 0,-18 15,-33 33,-33 18,0 33,15 33,33 0,18 -15,34 -33,34z"/>
   <path class="fil41" d="M514 862c19,0 34,-15 34,-34 0,-19 -15,-34 -34,-34 -19,0 -34,15 -34,34 0,19 15,34 34,34zm0 -1l0 0c-18,0 -33,-15 -33,-33 0,-18 15,-33 33,-33 18,0 33,15 33,33 0,18 -14,33 -33,33z"/>
   <path class="fil42" d="M514 862c18,0 33,-15 33,-34 0,-18 -15,-33 -33,-33 -19,0 -33,15 -33,33 0,18 15,34 33,34zm0 -1l0 0c-17,0 -32,-15 -32,-33 0,-17 15,-32 32,-32 18,0 32,15 32,32 0,18 -14,33 -32,33z"/>
   <path class="fil43" d="M514 861c18,0 33,-15 33,-33 0,-18 -14,-33 -33,-33 -18,0 -33,15 -33,33 0,18 15,33 33,33zm0 -1l0 0c-17,0 -32,-14 -32,-32 0,-17 14,-32 32,-32 17,0 32,14 32,32 0,18 -14,32 -32,32z"/>
   <path class="fil44" d="M514 861c18,0 32,-15 32,-33 0,-17 -14,-32 -32,-32 -17,0 -32,15 -32,32 0,18 15,33 32,33zm0 -1l0 0c-17,0 -31,-14 -31,-32 0,-17 14,-31 31,-31 17,0 31,14 31,31 0,17 -14,32 -31,32z"/>
   <path class="fil45" d="M514 860c17,0 32,-14 32,-32 0,-17 -14,-32 -32,-32 -17,0 -32,14 -32,32 0,18 14,32 32,32zm0 -1l0 0c-17,0 -31,-14 -31,-31 0,-17 14,-31 31,-31 17,0 31,14 31,31 0,17 -14,31 -31,31z"/>
   <path class="fil46" d="M514 859c17,0 31,-14 31,-32 0,-17 -14,-31 -31,-31 -17,0 -31,14 -31,31 0,17 14,32 31,32zm0 -1l0 0c-16,0 -30,-14 -30,-31 0,-16 14,-30 30,-30 17,0 30,14 30,30 0,17 -13,31 -30,31z"/>
   <path class="fil47" d="M514 859c17,0 31,-14 31,-31 0,-17 -14,-31 -31,-31 -17,0 -31,14 -31,31 0,17 14,31 31,31zm0 -1l0 0c-16,0 -30,-14 -30,-30 0,-16 13,-30 30,-30 16,0 30,13 30,30 0,16 -13,30 -30,30z"/>
   <path class="fil48" d="M514 858c17,0 30,-14 30,-31 0,-16 -13,-30 -30,-30 -16,0 -30,14 -30,30 0,17 14,31 30,31zm0 -1l0 0c-16,0 -29,-13 -29,-30 0,-16 13,-29 29,-29 16,0 29,13 29,29 0,16 -13,30 -29,30z"/>
   <path class="fil49" d="M514 858c16,0 30,-14 30,-30 0,-16 -13,-30 -30,-30 -16,0 -30,13 -30,30 0,16 13,30 30,30zm0 -1l0 0c-16,0 -29,-13 -29,-29 0,-15 13,-28 29,-28 16,0 29,13 29,28 0,16 -13,29 -29,29z"/>
   <path class="fil50" d="M514 857c16,0 29,-13 29,-30 0,-16 -13,-29 -29,-29 -16,0 -29,13 -29,29 0,16 13,30 29,30zm0 -1l0 0c-15,0 -28,-13 -28,-29 0,-15 13,-28 28,-28 16,0 28,13 28,28 0,16 -12,29 -28,29z"/>
   <path class="fil51" d="M514 857c16,0 29,-13 29,-29 0,-15 -13,-28 -29,-28 -16,0 -29,13 -29,28 0,16 13,29 29,29zm0 -1l0 0c-15,0 -28,-13 -28,-28 0,-15 13,-27 28,-27 15,0 27,13 27,27 0,15 -12,28 -27,28z"/>
   <path class="fil52" d="M514 856c16,0 28,-13 28,-29 0,-15 -12,-28 -28,-28 -15,0 -28,13 -28,28 0,16 13,29 28,29zm0 -1l0 0c-15,0 -27,-12 -27,-28 0,-15 12,-27 27,-27 15,0 27,12 27,27 0,15 -12,28 -27,28z"/>
   <path class="fil53" d="M514 856c15,0 27,-13 27,-28 0,-15 -12,-27 -27,-27 -15,0 -28,13 -28,27 0,15 13,28 28,28zm0 -1l0 0c-14,0 -26,-12 -26,-27 0,-14 12,-26 26,-26 15,0 26,12 26,26 0,15 -12,27 -26,27z"/>
   <path class="fil54" d="M514 855c15,0 27,-12 27,-28 0,-15 -12,-27 -27,-27 -15,0 -27,12 -27,27 0,15 12,28 27,28zm0 -1l0 0c-14,0 -26,-12 -26,-26 0,-14 12,-26 26,-26 14,0 26,12 26,26 0,15 -12,26 -26,26z"/>
   <path class="fil55" d="M514 855c15,0 26,-12 26,-27 0,-14 -12,-26 -26,-26 -14,0 -26,12 -26,26 0,15 12,27 26,27zm0 -1l0 0c-14,0 -25,-12 -25,-26 0,-14 12,-25 25,-25 14,0 25,12 25,25 0,14 -11,26 -25,26z"/>
   <path class="fil56" d="M514 854c14,0 26,-12 26,-26 0,-14 -12,-26 -26,-26 -14,0 -26,12 -26,26 0,15 12,26 26,26zm0 -1l0 0c-14,0 -25,-12 -25,-25 0,-14 11,-25 25,-25 14,0 25,11 25,25 0,14 -11,25 -25,25z"/>
   <path class="fil57" d="M514 854c14,0 25,-12 25,-26 0,-14 -11,-25 -25,-25 -14,0 -25,12 -25,25 0,14 12,26 25,26zm0 -1l0 0c-13,0 -24,-11 -24,-25 0,-13 11,-24 24,-24 14,0 24,11 24,24 0,14 -11,25 -24,25z"/>
   <path class="fil58" d="M514 853c14,0 25,-12 25,-25 0,-14 -11,-25 -25,-25 -14,0 -25,11 -25,25 0,14 11,25 25,25zm0 -1l0 0c-13,0 -24,-11 -24,-24 0,-13 11,-24 24,-24 13,0 24,11 24,24 0,13 -11,24 -24,24z"/>
   <path class="fil59" d="M514 853c14,0 24,-11 24,-25 0,-13 -11,-24 -24,-24 -13,0 -24,11 -24,24 0,14 11,25 24,25zm0 -1l0 0c-13,0 -23,-11 -23,-24 0,-13 11,-23 23,-23 13,0 23,11 23,23 0,13 -10,24 -23,24z"/>
   <path class="fil60" d="M514 852c13,0 24,-11 24,-24 0,-13 -11,-24 -24,-24 -13,0 -24,11 -24,24 0,13 11,24 24,24zm0 -1l0 0c-12,0 -23,-10 -23,-23 0,-12 11,-23 23,-23 13,0 23,11 23,23 0,13 -10,23 -23,23z"/>
   <path class="fil61" d="M514 852c13,0 23,-11 23,-24 0,-13 -10,-23 -23,-23 -13,0 -23,11 -23,23 0,13 11,24 23,24zm0 -1l0 0c-12,0 -22,-10 -22,-23 0,-12 10,-22 22,-22 13,0 22,10 22,22 0,13 -10,23 -22,23z"/>
   <path class="fil62" d="M514 851c13,0 23,-10 23,-23 0,-12 -10,-23 -23,-23 -12,0 -23,11 -23,23 0,13 11,23 23,23zm0 -1l0 0c-12,0 -22,-10 -22,-22 0,-12 10,-22 22,-22 12,0 22,10 22,22 0,12 -10,22 -22,22z"/>
   <path class="fil63" d="M514 850c13,0 22,-10 22,-23 0,-12 -10,-22 -22,-22 -12,0 -22,10 -22,22 0,13 10,23 22,23zm0 -1l0 0c-12,0 -21,-10 -21,-22 0,-12 10,-21 21,-21 12,0 21,10 21,21 0,12 -10,22 -21,22z"/>
   <path class="fil64" d="M514 850c12,0 22,-10 22,-22 0,-12 -10,-22 -22,-22 -12,0 -22,10 -22,22 0,12 10,22 22,22zm0 -1l0 0c-11,0 -21,-10 -21,-21 0,-11 10,-21 21,-21 12,0 21,9 21,21 0,12 -9,21 -21,21z"/>
   <path class="fil65" d="M514 849c12,0 21,-10 21,-22 0,-12 -10,-21 -21,-21 -12,0 -21,10 -21,21 0,12 10,22 21,22zm0 -2l0 0c-11,0 -20,-9 -20,-20 0,-11 9,-20 20,-20 11,0 20,9 20,20 0,11 -9,20 -20,20z"/>
   <path class="fil66" d="M514 849c12,0 21,-10 21,-21 0,-11 -9,-21 -21,-21 -11,0 -21,9 -21,21 0,12 10,21 21,21zm0 -1l0 0c-11,0 -20,-9 -20,-20 0,-11 9,-20 20,-20 11,0 20,9 20,20 0,11 -8,20 -20,20z"/>
   <path class="fil67" d="M514 848c11,0 20,-10 20,-21 0,-11 -9,-20 -20,-20 -11,0 -20,9 -20,20 0,11 9,21 20,21zm0 -1l0 0c-11,0 -19,-9 -19,-20 0,-10 8,-19 19,-19 11,0 19,9 19,19 0,11 -8,20 -19,20z"/>
   <path class="fil68" d="M514 848c11,0 20,-9 20,-20 0,-11 -8,-20 -20,-20 -11,0 -20,9 -20,20 0,11 9,20 20,20zm0 -1l0 0c-10,0 -19,-8 -19,-19 0,-10 8,-18 19,-18 11,0 18,8 18,18 0,11 -8,19 -18,19z"/>
   <path class="fil69" d="M514 847c11,0 19,-9 19,-20 0,-10 -8,-19 -19,-19 -11,0 -19,9 -19,19 0,11 8,20 19,20zm0 -1l0 0c-10,0 -18,-8 -18,-18 0,-10 8,-18 18,-18 10,0 18,8 18,18 0,10 -8,18 -18,18z"/>
   <path class="fil70" d="M514 847c11,0 18,-8 18,-19 0,-10 -8,-18 -18,-18 -10,0 -19,8 -19,18 0,11 8,19 19,19zm0 -2l0 0c-10,0 -17,-7 -17,-17 0,-10 8,-17 17,-17 10,0 17,8 17,17 0,10 -7,17 -17,17z"/>
   <path class="fil71" d="M514 846c10,0 18,-8 18,-18 0,-10 -8,-18 -18,-18 -10,0 -18,8 -18,18 0,10 8,18 18,18zm0 -1l0 0c-9,0 -17,-7 -17,-17 0,-9 8,-17 17,-17 9,0 17,8 17,17 0,10 -7,17 -17,17z"/>
   <path class="fil72" d="M514 845c10,0 17,-7 17,-17 0,-10 -7,-17 -17,-17 -10,0 -17,8 -17,17 0,10 8,17 17,17zm0 -1l0 0c-9,0 -16,-7 -16,-16 0,-9 7,-16 16,-16 9,0 16,7 16,16 0,10 -7,16 -16,16z"/>
   <path class="fil73" d="M514 845c9,0 17,-7 17,-17 0,-9 -7,-17 -17,-17 -9,0 -17,8 -17,17 0,10 8,17 17,17zm0 -1l0 0c-8,0 -16,-7 -16,-16 0,-8 7,-16 16,-16 9,0 16,7 16,16 0,9 -7,16 -16,16z"/>
   <path class="fil74" d="M514 844c9,0 16,-7 16,-16 0,-9 -7,-16 -16,-16 -9,0 -16,7 -16,16 0,10 7,16 16,16zm0 -1l0 0c-8,0 -15,-7 -15,-15 0,-8 7,-15 15,-15 8,0 15,7 15,15 0,8 -7,15 -15,15z"/>
   <path class="fil75" d="M514 844c9,0 16,-7 16,-16 0,-8 -7,-16 -16,-16 -8,0 -16,7 -16,16 0,9 7,16 16,16zm0 -1l0 0c-8,0 -15,-6 -15,-15 0,-8 7,-15 15,-15 8,0 15,7 15,15 0,8 -6,15 -15,15z"/>
   <path class="fil76" d="M514 843c8,0 15,-7 15,-15 0,-8 -7,-15 -15,-15 -8,0 -15,7 -15,15 0,8 7,15 15,15zm0 -1l0 0c-8,0 -14,-6 -14,-14 0,-7 6,-14 14,-14 8,0 14,7 14,14 0,8 -6,14 -14,14z"/>
   <path class="fil77" d="M514 843c8,0 15,-6 15,-15 0,-8 -6,-15 -15,-15 -8,0 -15,7 -15,15 0,8 7,15 15,15zm0 -1l0 0c-7,0 -14,-6 -14,-14 0,-7 6,-14 14,-14 8,0 14,6 14,14 0,8 -6,14 -14,14z"/>
   <path class="fil78" d="M514 842c8,0 14,-6 14,-14 0,-7 -6,-14 -14,-14 -8,0 -14,7 -14,14 0,8 6,14 14,14zm0 -1l0 0c-7,0 -13,-6 -13,-13 0,-7 6,-13 13,-13 7,0 13,6 13,13 0,7 -6,13 -13,13z"/>
   <path class="fil79" d="M514 841c8,0 14,-6 14,-14 0,-7 -6,-14 -14,-14 -7,0 -14,6 -14,14 0,8 6,14 14,14zm0 -1l0 0c-7,0 -13,-5 -13,-13 0,-7 6,-13 13,-13 7,0 13,6 13,13 0,7 -5,13 -13,13z"/>
   <path class="fil80" d="M514 841c7,0 13,-6 13,-13 0,-7 -6,-13 -13,-13 -7,0 -13,6 -13,13 0,7 6,13 13,13zm0 -1l0 0c-6,0 -12,-5 -12,-12 0,-6 6,-12 12,-12 7,0 12,6 12,12 0,7 -5,12 -12,12z"/>
   <path class="fil81" d="M514 840c7,0 13,-5 13,-13 0,-7 -5,-13 -13,-13 -7,0 -13,6 -13,13 0,7 6,13 13,13zm0 -1l0 0c-6,0 -12,-5 -12,-12 0,-6 5,-12 12,-12 6,0 12,5 12,12 0,7 -5,12 -12,12z"/>
   <path class="fil82" d="M514 840c7,0 12,-5 12,-12 0,-6 -5,-12 -12,-12 -6,0 -12,6 -12,12 0,7 6,12 12,12zm0 -1l0 0c-6,0 -11,-5 -11,-11 0,-6 5,-11 11,-11 6,0 11,5 11,11 0,6 -5,11 -11,11z"/>
   <path class="fil83" d="M514 839c6,0 12,-5 12,-12 0,-6 -5,-12 -12,-12 -6,0 -12,5 -12,12 0,7 5,12 12,12zm0 -1l0 0c-6,0 -11,-4 -11,-11 0,-6 5,-11 11,-11 6,0 11,5 11,11 0,6 -5,11 -11,11z"/>
   <path class="fil84" d="M514 839c6,0 11,-5 11,-11 0,-6 -5,-11 -11,-11 -6,0 -11,5 -11,11 0,6 5,11 11,11zm0 -1l0 0c-5,0 -10,-4 -10,-10 0,-5 5,-10 10,-10 6,0 10,5 10,10 0,6 -4,10 -10,10z"/>
   <path class="fil85" d="M514 838c6,0 11,-4 11,-11 0,-6 -5,-11 -11,-11 -6,0 -11,5 -11,11 0,6 5,11 11,11zm0 -1l0 0c-5,0 -10,-4 -10,-10 0,-5 4,-10 10,-10 5,0 9,4 9,10 0,5 -4,10 -9,10z"/>
   <path class="fil86" d="M514 838c6,0 10,-4 10,-10 0,-5 -4,-10 -10,-10 -5,0 -10,5 -10,10 0,6 5,10 10,10zm0 -1l0 0c-5,0 -9,-4 -9,-9 0,-5 4,-9 9,-9 5,0 9,4 9,9 0,5 -4,9 -9,9z"/>
   <path class="fil87" d="M514 837c5,0 9,-4 9,-10 0,-5 -4,-10 -9,-10 -5,0 -10,4 -10,10 0,5 4,10 10,10zm0 -1l0 0c-5,0 -8,-4 -8,-8 0,-4 4,-8 8,-8 5,0 8,4 8,8 0,5 -4,8 -8,8z"/>
   <path class="fil88" d="M514 837c5,0 9,-4 9,-9 0,-5 -4,-9 -9,-9 -5,0 -9,4 -9,9 0,5 4,9 9,9zm0 -1l0 0c-4,0 -8,-3 -8,-8 0,-4 4,-8 8,-8 5,0 8,4 8,8 0,5 -3,8 -8,8z"/>
   <path class="fil88" d="M514 836c5,0 8,-4 8,-8 0,-4 -4,-8 -8,-8 -5,0 -8,4 -8,8 0,5 4,8 8,8zm0 -1l0 0c-4,0 -7,-3 -7,-7 0,-4 4,-7 7,-7 4,0 7,4 7,7 0,4 -3,7 -7,7z"/>
   <path class="fil89" d="M514 836c5,0 8,-3 8,-8 0,-4 -3,-8 -8,-8 -4,0 -8,4 -8,8 0,5 4,8 8,8zm0 -1l0 0c-4,0 -7,-3 -7,-7 0,-4 3,-7 7,-7 4,0 7,3 7,7 0,4 -3,7 -7,7z"/>
   <path class="fil90" d="M514 835c4,0 7,-3 7,-7 0,-4 -3,-7 -7,-7 -4,0 -7,4 -7,7 0,4 4,7 7,7zm0 -1l0 0c-3,0 -6,-3 -6,-6 0,-3 3,-6 6,-6 4,0 6,3 6,6 0,4 -3,6 -6,6z"/>
   <path class="fil91" d="M514 835c4,0 7,-3 7,-7 0,-4 -3,-7 -7,-7 -4,0 -7,3 -7,7 0,4 3,7 7,7zm0 -1l0 0c-3,0 -6,-2 -6,-6 0,-3 3,-6 6,-6 3,0 6,3 6,6 0,4 -3,6 -6,6z"/>
   <path class="fil91" d="M514 834c4,0 6,-3 6,-6 0,-3 -3,-6 -6,-6 -3,0 -6,3 -6,6 0,4 3,6 6,6zm0 -1l0 0c-3,0 -5,-2 -5,-5 0,-3 3,-5 5,-5 3,0 5,3 5,5 0,3 -2,5 -5,5z"/>
   <path class="fil92" d="M514 834c3,0 6,-2 6,-6 0,-3 -3,-6 -6,-6 -3,0 -6,3 -6,6 0,4 3,6 6,6zm0 -1l0 0c-3,0 -5,-2 -5,-5 0,-3 2,-5 5,-5 3,0 5,2 5,5 0,3 -2,5 -5,5z"/>
   <path class="fil93" d="M514 833c3,0 5,-2 5,-5 0,-3 -2,-5 -5,-5 -3,0 -5,3 -5,5 0,3 3,5 5,5zm0 -1l0 0c-2,0 -4,-2 -4,-4 0,-2 2,-4 4,-4 3,0 4,2 4,4 0,3 -2,4 -4,4z"/>
   <path class="fil94" d="M514 833c3,0 5,-2 5,-5 0,-3 -2,-5 -5,-5 -3,0 -5,2 -5,5 0,3 2,5 5,5zm0 -1l0 0c-2,0 -4,-2 -4,-4 0,-2 2,-4 4,-4 2,0 4,2 4,4 0,2 -2,4 -4,4z"/>
   <path class="fil95" d="M514 832c3,0 4,-2 4,-4 0,-2 -2,-4 -4,-4 -2,0 -4,2 -4,4 0,3 2,4 4,4zm0 -1l0 0c-2,0 -3,-1 -3,-3 0,-2 2,-3 3,-3 2,0 3,1 3,3 0,2 -1,3 -3,3z"/>
   <path class="fil96" d="M514 831c2,0 4,-2 4,-4 0,-2 -2,-4 -4,-4 -2,0 -4,2 -4,4 0,2 2,4 4,4zm0 -1l0 0c-1,0 -3,-1 -3,-3 0,-1 2,-3 3,-3 2,0 3,2 3,3 0,2 -1,3 -3,3z"/>
   <path class="fil97" d="M514 831c2,0 3,-1 3,-3 0,-2 -1,-3 -3,-3 -2,0 -3,1 -3,3 0,2 2,3 3,3zm0 -1l0 0c-1,0 -2,-1 -2,-2 0,-1 1,-2 2,-2 2,0 2,1 2,2 0,2 -1,2 -2,2z"/>
   <path class="fil97" d="M514 830c2,0 3,-1 3,-3 0,-1 -1,-3 -3,-3 -1,0 -3,2 -3,3 0,2 2,3 3,3zm0 -1l0 0c-1,0 -2,-1 -2,-2 0,-1 1,-2 2,-2 1,0 2,1 2,2 0,1 0,2 -2,2z"/>
   <path class="fil98" d="M514 830c2,0 2,-1 2,-2 0,-1 -1,-2 -2,-2 -1,0 -2,1 -2,2 0,2 1,2 2,2zm0 -1l0 0c-1,0 -1,0 -1,-1 0,-1 1,-1 1,-1 1,0 1,0 1,1 0,1 -1,1 -1,1z"/>
   <path class="fil99" d="M514 829c-1,0 -2,-1 -2,-2 0,-1 1,-2 2,-2 1,0 2,1 2,2 0,1 0,2 -2,2z"/>
   <path class="fil8" d="M514 829c-1,0 -1,0 -1,-1 0,-1 1,-1 1,-1 1,0 1,0 1,1 0,1 -1,1 -1,1z"/>
   <path class="fil8" d="M514 828c0,0 -1,0 -1,-1l1 -1c1,0 1,1 1,1 0,1 0,1 -1,1z"/>
   <path class="fil100" d="M553 928l-80 0c-3,0 -5,-3 -5,-5l0 -33c0,-7 14,-11 17,-11l57 0c5,0 16,4 16,11l0 33c0,3 -2,5 -5,5z"/>
   <path class="fil7" d="M504 828c-1,-1 -1,-2 -1,-3 0,-8 5,-14 11,-14 6,0 12,6 12,14 0,1 -1,2 -1,3l-22 0z"/>
   <path class="fil8" d="M482 898c-2,1 -3,2 -3,4 1,2 3,3 5,2 4,-1 3,-8 -2,-6z"/>
   <path class="fil26" d="M482 907c0,0 1,0 1,0 2,0 4,-1 6,-3 -1,2 -3,3 -6,3l0 0c0,0 -1,0 -1,0z"/>
   <path class="fil101" d="M477 900c0,4 3,7 7,7 4,0 7,-3 7,-7 0,-4 -3,-7 -7,-7 -4,0 -7,3 -7,7zm7 6l0 0c-4,0 -6,-3 -6,-6 0,-4 3,-7 6,-7 4,0 6,3 6,7 0,3 -3,6 -6,6z"/>
   <path class="fil37" d="M483 907c2,0 3,-1 4,-1l0 0 0 0 0 0 0 0 0 0 0 0 0 0 0 0 0 0 0 0 0 0 0 0 0 0 0 0 0 0 0 0 0 0 0 0 0 0 0 0 0 0 0 0 0 0 0 0 0 0 0 0 0 0 0 0 0 0 0 0 0 0 0 0 0 0 0 0 0 0 0 0 0 0 0 0 0 0 0 0 0 0 0 0 0 0 0 0 0 0 0 0 0 0 0 0 0 0 0 0 0 0 0 0 0 0 0 0 0 0 0 0 0 0 0 0 0 0 0 0 0 0 0 0 0 0 0 0 0 0 0 0 0 0 0 0 0 0 0 0 0 0 0 0 0 0 0 0 0 0 0 0 0 0 0 0 0 0 0 0 0 0 0 0 0 0 0 0 0 0 0 0 0 0 0 0 0 0 0 0 0 0 0 0c-1,-1 -2,-2 -3,-3l0 0 0 0 0 0 0 0 0 0 0 0 0 0 0 0 0 0 0 0 0 0 0 0 0 0 0 0 0 0 0 0 0 0 0 0 0 0 0 0 0 0 0 0 0 0 0 0 0 0 0 0 0 0 0 0 0 0 0 0 0 0 0 0 0 0 0 0c-4,0 -7,3 -7,7 0,3 3,6 6,7l0 0 0 0 0 0c0,0 1,0 1,0zm0 -1l0 0c-3,0 -6,-3 -6,-6 0,-4 3,-6 6,-6 3,0 6,3 6,6 0,3 -3,6 -6,6z"/>
   <path class="fil102" d="M483 906c4,0 6,-3 6,-6 0,-4 -3,-7 -6,-7 -4,0 -7,3 -7,6l0 0 0 0 0 0 0 0 0 0 0 0 0 0c0,3 3,6 7,6zm0 -1l0 0c-3,0 -5,-3 -5,-5 0,-3 2,-6 5,-6 3,0 5,3 5,6 0,3 -2,5 -5,5z"/>
   <path class="fil103" d="M483 906c3,0 6,-3 6,-6 0,-4 -3,-6 -6,-6 -3,0 -6,3 -6,6 0,3 3,6 6,6zm0 -1l0 0c-3,0 -5,-2 -5,-5 0,-3 2,-5 5,-5 3,0 5,2 5,5 0,3 -2,5 -5,5z"/>
   <path class="fil54" d="M483 905c3,0 5,-3 5,-5 0,-3 -2,-6 -5,-6 -3,0 -5,3 -5,6 0,3 2,5 5,5zm0 -1l0 0c-3,0 -4,-2 -4,-4 0,-3 2,-5 4,-5 2,0 4,2 4,5 0,2 -2,4 -4,4z"/>
   <path class="fil104" d="M483 905c3,0 5,-2 5,-5 0,-3 -2,-5 -5,-5 -3,0 -5,2 -5,5 0,3 2,5 5,5zm0 -1l0 0c-2,0 -4,-2 -4,-4 0,-2 2,-4 4,-4 2,0 4,2 4,4 0,2 -2,4 -4,4z"/>
   <path class="fil105" d="M483 904c2,0 4,-2 4,-4 0,-3 -2,-5 -4,-5 -3,0 -4,2 -4,5 0,2 2,4 4,4zm0 -1l0 0c-2,0 -3,-1 -3,-3 0,-2 1,-4 3,-4 2,0 3,2 3,4 0,2 -2,3 -3,3z"/>
   <path class="fil106" d="M483 904c2,0 4,-2 4,-4 0,-2 -2,-4 -4,-4 -2,0 -4,2 -4,4 0,2 2,4 4,4zm0 -1l0 0c-2,0 -3,-2 -3,-3 0,-2 1,-3 3,-3 2,0 3,2 3,3 0,1 -1,3 -3,3z"/>
   <path class="fil107" d="M483 903c2,0 3,-1 3,-3 0,-2 -2,-4 -3,-4 -2,0 -3,2 -3,4 0,2 1,3 3,3zm0 -1l0 0c-1,0 -2,-1 -2,-2 0,-2 1,-3 2,-3 1,0 2,1 2,3 0,1 -1,2 -2,2z"/>
   <path class="fil82" d="M483 903c2,0 3,-2 3,-3 0,-2 -1,-3 -3,-3 -2,0 -3,2 -3,3 0,1 1,3 3,3zm0 -1l0 0c-1,0 -2,-1 -2,-2 0,-1 1,-2 2,-2 1,0 2,0 2,2 0,1 0,2 -2,2z"/>
   <path class="fil87" d="M483 902c1,0 2,-1 2,-2 0,-2 -1,-3 -2,-3 -1,0 -2,1 -2,3 0,1 1,2 2,2zm0 -1l0 0c-1,0 -1,0 -1,-1 0,-1 1,-1 1,-1 1,0 1,0 1,1 0,1 -1,1 -1,1z"/>
   <path class="fil91" d="M483 902c-1,0 -2,-1 -2,-2 0,-1 1,-2 2,-2 1,0 2,0 2,2 0,1 0,2 -2,2z"/>
   <path class="fil96" d="M483 901c-1,0 -1,0 -1,-1 0,-1 1,-1 1,-1 1,0 1,0 1,1 0,1 -1,1 -1,1z"/>
   <path class="fil8" d="M483 901c-1,0 -1,-1 -1,-1 0,-1 0,-1 1,-1 0,0 1,0 1,1l-1 1z"/>
   <path class="fil19" d="M487 898c0,-1 -1,-2 -2,-2 1,1 1,1 2,2zm-6 -2c-1,1 -1,1 -2,2 0,-1 1,-2 2,-2z"/>
   <path class="fil108" d="M479 900c0,2 2,4 4,4 2,0 4,-2 4,-4 0,-3 -2,-5 -4,-5 -3,0 -4,2 -4,5zm4 4l0 0c-2,0 -4,-2 -4,-4 0,-2 2,-4 4,-4 2,0 4,2 4,4 0,2 -2,4 -4,4z"/>
   <path class="fil38" d="M483 904c2,0 4,-2 4,-4l0 0 0 0 0 0 0 0 0 0 0 0 0 0 0 0 0 0 0 0 0 0 0 0 0 0 0 0 0 0 0 0 0 0 0 0 0 0 0 0 0 0 0 0 0 0 0 0 0 0 0 0 0 0c0,-1 -1,-2 -2,-2l0 0 0 0 0 0 0 0 0 0 0 0 0 0 0 0 0 0 0 0 0 0 0 0 0 0 0 0 0 0 0 0 0 0 0 0 0 0 0 0 0 0 0 0 0 0 0 0 0 0 0 0 0 0 0 0 0 0 0 0 0 0 0 0 0 0 0 0 0 0 0 0 0 0 0 0 0 0 0 0 0 0 0 0 0 0 0 0 0 0 0 0 0 0 0 0 0 0 0 0 0 0 0 0 0 0 0 0 0 0 0 0 0 0 0 0 0 0 0 0 0 0 0 0 0 0 0 0 0 0c-1,0 -1,1 -2,2l0 0 0 0 0 0 0 0 0 0 0 0 0 0 0 0 0 0 0 0 0 0 0 0 0 0 0 0 0 0 0 0 0 0 0 0 0 0 0 0 0 0 0 0 0 0 0 0 0 0 0 0 0 0 0 0 0 0 0 0 0 0c0,2 2,4 4,4zm0 -1l0 0c-2,0 -3,-1 -3,-3 0,-2 1,-4 3,-4 2,0 3,2 3,4 0,2 -2,3 -3,3z"/>
   <path class="fil109" d="M483 904c2,0 4,-2 4,-4 0,-2 -2,-4 -4,-4 -2,0 -4,2 -4,4 0,2 2,4 4,4zm0 -1l0 0c-2,0 -3,-2 -3,-3 0,-2 1,-3 3,-3 2,0 3,2 3,3 0,1 -1,3 -3,3z"/>
   <path class="fil56" d="M483 903c2,0 3,-1 3,-3 0,-2 -2,-4 -3,-4 -2,0 -3,2 -3,4 0,2 1,3 3,3zm0 -1l0 0c-1,0 -2,-1 -2,-2 0,-2 1,-3 2,-3 1,0 2,1 2,3 0,1 -1,2 -2,2z"/>
   <path class="fil110" d="M483 903c2,0 3,-2 3,-3 0,-2 -1,-3 -3,-3 -2,0 -3,2 -3,3 0,1 1,3 3,3zm0 -1l0 0c-1,0 -2,-1 -2,-2 0,-1 1,-2 2,-2 1,0 2,1 2,2 0,1 0,2 -2,2z"/>
   <path class="fil111" d="M483 902c1,0 2,-1 2,-2 0,-2 -1,-3 -2,-3 -1,0 -2,1 -2,3 0,1 1,2 2,2zm0 -1l0 0c-1,0 -1,0 -1,-1 0,-1 1,-1 1,-1 1,0 1,0 1,1 0,1 -1,1 -1,1z"/>
   <path class="fil112" d="M483 902c-1,0 -2,-1 -2,-2 0,-1 1,-2 2,-2 1,0 2,1 2,2 0,1 0,2 -2,2z"/>
   <path class="fil113" d="M483 901c-1,0 -1,0 -1,-1 0,-1 1,-1 1,-1 1,0 1,0 1,1 0,1 -1,1 -1,1z"/>
   <path class="fil8" d="M483 901c-1,0 -1,-1 -1,-1 0,-1 0,-1 1,-1 0,0 1,0 1,1l-1 1z"/>
   <path class="fil8" d="M553 928l-80 0c-3,0 -5,-3 -5,-5l0 -32c0,-7 14,-11 17,-11l57 0c5,0 16,4 16,11l0 32c0,3 -2,5 -5,5z"/>
   <path class="fil9" d="M514 925c5,0 9,-4 9,-9 0,-5 -4,-9 -9,-9 -5,0 -9,4 -9,9 0,5 4,9 9,9zm0 -1l0 0c-4,0 -8,-4 -8,-8 0,-4 4,-8 8,-8 5,0 8,4 8,8 0,4 -4,8 -8,8z"/>
   <path class="fil15" d="M514 925c5,0 9,-4 9,-8 0,-5 -4,-8 -9,-8 -4,0 -8,4 -8,8 0,5 4,8 8,8zm0 -1l0 0c-4,0 -7,-3 -7,-7 0,-4 4,-7 7,-7 4,0 8,3 8,7 0,4 -4,7 -8,7z"/>
   <path class="fil21" d="M514 924c5,0 8,-4 8,-8 0,-4 -4,-8 -8,-8 -4,0 -8,4 -8,8 0,4 4,8 8,8zm0 -1l0 0c-4,0 -7,-3 -7,-7 0,-4 3,-7 7,-7 4,0 7,3 7,7 0,4 -3,7 -7,7z"/>
   <path class="fil27" d="M514 924c4,0 8,-3 8,-7 0,-4 -4,-7 -8,-7 -4,0 -7,3 -7,7 0,4 4,7 7,7zm0 -1l0 0c-3,0 -6,-3 -6,-6 0,-4 3,-6 6,-6 4,0 7,3 7,6 0,4 -3,6 -7,6z"/>
   <path class="fil33" d="M514 923c4,0 7,-3 7,-7 0,-4 -3,-7 -7,-7 -4,0 -7,3 -7,7 0,4 3,7 7,7zm0 -1l0 0c-3,0 -6,-3 -6,-6 0,-3 3,-6 6,-6 4,0 6,3 6,6 0,3 -3,6 -6,6z"/>
   <path class="fil39" d="M514 923c4,0 7,-3 7,-6 0,-4 -3,-6 -7,-6 -3,0 -6,3 -6,6 0,4 3,6 6,6zm0 -1l0 0c-3,0 -5,-2 -5,-5 0,-3 3,-5 5,-5 3,0 6,2 6,5 0,3 -3,5 -6,5z"/>
   <path class="fil44" d="M514 922c4,0 6,-3 6,-6 0,-3 -3,-6 -6,-6 -3,0 -6,3 -6,6 0,3 3,6 6,6zm0 -1l0 0c-3,0 -5,-2 -5,-5 0,-3 2,-5 5,-5 3,0 5,2 5,5 0,3 -3,5 -5,5z"/>
   <path class="fil50" d="M514 922c3,0 6,-2 6,-5 0,-3 -3,-5 -6,-5 -3,0 -5,2 -5,5 0,3 3,5 5,5zm0 -1l0 0c-2,0 -4,-2 -4,-4 0,-2 2,-4 4,-4 3,0 5,2 5,4 0,2 -2,4 -5,4z"/>
   <path class="fil56" d="M514 921c3,0 5,-2 5,-5 0,-3 -3,-5 -5,-5 -3,0 -5,2 -5,5 0,3 2,5 5,5zm0 -1l0 0c-2,0 -4,-2 -4,-4 0,-2 2,-4 4,-4 2,0 4,2 4,4 0,2 -2,4 -4,4z"/>
   <path class="fil62" d="M514 921c3,0 5,-2 5,-4 0,-2 -2,-4 -5,-4 -2,0 -4,2 -4,4 0,2 2,4 4,4zm0 -1l0 0c-2,0 -3,-2 -3,-3 0,-2 2,-3 3,-3 2,0 4,2 4,3 0,2 -2,3 -4,3z"/>
   <path class="fil68" d="M514 920c2,0 4,-2 4,-4 0,-2 -2,-4 -4,-4 -2,0 -4,2 -4,4 0,2 2,4 4,4zm0 -1l0 0c-1,0 -3,-1 -3,-3 0,-2 2,-3 3,-3 2,0 3,1 3,3 0,2 -2,3 -3,3z"/>
   <path class="fil74" d="M514 920c2,0 4,-2 4,-3 0,-2 -2,-3 -4,-3 -2,0 -3,2 -3,3 0,2 2,3 3,3zm0 -1l0 0c-1,0 -2,-1 -2,-2 0,-1 1,-2 2,-2 2,0 3,1 3,2 0,1 -1,2 -3,2z"/>
   <path class="fil80" d="M514 919c2,0 3,-1 3,-3 0,-2 -2,-3 -3,-3 -1,0 -3,1 -3,3 0,2 2,3 3,3zm0 -1l0 0c-1,0 -2,-1 -2,-2 0,-1 1,-2 2,-2 1,0 2,1 2,2 0,1 -1,2 -2,2z"/>
   <path class="fil86" d="M514 919c2,0 3,-1 3,-2 0,-1 -1,-2 -3,-2 -1,0 -2,1 -2,2 0,1 1,2 2,2zm0 -1l0 0c-1,0 -1,-1 -1,-1 0,0 1,-1 1,-1 1,0 1,1 1,1 0,1 0,1 -1,1z"/>
   <path class="fil91" d="M514 918c-1,0 -2,-1 -2,-2 0,-1 1,-2 2,-2 1,0 2,1 2,2 0,1 -1,2 -2,2z"/>
   <path class="fil96" d="M514 918c-1,0 -1,-1 -1,-1 0,0 1,-1 1,-1 1,0 1,1 1,1 0,1 0,1 -1,1z"/>
   <path class="fil8" d="M514 917c0,0 -1,0 -1,-1 0,0 1,0 1,0 1,0 1,0 1,0 0,1 0,1 -1,1z"/>
   <path class="fil9" d="M514 922c3,0 6,-3 6,-6 0,-3 -3,-6 -6,-6 -3,0 -5,3 -5,6 0,3 3,6 5,6zm0 -2l0 0c-2,0 -4,-2 -4,-4 0,-3 2,-5 4,-5 3,0 5,2 5,5 0,3 -2,4 -5,4z"/>
   <path class="fil114" d="M514 922c3,0 5,-3 5,-5 0,-3 -2,-5 -5,-5 -3,0 -5,3 -5,5 0,3 2,5 5,5zm0 -2l0 0c-2,0 -4,-2 -4,-4 0,-2 2,-4 4,-4 3,0 4,2 4,4 0,2 -2,4 -4,4z"/>
   <path class="fil31" d="M514 921c3,0 5,-2 5,-4 0,-3 -2,-5 -5,-5 -2,0 -4,2 -4,5 0,3 2,4 4,4zm0 -1l0 0c-2,0 -3,-2 -3,-3 0,-2 2,-3 3,-3 2,0 4,1 4,3 0,2 -2,3 -4,3z"/>
   <path class="fil41" d="M514 920c3,0 4,-2 4,-4 0,-2 -2,-4 -4,-4 -2,0 -4,2 -4,4 0,2 2,4 4,4zm0 -1l0 0c-1,0 -3,-1 -3,-3 0,-2 2,-3 3,-3 2,0 3,1 3,3 0,2 -2,3 -3,3z"/>
   <path class="fil115" d="M514 920c2,0 4,-2 4,-3 0,-2 -2,-3 -4,-3 -2,0 -3,1 -3,3 0,2 2,3 3,3zm0 -1l0 0c-1,0 -2,-1 -2,-2 0,-1 1,-2 2,-2 2,0 3,1 3,2 0,1 -1,2 -3,2z"/>
   <path class="fil116" d="M514 919c2,0 3,-1 3,-3 0,-2 -2,-3 -3,-3 -1,0 -3,1 -3,3 0,2 2,3 3,3zm0 -1l0 0c-1,0 -2,-1 -2,-2 0,-1 1,-2 2,-2 1,0 2,1 2,2 0,1 -1,2 -2,2z"/>
   <path class="fil72" d="M514 919c2,0 3,-1 3,-2 0,-1 -1,-2 -3,-2 -1,0 -2,1 -2,2 0,1 1,2 2,2zm0 -1l0 0c-1,0 -1,0 -1,-1 0,0 0,-1 1,-1 1,0 2,1 2,1 0,1 -1,1 -2,1z"/>
   <path class="fil82" d="M514 918c-1,0 -2,-1 -2,-2 0,-1 1,-2 2,-2 1,0 2,1 2,2 0,1 -1,2 -2,2z"/>
   <path class="fil117" d="M514 918c-1,0 -1,0 -1,-1 0,0 0,-1 1,-1 1,0 2,1 2,1 0,1 -1,1 -2,1z"/>
   <path class="fil8" d="M514 917c0,0 -1,0 -1,-1 0,0 1,0 1,0 1,0 1,0 1,0 0,1 -1,1 -1,1z"/>
   <polygon class="fil6" points="2284,340 2255,340 2255,355 2264,355 2179,476 2190,476 2274,355 2284,355 "/>
   <polygon class="fil118" points="2284,526 2179,526 2179,768 2284,768 "/>
   <polygon class="fil119" points="2210,526 2179,526 2179,768 2210,768 "/>
   <polygon class="fil119" points="2284,526 2254,526 2254,768 2284,768 "/>
   <polygon class="fil120" points="2421,1105 2278,1105 2278,1130 2421,1130 "/>
   <polygon class="fil120" points="2556,-16 2251,-16 2251,16 2556,16 "/>
   <path class="fil5" d="M2421 1126c67,-385 112,-758 135,-1110 -13,-5 -25,-10 -35,-17 -22,357 -68,735 -136,1125 12,0 25,1 37,2z"/>
   <path class="fil7" d="M317 921c32,0 59,24 59,53 0,29 -27,53 -59,53 -32,0 -59,-24 -59,-53 0,-29 27,-53 59,-53z"/>
   <path class="fil7" d="M315 959c-3,1 -3,3 -3,6 1,2 3,3 5,2 4,-2 2,-10 -3,-8z"/>
   <path class="fil7" d="M317 927c23,0 42,17 42,38 0,21 -19,38 -42,38 -24,0 -42,-17 -42,-38 0,-21 18,-38 42,-38z"/>
   <path class="fil7" d="M317 956c2,0 4,3 4,5 0,3 -2,5 -4,5 -3,0 -5,-2 -5,-5 0,-3 3,-5 5,-5z"/>
   <path class="fil7" d="M315 1013c-3,1 -3,3 -3,5 1,2 3,3 5,3 4,-1 2,-10 -3,-8z"/>
   <path class="fil7" d="M317 1008c4,0 8,4 8,8 0,5 -3,8 -8,8 -5,0 -8,-4 -8,-8 0,-4 3,-8 8,-8z"/>
   <path class="fil7" d="M317 1011c2,0 4,2 4,5 0,3 -2,5 -4,5 -3,0 -5,-3 -5,-5 0,-3 3,-5 5,-5z"/>
   <path class="fil8" d="M317 921c32,0 59,22 59,50 0,28 -27,50 -59,50 -32,0 -59,-22 -59,-50 0,-28 27,-50 59,-50z"/>
   <path class="fil8" d="M315 957c-3,1 -3,3 -3,5 1,1 3,3 5,2 4,-1 2,-9 -3,-7z"/>
   <path class="fil9" d="M317 1018c30,0 55,-25 55,-55 0,-31 -25,-55 -55,-55 -31,0 -55,25 -55,55 0,31 25,55 55,55zm0 -1l0 0c-30,0 -54,-24 -54,-54 0,-30 24,-54 54,-54 30,0 54,24 54,54 0,30 -24,54 -54,54z"/>
   <path class="fil10" d="M317 1017c30,0 55,-24 55,-55 0,-30 -25,-55 -55,-55 -31,0 -55,25 -55,55 0,30 24,55 55,55zm0 -1l0 0c-30,0 -54,-24 -54,-53 0,-29 24,-54 54,-54 29,0 53,24 53,54 0,29 -24,53 -53,53z"/>
   <path class="fil11" d="M317 1017c30,0 54,-24 54,-54 0,-30 -24,-54 -54,-54 -30,0 -54,24 -54,54 0,30 24,54 54,54zm0 -1l0 0c-29,0 -53,-24 -53,-53 0,-29 24,-53 53,-53 29,0 53,24 53,53 0,29 -24,53 -53,53z"/>
   <path class="fil121" d="M317 1016c29,0 53,-24 53,-53 0,-29 -24,-54 -53,-54 -30,0 -54,24 -54,54 0,29 24,53 54,53zm0 -1l0 0c-29,0 -52,-24 -52,-52 0,-29 24,-52 52,-52 29,0 52,24 52,52 0,29 -24,52 -52,52z"/>
   <path class="fil122" d="M317 1015c29,0 53,-24 53,-53 0,-29 -24,-53 -53,-53 -29,0 -53,24 -53,53 0,29 24,53 53,53zm0 -1l0 0c-29,0 -52,-23 -52,-52 0,-29 23,-52 52,-52 29,0 52,23 52,52 0,29 -23,52 -52,52z"/>
   <path class="fil14" d="M317 1015c29,0 52,-24 52,-52 0,-29 -24,-52 -52,-52 -29,0 -52,24 -52,52 0,29 24,52 52,52zm0 -1l0 0c-28,0 -51,-23 -51,-51 0,-28 23,-51 51,-51 28,0 51,23 51,51 0,28 -23,51 -51,51z"/>
   <path class="fil123" d="M317 1014c29,0 52,-23 52,-52 0,-29 -23,-52 -52,-52 -29,0 -52,23 -52,52 0,29 23,52 52,52zm0 -1l0 0c-28,0 -50,-22 -50,-50 0,-28 22,-50 50,-50 27,0 50,22 50,50 0,28 -23,50 -50,50z"/>
   <path class="fil17" d="M317 1013c28,0 51,-23 51,-51 0,-28 -23,-51 -51,-51 -28,0 -51,23 -51,51 0,28 23,51 51,51zm0 -1l0 0c-27,0 -50,-22 -50,-50 0,-27 22,-50 50,-50 27,0 50,22 50,50 0,27 -22,50 -50,50z"/>
   <path class="fil124" d="M317 1013c27,0 50,-22 50,-50 0,-28 -23,-50 -50,-50 -28,0 -50,22 -50,50 0,28 22,50 50,50zm0 -1l0 0c-27,0 -49,-22 -49,-49 0,-27 22,-49 49,-49 27,0 49,22 49,49 0,27 -22,49 -49,49z"/>
   <path class="fil19" d="M317 1012c27,0 50,-22 50,-50 0,-27 -22,-50 -50,-50 -27,0 -50,22 -50,50 0,27 22,50 50,50zm0 -1l0 0c-27,0 -48,-22 -48,-48 0,-27 22,-48 48,-48 27,0 48,22 48,48 0,27 -22,48 -48,48z"/>
   <path class="fil20" d="M317 1011c27,0 49,-22 49,-49 0,-27 -22,-49 -49,-49 -27,0 -49,22 -49,49 0,27 22,49 49,49zm0 -1l0 0c-27,0 -48,-22 -48,-48 0,-26 21,-48 48,-48 26,0 48,22 48,48 0,26 -22,48 -48,48z"/>
   <path class="fil125" d="M317 1011c27,0 48,-22 48,-48 0,-27 -22,-48 -48,-48 -27,0 -48,22 -48,48 0,27 22,48 48,48zm0 -1l0 0c-26,0 -47,-21 -47,-47 0,-26 21,-47 47,-47 26,0 47,21 47,47 0,26 -21,47 -47,47z"/>
   <path class="fil126" d="M317 1010c26,0 48,-22 48,-48 0,-26 -22,-48 -48,-48 -27,0 -48,22 -48,48 0,26 21,48 48,48zm0 -1l0 0c-25,0 -47,-21 -47,-46 0,-26 21,-46 47,-46 25,0 46,21 46,46 0,25 -21,46 -46,46z"/>
   <path class="fil23" d="M317 1010c26,0 47,-21 47,-47 0,-26 -21,-47 -47,-47 -26,0 -47,21 -47,47 0,26 21,47 47,47zm0 -1l0 0c-25,0 -46,-20 -46,-46 0,-26 20,-46 46,-46 25,0 46,20 46,46 0,25 -20,46 -46,46z"/>
   <path class="fil25" d="M317 1009c25,0 46,-21 46,-46 0,-26 -21,-46 -46,-46 -25,0 -47,21 -47,46 0,25 21,46 47,46zm0 -1l0 0c-25,0 -45,-20 -45,-45 0,-25 20,-45 45,-45 25,0 45,20 45,45 0,25 -20,45 -45,45z"/>
   <path class="fil26" d="M317 1008c25,0 46,-20 46,-46 0,-26 -20,-46 -46,-46 -25,0 -46,20 -46,46 0,25 20,46 46,46zm0 -1l0 0c-25,0 -45,-20 -45,-45 0,-25 20,-45 45,-45 24,0 45,20 45,45 0,25 -20,45 -45,45z"/>
   <path class="fil127" d="M317 1008c25,0 45,-20 45,-45 0,-25 -20,-45 -45,-45 -25,0 -45,20 -45,45 0,25 20,45 45,45zm0 -1l0 0c-24,0 -44,-20 -44,-44 0,-24 20,-44 44,-44 24,0 44,20 44,44 0,24 -20,44 -44,44z"/>
   <path class="fil28" d="M317 1007c24,0 45,-20 45,-45 0,-25 -20,-45 -45,-45 -25,0 -45,20 -45,45 0,25 20,45 45,45zm0 -1l0 0c-24,0 -43,-19 -43,-43 0,-24 19,-43 43,-43 24,0 43,20 43,43 0,24 -20,43 -43,43z"/>
   <path class="fil29" d="M317 1006c24,0 44,-20 44,-44 0,-24 -20,-44 -44,-44 -24,0 -44,20 -44,44 0,24 20,44 44,44zm0 -1l0 0c-24,0 -43,-19 -43,-43 0,-24 19,-43 43,-43 24,0 43,19 43,43 0,23 -19,43 -43,43z"/>
   <path class="fil31" d="M317 1006c24,0 43,-19 43,-43 0,-24 -20,-43 -43,-43 -24,0 -43,20 -43,43 0,24 19,43 43,43zm0 -1l0 0c-24,0 -42,-19 -42,-42 0,-23 18,-42 42,-42 23,0 42,19 42,42 0,23 -19,42 -42,42z"/>
   <path class="fil32" d="M317 1005c24,0 43,-19 43,-43 0,-24 -19,-43 -43,-43 -24,0 -43,19 -43,43 0,23 19,43 43,43zm0 -1l0 0c-23,0 -41,-19 -41,-41 0,-23 18,-41 41,-41 23,0 41,18 41,41 0,23 -18,41 -41,41z"/>
   <path class="fil128" d="M317 1005c23,0 42,-19 42,-42 0,-23 -19,-42 -42,-42 -24,0 -42,19 -42,42 0,24 18,42 42,42zm0 -1l0 0c-23,0 -41,-18 -41,-41 0,-22 18,-41 41,-41 22,0 41,18 41,41 0,22 -19,41 -41,41z"/>
   <path class="fil129" d="M317 1004c23,0 41,-19 41,-41 0,-23 -18,-41 -41,-41 -23,0 -41,18 -41,41 0,23 18,41 41,41zm0 -1l0 0c-22,0 -40,-18 -40,-40 0,-22 18,-40 40,-40 22,0 40,18 40,40 0,22 -18,40 -40,40z"/>
   <path class="fil35" d="M317 1003c22,0 41,-18 41,-41 0,-22 -19,-41 -41,-41 -23,0 -41,18 -41,41 0,22 18,41 41,41zm0 -1l0 0c-22,0 -40,-18 -40,-39 0,-22 18,-40 40,-40 22,0 39,18 39,40 0,22 -18,39 -39,39z"/>
   <path class="fil36" d="M317 1003c22,0 40,-18 40,-40 0,-22 -18,-40 -40,-40 -22,0 -40,18 -40,40 0,22 18,40 40,40zm0 -1l0 0c-22,0 -39,-17 -39,-39 0,-22 17,-39 39,-39 21,0 39,17 39,39 0,22 -18,39 -39,39z"/>
   <path class="fil130" d="M317 1002c22,0 39,-18 39,-39 0,-22 -18,-40 -39,-40 -22,0 -40,18 -40,40 0,22 18,39 40,39zm0 -1l0 0c-21,0 -38,-17 -38,-38 0,-21 17,-38 38,-38 21,0 38,17 38,38 0,21 -17,38 -38,38z"/>
   <path class="fil38" d="M317 1001c21,0 39,-17 39,-39 0,-22 -18,-39 -39,-39 -22,0 -39,17 -39,39 0,22 17,39 39,39zm0 -1l0 0c-21,0 -38,-17 -38,-37 0,-20 17,-38 38,-38 20,0 38,17 38,38 0,21 -17,37 -38,37z"/>
   <path class="fil39" d="M317 1001c21,0 38,-17 38,-38 0,-21 -17,-38 -38,-38 -21,0 -38,17 -38,38 0,21 17,38 38,38zm0 -1l0 0c-20,0 -37,-16 -37,-37 0,-20 17,-37 37,-37 20,0 37,17 37,37 0,20 -17,37 -37,37z"/>
   <path class="fil40" d="M317 1000c20,0 38,-17 38,-37 0,-20 -17,-38 -38,-38 -21,0 -38,17 -38,38 0,21 17,37 38,37zm0 -1l0 0c-20,0 -36,-16 -36,-36 0,-20 16,-36 36,-36 20,0 36,17 36,36 0,20 -17,36 -36,36z"/>
   <path class="fil41" d="M317 999c20,0 37,-16 37,-37 0,-20 -17,-37 -37,-37 -20,0 -37,17 -37,37 0,20 17,37 37,37zm0 -1l0 0c-20,0 -36,-16 -36,-36 0,-20 16,-36 36,-36 20,0 36,16 36,36 0,20 -16,36 -36,36z"/>
   <path class="fil131" d="M317 999c20,0 36,-16 36,-36 0,-20 -17,-36 -36,-36 -20,0 -36,17 -36,36 0,20 16,36 36,36zm0 -1l0 0c-20,0 -35,-16 -35,-35 0,-19 15,-35 35,-35 19,0 35,16 35,35 0,19 -16,35 -35,35z"/>
   <path class="fil132" d="M317 998c20,0 36,-16 36,-36 0,-20 -16,-36 -36,-36 -20,0 -36,16 -36,36 0,20 16,36 36,36zm0 -1l0 0c-19,0 -34,-15 -34,-34 0,-19 15,-34 34,-34 19,0 34,15 34,34 0,19 -15,34 -34,34z"/>
   <path class="fil44" d="M317 998c19,0 35,-16 35,-35 0,-19 -16,-35 -35,-35 -20,0 -35,16 -35,35 0,19 15,35 35,35zm0 -1l0 0c-18,0 -34,-15 -34,-34 0,-19 15,-34 34,-34 18,0 34,15 34,34 0,18 -15,34 -34,34z"/>
   <path class="fil45" d="M317 997c19,0 34,-15 34,-34 0,-19 -15,-34 -34,-34 -19,0 -34,15 -34,34 0,19 15,34 34,34zm0 -1l0 0c-18,0 -33,-15 -33,-33 0,-19 15,-33 33,-33 18,0 33,15 33,33 0,18 -15,33 -33,33z"/>
   <path class="fil46" d="M317 996c18,0 34,-15 34,-34 0,-19 -15,-34 -34,-34 -18,0 -34,15 -34,34 0,18 15,34 34,34zm0 -1l0 0c-18,0 -32,-15 -32,-32 0,-18 15,-33 32,-33 18,0 32,15 32,33 0,18 -15,32 -32,32z"/>
   <path class="fil103" d="M317 996c18,0 33,-15 33,-33 0,-19 -15,-33 -33,-33 -18,0 -33,15 -33,33 0,18 15,33 33,33zm0 -1l0 0c-18,0 -32,-14 -32,-32 0,-18 14,-32 32,-32 17,0 32,14 32,32 0,18 -15,32 -32,32z"/>
   <path class="fil133" d="M317 995c18,0 32,-15 32,-32 0,-18 -15,-33 -32,-33 -18,0 -32,15 -32,33 0,18 15,32 32,32zm0 -1l0 0c-17,0 -31,-14 -31,-31 0,-17 14,-31 31,-31 17,0 31,14 31,31 0,17 -14,31 -31,31z"/>
   <path class="fil49" d="M317 994c17,0 32,-14 32,-32 0,-18 -15,-32 -32,-32 -18,0 -32,14 -32,32 0,18 14,32 32,32zm0 -1l0 0c-17,0 -31,-13 -31,-30 0,-17 13,-31 31,-31 17,0 30,14 30,31 0,17 -14,30 -30,30z"/>
   <path class="fil134" d="M317 994c17,0 31,-14 31,-31 0,-17 -14,-31 -31,-31 -17,0 -31,14 -31,31 0,17 14,31 31,31zm0 -1l0 0c-17,0 -30,-13 -30,-30 0,-17 13,-30 30,-30 17,0 30,13 30,30 0,16 -13,30 -30,30z"/>
   <path class="fil135" d="M317 993c17,0 30,-13 30,-31 0,-17 -14,-31 -30,-31 -17,0 -31,14 -31,31 0,17 13,31 31,31zm0 -1l0 0c-17,0 -29,-13 -29,-29 0,-16 13,-29 29,-29 16,0 29,13 29,29 0,16 -13,29 -29,29z"/>
   <path class="fil53" d="M317 992c17,0 30,-13 30,-30 0,-17 -13,-30 -30,-30 -17,0 -30,13 -30,30 0,16 13,30 30,30zm0 -1l0 0c-16,0 -29,-13 -29,-29 0,-16 13,-29 29,-29 16,0 29,13 29,29 0,16 -13,29 -29,29z"/>
   <path class="fil53" d="M317 992c16,0 29,-13 29,-29 0,-16 -13,-29 -29,-29 -17,0 -29,13 -29,29 0,16 13,29 29,29zm0 -1l0 0c-15,0 -28,-13 -28,-28 0,-15 13,-28 28,-28 15,0 28,13 28,28 0,15 -13,28 -28,28z"/>
   <path class="fil55" d="M317 991c16,0 29,-13 29,-29 0,-16 -13,-29 -29,-29 -16,0 -29,13 -29,29 0,16 13,29 29,29zm0 -1l0 0c-15,0 -27,-12 -27,-27 0,-15 12,-27 27,-27 15,0 27,12 27,27 0,15 -12,27 -27,27z"/>
   <path class="fil56" d="M317 990c15,0 28,-13 28,-28 0,-15 -13,-28 -28,-28 -15,0 -28,13 -28,28 0,15 13,28 28,28zm0 -1l0 0c-15,0 -27,-12 -27,-27 0,-15 12,-27 27,-27 15,0 27,12 27,27 0,15 -12,27 -27,27z"/>
   <path class="fil57" d="M317 990c15,0 27,-12 27,-27 0,-15 -12,-27 -27,-27 -15,0 -27,12 -27,27 0,15 12,27 27,27zm0 -1l0 0c-15,0 -26,-11 -26,-26 0,-15 11,-26 26,-26 14,0 26,11 26,26 0,15 -12,26 -26,26z"/>
   <path class="fil136" d="M317 989c15,0 27,-12 27,-27 0,-15 -12,-27 -27,-27 -15,0 -27,12 -27,27 0,15 12,27 27,27zm0 -1l0 0c-14,0 -25,-12 -25,-25 0,-14 11,-26 25,-26 14,0 25,11 25,26 0,14 -11,25 -25,25z"/>
   <path class="fil137" d="M317 989c14,0 26,-11 26,-26 0,-15 -12,-26 -26,-26 -15,0 -26,11 -26,26 0,15 11,26 26,26zm0 -1l0 0c-14,0 -25,-11 -25,-25 0,-13 11,-25 25,-25 13,0 25,12 25,25 0,14 -12,25 -25,25z"/>
   <path class="fil138" d="M317 988c14,0 25,-12 25,-25 0,-14 -11,-26 -25,-26 -14,0 -25,11 -25,26 0,14 11,25 25,25zm0 -1l0 0c-13,0 -24,-11 -24,-24 0,-13 11,-24 24,-24 13,0 24,11 24,24 0,13 -11,24 -24,24z"/>
   <path class="fil139" d="M317 987c13,0 25,-11 25,-25 0,-13 -12,-25 -25,-25 -14,0 -25,12 -25,25 0,14 11,25 25,25zm0 -1l0 0c-13,0 -24,-10 -24,-23 0,-13 10,-24 24,-24 13,0 24,11 24,24 0,13 -11,23 -24,23z"/>
   <path class="fil63" d="M317 987c13,0 24,-11 24,-24 0,-13 -11,-24 -24,-24 -13,0 -24,11 -24,24 0,13 11,24 24,24zm0 -1l0 0c-13,0 -23,-10 -23,-23 0,-13 10,-23 23,-23 13,0 23,10 23,23 0,13 -10,23 -23,23z"/>
   <path class="fil64" d="M317 986c13,0 24,-10 24,-24 0,-13 -11,-24 -24,-24 -13,0 -24,11 -24,24 0,13 10,24 24,24zm0 -1l0 0c-13,0 -22,-10 -22,-22 0,-12 10,-22 22,-22 12,0 22,10 22,22 0,12 -10,22 -22,22z"/>
   <path class="fil64" d="M317 985c13,0 23,-10 23,-23 0,-13 -10,-23 -23,-23 -13,0 -23,10 -23,23 0,13 10,23 23,23zm0 -1l0 0c-12,0 -22,-9 -22,-22 0,-12 10,-22 22,-22 12,0 22,9 22,22 0,12 -10,22 -22,22z"/>
   <path class="fil66" d="M317 985c12,0 22,-10 22,-22 0,-12 -10,-22 -22,-22 -13,0 -22,10 -22,22 0,12 10,22 22,22zm0 -1l0 0c-12,0 -21,-10 -21,-21 0,-12 10,-21 21,-21 11,0 21,10 21,21 0,11 -10,21 -21,21z"/>
   <path class="fil140" d="M317 984c12,0 22,-9 22,-22 0,-12 -10,-22 -22,-22 -12,0 -22,9 -22,22 0,12 10,22 22,22zm0 -1l0 0c-12,0 -20,-9 -20,-20 0,-12 9,-20 20,-20 11,0 20,9 20,20 0,11 -10,20 -20,20z"/>
   <path class="fil141" d="M317 983c11,0 21,-10 21,-21 0,-12 -10,-21 -21,-21 -12,0 -21,10 -21,21 0,11 10,21 21,21zm0 -1l0 0c-11,0 -20,-9 -20,-20 0,-11 9,-20 20,-20 11,0 20,9 20,20 0,11 -9,20 -20,20z"/>
   <path class="fil142" d="M317 983c11,0 20,-9 20,-20 0,-12 -10,-20 -20,-20 -12,0 -20,9 -20,20 0,11 9,20 20,20zm0 -1l0 0c-11,0 -19,-8 -19,-19 0,-10 8,-19 19,-19 10,0 19,9 19,19 0,11 -9,19 -19,19z"/>
   <path class="fil143" d="M317 982c11,0 20,-9 20,-20 0,-11 -9,-20 -20,-20 -11,0 -20,9 -20,20 0,11 9,20 20,20zm0 -1l0 0c-10,0 -18,-8 -18,-18 0,-10 8,-19 18,-19 10,0 18,8 18,19 0,10 -8,18 -18,18z"/>
   <path class="fil144" d="M317 981c10,0 19,-8 19,-19 0,-10 -9,-19 -19,-19 -11,0 -19,9 -19,19 0,11 8,19 19,19zm0 -1l0 0c-10,0 -18,-8 -18,-18 0,-10 8,-18 18,-18 10,0 18,8 18,18 0,10 -8,18 -18,18z"/>
   <path class="fil145" d="M317 981c10,0 18,-8 18,-18 0,-10 -8,-19 -18,-19 -10,0 -18,8 -18,19 0,10 8,18 18,18zm0 -1l0 0c-10,0 -17,-8 -17,-17 0,-10 8,-17 17,-17 10,0 17,8 17,17 0,9 -8,17 -17,17z"/>
   <path class="fil146" d="M317 980c10,0 18,-8 18,-18 0,-10 -8,-18 -18,-18 -10,0 -18,8 -18,18 0,10 8,18 18,18zm0 -1l0 0c-10,0 -17,-8 -17,-16 0,-9 7,-17 17,-17 9,0 17,8 17,17 0,9 -8,16 -17,16z"/>
   <path class="fil75" d="M317 980c10,0 17,-8 17,-17 0,-10 -8,-17 -17,-17 -10,0 -17,8 -17,17 0,9 8,17 17,17zm0 -1l0 0c-9,0 -16,-7 -16,-16 0,-9 7,-16 16,-16 9,0 16,7 16,16 0,9 -7,16 -16,16z"/>
   <path class="fil147" d="M317 979c9,0 17,-8 17,-16 0,-9 -8,-17 -17,-17 -10,0 -17,8 -17,17 0,9 7,16 17,16zm0 -1l0 0c-8,0 -15,-7 -15,-15 0,-8 7,-15 15,-15 8,0 15,7 15,15 0,8 -7,15 -15,15z"/>
   <path class="fil78" d="M317 978c9,0 16,-7 16,-16 0,-9 -7,-16 -16,-16 -9,0 -16,7 -16,16 0,9 7,16 16,16zm0 -1l0 0c-8,0 -15,-6 -15,-15 0,-8 6,-15 15,-15 8,0 15,6 15,15 0,8 -6,15 -15,15z"/>
   <path class="fil78" d="M317 978c8,0 15,-7 15,-15 0,-8 -7,-15 -15,-15 -8,0 -15,7 -15,15 0,8 7,15 15,15zm0 -1l0 0c-8,0 -14,-6 -14,-14 0,-8 6,-14 14,-14 8,0 14,6 14,14 0,8 -6,14 -14,14z"/>
   <path class="fil148" d="M317 977c8,0 15,-6 15,-15 0,-8 -6,-15 -15,-15 -8,0 -15,6 -15,15 0,8 6,15 15,15zm0 -1l0 0c-8,0 -13,-6 -13,-13 0,-7 6,-13 13,-13 7,0 13,6 13,13 0,8 -6,13 -13,13z"/>
   <path class="fil149" d="M317 976c8,0 14,-6 14,-14 0,-8 -6,-14 -14,-14 -8,0 -14,6 -14,14 0,8 6,14 14,14zm0 -1l0 0c-7,0 -13,-6 -13,-13 0,-7 6,-13 13,-13 7,0 13,6 13,13 0,7 -6,13 -13,13z"/>
   <path class="fil82" d="M317 976c7,0 13,-6 13,-13 0,-7 -6,-13 -13,-13 -8,0 -13,6 -13,13 0,8 6,13 13,13zm0 -1l0 0c-7,0 -12,-5 -12,-12 0,-6 5,-12 12,-12 6,0 12,6 12,12 0,7 -6,12 -12,12z"/>
   <path class="fil82" d="M317 975c7,0 13,-6 13,-13 0,-7 -6,-13 -13,-13 -7,0 -13,6 -13,13 0,7 6,13 13,13zm0 -1l0 0c-6,0 -12,-5 -12,-11 0,-6 5,-12 12,-12 6,0 11,5 11,12 0,6 -5,11 -11,11z"/>
   <path class="fil84" d="M317 975c6,0 12,-5 12,-12 0,-6 -6,-12 -12,-12 -7,0 -12,6 -12,12 0,7 5,12 12,12zm0 -1l0 0c-6,0 -11,-5 -11,-11 0,-6 4,-11 11,-11 6,0 11,5 11,11 0,6 -5,11 -11,11z"/>
   <path class="fil85" d="M317 974c6,0 11,-5 11,-11 0,-6 -5,-12 -11,-12 -6,0 -12,5 -12,12 0,6 5,11 12,11zm0 -1l0 0c-6,0 -10,-4 -10,-10 0,-6 4,-10 10,-10 6,0 10,4 10,10 0,6 -4,10 -10,10z"/>
   <path class="fil150" d="M317 973c6,0 11,-5 11,-11 0,-6 -5,-11 -11,-11 -6,0 -11,5 -11,11 0,6 4,11 11,11zm0 -1l0 0c-5,0 -10,-4 -10,-9 0,-5 4,-10 10,-10 5,0 10,4 10,10 0,5 -4,9 -10,9z"/>
   <path class="fil87" d="M317 973c6,0 10,-4 10,-10 0,-6 -4,-10 -10,-10 -6,0 -10,4 -10,10 0,6 4,10 10,10zm0 -1l0 0c-5,0 -9,-4 -9,-9 0,-5 4,-9 9,-9 5,0 9,4 9,9 0,5 -4,9 -9,9z"/>
   <path class="fil88" d="M317 972c5,0 10,-4 10,-9 0,-5 -4,-10 -10,-10 -5,0 -10,4 -10,10 0,5 4,9 10,9zm0 -1l0 0c-5,0 -8,-4 -8,-8 0,-4 4,-8 8,-8 4,0 8,4 8,8 0,4 -4,8 -8,8z"/>
   <path class="fil89" d="M317 971c5,0 9,-4 9,-9 0,-5 -4,-9 -9,-9 -5,0 -9,4 -9,9 0,5 4,9 9,9zm0 -1l0 0c-5,0 -8,-3 -8,-8 0,-4 3,-8 8,-8 4,0 8,3 8,8 0,4 -4,8 -8,8z"/>
   <path class="fil90" d="M317 971c4,0 8,-4 8,-8 0,-4 -4,-8 -8,-8 -5,0 -8,4 -8,8 0,4 4,8 8,8zm0 -1l0 0c-4,0 -7,-3 -7,-7 0,-4 3,-7 7,-7 4,0 7,3 7,7 0,4 -3,7 -7,7z"/>
   <path class="fil151" d="M317 970c4,0 8,-3 8,-8 0,-4 -4,-8 -8,-8 -5,0 -8,3 -8,8 0,4 3,8 8,8zm0 -1l0 0c-4,0 -6,-3 -6,-6 0,-3 3,-6 6,-6 3,0 6,3 6,6 0,4 -3,6 -6,6z"/>
   <path class="fil91" d="M317 969c4,0 7,-3 7,-7 0,-4 -3,-7 -7,-7 -4,0 -7,3 -7,7 0,4 3,7 7,7zm0 -1l0 0c-3,0 -6,-2 -6,-6 0,-3 3,-6 6,-6 3,0 6,3 6,6 0,3 -3,6 -6,6z"/>
   <path class="fil92" d="M317 969c3,0 6,-3 6,-6 0,-3 -3,-6 -6,-6 -4,0 -6,3 -6,6 0,4 3,6 6,6zm0 -1l0 0c-3,0 -5,-2 -5,-5 0,-3 2,-5 5,-5 2,0 5,3 5,5 0,3 -3,5 -5,5z"/>
   <path class="fil152" d="M317 968c3,0 6,-2 6,-6 0,-3 -3,-6 -6,-6 -3,0 -6,3 -6,6 0,3 3,6 6,6zm0 -1l0 0c-3,0 -5,-2 -5,-4 0,-3 2,-4 5,-4 2,0 4,2 4,4 0,2 -2,4 -4,4z"/>
   <path class="fil94" d="M317 968c2,0 5,-2 5,-5 0,-3 -3,-5 -5,-5 -3,0 -5,3 -5,5 0,3 2,5 5,5zm0 -1l0 0c-2,0 -4,-2 -4,-4 0,-2 2,-4 4,-4 2,0 4,2 4,4 0,2 -2,4 -4,4z"/>
   <path class="fil153" d="M317 967c2,0 4,-2 4,-4 0,-3 -2,-4 -4,-4 -3,0 -5,2 -5,4 0,2 2,4 5,4zm0 -1l0 0c-2,0 -3,-1 -3,-3 0,-2 1,-3 3,-3 2,0 3,1 3,3 0,2 -1,3 -3,3z"/>
   <path class="fil96" d="M317 966c2,0 4,-2 4,-4 0,-2 -2,-4 -4,-4 -2,0 -4,2 -4,4 0,2 2,4 4,4zm0 -1l0 0c-1,0 -3,-1 -3,-2 0,-1 1,-3 3,-3 1,0 2,1 2,3 0,1 -1,2 -2,2z"/>
   <path class="fil154" d="M317 966c2,0 3,-1 3,-3 0,-2 -1,-3 -3,-3 -2,0 -3,1 -3,3 0,2 1,3 3,3zm0 -1l0 0c-1,0 -2,-1 -2,-2 0,-1 1,-2 2,-2 1,0 2,1 2,2 0,1 -1,2 -2,2z"/>
   <path class="fil98" d="M317 965c1,0 2,-1 2,-2 0,-1 -1,-3 -2,-3 -1,0 -3,1 -3,3 0,1 1,2 3,2zm0 -1l0 0c-1,0 -1,-1 -1,-1 0,-1 1,-1 1,-1 1,0 1,1 1,1 0,1 -1,1 -1,1z"/>
   <path class="fil99" d="M317 964c1,0 2,-1 2,-2 0,-1 -1,-2 -2,-2 -1,0 -2,1 -2,2 0,1 1,2 2,2z"/>
   <path class="fil8" d="M317 964c1,0 1,-1 1,-1 0,-1 -1,-1 -1,-1 -1,0 -1,1 -1,1 0,1 1,1 1,1z"/>
   <path class="fil8" d="M317 963c0,0 1,0 1,-1l-1 -1c-1,0 -1,1 -1,1 0,1 0,1 1,1z"/>
   <path class="fil155" d="M317 954c2,0 4,3 4,5 0,3 -2,4 -4,4 -3,0 -5,-2 -5,-4 0,-3 3,-5 5,-5z"/>
   <path class="fil8" d="M315 1008c-3,1 -3,3 -3,5 1,2 3,3 5,3 4,-2 2,-9 -3,-8z"/>
   <path class="fil9" d="M317 1021c6,0 11,-5 11,-11 0,-6 -5,-11 -11,-11 -6,0 -11,5 -11,11 0,6 4,11 11,11zm0 -1l0 0c-6,0 -10,-5 -10,-10 0,-5 4,-10 10,-10 5,0 10,4 10,10 0,5 -4,10 -10,10z"/>
   <path class="fil15" d="M317 1020c6,0 10,-5 10,-10 0,-6 -4,-10 -10,-10 -6,0 -10,5 -10,10 0,6 4,10 10,10zm0 -1l0 0c-5,0 -9,-4 -9,-9 0,-5 4,-9 9,-9 5,0 9,4 9,9 0,5 -4,9 -9,9z"/>
   <path class="fil21" d="M317 1020c5,0 10,-5 10,-10 0,-5 -4,-10 -10,-10 -6,0 -10,5 -10,10 0,5 4,10 10,10zm0 -1l0 0c-5,0 -8,-4 -8,-8 0,-4 4,-8 8,-8 4,0 8,4 8,8 0,4 -4,8 -8,8z"/>
   <path class="fil27" d="M317 1019c5,0 9,-4 9,-9 0,-5 -4,-9 -9,-9 -5,0 -9,4 -9,9 0,5 4,9 9,9zm0 -1l0 0c-5,0 -8,-3 -8,-8 0,-4 3,-8 8,-8 4,0 8,3 8,8 0,4 -3,8 -8,8z"/>
   <path class="fil33" d="M317 1018c4,0 8,-4 8,-8 0,-4 -4,-8 -8,-8 -5,0 -8,4 -8,8 0,4 4,8 8,8zm0 -1l0 0c-4,0 -7,-3 -7,-7 0,-4 3,-7 7,-7 4,0 7,3 7,7 0,4 -3,7 -7,7z"/>
   <path class="fil39" d="M317 1018c4,0 8,-3 8,-8 0,-4 -3,-8 -8,-8 -5,0 -8,3 -8,8 0,4 3,8 8,8zm0 -1l0 0c-4,0 -6,-3 -6,-6 0,-4 3,-6 6,-6 3,0 6,3 6,6 0,3 -3,6 -6,6z"/>
   <path class="fil44" d="M317 1017c4,0 7,-3 7,-7 0,-4 -3,-7 -7,-7 -4,0 -7,3 -7,7 0,4 3,7 7,7zm0 -1l0 0c-3,0 -6,-3 -6,-6 0,-3 3,-6 6,-6 3,0 6,2 6,6 0,3 -3,6 -6,6z"/>
   <path class="fil50" d="M317 1017c3,0 6,-3 6,-6 0,-4 -3,-6 -6,-6 -4,0 -6,2 -6,6 0,3 3,6 6,6zm0 -1l0 0c-3,0 -5,-3 -5,-5 0,-3 2,-5 5,-5 2,0 5,2 5,5 0,3 -3,5 -5,5z"/>
   <path class="fil56" d="M317 1016c3,0 6,-3 6,-6 0,-3 -3,-6 -6,-6 -3,0 -6,2 -6,6 0,3 3,6 6,6zm0 -1l0 0c-3,0 -5,-2 -5,-4 0,-3 2,-4 5,-4 2,0 4,2 4,4 0,3 -2,4 -4,4z"/>
   <path class="fil62" d="M317 1015c2,0 5,-3 5,-5 0,-3 -3,-5 -5,-5 -3,0 -5,2 -5,5 0,3 2,5 5,5zm0 -1l0 0c-3,0 -4,-2 -4,-4 0,-2 1,-4 4,-4 2,0 4,2 4,4 0,2 -2,4 -4,4z"/>
   <path class="fil68" d="M317 1015c2,0 4,-2 4,-4 0,-3 -2,-4 -4,-4 -3,0 -5,2 -5,4 0,3 2,4 5,4zm0 -1l0 0c-2,0 -3,-1 -3,-3 0,-2 1,-3 3,-3 2,0 3,1 3,3 0,2 -1,3 -3,3z"/>
   <path class="fil74" d="M317 1014c2,0 4,-2 4,-4 0,-2 -2,-4 -4,-4 -3,0 -4,2 -4,4 0,2 1,4 4,4zm0 -1l0 0c-1,0 -3,-1 -3,-3 0,-1 1,-3 3,-3 1,0 2,1 2,3 0,1 -1,3 -2,3z"/>
   <path class="fil80" d="M317 1013c2,0 3,-1 3,-3 0,-2 -1,-3 -3,-3 -2,0 -3,1 -3,3 0,2 1,3 3,3zm0 -1l0 0c-1,0 -2,-1 -2,-2 0,-1 1,-2 2,-2 1,0 2,1 2,2 0,1 -1,2 -2,2z"/>
   <path class="fil86" d="M317 1013c1,0 2,-1 2,-3 0,-1 -1,-3 -2,-3 -1,0 -3,1 -3,3 0,1 1,3 3,3zm0 -1l0 0c-1,0 -1,-1 -1,-1 0,-1 1,-1 1,-1 1,0 1,1 1,1 0,1 -1,1 -1,1z"/>
   <path class="fil91" d="M317 1012c1,0 2,-1 2,-2 0,-1 -1,-2 -2,-2 -1,0 -2,1 -2,2 0,1 1,2 2,2z"/>
   <path class="fil96" d="M317 1011c1,0 1,-1 1,-1 0,-1 -1,-1 -1,-1 -1,0 -1,1 -1,1 0,1 1,1 1,1z"/>
   <path class="fil8" d="M317 1011l1 -1c0,-1 -1,-1 -1,-1 -1,0 -1,0 -1,1 0,0 0,1 1,1z"/>
   <path class="fil9" d="M317 1017c4,0 6,-3 6,-7 0,-4 -3,-7 -6,-7 -4,0 -7,3 -7,7 0,4 3,7 7,7zm0 -2l0 0c-3,0 -6,-2 -6,-5 0,-3 3,-6 6,-6 2,0 5,2 5,6 0,3 -3,5 -5,5z"/>
   <path class="fil114" d="M317 1016c3,0 6,-3 6,-6 0,-3 -3,-6 -6,-6 -3,0 -6,3 -6,6 0,3 3,6 6,6zm0 -1l0 0c-3,0 -5,-2 -5,-4 0,-3 3,-5 5,-5 2,0 4,3 4,5 0,3 -2,4 -4,4z"/>
   <path class="fil31" d="M317 1015c2,0 5,-2 5,-5 0,-3 -3,-6 -5,-6 -3,0 -6,2 -6,6 0,3 3,5 6,5zm0 -1l0 0c-3,0 -5,-2 -5,-4 0,-3 2,-4 5,-4 2,0 4,1 4,4 0,2 -2,4 -4,4z"/>
   <path class="fil41" d="M317 1015c2,0 4,-2 4,-4 0,-3 -2,-5 -4,-5 -3,0 -5,2 -5,5 0,3 3,4 5,4zm0 -1l0 0c-2,0 -3,-1 -3,-3 0,-2 1,-3 3,-3 2,0 3,1 3,3 0,2 -1,3 -3,3z"/>
   <path class="fil115" d="M317 1014c2,0 4,-2 4,-4 0,-3 -2,-4 -4,-4 -3,0 -5,1 -5,4 0,2 2,4 5,4zm0 -1l0 0c-2,0 -3,-1 -3,-3 0,-1 1,-3 3,-3 1,0 2,1 2,3 0,1 -1,3 -2,3z"/>
   <path class="fil116" d="M317 1013c2,0 3,-1 3,-3 0,-2 -1,-3 -3,-3 -2,0 -3,1 -3,3 0,2 1,3 3,3zm0 -1l0 0c-1,0 -2,-1 -2,-2 0,-1 1,-2 2,-2 1,0 2,1 2,2 0,1 -1,2 -2,2z"/>
   <path class="fil72" d="M317 1013c1,0 2,-1 2,-3 0,-1 -1,-3 -2,-3 -2,0 -3,1 -3,3 0,1 1,3 3,3zm0 -1l0 0c-1,0 -1,-1 -1,-1 0,-1 1,-1 1,-1 1,0 1,1 1,1 0,1 -1,1 -1,1z"/>
   <path class="fil82" d="M317 1012c1,0 2,-1 2,-2 0,-1 -1,-2 -2,-2 -1,0 -2,1 -2,2 0,1 1,2 2,2z"/>
   <path class="fil117" d="M317 1011c1,0 1,-1 1,-1 0,-1 -1,-1 -1,-1 -1,0 -1,1 -1,1 0,1 1,1 1,1z"/>
   <path class="fil8" d="M317 1011l1 -1c0,-1 -1,-1 -1,-1 -1,0 -1,0 -1,1 0,0 0,1 1,1z"/>
   <path class="fil8" d="M56 719l0 199c0,54 44,98 98,98 54,0 98,-44 98,-98l0 -199c0,-54 -44,-98 -98,-98 -54,0 -98,44 -98,98z"/>
   <path class="fil156" d="M144 936c0,5 4,10 10,10 5,0 10,-4 10,-10 0,-5 -4,-10 -10,-10 -5,0 -10,4 -10,10z"/>
   <path class="fil156" d="M870 996c44,0 79,-35 79,-79 0,-44 -36,-79 -79,-79 -44,0 -79,35 -79,79 0,44 36,79 79,79z"/>
   <path class="fil156" d="M870 991c41,0 75,-34 75,-75 0,-41 -34,-75 -75,-75 -41,0 -75,34 -75,75 0,41 34,75 75,75z"/>
   <path class="fil156" d="M870 987c39,0 71,-32 71,-71 0,-39 -32,-71 -71,-71 -39,0 -71,32 -71,71 0,39 32,71 71,71z"/>
   <path class="fil8" d="M870 986c38,0 70,-31 70,-70 0,-38 -31,-70 -70,-70 -39,0 -70,31 -70,70 0,38 31,70 70,70z"/>
   <path class="fil157" d="M870 985c38,0 69,-31 69,-69 0,-38 -31,-69 -69,-69 -38,0 -69,31 -69,69 0,38 31,69 69,69z"/>
   <path class="fil158" d="M870 984c37,0 68,-30 68,-68 0,-37 -30,-68 -68,-68 -37,0 -68,30 -68,68 0,37 30,68 68,68z"/>
   <path class="fil159" d="M870 983c37,0 67,-30 67,-67 0,-37 -30,-67 -67,-67 -37,0 -67,30 -67,67 0,37 30,67 67,67z"/>
   <path class="fil98" d="M870 982c36,0 66,-29 66,-66 0,-36 -29,-66 -66,-66 -36,0 -66,29 -66,66 0,36 29,66 66,66z"/>
   <path class="fil154" d="M870 981c36,0 65,-29 65,-65 0,-36 -29,-65 -65,-65 -36,0 -65,29 -65,65 0,36 29,65 65,65z"/>
   <path class="fil97" d="M870 980c35,0 64,-29 64,-64 0,-35 -29,-64 -64,-64 -35,0 -64,29 -64,64 0,35 29,64 64,64z"/>
   <path class="fil160" d="M870 979c35,0 63,-28 63,-63 0,-35 -28,-63 -63,-63 -35,0 -63,28 -63,63 0,35 28,63 63,63z"/>
   <path class="fil161" d="M870 978c34,0 62,-28 62,-62 0,-34 -28,-62 -62,-62 -34,0 -62,28 -62,62 0,34 28,62 62,62z"/>
   <path class="fil162" d="M870 977c34,0 61,-27 61,-61 0,-34 -27,-61 -61,-61 -34,0 -61,27 -61,61 0,34 27,61 61,61z"/>
   <path class="fil152" d="M870 976c33,0 60,-27 60,-60 0,-33 -27,-60 -60,-60 -33,0 -60,27 -60,60 0,33 27,60 60,60z"/>
   <path class="fil163" d="M870 975c32,0 59,-26 59,-59 0,-33 -26,-59 -59,-59 -33,0 -59,26 -59,59 0,33 26,59 59,59z"/>
   <path class="fil93" d="M870 974c32,0 58,-26 58,-58 0,-32 -26,-58 -58,-58 -32,0 -58,26 -58,58 0,32 26,58 58,58z"/>
   <path class="fil164" d="M870 973c31,0 57,-25 57,-57 0,-31 -26,-57 -57,-57 -31,0 -57,25 -57,57 0,31 26,57 57,57z"/>
   <path class="fil165" d="M870 972c31,0 56,-25 56,-56 0,-31 -25,-56 -56,-56 -31,0 -56,25 -56,56 0,31 25,56 56,56z"/>
   <path class="fil166" d="M870 971c30,0 55,-25 55,-55 0,-30 -25,-55 -55,-55 -30,0 -55,25 -55,55 0,30 25,55 55,55z"/>
   <path class="fil167" d="M870 970c30,0 54,-24 54,-54 0,-30 -24,-54 -54,-54 -30,0 -54,24 -54,54 0,30 24,54 54,54z"/>
   <path class="fil168" d="M870 969c29,0 53,-24 53,-53 0,-29 -24,-53 -53,-53 -29,0 -53,24 -53,53 0,29 24,53 53,53z"/>
   <path class="fil169" d="M870 968c29,0 52,-23 52,-52 0,-29 -23,-52 -52,-52 -29,0 -52,23 -52,52 0,29 23,52 52,52z"/>
   <path class="fil90" d="M870 967c28,0 51,-23 51,-51 0,-28 -23,-51 -51,-51 -28,0 -51,23 -51,51 0,28 23,51 51,51z"/>
   <path class="fil170" d="M870 966c28,0 50,-22 50,-50 0,-28 -22,-50 -50,-50 -28,0 -50,22 -50,50 0,28 22,50 50,50z"/>
   <path class="fil171" d="M870 965c27,0 49,-22 49,-49 0,-27 -22,-49 -49,-49 -27,0 -49,22 -49,49 0,27 22,49 49,49z"/>
   <path class="fil172" d="M870 964c27,0 48,-22 48,-48 0,-27 -22,-48 -48,-48 -27,0 -48,22 -48,48 0,27 22,48 48,48z"/>
   <path class="fil173" d="M870 963c26,0 47,-21 47,-47 0,-26 -21,-47 -47,-47 -26,0 -47,21 -47,47 0,26 21,47 47,47z"/>
   <path class="fil174" d="M870 962c25,0 46,-21 46,-46 0,-25 -21,-46 -46,-46 -26,0 -46,21 -46,46 0,25 21,46 46,46z"/>
   <path class="fil150" d="M870 961c25,0 45,-20 45,-45 0,-25 -20,-45 -45,-45 -25,0 -45,20 -45,45 0,25 20,45 45,45z"/>
   <path class="fil150" d="M870 960c24,0 44,-20 44,-44 0,-24 -20,-44 -44,-44 -24,0 -44,20 -44,44 0,24 20,44 44,44z"/>
   <path class="fil175" d="M870 959c24,0 43,-19 43,-43 0,-24 -19,-43 -43,-43 -24,0 -43,19 -43,43 0,24 19,43 43,43z"/>
   <path class="fil176" d="M870 958c23,0 42,-19 42,-42 0,-23 -19,-42 -42,-42 -23,0 -42,19 -42,42 0,23 19,42 42,42z"/>
   <path class="fil177" d="M870 957c23,0 41,-18 41,-41 0,-23 -18,-41 -41,-41 -23,0 -41,18 -41,41 0,23 18,41 41,41z"/>
   <path class="fil178" d="M870 957c22,0 40,-18 40,-40 0,-22 -18,-40 -40,-40 -22,0 -40,18 -40,40 0,22 18,40 40,40z"/>
   <path class="fil179" d="M870 956c22,0 39,-18 39,-39 0,-22 -18,-39 -39,-39 -22,0 -39,18 -39,39 0,22 18,39 39,39z"/>
   <path class="fil180" d="M870 955c21,0 38,-17 38,-38 0,-21 -17,-38 -38,-38 -21,0 -38,17 -38,38 0,21 17,38 38,38z"/>
   <path class="fil181" d="M870 954c21,0 37,-17 37,-37 0,-21 -17,-37 -37,-37 -21,0 -37,17 -37,37 0,21 17,37 37,37z"/>
   <path class="fil182" d="M870 953c20,0 36,-16 36,-36 0,-20 -16,-36 -36,-36 -20,0 -36,16 -36,36 0,20 16,36 36,36z"/>
   <path class="fil183" d="M870 952c19,0 35,-16 35,-35 0,-20 -16,-35 -35,-35 -20,0 -35,16 -35,35 0,20 16,35 35,35z"/>
   <path class="fil184" d="M870 951c19,0 34,-15 34,-34 0,-19 -15,-34 -34,-34 -19,0 -34,15 -34,34 0,19 15,34 34,34z"/>
   <path class="fil185" d="M870 950c18,0 33,-15 33,-33 0,-18 -15,-33 -33,-33 -18,0 -33,15 -33,33 0,18 15,33 33,33z"/>
   <path class="fil186" d="M870 949c18,0 32,-15 32,-32 0,-18 -14,-32 -32,-32 -18,0 -32,15 -32,32 0,18 15,32 32,32z"/>
   <path class="fil187" d="M870 948c17,0 31,-14 31,-31 0,-17 -14,-31 -31,-31 -17,0 -31,14 -31,31 0,17 14,31 31,31z"/>
   <path class="fil188" d="M870 947c17,0 30,-14 30,-30 0,-17 -14,-30 -30,-30 -17,0 -30,14 -30,30 0,17 14,30 30,30z"/>
   <path class="fil189" d="M870 946c16,0 29,-13 29,-29 0,-16 -13,-29 -29,-29 -16,0 -29,13 -29,29 0,16 13,29 29,29z"/>
   <path class="fil147" d="M870 945c16,0 29,-13 29,-28 0,-16 -13,-28 -29,-28 -16,0 -28,13 -28,28 0,16 13,28 28,28z"/>
   <path class="fil190" d="M870 944c15,0 27,-12 27,-27 0,-15 -12,-27 -27,-27 -15,0 -28,12 -28,27 0,15 12,27 28,27z"/>
   <path class="fil191" d="M870 943c15,0 26,-12 26,-27 0,-15 -12,-27 -26,-27 -15,0 -27,12 -27,27 0,15 12,27 27,27z"/>
   <path class="fil192" d="M870 942c14,0 25,-11 25,-26 0,-14 -11,-26 -25,-26 -14,0 -26,11 -26,26 0,14 11,26 26,26z"/>
   <path class="fil193" d="M870 941c14,0 25,-11 25,-25 0,-14 -11,-25 -25,-25 -14,0 -25,11 -25,25 0,14 11,25 25,25z"/>
   <path class="fil194" d="M870 940c13,0 24,-11 24,-24 0,-13 -11,-24 -24,-24 -13,0 -24,11 -24,24 0,13 11,24 24,24z"/>
   <path class="fil195" d="M870 939c12,0 23,-10 23,-23 0,-12 -10,-23 -23,-23 -13,0 -23,10 -23,23 0,12 10,23 23,23z"/>
   <path class="fil196" d="M870 938c12,0 22,-10 22,-22 0,-12 -10,-22 -22,-22 -12,0 -22,10 -22,22 0,12 10,22 22,22z"/>
   <path class="fil197" d="M870 937c11,0 21,-9 21,-21 0,-11 -9,-21 -21,-21 -11,0 -21,9 -21,21 0,11 9,21 21,21z"/>
   <path class="fil198" d="M870 936c11,0 20,-9 20,-20 0,-11 -9,-20 -20,-20 -11,0 -20,9 -20,20 0,11 9,20 20,20z"/>
   <path class="fil199" d="M870 935c10,0 19,-8 19,-19 0,-10 -8,-19 -19,-19 -10,0 -19,8 -19,19 0,10 8,19 19,19z"/>
   <path class="fil200" d="M870 934c10,0 18,-8 18,-18 0,-10 -8,-18 -18,-18 -10,0 -18,8 -18,18 0,10 8,18 18,18z"/>
   <path class="fil201" d="M870 933c9,0 17,-7 17,-17 0,-9 -7,-17 -17,-17 -9,0 -17,7 -17,17 0,9 7,17 17,17z"/>
   <path class="fil202" d="M870 932c9,0 16,-7 16,-16 0,-9 -7,-16 -16,-16 -9,0 -16,7 -16,16 0,9 7,16 16,16z"/>
   <path class="fil202" d="M870 931c8,0 15,-7 15,-15 0,-8 -7,-15 -15,-15 -8,0 -15,7 -15,15 0,8 7,15 15,15z"/>
   <path class="fil203" d="M870 930c8,0 14,-6 14,-14 0,-8 -6,-14 -14,-14 -8,0 -14,6 -14,14 0,8 6,14 14,14z"/>
   <path class="fil204" d="M870 929c7,0 13,-6 13,-13 0,-7 -6,-13 -13,-13 -7,0 -13,6 -13,13 0,7 6,13 13,13z"/>
   <path class="fil205" d="M870 928c6,0 12,-5 12,-12 0,-6 -5,-12 -12,-12 -7,0 -12,5 -12,12 0,7 5,12 12,12z"/>
   <path class="fil206" d="M870 927c6,0 11,-5 11,-11 0,-6 -5,-11 -11,-11 -6,0 -11,5 -11,11 0,6 5,11 11,11z"/>
   <path class="fil207" d="M870 926c5,0 10,-4 10,-10 0,-5 -4,-10 -10,-10 -5,0 -10,4 -10,10 0,5 4,10 10,10z"/>
   <path class="fil208" d="M870 925c5,0 9,-4 9,-9 0,-5 -4,-9 -9,-9 -5,0 -9,4 -9,9 0,5 4,9 9,9z"/>
   <path class="fil209" d="M870 924c4,0 8,-4 8,-8 0,-4 -3,-8 -8,-8 -4,0 -8,4 -8,8 0,4 4,8 8,8z"/>
   <path class="fil210" d="M870 923c4,0 7,-3 7,-7 0,-4 -3,-7 -7,-7 -4,0 -7,3 -7,7 0,4 3,7 7,7z"/>
   <path class="fil211" d="M870 922c3,0 6,-3 6,-6 0,-3 -3,-6 -6,-6 -3,0 -6,3 -6,6 0,3 3,6 6,6z"/>
   <path class="fil212" d="M870 921c3,0 5,-2 5,-5 0,-3 -2,-5 -5,-5 -3,0 -5,2 -5,5 0,3 2,5 5,5z"/>
   <path class="fil213" d="M870 920c2,0 4,-2 4,-4 0,-2 -2,-4 -4,-4 -2,0 -4,2 -4,4 0,2 2,4 4,4z"/>
   <path class="fil214" d="M870 919c2,0 3,-1 3,-3 0,-2 -1,-3 -3,-3 -2,0 -3,1 -3,3 0,2 1,3 3,3z"/>
   <path class="fil215" d="M870 918c1,0 2,-1 2,-2 0,-1 -1,-2 -2,-2 -1,0 -2,1 -2,2 0,1 1,2 2,2z"/>
   <path class="fil216" d="M870 917c1,0 1,0 1,-1 0,-1 0,-1 -1,-1 -1,0 -1,0 -1,1 0,1 0,1 1,1z"/>
   <polygon class="fil217" points="792,836 949,836 949,996 792,996 "/>
   <path class="fil218" d="M955 1002l-169 0 0 -172 169 0 0 172zm-157 -12l0 0 145 0 0 -148 -145 0 0 148z"/>
   <path class="fil218" d="M808 647c0,41 33,74 74,74 41,0 74,-33 74,-74 0,-41 -33,-74 -74,-74 -41,0 -74,33 -74,74z"/>
   <path class="fil219" d="M809 647c0,40 33,73 73,73 40,0 73,-33 73,-73 0,-40 -33,-73 -73,-73 -40,0 -73,33 -73,73z"/>
   <path class="fil220" d="M810 647c0,40 32,72 72,72 40,0 72,-32 72,-72 0,-40 -32,-72 -72,-72 -40,0 -72,32 -72,72z"/>
   <path class="fil221" d="M811 647c0,39 32,71 71,71 39,0 71,-32 71,-71 0,-39 -32,-71 -71,-71 -39,0 -71,32 -71,71z"/>
   <path class="fil222" d="M812 647c0,39 31,70 70,70 39,0 70,-31 70,-70 0,-39 -31,-70 -70,-70 -39,0 -70,31 -70,70z"/>
   <path class="fil223" d="M813 647c0,38 31,69 69,69 38,0 69,-31 69,-69 0,-38 -31,-69 -69,-69 -38,0 -69,31 -69,69z"/>
   <path class="fil224" d="M814 647c0,38 30,68 68,68 38,0 68,-30 68,-68 0,-37 -30,-68 -68,-68 -37,0 -68,30 -68,68z"/>
   <path class="fil225" d="M815 647c0,37 30,67 67,67 37,0 67,-30 67,-67 0,-37 -30,-67 -67,-67 -37,0 -67,30 -67,67z"/>
   <path class="fil226" d="M816 647c0,36 29,66 66,66 36,0 66,-29 66,-66 0,-36 -29,-66 -66,-66 -36,0 -66,29 -66,66z"/>
   <path class="fil227" d="M817 647c0,36 29,65 65,65 36,0 65,-29 65,-65 0,-36 -29,-65 -65,-65 -36,0 -65,29 -65,65z"/>
   <path class="fil228" d="M818 647c0,35 29,64 64,64 35,0 64,-29 64,-64 0,-35 -29,-64 -64,-64 -35,0 -64,29 -64,64z"/>
   <path class="fil229" d="M819 647c0,35 28,63 63,63 35,0 63,-28 63,-63 0,-35 -28,-63 -63,-63 -35,0 -63,28 -63,63z"/>
   <path class="fil230" d="M820 647c0,34 28,62 62,62 34,0 62,-28 62,-62 0,-34 -28,-62 -62,-62 -34,0 -62,28 -62,62z"/>
   <path class="fil231" d="M821 647c0,34 27,61 61,61 34,0 61,-27 61,-61 0,-33 -27,-61 -61,-61 -34,0 -61,27 -61,61z"/>
   <path class="fil232" d="M822 647c0,33 27,60 60,60 33,0 60,-27 60,-60 0,-33 -27,-60 -60,-60 -33,0 -60,27 -60,60z"/>
   <path class="fil233" d="M823 647c0,32 26,59 59,59 32,0 59,-26 59,-59 0,-32 -26,-59 -59,-59 -32,0 -59,26 -59,59z"/>
   <path class="fil234" d="M824 647c0,32 26,58 58,58 32,0 58,-26 58,-58 0,-32 -26,-58 -58,-58 -32,0 -58,26 -58,58z"/>
   <path class="fil235" d="M825 647c0,31 25,57 57,57 31,0 57,-25 57,-57 0,-31 -25,-57 -57,-57 -31,0 -57,25 -57,57z"/>
   <path class="fil236" d="M826 647c0,31 25,56 56,56 31,0 56,-25 56,-56 0,-31 -25,-55 -56,-55 -31,0 -56,25 -56,55z"/>
   <path class="fil237" d="M827 647c0,30 24,55 55,55 30,0 55,-24 55,-55 0,-30 -24,-54 -55,-54 -30,0 -55,24 -55,54z"/>
   <path class="fil238" d="M828 647c0,30 24,54 53,54 30,0 54,-24 54,-54 0,-29 -24,-53 -54,-53 -30,0 -53,24 -53,53z"/>
   <path class="fil239" d="M829 647c0,29 24,53 53,53 29,0 53,-23 53,-53 0,-29 -24,-52 -53,-52 -29,0 -53,23 -53,52z"/>
   <path class="fil240" d="M830 647c0,28 23,52 51,52 28,0 51,-23 51,-52 0,-28 -23,-51 -51,-51 -28,0 -51,23 -51,51z"/>
   <path class="fil241" d="M831 647c0,28 23,50 50,50 28,0 50,-22 50,-50 0,-28 -23,-50 -50,-50 -28,0 -50,23 -50,50z"/>
   <path class="fil242" d="M832 647c0,27 22,49 49,49 27,0 49,-22 49,-49 0,-27 -22,-49 -49,-49 -27,0 -49,22 -49,49z"/>
   <path class="fil243" d="M833 647c0,27 22,48 48,48 27,0 48,-22 48,-48 0,-27 -22,-48 -48,-48 -27,0 -48,22 -48,48z"/>
   <path class="fil244" d="M834 647c0,26 21,47 47,47 26,0 47,-21 47,-47 0,-26 -21,-47 -47,-47 -26,0 -47,21 -47,47z"/>
   <path class="fil245" d="M835 647c0,26 21,46 46,46 26,0 46,-21 46,-46 0,-26 -21,-46 -46,-46 -26,0 -46,21 -46,46z"/>
   <path class="fil246" d="M837 647c0,25 20,45 45,45 25,0 45,-20 45,-45 0,-25 -20,-45 -45,-45 -25,0 -45,20 -45,45z"/>
   <path class="fil247" d="M837 647c0,24 20,44 44,44 24,0 44,-20 44,-44 0,-24 -20,-44 -44,-44 -24,0 -44,20 -44,44z"/>
   <path class="fil248" d="M839 647c0,24 19,43 43,43 24,0 43,-19 43,-43 0,-24 -19,-43 -43,-43 -24,0 -43,19 -43,43z"/>
   <path class="fil249" d="M840 647c0,23 19,42 42,42 23,0 42,-19 42,-42 0,-23 -19,-42 -42,-42 -23,0 -42,19 -42,42z"/>
   <path class="fil250" d="M841 647c0,23 18,41 41,41 23,0 41,-18 41,-41 0,-23 -18,-41 -41,-41 -23,0 -41,18 -41,41z"/>
   <path class="fil251" d="M842 647c0,22 18,40 40,40 22,0 40,-18 40,-40 0,-22 -18,-40 -40,-40 -22,0 -40,18 -40,40z"/>
   <path class="fil252" d="M843 647c0,22 17,39 39,39 22,0 39,-18 39,-39 0,-22 -18,-39 -39,-39 -22,0 -39,17 -39,39z"/>
   <path class="fil253" d="M844 647c0,21 17,38 38,38 21,0 38,-17 38,-38 0,-21 -17,-38 -38,-38 -21,0 -38,17 -38,38z"/>
   <path class="fil254" d="M845 647c0,20 17,37 37,37 20,0 37,-17 37,-37 0,-20 -17,-37 -37,-37 -20,0 -37,17 -37,37z"/>
   <path class="fil255" d="M846 647c0,20 16,36 36,36 20,0 36,-16 36,-36 0,-20 -16,-36 -36,-36 -20,0 -36,16 -36,36z"/>
   <path class="fil255" d="M847 647c0,19 16,35 35,35 19,0 35,-16 35,-35 0,-19 -16,-35 -35,-35 -19,0 -35,16 -35,35z"/>
   <path class="fil256" d="M848 647c0,19 15,34 34,34 19,0 34,-15 34,-34 0,-19 -15,-34 -34,-34 -19,0 -34,15 -34,34z"/>
   <path class="fil256" d="M849 647c0,18 15,33 33,33 18,0 33,-15 33,-33 0,-18 -15,-33 -33,-33 -18,0 -33,15 -33,33z"/>
   <path class="fil257" d="M850 647c0,18 14,32 32,32 18,0 32,-14 32,-32 0,-18 -14,-32 -32,-32 -18,0 -32,14 -32,32z"/>
   <path class="fil257" d="M851 647c0,17 14,31 31,31 17,0 31,-14 31,-31 0,-17 -14,-31 -31,-31 -17,0 -31,14 -31,31z"/>
   <path class="fil257" d="M852 647c0,17 13,30 30,30 17,0 30,-13 30,-30 0,-16 -13,-30 -30,-30 -17,0 -30,13 -30,30z"/>
   <path class="fil258" d="M853 647c0,16 13,29 29,29 16,0 29,-13 29,-29 0,-16 -13,-29 -29,-29 -16,0 -29,13 -29,29z"/>
   <path class="fil258" d="M854 647c0,15 12,28 28,28 15,0 28,-12 28,-28 0,-15 -12,-28 -28,-28 -15,0 -28,12 -28,28z"/>
   <path class="fil259" d="M855 647c0,15 12,27 27,27 15,0 27,-12 27,-27 0,-15 -12,-27 -27,-27 -15,0 -27,12 -27,27z"/>
   <path class="fil260" d="M856 647c0,14 12,26 26,26 14,0 26,-12 26,-26 0,-14 -12,-26 -26,-26 -14,0 -26,12 -26,26z"/>
   <path class="fil260" d="M857 647c0,14 11,25 25,25 14,0 25,-11 25,-25 0,-14 -11,-25 -25,-25 -14,0 -25,11 -25,25z"/>
   <path class="fil260" d="M858 647c0,13 11,24 24,24 13,0 24,-11 24,-24 0,-13 -11,-24 -24,-24 -13,0 -24,11 -24,24z"/>
   <path class="fil260" d="M859 647c0,13 10,23 23,23 13,0 23,-10 23,-23 0,-12 -10,-23 -23,-23 -13,0 -23,10 -23,23z"/>
   <path class="fil260" d="M860 647c0,12 10,22 22,22 12,0 22,-10 22,-22 0,-12 -10,-22 -22,-22 -12,0 -22,10 -22,22z"/>
   <path class="fil260" d="M861 647c0,11 9,21 21,21 11,0 21,-9 21,-21 0,-11 -9,-21 -21,-21 -11,0 -21,9 -21,21z"/>
   <path class="fil217" d="M862 647c0,11 9,20 20,20 11,0 20,-9 20,-20 0,-11 -9,-20 -20,-20 -11,0 -20,9 -20,20z"/>
   <path class="fil217" d="M863 647c0,10 8,19 19,19 10,0 19,-8 19,-19 0,-10 -8,-18 -19,-18 -10,0 -19,8 -19,18z"/>
   <path class="fil217" d="M864 647c0,10 8,18 17,18 10,0 18,-8 18,-18 0,-10 -8,-17 -18,-17 -10,0 -17,8 -17,17z"/>
   <path class="fil217" d="M865 647c0,9 7,17 16,17 9,0 16,-7 16,-17 0,-9 -7,-16 -16,-16 -9,0 -16,7 -16,16z"/>
   <path class="fil217" d="M866 647c0,9 7,15 15,15 9,0 15,-7 15,-15 0,-8 -7,-15 -15,-15 -8,0 -15,7 -15,15z"/>
   <path class="fil217" d="M867 647c0,8 6,14 14,14 8,0 14,-6 14,-14 0,-8 -6,-14 -14,-14 -8,0 -14,6 -14,14z"/>
   <path class="fil217" d="M868 647c0,7 6,13 13,13 7,0 13,-6 13,-13 0,-7 -6,-13 -13,-13 -7,0 -13,6 -13,13z"/>
   <path class="fil217" d="M869 647c0,7 6,12 12,12 7,0 12,-6 12,-12 0,-7 -6,-12 -12,-12 -7,0 -12,6 -12,12z"/>
   <path class="fil217" d="M870 647c0,6 5,11 11,11 6,0 11,-5 11,-11 0,-6 -5,-11 -11,-11 -6,0 -11,5 -11,11z"/>
   <path class="fil217" d="M871 647c0,6 5,10 10,10 6,0 10,-5 10,-10 0,-6 -5,-10 -10,-10 -6,0 -10,5 -10,10z"/>
   <path class="fil217" d="M873 647c0,5 4,9 9,9 5,0 9,-4 9,-9 0,-5 -4,-9 -9,-9 -5,0 -9,4 -9,9z"/>
   <path class="fil217" d="M874 647c0,5 4,8 8,8 5,0 8,-4 8,-8 0,-4 -4,-8 -8,-8 -4,0 -8,4 -8,8z"/>
   <path class="fil217" d="M875 647c0,4 3,7 7,7 4,0 7,-3 7,-7 0,-4 -3,-7 -7,-7 -4,0 -7,3 -7,7z"/>
   <path class="fil217" d="M876 647c0,3 3,6 6,6 3,0 6,-3 6,-6 0,-3 -3,-6 -6,-6 -3,0 -6,3 -6,6z"/>
   <path class="fil217" d="M877 647c0,3 2,5 5,5 3,0 5,-2 5,-5 0,-3 -2,-5 -5,-5 -3,0 -5,2 -5,5z"/>
   <path class="fil217" d="M878 647c0,2 2,4 4,4 2,0 4,-2 4,-4 0,-2 -2,-4 -4,-4 -2,0 -4,2 -4,4z"/>
   <path class="fil217" d="M879 647c0,2 1,3 3,3 2,0 3,-1 3,-3 0,-2 -1,-3 -3,-3 -2,0 -3,1 -3,3z"/>
   <path class="fil217" d="M880 647c0,1 1,2 2,2 1,0 2,-1 2,-2 0,-1 -1,-2 -2,-2 -1,0 -2,1 -2,2z"/>
   <path class="fil217" d="M881 647c0,1 0,1 1,1 1,0 1,-1 1,-1 0,-1 0,-1 -1,-1 -1,0 -1,0 -1,1z"/>
   <path class="fil261" d="M809 708l0 -121c0,-8 7,-15 15,-15l116 0c8,0 15,7 15,15l0 121c0,8 -7,15 -15,15l-116 0c-8,0 -15,-7 -15,-15z"/>
   <path class="fil262" d="M940 725l-116 0c-10,0 -18,-8 -18,-18l0 -121c0,-10 8,-18 18,-18l116 0c10,0 18,8 18,18l0 121c0,10 -8,18 -18,18zm-116 -150l0 0c-6,0 -12,5 -12,12l0 121c0,6 5,12 12,12l116 0c6,0 12,-5 12,-12l0 -121c0,-7 -5,-12 -12,-12l-116 0z"/>
   <path class="fil263" d="M882 676c0,-16 13,-29 29,-29 16,0 29,13 29,29 0,16 -13,29 -29,29 -16,0 -29,-13 -29,-29z"/>
   <path class="fil263" d="M824 618c0,-16 13,-29 29,-29 16,0 29,13 29,29 0,16 -13,29 -29,29 -16,0 -29,-13 -29,-29z"/>
   <path class="fil263" d="M893 613c0,-12 10,-22 22,-22 12,0 22,10 22,22 0,12 -10,22 -22,22 -12,0 -22,-10 -22,-22z"/>
   <path class="fil263" d="M825 678c0,-12 10,-22 22,-22 12,0 22,10 22,22 0,12 -10,22 -22,22 -12,0 -22,-10 -22,-22z"/>
   <polygon class="fil120" points="429,1055 623,1055 623,941 429,941 "/>
   <polygon class="fil3" points="446,1025 607,1025 607,956 446,956 "/>
   <polygon class="fil5" points="1311,1022 1270,1022 1270,1013 1302,1013 1302,981 1311,981 "/>
   <path class="fil5" d="M1236 1022l-68 0 0 -9 68 0 0 9zm-102 0l0 0 -68 0 0 -9 68 0 0 9zm-102 0l0 0 -68 0 0 -9 68 0 0 9zm-102 0l0 0 -68 0 0 -9 68 0 0 9z"/>
   <polygon class="fil5" points="828,1022 787,1022 787,981 796,981 796,1013 828,1013 "/>
   <path class="fil5" d="M796 944l-9 0 0 -75 9 0 0 75zm0 -113l0 0 -9 0 0 -75 9 0 0 75zm0 -113l0 0 -9 0 0 -75 9 0 0 75zm0 -113l0 0 -9 0 0 -75 9 0 0 75zm0 -113l0 0 -9 0 0 -75 9 0 0 75z"/>
   <polygon class="fil5" points="796,379 787,379 787,337 828,337 828,347 796,347 "/>
   <path class="fil5" d="M1236 347l-68 0 0 -9 68 0 0 9zm-102 0l0 0 -68 0 0 -9 68 0 0 9zm-102 0l0 0 -68 0 0 -9 68 0 0 9zm-102 0l0 0 -68 0 0 -9 68 0 0 9z"/>
   <polygon class="fil5" points="1311,379 1302,379 1302,347 1270,347 1270,337 1311,337 "/>
   <path class="fil5" d="M1311 944l-9 0 0 -75 9 0 0 75zm0 -113l0 0 -9 0 0 -75 9 0 0 75zm0 -113l0 0 -9 0 0 -75 9 0 0 75zm0 -113l0 0 -9 0 0 -75 9 0 0 75zm0 -113l0 0 -9 0 0 -75 9 0 0 75z"/>
   <path class="fil5" d="M2332 422c0,7 -2,13 -6,18 -4,5 -10,8 -18,10l0 0c9,1 16,4 21,8 5,4 7,10 7,18 0,11 -4,19 -12,25 -8,6 -19,9 -34,9 -12,0 -23,-2 -32,-6l0 -20c4,2 9,4 14,5 5,1 10,2 16,2 8,0 14,-1 17,-4 4,-3 6,-7 6,-13 0,-5 -2,-9 -6,-11 -4,-2 -11,-3 -21,-3l-8 0 0 -18 9 0c9,0 15,-1 19,-3 4,-2 6,-6 6,-12 0,-8 -5,-13 -16,-13 -4,0 -7,1 -11,2 -4,1 -8,3 -13,6l-11 -16c10,-7 22,-11 37,-11 12,0 21,2 27,7 7,5 10,11 10,20z"/>
   <path class="fil5" d="M2376 492c-3,10 -7,23 -14,37l-17 0c3,-14 6,-26 8,-38l21 0 1 2z"/>
   <path class="fil5" d="M2471 453c0,20 -3,34 -10,43 -6,9 -16,14 -30,14 -13,0 -23,-5 -29,-15 -7,-10 -10,-24 -10,-43 0,-20 3,-34 10,-44 6,-9 16,-14 30,-14 13,0 23,5 29,15 7,10 10,24 10,43zm-55 0l0 0c0,14 1,24 4,30 2,6 6,9 12,9 6,0 9,-3 12,-9 2,-6 4,-16 4,-29 0,-14 -1,-24 -4,-30 -2,-6 -6,-9 -12,-9 -6,0 -10,3 -12,9 -2,6 -4,16 -4,30z"/>
   <path class="fil264" d="M1582 438c-24,0 -42,10 -55,29 -13,19 -20,46 -20,80 0,70 27,106 80,106 16,0 32,-2 47,-7 15,-5 30,-10 46,-16l0 84c-31,13 -65,20 -104,20 -55,0 -98,-16 -127,-48 -29,-32 -44,-78 -44,-139 0,-38 7,-71 21,-100 14,-29 35,-51 62,-66 27,-15 58,-23 95,-23 40,0 77,9 114,26l-30 78c-14,-6 -27,-12 -41,-16 -14,-4 -28,-6 -44,-6z"/>
   <path class="fil5" d="M1820 498l-29 0 0 -78 0 -13 0 -14c-5,5 -8,8 -10,9l-16 13 -14 -17 44 -35 24 0 0 136z"/>
   <path class="fil5" d="M1907 412c13,0 24,4 31,11 8,7 12,17 12,30 0,15 -5,27 -14,35 -9,8 -23,12 -40,12 -15,0 -27,-2 -37,-7l0 -25c5,3 11,5 17,6 6,2 13,2 18,2 18,0 26,-7 26,-22 0,-14 -9,-20 -27,-20 -3,0 -7,0 -11,1 -4,1 -7,1 -10,2l-11 -6 5 -69 74 0 0 24 -48 0 -2 27 3 -1c4,-1 8,-1 14,-1z"/>
   <path class="fil5" d="M2001 478c-3,12 -9,27 -16,44l-20 0c4,-16 7,-32 9,-47l26 0 1 2z"/>
   <path class="fil5" d="M2119 470l-16 0 0 28 -28 0 0 -28 -58 0 0 -20 59 -88 26 0 0 85 16 0 0 22zm-44 -22l0 0 0 -23c0,-4 0,-9 0,-17 0,-7 1,-12 1,-13l-1 0c-2,5 -5,10 -8,15l-25 38 33 0z"/>
   <path class="fil5" d="M1844 726l-95 0 0 -20 34 -34c10,-10 17,-17 20,-21 3,-4 5,-8 7,-11 1,-3 2,-7 2,-11 0,-5 -1,-9 -5,-12 -3,-3 -7,-4 -12,-4 -5,0 -10,1 -15,4 -5,2 -10,6 -16,10l-16 -18c7,-6 12,-10 17,-12 4,-2 9,-4 14,-5 5,-1 11,-2 17,-2 8,0 16,2 22,5 6,3 12,7 15,13 4,6 5,12 5,19 0,6 -1,12 -3,18 -2,5 -6,11 -10,17 -5,6 -13,14 -24,25l-17 16 0 1 59 0 0 24z"/>
   <path class="fil5" d="M1952 648c0,27 -6,47 -17,60 -11,13 -28,20 -51,20 -8,0 -14,0 -18,-1l0 -23c5,1 11,2 16,2 10,0 17,-1 24,-4 6,-3 11,-7 14,-13 3,-6 5,-14 6,-25l-1 0c-4,6 -8,10 -12,12 -5,2 -11,4 -18,4 -12,0 -21,-4 -28,-11 -7,-8 -10,-18 -10,-32 0,-15 4,-26 12,-34 8,-8 20,-13 34,-13 10,0 19,2 26,7 8,5 13,12 17,20 4,9 6,20 6,32zm-49 -36l0 0c-6,0 -11,2 -14,6 -3,4 -5,10 -5,18 0,7 1,12 5,16 3,4 8,6 14,6 6,0 11,-2 15,-6 4,-4 6,-8 6,-13 0,-7 -2,-14 -6,-19 -4,-5 -9,-8 -15,-8z"/>
   <path class="fil5" d="M2001 706c-3,12 -9,27 -16,44l-20 0c4,-16 7,-32 9,-47l26 0 1 2z"/>
   <path class="fil5" d="M2119 698l-16 0 0 28 -28 0 0 -28 -58 0 0 -20 59 -88 26 0 0 85 16 0 0 22zm-44 -22l0 0 0 -23c0,-4 0,-9 0,-17 0,-7 1,-12 1,-13l-1 0c-2,5 -5,10 -8,15l-25 38 33 0z"/>
   <path class="fil5" d="M1081 549c11,0 19,3 26,9 6,6 10,14 10,25 0,13 -4,22 -12,29 -8,7 -19,10 -33,10 -12,0 -23,-2 -30,-6l0 -20c4,2 9,4 14,5 5,1 10,2 15,2 14,0 22,-6 22,-18 0,-11 -7,-17 -22,-17 -3,0 -6,0 -9,1 -3,1 -6,1 -8,2l-9 -5 4 -57 61 0 0 20 -40 0 -2 22 3 -1c3,-1 7,-1 12,-1z"/>
   <path class="fil5" d="M1158 605c-3,10 -7,23 -14,37l-17 0c3,-14 6,-26 8,-38l21 0 1 2z"/>
   <path class="fil5" d="M1253 565c0,20 -3,34 -10,43 -6,9 -16,14 -30,14 -13,0 -23,-5 -29,-15 -7,-10 -10,-24 -10,-43 0,-20 3,-34 10,-44 6,-9 16,-14 30,-14 13,0 23,5 29,15 7,10 10,24 10,43zm-55 0l0 0c0,14 1,24 4,30 2,6 6,9 12,9 6,0 9,-3 12,-9 2,-6 4,-16 4,-29 0,-14 -1,-24 -4,-30 -2,-6 -6,-9 -12,-9 -6,0 -10,3 -12,9 -2,6 -4,16 -4,30z"/>
   <path class="fil5" d="M363 333l-13 0 0 23 -23 0 0 -23 -48 0 0 -16 49 -72 22 0 0 70 13 0 0 18zm-37 -18l0 0 0 -19c0,-3 0,-8 0,-14 0,-6 0,-10 1,-10l-1 0c-2,4 -4,8 -7,12l-21 31 27 0z"/>
   <path class="fil5" d="M400 339c-3,10 -7,23 -14,37l-17 0c3,-14 6,-26 8,-38l21 0 1 2z"/>
   <path class="fil5" d="M498 333l-13 0 0 23 -23 0 0 -23 -48 0 0 -16 49 -72 22 0 0 70 13 0 0 18zm-37 -18l0 0 0 -19c0,-3 0,-8 0,-14 0,-6 0,-10 1,-10l-1 0c-2,4 -4,8 -7,12l-21 31 27 0z"/>
   <path class="fil5" d="M364 704c0,7 -2,13 -6,18 -4,5 -10,8 -18,10l0 0c9,1 16,4 21,8 5,4 7,10 7,18 0,11 -4,19 -12,25 -8,6 -19,9 -34,9 -12,0 -23,-2 -32,-6l0 -20c4,2 9,4 14,5 5,1 10,2 16,2 8,0 14,-1 17,-4 4,-3 6,-7 6,-13 0,-5 -2,-9 -6,-11 -4,-2 -11,-3 -21,-3l-8 0 0 -18 9 0c9,0 15,-1 19,-3 4,-2 6,-6 6,-12 0,-8 -5,-13 -16,-13 -4,0 -7,1 -11,2 -4,1 -8,3 -13,6l-11 -16c10,-7 22,-11 37,-11 12,0 21,2 27,7 7,5 10,11 10,20z"/>
   <path class="fil5" d="M409 774c-3,10 -7,23 -14,37l-17 0c3,-14 6,-26 8,-38l21 0 1 2z"/>
   <polygon class="fil5" points="436,791 478,699 423,699 423,679 504,679 504,694 461,791 "/>
   <path class="fil5" d="M2119 557l-376 0c-5,0 -8,-3 -8,-7 0,-4 4,-7 8,-7l376 0c5,0 8,3 8,7 0,4 -4,7 -8,7z"/>
   <path class="fil5" d="M1887 981l-24 0 0 -65 0 -11 0 -12c-4,4 -7,6 -8,8l-13 10 -11 -14 36 -29 19 0 0 112z"/>
   <path class="fil5" d="M1959 910c11,0 19,3 26,9 6,6 10,14 10,25 0,12 -4,22 -12,29 -8,7 -19,10 -33,10 -12,0 -23,-2 -30,-6l0 -20c4,2 9,4 14,5 5,1 10,2 15,2 14,0 22,-6 22,-18 0,-11 -7,-17 -22,-17 -3,0 -6,0 -9,1 -3,1 -6,1 -8,2l-9 -5 4 -57 61 0 0 20 -40 0 -2 22 3 -1c3,-1 7,-1 12,-1z"/>
   <path class="fil5" d="M2037 965c-3,10 -7,23 -13,37l-17 0c3,-14 6,-26 8,-38l21 0 1 2z"/>
   <path class="fil5" d="M2134 958l-13 0 0 23 -23 0 0 -23 -48 0 0 -16 49 -72 22 0 0 70 13 0 0 18zm-37 -18l0 0 0 -19c0,-3 0,-8 0,-14 0,-6 0,-10 1,-10l-1 0c-2,4 -4,8 -7,12l-21 31 27 0z"/>
  </g>
 </g>
</svg>
