<?xml version="1.0" encoding="UTF-8"?>
<!DOCTYPE svg PUBLIC "-//W3C//DTD SVG 1.1//EN" "http://www.w3.org/Graphics/SVG/1.1/DTD/svg11.dtd">
<!-- Creator: CorelDRAW X6 -->
<svg xmlns="http://www.w3.org/2000/svg" xml:space="preserve" width="2.53429in" height="1.13902in" version="1.1" style="shape-rendering:geometricPrecision; text-rendering:geometricPrecision; image-rendering:optimizeQuality; fill-rule:evenodd; clip-rule:evenodd"
viewBox="0 0 2534 1139"
 xmlns:xlink="http://www.w3.org/1999/xlink">
 <defs>
  <style type="text/css">
   <![CDATA[
    .fil155 {fill:#30302F}
    .fil156 {fill:#363332}
    .fil120 {fill:#3A3952}
    .fil118 {fill:#5DAFD4}
    .fil10 {fill:#72706C}
    .fil9 {fill:#74716B}
    .fil12 {fill:#757370}
    .fil11 {fill:#77746E}
    .fil121 {fill:#777471}
    .fil13 {fill:#787672}
    .fil122 {fill:#7A7773}
    .fil14 {fill:#7B7873}
    .fil16 {fill:#7B7A77}
    .fil15 {fill:#7C7A75}
    .fil123 {fill:#7C7B77}
    .fil17 {fill:#7E7C78}
    .fil18 {fill:#80807B}
    .fil124 {fill:#817E7B}
    .fil19 {fill:#85817C}
    .fil114 {fill:#85827D}
    .fil20 {fill:#86837E}
    .fil21 {fill:#86847F}
    .fil125 {fill:#878580}
    .fil22 {fill:#888681}
    .fil23 {fill:#8A8883}
    .fil126 {fill:#8B8883}
    .fil24 {fill:#8B8984}
    .fil26 {fill:#8B8B84}
    .fil25 {fill:#8C8884}
    .fil27 {fill:#8E8A85}
    .fil127 {fill:#8E8C86}
    .fil108 {fill:#8E8C87}
    .fil28 {fill:#8F8C86}
    .fil29 {fill:#908D89}
    .fil30 {fill:#918F8B}
    .fil31 {fill:#94908A}
    .fil101 {fill:#94918B}
    .fil32 {fill:#94918C}
    .fil128 {fill:#95928E}
    .fil33 {fill:#979590}
    .fil129 {fill:#99958F}
    .fil34 {fill:#99968F}
    .fil35 {fill:#9A9790}
    .fil36 {fill:#9B9993}
    .fil130 {fill:#9C9892}
    .fil37 {fill:#9F9B96}
    .fil39 {fill:#9F9C97}
    .fil38 {fill:#9F9D95}
    .fil7 {fill:#9F9F9A}
    .fil41 {fill:#A2A099}
    .fil40 {fill:#A39E98}
    .fil131 {fill:#A3A09B}
    .fil102 {fill:#A3A09C}
    .fil42 {fill:#A5A29F}
    .fil132 {fill:#A7A49E}
    .fil43 {fill:#A7A4A0}
    .fil44 {fill:#A9A6A1}
    .fil45 {fill:#ACA7A4}
    .fil46 {fill:#ADA9A3}
    .fil109 {fill:#ADA9A4}
    .fil47 {fill:#ADA9A6}
    .fil103 {fill:#AEAAA6}
    .fil133 {fill:#AEACA7}
    .fil48 {fill:#AFABA6}
    .fil49 {fill:#B1ADA8}
    .fil50 {fill:#B3B1AC}
    .fil134 {fill:#B5B1AC}
    .fil51 {fill:#B5B3AE}
    .fil115 {fill:#B5B3B0}
    .fil135 {fill:#B7B5B0}
    .fil52 {fill:#B8B5B1}
    .fil119 {fill:#B8DFF2}
    .fil53 {fill:#B9B6B2}
    .fil54 {fill:#B9B7B4}
    .fil55 {fill:#BCBAB5}
    .fil57 {fill:#BEBDBA}
    .fil56 {fill:#C0BCB9}
    .fil58 {fill:#C0BDBA}
    .fil136 {fill:#C0BDBB}
    .fil59 {fill:#C2BFBD}
    .fil104 {fill:#C2C0BC}
    .fil137 {fill:#C3C1BD}
    .fil138 {fill:#C4C0BE}
    .fil61 {fill:#C4C1C0}
    .fil216 {fill:#C4C3C2}
    .fil60 {fill:#C5C2BE}
    .fil139 {fill:#C5C2C1}
    .fil116 {fill:#C5C3BF}
    .fil215 {fill:#C5C4C2}
    .fil214 {fill:#C6C5C3}
    .fil62 {fill:#C7C5C1}
    .fil63 {fill:#C7C5C3}
    .fil213 {fill:#C7C6C4}
    .fil212 {fill:#C7C7C5}
    .fil211 {fill:#C8C7C5}
    .fil64 {fill:#C9C6C3}
    .fil210 {fill:#C9C8C6}
    .fil105 {fill:#CAC7C2}
    .fil65 {fill:#CAC7C4}
    .fil209 {fill:#CAC9C7}
    .fil66 {fill:#CBC8C7}
    .fil208 {fill:#CBCAC8}
    .fil207 {fill:#CBCBC9}
    .fil110 {fill:#CCC8C4}
    .fil206 {fill:#CCCBC9}
    .fil67 {fill:#CDCAC5}
    .fil140 {fill:#CDCBC8}
    .fil100 {fill:#CDCBC9}
    .fil205 {fill:#CDCCCA}
    .fil68 {fill:#CECAC7}
    .fil204 {fill:#CECDCB}
    .fil203 {fill:#CFCECC}
    .fil141 {fill:#D0CCC8}
    .fil69 {fill:#D0CDCA}
    .fil142 {fill:#D0CDCB}
    .fil70 {fill:#D0CECC}
    .fil202 {fill:#D0CFCD}
    .fil106 {fill:#D1CFCC}
    .fil143 {fill:#D1CFCD}
    .fil201 {fill:#D1D0CF}
    .fil200 {fill:#D2D1D0}
    .fil71 {fill:#D3D1CE}
    .fil199 {fill:#D3D2D1}
    .fil144 {fill:#D4D1CF}
    .fil198 {fill:#D4D2D1}
    .fil72 {fill:#D5D2CE}
    .fil197 {fill:#D5D3D2}
    .fil196 {fill:#D5D4D3}
    .fil145 {fill:#D6D3CF}
    .fil73 {fill:#D6D3D1}
    .fil195 {fill:#D6D5D4}
    .fil194 {fill:#D7D6D5}
    .fil146 {fill:#D8D5D2}
    .fil74 {fill:#D8D6D2}
    .fil193 {fill:#D8D7D5}
    .fil192 {fill:#D9D8D7}
    .fil191 {fill:#DAD9D8}
    .fil111 {fill:#DADAD5}
    .fil75 {fill:#DADAD6}
    .fil107 {fill:#DADAD8}
    .fil190 {fill:#DADAD9}
    .fil76 {fill:#DBD9D7}
    .fil147 {fill:#DBDAD9}
    .fil77 {fill:#DBDBD9}
    .fil189 {fill:#DCDBDA}
    .fil188 {fill:#DDDCDB}
    .fil79 {fill:#DEDCDB}
    .fil78 {fill:#DEDDDB}
    .fil187 {fill:#DEDDDC}
    .fil148 {fill:#DEDEDC}
    .fil186 {fill:#DFDDDC}
    .fil185 {fill:#DFDEDD}
    .fil184 {fill:#E0DFDE}
    .fil80 {fill:#E1E0DD}
    .fil183 {fill:#E1E0E0}
    .fil149 {fill:#E2E0DF}
    .fil182 {fill:#E2E1E0}
    .fil6 {fill:#E31256}
    .fil181 {fill:#E3E2E1}
    .fil81 {fill:#E4E2DE}
    .fil82 {fill:#E4E3E1}
    .fil180 {fill:#E4E3E2}
    .fil179 {fill:#E4E4E3}
    .fil83 {fill:#E5E4E2}
    .fil178 {fill:#E5E5E4}
    .fil84 {fill:#E6E5E3}
    .fil177 {fill:#E6E5E4}
    .fil112 {fill:#E7E6E3}
    .fil176 {fill:#E7E6E5}
    .fil175 {fill:#E8E7E6}
    .fil85 {fill:#E9E7E6}
    .fil86 {fill:#E9E7E7}
    .fil150 {fill:#E9E8E8}
    .fil87 {fill:#E9E9E8}
    .fil174 {fill:#EAE9E9}
    .fil173 {fill:#EBEAEA}
    .fil88 {fill:#ECEBEA}
    .fil172 {fill:#ECEBEB}
    .fil171 {fill:#EDECEB}
    .fil170 {fill:#EDEDEC}
    .fil89 {fill:#EEECEC}
    .fil90 {fill:#EEEEED}
    .fil151 {fill:#EFEFED}
    .fil169 {fill:#EFEFEE}
    .fil168 {fill:#F0F0EF}
    .fil91 {fill:#F1EFEF}
    .fil167 {fill:#F1F0F0}
    .fil117 {fill:#F1F0F1}
    .fil166 {fill:#F1F1F1}
    .fil165 {fill:#F2F2F2}
    .fil92 {fill:#F3F2F3}
    .fil113 {fill:#F3F3F2}
    .fil164 {fill:#F3F3F3}
    .fil93 {fill:#F4F4F4}
    .fil163 {fill:#F5F4F4}
    .fil152 {fill:whitesmoke}
    .fil162 {fill:#F6F6F6}
    .fil94 {fill:#F7F7F6}
    .fil161 {fill:#F7F7F7}
    .fil95 {fill:#F8F7F7}
    .fil153 {fill:#F8F8F7}
    .fil160 {fill:#F8F8F8}
    .fil96 {fill:#F8F8F9}
    .fil97 {fill:#F9F9F9}
    .fil154 {fill:#FAFAFA}
    .fil98 {fill:#FAFBFB}
    .fil99 {fill:#FAFDFE}
    .fil159 {fill:#FBFBFB}
    .fil158 {fill:#FCFCFC}
    .fil157 {fill:#FDFDFD}
    .fil8 {fill:#FEFEFE}
    .fil263 {fill:#323030;fill-rule:nonzero}
    .fil5 {fill:#3A3952;fill-rule:nonzero}
    .fil218 {fill:#646261;fill-rule:nonzero}
    .fil262 {fill:#6C6B6A;fill-rule:nonzero}
    .fil1 {fill:#B1B1B0;fill-rule:nonzero}
    .fil4 {fill:#BFE0F1;fill-rule:nonzero}
    .fil261 {fill:#C4C3C2;fill-rule:nonzero}
    .fil219 {fill:#C7C6C4;fill-rule:nonzero}
    .fil220 {fill:#C9C8C6;fill-rule:nonzero}
    .fil221 {fill:#CBCBC9;fill-rule:nonzero}
    .fil222 {fill:#CECDCB;fill-rule:nonzero}
    .fil223 {fill:#D0CFCD;fill-rule:nonzero}
    .fil224 {fill:#D2D1D0;fill-rule:nonzero}
    .fil225 {fill:#D4D3D2;fill-rule:nonzero}
    .fil226 {fill:#D6D5D4;fill-rule:nonzero}
    .fil227 {fill:#D8D7D6;fill-rule:nonzero}
    .fil228 {fill:#DAD9D8;fill-rule:nonzero}
    .fil0 {fill:#DBDBDA;fill-rule:nonzero}
    .fil229 {fill:#DCDBDA;fill-rule:nonzero}
    .fil3 {fill:#DCDCDB;fill-rule:nonzero}
    .fil230 {fill:#DEDDDC;fill-rule:nonzero}
    .fil231 {fill:#DFDEDD;fill-rule:nonzero}
    .fil232 {fill:#E1E0E0;fill-rule:nonzero}
    .fil264 {fill:#E31256;fill-rule:nonzero}
    .fil233 {fill:#E3E2E1;fill-rule:nonzero}
    .fil234 {fill:#E4E4E3;fill-rule:nonzero}
    .fil235 {fill:#E6E5E4;fill-rule:nonzero}
    .fil236 {fill:#E8E6E5;fill-rule:nonzero}
    .fil237 {fill:#E9E8E8;fill-rule:nonzero}
    .fil238 {fill:#EAE9E9;fill-rule:nonzero}
    .fil239 {fill:#EBEAEA;fill-rule:nonzero}
    .fil240 {fill:#EDECEB;fill-rule:nonzero}
    .fil241 {fill:#EDEDEC;fill-rule:nonzero}
    .fil2 {fill:#EEEDEC;fill-rule:nonzero}
    .fil242 {fill:#EFEEED;fill-rule:nonzero}
    .fil243 {fill:#F0EFEE;fill-rule:nonzero}
    .fil244 {fill:#F1F0F0;fill-rule:nonzero}
    .fil245 {fill:#F1F1F1;fill-rule:nonzero}
    .fil246 {fill:#F2F2F2;fill-rule:nonzero}
    .fil247 {fill:#F3F3F3;fill-rule:nonzero}
    .fil248 {fill:#F4F4F4;fill-rule:nonzero}
    .fil249 {fill:#F5F5F4;fill-rule:nonzero}
    .fil250 {fill:whitesmoke;fill-rule:nonzero}
    .fil251 {fill:#F6F6F6;fill-rule:nonzero}
    .fil252 {fill:#F7F7F6;fill-rule:nonzero}
    .fil253 {fill:#F8F8F8;fill-rule:nonzero}
    .fil254 {fill:#F9F8F8;fill-rule:nonzero}
    .fil255 {fill:#F9F9F9;fill-rule:nonzero}
    .fil256 {fill:#FAFAFA;fill-rule:nonzero}
    .fil257 {fill:#FBFBFB;fill-rule:nonzero}
    .fil258 {fill:#FCFCFC;fill-rule:nonzero}
    .fil259 {fill:#FDFCFC;fill-rule:nonzero}
    .fil260 {fill:#FDFDFD;fill-rule:nonzero}
    .fil217 {fill:#FEFEFE;fill-rule:nonzero}
   ]]>
  </style>
 </defs>
 <g id="ﾃ神x00a1_ﾃ神x00bb_ﾃ神x00be_ﾃ神x00b9__x0020_1">
  <metadata id="CorelCorpID_0Corel-Layer"/>
  <g id="_301728000">
   <polygon class="fil0" points="114,680 54,680 54,739 114,739 "/>
   <path class="fil1" d="M52 678l64 0 0 64 -64 0 0 -64zm4 60l0 0 56 0 0 -56 -56 0 0 56z"/>
   <polygon class="fil0" points="173,680 113,680 113,739 173,739 "/>
   <path class="fil1" d="M111 678l64 0 0 64 -64 0 0 -64zm4 60l0 0 56 0 0 -56 -56 0 0 56z"/>
   <polygon class="fil0" points="232,680 172,680 172,739 232,739 "/>
   <path class="fil1" d="M170 678l64 0 0 64 -64 0 0 -64zm4 60l0 0 56 0 0 -56 -56 0 0 56z"/>
   <polygon class="fil2" points="114,620 54,620 54,680 114,680 "/>
   <path class="fil1" d="M52 618l64 0 0 64 -64 0 0 -64zm4 60l0 0 56 0 0 -56 -56 0 0 56z"/>
   <polygon class="fil0" points="173,620 113,620 113,680 173,680 "/>
   <path class="fil1" d="M111 618l64 0 0 64 -64 0 0 -64zm4 60l0 0 56 0 0 -56 -56 0 0 56z"/>
   <polygon class="fil2" points="232,620 172,620 172,680 232,680 "/>
   <path class="fil1" d="M170 618l64 0 0 64 -64 0 0 -64zm4 60l0 0 56 0 0 -56 -56 0 0 56z"/>
   <polygon class="fil2" points="114,739 54,739 54,799 114,799 "/>
   <path class="fil1" d="M52 737l64 0 0 64 -64 0 0 -64zm4 60l0 0 56 0 0 -56 -56 0 0 56z"/>
   <polygon class="fil0" points="173,739 113,739 113,799 173,799 "/>
   <path class="fil1" d="M111 737l64 0 0 64 -64 0 0 -64zm4 60l0 0 56 0 0 -56 -56 0 0 56z"/>
   <polygon class="fil2" points="232,739 172,739 172,799 232,799 "/>
   <path class="fil1" d="M170 737l64 0 0 64 -64 0 0 -64zm4 60l0 0 56 0 0 -56 -56 0 0 56z"/>
   <polygon class="fil0" points="114,858 54,858 54,918 114,918 "/>
   <path class="fil1" d="M52 856l64 0 0 64 -64 0 0 -64zm4 60l0 0 56 0 0 -56 -56 0 0 56z"/>
   <polygon class="fil0" points="173,858 113,858 113,918 173,918 "/>
   <path class="fil1" d="M111 856l64 0 0 64 -64 0 0 -64zm4 60l0 0 56 0 0 -56 -56 0 0 56z"/>
   <polygon class="fil0" points="232,858 172,858 172,918 232,918 "/>
   <path class="fil1" d="M170 856l64 0 0 64 -64 0 0 -64zm4 60l0 0 56 0 0 -56 -56 0 0 56z"/>
   <polygon class="fil2" points="114,799 54,799 54,858 114,858 "/>
   <path class="fil1" d="M52 797l64 0 0 64 -64 0 0 -64zm4 60l0 0 56 0 0 -56 -56 0 0 56z"/>
   <polygon class="fil0" points="173,799 113,799 113,858 173,858 "/>
   <path class="fil1" d="M111 797l64 0 0 64 -64 0 0 -64zm4 60l0 0 56 0 0 -56 -56 0 0 56z"/>
   <polygon class="fil2" points="232,799 172,799 172,858 232,858 "/>
   <path class="fil1" d="M170 797l64 0 0 64 -64 0 0 -64zm4 60l0 0 56 0 0 -56 -56 0 0 56z"/>
   <polygon class="fil0" points="292,680 232,680 232,739 292,739 "/>
   <path class="fil1" d="M230 678l64 0 0 64 -64 0 0 -64zm4 60l0 0 56 0 0 -56 -56 0 0 56z"/>
   <polygon class="fil0" points="351,680 291,680 291,739 351,739 "/>
   <path class="fil1" d="M289 678l64 0 0 64 -64 0 0 -64zm4 60l0 0 56 0 0 -56 -56 0 0 56z"/>
   <polygon class="fil0" points="411,680 351,680 351,739 411,739 "/>
   <path class="fil1" d="M349 678l64 0 0 64 -64 0 0 -64zm4 60l0 0 56 0 0 -56 -56 0 0 56z"/>
   <polygon class="fil0" points="470,680 410,680 410,739 470,739 "/>
   <path class="fil1" d="M408 678l64 0 0 64 -64 0 0 -64zm4 60l0 0 56 0 0 -56 -56 0 0 56z"/>
   <polygon class="fil0" points="530,680 470,680 470,739 530,739 "/>
   <path class="fil1" d="M468 678l64 0 0 64 -64 0 0 -64zm4 60l0 0 56 0 0 -56 -56 0 0 56z"/>
   <polygon class="fil0" points="589,680 529,680 529,739 589,739 "/>
   <path class="fil1" d="M527 678l64 0 0 64 -64 0 0 -64zm4 60l0 0 56 0 0 -56 -56 0 0 56z"/>
   <polygon class="fil0" points="648,680 588,680 588,739 648,739 "/>
   <path class="fil1" d="M586 678l64 0 0 64 -64 0 0 -64zm4 60l0 0 56 0 0 -56 -56 0 0 56z"/>
   <polygon class="fil0" points="292,620 232,620 232,680 292,680 "/>
   <path class="fil1" d="M230 618l64 0 0 64 -64 0 0 -64zm4 60l0 0 56 0 0 -56 -56 0 0 56z"/>
   <polygon class="fil2" points="351,620 291,620 291,680 351,680 "/>
   <path class="fil1" d="M289 618l64 0 0 64 -64 0 0 -64zm4 60l0 0 56 0 0 -56 -56 0 0 56z"/>
   <polygon class="fil0" points="411,620 351,620 351,680 411,680 "/>
   <path class="fil1" d="M349 618l64 0 0 64 -64 0 0 -64zm4 60l0 0 56 0 0 -56 -56 0 0 56z"/>
   <polygon class="fil2" points="470,620 410,620 410,680 470,680 "/>
   <path class="fil1" d="M408 618l64 0 0 64 -64 0 0 -64zm4 60l0 0 56 0 0 -56 -56 0 0 56z"/>
   <polygon class="fil0" points="530,620 470,620 470,680 530,680 "/>
   <path class="fil1" d="M468 618l64 0 0 64 -64 0 0 -64zm4 60l0 0 56 0 0 -56 -56 0 0 56z"/>
   <polygon class="fil2" points="589,620 529,620 529,680 589,680 "/>
   <path class="fil1" d="M527 618l64 0 0 64 -64 0 0 -64zm4 60l0 0 56 0 0 -56 -56 0 0 56z"/>
   <polygon class="fil0" points="648,620 588,620 588,680 648,680 "/>
   <path class="fil1" d="M586 618l64 0 0 64 -64 0 0 -64zm4 60l0 0 56 0 0 -56 -56 0 0 56z"/>
   <polygon class="fil0" points="292,739 232,739 232,799 292,799 "/>
   <path class="fil1" d="M230 737l64 0 0 64 -64 0 0 -64zm4 60l0 0 56 0 0 -56 -56 0 0 56z"/>
   <polygon class="fil2" points="351,739 291,739 291,799 351,799 "/>
   <path class="fil1" d="M289 737l64 0 0 64 -64 0 0 -64zm4 60l0 0 56 0 0 -56 -56 0 0 56z"/>
   <polygon class="fil0" points="411,739 351,739 351,799 411,799 "/>
   <path class="fil1" d="M349 737l64 0 0 64 -64 0 0 -64zm4 60l0 0 56 0 0 -56 -56 0 0 56z"/>
   <polygon class="fil2" points="470,739 410,739 410,799 470,799 "/>
   <path class="fil1" d="M408 737l64 0 0 64 -64 0 0 -64zm4 60l0 0 56 0 0 -56 -56 0 0 56z"/>
   <polygon class="fil0" points="530,739 470,739 470,799 530,799 "/>
   <path class="fil1" d="M468 737l64 0 0 64 -64 0 0 -64zm4 60l0 0 56 0 0 -56 -56 0 0 56z"/>
   <polygon class="fil2" points="589,739 529,739 529,799 589,799 "/>
   <path class="fil1" d="M527 737l64 0 0 64 -64 0 0 -64zm4 60l0 0 56 0 0 -56 -56 0 0 56z"/>
   <polygon class="fil0" points="648,739 588,739 588,799 648,799 "/>
   <path class="fil1" d="M586 737l64 0 0 64 -64 0 0 -64zm4 60l0 0 56 0 0 -56 -56 0 0 56z"/>
   <polygon class="fil0" points="292,858 232,858 232,918 292,918 "/>
   <path class="fil1" d="M230 856l64 0 0 64 -64 0 0 -64zm4 60l0 0 56 0 0 -56 -56 0 0 56z"/>
   <polygon class="fil0" points="351,858 291,858 291,918 351,918 "/>
   <path class="fil1" d="M289 856l64 0 0 64 -64 0 0 -64zm4 60l0 0 56 0 0 -56 -56 0 0 56z"/>
   <polygon class="fil0" points="411,858 351,858 351,918 411,918 "/>
   <path class="fil1" d="M349 856l64 0 0 64 -64 0 0 -64zm4 60l0 0 56 0 0 -56 -56 0 0 56z"/>
   <polygon class="fil0" points="470,858 410,858 410,918 470,918 "/>
   <path class="fil1" d="M408 856l64 0 0 64 -64 0 0 -64zm4 60l0 0 56 0 0 -56 -56 0 0 56z"/>
   <polygon class="fil0" points="530,858 470,858 470,918 530,918 "/>
   <path class="fil1" d="M468 856l64 0 0 64 -64 0 0 -64zm4 60l0 0 56 0 0 -56 -56 0 0 56z"/>
   <polygon class="fil0" points="589,858 529,858 529,918 589,918 "/>
   <path class="fil1" d="M527 856l64 0 0 64 -64 0 0 -64zm4 60l0 0 56 0 0 -56 -56 0 0 56z"/>
   <polygon class="fil0" points="648,858 588,858 588,918 648,918 "/>
   <path class="fil1" d="M586 856l64 0 0 64 -64 0 0 -64zm4 60l0 0 56 0 0 -56 -56 0 0 56z"/>
   <polygon class="fil0" points="292,799 232,799 232,858 292,858 "/>
   <path class="fil1" d="M230 797l64 0 0 64 -64 0 0 -64zm4 60l0 0 56 0 0 -56 -56 0 0 56z"/>
   <polygon class="fil2" points="351,799 291,799 291,858 351,858 "/>
   <path class="fil1" d="M289 797l64 0 0 64 -64 0 0 -64zm4 60l0 0 56 0 0 -56 -56 0 0 56z"/>
   <polygon class="fil0" points="411,799 351,799 351,858 411,858 "/>
   <path class="fil1" d="M349 797l64 0 0 64 -64 0 0 -64zm4 60l0 0 56 0 0 -56 -56 0 0 56z"/>
   <polygon class="fil2" points="470,799 410,799 410,858 470,858 "/>
   <path class="fil1" d="M408 797l64 0 0 64 -64 0 0 -64zm4 60l0 0 56 0 0 -56 -56 0 0 56z"/>
   <polygon class="fil0" points="530,799 470,799 470,858 530,858 "/>
   <path class="fil1" d="M468 797l64 0 0 64 -64 0 0 -64zm4 60l0 0 56 0 0 -56 -56 0 0 56z"/>
   <polygon class="fil2" points="589,799 529,799 529,858 589,858 "/>
   <path class="fil1" d="M527 797l64 0 0 64 -64 0 0 -64zm4 60l0 0 56 0 0 -56 -56 0 0 56z"/>
   <polygon class="fil0" points="648,799 588,799 588,858 648,858 "/>
   <path class="fil1" d="M586 797l64 0 0 64 -64 0 0 -64zm4 60l0 0 56 0 0 -56 -56 0 0 56z"/>
   <polygon class="fil2" points="114,919 54,919 54,978 114,978 "/>
   <path class="fil1" d="M52 917l64 0 0 64 -64 0 0 -64zm4 60l0 0 56 0 0 -56 -56 0 0 56z"/>
   <polygon class="fil0" points="173,919 113,919 113,978 173,978 "/>
   <path class="fil1" d="M111 917l64 0 0 64 -64 0 0 -64zm4 60l0 0 56 0 0 -56 -56 0 0 56z"/>
   <polygon class="fil2" points="232,919 172,919 172,978 232,978 "/>
   <path class="fil1" d="M170 917l64 0 0 64 -64 0 0 -64zm4 60l0 0 56 0 0 -56 -56 0 0 56z"/>
   <polygon class="fil0" points="114,1038 54,1038 54,1098 114,1098 "/>
   <path class="fil1" d="M52 1036l64 0 0 64 -64 0 0 -64zm4 60l0 0 56 0 0 -56 -56 0 0 56z"/>
   <polygon class="fil0" points="173,1038 113,1038 113,1098 173,1098 "/>
   <path class="fil1" d="M111 1036l64 0 0 64 -64 0 0 -64zm4 60l0 0 56 0 0 -56 -56 0 0 56z"/>
   <polygon class="fil0" points="232,1038 172,1038 172,1098 232,1098 "/>
   <path class="fil1" d="M170 1036l64 0 0 64 -64 0 0 -64zm4 60l0 0 56 0 0 -56 -56 0 0 56z"/>
   <polygon class="fil2" points="114,978 54,978 54,1038 114,1038 "/>
   <path class="fil1" d="M52 977l64 0 0 64 -64 0 0 -64zm4 60l0 0 56 0 0 -56 -56 0 0 56z"/>
   <polygon class="fil0" points="173,978 113,978 113,1038 173,1038 "/>
   <path class="fil1" d="M111 977l64 0 0 64 -64 0 0 -64zm4 60l0 0 56 0 0 -56 -56 0 0 56z"/>
   <polygon class="fil2" points="232,978 172,978 172,1038 232,1038 "/>
   <path class="fil1" d="M170 977l64 0 0 64 -64 0 0 -64zm4 60l0 0 56 0 0 -56 -56 0 0 56z"/>
   <polygon class="fil0" points="292,919 232,919 232,978 292,978 "/>
   <path class="fil1" d="M230 917l64 0 0 64 -64 0 0 -64zm4 60l0 0 56 0 0 -56 -56 0 0 56z"/>
   <polygon class="fil2" points="351,919 291,919 291,978 351,978 "/>
   <path class="fil1" d="M289 917l64 0 0 64 -64 0 0 -64zm4 60l0 0 56 0 0 -56 -56 0 0 56z"/>
   <polygon class="fil0" points="411,919 351,919 351,978 411,978 "/>
   <path class="fil1" d="M349 917l64 0 0 64 -64 0 0 -64zm4 60l0 0 56 0 0 -56 -56 0 0 56z"/>
   <polygon class="fil2" points="470,919 410,919 410,978 470,978 "/>
   <path class="fil1" d="M408 917l64 0 0 64 -64 0 0 -64zm4 60l0 0 56 0 0 -56 -56 0 0 56z"/>
   <polygon class="fil0" points="530,919 470,919 470,978 530,978 "/>
   <path class="fil1" d="M468 917l64 0 0 64 -64 0 0 -64zm4 60l0 0 56 0 0 -56 -56 0 0 56z"/>
   <polygon class="fil2" points="589,919 529,919 529,978 589,978 "/>
   <path class="fil1" d="M527 917l64 0 0 64 -64 0 0 -64zm4 60l0 0 56 0 0 -56 -56 0 0 56z"/>
   <polygon class="fil0" points="648,919 588,919 588,978 648,978 "/>
   <path class="fil1" d="M586 917l64 0 0 64 -64 0 0 -64zm4 60l0 0 56 0 0 -56 -56 0 0 56z"/>
   <polygon class="fil0" points="292,1038 232,1038 232,1098 292,1098 "/>
   <path class="fil1" d="M230 1036l64 0 0 64 -64 0 0 -64zm4 60l0 0 56 0 0 -56 -56 0 0 56z"/>
   <polygon class="fil0" points="351,1038 291,1038 291,1098 351,1098 "/>
   <path class="fil1" d="M289 1036l64 0 0 64 -64 0 0 -64zm4 60l0 0 56 0 0 -56 -56 0 0 56z"/>
   <polygon class="fil0" points="411,1038 351,1038 351,1098 411,1098 "/>
   <path class="fil1" d="M349 1036l64 0 0 64 -64 0 0 -64zm4 60l0 0 56 0 0 -56 -56 0 0 56z"/>
   <polygon class="fil0" points="470,1038 410,1038 410,1098 470,1098 "/>
   <path class="fil1" d="M408 1036l64 0 0 64 -64 0 0 -64zm4 60l0 0 56 0 0 -56 -56 0 0 56z"/>
   <polygon class="fil0" points="530,1038 470,1038 470,1098 530,1098 "/>
   <path class="fil1" d="M468 1036l64 0 0 64 -64 0 0 -64zm4 60l0 0 56 0 0 -56 -56 0 0 56z"/>
   <polygon class="fil0" points="589,1038 529,1038 529,1098 589,1098 "/>
   <path class="fil1" d="M527 1036l64 0 0 64 -64 0 0 -64zm4 60l0 0 56 0 0 -56 -56 0 0 56z"/>
   <polygon class="fil0" points="648,1038 588,1038 588,1098 648,1098 "/>
   <path class="fil1" d="M586 1036l64 0 0 64 -64 0 0 -64zm4 60l0 0 56 0 0 -56 -56 0 0 56z"/>
   <polygon class="fil0" points="292,978 232,978 232,1038 292,1038 "/>
   <path class="fil1" d="M230 977l64 0 0 64 -64 0 0 -64zm4 60l0 0 56 0 0 -56 -56 0 0 56z"/>
   <polygon class="fil2" points="351,978 291,978 291,1038 351,1038 "/>
   <path class="fil1" d="M289 977l64 0 0 64 -64 0 0 -64zm4 60l0 0 56 0 0 -56 -56 0 0 56z"/>
   <polygon class="fil0" points="411,978 351,978 351,1038 411,1038 "/>
   <path class="fil1" d="M349 977l64 0 0 64 -64 0 0 -64zm4 60l0 0 56 0 0 -56 -56 0 0 56z"/>
   <polygon class="fil2" points="470,978 410,978 410,1038 470,1038 "/>
   <path class="fil1" d="M408 977l64 0 0 64 -64 0 0 -64zm4 60l0 0 56 0 0 -56 -56 0 0 56z"/>
   <polygon class="fil0" points="530,978 470,978 470,1038 530,1038 "/>
   <path class="fil1" d="M468 977l64 0 0 64 -64 0 0 -64zm4 60l0 0 56 0 0 -56 -56 0 0 56z"/>
   <polygon class="fil2" points="589,978 529,978 529,1038 589,1038 "/>
   <path class="fil1" d="M527 977l64 0 0 64 -64 0 0 -64zm4 60l0 0 56 0 0 -56 -56 0 0 56z"/>
   <polygon class="fil0" points="648,978 588,978 588,1038 648,1038 "/>
   <path class="fil1" d="M586 977l64 0 0 64 -64 0 0 -64zm4 60l0 0 56 0 0 -56 -56 0 0 56z"/>
   <polygon class="fil3" points="612,1088 800,1088 800,999 612,999 "/>
   <polygon class="fil3" points="796,1011 626,1011 626,621 796,621 "/>
   <path class="fil4" d="M983 1088c10,0 18,-8 18,-18l0 -455c0,-10 -8,-18 -18,-18l-169 0c-10,0 -18,8 -18,18l0 455c0,10 8,18 18,18l169 0z"/>
   <polygon class="fil5" points="2301,1139 2198,1139 2198,778 2301,778 "/>
   <polygon class="fil5" points="2301,349 2198,349 2198,0 2301,0 "/>
   <polygon class="fil5" points="626,609 653,609 653,1011 626,1011 "/>
   <polygon class="fil5" points="626,363 653,363 653,413 626,413 "/>
   <polygon class="fil5" points="626,105 653,105 653,154 626,154 "/>
   <polygon class="fil5" points="796,633 445,633 445,609 796,609 "/>
   <polygon class="fil5" points="970,413 627,413 627,387 970,387 "/>
   <polygon class="fil5" points="286,633 44,633 44,609 286,609 "/>
   <polygon class="fil5" points="783,387 809,387 809,1099 783,1099 "/>
   <polygon class="fil5" points="796,986 626,986 626,1013 796,1013 "/>
   <polygon class="fil6" points="26,178 58,178 58,196 47,196 165,391 155,391 37,196 26,196 "/>
   <polygon class="fil6" points="623,154 655,154 655,172 644,172 747,341 737,341 634,172 623,172 "/>
   <polygon class="fil6" points="445,635 445,606 427,606 427,616 295,545 295,554 427,625 427,635 "/>
   <polygon class="fil5" points="18,1139 2256,1139 2256,1087 18,1087 "/>
   <polygon class="fil5" points="18,127 2256,127 2256,75 18,75 "/>
   <path class="fil7" d="M573 995l-80 0c-3,0 -5,-2 -5,-5l0 -31c0,-4 4,-6 8,-8 -4,-19 -4,-42 -4,-53 0,-30 19,-50 43,-50 24,0 44,20 44,50 0,11 -3,34 -7,53 3,2 6,5 6,8l0 31c0,3 -2,5 -5,5z"/>
   <path class="fil7" d="M534 934c-20,0 -35,-18 -35,-39 0,-22 16,-39 35,-39 20,0 35,17 35,39 0,21 -16,39 -35,39z"/>
   <path class="fil7" d="M573 999l-80 0c-3,0 -5,-3 -5,-5l0 -34c0,-7 14,-11 17,-11l57 0c5,0 16,4 16,11l0 34c0,3 -2,5 -5,5z"/>
   <path class="fil7" d="M524 896c-1,-1 -1,-2 -1,-3 0,-8 5,-15 11,-15 6,0 12,6 12,15 0,1 -1,2 -1,3l-22 0z"/>
   <path class="fil7" d="M501 968c-2,1 -3,2 -3,4 1,2 3,3 5,3 4,-2 3,-8 -2,-7z"/>
   <path class="fil7" d="M503 963c4,0 7,3 7,7 0,4 -3,7 -7,7 -4,0 -7,-4 -7,-7 0,-4 3,-7 7,-7z"/>
   <path class="fil7" d="M503 966c2,0 4,2 4,4 0,3 -2,4 -4,4 -3,0 -4,-2 -4,-4 0,-3 2,-4 4,-4z"/>
   <path class="fil8" d="M573 989l-80 0c-3,0 -5,-2 -5,-5l0 -30c0,-3 4,-5 8,-7 -4,-19 -4,-41 -4,-52 0,-28 19,-48 43,-48 24,0 44,20 44,48 0,11 -3,33 -7,52 3,2 6,4 6,7l0 30c0,3 -2,5 -5,5z"/>
   <path class="fil9" d="M534 945c29,0 51,-23 51,-52 0,-28 -23,-51 -51,-51 -28,0 -51,23 -51,51 0,29 23,52 51,52zm0 -1l0 0c-27,0 -50,-23 -50,-51 0,-28 23,-50 50,-50 28,0 50,23 50,50 0,28 -22,51 -50,51z"/>
   <path class="fil10" d="M534 945c28,0 51,-23 51,-51 0,-28 -23,-51 -51,-51 -28,0 -51,23 -51,51 0,29 23,51 51,51zm0 -1l0 0c-27,0 -50,-23 -50,-50 0,-28 22,-50 50,-50 27,0 50,22 50,50 0,28 -22,50 -50,50z"/>
   <path class="fil11" d="M534 944c28,0 50,-23 50,-51 0,-28 -22,-50 -50,-50 -27,0 -50,23 -50,50 0,28 23,51 50,51zm0 -1l0 0c-27,0 -49,-22 -49,-50 0,-27 22,-49 49,-49 27,0 49,22 49,49 0,28 -22,50 -49,50z"/>
   <path class="fil12" d="M534 944c27,0 50,-23 50,-50 0,-28 -22,-50 -50,-50 -27,0 -50,22 -50,50 0,28 22,50 50,50zm0 -1l0 0c-27,0 -49,-22 -49,-49 0,-26 22,-49 49,-49 27,0 49,22 49,49 0,27 -22,49 -49,49z"/>
   <path class="fil13" d="M534 943c27,0 49,-22 49,-50 0,-27 -22,-49 -49,-49 -27,0 -49,22 -49,49 0,27 22,50 49,50zm0 -1l0 0c-26,0 -48,-22 -48,-49 0,-26 22,-48 48,-48 27,0 48,22 48,48 0,27 -21,49 -48,49z"/>
   <path class="fil14" d="M534 943c27,0 49,-22 49,-49 0,-26 -22,-49 -49,-49 -27,0 -49,22 -49,49 0,27 22,49 49,49zm0 -1l0 0c-26,0 -48,-22 -48,-48 0,-26 22,-48 48,-48 26,0 48,22 48,48 0,26 -21,48 -48,48z"/>
   <path class="fil15" d="M534 942c27,0 48,-22 48,-49 0,-26 -21,-48 -48,-48 -26,0 -48,22 -48,48 0,27 22,49 48,49zm0 -1l0 0c-26,0 -47,-21 -47,-48 0,-26 21,-47 47,-47 26,0 47,21 47,47 0,26 -21,48 -47,48z"/>
   <path class="fil16" d="M534 942c26,0 48,-22 48,-48 0,-26 -21,-48 -48,-48 -26,0 -48,22 -48,48 0,26 22,48 48,48zm0 -1l0 0c-25,0 -47,-21 -47,-47 0,-25 21,-46 47,-46 26,0 47,21 47,46 0,26 -21,47 -47,47z"/>
   <path class="fil17" d="M534 941c26,0 47,-21 47,-48 0,-26 -21,-47 -47,-47 -26,0 -47,21 -47,47 0,26 21,48 47,48zm0 -1l0 0c-25,0 -46,-21 -46,-47 0,-25 21,-46 46,-46 25,0 46,21 46,46 0,26 -21,47 -46,47z"/>
   <path class="fil18" d="M534 941c26,0 47,-21 47,-47 0,-25 -21,-46 -47,-46 -25,0 -47,21 -47,46 0,26 21,47 47,47zm0 -1l0 0c-25,0 -45,-21 -45,-46 0,-25 21,-45 45,-45 25,0 45,21 45,45 0,25 -20,46 -45,46z"/>
   <path class="fil19" d="M534 940c25,0 46,-21 46,-47 0,-25 -21,-46 -46,-46 -25,0 -46,21 -46,46 0,26 21,47 46,47zm0 -1l0 0c-25,0 -45,-21 -45,-45 0,-25 20,-45 45,-45 25,0 45,20 45,45 0,25 -20,45 -45,45z"/>
   <path class="fil20" d="M534 940c25,0 45,-21 45,-46 0,-25 -20,-45 -45,-45 -25,0 -45,21 -45,45 0,25 21,46 45,46zm0 -1l0 0c-24,0 -44,-20 -44,-45 0,-24 20,-44 44,-44 25,0 44,20 44,44 0,25 -20,45 -44,45z"/>
   <path class="fil21" d="M534 939c25,0 45,-21 45,-45 0,-25 -20,-45 -45,-45 -25,0 -45,20 -45,45 0,25 20,45 45,45zm0 -1l0 0c-24,0 -44,-20 -44,-44 0,-24 20,-44 44,-44 24,0 44,20 44,44 0,24 -20,44 -44,44z"/>
   <path class="fil22" d="M534 939c25,0 44,-20 44,-45 0,-24 -20,-44 -44,-44 -24,0 -44,20 -44,44 0,25 20,45 44,45zm0 -1l0 0c-24,0 -43,-20 -43,-44 0,-24 20,-43 43,-43 24,0 43,20 43,43 0,24 -19,44 -43,44z"/>
   <path class="fil23" d="M534 938c24,0 44,-20 44,-44 0,-24 -20,-44 -44,-44 -24,0 -44,20 -44,44 0,24 20,44 44,44zm0 -1l0 0c-23,0 -43,-20 -43,-43 0,-23 20,-43 43,-43 24,0 43,20 43,43 0,24 -19,43 -43,43z"/>
   <path class="fil24" d="M534 938c24,0 43,-20 43,-44 0,-24 -19,-43 -43,-43 -24,0 -43,20 -43,43 0,24 20,44 43,44zm0 -1l0 0c-23,0 -42,-19 -42,-43 0,-23 19,-42 42,-42 24,0 42,19 42,42 0,24 -19,43 -42,43z"/>
   <path class="fil25" d="M534 937c24,0 43,-20 43,-43 0,-23 -19,-43 -43,-43 -23,0 -43,20 -43,43 0,24 20,43 43,43zm0 -1l0 0c-23,0 -42,-19 -42,-42 0,-23 19,-42 42,-42 23,0 42,19 42,42 0,23 -19,42 -42,42z"/>
   <path class="fil26" d="M534 936c24,0 42,-19 42,-43 0,-23 -19,-42 -42,-42 -23,0 -42,19 -42,42 0,24 19,43 42,43zm0 -1l0 0c-23,0 -41,-19 -41,-42 0,-23 18,-41 41,-41 23,0 41,19 41,41 0,23 -19,42 -41,42z"/>
   <path class="fil27" d="M534 936c23,0 42,-19 42,-42 0,-23 -19,-42 -42,-42 -23,0 -42,19 -42,42 0,23 19,42 42,42zm0 -1l0 0c-22,0 -41,-19 -41,-41 0,-22 18,-41 41,-41 23,0 41,19 41,41 0,23 -18,41 -41,41z"/>
   <path class="fil28" d="M534 935c23,0 41,-19 41,-42 0,-23 -19,-41 -41,-41 -23,0 -41,19 -41,41 0,23 18,42 41,42zm0 -1l0 0c-22,0 -40,-19 -40,-41 0,-22 18,-40 40,-40 22,0 40,18 40,40 0,22 -18,41 -40,41z"/>
   <path class="fil29" d="M534 935c23,0 41,-19 41,-41 0,-22 -18,-41 -41,-41 -22,0 -41,18 -41,41 0,23 18,41 41,41zm0 -1l0 0c-22,0 -40,-18 -40,-40 0,-22 18,-40 40,-40 22,0 40,18 40,40 0,22 -17,40 -40,40z"/>
   <path class="fil30" d="M534 934c22,0 40,-19 40,-41 0,-22 -18,-40 -40,-40 -22,0 -40,18 -40,40 0,22 18,41 40,41zm0 -1l0 0c-22,0 -39,-18 -39,-40 0,-21 17,-39 39,-39 22,0 39,18 39,39 0,22 -17,40 -39,40z"/>
   <path class="fil31" d="M534 934c22,0 40,-18 40,-40 0,-22 -17,-40 -40,-40 -22,0 -40,18 -40,40 0,22 18,40 40,40zm0 -1l0 0c-21,0 -39,-17 -39,-39 0,-21 17,-39 39,-39 22,0 39,18 39,39 0,22 -17,39 -39,39z"/>
   <path class="fil32" d="M534 933c22,0 39,-18 39,-40 0,-21 -17,-39 -39,-39 -22,0 -39,18 -39,39 0,22 17,40 39,40zm0 -1l0 0c-21,0 -38,-17 -38,-39 0,-21 17,-38 38,-38 21,0 38,17 38,38 0,21 -17,39 -38,39z"/>
   <path class="fil33" d="M534 933c22,0 39,-17 39,-39 0,-21 -17,-39 -39,-39 -21,0 -39,18 -39,39 0,22 17,39 39,39zm0 -1l0 0c-21,0 -38,-17 -38,-38 0,-21 17,-38 38,-38 21,0 38,17 38,38 0,21 -16,38 -38,38z"/>
   <path class="fil34" d="M534 932c21,0 38,-17 38,-39 0,-21 -17,-38 -38,-38 -21,0 -38,17 -38,38 0,21 17,39 38,39zm0 -1l0 0c-20,0 -37,-17 -37,-38 0,-20 17,-37 37,-37 21,0 37,17 37,37 0,21 -16,38 -37,38z"/>
   <path class="fil35" d="M534 932c21,0 38,-17 38,-38 0,-21 -16,-38 -38,-38 -21,0 -38,17 -38,38 0,21 17,38 38,38zm0 -1l0 0c-20,0 -36,-16 -36,-37 0,-20 16,-36 36,-36 20,0 37,16 37,36 0,21 -16,37 -37,37z"/>
   <path class="fil36" d="M534 931c21,0 37,-17 37,-38 0,-20 -16,-37 -37,-37 -20,0 -37,17 -37,37 0,21 17,38 37,38zm0 -1l0 0c-20,0 -36,-16 -36,-36 0,-20 16,-36 36,-36 20,0 36,16 36,36 0,20 -16,36 -36,36z"/>
   <path class="fil37" d="M534 931c20,0 37,-16 37,-37 0,-20 -16,-36 -37,-36 -20,0 -36,16 -36,36 0,21 16,37 36,37zm0 -1l0 0c-20,0 -35,-16 -35,-36 0,-20 16,-35 35,-35 20,0 35,16 35,35 0,20 -16,36 -35,36z"/>
   <path class="fil38" d="M534 930c20,0 36,-16 36,-36 0,-20 -16,-36 -36,-36 -20,0 -36,16 -36,36 0,20 16,36 36,36zm0 -1l0 0c-19,0 -35,-16 -35,-35 0,-19 16,-35 35,-35 20,0 35,16 35,35 0,20 -15,35 -35,35z"/>
   <path class="fil39" d="M534 930c20,0 35,-16 35,-36 0,-20 -16,-35 -35,-35 -20,0 -35,16 -35,35 0,20 16,36 35,36zm0 -1l0 0c-19,0 -34,-16 -34,-35 0,-19 15,-34 34,-34 19,0 34,15 34,34 0,19 -15,35 -34,35z"/>
   <path class="fil40" d="M534 929c20,0 35,-16 35,-35 0,-19 -15,-35 -35,-35 -19,0 -35,16 -35,35 0,20 16,35 35,35zm0 -1l0 0c-18,0 -34,-15 -34,-34 0,-19 15,-34 34,-34 19,0 34,15 34,34 0,19 -15,34 -34,34z"/>
   <path class="fil41" d="M534 929c19,0 34,-16 34,-35 0,-19 -15,-34 -34,-34 -19,0 -34,15 -34,34 0,19 15,35 34,35zm0 -1l0 0c-18,0 -33,-15 -33,-34 0,-18 15,-33 33,-33 18,0 33,15 33,33 0,18 -15,34 -33,34z"/>
   <path class="fil41" d="M534 928c19,0 34,-15 34,-34 0,-19 -15,-34 -34,-34 -18,0 -34,15 -34,34 0,19 15,34 34,34zm0 -1l0 0c-18,0 -33,-15 -33,-33 0,-18 15,-33 33,-33 18,0 33,15 33,33 0,18 -14,33 -33,33z"/>
   <path class="fil42" d="M534 928c18,0 33,-15 33,-34 0,-18 -15,-33 -33,-33 -18,0 -33,15 -33,33 0,18 15,34 33,34zm0 -1l0 0c-18,0 -32,-15 -32,-33 0,-17 15,-32 32,-32 18,0 32,15 32,32 0,18 -14,33 -32,33z"/>
   <path class="fil43" d="M534 927c18,0 33,-15 33,-33 0,-18 -14,-33 -33,-33 -18,0 -33,15 -33,33 0,18 15,33 33,33zm0 -1l0 0c-18,0 -32,-14 -32,-32 0,-17 14,-32 32,-32 17,0 32,14 32,32 0,18 -14,32 -32,32z"/>
   <path class="fil44" d="M534 926c18,0 32,-15 32,-33 0,-17 -14,-32 -32,-32 -18,0 -32,15 -32,32 0,18 15,33 32,33zm0 -1l0 0c-17,0 -31,-14 -31,-32 0,-17 14,-31 31,-31 17,0 31,14 31,31 0,17 -14,32 -31,32z"/>
   <path class="fil45" d="M534 926c17,0 32,-14 32,-32 0,-17 -14,-32 -32,-32 -18,0 -32,14 -32,32 0,18 14,32 32,32zm0 -1l0 0c-17,0 -31,-14 -31,-31 0,-17 14,-31 31,-31 17,0 31,14 31,31 0,17 -14,31 -31,31z"/>
   <path class="fil46" d="M534 925c17,0 31,-14 31,-32 0,-17 -14,-31 -31,-31 -17,0 -31,14 -31,31 0,17 14,32 31,32zm0 -1l0 0c-16,0 -30,-14 -30,-31 0,-16 14,-30 30,-30 17,0 30,14 30,30 0,17 -13,31 -30,31z"/>
   <path class="fil47" d="M534 925c17,0 31,-14 31,-31 0,-17 -14,-31 -31,-31 -17,0 -31,14 -31,31 0,17 14,31 31,31zm0 -1l0 0c-16,0 -30,-14 -30,-30 0,-16 13,-30 30,-30 16,0 30,13 30,30 0,16 -13,30 -30,30z"/>
   <path class="fil48" d="M534 924c17,0 30,-14 30,-31 0,-16 -13,-30 -30,-30 -16,0 -30,14 -30,30 0,17 14,31 30,31zm0 -1l0 0c-16,0 -29,-13 -29,-30 0,-16 13,-29 29,-29 16,0 29,13 29,29 0,16 -13,30 -29,30z"/>
   <path class="fil49" d="M534 924c16,0 30,-14 30,-30 0,-16 -13,-30 -30,-30 -16,0 -30,13 -30,30 0,16 13,30 30,30zm0 -1l0 0c-16,0 -29,-13 -29,-29 0,-15 13,-29 29,-29 16,0 29,13 29,29 0,16 -13,29 -29,29z"/>
   <path class="fil50" d="M534 923c16,0 29,-13 29,-30 0,-16 -13,-29 -29,-29 -16,0 -29,13 -29,29 0,16 13,30 29,30zm0 -1l0 0c-15,0 -28,-13 -28,-29 0,-15 13,-28 28,-28 16,0 28,13 28,28 0,16 -12,29 -28,29z"/>
   <path class="fil51" d="M534 923c16,0 29,-13 29,-29 0,-15 -13,-29 -29,-29 -16,0 -29,13 -29,29 0,16 13,29 29,29zm0 -1l0 0c-15,0 -27,-13 -27,-28 0,-15 13,-27 27,-27 15,0 27,13 27,27 0,15 -12,28 -27,28z"/>
   <path class="fil52" d="M534 922c16,0 28,-13 28,-29 0,-15 -12,-28 -28,-28 -15,0 -28,13 -28,28 0,16 13,29 28,29zm0 -1l0 0c-15,0 -27,-12 -27,-28 0,-15 12,-27 27,-27 15,0 27,12 27,27 0,15 -12,28 -27,28z"/>
   <path class="fil53" d="M534 922c15,0 27,-13 27,-28 0,-15 -12,-27 -27,-27 -15,0 -27,13 -27,27 0,15 13,28 27,28zm0 -1l0 0c-14,0 -26,-12 -26,-27 0,-14 12,-26 26,-26 15,0 26,12 26,26 0,15 -12,27 -26,27z"/>
   <path class="fil54" d="M534 921c15,0 27,-12 27,-28 0,-15 -12,-27 -27,-27 -15,0 -27,12 -27,27 0,15 12,28 27,28zm0 -1l0 0c-14,0 -26,-12 -26,-26 0,-14 12,-26 26,-26 14,0 26,12 26,26 0,15 -12,26 -26,26z"/>
   <path class="fil55" d="M534 921c15,0 26,-12 26,-27 0,-14 -12,-26 -26,-26 -14,0 -26,12 -26,26 0,15 12,27 26,27zm0 -1l0 0c-14,0 -25,-12 -25,-26 0,-14 12,-25 25,-25 14,0 25,12 25,25 0,14 -11,26 -25,26z"/>
   <path class="fil56" d="M534 920c14,0 26,-12 26,-26 0,-14 -12,-26 -26,-26 -14,0 -26,12 -26,26 0,15 12,26 26,26zm0 -1l0 0c-14,0 -25,-12 -25,-25 0,-14 11,-25 25,-25 14,0 25,11 25,25 0,14 -11,25 -25,25z"/>
   <path class="fil57" d="M534 920c14,0 25,-12 25,-26 0,-14 -11,-25 -25,-25 -14,0 -25,12 -25,25 0,14 12,26 25,26zm0 -1l0 0c-13,0 -24,-11 -24,-25 0,-13 11,-24 24,-24 14,0 24,11 24,24 0,14 -11,25 -24,25z"/>
   <path class="fil58" d="M534 919c14,0 25,-12 25,-25 0,-14 -11,-25 -25,-25 -14,0 -25,11 -25,25 0,14 11,25 25,25zm0 -1l0 0c-13,0 -24,-11 -24,-24 0,-13 11,-24 24,-24 13,0 24,11 24,24 0,13 -11,24 -24,24z"/>
   <path class="fil59" d="M534 919c14,0 24,-11 24,-25 0,-13 -11,-24 -24,-24 -13,0 -24,11 -24,24 0,14 11,25 24,25zm0 -1l0 0c-13,0 -23,-11 -23,-24 0,-13 11,-23 23,-23 13,0 23,11 23,23 0,13 -10,24 -23,24z"/>
   <path class="fil60" d="M534 918c13,0 24,-11 24,-24 0,-13 -11,-24 -24,-24 -13,0 -24,11 -24,24 0,13 11,24 24,24zm0 -1l0 0c-12,0 -23,-10 -23,-23 0,-12 11,-23 23,-23 13,0 23,11 23,23 0,13 -10,23 -23,23z"/>
   <path class="fil61" d="M534 917c13,0 23,-11 23,-24 0,-13 -10,-23 -23,-23 -13,0 -23,11 -23,23 0,13 11,24 23,24zm0 -1l0 0c-12,0 -22,-10 -22,-23 0,-12 10,-22 22,-22 13,0 22,10 22,22 0,13 -10,23 -22,23z"/>
   <path class="fil62" d="M534 917c13,0 23,-10 23,-23 0,-12 -10,-23 -23,-23 -12,0 -23,11 -23,23 0,13 11,23 23,23zm0 -1l0 0c-12,0 -22,-10 -22,-22 0,-12 10,-22 22,-22 12,0 22,10 22,22 0,12 -10,22 -22,22z"/>
   <path class="fil63" d="M534 916c13,0 22,-10 22,-23 0,-12 -10,-22 -22,-22 -12,0 -22,10 -22,22 0,13 10,23 22,23zm0 -1l0 0c-12,0 -21,-10 -21,-22 0,-12 10,-21 21,-21 12,0 21,9 21,21 0,12 -10,22 -21,22z"/>
   <path class="fil64" d="M534 916c12,0 22,-10 22,-22 0,-12 -10,-22 -22,-22 -12,0 -22,10 -22,22 0,12 10,22 22,22zm0 -1l0 0c-11,0 -21,-10 -21,-21 0,-11 10,-21 21,-21 12,0 21,10 21,21 0,12 -9,21 -21,21z"/>
   <path class="fil65" d="M534 915c12,0 21,-10 21,-22 0,-12 -10,-21 -21,-21 -12,0 -21,9 -21,21 0,12 10,22 21,22zm0 -2l0 0c-11,0 -20,-9 -20,-20 0,-11 9,-20 20,-20 11,0 20,9 20,20 0,11 -9,20 -20,20z"/>
   <path class="fil66" d="M534 915c12,0 21,-10 21,-21 0,-11 -9,-21 -21,-21 -11,0 -21,10 -21,21 0,12 10,21 21,21zm0 -1l0 0c-11,0 -20,-9 -20,-20 0,-11 9,-20 20,-20 11,0 20,9 20,20 0,11 -8,20 -20,20z"/>
   <path class="fil67" d="M534 914c11,0 20,-10 20,-21 0,-11 -9,-20 -20,-20 -11,0 -20,9 -20,20 0,11 9,21 20,21zm0 -1l0 0c-11,0 -19,-9 -19,-20 0,-10 8,-19 19,-19 11,0 19,9 19,19 0,11 -8,20 -19,20z"/>
   <path class="fil68" d="M534 914c11,0 20,-9 20,-20 0,-11 -8,-20 -20,-20 -11,0 -20,9 -20,20 0,11 9,20 20,20zm0 -1l0 0c-10,0 -18,-8 -18,-19 0,-10 8,-19 18,-19 11,0 18,9 18,19 0,11 -8,19 -18,19z"/>
   <path class="fil69" d="M534 913c11,0 19,-9 19,-20 0,-10 -8,-19 -19,-19 -11,0 -19,9 -19,19 0,11 8,20 19,20zm0 -1l0 0c-9,0 -18,-8 -18,-18 0,-10 9,-18 18,-18 10,0 18,8 18,18 0,10 -8,18 -18,18z"/>
   <path class="fil70" d="M534 913c11,0 18,-8 18,-19 0,-10 -8,-19 -18,-19 -10,0 -18,9 -18,19 0,11 8,19 18,19zm0 -2l0 0c-9,0 -18,-7 -18,-17 0,-10 8,-17 18,-17 10,0 17,8 17,17 0,10 -7,17 -17,17z"/>
   <path class="fil71" d="M534 912c10,0 18,-8 18,-18 0,-10 -8,-18 -18,-18 -9,0 -18,8 -18,18 0,10 9,18 18,18zm0 -1l0 0c-9,0 -17,-7 -17,-17 0,-9 8,-17 17,-17 9,0 17,8 17,17 0,9 -7,17 -17,17z"/>
   <path class="fil72" d="M534 911c10,0 17,-7 17,-17 0,-10 -7,-17 -17,-17 -9,0 -18,8 -18,17 0,10 8,17 18,17zm0 -1l0 0c-9,0 -16,-7 -16,-16 0,-9 7,-16 16,-16 9,0 16,7 16,16 0,9 -7,16 -16,16z"/>
   <path class="fil73" d="M534 911c9,0 17,-7 17,-17 0,-9 -7,-17 -17,-17 -9,0 -17,8 -17,17 0,9 8,17 17,17zm0 -1l0 0c-8,0 -16,-7 -16,-16 0,-9 7,-16 16,-16 9,0 16,7 16,16 0,9 -7,16 -16,16z"/>
   <path class="fil74" d="M534 910c9,0 16,-7 16,-16 0,-9 -7,-16 -16,-16 -9,0 -16,7 -16,16 0,9 7,16 16,16zm0 -1l0 0c-8,0 -15,-7 -15,-15 0,-8 7,-15 15,-15 8,0 15,7 15,15 0,8 -7,15 -15,15z"/>
   <path class="fil75" d="M534 910c9,0 16,-7 16,-16 0,-9 -7,-16 -16,-16 -8,0 -16,7 -16,16 0,9 7,16 16,16zm0 -1l0 0c-8,0 -15,-6 -15,-15 0,-8 7,-15 15,-15 8,0 15,7 15,15 0,8 -6,15 -15,15z"/>
   <path class="fil76" d="M534 909c8,0 15,-7 15,-15 0,-9 -7,-15 -15,-15 -8,0 -15,7 -15,15 0,8 7,15 15,15zm0 -1l0 0c-8,0 -14,-6 -14,-14 0,-7 6,-14 14,-14 8,0 14,7 14,14 0,8 -6,14 -14,14z"/>
   <path class="fil77" d="M534 908c8,0 15,-6 15,-15 0,-8 -6,-15 -15,-15 -8,0 -15,7 -15,15 0,8 7,15 15,15zm0 -1l0 0c-7,0 -14,-6 -14,-14 0,-7 6,-14 14,-14 8,0 14,6 14,14 0,8 -6,14 -14,14z"/>
   <path class="fil78" d="M534 908c8,0 14,-6 14,-14 0,-7 -6,-14 -14,-14 -8,0 -14,7 -14,14 0,8 6,14 14,14zm0 -1l0 0c-7,0 -13,-6 -13,-13 0,-7 6,-13 13,-13 7,0 13,6 13,13 0,7 -6,13 -13,13z"/>
   <path class="fil79" d="M534 907c8,0 14,-6 14,-14 0,-7 -6,-14 -14,-14 -7,0 -14,6 -14,14 0,8 6,14 14,14zm0 -1l0 0c-7,0 -13,-5 -13,-13 0,-7 6,-13 13,-13 7,0 13,6 13,13 0,7 -5,13 -13,13z"/>
   <path class="fil80" d="M534 907c7,0 13,-6 13,-13 0,-7 -6,-13 -13,-13 -7,0 -13,6 -13,13 0,7 6,13 13,13zm0 -1l0 0c-6,0 -12,-5 -12,-12 0,-6 6,-12 12,-12 7,0 12,6 12,12 0,7 -5,12 -12,12z"/>
   <path class="fil81" d="M534 906c7,0 13,-5 13,-13 0,-7 -5,-13 -13,-13 -7,0 -13,6 -13,13 0,7 6,13 13,13zm0 -1l0 0c-6,0 -12,-5 -12,-12 0,-6 5,-12 12,-12 6,0 12,5 12,12 0,7 -5,12 -12,12z"/>
   <path class="fil82" d="M534 906c7,0 12,-5 12,-12 0,-6 -5,-12 -12,-12 -6,0 -12,6 -12,12 0,7 6,12 12,12zm0 -1l0 0c-6,0 -11,-5 -11,-11 0,-6 5,-11 11,-11 6,0 11,5 11,11 0,6 -5,11 -11,11z"/>
   <path class="fil83" d="M534 905c6,0 12,-5 12,-12 0,-6 -5,-12 -12,-12 -6,0 -12,5 -12,12 0,7 5,12 12,12zm0 -1l0 0c-6,0 -11,-4 -11,-11 0,-6 5,-11 11,-11 6,0 11,5 11,11 0,6 -5,11 -11,11z"/>
   <path class="fil84" d="M534 905c6,0 11,-5 11,-11 0,-6 -5,-11 -11,-11 -6,0 -11,5 -11,11 0,6 5,11 11,11zm0 -1l0 0c-5,0 -10,-4 -10,-10 0,-5 5,-10 10,-10 6,0 10,5 10,10 0,6 -4,10 -10,10z"/>
   <path class="fil85" d="M534 904c6,0 11,-4 11,-11 0,-6 -5,-11 -11,-11 -6,0 -11,5 -11,11 0,6 5,11 11,11zm0 -1l0 0c-5,0 -9,-4 -9,-9 0,-5 4,-10 9,-10 5,0 9,4 9,10 0,5 -4,9 -9,9z"/>
   <path class="fil86" d="M534 904c6,0 10,-4 10,-10 0,-5 -4,-10 -10,-10 -5,0 -10,5 -10,10 0,6 5,10 10,10zm0 -1l0 0c-5,0 -9,-4 -9,-9 0,-5 4,-9 9,-9 5,0 9,4 9,9 0,5 -4,9 -9,9z"/>
   <path class="fil87" d="M534 903c5,0 9,-4 9,-9 0,-5 -4,-10 -9,-10 -5,0 -9,4 -9,10 0,5 4,9 9,9zm0 -1l0 0c-5,0 -8,-4 -8,-8 0,-4 4,-9 8,-9 5,0 8,4 8,9 0,5 -4,8 -8,8z"/>
   <path class="fil88" d="M534 903c5,0 9,-4 9,-9 0,-5 -4,-9 -9,-9 -5,0 -9,4 -9,9 0,5 4,9 9,9zm0 -1l0 0c-4,0 -8,-3 -8,-8 0,-4 4,-8 8,-8 5,0 8,4 8,8 0,5 -3,8 -8,8z"/>
   <path class="fil88" d="M534 902c5,0 8,-4 8,-8 0,-4 -4,-9 -8,-9 -5,0 -8,4 -8,9 0,5 4,8 8,8zm0 -1l0 0c-4,0 -7,-3 -7,-7 0,-4 4,-7 7,-7 4,0 7,4 7,7 0,4 -3,7 -7,7z"/>
   <path class="fil89" d="M534 902c5,0 8,-3 8,-8 0,-4 -3,-8 -8,-8 -4,0 -8,4 -8,8 0,5 4,8 8,8zm0 -1l0 0c-4,0 -7,-3 -7,-7 0,-4 3,-7 7,-7 4,0 7,3 7,7 0,4 -3,7 -7,7z"/>
   <path class="fil90" d="M534 901c4,0 7,-3 7,-7 0,-4 -3,-7 -7,-7 -4,0 -7,4 -7,7 0,4 4,7 7,7zm0 -1l0 0c-3,0 -6,-3 -6,-6 0,-3 3,-6 6,-6 4,0 6,3 6,6 0,4 -3,6 -6,6z"/>
   <path class="fil91" d="M534 901c4,0 7,-3 7,-7 0,-4 -3,-7 -7,-7 -4,0 -7,3 -7,7 0,4 3,7 7,7zm0 -1l0 0c-3,0 -6,-2 -6,-6 0,-3 3,-6 6,-6 3,0 6,3 6,6 0,4 -3,6 -6,6z"/>
   <path class="fil91" d="M534 900c4,0 6,-3 6,-6 0,-3 -3,-6 -6,-6 -3,0 -6,3 -6,6 0,4 3,6 6,6zm0 -1l0 0c-3,0 -5,-2 -5,-5 0,-3 3,-5 5,-5 3,0 5,3 5,5 0,3 -2,5 -5,5z"/>
   <path class="fil92" d="M534 900c3,0 6,-2 6,-6 0,-3 -3,-6 -6,-6 -3,0 -6,3 -6,6 0,4 3,6 6,6zm0 -1l0 0c-3,0 -5,-2 -5,-5 0,-3 2,-5 5,-5 3,0 5,2 5,5 0,3 -2,5 -5,5z"/>
   <path class="fil93" d="M534 899c3,0 5,-2 5,-5 0,-3 -2,-5 -5,-5 -3,0 -5,3 -5,5 0,3 3,5 5,5zm0 -1l0 0c-2,0 -4,-2 -4,-4 0,-2 2,-4 4,-4 3,0 4,2 4,4 0,3 -2,4 -4,4z"/>
   <path class="fil94" d="M534 898c3,0 5,-2 5,-5 0,-3 -2,-5 -5,-5 -3,0 -5,2 -5,5 0,3 2,5 5,5zm0 -1l0 0c-2,0 -4,-2 -4,-4 0,-2 2,-4 4,-4 2,0 4,2 4,4 0,2 -2,4 -4,4z"/>
   <path class="fil95" d="M534 898c3,0 4,-2 4,-4 0,-2 -2,-4 -4,-4 -2,0 -4,2 -4,4 0,3 2,4 4,4zm0 -1l0 0c-2,0 -3,-1 -3,-3 0,-2 2,-3 3,-3 2,0 3,2 3,3 0,2 -1,3 -3,3z"/>
   <path class="fil96" d="M534 897c2,0 4,-2 4,-4 0,-2 -2,-4 -4,-4 -2,0 -4,2 -4,4 0,2 2,4 4,4zm0 -1l0 0c-1,0 -3,-1 -3,-3 0,-1 2,-3 3,-3 2,0 3,2 3,3 0,2 -1,3 -3,3z"/>
   <path class="fil97" d="M534 897c2,0 3,-1 3,-3 0,-2 -1,-3 -3,-3 -2,0 -3,2 -3,3 0,2 2,3 3,3zm0 -1l0 0c-1,0 -2,-1 -2,-2 0,-1 1,-2 2,-2 2,0 2,1 2,2 0,2 -1,2 -2,2z"/>
   <path class="fil97" d="M534 896c2,0 3,-1 3,-3 0,-1 -1,-3 -3,-3 -1,0 -3,2 -3,3 0,2 2,3 3,3zm0 -1l0 0c-1,0 -2,-1 -2,-2 0,-1 1,-2 2,-2 1,0 2,1 2,2 0,1 -1,2 -2,2z"/>
   <path class="fil98" d="M534 896c2,0 2,-1 2,-2 0,-1 -1,-2 -2,-2 -1,0 -2,1 -2,2 0,2 1,2 2,2zm0 -1l0 0c-1,0 -1,0 -1,-1 0,-1 1,-1 1,-1 1,0 1,0 1,1 0,1 -1,1 -1,1z"/>
   <path class="fil99" d="M534 895c-1,0 -2,-1 -2,-2 0,-1 1,-2 2,-2 1,0 2,1 2,2 0,1 -1,2 -2,2z"/>
   <path class="fil8" d="M534 895c-1,0 -1,0 -1,-1 0,-1 1,-1 1,-1 1,0 1,0 1,1 0,1 -1,1 -1,1z"/>
   <path class="fil8" d="M534 894c0,0 -1,0 -1,0l1 -1c1,0 1,1 1,1 0,0 0,0 -1,0z"/>
   <path class="fil100" d="M573 994l-80 0c-3,0 -5,-3 -5,-5l0 -33c0,-7 14,-11 17,-11l57 0c5,0 16,4 16,11l0 33c0,3 -2,5 -5,5z"/>
   <path class="fil7" d="M524 894c-1,-1 -1,-2 -1,-3 0,-8 5,-14 11,-14 6,0 12,6 12,14 0,1 -1,2 -1,3l-22 0z"/>
   <path class="fil8" d="M501 964c-2,1 -3,2 -3,4 1,2 3,3 5,2 4,-1 3,-8 -2,-6z"/>
   <path class="fil101" d="M496 966c0,4 3,7 7,7 4,0 7,-3 7,-7 0,-4 -3,-7 -7,-7 -4,0 -7,3 -7,7zm7 6l0 0c-4,0 -6,-3 -6,-6 0,-4 3,-7 6,-7 4,0 6,3 6,7 0,3 -3,6 -6,6z"/>
   <path class="fil37" d="M503 973c4,0 7,-3 7,-7 0,-4 -3,-7 -7,-7l0 0 0 0 0 0 0 0c-4,0 -6,3 -6,7 0,4 3,7 6,7l0 0 0 0 0 0 0 0zm0 -1l0 0c-3,0 -6,-3 -6,-6 0,-4 3,-6 6,-6 3,0 6,3 6,6 0,3 -3,6 -6,6z"/>
   <path class="fil102" d="M503 972c4,0 6,-3 6,-6 0,-4 -3,-7 -6,-7 -4,0 -7,3 -7,6l0 0 0 0 0 0 0 0 0 0 0 0 0 0 0 0c0,3 3,6 7,6zm0 -1l0 0c-3,0 -5,-3 -5,-5 0,-3 2,-6 5,-6 3,0 5,3 5,6 0,3 -2,5 -5,5z"/>
   <path class="fil103" d="M503 972c3,0 6,-3 6,-6 0,-4 -3,-6 -6,-6 -3,0 -6,3 -6,6 0,3 3,6 6,6zm0 -1l0 0c-3,0 -5,-2 -5,-5 0,-3 2,-5 5,-5 3,0 5,2 5,5 0,3 -2,5 -5,5z"/>
   <path class="fil54" d="M503 971c3,0 5,-3 5,-5 0,-3 -2,-6 -5,-6 -3,0 -5,3 -5,6 0,3 2,5 5,5zm0 -1l0 0c-3,0 -4,-2 -4,-4 0,-3 2,-5 4,-5 2,0 4,2 4,5 0,2 -2,4 -4,4z"/>
   <path class="fil104" d="M503 971c3,0 5,-2 5,-5 0,-3 -2,-5 -5,-5 -3,0 -5,2 -5,5 0,3 2,5 5,5zm0 -1l0 0c-2,0 -4,-2 -4,-4 0,-2 2,-4 4,-4 2,0 4,2 4,4 0,2 -2,4 -4,4z"/>
   <path class="fil105" d="M503 970c2,0 4,-2 4,-4 0,-3 -2,-5 -4,-5 -3,0 -4,2 -4,5 0,2 2,4 4,4zm0 -1l0 0c-2,0 -3,-2 -3,-3 0,-2 1,-4 3,-4 2,0 3,2 3,4 0,2 -2,3 -3,3z"/>
   <path class="fil106" d="M503 970c2,0 4,-2 4,-4 0,-2 -2,-4 -4,-4 -2,0 -4,2 -4,4 0,2 2,4 4,4zm0 -1l0 0c-2,0 -3,-2 -3,-3 0,-2 1,-3 3,-3 2,0 3,2 3,3 0,1 -1,3 -3,3z"/>
   <path class="fil107" d="M503 969c2,0 3,-1 3,-3 0,-2 -2,-4 -3,-4 -2,0 -3,2 -3,4 0,2 1,3 3,3zm0 -1l0 0c-1,0 -2,-1 -2,-2 0,-2 1,-3 2,-3 1,0 2,1 2,3 0,1 -1,2 -2,2z"/>
   <path class="fil82" d="M503 969c2,0 3,-2 3,-3 0,-2 -1,-3 -3,-3 -2,0 -3,2 -3,3 0,1 1,3 3,3zm0 -1l0 0c-1,0 -2,-1 -2,-2 0,-1 1,-2 2,-2 1,0 2,0 2,2 0,1 -1,2 -2,2z"/>
   <path class="fil87" d="M503 968c1,0 2,-1 2,-2 0,-2 -1,-3 -2,-3 -1,0 -2,1 -2,3 0,1 1,2 2,2zm0 -1l0 0c-1,0 -1,0 -1,-1 0,-1 1,-1 1,-1 0,0 1,0 1,1 0,1 -1,1 -1,1z"/>
   <path class="fil91" d="M503 968c-1,0 -2,-1 -2,-2 0,-1 1,-2 2,-2 1,0 2,0 2,2 0,1 -1,2 -2,2z"/>
   <path class="fil96" d="M503 967c-1,0 -1,0 -1,-1 0,-1 1,-1 1,-1 0,0 1,0 1,1 0,1 -1,1 -1,1z"/>
   <path class="fil8" d="M503 967c-1,0 -1,-1 -1,-1 0,-1 0,-1 1,-1 0,0 0,0 0,1l0 1z"/>
   <path class="fil19" d="M506 969c1,-1 1,-2 1,-3 0,-1 0,-2 -1,-3 1,1 1,2 1,3 0,1 0,2 -1,3z"/>
   <path class="fil108" d="M499 966c0,2 2,4 4,4 2,0 4,-2 4,-4 0,-3 -2,-5 -4,-5 -3,0 -4,2 -4,5zm4 4l0 0c-2,0 -4,-2 -4,-4 0,-2 2,-4 4,-4 2,0 4,2 4,4 0,2 -2,4 -4,4z"/>
   <path class="fil38" d="M503 970l0 0 0 0 0 0 0 0 0 0 0 0 0 0 0 0 0 0 0 0 0 0 0 0 0 0 0 0 0 0 0 0 0 0 0 0 0 0 0 0 0 0 0 0 0 0 0 0 0 0 0 0 0 0 0 0 0 0 0 0 0 0 0 0 0 0 0 0 0 0 0 0 0 0 0 0 0 0 0 0 0 0 0 0 0 0 0 0 0 0 0 0 0 0 0 0 0 0 0 0 0 0 0 0c1,-1 1,-2 1,-3 0,-1 0,-2 -1,-3l0 0 0 0 0 0 0 0 0 0 0 0 0 0 0 0 0 0 0 0 0 0 0 0 0 0 0 0 0 0 0 0c-1,-1 -2,-1 -2,-1 -1,0 -2,0 -3,1l0 0 0 0 0 0 0 0 0 0 0 0 0 0 0 0 0 0 0 0 0 0 0 0 0 0 0 0 0 0 0 0 0 0 0 0 0 0 0 0 0 0 0 0 0 0 0 0 0 0 0 0 0 0 0 0 0 0 0 0 0 0 0 0 0 0 0 0 0 0 0 0 0 0 0 0 0 0 0 0 0 0 0 0 0 0 0 0 0 0 0 0 0 0 0 0 0 0 0 0 0 0 0 0 0 0 0 0 0 0 0 0 0 0 0 0 0 0 0 0 0 0 0 0 0 0 0 0 0 0 0 0 0 0 0 0 0 0 0 0 0 0 0 0 0 0 0 0 0 0 0 0 0 0 0 0 0 0 0 0 0 0 0 0 0 0 0 0 0 0 0 0 0 0 0 0 0 0 0 0 0 0 0 0 0 0 0 0 0 0 0 0 0 0 0 0 0 0 0 0 0 0 0 0 0 0 0 0 0 0 0 0 0 0 0 0 0 0 0 0 0 0 0 0 0 0 0 0 0 0 0 0 0 0 0 0 0 0 0 0 0 0 0 0 0 0 0 0 0 0 0 0 0 0 0 0 0 0 0 0 0 0 0 0 0 0 0 0 0 0 0 0 0 0 0 0 0 0 0 0 0 0 0 0 0 0 0 0 0 0 0 0 0 0 0 0 0 0 0 0 0 0 0 0 0 0 0 0 0 0 0 0 0 0 0 0 0 0 0 0 0 0 0 0 0 0 0 0 0 0 0 0 0 0 0 0 0 0 0 0 0 0 0 0 0 0 0 0 0 0 0 0 0 0 0 0 0 0 0 0 0 0 0 0 0 0 0 0 0 0 0 0zm0 -1l0 0c-2,0 -3,-2 -3,-3 0,-2 1,-4 3,-4 2,0 3,2 3,4 0,2 -2,3 -3,3z"/>
   <path class="fil109" d="M503 970c2,0 4,-2 4,-4 0,-2 -2,-4 -4,-4 -2,0 -4,2 -4,4 0,2 2,4 4,4zm0 -1l0 0c-2,0 -3,-2 -3,-3 0,-2 1,-3 3,-3 2,0 3,2 3,3 0,1 -1,3 -3,3z"/>
   <path class="fil56" d="M503 969c2,0 3,-1 3,-3 0,-2 -2,-4 -3,-4 -2,0 -3,2 -3,4 0,2 1,3 3,3zm0 -1l0 0c-1,0 -2,-1 -2,-2 0,-2 1,-3 2,-3 1,0 2,1 2,3 0,1 -1,2 -2,2z"/>
   <path class="fil110" d="M503 969c2,0 3,-2 3,-3 0,-2 -1,-3 -3,-3 -2,0 -3,2 -3,3 0,1 1,3 3,3zm0 -1l0 0c-1,0 -2,-1 -2,-2 0,-1 1,-2 2,-2 1,0 2,1 2,2 0,1 -1,2 -2,2z"/>
   <path class="fil111" d="M503 968c1,0 2,-1 2,-2 0,-2 -1,-3 -2,-3 -1,0 -2,1 -2,3 0,1 1,2 2,2zm0 -1l0 0c-1,0 -1,0 -1,-1 0,-1 1,-1 1,-1 0,0 1,0 1,1 0,1 -1,1 -1,1z"/>
   <path class="fil112" d="M503 968c-1,0 -2,-1 -2,-2 0,-1 1,-2 2,-2 1,0 2,1 2,2 0,1 -1,2 -2,2z"/>
   <path class="fil113" d="M503 967c-1,0 -1,0 -1,-1 0,-1 1,-1 1,-1 0,0 1,0 1,1 0,1 -1,1 -1,1z"/>
   <path class="fil8" d="M503 967c-1,0 -1,-1 -1,-1 0,-1 0,-1 1,-1 0,0 0,0 0,1l0 1z"/>
   <path class="fil8" d="M573 994l-80 0c-3,0 -5,-3 -5,-5l0 -32c0,-7 14,-11 17,-11l57 0c5,0 16,4 16,11l0 32c0,3 -2,5 -5,5z"/>
   <path class="fil9" d="M534 991c5,0 9,-4 9,-9 0,-5 -4,-9 -9,-9 -5,0 -9,4 -9,9 0,5 4,9 9,9zm0 -1l0 0c-4,0 -8,-4 -8,-8 0,-4 4,-8 8,-8 5,0 8,4 8,8 0,4 -4,8 -8,8z"/>
   <path class="fil15" d="M534 991c5,0 9,-4 9,-8 0,-5 -4,-8 -9,-8 -4,0 -8,4 -8,8 0,5 4,8 8,8zm0 -1l0 0c-4,0 -7,-3 -7,-7 0,-4 4,-7 7,-7 4,0 8,3 8,7 0,4 -4,7 -8,7z"/>
   <path class="fil21" d="M534 990c5,0 8,-4 8,-8 0,-4 -4,-8 -8,-8 -4,0 -8,4 -8,8 0,4 4,8 8,8zm0 -1l0 0c-4,0 -7,-3 -7,-7 0,-4 3,-7 7,-7 4,0 7,3 7,7 0,4 -3,7 -7,7z"/>
   <path class="fil27" d="M534 990c4,0 8,-3 8,-7 0,-4 -4,-7 -8,-7 -4,0 -7,3 -7,7 0,4 4,7 7,7zm0 -1l0 0c-3,0 -6,-3 -6,-6 0,-4 3,-6 6,-6 4,0 7,3 7,6 0,4 -3,6 -7,6z"/>
   <path class="fil33" d="M534 989c4,0 7,-3 7,-7 0,-4 -3,-7 -7,-7 -4,0 -7,3 -7,7 0,4 3,7 7,7zm0 -1l0 0c-3,0 -6,-3 -6,-6 0,-3 3,-6 6,-6 4,0 6,3 6,6 0,3 -3,6 -6,6z"/>
   <path class="fil39" d="M534 989c4,0 7,-3 7,-6 0,-4 -3,-6 -7,-6 -3,0 -6,3 -6,6 0,4 3,6 6,6zm0 -1l0 0c-3,0 -5,-2 -5,-5 0,-3 3,-5 5,-5 3,0 6,2 6,5 0,3 -3,5 -6,5z"/>
   <path class="fil44" d="M534 988c4,0 6,-3 6,-6 0,-3 -3,-6 -6,-6 -3,0 -6,3 -6,6 0,3 3,6 6,6zm0 -1l0 0c-3,0 -5,-2 -5,-5 0,-3 2,-5 5,-5 3,0 5,2 5,5 0,3 -3,5 -5,5z"/>
   <path class="fil50" d="M534 988c3,0 6,-2 6,-5 0,-3 -3,-5 -6,-5 -3,0 -5,2 -5,5 0,3 3,5 5,5zm0 -1l0 0c-2,0 -4,-2 -4,-4 0,-2 2,-4 4,-4 3,0 5,2 5,4 0,2 -2,4 -5,4z"/>
   <path class="fil56" d="M534 987c3,0 5,-2 5,-5 0,-3 -3,-5 -5,-5 -3,0 -5,2 -5,5 0,3 2,5 5,5zm0 -1l0 0c-2,0 -4,-2 -4,-4 0,-2 2,-4 4,-4 2,0 4,2 4,4 0,2 -2,4 -4,4z"/>
   <path class="fil62" d="M534 987c3,0 5,-2 5,-4 0,-2 -2,-4 -5,-4 -2,0 -4,2 -4,4 0,2 2,4 4,4zm0 -1l0 0c-2,0 -3,-2 -3,-3 0,-2 2,-3 3,-3 2,0 4,2 4,3 0,2 -2,3 -4,3z"/>
   <path class="fil68" d="M534 986c2,0 4,-2 4,-4 0,-2 -2,-4 -4,-4 -2,0 -4,2 -4,4 0,2 2,4 4,4zm0 -1l0 0c-1,0 -3,-1 -3,-3 0,-2 2,-3 3,-3 2,0 3,1 3,3 0,2 -2,3 -3,3z"/>
   <path class="fil74" d="M534 986c2,0 4,-2 4,-3 0,-2 -2,-3 -4,-3 -2,0 -3,2 -3,3 0,2 2,3 3,3zm0 -1l0 0c-1,0 -2,-1 -2,-2 0,-1 1,-2 2,-2 2,0 3,1 3,2 0,1 -1,2 -3,2z"/>
   <path class="fil80" d="M534 985c2,0 3,-1 3,-3 0,-2 -2,-3 -3,-3 -1,0 -3,1 -3,3 0,2 2,3 3,3zm0 -1l0 0c-1,0 -2,-1 -2,-2 0,-1 1,-2 2,-2 1,0 2,1 2,2 0,1 -1,2 -2,2z"/>
   <path class="fil86" d="M534 985c2,0 3,-1 3,-2 0,-1 -1,-2 -3,-2 -1,0 -2,1 -2,2 0,1 1,2 2,2zm0 -1l0 0c-1,0 -1,-1 -1,-1 0,-1 1,-1 1,-1 1,0 1,1 1,1 0,1 0,1 -1,1z"/>
   <path class="fil91" d="M534 984c-1,0 -2,-1 -2,-2 0,-1 1,-2 2,-2 1,0 2,1 2,2 0,1 -1,2 -2,2z"/>
   <path class="fil96" d="M534 984c-1,0 -1,-1 -1,-1 0,-1 1,-1 1,-1 1,0 1,1 1,1 0,1 0,1 -1,1z"/>
   <path class="fil8" d="M534 983c0,0 -1,0 -1,-1 0,-1 1,-1 1,-1 1,0 1,0 1,1 0,1 0,1 -1,1z"/>
   <path class="fil9" d="M533 988c3,0 6,-3 6,-6 0,-3 -3,-6 -6,-6 -3,0 -5,3 -5,6 0,3 3,6 5,6zm0 -2l0 0c-2,0 -4,-2 -4,-4 0,-3 2,-5 4,-5 3,0 5,2 5,5 0,3 -2,4 -5,4z"/>
   <path class="fil114" d="M533 988c3,0 5,-3 5,-5 0,-3 -2,-5 -5,-5 -3,0 -5,3 -5,5 0,3 2,5 5,5zm0 -2l0 0c-2,0 -4,-2 -4,-4 0,-2 2,-4 4,-4 3,0 4,1 4,4 0,2 -2,4 -4,4z"/>
   <path class="fil31" d="M533 987c3,0 5,-2 5,-4 0,-3 -2,-5 -5,-5 -2,0 -4,2 -4,5 0,3 2,4 4,4zm0 -1l0 0c-2,0 -3,-2 -3,-3 0,-2 2,-3 3,-3 2,0 4,1 4,3 0,2 -2,3 -4,3z"/>
   <path class="fil41" d="M533 986c3,0 4,-2 4,-4 0,-2 -2,-4 -4,-4 -2,0 -4,1 -4,4 0,2 2,4 4,4zm0 -1l0 0c-1,0 -3,-1 -3,-3 0,-2 2,-3 3,-3 2,0 3,1 3,3 0,2 -2,3 -3,3z"/>
   <path class="fil115" d="M533 986c2,0 4,-2 4,-3 0,-2 -2,-3 -4,-3 -2,0 -3,1 -3,3 0,2 2,3 3,3zm0 -1l0 0c-1,0 -2,-1 -2,-2 0,-1 1,-2 2,-2 2,0 3,1 3,2 0,1 -1,2 -3,2z"/>
   <path class="fil116" d="M533 985c2,0 3,-1 3,-3 0,-2 -2,-3 -3,-3 -1,0 -3,1 -3,3 0,2 2,3 3,3zm0 -1l0 0c-1,0 -2,-1 -2,-2 0,-1 1,-2 2,-2 1,0 2,1 2,2 0,1 -1,2 -2,2z"/>
   <path class="fil72" d="M533 985c2,0 3,-1 3,-2 0,-1 -1,-2 -3,-2 -1,0 -2,1 -2,2 0,1 1,2 2,2zm0 -1l0 0c-1,0 -1,0 -1,-1 0,-1 1,-1 1,-1 1,0 2,1 2,1 0,1 -1,1 -2,1z"/>
   <path class="fil82" d="M533 984c-1,0 -2,-1 -2,-2 0,-1 1,-2 2,-2 1,0 2,1 2,2 0,1 -1,2 -2,2z"/>
   <path class="fil117" d="M533 983c-1,0 -1,0 -1,-1 0,-1 1,-1 1,-1 1,0 2,1 2,1 0,1 -1,1 -2,1z"/>
   <path class="fil8" d="M533 983c0,0 -1,0 -1,-1 0,-1 1,-1 1,-1 1,0 1,0 1,1 0,1 -1,1 -1,1z"/>
   <polygon class="fil6" points="2302,349 2273,349 2273,365 2282,365 2197,485 2208,485 2292,365 2302,365 "/>
   <polygon class="fil118" points="2302,535 2197,535 2197,778 2302,778 "/>
   <polygon class="fil119" points="2227,535 2197,535 2197,778 2227,778 "/>
   <polygon class="fil119" points="2302,535 2272,535 2272,778 2302,778 "/>
   <polygon class="fil120" points="2534,853 2278,853 2278,879 2534,879 "/>
   <polygon class="fil120" points="2534,0 2278,0 2278,26 2534,26 "/>
   <polygon class="fil120" points="2508,879 2534,879 2534,0 2508,0 "/>
   <path class="fil7" d="M333 980c33,0 59,24 59,53 0,29 -27,53 -59,53 -33,0 -59,-24 -59,-53 0,-29 27,-53 59,-53z"/>
   <path class="fil7" d="M331 1017c-3,1 -3,3 -3,6 1,2 3,3 5,2 4,-2 2,-10 -3,-8z"/>
   <path class="fil7" d="M333 985c23,0 42,17 42,38 0,21 -19,38 -42,38 -24,0 -42,-17 -42,-38 0,-21 18,-38 42,-38z"/>
   <path class="fil7" d="M333 1015c3,0 4,3 4,5 0,3 -2,5 -4,5 -3,0 -5,-2 -5,-5 0,-3 3,-5 5,-5z"/>
   <path class="fil7" d="M331 1072c-3,1 -3,3 -3,5 1,2 3,3 5,3 4,-1 2,-10 -3,-8z"/>
   <path class="fil7" d="M333 1066c4,0 8,4 8,8 0,4 -3,8 -8,8 -4,0 -8,-4 -8,-8 0,-4 3,-8 8,-8z"/>
   <path class="fil7" d="M333 1069c3,0 4,2 4,5 0,3 -2,5 -4,5 -3,0 -5,-3 -5,-5 0,-3 3,-5 5,-5z"/>
   <path class="fil8" d="M333 980c33,0 59,22 59,50 0,28 -27,50 -59,50 -33,0 -59,-22 -59,-50 0,-28 27,-50 59,-50z"/>
   <path class="fil8" d="M331 1015c-3,1 -3,3 -3,5 1,1 3,3 5,2 4,-1 2,-9 -3,-7z"/>
   <path class="fil9" d="M333 1076c31,0 55,-25 55,-55 0,-31 -25,-55 -55,-55 -31,0 -55,25 -55,55 0,30 25,55 55,55zm0 -1l0 0c-30,0 -54,-24 -54,-54 0,-30 24,-54 54,-54 30,0 54,24 54,54 0,30 -24,54 -54,54z"/>
   <path class="fil10" d="M333 1076c30,0 55,-24 55,-55 0,-30 -25,-55 -55,-55 -31,0 -55,25 -55,55 0,30 24,55 55,55zm0 -1l0 0c-30,0 -54,-24 -54,-53 0,-29 24,-54 54,-54 29,0 53,24 53,54 0,29 -24,53 -53,53z"/>
   <path class="fil11" d="M333 1075c30,0 54,-24 54,-54 0,-30 -24,-54 -54,-54 -30,0 -54,24 -54,54 0,30 24,54 54,54zm0 -1l0 0c-29,0 -53,-24 -53,-53 0,-29 24,-53 53,-53 29,0 53,24 53,53 0,29 -24,53 -53,53z"/>
   <path class="fil121" d="M333 1075c29,0 53,-24 53,-53 0,-29 -24,-54 -53,-54 -30,0 -54,24 -54,54 0,29 24,53 54,53zm0 -1l0 0c-29,0 -52,-24 -52,-52 0,-29 24,-52 52,-52 29,0 52,24 52,52 0,29 -24,52 -52,52z"/>
   <path class="fil122" d="M333 1074c29,0 53,-24 53,-53 0,-29 -24,-53 -53,-53 -29,0 -53,24 -53,53 0,29 24,53 53,53zm0 -1l0 0c-29,0 -52,-23 -52,-52 0,-29 23,-52 52,-52 29,0 52,23 52,52 0,29 -23,52 -52,52z"/>
   <path class="fil14" d="M333 1073c29,0 52,-24 52,-52 0,-29 -24,-52 -52,-52 -29,0 -52,24 -52,52 0,29 24,52 52,52zm0 -1l0 0c-28,0 -51,-23 -51,-51 0,-28 23,-51 51,-51 28,0 51,23 51,51 0,28 -23,51 -51,51z"/>
   <path class="fil123" d="M333 1073c29,0 52,-23 52,-52 0,-29 -23,-52 -52,-52 -29,0 -52,23 -52,52 0,29 23,52 52,52zm0 -1l0 0c-28,0 -50,-22 -50,-50 0,-28 22,-50 50,-50 27,0 50,22 50,50 0,28 -23,50 -50,50z"/>
   <path class="fil17" d="M333 1072c28,0 51,-23 51,-51 0,-28 -23,-51 -51,-51 -28,0 -51,23 -51,51 0,28 23,51 51,51zm0 -1l0 0c-27,0 -50,-22 -50,-50 0,-27 22,-50 50,-50 27,0 50,22 50,50 0,27 -22,50 -50,50z"/>
   <path class="fil124" d="M333 1071c27,0 50,-22 50,-50 0,-28 -23,-50 -50,-50 -28,0 -50,22 -50,50 0,28 22,50 50,50zm0 -1l0 0c-27,0 -49,-22 -49,-49 0,-27 22,-49 49,-49 27,0 49,22 49,49 0,27 -22,49 -49,49z"/>
   <path class="fil19" d="M333 1071c27,0 50,-22 50,-50 0,-27 -22,-50 -50,-50 -27,0 -50,22 -50,50 0,27 22,50 50,50zm0 -1l0 0c-27,0 -48,-22 -48,-48 0,-27 22,-48 48,-48 27,0 48,22 48,48 0,27 -22,48 -48,48z"/>
   <path class="fil20" d="M333 1070c27,0 49,-22 49,-49 0,-27 -22,-49 -49,-49 -27,0 -49,22 -49,49 0,27 22,49 49,49zm0 -1l0 0c-27,0 -48,-22 -48,-48 0,-26 21,-48 48,-48 26,0 48,22 48,48 0,26 -22,48 -48,48z"/>
   <path class="fil125" d="M333 1069c27,0 48,-22 48,-48 0,-27 -22,-48 -48,-48 -27,0 -48,22 -48,48 0,27 22,48 48,48zm0 -1l0 0c-26,0 -47,-21 -47,-47 0,-26 21,-47 47,-47 26,0 47,21 47,47 0,26 -21,47 -47,47z"/>
   <path class="fil126" d="M333 1069c26,0 48,-22 48,-48 0,-26 -22,-48 -48,-48 -27,0 -48,22 -48,48 0,26 21,48 48,48zm0 -1l0 0c-25,0 -46,-21 -46,-46 0,-26 21,-47 46,-47 26,0 47,21 47,47 0,25 -21,46 -47,46z"/>
   <path class="fil23" d="M333 1068c26,0 47,-21 47,-47 0,-26 -21,-47 -47,-47 -26,0 -47,21 -47,47 0,26 21,47 47,47zm0 -1l0 0c-25,0 -46,-20 -46,-46 0,-26 20,-46 46,-46 26,0 46,20 46,46 0,25 -20,46 -46,46z"/>
   <path class="fil25" d="M333 1067c26,0 47,-21 47,-46 0,-26 -21,-47 -47,-47 -25,0 -46,21 -46,47 0,25 21,46 46,46zm0 -1l0 0c-25,0 -45,-20 -45,-45 0,-25 20,-45 45,-45 25,0 45,20 45,45 0,25 -20,45 -45,45z"/>
   <path class="fil26" d="M333 1067c26,0 46,-20 46,-46 0,-26 -20,-46 -46,-46 -25,0 -46,20 -46,46 0,25 20,46 46,46zm0 -1l0 0c-25,0 -45,-20 -45,-45 0,-25 20,-45 45,-45 24,0 45,20 45,45 0,25 -20,45 -45,45z"/>
   <path class="fil127" d="M333 1066c25,0 45,-20 45,-45 0,-25 -20,-45 -45,-45 -25,0 -45,20 -45,45 0,25 20,45 45,45zm0 -1l0 0c-24,0 -44,-20 -44,-44 0,-24 20,-44 44,-44 24,0 44,20 44,44 0,24 -20,44 -44,44z"/>
   <path class="fil28" d="M333 1066c24,0 45,-20 45,-45 0,-25 -20,-45 -45,-45 -25,0 -45,20 -45,45 0,25 20,45 45,45zm0 -1l0 0c-24,0 -43,-19 -43,-43 0,-24 19,-43 43,-43 24,0 43,20 43,43 0,24 -20,43 -43,43z"/>
   <path class="fil29" d="M333 1065c24,0 44,-20 44,-44 0,-24 -20,-44 -44,-44 -24,0 -44,20 -44,44 0,24 20,44 44,44zm0 -1l0 0c-24,0 -43,-19 -43,-43 0,-24 19,-43 43,-43 24,0 43,19 43,43 0,23 -19,43 -43,43z"/>
   <path class="fil31" d="M333 1064c24,0 43,-19 43,-43 0,-24 -20,-43 -43,-43 -24,0 -43,20 -43,43 0,24 19,43 43,43zm0 -1l0 0c-24,0 -42,-19 -42,-42 0,-23 18,-42 42,-42 23,0 42,19 42,42 0,23 -19,42 -42,42z"/>
   <path class="fil32" d="M333 1064c24,0 43,-19 43,-43 0,-24 -19,-43 -43,-43 -24,0 -43,19 -43,43 0,23 19,43 43,43zm0 -1l0 0c-23,0 -41,-18 -41,-41 0,-23 19,-41 41,-41 23,0 41,18 41,41 0,23 -19,41 -41,41z"/>
   <path class="fil128" d="M333 1063c23,0 42,-19 42,-42 0,-23 -19,-42 -42,-42 -24,0 -42,19 -42,42 0,23 18,42 42,42zm0 -1l0 0c-23,0 -41,-19 -41,-41 0,-22 18,-41 41,-41 22,0 41,18 41,41 0,22 -19,41 -41,41z"/>
   <path class="fil129" d="M333 1063c23,0 41,-18 41,-41 0,-23 -19,-41 -41,-41 -23,0 -41,18 -41,41 0,23 19,41 41,41zm0 -1l0 0c-22,0 -40,-18 -40,-40 0,-22 18,-40 40,-40 22,0 40,18 40,40 0,22 -18,40 -40,40z"/>
   <path class="fil35" d="M333 1062c22,0 41,-19 41,-41 0,-22 -19,-41 -41,-41 -23,0 -41,18 -41,41 0,22 18,41 41,41zm0 -1l0 0c-22,0 -39,-18 -39,-39 0,-22 18,-40 39,-40 22,0 40,18 40,40 0,22 -18,39 -40,39z"/>
   <path class="fil36" d="M333 1061c22,0 40,-18 40,-40 0,-22 -18,-40 -40,-40 -22,0 -40,18 -40,40 0,22 18,40 40,40zm0 -1l0 0c-22,0 -39,-17 -39,-39 0,-22 17,-39 39,-39 21,0 39,17 39,39 0,22 -18,39 -39,39z"/>
   <path class="fil130" d="M333 1061c22,0 40,-18 40,-39 0,-22 -18,-40 -40,-40 -22,0 -39,18 -39,40 0,22 18,39 39,39zm0 -1l0 0c-21,0 -38,-17 -38,-38 0,-21 17,-38 38,-38 21,0 38,17 38,38 0,21 -17,38 -38,38z"/>
   <path class="fil38" d="M333 1060c21,0 39,-17 39,-39 0,-22 -18,-39 -39,-39 -22,0 -39,17 -39,39 0,22 17,39 39,39zm0 -1l0 0c-21,0 -38,-17 -38,-38 0,-20 17,-38 38,-38 20,0 38,17 38,38 0,21 -17,38 -38,38z"/>
   <path class="fil39" d="M333 1059c21,0 38,-17 38,-38 0,-21 -17,-38 -38,-38 -21,0 -38,17 -38,38 0,21 17,38 38,38zm0 -1l0 0c-20,0 -37,-17 -37,-37 0,-20 17,-37 37,-37 20,0 37,16 37,37 0,20 -17,37 -37,37z"/>
   <path class="fil40" d="M333 1059c20,0 38,-17 38,-38 0,-20 -17,-38 -38,-38 -21,0 -38,17 -38,38 0,21 17,38 38,38zm0 -1l0 0c-20,0 -36,-16 -36,-36 0,-20 16,-36 36,-36 20,0 36,17 36,36 0,20 -17,36 -36,36z"/>
   <path class="fil41" d="M333 1058c20,0 37,-17 37,-37 0,-20 -17,-37 -37,-37 -20,0 -37,16 -37,37 0,20 17,37 37,37zm0 -1l0 0c-20,0 -36,-16 -36,-36 0,-20 16,-36 36,-36 20,0 36,16 36,36 0,20 -16,36 -36,36z"/>
   <path class="fil131" d="M333 1057c20,0 36,-16 36,-36 0,-20 -17,-36 -36,-36 -20,0 -36,17 -36,36 0,20 16,36 36,36zm0 -1l0 0c-20,0 -35,-16 -35,-35 0,-19 15,-35 35,-35 19,0 35,16 35,35 0,19 -16,35 -35,35z"/>
   <path class="fil132" d="M333 1057c20,0 36,-16 36,-36 0,-20 -16,-36 -36,-36 -20,0 -36,16 -36,36 0,20 16,36 36,36zm0 -1l0 0c-19,0 -34,-15 -34,-34 0,-19 15,-34 34,-34 19,0 34,15 34,34 0,19 -15,34 -34,34z"/>
   <path class="fil44" d="M333 1056c19,0 35,-16 35,-35 0,-19 -16,-35 -35,-35 -20,0 -35,16 -35,35 0,19 15,35 35,35zm0 -1l0 0c-18,0 -34,-15 -34,-34 0,-19 15,-34 34,-34 19,0 34,15 34,34 0,18 -15,34 -34,34z"/>
   <path class="fil45" d="M333 1055c19,0 34,-15 34,-34 0,-19 -15,-34 -34,-34 -19,0 -34,15 -34,34 0,19 15,34 34,34zm0 -1l0 0c-18,0 -33,-15 -33,-33 0,-19 15,-33 33,-33 19,0 33,15 33,33 0,18 -15,33 -33,33z"/>
   <path class="fil46" d="M333 1055c19,0 34,-15 34,-34 0,-19 -15,-34 -34,-34 -18,0 -34,15 -34,34 0,18 15,34 34,34zm0 -1l0 0c-18,0 -33,-15 -33,-32 0,-18 15,-33 33,-33 18,0 33,15 33,33 0,18 -15,32 -33,32z"/>
   <path class="fil103" d="M333 1054c19,0 33,-15 33,-33 0,-19 -15,-33 -33,-33 -18,0 -33,15 -33,33 0,18 15,33 33,33zm0 -1l0 0c-18,0 -32,-14 -32,-32 0,-18 14,-32 32,-32 17,0 32,14 32,32 0,18 -15,32 -32,32z"/>
   <path class="fil133" d="M333 1054c18,0 33,-15 33,-32 0,-18 -15,-33 -33,-33 -18,0 -33,15 -33,33 0,18 15,32 33,32zm0 -1l0 0c-17,0 -31,-14 -31,-31 0,-17 14,-31 31,-31 17,0 31,14 31,31 0,17 -14,31 -31,31z"/>
   <path class="fil49" d="M333 1053c17,0 32,-14 32,-32 0,-18 -15,-32 -32,-32 -18,0 -32,14 -32,32 0,18 14,32 32,32zm0 -1l0 0c-17,0 -31,-13 -31,-30 0,-17 13,-31 31,-31 17,0 31,14 31,31 0,17 -14,30 -31,30z"/>
   <path class="fil134" d="M333 1052c17,0 31,-14 31,-31 0,-17 -14,-31 -31,-31 -17,0 -31,14 -31,31 0,17 14,31 31,31zm0 -1l0 0c-17,0 -30,-13 -30,-30 0,-17 13,-30 30,-30 17,0 30,13 30,30 0,16 -13,30 -30,30z"/>
   <path class="fil135" d="M333 1052c17,0 31,-13 31,-30 0,-17 -14,-31 -31,-31 -17,0 -31,14 -31,31 0,17 13,30 31,30zm0 -1l0 0c-17,0 -29,-13 -29,-29 0,-16 13,-29 29,-29 16,0 29,13 29,29 0,16 -13,29 -29,29z"/>
   <path class="fil53" d="M333 1051c17,0 30,-13 30,-30 0,-17 -13,-30 -30,-30 -17,0 -30,13 -30,30 0,16 13,30 30,30zm0 -1l0 0c-16,0 -29,-13 -29,-29 0,-16 13,-29 29,-29 16,0 29,13 29,29 0,16 -13,29 -29,29z"/>
   <path class="fil53" d="M333 1050c16,0 29,-13 29,-29 0,-16 -13,-29 -29,-29 -17,0 -29,13 -29,29 0,16 13,29 29,29zm0 -1l0 0c-15,0 -28,-13 -28,-28 0,-15 13,-28 28,-28 15,0 28,13 28,28 0,15 -13,28 -28,28z"/>
   <path class="fil55" d="M333 1050c16,0 29,-13 29,-29 0,-16 -13,-29 -29,-29 -16,0 -29,13 -29,29 0,16 13,29 29,29zm0 -1l0 0c-15,0 -27,-12 -27,-27 0,-15 12,-27 27,-27 15,0 27,12 27,27 0,15 -12,27 -27,27z"/>
   <path class="fil56" d="M333 1049c15,0 28,-13 28,-28 0,-15 -13,-28 -28,-28 -15,0 -28,13 -28,28 0,15 13,28 28,28zm0 -1l0 0c-15,0 -27,-12 -27,-27 0,-15 12,-27 27,-27 15,0 27,12 27,27 0,15 -12,27 -27,27z"/>
   <path class="fil57" d="M333 1048c15,0 27,-12 27,-27 0,-15 -12,-27 -27,-27 -15,0 -27,12 -27,27 0,15 12,27 27,27zm0 -1l0 0c-15,0 -26,-11 -26,-26 0,-15 11,-26 26,-26 14,0 26,11 26,26 0,15 -12,26 -26,26z"/>
   <path class="fil136" d="M333 1048c15,0 27,-12 27,-27 0,-15 -12,-27 -27,-27 -15,0 -27,12 -27,27 0,15 12,27 27,27zm0 -1l0 0c-14,0 -25,-12 -25,-25 0,-14 11,-26 25,-26 14,0 26,11 26,26 0,14 -12,25 -26,25z"/>
   <path class="fil137" d="M333 1047c14,0 26,-11 26,-26 0,-15 -12,-26 -26,-26 -15,0 -26,11 -26,26 0,15 11,26 26,26zm0 -1l0 0c-14,0 -25,-11 -25,-25 0,-13 11,-25 25,-25 13,0 25,11 25,25 0,14 -11,25 -25,25z"/>
   <path class="fil138" d="M333 1047c14,0 26,-12 26,-25 0,-14 -12,-26 -26,-26 -14,0 -25,11 -25,26 0,14 11,25 25,25zm0 -1l0 0c-13,0 -24,-11 -24,-24 0,-13 11,-24 24,-24 13,0 24,11 24,24 0,13 -11,24 -24,24z"/>
   <path class="fil139" d="M333 1046c13,0 25,-11 25,-25 0,-13 -11,-25 -25,-25 -14,0 -25,11 -25,25 0,14 11,25 25,25zm0 -1l0 0c-13,0 -24,-10 -24,-23 0,-13 10,-24 24,-24 13,0 24,11 24,24 0,13 -11,23 -24,23z"/>
   <path class="fil63" d="M333 1045c13,0 24,-11 24,-24 0,-13 -11,-24 -24,-24 -13,0 -24,11 -24,24 0,13 11,24 24,24zm0 -1l0 0c-13,0 -23,-10 -23,-23 0,-13 10,-23 23,-23 13,0 23,10 23,23 0,13 -10,23 -23,23z"/>
   <path class="fil64" d="M333 1045c13,0 24,-10 24,-23 0,-13 -11,-24 -24,-24 -13,0 -24,11 -24,24 0,13 10,23 24,23zm0 -1l0 0c-13,0 -22,-10 -22,-22 0,-12 9,-22 22,-22 12,0 22,10 22,22 0,12 -10,22 -22,22z"/>
   <path class="fil64" d="M333 1044c13,0 23,-10 23,-23 0,-13 -10,-23 -23,-23 -13,0 -23,10 -23,23 0,13 10,23 23,23zm0 -1l0 0c-12,0 -22,-9 -22,-22 0,-12 10,-22 22,-22 12,0 22,9 22,22 0,12 -10,22 -22,22z"/>
   <path class="fil66" d="M333 1043c12,0 22,-10 22,-22 0,-12 -10,-22 -22,-22 -13,0 -22,10 -22,22 0,12 9,22 22,22zm0 -1l0 0c-11,0 -21,-10 -21,-21 0,-12 10,-21 21,-21 12,0 21,10 21,21 0,11 -9,21 -21,21z"/>
   <path class="fil140" d="M333 1043c12,0 22,-9 22,-22 0,-12 -10,-22 -22,-22 -12,0 -22,9 -22,22 0,12 10,22 22,22zm0 -1l0 0c-11,0 -20,-9 -20,-20 0,-12 9,-20 20,-20 11,0 20,9 20,20 0,11 -10,20 -20,20z"/>
   <path class="fil141" d="M333 1042c12,0 21,-10 21,-21 0,-12 -9,-21 -21,-21 -11,0 -21,10 -21,21 0,11 10,21 21,21zm0 -1l0 0c-11,0 -20,-9 -20,-20 0,-11 9,-20 20,-20 11,0 20,9 20,20 0,11 -9,20 -20,20z"/>
   <path class="fil142" d="M333 1041c11,0 20,-9 20,-20 0,-12 -10,-20 -20,-20 -11,0 -20,9 -20,20 0,11 9,20 20,20zm0 -1l0 0c-11,0 -19,-8 -19,-19 0,-10 8,-19 19,-19 10,0 19,9 19,19 0,11 -9,19 -19,19z"/>
   <path class="fil143" d="M333 1041c11,0 20,-9 20,-20 0,-11 -9,-20 -20,-20 -11,0 -20,9 -20,20 0,11 9,20 20,20zm0 -1l0 0c-10,0 -18,-8 -18,-18 0,-10 8,-19 18,-19 10,0 19,8 19,19 0,10 -8,18 -19,18z"/>
   <path class="fil144" d="M333 1040c10,0 19,-8 19,-19 0,-10 -9,-19 -19,-19 -11,0 -19,9 -19,19 0,11 8,19 19,19zm0 -1l0 0c-10,0 -18,-8 -18,-18 0,-10 8,-18 18,-18 10,0 18,8 18,18 0,10 -8,18 -18,18z"/>
   <path class="fil145" d="M333 1040c10,0 19,-8 19,-18 0,-10 -8,-19 -19,-19 -10,0 -18,8 -18,19 0,10 8,18 18,18zm0 -1l0 0c-10,0 -17,-8 -17,-17 0,-10 8,-17 17,-17 10,0 17,8 17,17 0,9 -8,17 -17,17z"/>
   <path class="fil146" d="M333 1039c10,0 18,-8 18,-18 0,-10 -8,-18 -18,-18 -10,0 -18,8 -18,18 0,10 8,18 18,18zm0 -1l0 0c-10,0 -17,-8 -17,-16 0,-9 7,-17 17,-17 9,0 17,8 17,17 0,9 -8,16 -17,16z"/>
   <path class="fil75" d="M333 1038c10,0 17,-8 17,-17 0,-10 -8,-17 -17,-17 -10,0 -17,8 -17,17 0,9 8,17 17,17zm0 -1l0 0c-9,0 -16,-7 -16,-16 0,-9 7,-16 16,-16 9,0 16,7 16,16 0,9 -7,16 -16,16z"/>
   <path class="fil147" d="M333 1038c9,0 17,-8 17,-16 0,-9 -8,-17 -17,-17 -10,0 -17,8 -17,17 0,9 7,16 17,16zm0 -1l0 0c-8,0 -15,-7 -15,-15 0,-8 7,-15 15,-15 8,0 15,7 15,15 0,8 -7,15 -15,15z"/>
   <path class="fil78" d="M333 1037c9,0 16,-7 16,-16 0,-9 -7,-16 -16,-16 -9,0 -16,7 -16,16 0,9 7,16 16,16zm0 -1l0 0c-8,0 -15,-6 -15,-15 0,-8 6,-15 15,-15 8,0 15,6 15,15 0,8 -6,15 -15,15z"/>
   <path class="fil78" d="M333 1036c8,0 15,-7 15,-15 0,-8 -7,-15 -15,-15 -8,0 -15,7 -15,15 0,8 7,15 15,15zm0 -1l0 0c-8,0 -14,-6 -14,-14 0,-8 6,-14 14,-14 8,0 14,6 14,14 0,8 -6,14 -14,14z"/>
   <path class="fil148" d="M333 1036c8,0 15,-6 15,-15 0,-8 -6,-15 -15,-15 -8,0 -15,6 -15,15 0,8 6,15 15,15zm0 -1l0 0c-8,0 -13,-6 -13,-13 0,-7 6,-13 13,-13 7,0 13,6 13,13 0,8 -6,13 -13,13z"/>
   <path class="fil149" d="M333 1035c8,0 14,-6 14,-14 0,-8 -6,-14 -14,-14 -8,0 -14,6 -14,14 0,8 6,14 14,14zm0 -1l0 0c-7,0 -13,-6 -13,-13 0,-7 6,-13 13,-13 7,0 13,6 13,13 0,7 -6,13 -13,13z"/>
   <path class="fil82" d="M333 1034c7,0 13,-6 13,-13 0,-7 -6,-13 -13,-13 -8,0 -13,6 -13,13 0,8 6,13 13,13zm0 -1l0 0c-7,0 -12,-5 -12,-12 0,-7 5,-12 12,-12 6,0 12,6 12,12 0,7 -6,12 -12,12z"/>
   <path class="fil82" d="M333 1034c7,0 13,-6 13,-13 0,-7 -6,-13 -13,-13 -7,0 -13,6 -13,13 0,7 6,13 13,13zm0 -1l0 0c-6,0 -11,-5 -11,-11 0,-7 5,-12 11,-12 6,0 12,5 12,12 0,6 -5,11 -12,11z"/>
   <path class="fil84" d="M333 1033c6,0 12,-5 12,-12 0,-7 -6,-12 -12,-12 -7,0 -12,6 -12,12 0,7 5,12 12,12zm0 -1l0 0c-6,0 -11,-5 -11,-11 0,-6 4,-11 11,-11 6,0 11,5 11,11 0,6 -5,11 -11,11z"/>
   <path class="fil85" d="M333 1032c6,0 12,-5 12,-11 0,-6 -5,-12 -12,-12 -6,0 -11,5 -11,12 0,6 5,11 11,11zm0 -1l0 0c-6,0 -10,-4 -10,-10 0,-6 4,-10 10,-10 6,0 10,4 10,10 0,6 -4,10 -10,10z"/>
   <path class="fil150" d="M333 1032c6,0 11,-5 11,-11 0,-6 -5,-11 -11,-11 -6,0 -11,5 -11,11 0,6 4,11 11,11zm0 -1l0 0c-5,0 -10,-4 -10,-9 0,-5 4,-10 10,-10 5,0 10,4 10,10 0,5 -4,9 -10,9z"/>
   <path class="fil87" d="M333 1031c6,0 10,-4 10,-10 0,-6 -4,-10 -10,-10 -6,0 -10,4 -10,10 0,6 4,10 10,10zm0 -1l0 0c-5,0 -9,-4 -9,-9 0,-5 4,-9 9,-9 5,0 9,4 9,9 0,5 -4,9 -9,9z"/>
   <path class="fil88" d="M333 1031c5,0 10,-4 10,-9 0,-5 -4,-10 -10,-10 -5,0 -10,4 -10,10 0,5 4,9 10,9zm0 -1l0 0c-4,0 -8,-4 -8,-8 0,-4 4,-8 8,-8 4,0 8,4 8,8 0,4 -4,8 -8,8z"/>
   <path class="fil89" d="M333 1030c5,0 9,-4 9,-9 0,-5 -4,-9 -9,-9 -5,0 -9,4 -9,9 0,5 4,9 9,9zm0 -1l0 0c-4,0 -8,-3 -8,-8 0,-4 3,-8 8,-8 4,0 8,3 8,8 0,4 -4,8 -8,8z"/>
   <path class="fil90" d="M333 1029c4,0 8,-4 8,-8 0,-4 -4,-8 -8,-8 -4,0 -8,4 -8,8 0,4 4,8 8,8zm0 -1l0 0c-4,0 -7,-3 -7,-7 0,-4 3,-7 7,-7 4,0 7,3 7,7 0,4 -3,7 -7,7z"/>
   <path class="fil151" d="M333 1029c4,0 8,-3 8,-8 0,-4 -4,-8 -8,-8 -4,0 -8,3 -8,8 0,4 3,8 8,8zm0 -1l0 0c-4,0 -6,-3 -6,-6 0,-3 3,-7 6,-7 3,0 6,3 6,7 0,4 -3,6 -6,6z"/>
   <path class="fil91" d="M333 1028c4,0 7,-3 7,-7 0,-4 -3,-7 -7,-7 -4,0 -7,3 -7,7 0,4 3,7 7,7zm0 -1l0 0c-3,0 -6,-3 -6,-6 0,-3 3,-6 6,-6 3,0 6,3 6,6 0,3 -3,6 -6,6z"/>
   <path class="fil92" d="M333 1027c3,0 6,-3 6,-6 0,-3 -3,-7 -6,-7 -4,0 -6,3 -6,7 0,4 3,6 6,6zm0 -1l0 0c-3,0 -5,-2 -5,-5 0,-3 2,-5 5,-5 3,0 5,3 5,5 0,3 -3,5 -5,5z"/>
   <path class="fil152" d="M333 1027c3,0 6,-3 6,-6 0,-3 -3,-6 -6,-6 -3,0 -6,3 -6,6 0,3 3,6 6,6zm0 -1l0 0c-3,0 -4,-2 -4,-4 0,-3 2,-4 4,-4 3,0 4,2 4,4 0,2 -2,4 -4,4z"/>
   <path class="fil94" d="M333 1026c3,0 5,-2 5,-5 0,-3 -3,-5 -5,-5 -3,0 -5,3 -5,5 0,3 2,5 5,5zm0 -1l0 0c-2,0 -4,-2 -4,-4 0,-2 2,-4 4,-4 2,0 4,2 4,4 0,2 -2,4 -4,4z"/>
   <path class="fil153" d="M333 1025c3,0 4,-2 4,-4 0,-3 -2,-4 -4,-4 -3,0 -4,2 -4,4 0,2 2,4 4,4zm0 -1l0 0c-2,0 -3,-1 -3,-3 0,-2 1,-3 3,-3 2,0 3,1 3,3 0,2 -1,3 -3,3z"/>
   <path class="fil96" d="M333 1025c2,0 4,-2 4,-4 0,-2 -2,-4 -4,-4 -2,0 -4,2 -4,4 0,2 2,4 4,4zm0 -1l0 0c-1,0 -3,-1 -3,-2 0,-1 1,-3 3,-3 1,0 3,1 3,3 0,1 -1,2 -3,2z"/>
   <path class="fil154" d="M333 1024c2,0 3,-1 3,-3 0,-2 -1,-3 -3,-3 -2,0 -3,1 -3,3 0,2 1,3 3,3zm0 -1l0 0c-1,0 -2,-1 -2,-2 0,-1 1,-2 2,-2 1,0 2,1 2,2 0,1 -1,2 -2,2z"/>
   <path class="fil98" d="M333 1024c1,0 3,-1 3,-2 0,-1 -1,-3 -3,-3 -1,0 -3,1 -3,3 0,1 1,2 3,2zm0 -1l0 0c-1,0 -1,-1 -1,-1 0,-1 1,-1 1,-1 1,0 1,1 1,1 0,1 -1,1 -1,1z"/>
   <path class="fil99" d="M333 1023c1,0 2,-1 2,-2 0,-1 -1,-2 -2,-2 -1,0 -2,1 -2,2 0,1 1,2 2,2z"/>
   <path class="fil8" d="M333 1022c1,0 1,-1 1,-1 0,-1 -1,-1 -1,-1 -1,0 -1,1 -1,1 0,1 1,1 1,1z"/>
   <path class="fil8" d="M333 1022c0,0 1,0 1,-1l-1 -1c-1,0 -1,1 -1,1 0,1 0,1 1,1z"/>
   <path class="fil155" d="M333 1013c3,0 4,3 4,5 0,3 -2,5 -4,5 -3,0 -5,-2 -5,-5 0,-3 3,-5 5,-5z"/>
   <path class="fil8" d="M331 1066c-3,1 -3,3 -3,5 1,2 3,3 5,3 4,-2 2,-9 -3,-8z"/>
   <path class="fil9" d="M333 1080c6,0 11,-5 11,-11 0,-6 -5,-11 -11,-11 -6,0 -11,5 -11,11 0,6 4,11 11,11zm0 -1l0 0c-6,0 -10,-4 -10,-10 0,-5 4,-10 10,-10 5,0 10,4 10,10 0,5 -4,10 -10,10z"/>
   <path class="fil15" d="M333 1079c6,0 10,-4 10,-10 0,-6 -4,-10 -10,-10 -6,0 -10,4 -10,10 0,6 4,10 10,10zm0 -1l0 0c-5,0 -9,-4 -9,-9 0,-5 4,-9 9,-9 5,0 9,4 9,9 0,5 -4,9 -9,9z"/>
   <path class="fil21" d="M333 1078c5,0 10,-4 10,-10 0,-5 -4,-10 -10,-10 -6,0 -10,4 -10,10 0,5 4,10 10,10zm0 -1l0 0c-4,0 -8,-4 -8,-8 0,-4 4,-8 8,-8 4,0 8,4 8,8 0,4 -4,8 -8,8z"/>
   <path class="fil27" d="M333 1078c5,0 9,-4 9,-9 0,-5 -4,-9 -9,-9 -5,0 -9,4 -9,9 0,5 4,9 9,9zm0 -1l0 0c-4,0 -8,-3 -8,-8 0,-4 3,-8 8,-8 4,0 8,3 8,8 0,4 -3,8 -8,8z"/>
   <path class="fil33" d="M333 1077c4,0 8,-4 8,-8 0,-4 -4,-8 -8,-8 -4,0 -8,4 -8,8 0,4 4,8 8,8zm0 -1l0 0c-4,0 -7,-3 -7,-7 0,-4 3,-7 7,-7 4,0 7,3 7,7 0,4 -3,7 -7,7z"/>
   <path class="fil39" d="M333 1076c4,0 8,-3 8,-8 0,-4 -3,-8 -8,-8 -4,0 -8,3 -8,8 0,4 3,8 8,8zm0 -1l0 0c-4,0 -6,-3 -6,-6 0,-4 3,-6 6,-6 3,0 6,2 6,6 0,3 -3,6 -6,6z"/>
   <path class="fil44" d="M333 1076c4,0 7,-3 7,-7 0,-4 -3,-7 -7,-7 -4,0 -7,3 -7,7 0,4 3,7 7,7zm0 -1l0 0c-3,0 -6,-3 -6,-6 0,-3 3,-6 6,-6 3,0 6,3 6,6 0,3 -3,6 -6,6z"/>
   <path class="fil50" d="M333 1075c3,0 6,-3 6,-6 0,-4 -3,-6 -6,-6 -4,0 -6,2 -6,6 0,3 3,6 6,6zm0 -1l0 0c-3,0 -5,-3 -5,-5 0,-3 2,-5 5,-5 3,0 5,2 5,5 0,3 -3,5 -5,5z"/>
   <path class="fil56" d="M333 1075c3,0 6,-3 6,-6 0,-3 -3,-6 -6,-6 -3,0 -6,3 -6,6 0,3 3,6 6,6zm0 -1l0 0c-3,0 -4,-2 -4,-4 0,-3 2,-4 4,-4 3,0 4,2 4,4 0,3 -2,4 -4,4z"/>
   <path class="fil62" d="M333 1074c3,0 5,-3 5,-5 0,-3 -3,-5 -5,-5 -3,0 -5,2 -5,5 0,3 2,5 5,5zm0 -1l0 0c-3,0 -4,-2 -4,-4 0,-2 1,-4 4,-4 2,0 4,2 4,4 0,2 -2,4 -4,4z"/>
   <path class="fil68" d="M333 1073c3,0 4,-2 4,-4 0,-3 -2,-4 -4,-4 -3,0 -4,2 -4,4 0,3 2,4 4,4zm0 -1l0 0c-2,0 -3,-1 -3,-3 0,-2 1,-3 3,-3 2,0 3,1 3,3 0,2 -1,3 -3,3z"/>
   <path class="fil74" d="M333 1073c2,0 4,-2 4,-4 0,-2 -2,-4 -4,-4 -3,0 -4,2 -4,4 0,2 1,4 4,4zm0 -1l0 0c-1,0 -3,-1 -3,-3 0,-1 1,-3 3,-3 1,0 3,1 3,3 0,1 -1,3 -3,3z"/>
   <path class="fil80" d="M333 1072c2,0 3,-1 3,-3 0,-2 -1,-3 -3,-3 -2,0 -3,1 -3,3 0,2 1,3 3,3zm0 -1l0 0c-1,0 -2,-1 -2,-2 0,-1 1,-2 2,-2 1,0 2,1 2,2 0,1 -1,2 -2,2z"/>
   <path class="fil86" d="M333 1071c1,0 3,-1 3,-3 0,-1 -1,-3 -3,-3 -1,0 -3,1 -3,3 0,1 1,3 3,3zm0 -1l0 0c-1,0 -1,-1 -1,-1 0,-1 1,-1 1,-1 1,0 1,1 1,1 0,1 -1,1 -1,1z"/>
   <path class="fil91" d="M333 1071c1,0 2,-1 2,-2 0,-1 -1,-2 -2,-2 -1,0 -2,1 -2,2 0,1 1,2 2,2z"/>
   <path class="fil96" d="M333 1070c1,0 1,-1 1,-1 0,-1 -1,-1 -1,-1 -1,0 -1,1 -1,1 0,1 1,1 1,1z"/>
   <path class="fil8" d="M333 1069l1 -1c0,-1 -1,-1 -1,-1 -1,0 -1,0 -1,1 0,0 0,1 1,1z"/>
   <path class="fil9" d="M333 1076c4,0 6,-3 6,-7 0,-4 -3,-7 -6,-7 -4,0 -7,3 -7,7 0,4 3,7 7,7zm0 -2l0 0c-3,0 -6,-2 -6,-5 0,-3 3,-6 6,-6 3,0 5,3 5,6 0,3 -3,5 -5,5z"/>
   <path class="fil114" d="M333 1075c3,0 6,-3 6,-6 0,-3 -3,-6 -6,-6 -3,0 -6,3 -6,6 0,3 3,6 6,6zm0 -1l0 0c-3,0 -5,-2 -5,-4 0,-3 3,-5 5,-5 3,0 4,3 4,5 0,3 -2,4 -4,4z"/>
   <path class="fil31" d="M333 1074c3,0 5,-2 5,-5 0,-3 -3,-6 -5,-6 -3,0 -6,3 -6,6 0,3 3,5 6,5zm0 -1l0 0c-3,0 -4,-2 -4,-4 0,-3 2,-4 4,-4 2,0 4,1 4,4 0,2 -2,4 -4,4z"/>
   <path class="fil41" d="M333 1073c3,0 4,-2 4,-4 0,-3 -2,-5 -4,-5 -3,0 -5,3 -5,5 0,3 3,4 5,4zm0 -1l0 0c-2,0 -3,-1 -3,-3 0,-2 1,-3 3,-3 2,0 3,1 3,3 0,2 -1,3 -3,3z"/>
   <path class="fil115" d="M333 1073c2,0 4,-2 4,-4 0,-3 -2,-4 -4,-4 -3,0 -4,1 -4,4 0,2 2,4 4,4zm0 -1l0 0c-2,0 -3,-1 -3,-3 0,-1 1,-3 3,-3 1,0 3,1 3,3 0,1 -1,3 -3,3z"/>
   <path class="fil116" d="M333 1072c2,0 3,-1 3,-3 0,-2 -1,-3 -3,-3 -2,0 -3,1 -3,3 0,2 1,3 3,3zm0 -1l0 0c-1,0 -2,-1 -2,-2 0,-1 1,-2 2,-2 1,0 2,1 2,2 0,1 -1,2 -2,2z"/>
   <path class="fil72" d="M333 1071c1,0 3,-1 3,-3 0,-1 -1,-3 -3,-3 -2,0 -3,1 -3,3 0,1 1,3 3,3zm0 -1l0 0c-1,0 -1,-1 -1,-1 0,-1 1,-1 1,-1 1,0 1,1 1,1 0,1 -1,1 -1,1z"/>
   <path class="fil82" d="M333 1071c1,0 2,-1 2,-2 0,-1 -1,-2 -2,-2 -1,0 -2,1 -2,2 0,1 1,2 2,2z"/>
   <path class="fil117" d="M333 1070c1,0 1,-1 1,-1 0,-1 -1,-1 -1,-1 -1,0 -1,1 -1,1 0,1 1,1 1,1z"/>
   <path class="fil8" d="M333 1069l1 -1c0,-1 -1,-1 -1,-1 -1,0 -1,0 -1,1 0,0 0,1 1,1z"/>
   <path class="fil8" d="M68 779l0 199c0,54 44,98 98,98 54,0 98,-44 98,-98l0 -199c0,-54 -44,-98 -98,-98 -54,0 -98,44 -98,98z"/>
   <path class="fil156" d="M155 995c0,5 4,10 10,10 5,0 10,-4 10,-10 0,-5 -4,-10 -10,-10 -5,0 -10,4 -10,10z"/>
   <path class="fil156" d="M897 1047c44,0 79,-36 79,-79 0,-44 -36,-79 -79,-79 -44,0 -79,36 -79,79 0,44 36,79 79,79z"/>
   <path class="fil156" d="M897 1042c41,0 75,-34 75,-75 0,-42 -34,-75 -75,-75 -41,0 -75,34 -75,75 0,41 34,75 75,75z"/>
   <path class="fil156" d="M897 1038c39,0 71,-32 71,-71 0,-39 -32,-71 -71,-71 -39,0 -71,32 -71,71 0,39 32,71 71,71z"/>
   <path class="fil8" d="M897 1037c39,0 70,-31 70,-70 0,-39 -31,-70 -70,-70 -38,0 -70,31 -70,70 0,39 31,70 70,70z"/>
   <path class="fil157" d="M897 1036c38,0 69,-31 69,-69 0,-38 -31,-69 -69,-69 -38,0 -69,31 -69,69 0,38 31,69 69,69z"/>
   <path class="fil158" d="M897 1035c37,0 68,-30 68,-68 0,-37 -30,-68 -68,-68 -37,0 -68,30 -68,68 0,37 30,68 68,68z"/>
   <path class="fil159" d="M897 1034c37,0 67,-30 67,-67 0,-37 -30,-67 -67,-67 -37,0 -67,30 -67,67 0,37 30,67 67,67z"/>
   <path class="fil98" d="M897 1033c36,0 66,-29 66,-66 0,-36 -29,-66 -66,-66 -36,0 -66,29 -66,66 0,36 29,66 66,66z"/>
   <path class="fil154" d="M897 1032c36,0 65,-29 65,-65 0,-36 -29,-65 -65,-65 -36,0 -65,29 -65,65 0,36 29,65 65,65z"/>
   <path class="fil97" d="M897 1031c35,0 64,-29 64,-64 0,-35 -29,-64 -64,-64 -35,0 -64,29 -64,64 0,35 29,64 64,64z"/>
   <path class="fil160" d="M897 1030c35,0 63,-28 63,-63 0,-35 -28,-63 -63,-63 -35,0 -63,28 -63,63 0,35 28,63 63,63z"/>
   <path class="fil161" d="M897 1029c34,0 62,-28 62,-62 0,-34 -28,-62 -62,-62 -34,0 -62,28 -62,62 0,34 28,62 62,62z"/>
   <path class="fil162" d="M897 1028c34,0 61,-27 61,-61 0,-34 -27,-61 -61,-61 -34,0 -61,27 -61,61 0,34 27,61 61,61z"/>
   <path class="fil152" d="M897 1027c33,0 60,-27 60,-60 0,-33 -27,-60 -60,-60 -33,0 -60,27 -60,60 0,33 27,60 60,60z"/>
   <path class="fil163" d="M897 1026c33,0 59,-26 59,-59 0,-33 -26,-59 -59,-59 -33,0 -59,26 -59,59 0,33 26,59 59,59z"/>
   <path class="fil93" d="M897 1025c32,0 58,-26 58,-58 0,-32 -26,-58 -58,-58 -32,0 -58,26 -58,58 0,32 26,58 58,58z"/>
   <path class="fil164" d="M897 1024c31,0 57,-26 57,-57 0,-31 -26,-57 -57,-57 -31,0 -57,26 -57,57 0,31 25,57 57,57z"/>
   <path class="fil165" d="M897 1023c31,0 56,-25 56,-56 0,-31 -25,-56 -56,-56 -31,0 -56,25 -56,56 0,31 25,56 56,56z"/>
   <path class="fil166" d="M897 1022c30,0 55,-25 55,-55 0,-30 -25,-55 -55,-55 -30,0 -55,25 -55,55 0,30 25,55 55,55z"/>
   <path class="fil167" d="M897 1021c30,0 54,-24 54,-54 0,-30 -24,-54 -54,-54 -30,0 -54,24 -54,54 0,30 24,54 54,54z"/>
   <path class="fil168" d="M897 1020c29,0 53,-24 53,-53 0,-29 -24,-53 -53,-53 -29,0 -53,24 -53,53 0,29 24,53 53,53z"/>
   <path class="fil169" d="M897 1019c29,0 52,-23 52,-52 0,-29 -23,-52 -52,-52 -29,0 -52,23 -52,52 0,29 23,52 52,52z"/>
   <path class="fil90" d="M897 1018c28,0 51,-23 51,-51 0,-28 -23,-51 -51,-51 -28,0 -51,23 -51,51 0,28 23,51 51,51z"/>
   <path class="fil170" d="M897 1017c28,0 50,-22 50,-50 0,-28 -22,-50 -50,-50 -28,0 -50,22 -50,50 0,28 22,50 50,50z"/>
   <path class="fil171" d="M897 1016c27,0 49,-22 49,-49 0,-27 -22,-49 -49,-49 -27,0 -49,22 -49,49 0,27 22,49 49,49z"/>
   <path class="fil172" d="M897 1015c27,0 48,-22 48,-48 0,-27 -22,-48 -48,-48 -27,0 -48,22 -48,48 0,27 22,48 48,48z"/>
   <path class="fil173" d="M897 1014c26,0 47,-21 47,-47 0,-26 -21,-47 -47,-47 -26,0 -47,21 -47,47 0,26 21,47 47,47z"/>
   <path class="fil174" d="M897 1013c26,0 46,-21 46,-46 0,-26 -21,-46 -46,-46 -25,0 -46,21 -46,46 0,26 21,46 46,46z"/>
   <path class="fil150" d="M897 1012c25,0 45,-20 45,-45 0,-25 -20,-45 -45,-45 -25,0 -45,20 -45,45 0,25 20,45 45,45z"/>
   <path class="fil150" d="M897 1011c24,0 44,-20 44,-44 0,-24 -20,-44 -44,-44 -24,0 -44,20 -44,44 0,24 20,44 44,44z"/>
   <path class="fil175" d="M897 1010c24,0 43,-19 43,-43 0,-24 -19,-43 -43,-43 -24,0 -43,19 -43,43 0,24 19,43 43,43z"/>
   <path class="fil176" d="M897 1009c23,0 42,-19 42,-42 0,-23 -19,-42 -42,-42 -23,0 -42,19 -42,42 0,23 19,42 42,42z"/>
   <path class="fil177" d="M897 1008c23,0 41,-18 41,-41 0,-23 -19,-41 -41,-41 -23,0 -41,18 -41,41 0,23 18,41 41,41z"/>
   <path class="fil178" d="M897 1007c22,0 40,-18 40,-40 0,-22 -18,-40 -40,-40 -22,0 -40,18 -40,40 0,22 18,40 40,40z"/>
   <path class="fil179" d="M897 1006c22,0 39,-18 39,-39 0,-22 -18,-39 -39,-39 -22,0 -39,18 -39,39 0,22 18,39 39,39z"/>
   <path class="fil180" d="M897 1005c21,0 38,-17 38,-38 0,-21 -17,-38 -38,-38 -21,0 -38,17 -38,38 0,21 17,38 38,38z"/>
   <path class="fil181" d="M897 1004c21,0 37,-17 37,-37 0,-21 -17,-37 -37,-37 -21,0 -37,17 -37,37 0,21 17,37 37,37z"/>
   <path class="fil182" d="M897 1003c20,0 36,-16 36,-36 0,-20 -16,-36 -36,-36 -20,0 -36,16 -36,36 0,20 16,36 36,36z"/>
   <path class="fil183" d="M897 1003c20,0 35,-16 35,-35 0,-20 -16,-35 -35,-35 -19,0 -35,16 -35,35 0,20 16,35 35,35z"/>
   <path class="fil184" d="M897 1002c19,0 34,-15 34,-34 0,-19 -15,-34 -34,-34 -19,0 -34,15 -34,34 0,19 15,34 34,34z"/>
   <path class="fil185" d="M897 1001c18,0 33,-15 33,-33 0,-18 -15,-33 -33,-33 -18,0 -33,15 -33,33 0,18 15,33 33,33z"/>
   <path class="fil186" d="M897 1000c18,0 32,-15 32,-32 0,-18 -15,-32 -32,-32 -18,0 -32,15 -32,32 0,18 15,32 32,32z"/>
   <path class="fil187" d="M897 999c17,0 31,-14 31,-31 0,-17 -14,-31 -31,-31 -17,0 -31,14 -31,31 0,17 14,31 31,31z"/>
   <path class="fil188" d="M897 998c17,0 30,-14 30,-30 0,-17 -14,-31 -30,-31 -17,0 -30,14 -30,31 0,17 14,30 30,30z"/>
   <path class="fil189" d="M897 997c16,0 29,-13 29,-29 0,-16 -13,-29 -29,-29 -16,0 -29,13 -29,29 0,16 13,29 29,29z"/>
   <path class="fil147" d="M897 996c16,0 29,-13 29,-28 0,-16 -13,-29 -29,-29 -16,0 -28,13 -28,29 0,16 13,28 28,28z"/>
   <path class="fil190" d="M897 995c15,0 28,-12 28,-28 0,-15 -12,-28 -28,-28 -15,0 -27,12 -27,28 0,15 12,28 27,28z"/>
   <path class="fil191" d="M897 994c15,0 27,-12 27,-27 0,-15 -12,-27 -27,-27 -15,0 -26,12 -26,27 0,15 12,27 26,27z"/>
   <path class="fil192" d="M897 993c14,0 26,-11 26,-26 0,-14 -11,-26 -26,-26 -14,0 -26,11 -26,26 0,14 11,26 26,26z"/>
   <path class="fil193" d="M897 992c14,0 25,-11 25,-25 0,-14 -11,-25 -25,-25 -14,0 -25,11 -25,25 0,14 11,25 25,25z"/>
   <path class="fil194" d="M897 991c13,0 24,-11 24,-24 0,-13 -11,-24 -24,-24 -13,0 -24,11 -24,24 0,13 10,24 24,24z"/>
   <path class="fil195" d="M897 990c13,0 23,-10 23,-23 0,-13 -10,-23 -23,-23 -12,0 -23,10 -23,23 0,12 10,23 23,23z"/>
   <path class="fil196" d="M897 989c12,0 22,-10 22,-22 0,-12 -10,-22 -22,-22 -12,0 -22,10 -22,22 0,12 10,22 22,22z"/>
   <path class="fil197" d="M897 988c11,0 21,-9 21,-21 0,-11 -9,-21 -21,-21 -11,0 -21,9 -21,21 0,11 9,21 21,21z"/>
   <path class="fil198" d="M897 987c11,0 20,-9 20,-20 0,-11 -9,-20 -20,-20 -11,0 -20,9 -20,20 0,11 9,20 20,20z"/>
   <path class="fil199" d="M897 986c10,0 19,-8 19,-19 0,-10 -8,-19 -19,-19 -10,0 -19,8 -19,19 0,10 8,19 19,19z"/>
   <path class="fil200" d="M897 985c10,0 18,-8 18,-18 0,-10 -8,-18 -18,-18 -10,0 -18,8 -18,18 0,10 8,18 18,18z"/>
   <path class="fil201" d="M897 984c9,0 17,-7 17,-17 0,-9 -7,-17 -17,-17 -9,0 -17,7 -17,17 0,9 7,17 17,17z"/>
   <path class="fil202" d="M897 983c9,0 16,-7 16,-16 0,-9 -7,-16 -16,-16 -9,0 -16,7 -16,16 0,9 7,16 16,16z"/>
   <path class="fil202" d="M897 982c8,0 15,-7 15,-15 0,-8 -7,-15 -15,-15 -8,0 -15,7 -15,15 0,8 7,15 15,15z"/>
   <path class="fil203" d="M897 981c8,0 14,-6 14,-14 0,-8 -6,-14 -14,-14 -8,0 -14,6 -14,14 0,8 6,14 14,14z"/>
   <path class="fil204" d="M897 980c7,0 13,-6 13,-13 0,-7 -6,-13 -13,-13 -7,0 -13,6 -13,13 0,7 6,13 13,13z"/>
   <path class="fil205" d="M897 979c7,0 12,-5 12,-12 0,-7 -5,-12 -12,-12 -6,0 -12,5 -12,12 0,7 5,12 12,12z"/>
   <path class="fil206" d="M897 978c6,0 11,-5 11,-11 0,-6 -5,-11 -11,-11 -6,0 -11,5 -11,11 0,6 5,11 11,11z"/>
   <path class="fil207" d="M897 977c5,0 10,-4 10,-10 0,-5 -4,-10 -10,-10 -5,0 -10,4 -10,10 0,5 4,10 10,10z"/>
   <path class="fil208" d="M897 976c5,0 9,-4 9,-9 0,-5 -4,-9 -9,-9 -5,0 -9,4 -9,9 0,5 4,9 9,9z"/>
   <path class="fil209" d="M897 975c4,0 8,-3 8,-8 0,-4 -4,-8 -8,-8 -4,0 -8,4 -8,8 0,4 4,8 8,8z"/>
   <path class="fil210" d="M897 974c4,0 7,-3 7,-7 0,-4 -3,-7 -7,-7 -4,0 -7,3 -7,7 0,4 3,7 7,7z"/>
   <path class="fil211" d="M897 973c3,0 6,-3 6,-6 0,-3 -3,-6 -6,-6 -3,0 -6,3 -6,6 0,3 3,6 6,6z"/>
   <path class="fil212" d="M897 972c3,0 5,-2 5,-5 0,-3 -2,-5 -5,-5 -3,0 -5,2 -5,5 0,3 2,5 5,5z"/>
   <path class="fil213" d="M897 971c2,0 4,-2 4,-4 0,-2 -2,-4 -4,-4 -2,0 -4,2 -4,4 0,2 2,4 4,4z"/>
   <path class="fil214" d="M897 970c2,0 3,-1 3,-3 0,-2 -1,-3 -3,-3 -2,0 -3,1 -3,3 0,2 1,3 3,3z"/>
   <path class="fil215" d="M897 969c1,0 2,-1 2,-2 0,-1 -1,-2 -2,-2 -1,0 -2,1 -2,2 0,1 1,2 2,2z"/>
   <path class="fil216" d="M897 968c1,0 1,-1 1,-1 0,-1 0,-1 -1,-1 -1,0 -1,1 -1,1 0,0 0,1 1,1z"/>
   <polygon class="fil217" points="819,887 976,887 976,1047 819,1047 "/>
   <path class="fil218" d="M982 1053l-169 0 0 -172 169 0 0 172zm-157 -12l0 0 145 0 0 -148 -145 0 0 148z"/>
   <path class="fil218" d="M835 698c0,41 33,74 74,74 41,0 74,-33 74,-74 0,-41 -33,-74 -74,-74 -41,0 -74,33 -74,74z"/>
   <path class="fil219" d="M836 698c0,40 33,73 73,73 40,0 73,-33 73,-73 0,-40 -33,-73 -73,-73 -40,0 -73,33 -73,73z"/>
   <path class="fil220" d="M837 698c0,40 32,72 72,72 40,0 72,-32 72,-72 0,-40 -32,-72 -72,-72 -40,0 -72,32 -72,72z"/>
   <path class="fil221" d="M838 698c0,39 32,71 71,71 39,0 71,-32 71,-71 0,-39 -32,-71 -71,-71 -39,0 -71,32 -71,71z"/>
   <path class="fil222" d="M839 698c0,39 31,70 70,70 39,0 70,-31 70,-70 0,-39 -31,-70 -70,-70 -39,0 -70,31 -70,70z"/>
   <path class="fil223" d="M840 698c0,38 31,69 69,69 38,0 69,-31 69,-69 0,-38 -31,-69 -69,-69 -38,0 -69,31 -69,69z"/>
   <path class="fil224" d="M841 698c0,37 30,68 68,68 37,0 68,-30 68,-68 0,-37 -30,-68 -68,-68 -37,0 -68,30 -68,68z"/>
   <path class="fil225" d="M842 698c0,37 30,67 67,67 37,0 67,-30 67,-67 0,-37 -30,-67 -67,-67 -37,0 -67,30 -67,67z"/>
   <path class="fil226" d="M843 698c0,36 29,66 66,66 36,0 66,-29 66,-66 0,-36 -29,-66 -66,-66 -36,0 -66,29 -66,66z"/>
   <path class="fil227" d="M844 698c0,36 29,65 65,65 36,0 65,-29 65,-65 0,-36 -29,-65 -65,-65 -36,0 -65,29 -65,65z"/>
   <path class="fil228" d="M845 698c0,35 29,64 64,64 35,0 64,-29 64,-64 0,-35 -29,-64 -64,-64 -35,0 -64,29 -64,64z"/>
   <path class="fil229" d="M846 698c0,35 28,63 63,63 35,0 63,-28 63,-63 0,-35 -28,-63 -63,-63 -35,0 -63,28 -63,63z"/>
   <path class="fil230" d="M847 698c0,34 28,62 62,62 34,0 62,-28 62,-62 0,-34 -28,-62 -62,-62 -34,0 -62,28 -62,62z"/>
   <path class="fil231" d="M848 698c0,34 27,61 61,61 33,0 61,-27 61,-61 0,-34 -27,-61 -61,-61 -34,0 -61,27 -61,61z"/>
   <path class="fil232" d="M849 698c0,33 27,60 60,60 33,0 60,-27 60,-60 0,-33 -27,-60 -60,-60 -33,0 -60,27 -60,60z"/>
   <path class="fil233" d="M850 698c0,32 26,59 59,59 32,0 59,-26 59,-59 0,-32 -26,-59 -59,-59 -32,0 -59,26 -59,59z"/>
   <path class="fil234" d="M852 698c0,32 26,58 58,58 32,0 58,-26 58,-58 0,-32 -26,-58 -58,-58 -32,0 -58,26 -58,58z"/>
   <path class="fil235" d="M853 698c0,31 25,57 57,57 31,0 57,-25 57,-57 0,-31 -25,-57 -57,-57 -31,0 -57,25 -57,57z"/>
   <path class="fil236" d="M854 698c0,31 25,56 56,56 31,0 55,-25 55,-56 0,-31 -25,-56 -55,-56 -31,0 -56,25 -56,56z"/>
   <path class="fil237" d="M855 698c0,30 24,55 54,55 30,0 55,-24 55,-55 0,-30 -24,-54 -55,-54 -30,0 -54,24 -54,54z"/>
   <path class="fil238" d="M856 698c0,29 24,53 54,53 30,0 53,-24 53,-53 0,-30 -24,-53 -53,-53 -30,0 -54,24 -54,53z"/>
   <path class="fil239" d="M857 698c0,29 23,52 52,52 29,0 52,-24 52,-52 0,-29 -23,-52 -52,-52 -29,0 -52,23 -52,52z"/>
   <path class="fil240" d="M858 698c0,28 23,51 51,51 28,0 51,-23 51,-51 0,-28 -23,-51 -51,-51 -28,0 -51,23 -51,51z"/>
   <path class="fil241" d="M859 698c0,28 23,50 50,50 28,0 50,-23 50,-50 0,-28 -23,-50 -50,-50 -28,0 -50,23 -50,50z"/>
   <path class="fil242" d="M860 698c0,27 22,49 49,49 27,0 49,-22 49,-49 0,-27 -22,-49 -49,-49 -27,0 -49,22 -49,49z"/>
   <path class="fil243" d="M861 698c0,27 22,48 48,48 27,0 48,-22 48,-48 0,-27 -22,-48 -48,-48 -27,0 -48,22 -48,48z"/>
   <path class="fil244" d="M862 698c0,26 21,47 47,47 26,0 47,-21 47,-47 0,-26 -21,-47 -47,-47 -26,0 -47,21 -47,47z"/>
   <path class="fil245" d="M863 698c0,26 21,46 46,46 26,0 46,-21 46,-46 0,-26 -21,-46 -46,-46 -26,0 -46,21 -46,46z"/>
   <path class="fil246" d="M864 698c0,25 20,45 45,45 25,0 45,-20 45,-45 0,-25 -20,-45 -45,-45 -25,0 -45,20 -45,45z"/>
   <path class="fil247" d="M865 698c0,24 20,44 44,44 24,0 44,-20 44,-44 0,-24 -20,-44 -44,-44 -24,0 -44,20 -44,44z"/>
   <path class="fil248" d="M866 698c0,24 19,43 43,43 24,0 43,-19 43,-43 0,-24 -19,-43 -43,-43 -24,0 -43,19 -43,43z"/>
   <path class="fil249" d="M867 698c0,23 19,42 42,42 23,0 42,-19 42,-42 0,-23 -19,-42 -42,-42 -23,0 -42,19 -42,42z"/>
   <path class="fil250" d="M868 698c0,23 18,41 41,41 23,0 41,-18 41,-41 0,-23 -18,-41 -41,-41 -23,0 -41,18 -41,41z"/>
   <path class="fil251" d="M869 698c0,22 18,40 40,40 22,0 40,-18 40,-40 0,-22 -18,-40 -40,-40 -22,0 -40,18 -40,40z"/>
   <path class="fil252" d="M870 698c0,22 17,39 39,39 22,0 39,-18 39,-39 0,-22 -17,-39 -39,-39 -22,0 -39,18 -39,39z"/>
   <path class="fil253" d="M871 698c0,21 17,38 38,38 21,0 38,-17 38,-38 0,-21 -17,-38 -38,-38 -21,0 -38,17 -38,38z"/>
   <path class="fil254" d="M872 698c0,20 17,37 37,37 20,0 37,-17 37,-37 0,-20 -17,-37 -37,-37 -20,0 -37,17 -37,37z"/>
   <path class="fil255" d="M873 698c0,20 16,36 36,36 20,0 36,-16 36,-36 0,-20 -16,-36 -36,-36 -20,0 -36,16 -36,36z"/>
   <path class="fil255" d="M874 698c0,19 16,35 35,35 19,0 35,-16 35,-35 0,-19 -16,-35 -35,-35 -19,0 -35,16 -35,35z"/>
   <path class="fil256" d="M875 698c0,19 15,34 34,34 19,0 34,-15 34,-34 0,-19 -15,-34 -34,-34 -19,0 -34,15 -34,34z"/>
   <path class="fil256" d="M876 698c0,18 15,33 33,33 18,0 33,-15 33,-33 0,-18 -15,-33 -33,-33 -18,0 -33,15 -33,33z"/>
   <path class="fil257" d="M877 698c0,18 14,32 32,32 18,0 32,-14 32,-32 0,-18 -14,-32 -32,-32 -18,0 -32,14 -32,32z"/>
   <path class="fil257" d="M878 698c0,17 14,31 31,31 17,0 31,-14 31,-31 0,-17 -14,-31 -31,-31 -17,0 -31,14 -31,31z"/>
   <path class="fil257" d="M879 698c0,16 13,30 30,30 16,0 30,-13 30,-30 0,-17 -13,-30 -30,-30 -16,0 -30,13 -30,30z"/>
   <path class="fil258" d="M880 698c0,16 13,29 29,29 16,0 29,-13 29,-29 0,-16 -13,-29 -29,-29 -16,0 -29,13 -29,29z"/>
   <path class="fil258" d="M881 698c0,15 12,28 28,28 15,0 28,-12 28,-28 0,-15 -12,-28 -28,-28 -15,0 -28,12 -28,28z"/>
   <path class="fil259" d="M882 698c0,15 12,27 27,27 15,0 27,-12 27,-27 0,-15 -12,-27 -27,-27 -15,0 -27,12 -27,27z"/>
   <path class="fil260" d="M883 698c0,14 12,26 26,26 14,0 26,-12 26,-26 0,-14 -12,-26 -26,-26 -14,0 -26,12 -26,26z"/>
   <path class="fil260" d="M884 698c0,14 11,25 25,25 14,0 25,-11 25,-25 0,-14 -11,-25 -25,-25 -14,0 -25,11 -25,25z"/>
   <path class="fil260" d="M885 698c0,13 11,24 24,24 13,0 24,-11 24,-24 0,-13 -11,-24 -24,-24 -13,0 -24,11 -24,24z"/>
   <path class="fil260" d="M887 698c0,12 10,23 23,23 13,0 23,-10 23,-23 0,-13 -10,-23 -23,-23 -13,0 -23,10 -23,23z"/>
   <path class="fil260" d="M888 698c0,12 10,22 22,22 12,0 22,-10 22,-22 0,-12 -10,-22 -22,-22 -12,0 -22,10 -22,22z"/>
   <path class="fil260" d="M889 698c0,11 9,21 21,21 11,0 21,-9 21,-21 0,-11 -9,-21 -21,-21 -11,0 -21,9 -21,21z"/>
   <path class="fil217" d="M890 698c0,11 9,20 20,20 11,0 20,-9 20,-20 0,-11 -9,-20 -20,-20 -11,0 -20,9 -20,20z"/>
   <path class="fil217" d="M891 698c0,10 8,18 19,18 10,0 19,-8 19,-18 0,-10 -8,-19 -19,-19 -10,0 -19,8 -19,19z"/>
   <path class="fil217" d="M892 698c0,10 8,17 17,17 10,0 17,-8 17,-17 0,-10 -8,-18 -17,-18 -10,0 -17,8 -17,18z"/>
   <path class="fil217" d="M893 698c0,9 7,16 16,16 9,0 16,-7 16,-16 0,-9 -7,-16 -16,-16 -9,0 -16,7 -16,16z"/>
   <path class="fil217" d="M894 698c0,8 7,15 15,15 9,0 15,-7 15,-15 0,-9 -7,-15 -15,-15 -9,0 -15,7 -15,15z"/>
   <path class="fil217" d="M895 698c0,8 6,14 14,14 8,0 14,-6 14,-14 0,-8 -6,-14 -14,-14 -8,0 -14,6 -14,14z"/>
   <path class="fil217" d="M896 698c0,7 6,13 13,13 7,0 13,-6 13,-13 0,-7 -6,-13 -13,-13 -7,0 -13,6 -13,13z"/>
   <path class="fil217" d="M897 698c0,7 5,12 12,12 7,0 12,-6 12,-12 0,-7 -6,-12 -12,-12 -7,0 -12,6 -12,12z"/>
   <path class="fil217" d="M898 698c0,6 5,11 11,11 6,0 11,-5 11,-11 0,-6 -5,-11 -11,-11 -6,0 -11,5 -11,11z"/>
   <path class="fil217" d="M899 698c0,6 5,10 10,10 6,0 10,-5 10,-10 0,-6 -5,-10 -10,-10 -6,0 -10,5 -10,10z"/>
   <path class="fil217" d="M900 698c0,5 4,9 9,9 5,0 9,-4 9,-9 0,-5 -4,-9 -9,-9 -5,0 -9,4 -9,9z"/>
   <path class="fil217" d="M901 698c0,5 4,8 8,8 5,0 8,-4 8,-8 0,-5 -4,-8 -8,-8 -5,0 -8,4 -8,8z"/>
   <path class="fil217" d="M902 698c0,4 3,7 7,7 4,0 7,-3 7,-7 0,-4 -3,-7 -7,-7 -4,0 -7,3 -7,7z"/>
   <path class="fil217" d="M903 698c0,3 3,6 6,6 3,0 6,-3 6,-6 0,-3 -3,-6 -6,-6 -3,0 -6,3 -6,6z"/>
   <path class="fil217" d="M904 698c0,3 2,5 5,5 3,0 5,-2 5,-5 0,-3 -2,-5 -5,-5 -3,0 -5,2 -5,5z"/>
   <path class="fil217" d="M905 698c0,2 2,4 4,4 2,0 4,-2 4,-4 0,-2 -2,-4 -4,-4 -2,0 -4,2 -4,4z"/>
   <path class="fil217" d="M906 698c0,2 1,3 3,3 2,0 3,-1 3,-3 0,-2 -1,-3 -3,-3 -2,0 -3,1 -3,3z"/>
   <path class="fil217" d="M907 698c0,1 1,2 2,2 1,0 2,-1 2,-2 0,-1 -1,-2 -2,-2 -1,0 -2,1 -2,2z"/>
   <path class="fil217" d="M908 698c0,1 0,1 1,1 1,0 1,0 1,-1 0,-1 0,-1 -1,-1 -1,0 -1,0 -1,1z"/>
   <path class="fil261" d="M851 623l116 0c8,0 15,7 15,15l0 121c0,8 -7,15 -15,15l-116 0c-8,0 -15,-7 -15,-15l0 -121c0,-8 7,-15 15,-15z"/>
   <path class="fil262" d="M967 776l-116 0c-10,0 -18,-8 -18,-18l0 -121c0,-10 8,-18 18,-18l116 0c10,0 18,8 18,18l0 121c0,10 -8,18 -18,18zm-116 -150l0 0c-6,0 -12,5 -12,12l0 121c0,6 5,12 12,12l116 0c6,0 12,-5 12,-12l0 -121c0,-7 -5,-12 -12,-12l-116 0z"/>
   <path class="fil263" d="M910 727c0,-16 13,-29 29,-29 16,0 29,13 29,29 0,16 -13,29 -29,29 -16,0 -29,-13 -29,-29z"/>
   <path class="fil263" d="M852 669c0,-16 13,-29 29,-29 16,0 29,13 29,29 0,16 -13,29 -29,29 -16,0 -29,-13 -29,-29z"/>
   <path class="fil263" d="M920 664c0,-12 10,-22 22,-22 12,0 22,10 22,22 0,12 -10,22 -22,22 -12,0 -22,-10 -22,-22z"/>
   <path class="fil263" d="M853 729c0,-12 10,-22 22,-22 12,0 22,10 22,22 0,12 -10,22 -22,22 -12,0 -22,-10 -22,-22z"/>
   <polygon class="fil120" points="438,1114 633,1114 633,1000 438,1000 "/>
   <polygon class="fil3" points="454,1087 615,1087 615,1018 454,1018 "/>
   <polygon class="fil5" points="1329,1089 1288,1089 1288,1080 1320,1080 1320,1048 1329,1048 "/>
   <path class="fil5" d="M1254 1089l-68 0 0 -9 68 0 0 9zm-102 0l0 0 -68 0 0 -9 68 0 0 9zm-102 0l0 0 -68 0 0 -9 68 0 0 9zm-102 0l0 0 -68 0 0 -9 68 0 0 9z"/>
   <polygon class="fil5" points="846,1089 805,1089 805,1048 814,1048 814,1080 846,1080 "/>
   <path class="fil5" d="M814 1011l-9 0 0 -74 9 0 0 74zm0 -111l0 0 -9 0 0 -74 9 0 0 74zm0 -111l0 0 -9 0 0 -74 9 0 0 74zm0 -111l0 0 -9 0 0 -74 9 0 0 74zm0 -111l0 0 -9 0 0 -74 9 0 0 74z"/>
   <polygon class="fil5" points="814,455 805,455 805,414 846,414 846,423 814,423 "/>
   <path class="fil5" d="M1254 423l-68 0 0 -9 68 0 0 9zm-102 0l0 0 -68 0 0 -9 68 0 0 9zm-102 0l0 0 -68 0 0 -9 68 0 0 9zm-102 0l0 0 -68 0 0 -9 68 0 0 9z"/>
   <polygon class="fil5" points="1329,455 1320,455 1320,423 1288,423 1288,414 1329,414 "/>
   <path class="fil5" d="M1329 1011l-9 0 0 -74 9 0 0 74zm0 -111l0 0 -9 0 0 -74 9 0 0 74zm0 -111l0 0 -9 0 0 -74 9 0 0 74zm0 -111l0 0 -9 0 0 -74 9 0 0 74zm0 -111l0 0 -9 0 0 -74 9 0 0 74z"/>
   <path class="fil5" d="M2362 504l-78 0 0 -16 28 -28c8,-9 14,-14 16,-18 3,-3 4,-6 6,-9 1,-3 2,-6 2,-9 0,-5 -1,-8 -4,-10 -2,-2 -6,-3 -10,-3 -4,0 -9,1 -13,3 -4,2 -8,5 -13,8l-13 -15c6,-5 10,-8 14,-10 4,-2 8,-3 12,-4 4,-1 9,-2 14,-2 7,0 13,1 19,4 5,3 10,6 13,11 3,5 4,10 4,16 0,5 -1,10 -3,15 -2,5 -5,9 -8,14 -4,5 -10,12 -20,20l-14 14 0 1 49 0 0 20z"/>
   <path class="fil5" d="M2402 487c-3,10 -7,23 -13,37l-17 0c3,-14 6,-26 8,-38l21 0 1 2z"/>
   <path class="fil5" d="M2418 456c0,-22 5,-39 14,-50 9,-11 23,-16 42,-16 6,0 11,0 15,1l0 19c-5,-1 -9,-2 -14,-2 -8,0 -15,1 -20,4 -5,2 -9,6 -12,11 -3,5 -4,12 -5,20l1 0c5,-9 13,-13 24,-13 10,0 18,3 24,9 6,6 8,15 8,26 0,12 -3,21 -10,28 -7,7 -16,10 -28,10 -8,0 -15,-2 -22,-6 -6,-4 -11,-9 -14,-17 -3,-7 -5,-16 -5,-27zm41 30l0 0c5,0 9,-2 12,-5 3,-3 4,-8 4,-15 0,-5 -1,-10 -4,-13 -2,-3 -6,-5 -11,-5 -5,0 -9,2 -12,5 -3,3 -5,7 -5,11 0,6 2,11 5,15 3,4 7,6 12,6z"/>
   <path class="fil264" d="M1586 493c-24,0 -42,10 -55,29 -13,19 -20,46 -20,80 0,70 27,106 80,106 16,0 32,-2 47,-7 15,-5 30,-10 46,-16l0 84c-31,13 -65,20 -104,20 -55,0 -98,-16 -127,-48 -29,-32 -44,-78 -44,-139 0,-38 7,-71 21,-100 14,-29 35,-51 62,-66 27,-15 58,-23 95,-23 40,0 77,9 114,26l-30 78c-14,-6 -27,-12 -41,-16 -14,-4 -28,-6 -44,-6z"/>
   <path class="fil5" d="M1824 554l-29 0 0 -78 0 -13 0 -14c-5,5 -8,8 -10,9l-16 13 -14 -17 44 -35 24 0 0 136z"/>
   <path class="fil5" d="M1911 467c13,0 24,4 31,11 8,7 12,17 12,30 0,15 -5,27 -14,35 -9,8 -23,12 -40,12 -15,0 -27,-2 -37,-7l0 -25c5,3 11,5 17,6 6,2 13,2 18,2 17,0 26,-7 26,-22 0,-14 -9,-20 -27,-20 -3,0 -7,0 -11,1 -4,1 -7,1 -10,2l-11 -6 5 -69 74 0 0 24 -48 0 -2 27 3 -1c4,-1 8,-1 14,-1z"/>
   <path class="fil5" d="M2005 534c-3,13 -9,27 -16,44l-20 0c4,-16 7,-32 9,-47l26 0 1 2z"/>
   <path class="fil5" d="M2123 526l-16 0 0 28 -28 0 0 -28 -58 0 0 -20 59 -88 26 0 0 85 16 0 0 22zm-44 -22l0 0 0 -23c0,-4 0,-9 0,-17 0,-7 1,-12 1,-13l-1 0c-2,5 -5,10 -8,15l-25 38 33 0z"/>
   <path class="fil5" d="M1848 782l-95 0 0 -20 34 -34c10,-10 17,-17 20,-21 3,-4 5,-8 7,-11 1,-3 2,-7 2,-11 0,-5 -1,-9 -5,-12 -3,-3 -7,-4 -12,-4 -5,0 -10,1 -15,4 -5,2 -10,6 -16,10l-16 -18c7,-6 12,-10 17,-12 4,-2 9,-4 14,-5 5,-1 11,-2 17,-2 8,0 16,2 22,5 6,3 12,7 15,13 4,6 5,12 5,19 0,6 -1,12 -3,18 -2,5 -6,11 -10,17 -5,6 -13,14 -24,25l-17 16 0 1 59 0 0 24z"/>
   <path class="fil5" d="M1956 704c0,27 -6,47 -17,60 -11,13 -28,20 -51,20 -8,0 -14,0 -18,-1l0 -23c5,1 11,2 16,2 10,0 17,-1 24,-4 6,-3 11,-7 14,-13 3,-6 5,-14 6,-25l-1 0c-4,6 -8,10 -12,12 -5,2 -11,4 -18,4 -12,0 -21,-4 -28,-11 -7,-8 -10,-18 -10,-32 0,-15 4,-26 12,-34 8,-8 20,-13 34,-13 10,0 19,2 26,7 8,5 13,12 17,20 4,9 6,20 6,32zm-49 -36l0 0c-6,0 -11,2 -14,6 -3,4 -5,10 -5,18 0,7 1,12 5,16 3,4 8,6 14,6 6,0 11,-2 15,-6 4,-4 6,-8 6,-13 0,-7 -2,-14 -6,-19 -4,-5 -9,-8 -15,-8z"/>
   <path class="fil5" d="M2005 762c-3,12 -9,27 -16,44l-20 0c4,-16 7,-32 9,-47l26 0 1 2z"/>
   <path class="fil5" d="M2115 676c0,8 -3,16 -8,22 -5,6 -12,10 -22,12l0 1c11,1 19,5 25,10 6,5 8,12 8,21 0,13 -5,23 -14,30 -9,7 -23,11 -41,11 -15,0 -28,-2 -39,-7l0 -24c5,3 11,5 17,6 6,2 13,3 19,3 9,0 16,-2 21,-5 5,-3 7,-8 7,-15 0,-6 -3,-11 -8,-14 -5,-3 -14,-4 -25,-4l-10 0 0 -22 10 0c11,0 18,-1 23,-4 5,-3 7,-7 7,-14 0,-10 -6,-15 -19,-15 -4,0 -9,1 -14,2 -5,1 -10,4 -15,8l-13 -20c12,-9 27,-13 44,-13 14,0 25,3 33,9 8,6 12,14 12,24z"/>
   <path class="fil5" d="M2123 612l-376 0c-5,0 -8,-3 -8,-7 0,-4 4,-7 8,-7l376 0c5,0 8,3 8,7 0,4 -4,7 -8,7z"/>
   <path class="fil5" d="M1094 585c11,0 19,3 26,9 6,6 10,14 10,25 0,13 -4,22 -12,29 -8,7 -19,10 -33,10 -12,0 -23,-2 -30,-6l0 -20c4,2 9,4 14,5 5,1 10,2 15,2 14,0 22,-6 22,-18 0,-11 -7,-17 -22,-17 -3,0 -6,0 -9,1 -3,1 -6,1 -8,2l-9 -5 4 -57 61 0 0 20 -40 0 -2 22 3 -1c3,-1 7,-1 12,-1z"/>
   <path class="fil5" d="M1172 640c-3,10 -7,23 -14,37l-17 0c3,-14 6,-26 8,-38l21 0 1 2z"/>
   <path class="fil5" d="M1266 601c0,20 -3,34 -10,43 -6,9 -16,14 -30,14 -13,0 -23,-5 -29,-15 -7,-10 -10,-24 -10,-43 0,-20 3,-34 10,-44 6,-9 16,-14 30,-14 13,0 23,5 29,15 7,10 10,24 10,43zm-55 0l0 0c0,14 1,24 4,30 2,6 6,9 12,9 6,0 9,-3 12,-9 2,-6 4,-16 4,-29 0,-14 -1,-24 -4,-30 -2,-6 -6,-9 -12,-9 -6,0 -10,3 -12,9 -2,6 -4,16 -4,30z"/>
   <path class="fil5" d="M384 408l-13 0 0 23 -23 0 0 -23 -48 0 0 -16 49 -72 22 0 0 70 13 0 0 18zm-37 -18l0 0 0 -19c0,-3 0,-8 0,-14 0,-6 0,-10 1,-11l-1 0c-2,4 -4,8 -7,12l-21 31 27 0z"/>
   <path class="fil5" d="M421 414c-3,10 -7,23 -13,37l-17 0c3,-14 6,-26 8,-38l21 0 1 2z"/>
   <path class="fil5" d="M519 408l-13 0 0 23 -23 0 0 -23 -48 0 0 -16 49 -72 22 0 0 70 13 0 0 18zm-37 -18l0 0 0 -19c0,-3 0,-8 0,-14 0,-6 0,-10 1,-11l-1 0c-2,4 -4,8 -7,12l-21 31 27 0z"/>
   <path class="fil5" d="M382 729c0,7 -2,13 -6,18 -4,5 -10,8 -18,10l0 0c9,1 16,4 21,8 5,4 7,10 7,18 0,11 -4,19 -12,25 -8,6 -19,9 -34,9 -12,0 -23,-2 -32,-6l0 -20c4,2 9,4 14,5 5,1 10,2 16,2 8,0 14,-1 17,-4 4,-3 6,-7 6,-13 0,-5 -2,-9 -6,-11 -4,-2 -11,-3 -21,-3l-9 0 0 -18 9 0c9,0 15,-1 19,-3 4,-2 6,-6 6,-12 0,-8 -5,-13 -16,-13 -4,0 -7,1 -11,2 -4,1 -8,3 -13,6l-11 -16c10,-7 22,-11 37,-11 12,0 21,2 27,7 7,5 10,11 10,20z"/>
   <path class="fil5" d="M427 799c-3,10 -7,23 -13,37l-17 0c3,-14 6,-26 8,-38l21 0 1 2z"/>
   <polygon class="fil5" points="454,816 496,724 441,724 441,704 522,704 522,719 479,816 "/>
   <path class="fil5" d="M1864 1053l-24 0 0 -65 0 -11 0 -12c-4,4 -7,6 -8,8l-13 10 -11 -14 36 -29 19 0 0 112z"/>
   <path class="fil5" d="M1936 982c11,0 19,3 26,9 6,6 10,14 10,25 0,13 -4,22 -12,29 -8,7 -19,10 -33,10 -12,0 -23,-2 -30,-6l0 -20c4,2 9,4 14,5 5,1 10,2 15,2 14,0 22,-6 22,-18 0,-11 -7,-17 -22,-17 -3,0 -6,0 -9,1 -3,1 -6,1 -8,2l-9 -5 4 -57 61 0 0 20 -40 0 -2 22 3 -1c3,-1 7,-1 12,-1z"/>
   <path class="fil5" d="M2014 1037c-3,10 -7,23 -14,37l-17 0c3,-14 6,-26 8,-38l21 0 1 2z"/>
   <path class="fil5" d="M2111 1030l-13 0 0 23 -23 0 0 -23 -48 0 0 -16 49 -72 22 0 0 70 13 0 0 18zm-37 -18l0 0 0 -19c0,-3 0,-8 0,-14 0,-6 0,-10 1,-11l-1 0c-2,4 -4,8 -7,12l-21 31 27 0z"/>
   <polygon class="fil5" points="0,1139 56,1139 56,412 0,412 "/>
   <polygon class="fil5" points="0,178 56,178 56,75 0,75 "/>
  </g>
 </g>
</svg>
