<?xml version="1.0" encoding="UTF-8"?>
<!DOCTYPE svg PUBLIC "-//W3C//DTD SVG 1.1//EN" "http://www.w3.org/Graphics/SVG/1.1/DTD/svg11.dtd">
<!-- Creator: CorelDRAW X6 -->
<svg xmlns="http://www.w3.org/2000/svg" xml:space="preserve" width="2.5715in" height="1.06461in" version="1.1" style="shape-rendering:geometricPrecision; text-rendering:geometricPrecision; image-rendering:optimizeQuality; fill-rule:evenodd; clip-rule:evenodd"
viewBox="0 0 2572 1065"
 xmlns:xlink="http://www.w3.org/1999/xlink">
 <defs>
  <style type="text/css">
   <![CDATA[
    .fil155 {fill:#30302F}
    .fil156 {fill:#363332}
    .fil120 {fill:#3A3952}
    .fil118 {fill:#5DAFD4}
    .fil10 {fill:#72706C}
    .fil9 {fill:#74716B}
    .fil12 {fill:#757370}
    .fil11 {fill:#77746E}
    .fil121 {fill:#777471}
    .fil13 {fill:#787672}
    .fil122 {fill:#7A7773}
    .fil14 {fill:#7B7873}
    .fil16 {fill:#7B7A77}
    .fil15 {fill:#7C7A75}
    .fil123 {fill:#7C7B77}
    .fil17 {fill:#7E7C78}
    .fil18 {fill:#80807B}
    .fil124 {fill:#817E7B}
    .fil19 {fill:#85817C}
    .fil114 {fill:#85827D}
    .fil20 {fill:#86837E}
    .fil21 {fill:#86847F}
    .fil125 {fill:#878580}
    .fil22 {fill:#888681}
    .fil23 {fill:#8A8883}
    .fil126 {fill:#8B8883}
    .fil24 {fill:#8B8984}
    .fil26 {fill:#8B8B84}
    .fil25 {fill:#8C8884}
    .fil27 {fill:#8E8A85}
    .fil127 {fill:#8E8C86}
    .fil108 {fill:#8E8C87}
    .fil28 {fill:#8F8C86}
    .fil29 {fill:#908D89}
    .fil30 {fill:#918F8B}
    .fil31 {fill:#94908A}
    .fil101 {fill:#94918B}
    .fil32 {fill:#94918C}
    .fil128 {fill:#95928E}
    .fil33 {fill:#979590}
    .fil129 {fill:#99958F}
    .fil34 {fill:#99968F}
    .fil35 {fill:#9A9790}
    .fil36 {fill:#9B9993}
    .fil130 {fill:#9C9892}
    .fil37 {fill:#9F9B96}
    .fil39 {fill:#9F9C97}
    .fil38 {fill:#9F9D95}
    .fil7 {fill:#9F9F9A}
    .fil41 {fill:#A2A099}
    .fil40 {fill:#A39E98}
    .fil131 {fill:#A3A09B}
    .fil102 {fill:#A3A09C}
    .fil42 {fill:#A5A29F}
    .fil132 {fill:#A7A49E}
    .fil43 {fill:#A7A4A0}
    .fil44 {fill:#A9A6A1}
    .fil45 {fill:#ACA7A4}
    .fil46 {fill:#ADA9A3}
    .fil109 {fill:#ADA9A4}
    .fil47 {fill:#ADA9A6}
    .fil103 {fill:#AEAAA6}
    .fil133 {fill:#AEACA7}
    .fil48 {fill:#AFABA6}
    .fil49 {fill:#B1ADA8}
    .fil50 {fill:#B3B1AC}
    .fil134 {fill:#B5B1AC}
    .fil51 {fill:#B5B3AE}
    .fil115 {fill:#B5B3B0}
    .fil135 {fill:#B7B5B0}
    .fil52 {fill:#B8B5B1}
    .fil119 {fill:#B8DFF2}
    .fil53 {fill:#B9B6B2}
    .fil54 {fill:#B9B7B4}
    .fil55 {fill:#BCBAB5}
    .fil57 {fill:#BEBDBA}
    .fil56 {fill:#C0BCB9}
    .fil58 {fill:#C0BDBA}
    .fil136 {fill:#C0BDBB}
    .fil59 {fill:#C2BFBD}
    .fil104 {fill:#C2C0BC}
    .fil137 {fill:#C3C1BD}
    .fil138 {fill:#C4C0BE}
    .fil61 {fill:#C4C1C0}
    .fil216 {fill:#C4C3C2}
    .fil60 {fill:#C5C2BE}
    .fil139 {fill:#C5C2C1}
    .fil116 {fill:#C5C3BF}
    .fil215 {fill:#C5C4C2}
    .fil214 {fill:#C6C5C3}
    .fil62 {fill:#C7C5C1}
    .fil63 {fill:#C7C5C3}
    .fil213 {fill:#C7C6C4}
    .fil212 {fill:#C7C7C5}
    .fil211 {fill:#C8C7C5}
    .fil64 {fill:#C9C6C3}
    .fil210 {fill:#C9C8C6}
    .fil105 {fill:#CAC7C2}
    .fil65 {fill:#CAC7C4}
    .fil209 {fill:#CAC9C7}
    .fil66 {fill:#CBC8C7}
    .fil208 {fill:#CBCAC8}
    .fil207 {fill:#CBCBC9}
    .fil110 {fill:#CCC8C4}
    .fil206 {fill:#CCCBC9}
    .fil67 {fill:#CDCAC5}
    .fil140 {fill:#CDCBC8}
    .fil100 {fill:#CDCBC9}
    .fil205 {fill:#CDCCCA}
    .fil68 {fill:#CECAC7}
    .fil204 {fill:#CECDCB}
    .fil203 {fill:#CFCECC}
    .fil141 {fill:#D0CCC8}
    .fil69 {fill:#D0CDCA}
    .fil142 {fill:#D0CDCB}
    .fil70 {fill:#D0CECC}
    .fil202 {fill:#D0CFCD}
    .fil106 {fill:#D1CFCC}
    .fil143 {fill:#D1CFCD}
    .fil201 {fill:#D1D0CF}
    .fil200 {fill:#D2D1D0}
    .fil71 {fill:#D3D1CE}
    .fil199 {fill:#D3D2D1}
    .fil144 {fill:#D4D1CF}
    .fil198 {fill:#D4D2D1}
    .fil72 {fill:#D5D2CE}
    .fil197 {fill:#D5D3D2}
    .fil196 {fill:#D5D4D3}
    .fil145 {fill:#D6D3CF}
    .fil73 {fill:#D6D3D1}
    .fil195 {fill:#D6D5D4}
    .fil194 {fill:#D7D6D5}
    .fil146 {fill:#D8D5D2}
    .fil74 {fill:#D8D6D2}
    .fil193 {fill:#D8D7D5}
    .fil192 {fill:#D9D8D7}
    .fil191 {fill:#DAD9D8}
    .fil111 {fill:#DADAD5}
    .fil75 {fill:#DADAD6}
    .fil107 {fill:#DADAD8}
    .fil190 {fill:#DADAD9}
    .fil76 {fill:#DBD9D7}
    .fil147 {fill:#DBDAD9}
    .fil77 {fill:#DBDBD9}
    .fil189 {fill:#DCDBDA}
    .fil188 {fill:#DDDCDB}
    .fil79 {fill:#DEDCDB}
    .fil78 {fill:#DEDDDB}
    .fil187 {fill:#DEDDDC}
    .fil148 {fill:#DEDEDC}
    .fil186 {fill:#DFDDDC}
    .fil185 {fill:#DFDEDD}
    .fil184 {fill:#E0DFDE}
    .fil80 {fill:#E1E0DD}
    .fil183 {fill:#E1E0E0}
    .fil149 {fill:#E2E0DF}
    .fil182 {fill:#E2E1E0}
    .fil6 {fill:#E31256}
    .fil181 {fill:#E3E2E1}
    .fil81 {fill:#E4E2DE}
    .fil82 {fill:#E4E3E1}
    .fil180 {fill:#E4E3E2}
    .fil179 {fill:#E4E4E3}
    .fil83 {fill:#E5E4E2}
    .fil178 {fill:#E5E5E4}
    .fil84 {fill:#E6E5E3}
    .fil177 {fill:#E6E5E4}
    .fil112 {fill:#E7E6E3}
    .fil176 {fill:#E7E6E5}
    .fil175 {fill:#E8E7E6}
    .fil85 {fill:#E9E7E6}
    .fil86 {fill:#E9E7E7}
    .fil150 {fill:#E9E8E8}
    .fil87 {fill:#E9E9E8}
    .fil174 {fill:#EAE9E9}
    .fil173 {fill:#EBEAEA}
    .fil88 {fill:#ECEBEA}
    .fil172 {fill:#ECEBEB}
    .fil171 {fill:#EDECEB}
    .fil170 {fill:#EDEDEC}
    .fil89 {fill:#EEECEC}
    .fil90 {fill:#EEEEED}
    .fil151 {fill:#EFEFED}
    .fil169 {fill:#EFEFEE}
    .fil168 {fill:#F0F0EF}
    .fil91 {fill:#F1EFEF}
    .fil167 {fill:#F1F0F0}
    .fil117 {fill:#F1F0F1}
    .fil166 {fill:#F1F1F1}
    .fil165 {fill:#F2F2F2}
    .fil92 {fill:#F3F2F3}
    .fil113 {fill:#F3F3F2}
    .fil164 {fill:#F3F3F3}
    .fil93 {fill:#F4F4F4}
    .fil163 {fill:#F5F4F4}
    .fil152 {fill:whitesmoke}
    .fil162 {fill:#F6F6F6}
    .fil94 {fill:#F7F7F6}
    .fil161 {fill:#F7F7F7}
    .fil95 {fill:#F8F7F7}
    .fil153 {fill:#F8F8F7}
    .fil160 {fill:#F8F8F8}
    .fil96 {fill:#F8F8F9}
    .fil97 {fill:#F9F9F9}
    .fil154 {fill:#FAFAFA}
    .fil98 {fill:#FAFBFB}
    .fil99 {fill:#FAFDFE}
    .fil159 {fill:#FBFBFB}
    .fil158 {fill:#FCFCFC}
    .fil157 {fill:#FDFDFD}
    .fil8 {fill:#FEFEFE}
    .fil263 {fill:#323030;fill-rule:nonzero}
    .fil5 {fill:#3A3952;fill-rule:nonzero}
    .fil218 {fill:#646261;fill-rule:nonzero}
    .fil262 {fill:#6C6B6A;fill-rule:nonzero}
    .fil1 {fill:#B1B1B0;fill-rule:nonzero}
    .fil4 {fill:#BFE0F1;fill-rule:nonzero}
    .fil261 {fill:#C4C3C2;fill-rule:nonzero}
    .fil219 {fill:#C7C6C4;fill-rule:nonzero}
    .fil220 {fill:#C9C8C6;fill-rule:nonzero}
    .fil221 {fill:#CBCBC9;fill-rule:nonzero}
    .fil222 {fill:#CECDCB;fill-rule:nonzero}
    .fil223 {fill:#D0CFCD;fill-rule:nonzero}
    .fil224 {fill:#D2D1D0;fill-rule:nonzero}
    .fil225 {fill:#D4D3D2;fill-rule:nonzero}
    .fil226 {fill:#D6D5D4;fill-rule:nonzero}
    .fil227 {fill:#D8D7D6;fill-rule:nonzero}
    .fil228 {fill:#DAD9D8;fill-rule:nonzero}
    .fil0 {fill:#DBDBDA;fill-rule:nonzero}
    .fil229 {fill:#DCDBDA;fill-rule:nonzero}
    .fil3 {fill:#DCDCDB;fill-rule:nonzero}
    .fil230 {fill:#DEDDDC;fill-rule:nonzero}
    .fil231 {fill:#DFDEDD;fill-rule:nonzero}
    .fil232 {fill:#E1E0E0;fill-rule:nonzero}
    .fil264 {fill:#E31256;fill-rule:nonzero}
    .fil233 {fill:#E3E2E1;fill-rule:nonzero}
    .fil234 {fill:#E4E4E3;fill-rule:nonzero}
    .fil235 {fill:#E6E5E4;fill-rule:nonzero}
    .fil236 {fill:#E8E6E5;fill-rule:nonzero}
    .fil237 {fill:#E9E8E8;fill-rule:nonzero}
    .fil238 {fill:#EAE9E9;fill-rule:nonzero}
    .fil239 {fill:#EBEAEA;fill-rule:nonzero}
    .fil240 {fill:#EDECEB;fill-rule:nonzero}
    .fil241 {fill:#EDEDEC;fill-rule:nonzero}
    .fil2 {fill:#EEEDEC;fill-rule:nonzero}
    .fil242 {fill:#EFEEED;fill-rule:nonzero}
    .fil243 {fill:#F0EFEE;fill-rule:nonzero}
    .fil244 {fill:#F1F0F0;fill-rule:nonzero}
    .fil245 {fill:#F1F1F1;fill-rule:nonzero}
    .fil246 {fill:#F2F2F2;fill-rule:nonzero}
    .fil247 {fill:#F3F3F3;fill-rule:nonzero}
    .fil248 {fill:#F4F4F4;fill-rule:nonzero}
    .fil249 {fill:#F5F5F4;fill-rule:nonzero}
    .fil250 {fill:whitesmoke;fill-rule:nonzero}
    .fil251 {fill:#F6F6F6;fill-rule:nonzero}
    .fil252 {fill:#F7F7F6;fill-rule:nonzero}
    .fil253 {fill:#F8F8F8;fill-rule:nonzero}
    .fil254 {fill:#F9F8F8;fill-rule:nonzero}
    .fil255 {fill:#F9F9F9;fill-rule:nonzero}
    .fil256 {fill:#FAFAFA;fill-rule:nonzero}
    .fil257 {fill:#FBFBFB;fill-rule:nonzero}
    .fil258 {fill:#FCFCFC;fill-rule:nonzero}
    .fil259 {fill:#FDFCFC;fill-rule:nonzero}
    .fil260 {fill:#FDFDFD;fill-rule:nonzero}
    .fil217 {fill:#FEFEFE;fill-rule:nonzero}
   ]]>
  </style>
 </defs>
 <g id="ﾃ神x00a1_ﾃ神x00bb_ﾃ神x00be_ﾃ神x00b9__x0020_1">
  <metadata id="CorelCorpID_0Corel-Layer"/>
  <g id="_318287392">
   <polygon class="fil0" points="95,97 35,97 35,157 95,157 "/>
   <path class="fil1" d="M33 96l64 0 0 64 -64 0 0 -64zm4 60l0 0 56 0 0 -56 -56 0 0 56z"/>
   <polygon class="fil0" points="154,97 94,97 94,157 154,157 "/>
   <path class="fil1" d="M92 96l64 0 0 64 -64 0 0 -64zm4 60l0 0 56 0 0 -56 -56 0 0 56z"/>
   <polygon class="fil0" points="213,97 154,97 154,157 213,157 "/>
   <path class="fil1" d="M152 96l64 0 0 64 -64 0 0 -64zm4 60l0 0 56 0 0 -56 -56 0 0 56z"/>
   <polygon class="fil2" points="95,38 35,38 35,97 95,97 "/>
   <path class="fil1" d="M33 36l64 0 0 64 -64 0 0 -64zm4 60l0 0 56 0 0 -56 -56 0 0 56z"/>
   <polygon class="fil0" points="154,38 94,38 94,97 154,97 "/>
   <path class="fil1" d="M92 36l64 0 0 64 -64 0 0 -64zm4 60l0 0 56 0 0 -56 -56 0 0 56z"/>
   <polygon class="fil2" points="213,38 154,38 154,97 213,97 "/>
   <path class="fil1" d="M152 36l64 0 0 64 -64 0 0 -64zm4 60l0 0 56 0 0 -56 -56 0 0 56z"/>
   <polygon class="fil2" points="95,157 35,157 35,216 95,216 "/>
   <path class="fil1" d="M33 155l64 0 0 64 -64 0 0 -64zm4 60l0 0 56 0 0 -56 -56 0 0 56z"/>
   <polygon class="fil0" points="154,157 94,157 94,216 154,216 "/>
   <path class="fil1" d="M92 155l64 0 0 64 -64 0 0 -64zm4 60l0 0 56 0 0 -56 -56 0 0 56z"/>
   <polygon class="fil2" points="213,157 154,157 154,216 213,216 "/>
   <path class="fil1" d="M152 155l64 0 0 64 -64 0 0 -64zm4 60l0 0 56 0 0 -56 -56 0 0 56z"/>
   <polygon class="fil0" points="95,276 35,276 35,336 95,336 "/>
   <path class="fil1" d="M33 274l64 0 0 64 -64 0 0 -64zm4 60l0 0 56 0 0 -56 -56 0 0 56z"/>
   <polygon class="fil0" points="154,276 94,276 94,336 154,336 "/>
   <path class="fil1" d="M92 274l64 0 0 64 -64 0 0 -64zm4 60l0 0 56 0 0 -56 -56 0 0 56z"/>
   <polygon class="fil0" points="213,276 154,276 154,336 213,336 "/>
   <path class="fil1" d="M152 274l64 0 0 64 -64 0 0 -64zm4 60l0 0 56 0 0 -56 -56 0 0 56z"/>
   <polygon class="fil2" points="95,216 35,216 35,276 95,276 "/>
   <path class="fil1" d="M33 215l64 0 0 64 -64 0 0 -64zm4 60l0 0 56 0 0 -56 -56 0 0 56z"/>
   <polygon class="fil0" points="154,216 94,216 94,276 154,276 "/>
   <path class="fil1" d="M92 215l64 0 0 64 -64 0 0 -64zm4 60l0 0 56 0 0 -56 -56 0 0 56z"/>
   <polygon class="fil2" points="213,216 154,216 154,276 213,276 "/>
   <path class="fil1" d="M152 215l64 0 0 64 -64 0 0 -64zm4 60l0 0 56 0 0 -56 -56 0 0 56z"/>
   <polygon class="fil0" points="273,97 213,97 213,157 273,157 "/>
   <path class="fil1" d="M211 96l64 0 0 64 -64 0 0 -64zm4 60l0 0 56 0 0 -56 -56 0 0 56z"/>
   <polygon class="fil0" points="332,97 273,97 273,157 332,157 "/>
   <path class="fil1" d="M271 96l64 0 0 64 -64 0 0 -64zm4 60l0 0 56 0 0 -56 -56 0 0 56z"/>
   <polygon class="fil0" points="392,97 332,97 332,157 392,157 "/>
   <path class="fil1" d="M331 96l64 0 0 64 -64 0 0 -64zm4 60l0 0 56 0 0 -56 -56 0 0 56z"/>
   <polygon class="fil0" points="452,97 392,97 392,157 452,157 "/>
   <path class="fil1" d="M390 96l64 0 0 64 -64 0 0 -64zm4 60l0 0 56 0 0 -56 -56 0 0 56z"/>
   <polygon class="fil0" points="511,97 452,97 452,157 511,157 "/>
   <path class="fil1" d="M450 96l64 0 0 64 -64 0 0 -64zm4 60l0 0 56 0 0 -56 -56 0 0 56z"/>
   <polygon class="fil0" points="571,97 511,97 511,157 571,157 "/>
   <path class="fil1" d="M509 96l64 0 0 64 -64 0 0 -64zm4 60l0 0 56 0 0 -56 -56 0 0 56z"/>
   <polygon class="fil0" points="630,97 570,97 570,157 630,157 "/>
   <path class="fil1" d="M568 96l64 0 0 64 -64 0 0 -64zm4 60l0 0 56 0 0 -56 -56 0 0 56z"/>
   <polygon class="fil0" points="273,38 213,38 213,97 273,97 "/>
   <path class="fil1" d="M211 36l64 0 0 64 -64 0 0 -64zm4 60l0 0 56 0 0 -56 -56 0 0 56z"/>
   <polygon class="fil2" points="332,38 273,38 273,97 332,97 "/>
   <path class="fil1" d="M271 36l64 0 0 64 -64 0 0 -64zm4 60l0 0 56 0 0 -56 -56 0 0 56z"/>
   <polygon class="fil0" points="392,38 332,38 332,97 392,97 "/>
   <path class="fil1" d="M331 36l64 0 0 64 -64 0 0 -64zm4 60l0 0 56 0 0 -56 -56 0 0 56z"/>
   <polygon class="fil2" points="452,38 392,38 392,97 452,97 "/>
   <path class="fil1" d="M390 36l64 0 0 64 -64 0 0 -64zm4 60l0 0 56 0 0 -56 -56 0 0 56z"/>
   <polygon class="fil0" points="511,38 452,38 452,97 511,97 "/>
   <path class="fil1" d="M450 36l64 0 0 64 -64 0 0 -64zm4 60l0 0 56 0 0 -56 -56 0 0 56z"/>
   <polygon class="fil2" points="571,38 511,38 511,97 571,97 "/>
   <path class="fil1" d="M509 36l64 0 0 64 -64 0 0 -64zm4 60l0 0 56 0 0 -56 -56 0 0 56z"/>
   <polygon class="fil0" points="630,38 570,38 570,97 630,97 "/>
   <path class="fil1" d="M568 36l64 0 0 64 -64 0 0 -64zm4 60l0 0 56 0 0 -56 -56 0 0 56z"/>
   <polygon class="fil0" points="273,157 213,157 213,216 273,216 "/>
   <path class="fil1" d="M211 155l64 0 0 64 -64 0 0 -64zm4 60l0 0 56 0 0 -56 -56 0 0 56z"/>
   <polygon class="fil2" points="332,157 273,157 273,216 332,216 "/>
   <path class="fil1" d="M271 155l64 0 0 64 -64 0 0 -64zm4 60l0 0 56 0 0 -56 -56 0 0 56z"/>
   <polygon class="fil0" points="392,157 332,157 332,216 392,216 "/>
   <path class="fil1" d="M331 155l64 0 0 64 -64 0 0 -64zm4 60l0 0 56 0 0 -56 -56 0 0 56z"/>
   <polygon class="fil2" points="452,157 392,157 392,216 452,216 "/>
   <path class="fil1" d="M390 155l64 0 0 64 -64 0 0 -64zm4 60l0 0 56 0 0 -56 -56 0 0 56z"/>
   <polygon class="fil0" points="511,157 452,157 452,216 511,216 "/>
   <path class="fil1" d="M450 155l64 0 0 64 -64 0 0 -64zm4 60l0 0 56 0 0 -56 -56 0 0 56z"/>
   <polygon class="fil2" points="571,157 511,157 511,216 571,216 "/>
   <path class="fil1" d="M509 155l64 0 0 64 -64 0 0 -64zm4 60l0 0 56 0 0 -56 -56 0 0 56z"/>
   <polygon class="fil0" points="630,157 570,157 570,216 630,216 "/>
   <path class="fil1" d="M568 155l64 0 0 64 -64 0 0 -64zm4 60l0 0 56 0 0 -56 -56 0 0 56z"/>
   <polygon class="fil0" points="273,276 213,276 213,336 273,336 "/>
   <path class="fil1" d="M211 274l64 0 0 64 -64 0 0 -64zm4 60l0 0 56 0 0 -56 -56 0 0 56z"/>
   <polygon class="fil0" points="332,276 273,276 273,336 332,336 "/>
   <path class="fil1" d="M271 274l64 0 0 64 -64 0 0 -64zm4 60l0 0 56 0 0 -56 -56 0 0 56z"/>
   <polygon class="fil0" points="392,276 332,276 332,336 392,336 "/>
   <path class="fil1" d="M331 274l64 0 0 64 -64 0 0 -64zm4 60l0 0 56 0 0 -56 -56 0 0 56z"/>
   <polygon class="fil0" points="452,276 392,276 392,336 452,336 "/>
   <path class="fil1" d="M390 274l64 0 0 64 -64 0 0 -64zm4 60l0 0 56 0 0 -56 -56 0 0 56z"/>
   <polygon class="fil0" points="511,276 452,276 452,336 511,336 "/>
   <path class="fil1" d="M450 274l64 0 0 64 -64 0 0 -64zm4 60l0 0 56 0 0 -56 -56 0 0 56z"/>
   <polygon class="fil0" points="571,276 511,276 511,336 571,336 "/>
   <path class="fil1" d="M509 274l64 0 0 64 -64 0 0 -64zm4 60l0 0 56 0 0 -56 -56 0 0 56z"/>
   <polygon class="fil0" points="630,276 570,276 570,336 630,336 "/>
   <path class="fil1" d="M568 274l64 0 0 64 -64 0 0 -64zm4 60l0 0 56 0 0 -56 -56 0 0 56z"/>
   <polygon class="fil0" points="273,216 213,216 213,276 273,276 "/>
   <path class="fil1" d="M211 215l64 0 0 64 -64 0 0 -64zm4 60l0 0 56 0 0 -56 -56 0 0 56z"/>
   <polygon class="fil2" points="332,216 273,216 273,276 332,276 "/>
   <path class="fil1" d="M271 215l64 0 0 64 -64 0 0 -64zm4 60l0 0 56 0 0 -56 -56 0 0 56z"/>
   <polygon class="fil0" points="392,216 332,216 332,276 392,276 "/>
   <path class="fil1" d="M331 215l64 0 0 64 -64 0 0 -64zm4 60l0 0 56 0 0 -56 -56 0 0 56z"/>
   <polygon class="fil2" points="452,216 392,216 392,276 452,276 "/>
   <path class="fil1" d="M390 215l64 0 0 64 -64 0 0 -64zm4 60l0 0 56 0 0 -56 -56 0 0 56z"/>
   <polygon class="fil0" points="511,216 452,216 452,276 511,276 "/>
   <path class="fil1" d="M450 215l64 0 0 64 -64 0 0 -64zm4 60l0 0 56 0 0 -56 -56 0 0 56z"/>
   <polygon class="fil2" points="571,216 511,216 511,276 571,276 "/>
   <path class="fil1" d="M509 215l64 0 0 64 -64 0 0 -64zm4 60l0 0 56 0 0 -56 -56 0 0 56z"/>
   <polygon class="fil0" points="630,216 570,216 570,276 630,276 "/>
   <path class="fil1" d="M568 215l64 0 0 64 -64 0 0 -64zm4 60l0 0 56 0 0 -56 -56 0 0 56z"/>
   <polygon class="fil2" points="95,337 35,337 35,396 95,396 "/>
   <path class="fil1" d="M33 335l64 0 0 64 -64 0 0 -64zm4 60l0 0 56 0 0 -56 -56 0 0 56z"/>
   <polygon class="fil0" points="154,337 94,337 94,396 154,396 "/>
   <path class="fil1" d="M92 335l64 0 0 64 -64 0 0 -64zm4 60l0 0 56 0 0 -56 -56 0 0 56z"/>
   <polygon class="fil2" points="213,337 154,337 154,396 213,396 "/>
   <path class="fil1" d="M152 335l64 0 0 64 -64 0 0 -64zm4 60l0 0 56 0 0 -56 -56 0 0 56z"/>
   <polygon class="fil0" points="95,456 35,456 35,516 95,516 "/>
   <path class="fil1" d="M33 454l64 0 0 64 -64 0 0 -64zm4 60l0 0 56 0 0 -56 -56 0 0 56z"/>
   <polygon class="fil0" points="154,456 94,456 94,516 154,516 "/>
   <path class="fil1" d="M92 454l64 0 0 64 -64 0 0 -64zm4 60l0 0 56 0 0 -56 -56 0 0 56z"/>
   <polygon class="fil0" points="213,456 154,456 154,516 213,516 "/>
   <path class="fil1" d="M152 454l64 0 0 64 -64 0 0 -64zm4 60l0 0 56 0 0 -56 -56 0 0 56z"/>
   <polygon class="fil2" points="95,396 35,396 35,456 95,456 "/>
   <path class="fil1" d="M33 394l64 0 0 64 -64 0 0 -64zm4 60l0 0 56 0 0 -56 -56 0 0 56z"/>
   <polygon class="fil0" points="154,396 94,396 94,456 154,456 "/>
   <path class="fil1" d="M92 394l64 0 0 64 -64 0 0 -64zm4 60l0 0 56 0 0 -56 -56 0 0 56z"/>
   <polygon class="fil2" points="213,396 154,396 154,456 213,456 "/>
   <path class="fil1" d="M152 394l64 0 0 64 -64 0 0 -64zm4 60l0 0 56 0 0 -56 -56 0 0 56z"/>
   <polygon class="fil0" points="273,337 213,337 213,396 273,396 "/>
   <path class="fil1" d="M211 335l64 0 0 64 -64 0 0 -64zm4 60l0 0 56 0 0 -56 -56 0 0 56z"/>
   <polygon class="fil2" points="332,337 273,337 273,396 332,396 "/>
   <path class="fil1" d="M271 335l64 0 0 64 -64 0 0 -64zm4 60l0 0 56 0 0 -56 -56 0 0 56z"/>
   <polygon class="fil0" points="392,337 332,337 332,396 392,396 "/>
   <path class="fil1" d="M331 335l64 0 0 64 -64 0 0 -64zm4 60l0 0 56 0 0 -56 -56 0 0 56z"/>
   <polygon class="fil2" points="452,337 392,337 392,396 452,396 "/>
   <path class="fil1" d="M390 335l64 0 0 64 -64 0 0 -64zm4 60l0 0 56 0 0 -56 -56 0 0 56z"/>
   <polygon class="fil0" points="511,337 452,337 452,396 511,396 "/>
   <path class="fil1" d="M450 335l64 0 0 64 -64 0 0 -64zm4 60l0 0 56 0 0 -56 -56 0 0 56z"/>
   <polygon class="fil2" points="571,337 511,337 511,396 571,396 "/>
   <path class="fil1" d="M509 335l64 0 0 64 -64 0 0 -64zm4 60l0 0 56 0 0 -56 -56 0 0 56z"/>
   <polygon class="fil0" points="630,337 570,337 570,396 630,396 "/>
   <path class="fil1" d="M568 335l64 0 0 64 -64 0 0 -64zm4 60l0 0 56 0 0 -56 -56 0 0 56z"/>
   <polygon class="fil0" points="273,456 213,456 213,516 273,516 "/>
   <path class="fil1" d="M211 454l64 0 0 64 -64 0 0 -64zm4 60l0 0 56 0 0 -56 -56 0 0 56z"/>
   <polygon class="fil0" points="332,456 273,456 273,516 332,516 "/>
   <path class="fil1" d="M271 454l64 0 0 64 -64 0 0 -64zm4 60l0 0 56 0 0 -56 -56 0 0 56z"/>
   <polygon class="fil0" points="392,456 332,456 332,516 392,516 "/>
   <path class="fil1" d="M331 454l64 0 0 64 -64 0 0 -64zm4 60l0 0 56 0 0 -56 -56 0 0 56z"/>
   <polygon class="fil0" points="452,456 392,456 392,516 452,516 "/>
   <path class="fil1" d="M390 454l64 0 0 64 -64 0 0 -64zm4 60l0 0 56 0 0 -56 -56 0 0 56z"/>
   <polygon class="fil0" points="511,456 452,456 452,516 511,516 "/>
   <path class="fil1" d="M450 454l64 0 0 64 -64 0 0 -64zm4 60l0 0 56 0 0 -56 -56 0 0 56z"/>
   <polygon class="fil0" points="571,456 511,456 511,516 571,516 "/>
   <path class="fil1" d="M509 454l64 0 0 64 -64 0 0 -64zm4 60l0 0 56 0 0 -56 -56 0 0 56z"/>
   <polygon class="fil0" points="630,456 570,456 570,516 630,516 "/>
   <path class="fil1" d="M568 454l64 0 0 64 -64 0 0 -64zm4 60l0 0 56 0 0 -56 -56 0 0 56z"/>
   <polygon class="fil0" points="273,396 213,396 213,456 273,456 "/>
   <path class="fil1" d="M211 394l64 0 0 64 -64 0 0 -64zm4 60l0 0 56 0 0 -56 -56 0 0 56z"/>
   <polygon class="fil2" points="332,396 273,396 273,456 332,456 "/>
   <path class="fil1" d="M271 394l64 0 0 64 -64 0 0 -64zm4 60l0 0 56 0 0 -56 -56 0 0 56z"/>
   <polygon class="fil0" points="392,396 332,396 332,456 392,456 "/>
   <path class="fil1" d="M331 394l64 0 0 64 -64 0 0 -64zm4 60l0 0 56 0 0 -56 -56 0 0 56z"/>
   <polygon class="fil2" points="452,396 392,396 392,456 452,456 "/>
   <path class="fil1" d="M390 394l64 0 0 64 -64 0 0 -64zm4 60l0 0 56 0 0 -56 -56 0 0 56z"/>
   <polygon class="fil0" points="511,396 452,396 452,456 511,456 "/>
   <path class="fil1" d="M450 394l64 0 0 64 -64 0 0 -64zm4 60l0 0 56 0 0 -56 -56 0 0 56z"/>
   <polygon class="fil2" points="571,396 511,396 511,456 571,456 "/>
   <path class="fil1" d="M509 394l64 0 0 64 -64 0 0 -64zm4 60l0 0 56 0 0 -56 -56 0 0 56z"/>
   <polygon class="fil0" points="630,396 570,396 570,456 630,456 "/>
   <path class="fil1" d="M568 394l64 0 0 64 -64 0 0 -64zm4 60l0 0 56 0 0 -56 -56 0 0 56z"/>
   <polygon class="fil3" points="608,135 781,135 781,27 608,27 "/>
   <polygon class="fil3" points="618,518 781,518 781,144 618,144 "/>
   <path class="fil4" d="M789 86c-10,0 -18,8 -18,18l0 455c0,10 8,18 18,18l169 0c10,0 18,-8 18,-18l0 -455c0,-10 -8,-18 -18,-18l-169 0z"/>
   <polygon class="fil5" points="2283,1065 2180,1065 2180,669 2283,669 "/>
   <polygon class="fil5" points="2283,243 2180,243 2180,0 2283,0 "/>
   <polygon class="fil5" points="608,533 634,533 634,131 608,131 "/>
   <polygon class="fil5" points="608,778 634,778 634,729 608,729 "/>
   <polygon class="fil5" points="608,1037 634,1037 634,988 608,988 "/>
   <polygon class="fil5" points="777,509 426,509 426,533 777,533 "/>
   <polygon class="fil5" points="951,729 609,729 609,755 951,755 "/>
   <polygon class="fil5" points="777,131 608,131 608,157 777,157 "/>
   <polygon class="fil5" points="268,509 26,509 26,533 268,533 "/>
   <polygon class="fil5" points="764,755 791,755 791,42 764,42 "/>
   <polygon class="fil6" points="8,976 40,976 40,958 29,958 147,764 137,764 19,958 8,958 "/>
   <polygon class="fil6" points="604,990 636,990 636,972 625,972 728,802 718,802 615,972 604,972 "/>
   <polygon class="fil6" points="426,509 426,537 408,537 408,528 277,598 277,589 408,519 408,509 "/>
   <polygon class="fil5" points="0,1065 2238,1065 2238,1012 0,1012 "/>
   <polygon class="fil5" points="0,52 2238,52 2238,0 0,0 "/>
   <polygon class="fil5" points="51,1065 0,1065 0,974 51,974 "/>
   <polygon class="fil5" points="51,737 0,737 0,0 51,0 "/>
   <path class="fil7" d="M474 126l80 0c3,0 5,2 5,5l0 31c0,4 -4,6 -8,8 4,19 4,42 4,53 0,30 -19,50 -43,50 -24,0 -44,-20 -44,-50 0,-11 3,-34 7,-53 -3,-2 -6,-5 -6,-8l0 -31c0,-3 2,-5 5,-5z"/>
   <path class="fil7" d="M513 186c20,0 35,18 35,39 0,22 -16,39 -35,39 -20,0 -35,-17 -35,-39 0,-21 16,-39 35,-39z"/>
   <path class="fil7" d="M474 121l80 0c3,0 5,3 5,5l0 34c0,7 -14,11 -17,11l-57 0c-5,0 -16,-4 -16,-11l0 -34c0,-3 2,-5 5,-5z"/>
   <path class="fil7" d="M523 225c1,1 1,2 1,3 0,9 -5,15 -11,15 -6,0 -12,-6 -12,-15 0,-1 1,-2 1,-3l22 0z"/>
   <path class="fil7" d="M546 152c2,-1 3,-2 3,-4 -1,-2 -3,-3 -5,-3 -4,2 -3,8 2,7z"/>
   <path class="fil7" d="M544 158c-4,0 -7,-3 -7,-7 0,-4 3,-7 7,-7 4,0 7,4 7,7 0,4 -3,7 -7,7z"/>
   <path class="fil7" d="M544 155c-2,0 -4,-2 -4,-4 0,-3 2,-4 4,-4 3,0 4,2 4,4 0,3 -2,4 -4,4z"/>
   <path class="fil8" d="M474 131l80 0c3,0 5,2 5,5l0 30c0,3 -4,5 -8,7 4,19 4,41 4,52 0,28 -19,48 -43,48 -24,0 -44,-20 -44,-48 0,-11 3,-33 7,-52 -3,-2 -6,-4 -6,-7l0 -30c0,-3 2,-5 5,-5z"/>
   <path class="fil9" d="M513 175c-29,0 -51,23 -51,52 0,28 23,51 51,51 28,0 51,-23 51,-51 0,-29 -23,-52 -51,-52zm0 1l0 0c28,0 50,23 50,51 0,28 -23,50 -50,50 -28,0 -50,-23 -50,-50 0,-28 22,-51 50,-51z"/>
   <path class="fil10" d="M513 176c-28,0 -51,23 -51,51 0,28 23,51 51,51 28,0 51,-23 51,-51 0,-29 -23,-51 -51,-51zm0 1l0 0c28,0 50,23 50,50 0,28 -22,50 -50,50 -27,0 -50,-22 -50,-50 0,-27 22,-50 50,-50z"/>
   <path class="fil11" d="M513 176c-28,0 -50,23 -50,51 0,28 22,50 50,50 28,0 50,-23 50,-50 0,-28 -23,-51 -50,-51zm0 1l0 0c27,0 49,22 49,50 0,27 -22,49 -49,49 -27,0 -49,-22 -49,-49 0,-28 22,-50 49,-50z"/>
   <path class="fil12" d="M513 177c-27,0 -50,23 -50,50 0,28 22,50 50,50 28,0 50,-22 50,-50 0,-28 -22,-50 -50,-50zm0 1l0 0c27,0 49,22 49,49 0,26 -22,49 -49,49 -27,0 -49,-22 -49,-49 0,-27 22,-49 49,-49z"/>
   <path class="fil13" d="M513 177c-27,0 -49,22 -49,50 0,27 22,49 49,49 27,0 49,-22 49,-49 0,-28 -22,-50 -49,-50zm0 1l0 0c26,0 48,22 48,49 0,26 -22,48 -48,48 -27,0 -48,-22 -48,-48 0,-27 21,-49 48,-49z"/>
   <path class="fil14" d="M513 178c-27,0 -49,22 -49,49 0,26 22,49 49,49 27,0 49,-22 49,-49 0,-27 -22,-49 -49,-49zm0 1l0 0c26,0 48,22 48,48 0,26 -22,48 -48,48 -26,0 -48,-22 -48,-48 0,-26 21,-48 48,-48z"/>
   <path class="fil15" d="M513 178c-27,0 -48,22 -48,49 0,26 21,48 48,48 26,0 48,-22 48,-48 0,-27 -22,-49 -48,-49zm0 1l0 0c26,0 47,21 47,48 0,26 -21,47 -47,47 -26,0 -47,-21 -47,-47 0,-26 21,-48 47,-48z"/>
   <path class="fil16" d="M513 179c-26,0 -48,22 -48,48 0,26 21,48 48,48 26,0 48,-22 48,-48 0,-26 -22,-48 -48,-48zm0 1l0 0c25,0 47,21 47,47 0,25 -21,46 -47,46 -26,0 -46,-21 -46,-46 0,-26 21,-47 46,-47z"/>
   <path class="fil17" d="M513 179c-26,0 -47,21 -47,48 0,26 21,47 47,47 26,0 47,-21 47,-47 0,-26 -21,-48 -47,-48zm0 1l0 0c25,0 46,21 46,46 0,25 -21,46 -46,46 -25,0 -46,-21 -46,-46 0,-26 21,-46 46,-46z"/>
   <path class="fil18" d="M513 180c-26,0 -46,21 -46,47 0,25 21,47 46,47 25,0 47,-21 47,-47 0,-26 -21,-47 -47,-47zm0 1l0 0c25,0 45,21 45,46 0,25 -21,45 -45,45 -25,0 -45,-21 -45,-45 0,-25 20,-46 45,-46z"/>
   <path class="fil19" d="M513 180c-25,0 -46,21 -46,46 0,25 21,46 46,46 25,0 46,-21 46,-46 0,-26 -21,-46 -46,-46zm0 1l0 0c25,0 45,21 45,45 0,25 -20,45 -45,45 -25,0 -45,-20 -45,-45 0,-25 20,-45 45,-45z"/>
   <path class="fil20" d="M513 181c-25,0 -45,21 -45,46 0,25 20,45 45,45 25,0 45,-21 45,-45 0,-25 -21,-46 -45,-46zm0 1l0 0c24,0 44,20 44,45 0,24 -20,44 -44,44 -25,0 -44,-20 -44,-44 0,-25 20,-45 44,-45z"/>
   <path class="fil21" d="M513 181c-25,0 -45,21 -45,45 0,25 20,45 45,45 25,0 45,-20 45,-45 0,-25 -20,-45 -45,-45zm0 1l0 0c24,0 44,20 44,44 0,24 -20,44 -44,44 -24,0 -44,-20 -44,-44 0,-24 20,-44 44,-44z"/>
   <path class="fil22" d="M513 182c-25,0 -44,20 -44,45 0,24 20,44 44,44 24,0 44,-20 44,-44 0,-25 -20,-45 -44,-45zm0 1l0 0c24,0 43,20 43,44 0,24 -20,43 -43,43 -24,0 -43,-20 -43,-43 0,-24 19,-44 43,-44z"/>
   <path class="fil23" d="M513 183c-24,0 -44,20 -44,44 0,24 20,44 44,44 24,0 44,-20 44,-44 0,-24 -20,-44 -44,-44zm0 1l0 0c23,0 43,20 43,43 0,23 -20,43 -43,43 -24,0 -43,-20 -43,-43 0,-24 19,-43 43,-43z"/>
   <path class="fil24" d="M513 183c-24,0 -43,20 -43,44 0,24 19,43 43,43 24,0 43,-20 43,-43 0,-24 -20,-44 -43,-44zm0 1l0 0c23,0 42,19 42,43 0,23 -19,42 -42,42 -24,0 -42,-19 -42,-42 0,-24 19,-43 42,-43z"/>
   <path class="fil25" d="M513 184c-24,0 -43,20 -43,43 0,23 19,43 43,43 23,0 43,-20 43,-43 0,-24 -20,-43 -43,-43zm0 1l0 0c23,0 42,19 42,42 0,23 -19,42 -42,42 -23,0 -42,-19 -42,-42 0,-23 19,-42 42,-42z"/>
   <path class="fil26" d="M513 184c-24,0 -42,19 -42,43 0,23 19,42 42,42 23,0 42,-19 42,-42 0,-24 -19,-43 -42,-43zm0 1l0 0c23,0 41,19 41,42 0,23 -18,41 -41,41 -23,0 -41,-19 -41,-41 0,-23 18,-42 41,-42z"/>
   <path class="fil27" d="M513 185c-23,0 -42,19 -42,42 0,23 19,42 42,42 23,0 42,-19 42,-42 0,-23 -19,-42 -42,-42zm0 1l0 0c22,0 41,19 41,41 0,22 -19,41 -41,41 -23,0 -41,-19 -41,-41 0,-23 18,-41 41,-41z"/>
   <path class="fil28" d="M513 185c-23,0 -41,19 -41,42 0,23 18,41 41,41 23,0 41,-19 41,-41 0,-23 -18,-42 -41,-42zm0 1l0 0c22,0 40,19 40,41 0,22 -18,40 -40,40 -22,0 -40,-18 -40,-40 0,-22 18,-41 40,-41z"/>
   <path class="fil29" d="M513 186c-23,0 -41,19 -41,41 0,22 18,41 41,41 22,0 41,-19 41,-41 0,-23 -19,-41 -41,-41zm0 1l0 0c22,0 40,18 40,40 0,22 -18,40 -40,40 -22,0 -40,-18 -40,-40 0,-22 17,-40 40,-40z"/>
   <path class="fil30" d="M513 186c-22,0 -40,19 -40,41 0,22 18,40 40,40 22,0 40,-18 40,-40 0,-22 -18,-41 -40,-41zm0 1l0 0c22,0 39,18 39,40 0,21 -17,39 -39,39 -22,0 -39,-18 -39,-39 0,-22 17,-40 39,-40z"/>
   <path class="fil31" d="M513 187c-22,0 -40,18 -40,40 0,22 17,40 40,40 22,0 40,-18 40,-40 0,-22 -18,-40 -40,-40zm0 1l0 0c21,0 39,17 39,39 0,21 -17,39 -39,39 -22,0 -39,-17 -39,-39 0,-22 17,-39 39,-39z"/>
   <path class="fil32" d="M513 187c-22,0 -39,18 -39,40 0,21 17,39 39,39 22,0 39,-18 39,-39 0,-22 -17,-40 -39,-40zm0 1l0 0c21,0 38,17 38,39 0,21 -17,38 -38,38 -21,0 -38,-17 -38,-38 0,-21 17,-39 38,-39z"/>
   <path class="fil33" d="M513 188c-22,0 -39,17 -39,39 0,21 17,39 39,39 21,0 39,-17 39,-39 0,-22 -17,-39 -39,-39zm0 1l0 0c21,0 38,17 38,38 0,21 -17,38 -38,38 -21,0 -38,-17 -38,-38 0,-21 16,-38 38,-38z"/>
   <path class="fil34" d="M513 188c-21,0 -38,17 -38,39 0,21 17,38 38,38 21,0 38,-17 38,-38 0,-21 -17,-39 -38,-39zm0 1l0 0c20,0 37,17 37,37 0,20 -17,37 -37,37 -21,0 -37,-17 -37,-37 0,-21 16,-37 37,-37z"/>
   <path class="fil35" d="M513 189c-21,0 -38,17 -38,38 0,21 16,38 38,38 21,0 38,-17 38,-38 0,-21 -17,-38 -38,-38zm0 1l0 0c20,0 36,16 36,37 0,20 -16,36 -36,36 -20,0 -37,-16 -37,-36 0,-21 16,-37 37,-37z"/>
   <path class="fil36" d="M513 189c-21,0 -37,17 -37,37 0,20 16,37 37,37 20,0 37,-17 37,-37 0,-21 -17,-37 -37,-37zm0 1l0 0c20,0 36,16 36,36 0,20 -16,36 -36,36 -20,0 -36,-16 -36,-36 0,-20 16,-36 36,-36z"/>
   <path class="fil37" d="M513 190c-20,0 -37,16 -37,37 0,20 16,36 37,36 20,0 36,-16 36,-36 0,-21 -16,-37 -36,-37zm0 1l0 0c20,0 35,16 35,36 0,20 -16,35 -35,35 -20,0 -35,-16 -35,-35 0,-20 16,-36 35,-36z"/>
   <path class="fil38" d="M513 190c-20,0 -36,16 -36,36 0,20 16,36 36,36 20,0 36,-16 36,-36 0,-20 -16,-36 -36,-36zm0 1l0 0c19,0 35,16 35,35 0,19 -16,35 -35,35 -20,0 -35,-16 -35,-35 0,-20 15,-35 35,-35z"/>
   <path class="fil39" d="M513 191c-20,0 -35,16 -35,36 0,20 16,35 35,35 20,0 35,-16 35,-35 0,-20 -16,-36 -35,-36zm0 1l0 0c19,0 34,16 34,35 0,19 -15,34 -34,34 -19,0 -34,-15 -34,-34 0,-19 15,-35 34,-35z"/>
   <path class="fil40" d="M513 192c-20,0 -35,16 -35,35 0,19 15,35 35,35 19,0 35,-16 35,-35 0,-20 -16,-35 -35,-35zm0 1l0 0c19,0 34,15 34,34 0,19 -15,34 -34,34 -19,0 -34,-15 -34,-34 0,-19 15,-34 34,-34z"/>
   <path class="fil41" d="M513 192c-19,0 -34,16 -34,35 0,19 15,34 34,34 19,0 34,-15 34,-34 0,-19 -15,-35 -34,-35zm0 1l0 0c19,0 33,15 33,34 0,18 -15,33 -33,33 -18,0 -33,-15 -33,-33 0,-18 15,-34 33,-34z"/>
   <path class="fil41" d="M513 192c-19,0 -34,15 -34,34 0,19 15,34 34,34 19,0 34,-15 34,-34 0,-19 -15,-34 -34,-34zm0 1l0 0c18,0 33,15 33,33 0,18 -15,33 -33,33 -18,0 -33,-15 -33,-33 0,-18 14,-33 33,-33z"/>
   <path class="fil42" d="M513 193c-18,0 -33,15 -33,34 0,18 15,33 33,33 19,0 33,-15 33,-33 0,-18 -15,-34 -33,-34zm0 1l0 0c18,0 32,15 32,33 0,18 -15,32 -32,32 -18,0 -32,-15 -32,-32 0,-18 14,-33 32,-33z"/>
   <path class="fil43" d="M513 194c-18,0 -33,15 -33,33 0,18 14,33 33,33 18,0 33,-15 33,-33 0,-18 -15,-33 -33,-33zm0 1l0 0c18,0 32,14 32,32 0,18 -14,32 -32,32 -17,0 -32,-14 -32,-32 0,-18 14,-32 32,-32z"/>
   <path class="fil44" d="M513 194c-18,0 -32,15 -32,33 0,18 14,32 32,32 18,0 32,-15 32,-32 0,-18 -15,-33 -32,-33zm0 1l0 0c17,0 31,14 31,32 0,17 -14,31 -31,31 -17,0 -31,-14 -31,-31 0,-17 14,-32 31,-32z"/>
   <path class="fil45" d="M513 195c-17,0 -32,14 -32,32 0,18 14,32 32,32 18,0 32,-14 32,-32 0,-18 -14,-32 -32,-32zm0 1l0 0c17,0 31,14 31,31 0,17 -14,31 -31,31 -17,0 -31,-14 -31,-31 0,-17 14,-31 31,-31z"/>
   <path class="fil46" d="M513 195c-17,0 -31,14 -31,32 0,17 14,31 31,31 17,0 31,-14 31,-31 0,-17 -14,-32 -31,-32zm0 1l0 0c16,0 30,14 30,31 0,16 -14,30 -30,30 -17,0 -30,-14 -30,-30 0,-17 13,-31 30,-31z"/>
   <path class="fil47" d="M513 196c-17,0 -31,14 -31,31 0,17 14,31 31,31 17,0 31,-14 31,-31 0,-17 -14,-31 -31,-31zm0 1l0 0c16,0 30,14 30,30 0,16 -13,30 -30,30 -16,0 -30,-13 -30,-30 0,-16 13,-30 30,-30z"/>
   <path class="fil48" d="M513 196c-17,0 -30,14 -30,31 0,16 13,30 30,30 16,0 30,-14 30,-30 0,-17 -14,-31 -30,-31zm0 1l0 0c16,0 29,13 29,30 0,16 -13,29 -29,29 -16,0 -29,-13 -29,-29 0,-16 13,-30 29,-30z"/>
   <path class="fil49" d="M513 197c-16,0 -30,14 -30,30 0,16 13,30 30,30 16,0 30,-13 30,-30 0,-16 -13,-30 -30,-30zm0 1l0 0c16,0 29,13 29,29 0,15 -13,29 -29,29 -16,0 -29,-13 -29,-29 0,-16 13,-29 29,-29z"/>
   <path class="fil50" d="M513 197c-16,0 -29,13 -29,30 0,16 13,29 29,29 16,0 29,-13 29,-29 0,-16 -13,-30 -29,-30zm0 1l0 0c15,0 28,13 28,29 0,15 -13,28 -28,28 -16,0 -28,-13 -28,-28 0,-16 12,-29 28,-29z"/>
   <path class="fil51" d="M513 198c-16,0 -29,13 -29,29 0,15 13,29 29,29 16,0 29,-13 29,-29 0,-16 -13,-29 -29,-29zm0 1l0 0c15,0 28,13 28,28 0,15 -13,28 -28,28 -15,0 -27,-13 -27,-28 0,-15 12,-28 27,-28z"/>
   <path class="fil52" d="M513 198c-16,0 -28,13 -28,29 0,15 12,28 28,28 15,0 28,-13 28,-28 0,-16 -13,-29 -28,-29zm0 1l0 0c15,0 27,12 27,27 0,15 -12,27 -27,27 -15,0 -27,-12 -27,-27 0,-15 12,-27 27,-27z"/>
   <path class="fil53" d="M513 199c-15,0 -27,13 -27,28 0,15 12,28 27,28 15,0 28,-13 28,-28 0,-15 -13,-28 -28,-28zm0 1l0 0c14,0 26,12 26,27 0,14 -12,26 -26,26 -15,0 -26,-12 -26,-26 0,-15 12,-27 26,-27z"/>
   <path class="fil54" d="M513 199c-15,0 -27,12 -27,27 0,15 12,27 27,27 15,0 27,-12 27,-27 0,-15 -12,-27 -27,-27zm0 1l0 0c14,0 26,12 26,26 0,14 -12,26 -26,26 -14,0 -26,-12 -26,-26 0,-15 12,-26 26,-26z"/>
   <path class="fil55" d="M513 200c-15,0 -26,12 -26,27 0,14 12,26 26,26 14,0 26,-12 26,-26 0,-15 -12,-27 -26,-27zm0 1l0 0c14,0 25,12 25,26 0,14 -12,25 -25,25 -14,0 -25,-12 -25,-25 0,-14 11,-26 25,-26z"/>
   <path class="fil56" d="M513 200c-14,0 -26,12 -26,26 0,14 12,26 26,26 14,0 26,-12 26,-26 0,-15 -12,-26 -26,-26zm0 1l0 0c14,0 25,12 25,25 0,14 -11,25 -25,25 -14,0 -25,-11 -25,-25 0,-14 11,-25 25,-25z"/>
   <path class="fil57" d="M513 201c-14,0 -25,12 -25,26 0,14 11,25 25,25 14,0 25,-12 25,-25 0,-14 -12,-26 -25,-26zm0 1l0 0c13,0 24,11 24,25 0,13 -11,24 -24,24 -14,0 -24,-11 -24,-24 0,-14 11,-25 24,-25z"/>
   <path class="fil58" d="M513 201c-14,0 -25,12 -25,25 0,14 11,25 25,25 14,0 25,-11 25,-25 0,-14 -11,-25 -25,-25zm0 1l0 0c13,0 24,11 24,24 0,13 -11,24 -24,24 -13,0 -24,-11 -24,-24 0,-13 11,-24 24,-24z"/>
   <path class="fil59" d="M513 202c-14,0 -24,11 -24,25 0,13 11,24 24,24 13,0 24,-11 24,-24 0,-14 -11,-25 -24,-25zm0 1l0 0c13,0 23,11 23,24 0,13 -11,23 -23,23 -13,0 -23,-11 -23,-23 0,-13 10,-24 23,-24z"/>
   <path class="fil60" d="M513 203c-13,0 -24,11 -24,24 0,13 11,24 24,24 13,0 24,-11 24,-24 0,-13 -11,-24 -24,-24zm0 1l0 0c12,0 23,10 23,23 0,12 -11,23 -23,23 -13,0 -23,-11 -23,-23 0,-13 10,-23 23,-23z"/>
   <path class="fil61" d="M513 203c-13,0 -23,11 -23,24 0,13 10,23 23,23 13,0 23,-11 23,-23 0,-13 -11,-24 -23,-24zm0 1l0 0c12,0 22,10 22,23 0,12 -10,22 -22,22 -13,0 -22,-10 -22,-22 0,-13 10,-23 22,-23z"/>
   <path class="fil62" d="M513 204c-13,0 -23,10 -23,23 0,12 10,23 23,23 12,0 23,-11 23,-23 0,-13 -11,-23 -23,-23zm0 1l0 0c12,0 22,10 22,22 0,12 -10,22 -22,22 -12,0 -22,-10 -22,-22 0,-12 10,-22 22,-22z"/>
   <path class="fil63" d="M513 204c-13,0 -22,10 -22,23 0,12 10,22 22,22 12,0 22,-10 22,-22 0,-13 -10,-23 -22,-23zm0 1l0 0c12,0 21,10 21,22 0,12 -10,21 -21,21 -12,0 -21,-9 -21,-21 0,-12 10,-22 21,-22z"/>
   <path class="fil64" d="M513 205c-12,0 -22,10 -22,22 0,12 10,22 22,22 12,0 22,-10 22,-22 0,-12 -10,-22 -22,-22zm0 1l0 0c11,0 21,10 21,21 0,11 -10,21 -21,21 -12,0 -21,-9 -21,-21 0,-12 9,-21 21,-21z"/>
   <path class="fil65" d="M513 205c-12,0 -21,10 -21,22 0,12 10,21 21,21 12,0 21,-9 21,-21 0,-12 -10,-22 -21,-22zm0 2l0 0c11,0 20,9 20,20 0,11 -9,20 -20,20 -11,0 -20,-9 -20,-20 0,-11 9,-20 20,-20z"/>
   <path class="fil66" d="M513 206c-12,0 -21,10 -21,21 0,11 9,21 21,21 11,0 21,-9 21,-21 0,-12 -10,-21 -21,-21zm0 1l0 0c11,0 20,9 20,20 0,11 -9,20 -20,20 -11,0 -20,-9 -20,-20 0,-11 8,-20 20,-20z"/>
   <path class="fil67" d="M513 206c-11,0 -20,10 -20,21 0,11 9,20 20,20 11,0 20,-9 20,-20 0,-11 -9,-21 -20,-21zm0 1l0 0c11,0 19,9 19,20 0,10 -8,19 -19,19 -11,0 -19,-9 -19,-19 0,-11 9,-20 19,-20z"/>
   <path class="fil68" d="M513 207c-11,0 -20,9 -20,20 0,11 8,20 20,20 11,0 20,-9 20,-20 0,-11 -9,-20 -20,-20zm0 1l0 0c10,0 19,9 19,19 0,10 -8,19 -19,19 -11,0 -18,-8 -18,-19 0,-11 8,-19 18,-19z"/>
   <path class="fil69" d="M513 207c-11,0 -19,9 -19,20 0,10 9,19 19,19 11,0 19,-9 19,-19 0,-11 -8,-20 -19,-20zm0 1l0 0c10,0 18,8 18,18 0,10 -8,18 -18,18 -10,0 -18,-8 -18,-18 0,-10 8,-18 18,-18z"/>
   <path class="fil70" d="M513 208c-11,0 -18,9 -18,19 0,10 8,19 18,19 10,0 19,-8 19,-19 0,-11 -8,-19 -19,-19zm0 2l0 0c10,0 18,7 18,17 0,10 -8,18 -18,18 -10,0 -17,-8 -17,-18 0,-10 7,-17 17,-17z"/>
   <path class="fil71" d="M513 209c-10,0 -18,8 -18,18 0,10 8,18 18,18 10,0 18,-8 18,-18 0,-10 -8,-18 -18,-18zm0 1l0 0c9,0 17,7 17,17 0,9 -8,17 -17,17 -9,0 -17,-8 -17,-17 0,-9 7,-17 17,-17z"/>
   <path class="fil72" d="M513 209c-10,0 -17,7 -17,17 0,10 7,17 17,17 10,0 18,-8 18,-17 0,-10 -8,-17 -18,-17zm0 1l0 0c9,0 16,7 16,16 0,9 -7,16 -16,16 -9,0 -16,-7 -16,-16 0,-9 7,-16 16,-16z"/>
   <path class="fil73" d="M513 210c-9,0 -17,7 -17,17 0,9 7,17 17,17 9,0 17,-8 17,-17 0,-9 -8,-17 -17,-17zm0 1l0 0c8,0 16,7 16,16 0,8 -7,16 -16,16 -9,0 -16,-7 -16,-16 0,-9 7,-16 16,-16z"/>
   <path class="fil74" d="M513 211c-9,0 -16,7 -16,16 0,9 7,16 16,16 9,0 16,-7 16,-16 0,-9 -7,-16 -16,-16zm0 1l0 0c8,0 15,7 15,15 0,8 -7,15 -15,15 -8,0 -15,-7 -15,-15 0,-8 7,-15 15,-15z"/>
   <path class="fil75" d="M513 211c-9,0 -16,7 -16,16 0,8 7,16 16,16 8,0 16,-7 16,-16 0,-9 -7,-16 -16,-16zm0 1l0 0c8,0 15,6 15,15 0,8 -7,15 -15,15 -8,0 -15,-7 -15,-15 0,-8 6,-15 15,-15z"/>
   <path class="fil76" d="M513 212c-8,0 -15,7 -15,15 0,8 7,15 15,15 8,0 15,-7 15,-15 0,-8 -7,-15 -15,-15zm0 1l0 0c8,0 14,6 14,14 0,7 -6,14 -14,14 -8,0 -14,-7 -14,-14 0,-8 6,-14 14,-14z"/>
   <path class="fil77" d="M513 212c-8,0 -15,6 -15,15 0,8 6,15 15,15 8,0 15,-7 15,-15 0,-8 -7,-15 -15,-15zm0 1l0 0c7,0 14,6 14,14 0,7 -6,14 -14,14 -8,0 -14,-6 -14,-14 0,-8 6,-14 14,-14z"/>
   <path class="fil78" d="M513 213c-8,0 -14,6 -14,14 0,7 6,14 14,14 8,0 14,-7 14,-14 0,-8 -6,-14 -14,-14zm0 1l0 0c7,0 13,6 13,13 0,7 -6,13 -13,13 -7,0 -13,-6 -13,-13 0,-7 6,-13 13,-13z"/>
   <path class="fil79" d="M513 213c-8,0 -14,6 -14,14 0,7 6,14 14,14 7,0 14,-6 14,-14 0,-8 -6,-14 -14,-14zm0 1l0 0c7,0 13,5 13,13 0,7 -6,13 -13,13 -7,0 -13,-6 -13,-13 0,-7 5,-13 13,-13z"/>
   <path class="fil80" d="M513 214c-7,0 -13,6 -13,13 0,7 6,13 13,13 7,0 13,-6 13,-13 0,-7 -6,-13 -13,-13zm0 1l0 0c6,0 12,5 12,12 0,6 -6,12 -12,12 -7,0 -12,-6 -12,-12 0,-7 5,-12 12,-12z"/>
   <path class="fil81" d="M513 214c-7,0 -13,5 -13,13 0,7 5,13 13,13 7,0 13,-6 13,-13 0,-7 -6,-13 -13,-13zm0 1l0 0c6,0 12,5 12,12 0,6 -5,12 -12,12 -6,0 -12,-5 -12,-12 0,-7 5,-12 12,-12z"/>
   <path class="fil82" d="M513 215c-7,0 -12,5 -12,12 0,6 5,12 12,12 6,0 12,-6 12,-12 0,-7 -6,-12 -12,-12zm0 1l0 0c6,0 11,5 11,11 0,6 -5,11 -11,11 -6,0 -11,-5 -11,-11 0,-6 5,-11 11,-11z"/>
   <path class="fil83" d="M513 215c-6,0 -12,5 -12,12 0,6 5,12 12,12 6,0 12,-5 12,-12 0,-7 -5,-12 -12,-12zm0 1l0 0c6,0 11,4 11,11 0,6 -5,11 -11,11 -6,0 -11,-5 -11,-11 0,-6 5,-11 11,-11z"/>
   <path class="fil84" d="M513 216c-6,0 -11,5 -11,11 0,6 5,11 11,11 6,0 11,-5 11,-11 0,-6 -5,-11 -11,-11zm0 1l0 0c5,0 10,4 10,10 0,5 -5,10 -10,10 -6,0 -10,-5 -10,-10 0,-6 4,-10 10,-10z"/>
   <path class="fil85" d="M513 216c-6,0 -11,4 -11,11 0,6 5,11 11,11 6,0 11,-5 11,-11 0,-6 -5,-11 -11,-11zm0 1l0 0c5,0 10,4 10,9 0,5 -4,10 -10,10 -5,0 -9,-4 -9,-10 0,-5 4,-9 9,-9z"/>
   <path class="fil86" d="M513 217c-6,0 -10,4 -10,10 0,5 4,10 10,10 5,0 10,-5 10,-10 0,-6 -5,-10 -10,-10zm0 1l0 0c5,0 9,4 9,9 0,5 -4,9 -9,9 -5,0 -9,-4 -9,-9 0,-5 4,-9 9,-9z"/>
   <path class="fil87" d="M513 217c-5,0 -9,4 -9,9 0,5 4,10 9,10 5,0 10,-4 10,-10 0,-5 -4,-9 -10,-9zm0 1l0 0c5,0 8,4 8,8 0,4 -4,8 -8,8 -5,0 -8,-4 -8,-8 0,-5 4,-8 8,-8z"/>
   <path class="fil88" d="M513 218c-5,0 -9,4 -9,9 0,5 4,9 9,9 5,0 9,-4 9,-9 0,-5 -4,-9 -9,-9zm0 1l0 0c4,0 8,3 8,8 0,4 -4,8 -8,8 -5,0 -8,-4 -8,-8 0,-5 3,-8 8,-8z"/>
   <path class="fil88" d="M513 218c-5,0 -8,4 -8,8 0,4 4,8 8,8 5,0 8,-4 8,-8 0,-5 -4,-8 -8,-8zm0 1l0 0c4,0 7,3 7,7 0,4 -4,7 -7,7 -4,0 -7,-4 -7,-7 0,-4 3,-7 7,-7z"/>
   <path class="fil89" d="M513 219c-5,0 -8,3 -8,8 0,4 3,8 8,8 4,0 8,-4 8,-8 0,-5 -4,-8 -8,-8zm0 1l0 0c4,0 7,3 7,7 0,4 -3,7 -7,7 -4,0 -7,-3 -7,-7 0,-4 3,-7 7,-7z"/>
   <path class="fil90" d="M513 220c-4,0 -7,3 -7,7 0,4 3,7 7,7 4,0 7,-4 7,-7 0,-4 -4,-7 -7,-7zm0 1l0 0c3,0 6,3 6,6 0,3 -3,6 -6,6 -4,0 -6,-3 -6,-6 0,-4 3,-6 6,-6z"/>
   <path class="fil91" d="M513 220c-4,0 -7,3 -7,7 0,4 3,7 7,7 4,0 7,-3 7,-7 0,-4 -3,-7 -7,-7zm0 1l0 0c3,0 6,2 6,6 0,3 -3,6 -6,6 -3,0 -6,-3 -6,-6 0,-4 3,-6 6,-6z"/>
   <path class="fil91" d="M513 221c-4,0 -6,3 -6,6 0,3 3,6 6,6 3,0 6,-3 6,-6 0,-4 -3,-6 -6,-6zm0 1l0 0c3,0 5,2 5,5 0,3 -3,5 -5,5 -3,0 -5,-3 -5,-5 0,-3 2,-5 5,-5z"/>
   <path class="fil92" d="M513 221c-3,0 -6,2 -6,6 0,3 3,6 6,6 3,0 6,-3 6,-6 0,-4 -3,-6 -6,-6zm0 1l0 0c3,0 5,2 5,5 0,3 -2,5 -5,5 -3,0 -5,-2 -5,-5 0,-3 2,-5 5,-5z"/>
   <path class="fil93" d="M513 222c-3,0 -5,2 -5,5 0,3 2,5 5,5 3,0 5,-3 5,-5 0,-3 -3,-5 -5,-5zm0 1l0 0c2,0 4,2 4,4 0,2 -2,4 -4,4 -3,0 -4,-2 -4,-4 0,-3 2,-4 4,-4z"/>
   <path class="fil94" d="M513 222c-3,0 -5,2 -5,5 0,3 2,5 5,5 3,0 5,-2 5,-5 0,-3 -2,-5 -5,-5zm0 1l0 0c2,0 4,2 4,4 0,2 -2,4 -4,4 -2,0 -4,-2 -4,-4 0,-2 2,-4 4,-4z"/>
   <path class="fil95" d="M513 223c-3,0 -4,2 -4,4 0,2 2,4 4,4 2,0 4,-2 4,-4 0,-3 -2,-4 -4,-4zm0 1l0 0c2,0 3,1 3,3 0,2 -2,3 -3,3 -2,0 -3,-2 -3,-3 0,-2 1,-3 3,-3z"/>
   <path class="fil96" d="M513 223c-2,0 -4,2 -4,4 0,2 2,4 4,4 2,0 4,-2 4,-4 0,-2 -2,-4 -4,-4zm0 1l0 0c1,0 3,1 3,3 0,1 -2,3 -3,3 -2,0 -3,-2 -3,-3 0,-2 1,-3 3,-3z"/>
   <path class="fil97" d="M513 224c-2,0 -3,1 -3,3 0,2 1,3 3,3 2,0 3,-2 3,-3 0,-2 -2,-3 -3,-3zm0 1l0 0c1,0 2,1 2,2 0,1 -1,2 -2,2 -2,0 -2,-1 -2,-2 0,-2 1,-2 2,-2z"/>
   <path class="fil97" d="M513 224c-2,0 -3,1 -3,3 0,1 1,3 3,3 1,0 3,-2 3,-3 0,-2 -2,-3 -3,-3zm0 1l0 0c1,0 2,1 2,2 0,1 -1,2 -2,2 -1,0 -2,-1 -2,-2 0,-1 1,-2 2,-2z"/>
   <path class="fil98" d="M513 225c-2,0 -2,1 -2,2 0,1 1,2 2,2 1,0 2,-1 2,-2 0,-2 -1,-2 -2,-2zm0 1l0 0c1,0 1,0 1,1 0,1 -1,1 -1,1 -1,0 -1,0 -1,-1 0,-1 1,-1 1,-1z"/>
   <path class="fil99" d="M513 225c1,0 2,1 2,2 0,1 -1,2 -2,2 -1,0 -2,-1 -2,-2 0,-1 1,-2 2,-2z"/>
   <path class="fil8" d="M513 226c1,0 1,0 1,1 0,1 -1,1 -1,1 -1,0 -1,0 -1,-1 0,-1 1,-1 1,-1z"/>
   <path class="fil8" d="M513 226c0,0 1,0 1,0l-1 1c-1,0 -1,-1 -1,-1 0,0 0,0 1,0z"/>
   <path class="fil100" d="M474 126l80 0c3,0 5,3 5,5l0 33c0,7 -14,11 -17,11l-57 0c-5,0 -16,-4 -16,-11l0 -33c0,-3 2,-5 5,-5z"/>
   <path class="fil7" d="M523 226c1,1 1,2 1,3 0,8 -5,14 -11,14 -6,0 -12,-6 -12,-14 0,-1 1,-2 1,-3l22 0z"/>
   <path class="fil8" d="M546 157c2,-1 3,-2 3,-4 -1,-2 -3,-3 -5,-2 -4,1 -3,8 2,6z"/>
   <path class="fil26" d="M540 160c1,1 3,2 4,2 0,0 1,0 1,0 0,0 -1,0 -1,0 -2,0 -3,-1 -4,-2z"/>
   <path class="fil101" d="M537 155c0,4 3,7 7,7 4,0 7,-3 7,-7 0,-4 -3,-7 -7,-7 -4,0 -7,3 -7,7zm7 -6l0 0c4,0 6,3 6,6 0,4 -3,7 -6,7 -4,0 -6,-3 -6,-7 0,-3 3,-6 6,-6z"/>
   <path class="fil37" d="M544 148l0 0 0 0 0 0 0 0 0 0 0 0 0 0 0 0 0 0 0 0 0 0 0 0 0 0 0 0 0 0 0 0 0 0 0 0 0 0 0 0 0 0 0 0 0 0 0 0 0 0 0 0 0 0 0 0 0 0 0 0 0 0 0 0 0 0 0 0 0 0 0 0c-1,0 -1,1 -2,1l0 0 0 0 0 0c-1,1 -2,3 -2,4 0,2 1,4 2,5l0 0 0 0 0 0 0 0 0 0 0 0 0 0 0 0 0 0 0 0 0 0 0 0 0 0 0 0 0 0 0 0 0 0 0 0 0 0 0 0 0 0 0 0 0 0c1,1 2,1 3,1 0,0 0,0 1,0l0 0 0 0c3,0 6,-3 6,-7 0,-4 -3,-7 -7,-7l0 0 0 0 0 0 0 0zm0 1l0 0c3,0 6,3 6,6 0,4 -3,6 -6,6 -3,0 -6,-3 -6,-6 0,-3 3,-6 6,-6z"/>
   <path class="fil102" d="M544 148c-4,0 -6,3 -6,6 0,4 3,7 6,7 3,0 6,-3 7,-6l0 0 0 0 0 0c0,0 0,-1 0,-1l0 -1 0 0 0 0c0,-3 -3,-6 -7,-6zm0 1l0 0c3,0 5,3 5,5 0,3 -2,6 -5,6 -3,0 -5,-3 -5,-6 0,-3 2,-5 5,-5z"/>
   <path class="fil103" d="M544 149c-3,0 -6,3 -6,6 0,4 3,6 6,6 3,0 6,-3 6,-6 0,-3 -3,-6 -6,-6zm0 1l0 0c3,0 5,2 5,5 0,3 -2,5 -5,5 -3,0 -5,-2 -5,-5 0,-3 2,-5 5,-5z"/>
   <path class="fil54" d="M544 149c-3,0 -5,3 -5,5 0,3 2,6 5,6 3,0 5,-3 5,-6 0,-3 -2,-5 -5,-5zm0 1l0 0c3,0 4,2 4,4 0,3 -2,5 -4,5 -2,0 -4,-2 -4,-5 0,-2 2,-4 4,-4z"/>
   <path class="fil104" d="M544 150c-3,0 -5,2 -5,5 0,3 2,5 5,5 3,0 5,-2 5,-5 0,-3 -2,-5 -5,-5zm0 1l0 0c2,0 4,2 4,4 0,2 -2,4 -4,4 -2,0 -4,-2 -4,-4 0,-2 2,-4 4,-4z"/>
   <path class="fil105" d="M544 150c-2,0 -4,2 -4,4 0,3 2,5 4,5 3,0 4,-2 4,-5 0,-2 -2,-4 -4,-4zm0 1l0 0c2,0 3,1 3,3 0,2 -1,4 -3,4 -2,0 -3,-2 -3,-4 0,-2 2,-3 3,-3z"/>
   <path class="fil106" d="M544 151c-2,0 -4,2 -4,4 0,2 2,4 4,4 2,0 4,-2 4,-4 0,-2 -2,-4 -4,-4zm0 1l0 0c2,0 3,2 3,3 0,1 -1,3 -3,3 -2,0 -3,-2 -3,-3 0,-1 1,-3 3,-3z"/>
   <path class="fil107" d="M544 151c-2,0 -3,1 -3,3 0,2 2,4 3,4 2,0 3,-2 3,-4 0,-2 -1,-3 -3,-3zm0 1l0 0c1,0 2,1 2,2 0,1 -1,3 -2,3 -1,0 -2,-1 -2,-3 0,-1 1,-2 2,-2z"/>
   <path class="fil82" d="M544 152c-2,0 -3,2 -3,3 0,1 1,3 3,3 2,0 3,-2 3,-3 0,-1 -1,-3 -3,-3zm0 1l0 0c1,0 2,1 2,2 0,1 -1,1 -2,1 -1,0 -2,0 -2,-1 0,-1 1,-2 2,-2z"/>
   <path class="fil87" d="M544 152c-1,0 -2,1 -2,2 0,1 1,3 2,3 1,0 2,-1 2,-3 0,-1 -1,-2 -2,-2zm0 1l0 0c1,0 1,0 1,1 0,1 -1,1 -1,1 -1,0 -1,0 -1,-1 0,-1 1,-1 1,-1z"/>
   <path class="fil91" d="M544 153c1,0 2,1 2,2 0,1 -1,1 -2,1 -1,0 -2,0 -2,-1 0,-1 1,-2 2,-2z"/>
   <path class="fil96" d="M544 154c1,0 1,0 1,1 0,1 -1,1 -1,1 -1,0 -1,0 -1,-1 0,-1 1,-1 1,-1z"/>
   <path class="fil8" d="M544 154c1,0 1,1 1,1 0,1 0,1 -1,1 0,0 -1,0 -1,-1l1 -1z"/>
   <path class="fil108" d="M540 155c0,3 2,5 4,5 3,0 4,-2 4,-5 0,-2 -2,-4 -4,-4 -2,0 -4,2 -4,4zm4 -4l0 0c2,0 4,2 4,4 0,2 -2,4 -4,4 -2,0 -4,-2 -4,-4 0,-2 2,-4 4,-4z"/>
   <path class="fil38" d="M541 158l0 0 0 0 0 0 0 0 0 0 0 0 0 0 0 0 0 0 0 0 0 0 0 0 0 0 0 0 0 0 0 0 0 0 0 0 0 0 0 0 0 0 0 0 0 0 0 0 0 0 0 0 0 0 0 0 0 0 0 0 0 0 0 0 0 0 0 0 0 0 0 0 0 0 0 0 0 0 0 0 0 0 0 0 0 0 0 0 0 0 0 0 0 0 0 0 0 0 0 0 0 0 0 0 0 0 0 0 0 0 0 0 0 0 0 0 0 0 0 0 0 0 0 0 0 0 0 0 0 0 0 0 0 0 0 0 0 0 0 0 0 0 0 0 0 0 0 0 0 0 0 0 0 0 0 0 0 0 0 0 0 0 0 0 0 0 0 0 0 0 0 0 0 0 0 0 0 0 0 0 0 0 0 0 0 0 0 0 0 0 0 0 0 0 0 0 0 0 0 0 0 0 0 0 0 0 0 0 0 0 0 0 0 0 0 0 0 0 0 0 0 0 0 0 0 0 0 0 0 0 0 0 0 0 0 0 0 0 0 0 0 0 0 0 0 0 0 0 0 0 0 0 0 0 0 0 0 0 0 0 0 0 0 0 0 0 0 0 0 0 0 0 0 0 0 0 0 0 0 0 0 0 0 0 0 0 0 0 0 0 0 0 0 0 0 0 0 0 0 0 0 0 0 0 0 0 0 0 0 0 0 0 0 0 0 0 0 0 0 0 0 0 0 0 0 0 0 0 0 0 0 0 0 0 0 0 0 0 0 0 0 0 0 0 0 0 0 0 0 0 0 0 0 0 0 0c-1,-1 -2,-2 -4,-2 -2,0 -4,2 -4,4 0,1 1,2 1,3zm3 -6l0 0c2,0 3,1 3,3 0,2 -1,4 -3,4 -2,0 -3,-2 -3,-4 0,-2 2,-3 3,-3z"/>
   <path class="fil109" d="M544 151c-2,0 -4,2 -4,4 0,2 2,4 4,4 2,0 4,-2 4,-4 0,-2 -2,-4 -4,-4zm0 1l0 0c2,0 3,2 3,3 0,1 -1,3 -3,3 -2,0 -3,-2 -3,-3 0,-1 1,-3 3,-3z"/>
   <path class="fil56" d="M544 151c-2,0 -3,1 -3,3 0,2 2,4 3,4 2,0 3,-2 3,-4 0,-2 -1,-3 -3,-3zm0 1l0 0c1,0 2,1 2,2 0,1 -1,3 -2,3 -1,0 -2,-1 -2,-3 0,-1 1,-2 2,-2z"/>
   <path class="fil110" d="M544 152c-2,0 -3,2 -3,3 0,1 1,3 3,3 2,0 3,-2 3,-3 0,-1 -1,-3 -3,-3zm0 1l0 0c1,0 2,1 2,2 0,1 -1,2 -2,2 -1,0 -2,-1 -2,-2 0,-1 1,-2 2,-2z"/>
   <path class="fil111" d="M544 152c-1,0 -2,1 -2,2 0,1 1,3 2,3 1,0 2,-1 2,-3 0,-1 -1,-2 -2,-2zm0 1l0 0c1,0 1,0 1,1 0,1 -1,1 -1,1 -1,0 -1,0 -1,-1 0,-1 1,-1 1,-1z"/>
   <path class="fil112" d="M544 153c1,0 2,1 2,2 0,1 -1,2 -2,2 -1,0 -2,-1 -2,-2 0,-1 1,-2 2,-2z"/>
   <path class="fil113" d="M544 154c1,0 1,0 1,1 0,1 -1,1 -1,1 -1,0 -1,0 -1,-1 0,-1 1,-1 1,-1z"/>
   <path class="fil8" d="M544 154c1,0 1,1 1,1 0,1 0,1 -1,1 0,0 -1,0 -1,-1l1 -1z"/>
   <path class="fil8" d="M474 126l80 0c3,0 5,3 5,5l0 32c0,7 -14,11 -17,11l-57 0c-5,0 -16,-4 -16,-11l0 -32c0,-3 2,-5 5,-5z"/>
   <path class="fil9" d="M513 129c-5,0 -9,4 -9,9 0,5 4,9 9,9 5,0 9,-4 9,-9 0,-5 -4,-9 -9,-9zm0 1l0 0c4,0 8,4 8,8 0,4 -4,8 -8,8 -5,0 -8,-4 -8,-8 0,-4 4,-8 8,-8z"/>
   <path class="fil15" d="M513 130c-5,0 -9,4 -9,8 0,5 4,8 9,8 4,0 8,-4 8,-8 0,-5 -4,-8 -8,-8zm0 1l0 0c4,0 7,3 7,7 0,4 -4,7 -7,7 -4,0 -8,-3 -8,-7 0,-4 4,-7 8,-7z"/>
   <path class="fil21" d="M513 130c-5,0 -8,4 -8,8 0,4 4,8 8,8 4,0 8,-4 8,-8 0,-4 -4,-8 -8,-8zm0 1l0 0c4,0 7,3 7,7 0,4 -3,7 -7,7 -4,0 -7,-3 -7,-7 0,-4 3,-7 7,-7z"/>
   <path class="fil27" d="M513 131c-4,0 -8,3 -8,7 0,4 4,7 8,7 4,0 7,-3 7,-7 0,-4 -4,-7 -7,-7zm0 1l0 0c3,0 6,3 6,6 0,4 -3,6 -6,6 -4,0 -7,-3 -7,-6 0,-4 3,-6 7,-6z"/>
   <path class="fil33" d="M513 131c-4,0 -7,3 -7,7 0,4 3,7 7,7 4,0 7,-3 7,-7 0,-4 -3,-7 -7,-7zm0 1l0 0c3,0 6,3 6,6 0,3 -3,6 -6,6 -4,0 -6,-3 -6,-6 0,-3 3,-6 6,-6z"/>
   <path class="fil39" d="M513 132c-4,0 -7,3 -7,6 0,4 3,6 7,6 3,0 6,-3 6,-6 0,-4 -3,-6 -6,-6zm0 1l0 0c3,0 5,2 5,5 0,3 -3,5 -5,5 -3,0 -6,-2 -6,-5 0,-3 3,-5 6,-5z"/>
   <path class="fil44" d="M513 132c-4,0 -6,3 -6,6 0,3 3,6 6,6 3,0 6,-3 6,-6 0,-3 -3,-6 -6,-6zm0 1l0 0c3,0 5,2 5,5 0,3 -2,5 -5,5 -3,0 -5,-2 -5,-5 0,-3 3,-5 5,-5z"/>
   <path class="fil50" d="M513 133c-3,0 -6,2 -6,5 0,3 3,5 6,5 3,0 5,-2 5,-5 0,-3 -3,-5 -5,-5zm0 1l0 0c2,0 4,2 4,4 0,2 -2,4 -4,4 -3,0 -5,-2 -5,-4 0,-2 2,-4 5,-4z"/>
   <path class="fil56" d="M513 133c-3,0 -5,2 -5,5 0,3 3,5 5,5 3,0 5,-2 5,-5 0,-3 -2,-5 -5,-5zm0 1l0 0c2,0 4,2 4,4 0,2 -2,4 -4,4 -2,0 -4,-2 -4,-4 0,-2 2,-4 4,-4z"/>
   <path class="fil62" d="M513 134c-3,0 -5,2 -5,4 0,2 2,4 5,4 2,0 4,-2 4,-4 0,-2 -2,-4 -4,-4zm0 1l0 0c2,0 3,2 3,3 0,2 -2,3 -3,3 -2,0 -4,-2 -4,-3 0,-2 2,-3 4,-3z"/>
   <path class="fil68" d="M513 134c-2,0 -4,2 -4,4 0,2 2,4 4,4 2,0 4,-2 4,-4 0,-2 -2,-4 -4,-4zm0 1l0 0c1,0 3,1 3,3 0,2 -2,3 -3,3 -2,0 -3,-1 -3,-3 0,-2 2,-3 3,-3z"/>
   <path class="fil74" d="M513 135c-2,0 -4,2 -4,3 0,2 2,3 4,3 2,0 3,-2 3,-3 0,-2 -2,-3 -3,-3zm0 1l0 0c1,0 2,1 2,2 0,1 -1,2 -2,2 -2,0 -3,-1 -3,-2 0,-1 1,-2 3,-2z"/>
   <path class="fil80" d="M513 136c-2,0 -3,1 -3,3 0,2 2,3 3,3 1,0 3,-1 3,-3 0,-2 -2,-3 -3,-3zm0 1l0 0c1,0 2,0 2,2 0,1 -1,2 -2,2 -1,0 -2,-1 -2,-2 0,-1 1,-2 2,-2z"/>
   <path class="fil86" d="M513 136c-2,0 -3,1 -3,2 0,1 1,2 3,2 1,0 2,-1 2,-2 0,-1 -1,-2 -2,-2zm0 1l0 0c1,0 1,1 1,1 0,1 -1,1 -1,1 -1,0 -1,-1 -1,-1 0,-1 0,-1 1,-1z"/>
   <path class="fil91" d="M513 137c1,0 2,0 2,2 0,1 -1,2 -2,2 -1,0 -2,-1 -2,-2 0,-1 1,-2 2,-2z"/>
   <path class="fil96" d="M513 137c1,0 1,1 1,1 0,1 -1,1 -1,1 -1,0 -1,-1 -1,-1 0,-1 0,-1 1,-1z"/>
   <path class="fil8" d="M513 138c0,0 1,0 1,1 0,1 -1,1 -1,1 -1,0 -1,0 -1,-1 0,-1 0,-1 1,-1z"/>
   <path class="fil9" d="M514 132c-3,0 -6,3 -6,6 0,3 3,6 6,6 3,0 5,-3 5,-6 0,-3 -3,-6 -5,-6zm0 2l0 0c2,0 4,2 4,4 0,3 -2,5 -4,5 -3,0 -5,-2 -5,-5 0,-3 2,-4 5,-4z"/>
   <path class="fil114" d="M514 133c-3,0 -5,3 -5,5 0,3 2,5 5,5 3,0 5,-3 5,-5 0,-3 -2,-5 -5,-5zm0 2l0 0c2,0 4,2 4,4 0,2 -2,4 -4,4 -3,0 -4,-2 -4,-4 0,-2 2,-4 4,-4z"/>
   <path class="fil31" d="M514 134c-3,0 -5,2 -5,4 0,3 2,5 5,5 2,0 4,-2 4,-5 0,-3 -2,-4 -4,-4zm0 1l0 0c2,0 3,2 3,3 0,2 -2,3 -3,3 -2,0 -4,-1 -4,-3 0,-2 2,-3 4,-3z"/>
   <path class="fil41" d="M514 134c-3,0 -4,2 -4,4 0,2 2,4 4,4 2,0 4,-2 4,-4 0,-2 -2,-4 -4,-4zm0 1l0 0c1,0 3,1 3,3 0,2 -2,3 -3,3 -2,0 -3,-1 -3,-3 0,-2 2,-3 3,-3z"/>
   <path class="fil115" d="M514 135c-2,0 -4,2 -4,3 0,2 2,3 4,3 2,0 3,-1 3,-3 0,-2 -2,-3 -3,-3zm0 1l0 0c1,0 2,1 2,2 0,1 -1,2 -2,2 -2,0 -3,-1 -3,-2 0,-1 1,-2 3,-2z"/>
   <path class="fil116" d="M514 136c-2,0 -3,1 -3,3 0,2 2,3 3,3 1,0 3,-1 3,-3 0,-2 -2,-3 -3,-3zm0 1l0 0c1,0 2,1 2,2 0,1 -1,2 -2,2 -1,0 -2,-1 -2,-2 0,-1 1,-2 2,-2z"/>
   <path class="fil72" d="M514 136c-2,0 -3,1 -3,2 0,1 1,2 3,2 1,0 2,-1 2,-2 0,-1 -1,-2 -2,-2zm0 1l0 0c1,0 1,0 1,1 0,1 0,1 -1,1 -1,0 -2,-1 -2,-1 0,-1 1,-1 2,-1z"/>
   <path class="fil82" d="M514 137c1,0 2,1 2,2 0,1 -1,2 -2,2 -1,0 -2,-1 -2,-2 0,-1 1,-2 2,-2z"/>
   <path class="fil117" d="M514 137c1,0 1,0 1,1 0,1 0,1 -1,1 -1,0 -2,-1 -2,-1 0,-1 1,-1 2,-1z"/>
   <path class="fil8" d="M514 138c0,0 1,0 1,1 0,1 -1,1 -1,1 -1,0 -1,0 -1,-1 0,-1 1,-1 1,-1z"/>
   <polygon class="fil6" points="2284,240 2255,240 2255,256 2263,256 2179,377 2189,377 2274,256 2284,256 "/>
   <polygon class="fil118" points="2284,427 2179,427 2179,669 2284,669 "/>
   <polygon class="fil119" points="2209,427 2179,427 2179,669 2209,669 "/>
   <polygon class="fil119" points="2284,427 2254,427 2254,669 2284,669 "/>
   <polygon class="fil120" points="2555,981 2251,981 2251,1015 2555,1015 "/>
   <polygon class="fil120" points="2566,93 2274,93 2274,124 2566,124 "/>
   <polygon class="fil120" points="2535,171 2571,171 2571,93 2535,93 "/>
   <path class="fil5" d="M2555 1013c11,-170 16,-335 16,-494l0 -361 -37 0 0 361c0,160 -6,326 -16,497 12,-2 25,-3 37,-3z"/>
   <path class="fil7" d="M314 159c-32,0 -59,-24 -59,-54 0,-29 27,-53 59,-53 32,0 59,24 59,53 0,29 -27,54 -59,54z"/>
   <path class="fil7" d="M316 122c3,-1 3,-3 3,-6 -1,-2 -3,-3 -5,-2 -4,2 -3,10 3,8z"/>
   <path class="fil7" d="M314 154c-23,0 -42,-17 -42,-38 0,-21 19,-38 42,-38 24,0 42,17 42,38 0,21 -18,38 -42,38z"/>
   <path class="fil7" d="M314 124c-2,0 -4,-3 -4,-5 0,-3 2,-5 4,-5 3,0 5,2 5,5 0,2 -3,5 -5,5z"/>
   <path class="fil7" d="M316 67c3,-1 3,-3 3,-5 -1,-2 -3,-3 -5,-3 -4,1 -3,10 3,8z"/>
   <path class="fil7" d="M314 73c-4,0 -8,-4 -8,-8 0,-4 3,-8 8,-8 4,0 8,4 8,8 0,4 -3,8 -8,8z"/>
   <path class="fil7" d="M314 70c-2,0 -4,-2 -4,-5 0,-3 2,-5 4,-5 3,0 5,3 5,5 0,3 -3,5 -5,5z"/>
   <path class="fil8" d="M314 159c-32,0 -59,-22 -59,-50 0,-28 27,-50 59,-50 32,0 59,22 59,50 0,28 -27,50 -59,50z"/>
   <path class="fil8" d="M316 124c3,-1 3,-3 3,-5 -1,-1 -3,-3 -5,-2 -4,1 -3,9 3,7z"/>
   <path class="fil9" d="M314 63c-30,0 -55,25 -55,55 0,31 25,55 55,55 31,0 55,-25 55,-55 0,-31 -25,-55 -55,-55zm0 1l0 0c30,0 54,24 54,54 0,30 -24,54 -54,54 -30,0 -54,-24 -54,-54 0,-30 24,-54 54,-54z"/>
   <path class="fil10" d="M314 63c-30,0 -55,24 -55,55 0,30 25,55 55,55 31,0 55,-25 55,-55 0,-31 -24,-55 -55,-55zm0 1l0 0c30,0 54,24 54,53 0,29 -24,54 -54,54 -29,0 -53,-24 -53,-54 0,-29 24,-53 53,-53z"/>
   <path class="fil11" d="M314 64c-30,0 -54,24 -54,54 0,30 24,54 54,54 30,0 54,-24 54,-54 0,-30 -24,-54 -54,-54zm0 1l0 0c29,0 53,24 53,53 0,29 -24,53 -53,53 -29,0 -53,-24 -53,-53 0,-29 24,-53 53,-53z"/>
   <path class="fil121" d="M314 65c-29,0 -53,24 -53,53 0,29 24,54 53,54 30,0 54,-24 54,-54 0,-29 -24,-53 -54,-53zm0 1l0 0c29,0 52,24 52,52 0,29 -24,52 -52,52 -29,0 -52,-24 -52,-52 0,-29 24,-52 52,-52z"/>
   <path class="fil122" d="M314 65c-29,0 -53,24 -53,53 0,29 24,53 53,53 29,0 53,-24 53,-53 0,-29 -24,-53 -53,-53zm0 1l0 0c29,0 52,23 52,52 0,29 -23,52 -52,52 -29,0 -52,-23 -52,-52 0,-29 23,-52 52,-52z"/>
   <path class="fil14" d="M314 66c-29,0 -52,24 -52,52 0,29 24,52 52,52 29,0 52,-24 52,-52 0,-29 -24,-52 -52,-52zm0 1l0 0c28,0 51,23 51,51 0,28 -23,51 -51,51 -28,0 -51,-23 -51,-51 0,-28 23,-51 51,-51z"/>
   <path class="fil123" d="M314 66c-29,0 -52,23 -52,52 0,29 23,52 52,52 29,0 52,-23 52,-52 0,-29 -23,-52 -52,-52zm0 1l0 0c28,0 50,22 50,50 0,28 -22,50 -50,50 -27,0 -50,-22 -50,-50 0,-28 23,-50 50,-50z"/>
   <path class="fil17" d="M314 67c-28,0 -51,23 -51,51 0,28 23,51 51,51 28,0 51,-23 51,-51 0,-28 -23,-51 -51,-51zm0 1l0 0c27,0 50,22 50,50 0,27 -22,50 -50,50 -27,0 -50,-22 -50,-50 0,-27 22,-50 50,-50z"/>
   <path class="fil124" d="M314 68c-27,0 -50,22 -50,50 0,28 23,50 50,50 28,0 50,-22 50,-50 0,-28 -22,-50 -50,-50zm0 1l0 0c27,0 49,22 49,49 0,27 -22,49 -49,49 -27,0 -49,-22 -49,-49 0,-27 22,-49 49,-49z"/>
   <path class="fil19" d="M314 68c-27,0 -50,22 -50,50 0,27 22,50 50,50 27,0 50,-22 50,-50 0,-27 -22,-50 -50,-50zm0 1l0 0c27,0 48,22 48,48 0,27 -22,48 -48,48 -27,0 -48,-22 -48,-48 0,-27 22,-48 48,-48z"/>
   <path class="fil20" d="M314 69c-27,0 -49,22 -49,49 0,27 22,49 49,49 27,0 49,-22 49,-49 0,-27 -22,-49 -49,-49zm0 1l0 0c27,0 48,22 48,48 0,26 -21,48 -48,48 -26,0 -48,-22 -48,-48 0,-26 22,-48 48,-48z"/>
   <path class="fil125" d="M314 70c-27,0 -48,22 -48,48 0,27 22,48 48,48 27,0 48,-22 48,-48 0,-27 -22,-48 -48,-48zm0 1l0 0c26,0 47,21 47,47 0,26 -21,47 -47,47 -26,0 -47,-21 -47,-47 0,-26 21,-47 47,-47z"/>
   <path class="fil126" d="M314 70c-26,0 -48,22 -48,48 0,26 22,48 48,48 27,0 48,-22 48,-48 0,-26 -21,-48 -48,-48zm0 1l0 0c25,0 47,21 47,46 0,25 -21,46 -47,46 -25,0 -47,-21 -47,-46 0,-25 21,-46 47,-46z"/>
   <path class="fil23" d="M314 71c-26,0 -47,21 -47,47 0,26 21,47 47,47 26,0 47,-21 47,-47 0,-26 -21,-47 -47,-47zm0 1l0 0c25,0 46,20 46,46 0,25 -20,46 -46,46 -25,0 -46,-20 -46,-46 0,-25 20,-46 46,-46z"/>
   <path class="fil25" d="M314 72c-25,0 -47,21 -47,46 0,25 21,46 47,46 25,0 47,-21 47,-46 0,-25 -21,-46 -47,-46zm0 1l0 0c25,0 45,20 45,45 0,25 -20,45 -45,45 -25,0 -45,-20 -45,-45 0,-25 20,-45 45,-45z"/>
   <path class="fil26" d="M314 72c-25,0 -46,20 -46,46 0,25 20,46 46,46 25,0 46,-20 46,-46 0,-25 -20,-46 -46,-46zm0 1l0 0c25,0 45,20 45,45 0,25 -20,45 -45,45 -24,0 -45,-20 -45,-45 0,-25 20,-45 45,-45z"/>
   <path class="fil127" d="M314 73c-25,0 -45,20 -45,45 0,25 20,45 45,45 25,0 45,-20 45,-45 0,-25 -20,-45 -45,-45zm0 1l0 0c24,0 44,20 44,44 0,24 -20,44 -44,44 -24,0 -44,-20 -44,-44 0,-24 20,-44 44,-44z"/>
   <path class="fil28" d="M314 73c-24,0 -45,20 -45,45 0,25 20,45 45,45 25,0 45,-20 45,-45 0,-25 -20,-45 -45,-45zm0 1l0 0c24,0 43,19 43,43 0,24 -19,43 -43,43 -24,0 -43,-20 -43,-43 0,-24 20,-43 43,-43z"/>
   <path class="fil29" d="M314 74c-24,0 -44,20 -44,44 0,24 20,44 44,44 24,0 44,-20 44,-44 0,-24 -20,-44 -44,-44zm0 1l0 0c24,0 43,19 43,43 0,24 -19,43 -43,43 -24,0 -43,-19 -43,-43 0,-23 19,-43 43,-43z"/>
   <path class="fil31" d="M314 75c-24,0 -43,19 -43,43 0,24 20,43 43,43 24,0 43,-20 43,-43 0,-24 -19,-43 -43,-43zm0 1l0 0c24,0 42,19 42,42 0,23 -18,42 -42,42 -23,0 -42,-19 -42,-42 0,-23 19,-42 42,-42z"/>
   <path class="fil32" d="M314 75c-24,0 -43,19 -43,43 0,24 19,43 43,43 24,0 43,-19 43,-43 0,-23 -19,-43 -43,-43zm0 1l0 0c23,0 41,18 41,41 0,23 -18,41 -41,41 -23,0 -41,-18 -41,-41 0,-23 19,-41 41,-41z"/>
   <path class="fil128" d="M314 76c-23,0 -42,19 -42,42 0,23 19,42 42,42 24,0 42,-19 42,-42 0,-23 -18,-42 -42,-42zm0 1l0 0c23,0 41,18 41,41 0,22 -18,41 -41,41 -22,0 -41,-18 -41,-41 0,-22 19,-41 41,-41z"/>
   <path class="fil129" d="M314 77c-23,0 -41,18 -41,41 0,23 19,41 41,41 23,0 41,-18 41,-41 0,-23 -18,-41 -41,-41zm0 1l0 0c22,0 40,18 40,40 0,22 -18,40 -40,40 -22,0 -40,-18 -40,-40 0,-22 18,-40 40,-40z"/>
   <path class="fil35" d="M314 77c-22,0 -41,18 -41,41 0,22 19,41 41,41 23,0 41,-18 41,-41 0,-22 -18,-41 -41,-41zm0 1l0 0c22,0 39,18 39,40 0,22 -18,40 -39,40 -22,0 -39,-18 -39,-40 0,-22 18,-40 39,-40z"/>
   <path class="fil36" d="M314 78c-22,0 -40,18 -40,40 0,22 18,40 40,40 22,0 40,-18 40,-40 0,-22 -18,-40 -40,-40zm0 1l0 0c22,0 39,17 39,39 0,22 -17,39 -39,39 -21,0 -39,-17 -39,-39 0,-22 18,-39 39,-39z"/>
   <path class="fil130" d="M314 78c-22,0 -39,18 -39,40 0,22 18,40 39,40 22,0 39,-18 39,-40 0,-22 -18,-40 -39,-40zm0 1l0 0c21,0 38,17 38,38 0,21 -17,38 -38,38 -21,0 -38,-17 -38,-38 0,-21 17,-38 38,-38z"/>
   <path class="fil38" d="M314 79c-21,0 -39,17 -39,39 0,22 18,39 39,39 22,0 39,-17 39,-39 0,-22 -17,-39 -39,-39zm0 1l0 0c21,0 38,17 38,38 0,20 -17,38 -38,38 -20,0 -38,-17 -38,-38 0,-21 17,-38 38,-38z"/>
   <path class="fil39" d="M314 80c-21,0 -38,17 -38,38 0,21 17,38 38,38 21,0 38,-17 38,-38 0,-21 -17,-38 -38,-38zm0 1l0 0c20,0 37,16 37,37 0,20 -17,37 -37,37 -20,0 -37,-17 -37,-37 0,-20 17,-37 37,-37z"/>
   <path class="fil40" d="M314 80c-20,0 -38,17 -38,38 0,20 17,38 38,38 21,0 38,-17 38,-38 0,-21 -17,-38 -38,-38zm0 1l0 0c20,0 36,16 36,36 0,20 -16,36 -36,36 -20,0 -36,-17 -36,-36 0,-20 17,-36 36,-36z"/>
   <path class="fil41" d="M314 81c-20,0 -37,16 -37,37 0,20 17,37 37,37 20,0 37,-17 37,-37 0,-20 -17,-37 -37,-37zm0 1l0 0c20,0 36,16 36,36 0,20 -16,36 -36,36 -20,0 -36,-16 -36,-36 0,-20 16,-36 36,-36z"/>
   <path class="fil131" d="M314 82c-20,0 -36,16 -36,36 0,20 17,36 36,36 20,0 36,-17 36,-36 0,-20 -16,-36 -36,-36zm0 1l0 0c20,0 35,16 35,35 0,19 -15,35 -35,35 -19,0 -35,-16 -35,-35 0,-19 16,-35 35,-35z"/>
   <path class="fil132" d="M314 82c-20,0 -36,16 -36,36 0,20 16,36 36,36 20,0 36,-16 36,-36 0,-20 -16,-36 -36,-36zm0 1l0 0c19,0 34,15 34,34 0,19 -15,34 -34,34 -19,0 -34,-15 -34,-34 0,-19 15,-34 34,-34z"/>
   <path class="fil44" d="M314 83c-19,0 -35,16 -35,35 0,19 16,35 35,35 20,0 35,-16 35,-35 0,-19 -15,-35 -35,-35zm0 1l0 0c18,0 34,15 34,34 0,18 -15,34 -34,34 -18,0 -34,-15 -34,-34 0,-18 15,-34 34,-34z"/>
   <path class="fil45" d="M314 84c-19,0 -34,15 -34,34 0,19 15,34 34,34 19,0 34,-15 34,-34 0,-19 -15,-34 -34,-34zm0 1l0 0c18,0 33,15 33,33 0,18 -15,33 -33,33 -18,0 -33,-15 -33,-33 0,-18 15,-33 33,-33z"/>
   <path class="fil46" d="M314 84c-18,0 -34,15 -34,34 0,18 15,34 34,34 18,0 34,-15 34,-34 0,-18 -15,-34 -34,-34zm0 1l0 0c18,0 32,15 32,33 0,18 -15,33 -32,33 -18,0 -32,-15 -32,-33 0,-18 15,-33 32,-33z"/>
   <path class="fil103" d="M314 85c-18,0 -33,15 -33,33 0,18 15,33 33,33 18,0 33,-15 33,-33 0,-18 -15,-33 -33,-33zm0 1l0 0c18,0 32,14 32,32 0,18 -14,32 -32,32 -17,0 -32,-14 -32,-32 0,-18 15,-32 32,-32z"/>
   <path class="fil133" d="M314 85c-18,0 -32,15 -32,33 0,18 15,33 32,33 18,0 32,-15 32,-33 0,-18 -15,-33 -32,-33zm0 1l0 0c17,0 31,14 31,31 0,17 -14,31 -31,31 -17,0 -31,-14 -31,-31 0,-17 14,-31 31,-31z"/>
   <path class="fil49" d="M314 86c-17,0 -32,14 -32,32 0,18 15,32 32,32 18,0 32,-14 32,-32 0,-18 -14,-32 -32,-32zm0 1l0 0c17,0 31,13 31,31 0,17 -13,31 -31,31 -17,0 -30,-14 -30,-31 0,-17 14,-31 30,-31z"/>
   <path class="fil134" d="M314 87c-17,0 -31,14 -31,31 0,17 14,31 31,31 17,0 31,-14 31,-31 0,-17 -14,-31 -31,-31zm0 1l0 0c17,0 30,13 30,30 0,17 -13,30 -30,30 -17,0 -30,-13 -30,-30 0,-16 13,-30 30,-30z"/>
   <path class="fil135" d="M314 87c-17,0 -30,13 -30,31 0,17 14,31 30,31 17,0 31,-14 31,-31 0,-17 -13,-31 -31,-31zm0 1l0 0c17,0 29,13 29,29 0,16 -13,29 -29,29 -16,0 -29,-13 -29,-29 0,-16 13,-29 29,-29z"/>
   <path class="fil53" d="M314 88c-17,0 -30,14 -30,30 0,17 13,30 30,30 17,0 30,-13 30,-30 0,-16 -13,-30 -30,-30zm0 1l0 0c16,0 29,13 29,29 0,16 -13,29 -29,29 -16,0 -29,-13 -29,-29 0,-16 13,-29 29,-29z"/>
   <path class="fil53" d="M314 89c-16,0 -29,13 -29,29 0,16 13,29 29,29 17,0 29,-13 29,-29 0,-16 -13,-29 -29,-29zm0 1l0 0c15,0 28,13 28,28 0,15 -13,28 -28,28 -15,0 -28,-13 -28,-28 0,-15 13,-28 28,-28z"/>
   <path class="fil55" d="M314 89c-16,0 -29,13 -29,29 0,16 13,29 29,29 16,0 29,-13 29,-29 0,-16 -13,-29 -29,-29zm0 1l0 0c15,0 27,12 27,27 0,15 -12,27 -27,27 -15,0 -27,-12 -27,-27 0,-15 12,-27 27,-27z"/>
   <path class="fil56" d="M314 90c-15,0 -28,13 -28,28 0,15 13,28 28,28 15,0 28,-13 28,-28 0,-15 -13,-28 -28,-28zm0 1l0 0c15,0 27,12 27,27 0,15 -12,27 -27,27 -15,0 -27,-12 -27,-27 0,-15 12,-27 27,-27z"/>
   <path class="fil57" d="M314 91c-15,0 -27,12 -27,27 0,15 12,27 27,27 15,0 27,-12 27,-27 0,-15 -12,-27 -27,-27zm0 1l0 0c15,0 26,11 26,26 0,15 -11,26 -26,26 -14,0 -26,-11 -26,-26 0,-15 12,-26 26,-26z"/>
   <path class="fil136" d="M314 91c-15,0 -27,12 -27,27 0,15 12,27 27,27 15,0 27,-12 27,-27 0,-15 -12,-27 -27,-27zm0 1l0 0c14,0 25,11 25,25 0,14 -11,25 -25,25 -14,0 -25,-11 -25,-25 0,-14 11,-25 25,-25z"/>
   <path class="fil137" d="M314 92c-14,0 -26,11 -26,26 0,15 12,26 26,26 15,0 26,-11 26,-26 0,-15 -11,-26 -26,-26zm0 1l0 0c14,0 25,11 25,25 0,13 -11,25 -25,25 -13,0 -25,-12 -25,-25 0,-14 11,-25 25,-25z"/>
   <path class="fil138" d="M314 93c-14,0 -25,11 -25,25 0,14 11,25 25,25 14,0 25,-11 25,-25 0,-14 -11,-25 -25,-25zm0 1l0 0c13,0 24,11 24,24 0,13 -11,24 -24,24 -13,0 -24,-11 -24,-24 0,-13 11,-24 24,-24z"/>
   <path class="fil139" d="M314 93c-13,0 -25,11 -25,25 0,13 11,25 25,25 14,0 25,-12 25,-25 0,-14 -11,-25 -25,-25zm0 1l0 0c13,0 24,10 24,23 0,13 -10,24 -24,24 -13,0 -24,-11 -24,-24 0,-13 11,-23 24,-23z"/>
   <path class="fil63" d="M314 94c-13,0 -24,11 -24,24 0,13 11,24 24,24 13,0 24,-11 24,-24 0,-13 -11,-24 -24,-24zm0 1l0 0c13,0 23,10 23,23 0,13 -10,23 -23,23 -13,0 -23,-10 -23,-23 0,-13 10,-23 23,-23z"/>
   <path class="fil64" d="M314 94c-13,0 -24,10 -24,23 0,13 11,24 24,24 13,0 24,-11 24,-24 0,-13 -10,-23 -24,-23zm0 1l0 0c13,0 22,10 22,22 0,12 -10,22 -22,22 -12,0 -22,-10 -22,-22 0,-12 10,-22 22,-22z"/>
   <path class="fil64" d="M314 95c-13,0 -23,10 -23,23 0,13 10,23 23,23 13,0 23,-10 23,-23 0,-13 -10,-23 -23,-23zm0 1l0 0c12,0 22,9 22,22 0,12 -10,22 -22,22 -12,0 -22,-9 -22,-22 0,-12 10,-22 22,-22z"/>
   <path class="fil66" d="M314 96c-12,0 -22,10 -22,22 0,12 10,22 22,22 13,0 22,-10 22,-22 0,-12 -10,-22 -22,-22zm0 1l0 0c11,0 21,10 21,21 0,11 -10,21 -21,21 -12,0 -21,-10 -21,-21 0,-11 10,-21 21,-21z"/>
   <path class="fil140" d="M314 96c-12,0 -22,9 -22,22 0,12 10,22 22,22 12,0 22,-9 22,-22 0,-12 -10,-22 -22,-22zm0 1l0 0c11,0 20,9 20,20 0,11 -9,20 -20,20 -11,0 -20,-9 -20,-20 0,-11 10,-20 20,-20z"/>
   <path class="fil141" d="M314 97c-12,0 -21,10 -21,21 0,11 10,21 21,21 11,0 21,-10 21,-21 0,-11 -10,-21 -21,-21zm0 1l0 0c11,0 20,9 20,20 0,11 -9,20 -20,20 -11,0 -20,-9 -20,-20 0,-11 9,-20 20,-20z"/>
   <path class="fil142" d="M314 98c-11,0 -20,9 -20,20 0,11 10,20 20,20 11,0 20,-9 20,-20 0,-11 -9,-20 -20,-20zm0 1l0 0c11,0 19,8 19,19 0,10 -8,19 -19,19 -10,0 -19,-9 -19,-19 0,-11 9,-19 19,-19z"/>
   <path class="fil143" d="M314 98c-11,0 -20,9 -20,20 0,11 9,20 20,20 11,0 20,-9 20,-20 0,-11 -9,-20 -20,-20zm0 1l0 0c10,0 18,8 18,18 0,10 -8,18 -18,18 -10,0 -18,-8 -18,-18 0,-10 8,-18 18,-18z"/>
   <path class="fil144" d="M314 99c-10,0 -19,8 -19,19 0,10 9,19 19,19 11,0 19,-9 19,-19 0,-11 -8,-19 -19,-19zm0 1l0 0c10,0 18,8 18,18 0,10 -8,18 -18,18 -10,0 -18,-8 -18,-18 0,-10 8,-18 18,-18z"/>
   <path class="fil145" d="M314 100c-10,0 -18,8 -18,18 0,10 8,18 18,18 10,0 18,-8 18,-18 0,-10 -8,-18 -18,-18zm0 1l0 0c10,0 17,8 17,17 0,10 -8,17 -17,17 -10,0 -17,-8 -17,-17 0,-9 8,-17 17,-17z"/>
   <path class="fil146" d="M314 100c-10,0 -18,8 -18,18 0,10 8,18 18,18 10,0 18,-8 18,-18 0,-10 -8,-18 -18,-18zm0 1l0 0c10,0 17,8 17,16 0,9 -7,17 -17,17 -9,0 -17,-8 -17,-17 0,-9 8,-16 17,-16z"/>
   <path class="fil75" d="M314 101c-10,0 -17,8 -17,17 0,10 8,17 17,17 10,0 17,-8 17,-17 0,-9 -8,-17 -17,-17zm0 1l0 0c9,0 16,7 16,16 0,9 -7,16 -16,16 -9,0 -16,-7 -16,-16 0,-9 7,-16 16,-16z"/>
   <path class="fil147" d="M314 102c-9,0 -17,8 -17,16 0,9 8,17 17,17 10,0 17,-8 17,-17 0,-9 -7,-16 -17,-16zm0 1l0 0c8,0 15,7 15,15 0,8 -7,15 -15,15 -8,0 -15,-7 -15,-15 0,-8 7,-15 15,-15z"/>
   <path class="fil78" d="M314 102c-9,0 -16,7 -16,16 0,9 7,16 16,16 9,0 16,-7 16,-16 0,-9 -7,-16 -16,-16zm0 1l0 0c8,0 15,6 15,15 0,8 -6,15 -15,15 -8,0 -15,-6 -15,-15 0,-8 6,-15 15,-15z"/>
   <path class="fil78" d="M314 103c-8,0 -15,7 -15,15 0,8 7,15 15,15 8,0 15,-7 15,-15 0,-8 -7,-15 -15,-15zm0 1l0 0c8,0 14,6 14,14 0,8 -6,14 -14,14 -8,0 -14,-6 -14,-14 0,-8 6,-14 14,-14z"/>
   <path class="fil148" d="M314 103c-8,0 -15,6 -15,15 0,8 6,15 15,15 8,0 15,-6 15,-15 0,-8 -6,-15 -15,-15zm0 1l0 0c8,0 13,6 13,13 0,7 -6,13 -13,13 -7,0 -13,-6 -13,-13 0,-8 6,-13 13,-13z"/>
   <path class="fil149" d="M314 104c-8,0 -14,6 -14,14 0,8 6,14 14,14 8,0 14,-6 14,-14 0,-8 -6,-14 -14,-14zm0 1l0 0c7,0 13,6 13,13 0,7 -6,13 -13,13 -7,0 -13,-6 -13,-13 0,-7 6,-13 13,-13z"/>
   <path class="fil82" d="M314 105c-7,0 -13,6 -13,13 0,7 6,13 13,13 8,0 13,-6 13,-13 0,-8 -6,-13 -13,-13zm0 1l0 0c7,0 12,5 12,12 0,6 -5,12 -12,12 -6,0 -12,-6 -12,-12 0,-7 6,-12 12,-12z"/>
   <path class="fil82" d="M314 105c-7,0 -13,6 -13,13 0,7 6,13 13,13 7,0 13,-6 13,-13 0,-7 -6,-13 -13,-13zm0 1l0 0c6,0 11,5 11,11 0,6 -5,11 -11,11 -6,0 -12,-5 -12,-11 0,-6 5,-11 12,-11z"/>
   <path class="fil84" d="M314 106c-6,0 -12,5 -12,12 0,6 6,12 12,12 7,0 12,-6 12,-12 0,-7 -5,-12 -12,-12zm0 1l0 0c6,0 11,5 11,11 0,6 -4,11 -11,11 -6,0 -11,-5 -11,-11 0,-6 5,-11 11,-11z"/>
   <path class="fil85" d="M314 107c-6,0 -12,5 -12,11 0,6 5,11 12,11 6,0 11,-5 11,-11 0,-6 -5,-11 -11,-11zm0 1l0 0c6,0 10,4 10,10 0,6 -4,10 -10,10 -6,0 -10,-4 -10,-10 0,-6 4,-10 10,-10z"/>
   <path class="fil150" d="M314 107c-6,0 -11,5 -11,11 0,6 5,11 11,11 6,0 11,-5 11,-11 0,-6 -4,-11 -11,-11zm0 1l0 0c5,0 10,4 10,9 0,5 -4,10 -10,10 -5,0 -10,-4 -10,-10 0,-5 4,-9 10,-9z"/>
   <path class="fil87" d="M314 108c-6,0 -10,4 -10,10 0,6 4,10 10,10 6,0 10,-4 10,-10 0,-6 -4,-10 -10,-10zm0 1l0 0c5,0 9,4 9,9 0,5 -4,9 -9,9 -5,0 -9,-4 -9,-9 0,-5 4,-9 9,-9z"/>
   <path class="fil88" d="M314 109c-5,0 -10,4 -10,9 0,5 4,10 10,10 5,0 10,-4 10,-10 0,-5 -4,-9 -10,-9zm0 1l0 0c4,0 8,4 8,8 0,4 -4,8 -8,8 -4,0 -8,-4 -8,-8 0,-4 4,-8 8,-8z"/>
   <path class="fil89" d="M314 109c-5,0 -9,4 -9,9 0,5 4,9 9,9 5,0 9,-4 9,-9 0,-5 -4,-9 -9,-9zm0 1l0 0c4,0 8,3 8,8 0,4 -3,8 -8,8 -4,0 -8,-3 -8,-8 0,-4 4,-8 8,-8z"/>
   <path class="fil90" d="M314 110c-4,0 -8,4 -8,8 0,4 4,8 8,8 4,0 8,-4 8,-8 0,-4 -4,-8 -8,-8zm0 1l0 0c4,0 7,3 7,7 0,4 -3,7 -7,7 -4,0 -7,-3 -7,-7 0,-4 3,-7 7,-7z"/>
   <path class="fil151" d="M314 110c-4,0 -8,3 -8,8 0,4 4,8 8,8 4,0 8,-3 8,-8 0,-4 -3,-8 -8,-8zm0 1l0 0c4,0 6,3 6,6 0,3 -3,6 -6,6 -3,0 -6,-3 -6,-6 0,-4 3,-6 6,-6z"/>
   <path class="fil91" d="M314 111c-4,0 -7,3 -7,7 0,4 3,7 7,7 4,0 7,-3 7,-7 0,-4 -3,-7 -7,-7zm0 1l0 0c3,0 6,3 6,6 0,3 -3,6 -6,6 -3,0 -6,-3 -6,-6 0,-3 3,-6 6,-6z"/>
   <path class="fil92" d="M314 112c-3,0 -6,3 -6,6 0,3 3,6 6,6 4,0 6,-3 6,-6 0,-4 -3,-6 -6,-6zm0 1l0 0c3,0 5,2 5,5 0,3 -2,5 -5,5 -2,0 -5,-3 -5,-5 0,-3 3,-5 5,-5z"/>
   <path class="fil152" d="M314 112c-3,0 -6,3 -6,6 0,3 3,6 6,6 3,0 6,-3 6,-6 0,-3 -3,-6 -6,-6zm0 1l0 0c3,0 4,2 4,4 0,3 -2,4 -4,4 -2,0 -4,-2 -4,-4 0,-2 2,-4 4,-4z"/>
   <path class="fil94" d="M314 113c-2,0 -5,2 -5,5 0,3 3,5 5,5 3,0 5,-3 5,-5 0,-3 -2,-5 -5,-5zm0 1l0 0c2,0 4,2 4,4 0,2 -2,4 -4,4 -2,0 -4,-2 -4,-4 0,-2 2,-4 4,-4z"/>
   <path class="fil153" d="M314 114c-2,0 -4,2 -4,4 0,3 2,4 4,4 3,0 4,-2 4,-4 0,-2 -2,-4 -4,-4zm0 1l0 0c2,0 3,1 3,3 0,2 -1,3 -3,3 -2,0 -3,-1 -3,-3 0,-2 1,-3 3,-3z"/>
   <path class="fil96" d="M314 114c-2,0 -4,2 -4,4 0,2 2,4 4,4 2,0 4,-2 4,-4 0,-2 -2,-4 -4,-4zm0 1l0 0c1,0 3,1 3,2 0,1 -1,3 -3,3 -1,0 -2,-1 -2,-3 0,-1 1,-2 2,-2z"/>
   <path class="fil154" d="M314 115c-2,0 -3,1 -3,3 0,2 1,3 3,3 2,0 3,-1 3,-3 0,-2 -1,-3 -3,-3zm0 1l0 0c1,0 2,1 2,2 0,1 -1,2 -2,2 -1,0 -2,-1 -2,-2 0,-1 1,-2 2,-2z"/>
   <path class="fil98" d="M314 116c-1,0 -2,1 -2,2 0,1 1,3 2,3 1,0 3,-1 3,-3 0,-1 -1,-2 -3,-2zm0 1l0 0c1,0 1,1 1,1 0,1 -1,1 -1,1 -1,0 -1,-1 -1,-1 0,-1 1,-1 1,-1z"/>
   <path class="fil99" d="M314 116c-1,0 -2,1 -2,2 0,1 1,2 2,2 1,0 2,-1 2,-2 0,-1 -1,-2 -2,-2z"/>
   <path class="fil8" d="M314 117c-1,0 -1,1 -1,1 0,1 1,1 1,1 1,0 1,-1 1,-1 0,-1 -1,-1 -1,-1z"/>
   <path class="fil8" d="M314 117c0,0 -1,0 -1,1l1 1c1,0 1,-1 1,-1 0,-1 0,-1 -1,-1z"/>
   <path class="fil155" d="M314 126c-2,0 -4,-3 -4,-5 0,-3 2,-4 4,-4 3,0 5,2 5,4 0,3 -3,5 -5,5z"/>
   <path class="fil8" d="M316 73c3,-1 3,-3 3,-5 -1,-2 -3,-3 -5,-3 -4,2 -3,9 3,8z"/>
   <path class="fil9" d="M314 59c-6,0 -11,5 -11,11 0,6 5,11 11,11 6,0 11,-4 11,-11 0,-6 -4,-11 -11,-11zm0 1l0 0c6,0 10,4 10,10 0,5 -4,10 -10,10 -5,0 -10,-4 -10,-10 0,-5 4,-10 10,-10z"/>
   <path class="fil15" d="M314 60c-6,0 -10,4 -10,10 0,6 4,10 10,10 6,0 10,-4 10,-10 0,-6 -4,-10 -10,-10zm0 1l0 0c5,0 9,4 9,9 0,5 -4,9 -9,9 -5,0 -9,-4 -9,-9 0,-5 4,-9 9,-9z"/>
   <path class="fil21" d="M314 61c-5,0 -10,4 -10,10 0,5 4,10 10,10 6,0 10,-4 10,-10 0,-5 -4,-10 -10,-10zm0 1l0 0c4,0 8,4 8,8 0,4 -4,8 -8,8 -4,0 -8,-4 -8,-8 0,-4 4,-8 8,-8z"/>
   <path class="fil27" d="M314 61c-5,0 -9,4 -9,9 0,5 4,9 9,9 5,0 9,-4 9,-9 0,-5 -4,-9 -9,-9zm0 1l0 0c4,0 8,3 8,8 0,4 -3,8 -8,8 -4,0 -8,-3 -8,-8 0,-4 3,-8 8,-8z"/>
   <path class="fil33" d="M314 62c-4,0 -8,4 -8,8 0,4 4,8 8,8 4,0 8,-4 8,-8 0,-4 -4,-8 -8,-8zm0 1l0 0c4,0 7,3 7,7 0,4 -3,7 -7,7 -4,0 -7,-3 -7,-7 0,-4 3,-7 7,-7z"/>
   <path class="fil39" d="M314 63c-4,0 -8,3 -8,8 0,4 3,8 8,8 4,0 8,-3 8,-8 0,-4 -3,-8 -8,-8zm0 1l0 0c4,0 6,3 6,6 0,4 -3,6 -6,6 -3,0 -6,-3 -6,-6 0,-3 3,-6 6,-6z"/>
   <path class="fil44" d="M314 63c-4,0 -7,3 -7,7 0,4 3,7 7,7 4,0 7,-3 7,-7 0,-4 -3,-7 -7,-7zm0 1l0 0c3,0 6,3 6,6 0,3 -3,6 -6,6 -3,0 -6,-2 -6,-6 0,-3 3,-6 6,-6z"/>
   <path class="fil50" d="M314 64c-3,0 -6,3 -6,6 0,4 3,6 6,6 4,0 6,-3 6,-6 0,-3 -3,-6 -6,-6zm0 1l0 0c3,0 5,3 5,5 0,3 -2,5 -5,5 -2,0 -5,-2 -5,-5 0,-3 3,-5 5,-5z"/>
   <path class="fil56" d="M314 65c-3,0 -6,3 -6,6 0,3 3,6 6,6 3,0 6,-2 6,-6 0,-3 -3,-6 -6,-6zm0 1l0 0c3,0 4,2 4,4 0,3 -2,4 -4,4 -2,0 -4,-2 -4,-4 0,-3 2,-4 4,-4z"/>
   <path class="fil62" d="M314 65c-2,0 -5,3 -5,5 0,3 3,5 5,5 3,0 5,-2 5,-5 0,-3 -2,-5 -5,-5zm0 1l0 0c3,0 4,2 4,4 0,2 -1,4 -4,4 -2,0 -4,-2 -4,-4 0,-2 2,-4 4,-4z"/>
   <path class="fil68" d="M314 66c-2,0 -4,2 -4,4 0,3 2,4 4,4 3,0 4,-2 4,-4 0,-3 -2,-4 -4,-4zm0 1l0 0c2,0 3,1 3,3 0,2 -1,3 -3,3 -2,0 -3,-1 -3,-3 0,-2 1,-3 3,-3z"/>
   <path class="fil74" d="M314 66c-2,0 -4,2 -4,4 0,2 2,4 4,4 3,0 4,-2 4,-4 0,-2 -1,-4 -4,-4zm0 1l0 0c1,0 3,1 3,3 0,1 -1,3 -3,3 -1,0 -2,-1 -2,-3 0,-1 1,-3 2,-3z"/>
   <path class="fil80" d="M314 67c-2,0 -3,1 -3,3 0,2 1,3 3,3 2,0 3,-1 3,-3 0,-2 -1,-3 -3,-3zm0 1l0 0c1,0 2,1 2,2 0,1 -1,2 -2,2 -1,0 -2,-1 -2,-2 0,-1 1,-2 2,-2z"/>
   <path class="fil86" d="M314 68c-1,0 -2,1 -2,3 0,1 1,2 2,2 1,0 3,-1 3,-2 0,-1 -1,-3 -3,-3zm0 1l0 0c1,0 1,1 1,1 0,1 -1,1 -1,1 -1,0 -1,-1 -1,-1 0,-1 1,-1 1,-1z"/>
   <path class="fil91" d="M314 68c-1,0 -2,1 -2,2 0,1 1,2 2,2 1,0 2,-1 2,-2 0,-1 -1,-2 -2,-2z"/>
   <path class="fil96" d="M314 69c-1,0 -1,1 -1,1 0,1 1,1 1,1 1,0 1,-1 1,-1 0,-1 -1,-1 -1,-1z"/>
   <path class="fil8" d="M314 70l-1 1c0,1 1,1 1,1 1,0 1,0 1,-1 0,0 0,-1 -1,-1z"/>
   <path class="fil9" d="M314 63c-4,0 -6,3 -6,7 0,4 2,7 6,7 4,0 7,-3 7,-7 0,-4 -3,-7 -7,-7zm0 2l0 0c3,0 6,2 6,5 0,3 -3,6 -6,6 -2,0 -5,-2 -5,-6 0,-3 3,-5 5,-5z"/>
   <path class="fil114" d="M314 65c-3,0 -6,3 -6,6 0,3 3,6 6,6 3,0 6,-3 6,-6 0,-3 -3,-6 -6,-6zm0 1l0 0c3,0 5,2 5,4 0,3 -3,5 -5,5 -2,0 -4,-3 -4,-5 0,-3 2,-4 4,-4z"/>
   <path class="fil31" d="M314 65c-2,0 -5,2 -5,5 0,3 3,6 5,6 3,0 6,-3 6,-6 0,-3 -3,-5 -6,-5zm0 1l0 0c3,0 4,2 4,4 0,3 -2,4 -4,4 -2,0 -4,-1 -4,-4 0,-2 2,-4 4,-4z"/>
   <path class="fil41" d="M314 66c-2,0 -4,2 -4,4 0,3 2,5 4,5 3,0 5,-3 5,-5 0,-3 -3,-4 -5,-4zm0 1l0 0c2,0 3,1 3,3 0,2 -1,3 -3,3 -2,0 -3,-1 -3,-3 0,-2 1,-3 3,-3z"/>
   <path class="fil115" d="M314 66c-2,0 -4,2 -4,4 0,3 2,4 4,4 3,0 4,-1 4,-4 0,-2 -2,-4 -4,-4zm0 1l0 0c2,0 3,1 3,3 0,1 -1,3 -3,3 -1,0 -2,-1 -2,-3 0,-1 1,-3 2,-3z"/>
   <path class="fil116" d="M314 67c-2,0 -3,1 -3,3 0,2 1,3 3,3 2,0 3,-1 3,-3 0,-2 -1,-3 -3,-3zm0 1l0 0c1,0 2,1 2,2 0,1 -1,2 -2,2 -1,0 -2,-1 -2,-2 0,-1 1,-2 2,-2z"/>
   <path class="fil72" d="M314 68c-1,0 -2,1 -2,3 0,1 1,2 2,2 2,0 3,-1 3,-2 0,-1 -1,-3 -3,-3zm0 1l0 0c1,0 1,1 1,1 0,1 -1,1 -1,1 -1,0 -1,-1 -1,-1 0,-1 1,-1 1,-1z"/>
   <path class="fil82" d="M314 68c-1,0 -2,1 -2,2 0,1 1,2 2,2 1,0 2,-1 2,-2 0,-1 -1,-2 -2,-2z"/>
   <path class="fil117" d="M314 69c-1,0 -1,1 -1,1 0,1 1,1 1,1 1,0 1,-1 1,-1 0,-1 -1,-1 -1,-1z"/>
   <path class="fil8" d="M314 70l-1 1c0,1 1,1 1,1 1,0 1,0 1,-1 0,0 0,-1 -1,-1z"/>
   <path class="fil8" d="M244 361l0 -199c0,-54 -44,-98 -98,-98 -54,0 -98,44 -98,98l0 199c0,54 44,98 98,98 54,0 98,-44 98,-98z"/>
   <path class="fil156" d="M157 144c0,-5 -4,-10 -10,-10 -5,0 -10,4 -10,10 0,5 4,10 10,10 5,0 10,-4 10,-10z"/>
   <path class="fil156" d="M882 111c-44,0 -79,36 -79,79 0,44 36,79 79,79 44,0 79,-36 79,-79 0,-44 -36,-79 -79,-79z"/>
   <path class="fil156" d="M882 116c-41,0 -75,34 -75,75 0,41 34,75 75,75 41,0 75,-34 75,-75 0,-41 -34,-75 -75,-75z"/>
   <path class="fil156" d="M882 120c-39,0 -71,32 -71,71 0,39 32,71 71,71 39,0 71,-32 71,-71 0,-39 -32,-71 -71,-71z"/>
   <path class="fil8" d="M882 121c-38,0 -70,31 -70,70 0,39 31,70 70,70 38,0 70,-31 70,-70 0,-38 -31,-70 -70,-70z"/>
   <path class="fil157" d="M882 122c-38,0 -69,31 -69,69 0,38 31,69 69,69 38,0 69,-31 69,-69 0,-38 -31,-69 -69,-69z"/>
   <path class="fil158" d="M882 123c-37,0 -68,30 -68,68 0,37 30,68 68,68 37,0 68,-30 68,-68 0,-37 -30,-68 -68,-68z"/>
   <path class="fil159" d="M882 124c-37,0 -67,30 -67,67 0,37 30,67 67,67 37,0 67,-30 67,-67 0,-37 -30,-67 -67,-67z"/>
   <path class="fil98" d="M882 125c-36,0 -66,29 -66,66 0,36 29,66 66,66 36,0 66,-29 66,-66 0,-36 -29,-66 -66,-66z"/>
   <path class="fil154" d="M882 126c-36,0 -65,29 -65,65 0,36 29,65 65,65 36,0 65,-29 65,-65 0,-36 -29,-65 -65,-65z"/>
   <path class="fil97" d="M882 127c-35,0 -64,29 -64,64 0,35 29,64 64,64 35,0 64,-29 64,-64 0,-35 -29,-64 -64,-64z"/>
   <path class="fil160" d="M882 128c-35,0 -63,28 -63,63 0,35 28,63 63,63 35,0 63,-28 63,-63 0,-35 -28,-63 -63,-63z"/>
   <path class="fil161" d="M882 129c-34,0 -62,28 -62,62 0,34 28,62 62,62 34,0 62,-28 62,-62 0,-34 -28,-62 -62,-62z"/>
   <path class="fil162" d="M882 130c-34,0 -61,27 -61,61 0,34 27,61 61,61 34,0 61,-27 61,-61 0,-34 -27,-61 -61,-61z"/>
   <path class="fil152" d="M882 131c-33,0 -60,27 -60,60 0,33 27,60 60,60 33,0 60,-27 60,-60 0,-33 -27,-60 -60,-60z"/>
   <path class="fil163" d="M882 132c-33,0 -59,26 -59,59 0,33 26,59 59,59 33,0 59,-26 59,-59 0,-32 -26,-59 -59,-59z"/>
   <path class="fil93" d="M882 133c-32,0 -58,26 -58,58 0,32 26,58 58,58 32,0 58,-26 58,-58 0,-32 -26,-58 -58,-58z"/>
   <path class="fil164" d="M882 134c-31,0 -57,26 -57,57 0,31 25,57 57,57 31,0 57,-26 57,-57 0,-31 -25,-57 -57,-57z"/>
   <path class="fil165" d="M882 135c-31,0 -56,25 -56,56 0,31 25,56 56,56 31,0 56,-25 56,-56 0,-31 -25,-56 -56,-56z"/>
   <path class="fil166" d="M882 136c-30,0 -55,25 -55,55 0,30 25,55 55,55 30,0 55,-25 55,-55 0,-30 -25,-55 -55,-55z"/>
   <path class="fil167" d="M882 137c-30,0 -54,24 -54,54 0,30 24,54 54,54 30,0 54,-24 54,-54 0,-30 -24,-54 -54,-54z"/>
   <path class="fil168" d="M882 138c-29,0 -53,24 -53,53 0,29 24,53 53,53 29,0 53,-24 53,-53 0,-29 -24,-53 -53,-53z"/>
   <path class="fil169" d="M882 139c-29,0 -52,23 -52,52 0,29 23,52 52,52 29,0 52,-23 52,-52 0,-29 -23,-52 -52,-52z"/>
   <path class="fil90" d="M882 140c-28,0 -51,23 -51,51 0,28 23,51 51,51 28,0 51,-23 51,-51 0,-28 -23,-51 -51,-51z"/>
   <path class="fil170" d="M882 140c-28,0 -50,22 -50,50 0,28 22,50 50,50 28,0 50,-22 50,-50 0,-28 -22,-50 -50,-50z"/>
   <path class="fil171" d="M882 142c-27,0 -49,22 -49,49 0,27 22,49 49,49 27,0 49,-22 49,-49 0,-27 -22,-49 -49,-49z"/>
   <path class="fil172" d="M882 142c-27,0 -48,22 -48,48 0,27 22,48 48,48 27,0 48,-22 48,-48 0,-27 -22,-48 -48,-48z"/>
   <path class="fil173" d="M882 144c-26,0 -47,21 -47,47 0,26 21,47 47,47 26,0 47,-21 47,-47 0,-26 -21,-47 -47,-47z"/>
   <path class="fil174" d="M882 144c-25,0 -46,21 -46,46 0,26 21,46 46,46 25,0 46,-21 46,-46 0,-25 -21,-46 -46,-46z"/>
   <path class="fil150" d="M882 145c-25,0 -45,20 -45,45 0,25 20,45 45,45 25,0 45,-20 45,-45 0,-25 -20,-45 -45,-45z"/>
   <path class="fil150" d="M882 146c-24,0 -44,20 -44,44 0,24 20,44 44,44 24,0 44,-20 44,-44 0,-24 -20,-44 -44,-44z"/>
   <path class="fil175" d="M882 147c-24,0 -43,19 -43,43 0,24 19,43 43,43 24,0 43,-19 43,-43 0,-24 -19,-43 -43,-43z"/>
   <path class="fil176" d="M882 148c-23,0 -42,19 -42,42 0,23 19,42 42,42 23,0 42,-19 42,-42 0,-23 -19,-42 -42,-42z"/>
   <path class="fil177" d="M882 149c-23,0 -41,18 -41,41 0,23 19,41 41,41 23,0 41,-18 41,-41 0,-23 -19,-41 -41,-41z"/>
   <path class="fil178" d="M882 150c-22,0 -40,18 -40,40 0,22 18,40 40,40 22,0 40,-18 40,-40 0,-22 -18,-40 -40,-40z"/>
   <path class="fil179" d="M882 151c-22,0 -39,18 -39,39 0,22 18,39 39,39 22,0 39,-18 39,-39 0,-22 -18,-39 -39,-39z"/>
   <path class="fil180" d="M882 152c-21,0 -38,17 -38,38 0,21 17,38 38,38 21,0 38,-17 38,-38 0,-21 -17,-38 -38,-38z"/>
   <path class="fil181" d="M882 153c-21,0 -37,17 -37,37 0,21 17,37 37,37 21,0 37,-17 37,-37 0,-21 -17,-37 -37,-37z"/>
   <path class="fil182" d="M882 154c-20,0 -36,16 -36,36 0,20 16,36 36,36 20,0 36,-16 36,-36 0,-20 -16,-36 -36,-36z"/>
   <path class="fil183" d="M882 155c-20,0 -35,16 -35,35 0,20 16,35 35,35 20,0 35,-16 35,-35 0,-19 -16,-35 -35,-35z"/>
   <path class="fil184" d="M882 156c-19,0 -34,15 -34,34 0,19 15,34 34,34 19,0 34,-15 34,-34 0,-19 -15,-34 -34,-34z"/>
   <path class="fil185" d="M882 157c-18,0 -33,15 -33,33 0,18 15,33 33,33 18,0 33,-15 33,-33 0,-18 -15,-33 -33,-33z"/>
   <path class="fil186" d="M882 158c-18,0 -32,14 -32,32 0,18 15,32 32,32 18,0 32,-15 32,-32 0,-18 -15,-32 -32,-32z"/>
   <path class="fil187" d="M882 159c-17,0 -31,14 -31,31 0,17 14,31 31,31 17,0 31,-14 31,-31 0,-17 -14,-31 -31,-31z"/>
   <path class="fil188" d="M882 160c-17,0 -30,14 -30,30 0,17 14,30 30,30 17,0 30,-14 30,-30 0,-17 -14,-30 -30,-30z"/>
   <path class="fil189" d="M882 161c-16,0 -29,13 -29,29 0,16 13,29 29,29 16,0 29,-13 29,-29 0,-16 -13,-29 -29,-29z"/>
   <path class="fil147" d="M882 162c-16,0 -28,13 -28,28 0,16 13,29 28,29 16,0 28,-13 28,-29 0,-16 -13,-28 -28,-28z"/>
   <path class="fil190" d="M882 163c-15,0 -27,12 -27,27 0,15 12,28 27,28 15,0 27,-12 27,-28 0,-15 -12,-27 -27,-27z"/>
   <path class="fil191" d="M882 164c-15,0 -27,12 -27,26 0,15 12,27 27,27 15,0 27,-12 27,-27 0,-15 -12,-26 -27,-26z"/>
   <path class="fil192" d="M882 165c-14,0 -26,11 -26,25 0,14 11,26 26,26 14,0 26,-11 26,-26 0,-14 -11,-25 -26,-25z"/>
   <path class="fil193" d="M882 166c-14,0 -25,11 -25,25 0,14 11,25 25,25 14,0 25,-11 25,-25 0,-14 -11,-25 -25,-25z"/>
   <path class="fil194" d="M882 167c-13,0 -24,11 -24,24 0,13 11,24 24,24 13,0 24,-11 24,-24 0,-13 -11,-24 -24,-24z"/>
   <path class="fil195" d="M882 168c-12,0 -23,10 -23,23 0,12 10,23 23,23 12,0 23,-10 23,-23 0,-12 -10,-23 -23,-23z"/>
   <path class="fil196" d="M882 169c-12,0 -22,10 -22,22 0,12 10,22 22,22 12,0 22,-10 22,-22 0,-12 -10,-22 -22,-22z"/>
   <path class="fil197" d="M882 170c-11,0 -21,9 -21,21 0,11 9,21 21,21 11,0 21,-9 21,-21 0,-11 -9,-21 -21,-21z"/>
   <path class="fil198" d="M882 171c-11,0 -20,9 -20,20 0,11 9,20 20,20 11,0 20,-9 20,-20 0,-11 -9,-20 -20,-20z"/>
   <path class="fil199" d="M882 172c-10,0 -19,8 -19,19 0,10 8,19 19,19 10,0 19,-8 19,-19 0,-10 -8,-19 -19,-19z"/>
   <path class="fil200" d="M882 173c-10,0 -18,8 -18,18 0,10 8,18 18,18 10,0 18,-8 18,-18 0,-10 -8,-18 -18,-18z"/>
   <path class="fil201" d="M882 174c-9,0 -17,7 -17,17 0,9 8,17 17,17 9,0 17,-7 17,-17 0,-9 -7,-17 -17,-17z"/>
   <path class="fil202" d="M882 175c-9,0 -16,7 -16,16 0,9 7,16 16,16 9,0 16,-7 16,-16 0,-9 -7,-16 -16,-16z"/>
   <path class="fil202" d="M882 176c-8,0 -15,7 -15,15 0,8 7,15 15,15 8,0 15,-7 15,-15 0,-8 -7,-15 -15,-15z"/>
   <path class="fil203" d="M882 177c-8,0 -14,6 -14,14 0,8 6,14 14,14 8,0 14,-6 14,-14 0,-8 -6,-14 -14,-14z"/>
   <path class="fil204" d="M882 178c-7,0 -13,6 -13,13 0,7 6,13 13,13 7,0 13,-6 13,-13 0,-7 -6,-13 -13,-13z"/>
   <path class="fil205" d="M882 179c-6,0 -12,5 -12,12 0,7 5,12 12,12 7,0 12,-5 12,-12 0,-6 -5,-12 -12,-12z"/>
   <path class="fil206" d="M882 180c-6,0 -11,5 -11,11 0,6 5,11 11,11 6,0 11,-5 11,-11 0,-6 -5,-11 -11,-11z"/>
   <path class="fil207" d="M882 181c-5,0 -10,4 -10,10 0,5 4,10 10,10 5,0 10,-4 10,-10 0,-5 -4,-10 -10,-10z"/>
   <path class="fil208" d="M882 182c-5,0 -9,4 -9,9 0,5 4,9 9,9 5,0 9,-4 9,-9 0,-5 -4,-9 -9,-9z"/>
   <path class="fil209" d="M882 183c-4,0 -8,4 -8,8 0,4 3,8 8,8 4,0 8,-4 8,-8 0,-4 -4,-8 -8,-8z"/>
   <path class="fil210" d="M882 184c-4,0 -7,3 -7,7 0,4 3,7 7,7 4,0 7,-3 7,-7 0,-4 -3,-7 -7,-7z"/>
   <path class="fil211" d="M882 185c-3,0 -6,3 -6,6 0,3 3,6 6,6 3,0 6,-3 6,-6 0,-3 -3,-6 -6,-6z"/>
   <path class="fil212" d="M882 186c-3,0 -5,2 -5,5 0,3 2,5 5,5 3,0 5,-2 5,-5 0,-3 -2,-5 -5,-5z"/>
   <path class="fil213" d="M882 187c-2,0 -4,2 -4,4 0,2 2,4 4,4 2,0 4,-2 4,-4 0,-2 -2,-4 -4,-4z"/>
   <path class="fil214" d="M882 188c-2,0 -3,1 -3,3 0,2 1,3 3,3 2,0 3,-1 3,-3 0,-2 -1,-3 -3,-3z"/>
   <path class="fil215" d="M882 189c-1,0 -2,1 -2,2 0,1 1,2 2,2 1,0 2,-1 2,-2 0,-1 -1,-2 -2,-2z"/>
   <path class="fil216" d="M882 190c-1,0 -1,0 -1,1 0,1 0,1 1,1 1,0 1,0 1,-1 0,-1 0,-1 -1,-1z"/>
   <polygon class="fil217" points="803,110 961,110 961,271 803,271 "/>
   <path class="fil218" d="M967 277l-169 0 0 -172 169 0 0 172zm-157 -12l0 0 145 0 0 -148 -145 0 0 148z"/>
   <path class="fil218" d="M955 460c0,-41 -33,-74 -74,-74 -41,0 -74,33 -74,74 0,41 33,74 74,74 41,0 74,-33 74,-74z"/>
   <path class="fil219" d="M954 460c0,-40 -33,-73 -73,-73 -40,0 -73,33 -73,73 0,40 33,73 73,73 40,0 73,-33 73,-73z"/>
   <path class="fil220" d="M953 460c0,-40 -32,-72 -72,-72 -40,0 -72,32 -72,72 0,40 32,72 72,72 40,0 72,-32 72,-72z"/>
   <path class="fil221" d="M952 460c0,-39 -32,-71 -71,-71 -39,0 -71,32 -71,71 0,39 32,71 71,71 39,0 71,-32 71,-71z"/>
   <path class="fil222" d="M951 460c0,-39 -31,-70 -70,-70 -39,0 -70,31 -70,70 0,39 31,70 70,70 39,0 70,-31 70,-70z"/>
   <path class="fil223" d="M950 460c0,-38 -31,-69 -69,-69 -38,0 -69,31 -69,69 0,38 31,69 69,69 38,0 69,-31 69,-69z"/>
   <path class="fil224" d="M949 460c0,-37 -30,-68 -68,-68 -38,0 -68,30 -68,68 0,38 30,68 68,68 38,0 68,-30 68,-68z"/>
   <path class="fil225" d="M947 460c0,-37 -30,-67 -67,-67 -37,0 -67,30 -67,67 0,37 30,67 67,67 37,0 67,-30 67,-67z"/>
   <path class="fil226" d="M946 460c0,-36 -29,-66 -66,-66 -36,0 -66,30 -66,66 0,36 29,66 66,66 36,0 66,-30 66,-66z"/>
   <path class="fil227" d="M945 460c0,-36 -29,-65 -65,-65 -36,0 -65,29 -65,65 0,36 29,65 65,65 36,0 65,-29 65,-65z"/>
   <path class="fil228" d="M944 460c0,-35 -29,-64 -64,-64 -35,0 -64,29 -64,64 0,35 29,64 64,64 35,0 64,-29 64,-64z"/>
   <path class="fil229" d="M943 460c0,-35 -28,-63 -63,-63 -35,0 -63,28 -63,63 0,35 28,63 63,63 35,0 63,-28 63,-63z"/>
   <path class="fil230" d="M942 460c0,-34 -28,-62 -62,-62 -34,0 -62,28 -62,62 0,34 28,62 62,62 34,0 62,-28 62,-62z"/>
   <path class="fil231" d="M941 460c0,-34 -27,-61 -61,-61 -34,0 -61,27 -61,61 0,34 27,61 61,61 33,0 61,-27 61,-61z"/>
   <path class="fil232" d="M940 460c0,-33 -27,-60 -60,-60 -33,0 -60,27 -60,60 0,33 27,60 60,60 33,0 60,-27 60,-60z"/>
   <path class="fil233" d="M939 460c0,-32 -26,-59 -59,-59 -32,0 -59,26 -59,59 0,32 26,59 59,59 32,0 59,-26 59,-59z"/>
   <path class="fil234" d="M938 460c0,-32 -26,-58 -58,-58 -32,0 -58,26 -58,58 0,32 26,58 58,58 32,0 58,-26 58,-58z"/>
   <path class="fil235" d="M937 460c0,-31 -25,-57 -57,-57 -31,0 -57,25 -57,57 0,31 25,57 57,57 31,0 57,-25 57,-57z"/>
   <path class="fil236" d="M936 460c0,-31 -25,-56 -56,-56 -31,0 -56,25 -56,56 0,31 25,56 56,56 31,0 56,-25 56,-56z"/>
   <path class="fil237" d="M935 460c0,-30 -24,-55 -55,-55 -30,0 -55,24 -55,55 0,30 24,54 55,54 30,0 55,-24 55,-54z"/>
   <path class="fil238" d="M934 460c0,-30 -24,-53 -54,-53 -30,0 -53,24 -53,53 0,30 24,54 53,54 29,0 54,-24 54,-54z"/>
   <path class="fil239" d="M933 460c0,-29 -23,-53 -52,-53 -29,0 -53,24 -53,53 0,29 23,52 53,52 29,0 52,-24 52,-52z"/>
   <path class="fil240" d="M932 460c0,-28 -23,-51 -51,-51 -28,0 -51,23 -51,51 0,28 23,51 51,51 28,0 51,-23 51,-51z"/>
   <path class="fil241" d="M931 460c0,-28 -23,-50 -50,-50 -28,0 -50,23 -50,50 0,28 23,50 50,50 28,0 50,-23 50,-50z"/>
   <path class="fil242" d="M930 460c0,-27 -22,-49 -49,-49 -27,0 -49,22 -49,49 0,27 22,49 49,49 27,0 49,-22 49,-49z"/>
   <path class="fil243" d="M929 460c0,-27 -22,-48 -48,-48 -27,0 -48,22 -48,48 0,27 22,48 48,48 27,0 48,-22 48,-48z"/>
   <path class="fil244" d="M928 460c0,-26 -21,-47 -47,-47 -26,0 -47,21 -47,47 0,26 21,47 47,47 26,0 47,-21 47,-47z"/>
   <path class="fil245" d="M927 460c0,-26 -21,-46 -46,-46 -26,0 -46,21 -46,46 0,26 21,46 46,46 26,0 46,-21 46,-46z"/>
   <path class="fil246" d="M926 460c0,-25 -20,-45 -45,-45 -25,0 -45,20 -45,45 0,25 20,45 45,45 25,0 45,-20 45,-45z"/>
   <path class="fil247" d="M925 460c0,-24 -20,-44 -44,-44 -24,0 -44,20 -44,44 0,24 20,44 44,44 24,0 44,-20 44,-44z"/>
   <path class="fil248" d="M924 460c0,-24 -19,-43 -43,-43 -24,0 -43,19 -43,43 0,24 19,43 43,43 24,0 43,-19 43,-43z"/>
   <path class="fil249" d="M923 460c0,-23 -19,-42 -42,-42 -23,0 -42,19 -42,42 0,23 19,42 42,42 23,0 42,-19 42,-42z"/>
   <path class="fil250" d="M922 460c0,-23 -18,-41 -41,-41 -23,0 -41,18 -41,41 0,23 18,41 41,41 23,0 41,-18 41,-41z"/>
   <path class="fil251" d="M921 460c0,-22 -18,-40 -40,-40 -22,0 -40,18 -40,40 0,22 18,40 40,40 22,0 40,-18 40,-40z"/>
   <path class="fil252" d="M920 460c0,-22 -17,-39 -39,-39 -22,0 -39,17 -39,39 0,22 18,39 39,39 22,0 39,-17 39,-39z"/>
   <path class="fil253" d="M919 460c0,-21 -17,-38 -38,-38 -21,0 -38,17 -38,38 0,21 17,38 38,38 21,0 38,-17 38,-38z"/>
   <path class="fil254" d="M918 460c0,-20 -17,-37 -37,-37 -20,0 -37,17 -37,37 0,20 17,37 37,37 20,0 37,-17 37,-37z"/>
   <path class="fil255" d="M917 460c0,-20 -16,-36 -36,-36 -20,0 -36,16 -36,36 0,20 16,36 36,36 20,0 36,-16 36,-36z"/>
   <path class="fil255" d="M916 460c0,-19 -16,-35 -35,-35 -19,0 -35,16 -35,35 0,19 16,35 35,35 19,0 35,-16 35,-35z"/>
   <path class="fil256" d="M915 460c0,-19 -15,-34 -34,-34 -19,0 -34,15 -34,34 0,19 15,34 34,34 19,0 34,-15 34,-34z"/>
   <path class="fil256" d="M914 460c0,-18 -15,-33 -33,-33 -18,0 -33,15 -33,33 0,18 15,33 33,33 18,0 33,-15 33,-33z"/>
   <path class="fil257" d="M913 460c0,-18 -14,-32 -32,-32 -18,0 -32,14 -32,32 0,18 14,32 32,32 18,0 32,-14 32,-32z"/>
   <path class="fil257" d="M911 460c0,-17 -14,-31 -31,-31 -17,0 -31,14 -31,31 0,17 14,31 31,31 17,0 31,-14 31,-31z"/>
   <path class="fil257" d="M911 460c0,-16 -13,-30 -30,-30 -17,0 -30,13 -30,30 0,16 13,30 30,30 16,0 30,-13 30,-30z"/>
   <path class="fil258" d="M909 460c0,-16 -13,-29 -29,-29 -16,0 -29,13 -29,29 0,16 13,29 29,29 16,0 29,-13 29,-29z"/>
   <path class="fil258" d="M908 460c0,-15 -12,-28 -28,-28 -15,0 -28,12 -28,28 0,15 12,28 28,28 15,0 28,-12 28,-28z"/>
   <path class="fil259" d="M907 460c0,-15 -12,-27 -27,-27 -15,0 -27,12 -27,27 0,15 12,27 27,27 15,0 27,-12 27,-27z"/>
   <path class="fil260" d="M906 460c0,-14 -12,-26 -26,-26 -14,0 -26,12 -26,26 0,14 12,26 26,26 14,0 26,-12 26,-26z"/>
   <path class="fil260" d="M905 460c0,-14 -11,-25 -25,-25 -14,0 -25,11 -25,25 0,14 11,25 25,25 14,0 25,-11 25,-25z"/>
   <path class="fil260" d="M904 460c0,-13 -11,-24 -24,-24 -13,0 -24,11 -24,24 0,13 11,24 24,24 13,0 24,-11 24,-24z"/>
   <path class="fil260" d="M903 460c0,-13 -10,-23 -23,-23 -13,0 -23,10 -23,23 0,13 10,23 23,23 12,0 23,-10 23,-23z"/>
   <path class="fil260" d="M902 460c0,-12 -10,-22 -22,-22 -12,0 -22,10 -22,22 0,12 10,22 22,22 12,0 22,-10 22,-22z"/>
   <path class="fil260" d="M901 460c0,-11 -9,-21 -21,-21 -11,0 -21,9 -21,21 0,11 9,21 21,21 11,0 21,-9 21,-21z"/>
   <path class="fil217" d="M900 460c0,-11 -9,-20 -20,-20 -11,0 -20,9 -20,20 0,11 9,20 20,20 11,0 20,-9 20,-20z"/>
   <path class="fil217" d="M899 460c0,-10 -8,-19 -18,-19 -10,0 -19,8 -19,19 0,10 8,19 19,19 10,0 18,-8 18,-19z"/>
   <path class="fil217" d="M898 460c0,-10 -8,-17 -17,-17 -10,0 -18,8 -18,17 0,10 8,17 18,17 10,0 17,-8 17,-17z"/>
   <path class="fil217" d="M897 460c0,-9 -7,-16 -16,-16 -9,0 -17,7 -17,16 0,9 7,16 17,16 9,0 16,-7 16,-16z"/>
   <path class="fil217" d="M896 460c0,-9 -7,-15 -15,-15 -9,0 -15,7 -15,15 0,9 7,15 15,15 9,0 15,-7 15,-15z"/>
   <path class="fil217" d="M895 460c0,-8 -6,-14 -14,-14 -8,0 -14,7 -14,14 0,8 6,14 14,14 8,0 14,-7 14,-14z"/>
   <path class="fil217" d="M894 460c0,-7 -6,-13 -13,-13 -7,0 -13,6 -13,13 0,7 6,13 13,13 7,0 13,-6 13,-13z"/>
   <path class="fil217" d="M893 460c0,-7 -6,-12 -12,-12 -7,0 -12,6 -12,12 0,7 5,12 12,12 7,0 12,-6 12,-12z"/>
   <path class="fil217" d="M892 460c0,-6 -5,-11 -11,-11 -6,0 -11,5 -11,11 0,6 5,11 11,11 6,0 11,-5 11,-11z"/>
   <path class="fil217" d="M891 460c0,-6 -5,-10 -10,-10 -6,0 -10,5 -10,10 0,6 5,10 10,10 6,0 10,-5 10,-10z"/>
   <path class="fil217" d="M890 460c0,-5 -4,-9 -9,-9 -5,0 -9,4 -9,9 0,5 4,9 9,9 5,0 9,-4 9,-9z"/>
   <path class="fil217" d="M889 460c0,-5 -4,-8 -8,-8 -5,0 -8,4 -8,8 0,5 4,8 8,8 5,0 8,-4 8,-8z"/>
   <path class="fil217" d="M888 460c0,-4 -3,-7 -7,-7 -4,0 -7,3 -7,7 0,4 3,7 7,7 4,0 7,-3 7,-7z"/>
   <path class="fil217" d="M887 460c0,-3 -3,-6 -6,-6 -3,0 -6,3 -6,6 0,3 3,6 6,6 3,0 6,-3 6,-6z"/>
   <path class="fil217" d="M886 460c0,-3 -2,-5 -5,-5 -3,0 -5,2 -5,5 0,3 2,5 5,5 3,0 5,-2 5,-5z"/>
   <path class="fil217" d="M885 460c0,-2 -2,-4 -4,-4 -2,0 -4,2 -4,4 0,2 2,4 4,4 2,0 4,-2 4,-4z"/>
   <path class="fil217" d="M884 460c0,-2 -1,-3 -3,-3 -2,0 -3,1 -3,3 0,2 1,3 3,3 2,0 3,-1 3,-3z"/>
   <path class="fil217" d="M883 460c0,-1 -1,-2 -2,-2 -1,0 -2,1 -2,2 0,1 1,2 2,2 1,0 2,-1 2,-2z"/>
   <path class="fil217" d="M882 460c0,-1 0,-1 -1,-1 -1,0 -1,0 -1,1 0,1 0,1 1,1 1,0 1,0 1,-1z"/>
   <path class="fil261" d="M822 384l118 0c8,0 14,7 14,15l0 121c0,8 -7,15 -15,15l-116 0c-8,0 -15,-7 -15,-15l0 -121c0,-8 6,-14 14,-15z"/>
   <path class="fil262" d="M939 538l-116 0c-10,0 -18,-8 -18,-18l0 -121c0,-10 8,-18 18,-18l116 0c10,0 18,8 18,18l0 121c0,10 -8,18 -18,18zm-116 -150l0 0c-6,0 -12,5 -12,12l0 121c0,6 5,12 12,12l116 0c6,0 12,-5 12,-12l0 -121c0,-6 -5,-12 -12,-12l-116 0z"/>
   <path class="fil263" d="M880 431c0,16 -13,29 -29,29 -16,0 -29,-13 -29,-29 0,-16 13,-29 29,-29 16,0 29,13 29,29z"/>
   <path class="fil263" d="M938 489c0,16 -13,29 -29,29 -16,0 -29,-13 -29,-29 0,-16 13,-29 29,-29 16,0 29,13 29,29z"/>
   <path class="fil263" d="M870 494c0,12 -10,22 -22,22 -12,0 -22,-10 -22,-22 0,-12 10,-22 22,-22 12,0 22,10 22,22z"/>
   <path class="fil263" d="M937 429c0,12 -10,22 -22,22 -12,0 -22,-10 -22,-22 0,-12 10,-22 22,-22 12,0 22,10 22,22z"/>
   <polygon class="fil120" points="420,135 614,135 614,21 420,21 "/>
   <polygon class="fil3" points="435,121 597,121 597,52 435,52 "/>
   <polygon class="fil5" points="1310,733 1269,733 1269,724 1301,724 1301,692 1310,692 "/>
   <path class="fil5" d="M1235 733l-68 0 0 -9 68 0 0 9zm-102 0l0 0 -68 0 0 -9 68 0 0 9zm-102 0l0 0 -68 0 0 -9 68 0 0 9zm-102 0l0 0 -68 0 0 -9 68 0 0 9z"/>
   <polygon class="fil5" points="828,733 787,733 787,692 796,692 796,724 828,724 "/>
   <path class="fil5" d="M796 655l-9 0 0 -74 9 0 0 74zm0 -111l0 0 -9 0 0 -74 9 0 0 74zm0 -111l0 0 -9 0 0 -74 9 0 0 74zm0 -111l0 0 -9 0 0 -74 9 0 0 74zm0 -111l0 0 -9 0 0 -74 9 0 0 74z"/>
   <polygon class="fil5" points="796,99 787,99 787,58 828,58 828,67 796,67 "/>
   <path class="fil5" d="M1235 67l-68 0 0 -9 68 0 0 9zm-102 0l0 0 -68 0 0 -9 68 0 0 9zm-102 0l0 0 -68 0 0 -9 68 0 0 9zm-102 0l0 0 -68 0 0 -9 68 0 0 9z"/>
   <polygon class="fil5" points="1310,99 1301,99 1301,67 1269,67 1269,58 1310,58 "/>
   <path class="fil5" d="M1310 655l-9 0 0 -74 9 0 0 74zm0 -111l0 0 -9 0 0 -74 9 0 0 74zm0 -111l0 0 -9 0 0 -74 9 0 0 74zm0 -111l0 0 -9 0 0 -74 9 0 0 74zm0 -111l0 0 -9 0 0 -74 9 0 0 74z"/>
   <path class="fil264" d="M1581 391c-24,0 -42,10 -55,29 -13,19 -20,46 -20,80 0,70 27,106 80,106 16,0 32,-2 47,-7 15,-5 30,-10 46,-16l0 84c-31,13 -65,20 -104,20 -55,0 -98,-16 -127,-48 -29,-32 -44,-78 -44,-139 0,-38 7,-71 21,-100 14,-29 35,-51 62,-66 27,-15 58,-23 95,-23 40,0 77,9 114,26l-30 78c-14,-6 -27,-12 -41,-16 -14,-4 -28,-6 -44,-6z"/>
   <path class="fil5" d="M1819 452l-29 0 0 -78 0 -13 0 -14c-5,5 -8,8 -10,9l-16 13 -14 -17 44 -35 24 0 0 136z"/>
   <path class="fil5" d="M1906 365c13,0 24,4 31,11 8,7 12,17 12,30 0,15 -5,27 -14,35 -9,8 -23,12 -40,12 -15,0 -27,-2 -37,-7l0 -25c5,3 11,5 17,6 6,2 13,2 18,2 18,0 26,-7 26,-22 0,-14 -9,-20 -27,-20 -3,0 -7,0 -11,1 -4,1 -7,1 -10,2l-11 -6 5 -69 74 0 0 24 -48 0 -2 27 3 -1c4,-1 8,-1 14,-1z"/>
   <path class="fil5" d="M2000 432c-3,13 -9,27 -16,44l-20 0c4,-16 7,-32 9,-47l26 0 1 2z"/>
   <path class="fil5" d="M2118 424l-16 0 0 28 -28 0 0 -28 -58 0 0 -20 59 -88 26 0 0 85 16 0 0 22zm-44 -22l0 0 0 -23c0,-4 0,-9 0,-17 0,-7 1,-12 1,-13l-1 0c-2,5 -5,10 -8,15l-25 38 33 0z"/>
   <path class="fil5" d="M1843 680l-95 0 0 -20 34 -34c10,-10 17,-17 20,-21 3,-4 5,-8 7,-11 1,-3 2,-7 2,-11 0,-5 -1,-9 -5,-12 -3,-3 -7,-4 -12,-4 -5,0 -10,1 -15,4 -5,2 -10,6 -16,10l-16 -18c7,-6 12,-10 17,-12 4,-2 9,-4 14,-5 5,-1 11,-2 17,-2 8,0 16,2 22,5 6,3 12,7 15,13 4,6 5,12 5,19 0,6 -1,12 -3,18 -2,5 -6,11 -10,17 -5,6 -13,14 -24,25l-17 16 0 1 59 0 0 24z"/>
   <path class="fil5" d="M1951 602c0,27 -6,47 -17,60 -11,13 -28,20 -51,20 -8,0 -14,0 -18,-1l0 -23c5,1 11,2 16,2 10,0 17,-1 24,-4 6,-3 11,-7 14,-13 3,-6 5,-14 6,-25l-1 0c-4,6 -8,10 -12,12 -5,2 -11,4 -18,4 -12,0 -21,-4 -28,-11 -7,-8 -10,-18 -10,-32 0,-15 4,-26 12,-34 8,-8 20,-13 34,-13 10,0 19,2 26,7 8,5 13,12 17,20 4,9 6,20 6,32zm-49 -36l0 0c-6,0 -11,2 -14,6 -3,4 -5,10 -5,18 0,7 1,12 5,16 3,4 8,6 14,6 6,0 11,-2 15,-6 4,-4 6,-8 6,-13 0,-7 -2,-14 -6,-19 -4,-5 -9,-8 -15,-8z"/>
   <path class="fil5" d="M2000 660c-3,12 -9,27 -16,44l-20 0c4,-16 7,-32 9,-47l26 0 1 2z"/>
   <path class="fil5" d="M2118 652l-16 0 0 28 -28 0 0 -28 -58 0 0 -20 59 -88 26 0 0 85 16 0 0 22zm-44 -22l0 0 0 -23c0,-4 0,-9 0,-17 0,-7 1,-12 1,-13l-1 0c-2,5 -5,10 -8,15l-25 38 33 0z"/>
   <path class="fil5" d="M1080 482c11,0 19,3 26,9 6,6 10,14 10,25 0,12 -4,22 -12,29 -8,7 -19,10 -33,10 -12,0 -23,-2 -30,-6l0 -20c4,2 9,4 14,5 5,1 10,2 15,2 14,0 22,-6 22,-18 0,-11 -7,-17 -22,-17 -3,0 -6,0 -9,1 -3,1 -6,1 -8,2l-9 -5 4 -57 61 0 0 20 -40 0 -2 22 3 -1c3,-1 7,-1 12,-1z"/>
   <path class="fil5" d="M1158 537c-3,10 -7,23 -14,37l-17 0c3,-14 6,-26 8,-38l21 0 1 2z"/>
   <path class="fil5" d="M1252 498c0,20 -3,34 -10,43 -6,9 -16,14 -30,14 -13,0 -23,-5 -29,-15 -7,-10 -10,-24 -10,-43 0,-20 3,-34 10,-44 6,-9 16,-14 30,-14 13,0 23,5 29,15 7,10 10,24 10,43zm-55 0l0 0c0,14 1,24 4,30 2,6 6,9 12,9 6,0 9,-3 12,-9 2,-6 4,-16 4,-29 0,-14 -1,-24 -4,-30 -2,-6 -6,-9 -12,-9 -6,0 -10,3 -12,9 -2,6 -4,16 -4,30z"/>
   <path class="fil5" d="M362 830l-13 0 0 23 -23 0 0 -23 -48 0 0 -16 49 -72 22 0 0 70 13 0 0 18zm-37 -18l0 0 0 -19c0,-3 0,-8 0,-14 0,-6 0,-10 1,-11l-1 0c-2,4 -4,8 -7,12l-21 31 27 0z"/>
   <path class="fil5" d="M400 837c-3,10 -7,23 -14,37l-17 0c3,-14 6,-26 8,-38l21 0 1 2z"/>
   <path class="fil5" d="M497 830l-13 0 0 23 -23 0 0 -23 -48 0 0 -16 49 -72 22 0 0 70 13 0 0 18zm-37 -18l0 0 0 -19c0,-3 0,-8 0,-14 0,-6 0,-10 1,-11l-1 0c-2,4 -4,8 -7,12l-21 31 27 0z"/>
   <path class="fil5" d="M364 342c0,7 -2,13 -6,18 -4,5 -10,8 -18,10l0 0c9,1 16,4 21,8 5,4 7,10 7,18 0,11 -4,19 -12,25 -8,6 -19,9 -34,9 -12,0 -23,-2 -32,-6l0 -20c4,2 9,4 14,5 5,1 10,2 16,2 8,0 14,-1 17,-4 4,-3 6,-7 6,-13 0,-5 -2,-9 -6,-11 -4,-2 -11,-3 -21,-3l-8 0 0 -18 9 0c9,0 15,-1 19,-3 4,-2 6,-6 6,-12 0,-8 -5,-13 -16,-13 -4,0 -7,1 -11,2 -4,1 -8,3 -13,6l-11 -16c10,-7 22,-11 37,-11 12,0 21,2 27,7 7,5 10,11 10,20z"/>
   <path class="fil5" d="M408 412c-3,10 -7,23 -14,37l-17 0c3,-14 6,-26 8,-38l21 0 1 2z"/>
   <polygon class="fil5" points="436,429 478,337 423,337 423,317 503,317 503,332 461,429 "/>
   <path class="fil5" d="M2118 510l-376 0c-5,0 -8,-3 -8,-7 0,-4 4,-7 8,-7l376 0c5,0 8,3 8,7 0,4 -4,7 -8,7z"/>
   <path class="fil5" d="M2382 324c0,7 -2,13 -6,18 -4,5 -10,8 -18,10l0 0c9,1 16,4 21,8 5,4 7,10 7,18 0,11 -4,19 -12,25 -8,6 -19,9 -34,9 -12,0 -23,-2 -32,-6l0 -20c4,2 9,4 14,5 5,1 10,2 16,2 8,0 14,-1 17,-4 4,-3 6,-7 6,-13 0,-5 -2,-9 -6,-11 -4,-2 -11,-3 -21,-3l-8 0 0 -18 9 0c9,0 15,-1 19,-3 4,-2 6,-6 6,-12 0,-8 -5,-13 -16,-13 -4,0 -7,1 -11,2 -4,1 -8,3 -13,6l-11 -16c10,-7 22,-11 37,-11 12,0 21,2 27,7 7,5 10,11 10,20z"/>
   <path class="fil5" d="M2427 394c-3,10 -7,23 -13,37l-17 0c3,-14 6,-26 8,-38l21 0 1 2z"/>
   <path class="fil5" d="M2502 411l-24 0 0 -65 0 -11 0 -12c-4,4 -7,6 -8,8l-13 10 -11 -14 36 -29 19 0 0 112z"/>
   <path class="fil5" d="M1859 981l-24 0 0 -65 0 -11 0 -12c-4,4 -7,6 -8,8l-13 10 -11 -14 36 -29 19 0 0 112z"/>
   <path class="fil5" d="M1931 909c11,0 19,3 26,9 6,6 10,14 10,25 0,13 -4,22 -12,29 -8,7 -19,10 -33,10 -12,0 -23,-2 -30,-6l0 -20c4,2 9,4 14,5 5,1 10,2 15,2 14,0 22,-6 22,-18 0,-11 -7,-17 -22,-17 -3,0 -6,0 -9,1 -3,1 -6,1 -8,2l-9 -5 4 -57 61 0 0 20 -40 0 -2 22 3 -1c3,-1 7,-1 12,-1z"/>
   <path class="fil5" d="M2009 965c-3,10 -7,23 -14,37l-17 0c3,-14 6,-26 8,-38l21 0 1 2z"/>
   <path class="fil5" d="M2106 958l-13 0 0 23 -23 0 0 -23 -48 0 0 -16 49 -72 22 0 0 70 13 0 0 18zm-37 -18l0 0 0 -19c0,-3 0,-8 0,-14 0,-6 0,-10 1,-11l-1 0c-2,4 -4,8 -7,12l-21 31 27 0z"/>
  </g>
 </g>
</svg>
